%TF.GenerationSoftware,Altium Limited,Altium Designer,24.0.1 (36)*%
G04 Layer_Color=65535*
%FSLAX45Y45*%
%MOMM*%
%TF.SameCoordinates,B6A243B4-E260-46CF-AFF0-E69CB888832F*%
%TF.FilePolarity,Positive*%
%TF.FileFunction,Legend,Top*%
%TF.Part,Single*%
G01*
G75*
%TA.AperFunction,NonConductor*%
%ADD66C,0.25000*%
%ADD67C,0.20000*%
%ADD68C,0.25400*%
%ADD69C,0.50000*%
%ADD70C,0.20320*%
%ADD71C,0.15240*%
%ADD72C,0.12700*%
%ADD73C,0.50800*%
G36*
X10380701Y3420449D02*
Y3459518D01*
X10377696D01*
Y3492576D01*
X10374690D01*
Y3525635D01*
X10371685D01*
Y3555688D01*
X10368680D01*
Y3585741D01*
X10365674D01*
Y3615794D01*
X10362669D01*
Y3645847D01*
X10359664D01*
Y3672895D01*
X10356658D01*
Y3699942D01*
X10353653D01*
Y3726990D01*
X10350648D01*
Y3754038D01*
X10347643D01*
Y3778080D01*
X10344637D01*
Y3802123D01*
X10341632D01*
Y3820154D01*
X10338627D01*
Y3841191D01*
X10335621D01*
Y3859223D01*
X10332616D01*
Y3874250D01*
X10329611D01*
Y3886271D01*
X10326605D01*
Y3898292D01*
X10323600D01*
Y3907308D01*
X10320595D01*
Y3916324D01*
X10317589D01*
Y3925340D01*
X10314584D01*
Y3931351D01*
X10311579D01*
Y3940367D01*
X10308574D01*
Y3949383D01*
X10305568D01*
Y3955393D01*
X10302563D01*
Y3964409D01*
X10299558D01*
Y3970420D01*
X10296552D01*
Y3976430D01*
X10293547D01*
Y3982441D01*
X10290542D01*
Y3988451D01*
X10287536D01*
Y3994462D01*
X10284531D01*
Y4000473D01*
X10281526D01*
Y4006483D01*
X10278520D01*
Y4012494D01*
X10275515D01*
Y4018505D01*
X10272510D01*
Y4021510D01*
X10269505D01*
Y4027520D01*
X10266499D01*
Y4030526D01*
X10263494D01*
Y4036536D01*
X10260489D01*
Y4042547D01*
X10257483D01*
Y4045552D01*
X10254478D01*
Y4051563D01*
X10251473D01*
Y4054568D01*
X10248467D01*
Y4060579D01*
X10245462D01*
Y4063584D01*
X10242457D01*
Y4069595D01*
X10239452D01*
Y4072600D01*
X10236446D01*
Y4075605D01*
X10233441D01*
Y4081616D01*
X10230436D01*
Y4084621D01*
X10227430D01*
Y4087626D01*
X10224425D01*
Y4090632D01*
X10221420D01*
Y4096642D01*
X10218415D01*
Y4099648D01*
X10215409D01*
Y4102653D01*
X10212404D01*
Y4105658D01*
X10209399D01*
Y4108664D01*
X10206393D01*
Y4114674D01*
X10203388D01*
Y4117680D01*
X10200383D01*
Y4120685D01*
X10197377D01*
Y4123690D01*
X10194372D01*
Y4126695D01*
X10191367D01*
Y4129701D01*
X10188361D01*
Y4132706D01*
X10185356D01*
Y4135711D01*
X10182351D01*
Y4138716D01*
X10179346D01*
Y4141722D01*
X10176340D01*
Y4144727D01*
X10173335D01*
Y4147732D01*
X10170330D01*
Y4150738D01*
X10167325D01*
Y4153743D01*
X10164319D01*
Y4156748D01*
X10161314D01*
Y4159754D01*
X10158309D01*
Y4162759D01*
X10155303D01*
Y4165764D01*
X10152298D01*
Y4168770D01*
X10149293D01*
X10146287D01*
Y4171775D01*
X10143282D01*
Y4174780D01*
X10140277D01*
Y4177786D01*
X10137271D01*
Y4180791D01*
X10134266D01*
Y4183796D01*
X10131261D01*
X10128255D01*
Y4186801D01*
X10125250D01*
Y4189807D01*
X10122245D01*
Y4192812D01*
X10119240D01*
X10116234D01*
Y4195817D01*
X10113229D01*
Y4198822D01*
X10110224D01*
Y4201828D01*
X10107218D01*
X10104213D01*
Y4204833D01*
X10101208D01*
Y4207838D01*
X10098203D01*
X10095197D01*
Y4210844D01*
X10092192D01*
X10089187D01*
Y4213849D01*
X10086181D01*
Y4216854D01*
X10083176D01*
X10080171D01*
Y4219860D01*
X10077165D01*
Y4222865D01*
X10074160D01*
X10071155D01*
Y4225870D01*
X10068149D01*
Y4228876D01*
X10065144D01*
X10062139D01*
Y4231881D01*
X10059134D01*
X10056128D01*
Y4234886D01*
X10053123D01*
X10050118D01*
Y4237891D01*
X10047112D01*
Y4240897D01*
X10044107D01*
X10041102D01*
Y4243902D01*
X10038097D01*
X10035091D01*
Y4246907D01*
X10032086D01*
X10029081D01*
Y4249913D01*
X10026075D01*
X10023070D01*
Y4252918D01*
X10020065D01*
X10017059D01*
Y4255923D01*
X10014054D01*
X10011049D01*
X10008043D01*
Y4258929D01*
X10005038D01*
X10002033D01*
Y4261934D01*
X9999027D01*
X9996022D01*
X9993017D01*
Y4264939D01*
X9990012D01*
X9987006D01*
Y4267944D01*
X9984001D01*
X9980996D01*
X9977990D01*
Y4270950D01*
X9974985D01*
X9971980D01*
Y4273955D01*
X9968974D01*
X9965969D01*
X9962964D01*
Y4276960D01*
X9959958D01*
X9956953D01*
X9953948D01*
Y4279966D01*
X9950943D01*
X9947937D01*
X9944932D01*
Y4282971D01*
X9941927D01*
X9938921D01*
X9935916D01*
Y4285976D01*
X9932911D01*
X9929905D01*
X9926900D01*
X9923895D01*
Y4288982D01*
X9920890D01*
X9917884D01*
X9914879D01*
X9911874D01*
Y4291987D01*
X9908868D01*
X9905863D01*
X9902858D01*
X9899852D01*
X9896847D01*
Y4294992D01*
X9893842D01*
X9890836D01*
X9887831D01*
X9884826D01*
Y4297998D01*
X9881821D01*
X9878815D01*
X9875810D01*
X9872805D01*
X9869799D01*
X9866794D01*
Y4301003D01*
X9863789D01*
X9860784D01*
X9857778D01*
X9854773D01*
X9851768D01*
X9848762D01*
X9845757D01*
X9842752D01*
Y4304008D01*
X9839746D01*
X9836741D01*
X9833736D01*
X9830730D01*
X9827725D01*
X9824720D01*
X9821715D01*
X9818709D01*
X9815704D01*
X9812699D01*
X9809693D01*
X9806688D01*
X9803683D01*
X9800678D01*
X9797672D01*
Y4307013D01*
X9794667D01*
X9791662D01*
X9788656D01*
X9785651D01*
X9782646D01*
X9779640D01*
X9776635D01*
X9773630D01*
X9770624D01*
X9767619D01*
X9764614D01*
Y4304008D01*
X9761609D01*
X9758603D01*
X9755598D01*
X9752593D01*
X9749587D01*
X9746582D01*
X9743577D01*
X9740571D01*
X9737566D01*
X9734561D01*
X9731556D01*
X9728550D01*
X9725545D01*
X9722540D01*
X9719534D01*
Y4301003D01*
X9716529D01*
X9713524D01*
X9710519D01*
X9707513D01*
X9704508D01*
X9701503D01*
X9698497D01*
Y4297998D01*
X9695492D01*
X9692487D01*
X9689481D01*
X9686476D01*
X9683471D01*
X9680465D01*
Y4294992D01*
X9677460D01*
X9674455D01*
X9671450D01*
X9668444D01*
X9665439D01*
X9662434D01*
Y4291987D01*
X9659428D01*
X9656423D01*
X9653418D01*
X9650413D01*
Y4288982D01*
X9647407D01*
X9644402D01*
X9641397D01*
X9638391D01*
Y4285976D01*
X9635386D01*
X9632381D01*
X9629375D01*
Y4282971D01*
X9626370D01*
X9623365D01*
X9620359D01*
X9617354D01*
Y4279966D01*
X9614349D01*
X9611343D01*
X9608338D01*
Y4276960D01*
X9605333D01*
X9602328D01*
X9599322D01*
Y4273955D01*
X9596317D01*
X9593312D01*
X9590306D01*
Y4270950D01*
X9587301D01*
X9584296D01*
X9581290D01*
Y4267944D01*
X9578285D01*
X9575280D01*
Y4264939D01*
X9572274D01*
X9569269D01*
X9566264D01*
Y4261934D01*
X9563259D01*
X9560253D01*
Y4258929D01*
X9557248D01*
X9554243D01*
X9551237D01*
Y4255923D01*
X9548232D01*
Y4252918D01*
X9545227D01*
X9542221D01*
X9539216D01*
Y4249913D01*
X9536211D01*
X9533205D01*
Y4246907D01*
X9530200D01*
X9527195D01*
Y4243902D01*
X9524190D01*
X9521184D01*
X9518179D01*
Y4240897D01*
X9521184D01*
Y4237891D01*
X9518179D01*
Y4240897D01*
X9515174D01*
Y4237891D01*
X9512168D01*
Y4234886D01*
X9509163D01*
X9506158D01*
X9503153D01*
Y4231881D01*
X9500147D01*
Y4228876D01*
X9497142D01*
X9494137D01*
X9491131D01*
Y4225870D01*
X9488126D01*
Y4222865D01*
X9485121D01*
X9482115D01*
Y4219860D01*
X9479110D01*
Y4216854D01*
X9482115D01*
Y4213849D01*
X9479110D01*
Y4216854D01*
X9476105D01*
X9473099D01*
Y4213849D01*
X9470094D01*
Y4210844D01*
X9467089D01*
X9464084D01*
Y4207838D01*
X9461078D01*
Y4204833D01*
X9458073D01*
X9455068D01*
Y4201828D01*
X9452062D01*
Y4198822D01*
X9455068D01*
Y4195817D01*
X9452062D01*
Y4198822D01*
X9449057D01*
X9446052D01*
Y4195817D01*
X9443046D01*
Y4192812D01*
X9440041D01*
X9437036D01*
Y4189807D01*
X9434031D01*
Y4186801D01*
X9431025D01*
Y4183796D01*
X9428020D01*
Y4180791D01*
X9425015D01*
X9422009D01*
Y4177786D01*
X9419004D01*
Y4174780D01*
X9415999D01*
X9412994D01*
Y4171775D01*
X9409988D01*
Y4168770D01*
X9406983D01*
Y4165764D01*
X9409988D01*
Y4162759D01*
X9412994D01*
X9415999D01*
Y4165764D01*
X9412994D01*
Y4168770D01*
X9415999D01*
Y4165764D01*
X9419004D01*
X9422009D01*
Y4159754D01*
X9419004D01*
X9415999D01*
X9412994D01*
X9409988D01*
Y4162759D01*
X9406983D01*
Y4165764D01*
X9403978D01*
Y4162759D01*
X9400972D01*
Y4156748D01*
X9397967D01*
X9394962D01*
X9391956D01*
Y4153743D01*
X9394962D01*
Y4150738D01*
X9391956D01*
Y4153743D01*
X9388951D01*
Y4150738D01*
X9385946D01*
Y4147732D01*
X9382940D01*
Y4141722D01*
X9379935D01*
Y4138716D01*
X9376930D01*
X9373924D01*
Y4132706D01*
X9370919D01*
X9367914D01*
Y4129701D01*
X9364909D01*
Y4126695D01*
X9367914D01*
Y4120685D01*
X9370919D01*
X9373924D01*
Y4117680D01*
X9370919D01*
X9367914D01*
Y4120685D01*
X9364909D01*
Y4126695D01*
X9361903D01*
Y4120685D01*
X9364909D01*
Y4117680D01*
X9367914D01*
Y4114674D01*
X9364909D01*
Y4117680D01*
X9361903D01*
Y4120685D01*
X9358898D01*
X9355893D01*
Y4114674D01*
X9352888D01*
X9349882D01*
Y4108664D01*
X9346877D01*
Y4105658D01*
X9343872D01*
Y4102653D01*
X9340866D01*
Y4099648D01*
X9337861D01*
Y4096642D01*
X9334856D01*
Y4090632D01*
X9331850D01*
Y4084621D01*
X9328845D01*
Y4081616D01*
X9325840D01*
Y4078611D01*
X9328845D01*
X9331850D01*
Y4081616D01*
X9334856D01*
Y4078611D01*
X9337861D01*
Y4075605D01*
X9340866D01*
Y4069595D01*
X9343872D01*
Y4066589D01*
X9340866D01*
Y4069595D01*
X9337861D01*
Y4072600D01*
X9334856D01*
Y4075605D01*
X9331850D01*
X9328845D01*
Y4072600D01*
X9325840D01*
Y4078611D01*
X9322834D01*
Y4075605D01*
X9319829D01*
Y4072600D01*
X9316824D01*
Y4069595D01*
X9319829D01*
X9322834D01*
Y4072600D01*
X9325840D01*
Y4066589D01*
X9328845D01*
Y4069595D01*
X9331850D01*
Y4066589D01*
X9334856D01*
X9337861D01*
X9340866D01*
Y4018505D01*
X9343872D01*
Y3465529D01*
X9340866D01*
Y3441486D01*
X9343872D01*
X9346877D01*
X9349882D01*
Y3435476D01*
X9346877D01*
X9343872D01*
Y3432470D01*
X9340866D01*
Y3426460D01*
X9343872D01*
Y3423455D01*
X9346877D01*
X9349882D01*
Y3417444D01*
X9346877D01*
X9343872D01*
Y3390396D01*
X9346877D01*
Y3387391D01*
X9349882D01*
Y3381380D01*
X9346877D01*
Y3387391D01*
X9343872D01*
Y3390396D01*
X9340866D01*
Y3393401D01*
X9337861D01*
Y3390396D01*
X9340866D01*
Y3387391D01*
X9343872D01*
Y3381380D01*
X9346877D01*
Y3378375D01*
X9349882D01*
Y3372364D01*
X9346877D01*
Y3378375D01*
X9343872D01*
Y3381380D01*
X9340866D01*
Y3378375D01*
X9343872D01*
Y3372364D01*
X9346877D01*
Y3369359D01*
X9349882D01*
X9352888D01*
X9355893D01*
Y3366354D01*
X9358898D01*
Y3360343D01*
X9361903D01*
Y3357338D01*
X9364909D01*
Y3354333D01*
X9361903D01*
Y3357338D01*
X9358898D01*
Y3360343D01*
X9355893D01*
X9352888D01*
Y3363349D01*
X9349882D01*
Y3366354D01*
X9346877D01*
Y3369359D01*
X9343872D01*
Y3372364D01*
X9340866D01*
Y3369359D01*
X9343872D01*
Y3366354D01*
X9346877D01*
Y3363349D01*
X9349882D01*
Y3357338D01*
X9352888D01*
X9355893D01*
Y3351327D01*
X9358898D01*
X9361903D01*
Y3345317D01*
X9364909D01*
Y3342311D01*
X9367914D01*
Y3339306D01*
X9370919D01*
Y3336301D01*
X9373924D01*
Y3333295D01*
X9376930D01*
X9379935D01*
Y3327285D01*
X9382940D01*
Y3324280D01*
X9385946D01*
Y3321274D01*
X9388951D01*
Y3318269D01*
X9391956D01*
Y3315264D01*
X9394962D01*
Y3312258D01*
X9397967D01*
X9400972D01*
Y3309253D01*
X9403978D01*
Y3306248D01*
X9406983D01*
Y3303243D01*
X9409988D01*
Y3300237D01*
X9412994D01*
Y3297232D01*
X9415999D01*
X9419004D01*
Y3294227D01*
X9422009D01*
Y3291221D01*
X9425015D01*
Y3288216D01*
X9428020D01*
Y3285211D01*
X9431025D01*
X9434031D01*
Y3282205D01*
X9437036D01*
Y3279200D01*
X9440041D01*
Y3276195D01*
X9443046D01*
X9446052D01*
Y3273189D01*
X9449057D01*
Y3270184D01*
X9452062D01*
X9455068D01*
Y3267179D01*
X9458073D01*
Y3264174D01*
X9461078D01*
X9464084D01*
Y3261168D01*
X9467089D01*
X9470094D01*
Y3258163D01*
X9473099D01*
Y3255158D01*
X9476105D01*
Y3252152D01*
X9479110D01*
X9482115D01*
Y3249147D01*
X9485121D01*
X9488126D01*
Y3246142D01*
X9491131D01*
Y3243137D01*
X9494137D01*
X9497142D01*
Y3240131D01*
X9500147D01*
X9503153D01*
Y3237126D01*
X9506158D01*
Y3234121D01*
X9509163D01*
X9512168D01*
Y3231115D01*
X9515174D01*
X9518179D01*
Y3228110D01*
X9521184D01*
X9524190D01*
Y3225105D01*
X9527195D01*
X9530200D01*
Y3222099D01*
X9533205D01*
X9536211D01*
Y3219094D01*
X9539216D01*
X9542221D01*
Y3216089D01*
X9545227D01*
X9548232D01*
Y3213083D01*
X9551237D01*
X9554243D01*
Y3210078D01*
X9557248D01*
X9560253D01*
X9563259D01*
Y3207073D01*
X9566264D01*
X9569269D01*
X9572274D01*
Y3204068D01*
X9575280D01*
X9578285D01*
Y3201062D01*
X9581290D01*
X9584296D01*
X9587301D01*
Y3198057D01*
X9590306D01*
X9593312D01*
X9596317D01*
Y3195052D01*
X9599322D01*
X9602328D01*
Y3192046D01*
X9605333D01*
X9608338D01*
X9611343D01*
X9614349D01*
Y3189041D01*
X9617354D01*
X9620359D01*
X9623365D01*
X9626370D01*
Y3186036D01*
X9629375D01*
X9632381D01*
X9635386D01*
X9638391D01*
Y3183030D01*
X9641397D01*
X9644402D01*
X9647407D01*
X9650413D01*
X9653418D01*
Y3180025D01*
X9656423D01*
X9659428D01*
X9662434D01*
X9665439D01*
X9668444D01*
X9671450D01*
Y3177020D01*
X9674455D01*
X9677460D01*
X9680465D01*
X9683471D01*
X9686476D01*
X9689481D01*
X9692487D01*
Y3174014D01*
X9695492D01*
X9698497D01*
X9701503D01*
X9704508D01*
X9707513D01*
X9710519D01*
X9713524D01*
X9716529D01*
X9719534D01*
X9722540D01*
Y3171009D01*
X9725545D01*
X9728550D01*
X9731556D01*
X9734561D01*
X9737566D01*
X9740571D01*
X9743577D01*
X9746582D01*
X9749587D01*
X9752593D01*
X9755598D01*
X9758603D01*
X9761609D01*
X9764614D01*
X9767619D01*
X9770624D01*
X9773630D01*
Y3168004D01*
X9776635D01*
X9779640D01*
X9782646D01*
X9785651D01*
X9788656D01*
X9791662D01*
X9794667D01*
X9797672D01*
X9800678D01*
X9803683D01*
X9806688D01*
X9809693D01*
X9812699D01*
X9815704D01*
X9818709D01*
X9821715D01*
X9824720D01*
X9827725D01*
X9830730D01*
X9833736D01*
X9836741D01*
X9839746D01*
X9842752D01*
X9845757D01*
X9848762D01*
X9851768D01*
X9854773D01*
X9857778D01*
X9860784D01*
X9863789D01*
X9866794D01*
X9869799D01*
X9872805D01*
X9875810D01*
X9878815D01*
X9881821D01*
X9884826D01*
X9887831D01*
X9890836D01*
X9893842D01*
X9896847D01*
X9899852D01*
X9902858D01*
X9905863D01*
X9908868D01*
X9911874D01*
X9914879D01*
X9917884D01*
X9920890D01*
X9923895D01*
X9926900D01*
X9929905D01*
X9932911D01*
X9935916D01*
X9938921D01*
X9941927D01*
X9944932D01*
X9947937D01*
X9950943D01*
X9953948D01*
X9956953D01*
X9959958D01*
X9962964D01*
X9965969D01*
X9968974D01*
X9971980D01*
X9974985D01*
X9977990D01*
X9980996D01*
X9984001D01*
X9987006D01*
Y3164998D01*
X9990012D01*
X9993017D01*
X9996022D01*
X9999027D01*
X10002033D01*
X10005038D01*
X10008043D01*
X10011049D01*
X10014054D01*
X10017059D01*
X10020065D01*
X10023070D01*
X10026075D01*
X10029081D01*
X10032086D01*
X10035091D01*
X10038097D01*
X10041102D01*
X10044107D01*
X10047112D01*
X10050118D01*
X10053123D01*
X10056128D01*
X10059134D01*
X10062139D01*
X10065144D01*
X10068149D01*
X10071155D01*
X10074160D01*
X10077165D01*
X10080171D01*
X10083176D01*
X10086181D01*
X10089187D01*
X10092192D01*
X10095197D01*
X10098203D01*
X10101208D01*
X10104213D01*
X10107218D01*
X10110224D01*
X10113229D01*
X10116234D01*
X10119240D01*
X10122245D01*
X10125250D01*
X10128255D01*
X10131261D01*
X10134266D01*
X10137271D01*
X10140277D01*
X10143282D01*
X10146287D01*
Y3161993D01*
X10149293D01*
X10152298D01*
X10155303D01*
X10158309D01*
X10161314D01*
X10164319D01*
X10167325D01*
X10170330D01*
X10173335D01*
X10176340D01*
X10179346D01*
X10182351D01*
X10185356D01*
X10188361D01*
X10191367D01*
X10194372D01*
X10197377D01*
X10200383D01*
X10203388D01*
X10206393D01*
X10209399D01*
X10212404D01*
X10215409D01*
X10218415D01*
X10221420D01*
X10224425D01*
X10227430D01*
X10230436D01*
X10233441D01*
X10236446D01*
X10239452D01*
X10242457D01*
X10245462D01*
X10248467D01*
X10251473D01*
X10254478D01*
X10257483D01*
X10260489D01*
X10263494D01*
X10266499D01*
X10269505D01*
Y3164998D01*
X10272510D01*
X10275515D01*
X10278520D01*
X10281526D01*
X10284531D01*
X10287536D01*
X10290542D01*
X10293547D01*
X10296552D01*
X10299558D01*
X10302563D01*
X10305568D01*
X10308574D01*
X10311579D01*
X10314584D01*
X10317589D01*
X10320595D01*
X10323600D01*
X10326605D01*
X10329611D01*
X10332616D01*
X10335621D01*
X10338627D01*
X10341632D01*
X10344637D01*
Y3168004D01*
X10341632D01*
Y3174014D01*
X10338627D01*
Y3177020D01*
X10335621D01*
Y3180025D01*
X10332616D01*
Y3183030D01*
X10329611D01*
Y3186036D01*
X10326605D01*
Y3189041D01*
X10323600D01*
Y3192046D01*
X10320595D01*
Y3195052D01*
X10317589D01*
Y3198057D01*
X10314584D01*
Y3201062D01*
X10311579D01*
Y3207073D01*
X10308574D01*
Y3210078D01*
X10305568D01*
Y3213083D01*
X10302563D01*
Y3216089D01*
X10299558D01*
Y3219094D01*
X10296552D01*
Y3222099D01*
X10293547D01*
Y3225105D01*
X10290542D01*
Y3228110D01*
X10287536D01*
Y3231115D01*
X10284531D01*
Y3234121D01*
X10281526D01*
Y3237126D01*
X10278520D01*
Y3240131D01*
X10275515D01*
Y3243137D01*
X10272510D01*
Y3246142D01*
X10269505D01*
Y3249147D01*
X10266499D01*
Y3252152D01*
X10263494D01*
Y3255158D01*
X10260489D01*
Y3258163D01*
X10257483D01*
Y3261168D01*
X10254478D01*
Y3264174D01*
X10251473D01*
Y3267179D01*
X10248467D01*
Y3270184D01*
X10245462D01*
Y3273189D01*
X10242457D01*
Y3276195D01*
X10239452D01*
Y3279200D01*
X10236446D01*
Y3285211D01*
X10233441D01*
Y3288216D01*
X10230436D01*
Y3291221D01*
X10227430D01*
Y3294227D01*
X10224425D01*
Y3297232D01*
X10221420D01*
X10218415D01*
Y3300237D01*
X10215409D01*
Y3303243D01*
X10212404D01*
Y3309253D01*
X10209399D01*
Y3312258D01*
X10206393D01*
Y3315264D01*
X10203388D01*
Y3318269D01*
X10200383D01*
Y3321274D01*
X10197377D01*
Y3324280D01*
X10194372D01*
Y3327285D01*
X10191367D01*
Y3330290D01*
X10188361D01*
Y3333295D01*
X10185356D01*
Y3336301D01*
X10182351D01*
Y3339306D01*
X10179346D01*
Y3342311D01*
X10176340D01*
Y3345317D01*
X10173335D01*
Y3348322D01*
X10170330D01*
Y3351327D01*
X10167325D01*
Y3354333D01*
X10164319D01*
Y3357338D01*
X10161314D01*
Y3360343D01*
X10158309D01*
Y3363349D01*
X10155303D01*
Y3366354D01*
X10152298D01*
Y3369359D01*
X10149293D01*
Y3372364D01*
X10146287D01*
Y3375370D01*
X10143282D01*
Y3378375D01*
X10140277D01*
Y3381380D01*
X10137271D01*
Y3384386D01*
X10134266D01*
Y3387391D01*
X10131261D01*
Y3390396D01*
X10128255D01*
Y3393401D01*
X10125250D01*
Y3396407D01*
X10122245D01*
Y3399412D01*
X10119240D01*
Y3402417D01*
X10116234D01*
Y3405423D01*
X10113229D01*
Y3408428D01*
X10110224D01*
Y3411433D01*
X10107218D01*
Y3414439D01*
X10104213D01*
Y3417444D01*
X10101208D01*
Y3420449D01*
X10098203D01*
Y3423455D01*
X10095197D01*
Y3426460D01*
X10092192D01*
Y3429465D01*
X10089187D01*
Y3432470D01*
X10086181D01*
Y3435476D01*
X10083176D01*
Y3438481D01*
X10080171D01*
Y3441486D01*
X10077165D01*
Y3444492D01*
X10074160D01*
Y3447497D01*
X10071155D01*
Y3450502D01*
X10068149D01*
Y3453507D01*
X10065144D01*
Y3456513D01*
X10062139D01*
Y3459518D01*
X10059134D01*
Y3462523D01*
X10056128D01*
Y3465529D01*
X10053123D01*
Y3468534D01*
X10050118D01*
Y3471539D01*
X10047112D01*
Y3474545D01*
X10044107D01*
Y3477550D01*
X10041102D01*
Y3480555D01*
X10038097D01*
Y3483560D01*
X10035091D01*
Y3486566D01*
X10032086D01*
Y3489571D01*
X10029081D01*
Y3492576D01*
X10026075D01*
Y3495582D01*
X10023070D01*
Y3498587D01*
X10020065D01*
Y3501592D01*
X10017059D01*
Y3504598D01*
X10014054D01*
Y3507603D01*
X10011049D01*
Y3510608D01*
X10008043D01*
Y3513614D01*
X10005038D01*
Y3516619D01*
X10002033D01*
Y3519624D01*
X9999027D01*
Y3522629D01*
X9996022D01*
Y3525635D01*
X9993017D01*
Y3528640D01*
X9990012D01*
Y3531645D01*
X9987006D01*
Y3534651D01*
X9984001D01*
Y3537656D01*
X9980996D01*
Y3540661D01*
X9977990D01*
Y3543667D01*
X9974985D01*
Y3546672D01*
X9971980D01*
Y3549677D01*
X9968974D01*
Y3552683D01*
X9965969D01*
Y3555688D01*
X9962964D01*
Y3558693D01*
X9959958D01*
Y3561698D01*
X9956953D01*
Y3564704D01*
X9953948D01*
Y3567709D01*
X9950943D01*
Y3570714D01*
X9947937D01*
Y3573720D01*
X9944932D01*
Y3576725D01*
X9941927D01*
Y3579730D01*
X9938921D01*
Y3582736D01*
X9935916D01*
Y3585741D01*
X9932911D01*
Y3588746D01*
X9929905D01*
Y3591752D01*
X9926900D01*
Y3594757D01*
X9923895D01*
Y3597762D01*
X9920890D01*
Y3600767D01*
X9917884D01*
Y3603773D01*
X9914879D01*
Y3606778D01*
X9911874D01*
Y3609783D01*
X9908868D01*
Y3612789D01*
X9905863D01*
Y3615794D01*
X9902858D01*
Y3621805D01*
X9899852D01*
Y3624810D01*
X9896847D01*
Y3627815D01*
X9893842D01*
Y3633826D01*
X9890836D01*
X9887831D01*
Y3639836D01*
X9884826D01*
Y3645847D01*
X9881821D01*
Y3648852D01*
X9878815D01*
Y3651858D01*
X9875810D01*
Y3654863D01*
X9872805D01*
Y3657868D01*
X9869799D01*
Y3663879D01*
X9866794D01*
Y3666884D01*
X9863789D01*
Y3672895D01*
X9860784D01*
Y3675900D01*
X9857778D01*
Y3678905D01*
X9854773D01*
Y3693932D01*
X9857778D01*
Y3705953D01*
X9860784D01*
Y3720980D01*
X9863789D01*
Y3733001D01*
X9866794D01*
Y3745022D01*
X9869799D01*
Y3760048D01*
X9872805D01*
Y3775075D01*
X9875810D01*
Y3793107D01*
X9872805D01*
Y3802123D01*
X9869799D01*
Y3808133D01*
X9866794D01*
Y3811139D01*
X9863789D01*
Y3814144D01*
X9860784D01*
X9857778D01*
Y3817149D01*
X9854773D01*
Y3820154D01*
X9851768D01*
X9848762D01*
Y3823160D01*
X9845757D01*
X9842752D01*
X9839746D01*
Y3826165D01*
X9836741D01*
X9833736D01*
X9830730D01*
Y3829170D01*
X9827725D01*
X9824720D01*
X9821715D01*
Y3832176D01*
X9818709D01*
X9815704D01*
X9812699D01*
Y3835181D01*
X9809693D01*
X9806688D01*
X9803683D01*
Y3838186D01*
X9800678D01*
X9797672D01*
Y3841191D01*
X9794667D01*
X9791662D01*
X9788656D01*
Y3844197D01*
X9785651D01*
X9782646D01*
X9779640D01*
X9776635D01*
Y3847202D01*
X9773630D01*
X9770624D01*
Y3850207D01*
X9767619D01*
X9764614D01*
X9761609D01*
Y3853213D01*
X9758603D01*
X9755598D01*
X9752593D01*
Y3856218D01*
X9749587D01*
X9746582D01*
X9743577D01*
Y3859223D01*
X9740571D01*
X9737566D01*
X9734561D01*
Y3862229D01*
X9731556D01*
X9728550D01*
X9725545D01*
Y3865234D01*
X9722540D01*
X9719534D01*
X9716529D01*
Y3868239D01*
X9713524D01*
X9710519D01*
Y3871245D01*
X9707513D01*
X9704508D01*
X9701503D01*
X9698497D01*
Y3874250D01*
X9695492D01*
X9692487D01*
Y3877255D01*
X9689481D01*
X9686476D01*
X9683471D01*
X9680465D01*
Y3880261D01*
X9677460D01*
X9674455D01*
Y3883266D01*
X9671450D01*
X9668444D01*
X9665439D01*
X9662434D01*
X9659428D01*
X9656423D01*
Y3886271D01*
X9653418D01*
Y3883266D01*
X9650413D01*
X9647407D01*
X9644402D01*
Y3880261D01*
X9641397D01*
X9638391D01*
Y3877255D01*
X9635386D01*
Y3874250D01*
X9632381D01*
Y3868239D01*
X9629375D01*
Y3859223D01*
X9626370D01*
Y3850207D01*
X9629375D01*
Y3841191D01*
X9632381D01*
Y3835181D01*
X9635386D01*
Y3832176D01*
X9638391D01*
Y3829170D01*
X9641397D01*
X9644402D01*
Y3826165D01*
X9647407D01*
X9650413D01*
Y3823160D01*
X9653418D01*
X9656423D01*
X9659428D01*
Y3820154D01*
X9662434D01*
X9665439D01*
X9668444D01*
Y3817149D01*
X9671450D01*
X9674455D01*
X9677460D01*
Y3814144D01*
X9680465D01*
X9683471D01*
X9686476D01*
Y3811139D01*
X9689481D01*
X9692487D01*
X9695492D01*
Y3808133D01*
X9698497D01*
X9701503D01*
X9704508D01*
Y3805128D01*
X9707513D01*
X9710519D01*
Y3802123D01*
X9713524D01*
X9716529D01*
X9719534D01*
X9722540D01*
Y3799117D01*
X9725545D01*
X9728550D01*
X9731556D01*
Y3796112D01*
X9734561D01*
X9737566D01*
X9740571D01*
Y3793107D01*
X9743577D01*
X9746582D01*
X9749587D01*
Y3790101D01*
X9752593D01*
X9755598D01*
X9758603D01*
Y3787096D01*
X9761609D01*
X9764614D01*
X9767619D01*
Y3784091D01*
X9770624D01*
X9773630D01*
X9776635D01*
Y3781085D01*
X9779640D01*
X9782646D01*
Y3778080D01*
X9785651D01*
X9788656D01*
X9791662D01*
X9794667D01*
Y3775075D01*
X9797672D01*
X9800678D01*
Y3772070D01*
X9803683D01*
X9806688D01*
Y3757043D01*
X9803683D01*
Y3742017D01*
X9800678D01*
Y3726990D01*
X9797672D01*
Y3708958D01*
X9794667D01*
Y3693932D01*
X9791662D01*
Y3678905D01*
X9788656D01*
Y3669889D01*
X9785651D01*
Y3666884D01*
X9782646D01*
Y3663879D01*
X9779640D01*
Y3660874D01*
X9776635D01*
Y3657868D01*
X9773630D01*
X9770624D01*
Y3654863D01*
X9767619D01*
Y3651858D01*
X9764614D01*
Y3648852D01*
X9761609D01*
X9758603D01*
Y3645847D01*
X9755598D01*
Y3642842D01*
X9752593D01*
Y3639836D01*
X9749587D01*
X9746582D01*
Y3636831D01*
X9743577D01*
Y3633826D01*
X9740571D01*
Y3630820D01*
X9737566D01*
Y3627815D01*
X9734561D01*
X9731556D01*
Y3624810D01*
X9728550D01*
Y3621805D01*
X9725545D01*
Y3618799D01*
X9722540D01*
X9719534D01*
Y3615794D01*
X9716529D01*
X9713524D01*
X9710519D01*
X9707513D01*
X9704508D01*
Y3612789D01*
X9701503D01*
X9698497D01*
X9695492D01*
X9692487D01*
X9689481D01*
X9686476D01*
X9683471D01*
X9680465D01*
X9677460D01*
X9674455D01*
X9671450D01*
X9668444D01*
X9665439D01*
X9662434D01*
X9659428D01*
X9656423D01*
X9653418D01*
X9650413D01*
X9647407D01*
X9644402D01*
X9641397D01*
X9638391D01*
X9635386D01*
X9632381D01*
X9629375D01*
X9626370D01*
X9623365D01*
X9620359D01*
Y3621805D01*
X9617354D01*
Y3639836D01*
X9614349D01*
Y3657868D01*
X9611343D01*
Y3675900D01*
X9608338D01*
Y3696937D01*
X9605333D01*
Y3717974D01*
X9602328D01*
Y3733001D01*
X9599322D01*
Y3754038D01*
X9596317D01*
Y3769064D01*
X9593312D01*
Y3784091D01*
X9590306D01*
Y3793107D01*
X9587301D01*
Y3796112D01*
X9584296D01*
X9581290D01*
Y3802123D01*
X9578285D01*
X9575280D01*
Y3805128D01*
X9572274D01*
X9569269D01*
X9566264D01*
X9563259D01*
X9560253D01*
X9557248D01*
X9554243D01*
Y3802123D01*
X9551237D01*
X9548232D01*
Y3799117D01*
X9545227D01*
Y3796112D01*
X9542221D01*
X9539216D01*
Y3790101D01*
X9536211D01*
Y3784091D01*
X9539216D01*
Y3781085D01*
X9536211D01*
Y3784091D01*
X9533205D01*
Y3760048D01*
X9536211D01*
Y3742017D01*
X9539216D01*
Y3726990D01*
X9542221D01*
Y3711964D01*
X9545227D01*
Y3690926D01*
X9548232D01*
Y3669889D01*
X9551237D01*
Y3651858D01*
X9554243D01*
Y3633826D01*
X9557248D01*
Y3612789D01*
X9560253D01*
X9563259D01*
Y3609783D01*
X9560253D01*
Y3594757D01*
X9563259D01*
Y3576725D01*
X9566264D01*
Y3567709D01*
X9569269D01*
Y3561698D01*
X9572274D01*
Y3558693D01*
X9575280D01*
Y3555688D01*
X9578285D01*
X9581290D01*
Y3552683D01*
X9584296D01*
X9587301D01*
Y3549677D01*
X9590306D01*
X9593312D01*
X9596317D01*
X9599322D01*
X9602328D01*
X9605333D01*
X9608338D01*
X9611343D01*
X9614349D01*
X9617354D01*
X9620359D01*
X9623365D01*
X9626370D01*
X9629375D01*
X9632381D01*
X9635386D01*
X9638391D01*
X9641397D01*
X9644402D01*
X9647407D01*
X9650413D01*
X9653418D01*
X9656423D01*
X9659428D01*
X9662434D01*
X9665439D01*
X9668444D01*
X9671450D01*
X9674455D01*
X9677460D01*
Y3552683D01*
X9680465D01*
X9683471D01*
X9686476D01*
X9689481D01*
X9692487D01*
X9695492D01*
Y3549677D01*
X9698497D01*
Y3546672D01*
X9701503D01*
Y3543667D01*
X9704508D01*
X9707513D01*
Y3540661D01*
X9710519D01*
Y3537656D01*
X9713524D01*
Y3534651D01*
X9716529D01*
Y3531645D01*
X9719534D01*
Y3528640D01*
X9722540D01*
Y3525635D01*
X9725545D01*
X9728550D01*
Y3519624D01*
X9731556D01*
Y3516619D01*
X9734561D01*
Y3513614D01*
X9737566D01*
X9740571D01*
Y3507603D01*
X9743577D01*
Y3504598D01*
X9746582D01*
Y3501592D01*
X9749587D01*
Y3498587D01*
X9752593D01*
Y3495582D01*
X9755598D01*
Y3492576D01*
X9758603D01*
Y3489571D01*
X9761609D01*
Y3486566D01*
X9764614D01*
Y3483560D01*
X9767619D01*
Y3480555D01*
X9770624D01*
Y3477550D01*
X9773630D01*
Y3474545D01*
X9776635D01*
Y3471539D01*
X9779640D01*
Y3468534D01*
X9782646D01*
Y3465529D01*
X9785651D01*
Y3462523D01*
X9788656D01*
Y3459518D01*
X9791662D01*
Y3456513D01*
X9794667D01*
Y3453507D01*
X9797672D01*
Y3450502D01*
X9800678D01*
Y3447497D01*
X9803683D01*
Y3444492D01*
X9806688D01*
Y3441486D01*
X9809693D01*
Y3438481D01*
X9812699D01*
Y3435476D01*
X9815704D01*
Y3432470D01*
X9818709D01*
Y3429465D01*
X9821715D01*
Y3426460D01*
X9824720D01*
Y3423455D01*
X9827725D01*
Y3420449D01*
X9830730D01*
Y3417444D01*
X9833736D01*
Y3414439D01*
X9836741D01*
Y3411433D01*
X9839746D01*
Y3408428D01*
X9842752D01*
Y3405423D01*
X9845757D01*
Y3402417D01*
X9848762D01*
Y3399412D01*
X9851768D01*
Y3393401D01*
X9848762D01*
Y3390396D01*
X9845757D01*
X9842752D01*
X9839746D01*
Y3387391D01*
X9836741D01*
X9833736D01*
X9830730D01*
Y3384386D01*
X9827725D01*
X9824720D01*
X9821715D01*
X9818709D01*
X9815704D01*
X9812699D01*
X9809693D01*
X9806688D01*
Y3381380D01*
X9803683D01*
X9800678D01*
X9797672D01*
X9794667D01*
X9791662D01*
X9788656D01*
X9785651D01*
X9782646D01*
X9779640D01*
X9776635D01*
X9773630D01*
X9770624D01*
X9767619D01*
X9764614D01*
X9761609D01*
X9758603D01*
X9755598D01*
Y3384386D01*
X9752593D01*
X9749587D01*
X9746582D01*
X9743577D01*
X9740571D01*
X9737566D01*
X9734561D01*
X9731556D01*
X9728550D01*
Y3387391D01*
X9725545D01*
X9722540D01*
X9719534D01*
X9716529D01*
X9713524D01*
Y3390396D01*
X9710519D01*
X9707513D01*
X9704508D01*
X9701503D01*
Y3393401D01*
X9698497D01*
X9695492D01*
X9692487D01*
X9689481D01*
Y3396407D01*
X9686476D01*
X9683471D01*
X9680465D01*
X9677460D01*
Y3399412D01*
X9674455D01*
X9671450D01*
X9668444D01*
Y3402417D01*
X9665439D01*
X9662434D01*
X9659428D01*
Y3405423D01*
X9656423D01*
X9653418D01*
X9650413D01*
Y3408428D01*
X9647407D01*
X9644402D01*
Y3411433D01*
X9641397D01*
X9638391D01*
Y3414439D01*
X9635386D01*
X9632381D01*
X9629375D01*
Y3417444D01*
X9626370D01*
X9623365D01*
Y3420449D01*
X9620359D01*
X9617354D01*
Y3423455D01*
X9614349D01*
X9611343D01*
Y3426460D01*
X9608338D01*
X9605333D01*
Y3429465D01*
X9602328D01*
X9599322D01*
Y3432470D01*
X9596317D01*
Y3429465D01*
X9593312D01*
Y3435476D01*
X9590306D01*
X9587301D01*
Y3438481D01*
X9584296D01*
Y3441486D01*
X9581290D01*
Y3444492D01*
X9578285D01*
X9575280D01*
Y3447497D01*
X9572274D01*
Y3450502D01*
X9569269D01*
X9566264D01*
Y3453507D01*
X9563259D01*
Y3456513D01*
X9560253D01*
Y3459518D01*
X9557248D01*
Y3462523D01*
X9554243D01*
X9551237D01*
Y3465529D01*
X9548232D01*
Y3468534D01*
X9545227D01*
Y3471539D01*
X9542221D01*
X9539216D01*
Y3474545D01*
X9536211D01*
Y3477550D01*
X9533205D01*
Y3480555D01*
X9530200D01*
Y3483560D01*
X9527195D01*
Y3486566D01*
X9524190D01*
Y3489571D01*
X9521184D01*
Y3492576D01*
X9518179D01*
Y3495582D01*
X9515174D01*
Y3501592D01*
X9512168D01*
X9509163D01*
Y3507603D01*
X9506158D01*
Y3510608D01*
X9503153D01*
Y3513614D01*
X9500147D01*
Y3516619D01*
X9497142D01*
Y3522629D01*
X9494137D01*
Y3525635D01*
X9491131D01*
Y3528640D01*
X9488126D01*
Y3531645D01*
X9485121D01*
Y3537656D01*
X9482115D01*
Y3543667D01*
X9479110D01*
Y3549677D01*
X9476105D01*
Y3552683D01*
X9473099D01*
Y3555688D01*
X9470094D01*
Y3561698D01*
X9467089D01*
X9464084D01*
Y3564704D01*
X9461078D01*
Y3567709D01*
X9464084D01*
Y3564704D01*
X9467089D01*
Y3567709D01*
X9464084D01*
Y3573720D01*
X9461078D01*
Y3570714D01*
X9458073D01*
Y3564704D01*
X9461078D01*
Y3561698D01*
X9458073D01*
Y3564704D01*
X9455068D01*
Y3573720D01*
X9458073D01*
Y3576725D01*
X9461078D01*
Y3579730D01*
X9458073D01*
Y3585741D01*
X9455068D01*
Y3591752D01*
X9452062D01*
Y3597762D01*
X9449057D01*
Y3603773D01*
X9446052D01*
Y3612789D01*
X9443046D01*
Y3621805D01*
X9440041D01*
Y3633826D01*
X9437036D01*
Y3627815D01*
X9434031D01*
Y3636831D01*
X9431025D01*
Y3627815D01*
X9434031D01*
Y3615794D01*
X9437036D01*
Y3621805D01*
X9440041D01*
Y3612789D01*
X9437036D01*
X9434031D01*
Y3609783D01*
X9437036D01*
X9440041D01*
Y3603773D01*
X9437036D01*
X9434031D01*
Y3600767D01*
X9431025D01*
Y3606778D01*
X9428020D01*
Y3609783D01*
X9425015D01*
Y3624810D01*
X9428020D01*
Y3609783D01*
X9431025D01*
Y3624810D01*
X9428020D01*
Y3639836D01*
X9425015D01*
Y3645847D01*
X9428020D01*
Y3639836D01*
X9431025D01*
Y3645847D01*
X9434031D01*
Y3651858D01*
X9431025D01*
Y3666884D01*
X9428020D01*
Y3684916D01*
X9425015D01*
Y3711964D01*
X9422009D01*
Y3763054D01*
X9425015D01*
Y3790101D01*
X9422009D01*
Y3796112D01*
X9425015D01*
Y3790101D01*
X9428020D01*
Y3808133D01*
X9431025D01*
Y3820154D01*
X9434031D01*
Y3829170D01*
X9431025D01*
Y3832176D01*
X9434031D01*
X9437036D01*
Y3838186D01*
X9434031D01*
Y3847202D01*
X9437036D01*
Y3841191D01*
X9440041D01*
Y3850207D01*
X9443046D01*
Y3859223D01*
X9446052D01*
Y3865234D01*
X9449057D01*
Y3871245D01*
X9452062D01*
Y3880261D01*
X9455068D01*
Y3886271D01*
X9458073D01*
Y3889276D01*
X9461078D01*
Y3895287D01*
X9458073D01*
Y3898292D01*
X9455068D01*
Y3901298D01*
X9458073D01*
Y3898292D01*
X9461078D01*
X9464084D01*
Y3907308D01*
X9467089D01*
Y3910313D01*
X9470094D01*
Y3913319D01*
X9473099D01*
Y3919329D01*
X9470094D01*
Y3916324D01*
X9467089D01*
Y3922335D01*
X9470094D01*
X9473099D01*
Y3919329D01*
X9476105D01*
Y3922335D01*
X9479110D01*
Y3925340D01*
X9476105D01*
Y3928345D01*
X9479110D01*
Y3925340D01*
X9482115D01*
Y3931351D01*
X9485121D01*
Y3934356D01*
X9488126D01*
Y3937361D01*
X9491131D01*
Y3943372D01*
X9494137D01*
Y3946377D01*
X9497142D01*
Y3949383D01*
X9494137D01*
Y3952388D01*
X9497142D01*
Y3949383D01*
X9500147D01*
Y3952388D01*
X9503153D01*
Y3955393D01*
X9506158D01*
Y3961404D01*
X9509163D01*
Y3967414D01*
X9506158D01*
Y3970420D01*
X9509163D01*
Y3967414D01*
X9512168D01*
X9515174D01*
Y3970420D01*
X9518179D01*
Y3973425D01*
X9521184D01*
Y3976430D01*
X9524190D01*
Y3979436D01*
X9527195D01*
Y3982441D01*
X9530200D01*
Y3985446D01*
X9533205D01*
Y3988451D01*
X9536211D01*
X9539216D01*
Y3991457D01*
X9536211D01*
Y3994462D01*
X9539216D01*
X9542221D01*
X9545227D01*
Y3997467D01*
X9548232D01*
Y4000473D01*
X9551237D01*
Y4003478D01*
X9554243D01*
Y4006483D01*
X9557248D01*
Y4009489D01*
X9560253D01*
X9563259D01*
Y4012494D01*
X9566264D01*
Y4015499D01*
X9569269D01*
Y4018505D01*
X9572274D01*
X9575280D01*
Y4021510D01*
X9578285D01*
Y4024515D01*
X9575280D01*
Y4027520D01*
X9578285D01*
Y4024515D01*
X9581290D01*
X9584296D01*
Y4030526D01*
X9587301D01*
X9590306D01*
X9593312D01*
Y4033531D01*
X9596317D01*
X9599322D01*
Y4036536D01*
X9602328D01*
Y4039542D01*
X9605333D01*
X9608338D01*
Y4042547D01*
X9611343D01*
X9614349D01*
Y4045552D01*
X9617354D01*
Y4048558D01*
X9620359D01*
X9623365D01*
X9626370D01*
Y4051563D01*
X9629375D01*
X9632381D01*
Y4054568D01*
X9635386D01*
X9638391D01*
Y4057573D01*
X9641397D01*
X9644402D01*
Y4060579D01*
X9647407D01*
X9650413D01*
X9653418D01*
Y4063584D01*
X9656423D01*
X9659428D01*
X9662434D01*
Y4066589D01*
X9665439D01*
X9668444D01*
Y4069595D01*
X9671450D01*
X9674455D01*
X9677460D01*
X9680465D01*
Y4072600D01*
X9683471D01*
X9686476D01*
X9689481D01*
Y4075605D01*
X9692487D01*
X9695492D01*
X9698497D01*
X9701503D01*
Y4078611D01*
X9704508D01*
X9707513D01*
X9710519D01*
X9713524D01*
X9716529D01*
Y4081616D01*
X9719534D01*
X9722540D01*
X9725545D01*
X9728550D01*
X9731556D01*
X9734561D01*
Y4084621D01*
X9737566D01*
X9740571D01*
X9743577D01*
X9746582D01*
X9749587D01*
X9752593D01*
X9755598D01*
X9758603D01*
Y4087626D01*
X9761609D01*
X9764614D01*
X9767619D01*
X9770624D01*
X9773630D01*
X9776635D01*
X9779640D01*
X9782646D01*
X9785651D01*
X9788656D01*
X9791662D01*
X9794667D01*
X9797672D01*
X9800678D01*
X9803683D01*
X9806688D01*
Y4084621D01*
X9809693D01*
X9812699D01*
X9815704D01*
X9818709D01*
X9821715D01*
X9824720D01*
X9827725D01*
X9830730D01*
X9833736D01*
X9836741D01*
Y4081616D01*
X9839746D01*
X9842752D01*
X9845757D01*
X9848762D01*
X9851768D01*
Y4078611D01*
X9854773D01*
X9857778D01*
X9860784D01*
X9863789D01*
X9866794D01*
Y4075605D01*
X9869799D01*
X9872805D01*
X9875810D01*
X9878815D01*
Y4072600D01*
X9881821D01*
X9884826D01*
X9887831D01*
X9890836D01*
Y4069595D01*
X9893842D01*
X9896847D01*
X9899852D01*
Y4066589D01*
X9902858D01*
X9905863D01*
Y4063584D01*
X9908868D01*
X9911874D01*
X9914879D01*
Y4060579D01*
X9917884D01*
X9920890D01*
Y4057573D01*
X9923895D01*
X9926900D01*
X9929905D01*
Y4054568D01*
X9932911D01*
X9935916D01*
Y4051563D01*
X9938921D01*
X9941927D01*
Y4048558D01*
X9944932D01*
X9947937D01*
Y4045552D01*
X9950943D01*
Y4042547D01*
X9953948D01*
X9956953D01*
X9959958D01*
Y4039542D01*
X9962964D01*
Y4036536D01*
X9965969D01*
X9968974D01*
Y4033531D01*
X9971980D01*
X9974985D01*
Y4030526D01*
X9977990D01*
X9980996D01*
Y4027520D01*
X9984001D01*
Y4024515D01*
X9987006D01*
Y4021510D01*
X9990012D01*
X9993017D01*
Y4018505D01*
X9996022D01*
Y4015499D01*
X9999027D01*
Y4012494D01*
X10002033D01*
Y4009489D01*
X10005038D01*
Y4006483D01*
X10008043D01*
X10011049D01*
Y4003478D01*
X10014054D01*
Y4000473D01*
X10017059D01*
Y3997467D01*
X10020065D01*
Y3994462D01*
X10023070D01*
Y3991457D01*
X10026075D01*
Y3988451D01*
X10029081D01*
Y3985446D01*
X10032086D01*
Y3982441D01*
X10035091D01*
Y3979436D01*
X10038097D01*
Y3976430D01*
X10041102D01*
Y3973425D01*
X10044107D01*
Y3970420D01*
X10047112D01*
Y3967414D01*
X10050118D01*
Y3964409D01*
X10053123D01*
Y3958398D01*
X10056128D01*
Y3955393D01*
X10059134D01*
Y3952388D01*
X10062139D01*
Y3946377D01*
X10065144D01*
Y3943372D01*
X10068149D01*
Y3940367D01*
X10071155D01*
Y3934356D01*
X10074160D01*
Y3928345D01*
X10077165D01*
Y3925340D01*
X10080171D01*
Y3919329D01*
X10083176D01*
Y3916324D01*
X10086181D01*
Y3910313D01*
X10089187D01*
Y3904303D01*
X10092192D01*
Y3898292D01*
X10095197D01*
Y3892282D01*
X10098203D01*
Y3883266D01*
X10101208D01*
Y3877255D01*
X10104213D01*
Y3871245D01*
X10107218D01*
Y3862229D01*
X10110224D01*
Y3853213D01*
X10113229D01*
Y3844197D01*
X10116234D01*
Y3832176D01*
X10119240D01*
Y3820154D01*
X10122245D01*
Y3808133D01*
X10125250D01*
Y3787096D01*
X10128255D01*
Y3754038D01*
X10131261D01*
Y3729995D01*
X10128255D01*
Y3699942D01*
X10125250D01*
Y3681911D01*
X10122245D01*
Y3663879D01*
X10119240D01*
Y3639836D01*
X10116234D01*
Y3627815D01*
X10119240D01*
Y3624810D01*
X10122245D01*
X10125250D01*
Y3621805D01*
X10128255D01*
Y3618799D01*
X10131261D01*
Y3615794D01*
X10134266D01*
X10137271D01*
Y3612789D01*
X10140277D01*
Y3609783D01*
X10143282D01*
Y3606778D01*
X10146287D01*
Y3603773D01*
X10149293D01*
X10152298D01*
Y3600767D01*
X10155303D01*
Y3597762D01*
X10158309D01*
Y3594757D01*
X10161314D01*
Y3591752D01*
X10164319D01*
Y3588746D01*
X10167325D01*
Y3585741D01*
X10170330D01*
X10173335D01*
Y3582736D01*
X10176340D01*
Y3579730D01*
X10179346D01*
Y3576725D01*
X10182351D01*
Y3573720D01*
X10185356D01*
Y3570714D01*
X10188361D01*
X10191367D01*
Y3567709D01*
X10194372D01*
Y3564704D01*
X10197377D01*
Y3561698D01*
X10200383D01*
Y3558693D01*
X10203388D01*
Y3555688D01*
X10206393D01*
Y3552683D01*
X10209399D01*
X10212404D01*
Y3549677D01*
X10215409D01*
Y3546672D01*
X10218415D01*
Y3543667D01*
X10221420D01*
Y3540661D01*
X10224425D01*
Y3537656D01*
X10227430D01*
Y3534651D01*
X10230436D01*
X10233441D01*
Y3531645D01*
X10236446D01*
Y3528640D01*
X10239452D01*
Y3525635D01*
X10242457D01*
Y3522629D01*
X10245462D01*
Y3519624D01*
X10248467D01*
Y3516619D01*
X10251473D01*
X10254478D01*
Y3513614D01*
X10257483D01*
Y3510608D01*
X10260489D01*
Y3507603D01*
X10263494D01*
Y3504598D01*
X10266499D01*
Y3501592D01*
X10269505D01*
Y3498587D01*
X10272510D01*
Y3495582D01*
X10275515D01*
X10278520D01*
Y3492576D01*
X10281526D01*
Y3489571D01*
X10284531D01*
Y3486566D01*
X10287536D01*
Y3483560D01*
X10290542D01*
Y3480555D01*
X10293547D01*
Y3477550D01*
X10296552D01*
X10299558D01*
Y3474545D01*
X10302563D01*
Y3471539D01*
X10305568D01*
Y3468534D01*
X10308574D01*
Y3465529D01*
X10311579D01*
Y3462523D01*
X10314584D01*
Y3459518D01*
X10317589D01*
X10320595D01*
Y3456513D01*
X10323600D01*
Y3453507D01*
X10326605D01*
Y3450502D01*
X10329611D01*
X10332616D01*
Y3447497D01*
X10335621D01*
Y3444492D01*
X10338627D01*
Y3441486D01*
X10341632D01*
X10344637D01*
Y3438481D01*
X10347643D01*
Y3435476D01*
X10350648D01*
Y3432470D01*
X10353653D01*
Y3429465D01*
X10356658D01*
X10359664D01*
Y3426460D01*
X10362669D01*
Y3423455D01*
X10365674D01*
X10368680D01*
Y3420449D01*
X10371685D01*
Y3417444D01*
X10374690D01*
X10377696D01*
X10380701D01*
Y3414439D01*
X10383706D01*
Y3420449D01*
X10380701D01*
D02*
G37*
%LPC*%
G36*
X10125250Y3375370D02*
Y3372364D01*
X10122245D01*
Y3375370D01*
X10125250D01*
D02*
G37*
G36*
X9698497Y3558693D02*
Y3555688D01*
X9695492D01*
Y3558693D01*
X9698497D01*
D02*
G37*
G36*
X9638391Y4063584D02*
Y4060579D01*
X9635386D01*
Y4063584D01*
X9638391D01*
D02*
G37*
G36*
Y3402417D02*
Y3399412D01*
X9635386D01*
Y3402417D01*
X9638391D01*
D02*
G37*
G36*
X9611343Y3423455D02*
Y3420449D01*
X9608338D01*
X9605333D01*
Y3423455D01*
X9608338D01*
X9611343D01*
D02*
G37*
G36*
X9590306Y3561698D02*
Y3558693D01*
X9587301D01*
Y3561698D01*
X9590306D01*
D02*
G37*
G36*
Y3222099D02*
Y3219094D01*
X9587301D01*
Y3222099D01*
X9590306D01*
D02*
G37*
G36*
X9575280Y4042547D02*
Y4039542D01*
X9572274D01*
Y4042547D01*
X9575280D01*
D02*
G37*
G36*
X9572274Y3796112D02*
Y3793107D01*
X9569269D01*
Y3796112D01*
X9572274D01*
D02*
G37*
G36*
X9569269Y4039542D02*
Y4036536D01*
X9566264D01*
Y4039542D01*
X9569269D01*
D02*
G37*
G36*
X9566264Y3793107D02*
Y3790101D01*
X9563259D01*
Y3793107D01*
X9566264D01*
D02*
G37*
G36*
X9557248Y3447497D02*
Y3444492D01*
X9554243D01*
Y3447497D01*
X9557248D01*
D02*
G37*
G36*
X9554243Y4015499D02*
Y4012494D01*
X9551237D01*
Y4015499D01*
X9554243D01*
D02*
G37*
G36*
Y3222099D02*
Y3219094D01*
X9551237D01*
Y3222099D01*
X9554243D01*
D02*
G37*
G36*
X9551237Y4012494D02*
Y4009489D01*
X9548232D01*
Y4012494D01*
X9551237D01*
D02*
G37*
G36*
Y3453507D02*
Y3450502D01*
X9548232D01*
Y3453507D01*
X9551237D01*
D02*
G37*
G36*
Y3462523D02*
Y3459518D01*
X9548232D01*
X9545227D01*
Y3462523D01*
X9548232D01*
X9551237D01*
D02*
G37*
G36*
X9545227Y4015499D02*
Y4012494D01*
X9542221D01*
Y4015499D01*
X9545227D01*
D02*
G37*
G36*
Y4006483D02*
Y4003478D01*
X9542221D01*
Y4006483D01*
X9545227D01*
D02*
G37*
G36*
Y3459518D02*
Y3456513D01*
X9542221D01*
Y3459518D01*
X9545227D01*
D02*
G37*
G36*
X9542221Y3246142D02*
Y3243137D01*
X9539216D01*
Y3246142D01*
X9542221D01*
D02*
G37*
G36*
Y3231115D02*
Y3228110D01*
X9539216D01*
Y3231115D01*
X9542221D01*
D02*
G37*
G36*
X9533205Y3240131D02*
Y3237126D01*
X9530200D01*
Y3240131D01*
X9533205D01*
D02*
G37*
G36*
X9521184Y3474545D02*
Y3468534D01*
X9518179D01*
Y3474545D01*
X9521184D01*
D02*
G37*
G36*
X9524190Y3237126D02*
Y3234121D01*
X9521184D01*
X9518179D01*
Y3237126D01*
X9521184D01*
X9524190D01*
D02*
G37*
G36*
X9518179Y3492576D02*
Y3489571D01*
X9515174D01*
Y3492576D01*
X9512168D01*
Y3495582D01*
X9515174D01*
Y3492576D01*
X9518179D01*
D02*
G37*
G36*
X9515174Y3243137D02*
Y3240131D01*
X9512168D01*
Y3243137D01*
X9515174D01*
D02*
G37*
G36*
X9512168Y3240131D02*
Y3237126D01*
X9509163D01*
Y3240131D01*
X9512168D01*
D02*
G37*
G36*
X9509163Y3501592D02*
Y3498587D01*
X9506158D01*
Y3501592D01*
X9509163D01*
D02*
G37*
G36*
X9506158Y3495582D02*
Y3492576D01*
X9503153D01*
Y3495582D01*
X9506158D01*
D02*
G37*
G36*
X9503153Y3510608D02*
Y3507603D01*
X9500147D01*
Y3510608D01*
X9503153D01*
D02*
G37*
G36*
Y3492576D02*
Y3489571D01*
X9500147D01*
Y3492576D01*
X9503153D01*
D02*
G37*
G36*
X9500147Y3970420D02*
Y3967414D01*
X9497142D01*
Y3970420D01*
X9500147D01*
D02*
G37*
G36*
Y3961404D02*
Y3958398D01*
X9497142D01*
Y3961404D01*
X9500147D01*
D02*
G37*
G36*
X9497142Y3516619D02*
Y3513614D01*
X9494137D01*
Y3516619D01*
X9497142D01*
D02*
G37*
G36*
X9494137Y4216854D02*
Y4213849D01*
X9491131D01*
Y4216854D01*
X9494137D01*
D02*
G37*
G36*
X9491131Y3273189D02*
Y3270184D01*
X9488126D01*
X9485121D01*
Y3273189D01*
X9488126D01*
X9491131D01*
D02*
G37*
G36*
X9488126Y3264174D02*
Y3261168D01*
X9485121D01*
Y3264174D01*
X9488126D01*
D02*
G37*
G36*
X9485121Y3943372D02*
Y3940367D01*
X9482115D01*
Y3943372D01*
X9485121D01*
D02*
G37*
G36*
X9479110Y3273189D02*
Y3270184D01*
X9476105D01*
Y3273189D01*
X9479110D01*
D02*
G37*
G36*
X9482115Y3940367D02*
Y3937361D01*
X9479110D01*
Y3940367D01*
X9476105D01*
Y3943372D01*
X9473099D01*
Y3946377D01*
X9476105D01*
Y3943372D01*
X9479110D01*
Y3940367D01*
X9482115D01*
D02*
G37*
G36*
X9476105Y3937361D02*
Y3934356D01*
X9473099D01*
Y3937361D01*
X9476105D01*
D02*
G37*
G36*
X9479110Y3537656D02*
Y3534651D01*
X9476105D01*
Y3537656D01*
X9473099D01*
Y3540661D01*
X9476105D01*
Y3537656D01*
X9479110D01*
D02*
G37*
G36*
X9473099Y3943372D02*
Y3940367D01*
X9470094D01*
Y3943372D01*
X9473099D01*
D02*
G37*
G36*
Y3534651D02*
Y3531645D01*
X9470094D01*
Y3534651D01*
X9473099D01*
D02*
G37*
G36*
X9470094Y4201828D02*
Y4198822D01*
X9467089D01*
Y4201828D01*
X9470094D01*
D02*
G37*
G36*
Y3270184D02*
Y3267179D01*
X9467089D01*
X9464084D01*
Y3270184D01*
X9467089D01*
X9470094D01*
D02*
G37*
G36*
Y4192812D02*
Y4189807D01*
X9467089D01*
Y4192812D01*
X9464084D01*
X9461078D01*
Y4195817D01*
X9464084D01*
X9467089D01*
Y4192812D01*
X9470094D01*
D02*
G37*
G36*
X9461078Y4201828D02*
Y4198822D01*
X9458073D01*
Y4201828D01*
X9461078D01*
D02*
G37*
G36*
X9464084Y3913319D02*
Y3910313D01*
X9461078D01*
Y3907308D01*
X9458073D01*
Y3913319D01*
X9461078D01*
X9464084D01*
D02*
G37*
G36*
X9458073Y4192812D02*
Y4189807D01*
X9455068D01*
Y4192812D01*
X9458073D01*
D02*
G37*
G36*
Y3895287D02*
Y3892282D01*
X9455068D01*
Y3895287D01*
X9458073D01*
D02*
G37*
G36*
X9455068Y3564704D02*
Y3561698D01*
X9452062D01*
Y3564704D01*
X9455068D01*
D02*
G37*
G36*
X9452062Y3913319D02*
Y3907308D01*
X9449057D01*
Y3913319D01*
X9452062D01*
D02*
G37*
G36*
X9449057Y4192812D02*
Y4189807D01*
X9446052D01*
Y4192812D01*
X9449057D01*
D02*
G37*
G36*
Y3922335D02*
Y3919329D01*
X9446052D01*
Y3922335D01*
X9449057D01*
D02*
G37*
G36*
Y3877255D02*
Y3874250D01*
X9446052D01*
Y3877255D01*
X9449057D01*
D02*
G37*
G36*
Y3597762D02*
Y3594757D01*
X9446052D01*
Y3597762D01*
X9449057D01*
D02*
G37*
G36*
Y3570714D02*
Y3564704D01*
X9446052D01*
Y3570714D01*
X9449057D01*
D02*
G37*
G36*
X9446052Y3285211D02*
Y3282205D01*
X9443046D01*
Y3285211D01*
X9446052D01*
D02*
G37*
G36*
X9443046Y4189807D02*
Y4186801D01*
X9440041D01*
Y4189807D01*
X9443046D01*
D02*
G37*
G36*
X9452062Y3591752D02*
Y3585741D01*
X9449057D01*
Y3579730D01*
X9446052D01*
Y3585741D01*
X9443046D01*
X9440041D01*
Y3588746D01*
X9443046D01*
Y3594757D01*
X9440041D01*
Y3597762D01*
X9443046D01*
Y3594757D01*
X9446052D01*
Y3591752D01*
X9449057D01*
X9452062D01*
D02*
G37*
G36*
X9446052Y3291221D02*
Y3288216D01*
X9443046D01*
X9440041D01*
Y3291221D01*
X9443046D01*
X9446052D01*
D02*
G37*
G36*
X9443046Y3282205D02*
Y3279200D01*
X9440041D01*
Y3282205D01*
X9443046D01*
D02*
G37*
G36*
X9446052Y4183796D02*
Y4180791D01*
X9443046D01*
X9440041D01*
X9437036D01*
Y4183796D01*
X9440041D01*
X9443046D01*
X9446052D01*
D02*
G37*
G36*
X9443046Y4165764D02*
Y4162759D01*
X9440041D01*
X9437036D01*
Y4165764D01*
X9440041D01*
X9443046D01*
D02*
G37*
G36*
X9440041Y3288216D02*
Y3285211D01*
X9437036D01*
Y3288216D01*
X9440041D01*
D02*
G37*
G36*
X9437036Y4180791D02*
Y4177786D01*
X9434031D01*
Y4180791D01*
X9437036D01*
D02*
G37*
G36*
Y3853213D02*
Y3850207D01*
X9434031D01*
Y3853213D01*
X9437036D01*
D02*
G37*
G36*
Y3570714D02*
Y3561698D01*
X9434031D01*
Y3570714D01*
X9437036D01*
D02*
G37*
G36*
X9434031Y3868239D02*
Y3862229D01*
X9431025D01*
Y3868239D01*
X9434031D01*
D02*
G37*
G36*
Y4177786D02*
Y4174780D01*
X9431025D01*
X9428020D01*
Y4177786D01*
X9431025D01*
X9434031D01*
D02*
G37*
G36*
X9431025Y3862229D02*
Y3853213D01*
X9428020D01*
Y3862229D01*
X9431025D01*
D02*
G37*
G36*
Y3844197D02*
Y3835181D01*
X9428020D01*
Y3844197D01*
X9431025D01*
D02*
G37*
G36*
Y3651858D02*
Y3648852D01*
X9428020D01*
Y3651858D01*
X9431025D01*
D02*
G37*
G36*
Y3570714D02*
Y3561698D01*
X9428020D01*
Y3570714D01*
X9431025D01*
D02*
G37*
G36*
X9428020Y3874250D02*
Y3871245D01*
X9425015D01*
Y3874250D01*
X9428020D01*
D02*
G37*
G36*
Y3850207D02*
Y3847202D01*
X9425015D01*
Y3850207D01*
X9428020D01*
D02*
G37*
G36*
Y3829170D02*
Y3823160D01*
X9425015D01*
Y3829170D01*
X9428020D01*
D02*
G37*
G36*
Y3663879D02*
Y3654863D01*
X9425015D01*
Y3663879D01*
X9428020D01*
D02*
G37*
G36*
X9431025Y3294227D02*
Y3291221D01*
X9428020D01*
X9425015D01*
Y3294227D01*
X9428020D01*
X9431025D01*
D02*
G37*
G36*
X9425015Y3838186D02*
Y3835181D01*
X9422009D01*
Y3838186D01*
X9425015D01*
D02*
G37*
G36*
Y3675900D02*
Y3672895D01*
X9422009D01*
Y3675900D01*
X9425015D01*
D02*
G37*
G36*
X9428020Y3600767D02*
Y3585741D01*
X9425015D01*
X9422009D01*
Y3600767D01*
X9425015D01*
X9428020D01*
D02*
G37*
G36*
X9425015Y3654863D02*
Y3648852D01*
X9422009D01*
X9419004D01*
Y3657868D01*
X9422009D01*
Y3654863D01*
X9425015D01*
D02*
G37*
G36*
Y3636831D02*
Y3630820D01*
X9422009D01*
Y3633826D01*
X9419004D01*
Y3636831D01*
X9422009D01*
X9425015D01*
D02*
G37*
G36*
X9422009Y3300237D02*
Y3297232D01*
X9419004D01*
Y3300237D01*
X9422009D01*
D02*
G37*
G36*
X9419004Y4171775D02*
Y4168770D01*
X9415999D01*
Y4171775D01*
X9419004D01*
D02*
G37*
G36*
Y3306248D02*
Y3303243D01*
X9415999D01*
Y3306248D01*
X9419004D01*
D02*
G37*
G36*
X9422009Y3318269D02*
Y3315264D01*
X9419004D01*
Y3318269D01*
X9415999D01*
X9412994D01*
Y3321274D01*
X9415999D01*
X9419004D01*
Y3318269D01*
X9422009D01*
D02*
G37*
G36*
X9415999Y3303243D02*
Y3300237D01*
X9412994D01*
Y3303243D01*
X9415999D01*
D02*
G37*
G36*
X9422009Y3309253D02*
Y3306248D01*
X9419004D01*
Y3309253D01*
X9415999D01*
Y3312258D01*
X9412994D01*
Y3315264D01*
X9409988D01*
X9406983D01*
Y3318269D01*
X9409988D01*
X9412994D01*
Y3315264D01*
X9415999D01*
Y3312258D01*
X9419004D01*
Y3309253D01*
X9422009D01*
D02*
G37*
G36*
X9409988Y3312258D02*
Y3306248D01*
X9406983D01*
Y3312258D01*
X9403978D01*
Y3315264D01*
X9400972D01*
Y3318269D01*
X9403978D01*
Y3315264D01*
X9406983D01*
Y3312258D01*
X9409988D01*
D02*
G37*
G36*
X9397967Y3339306D02*
Y3333295D01*
X9394962D01*
Y3339306D01*
X9397967D01*
D02*
G37*
G36*
Y4144727D02*
Y4141722D01*
X9394962D01*
X9391956D01*
X9388951D01*
Y4144727D01*
X9391956D01*
X9394962D01*
X9397967D01*
D02*
G37*
G36*
Y4120685D02*
Y4114674D01*
X9394962D01*
X9391956D01*
X9388951D01*
Y4120685D01*
X9391956D01*
X9394962D01*
X9397967D01*
D02*
G37*
G36*
Y3348322D02*
Y3342311D01*
X9394962D01*
X9391956D01*
X9388951D01*
Y3345317D01*
X9391956D01*
X9394962D01*
Y3348322D01*
X9397967D01*
D02*
G37*
G36*
X9388951Y4141722D02*
Y4138716D01*
X9385946D01*
Y4141722D01*
X9388951D01*
D02*
G37*
G36*
X9382940Y4132706D02*
Y4129701D01*
X9379935D01*
Y4126695D01*
X9376930D01*
Y4135711D01*
X9379935D01*
Y4132706D01*
X9382940D01*
D02*
G37*
G36*
X9397967Y3327285D02*
Y3324280D01*
X9394962D01*
Y3321274D01*
X9391956D01*
Y3327285D01*
X9388951D01*
X9385946D01*
Y3330290D01*
X9382940D01*
Y3333295D01*
X9379935D01*
Y3336301D01*
X9382940D01*
Y3342311D01*
X9379935D01*
X9376930D01*
Y3345317D01*
X9379935D01*
X9382940D01*
Y3342311D01*
X9385946D01*
X9388951D01*
Y3339306D01*
X9385946D01*
Y3333295D01*
X9388951D01*
X9391956D01*
Y3327285D01*
X9394962D01*
X9397967D01*
D02*
G37*
G36*
X9376930Y3360343D02*
Y3354333D01*
X9373924D01*
Y3360343D01*
X9376930D01*
D02*
G37*
G36*
Y3342311D02*
Y3336301D01*
X9373924D01*
Y3342311D01*
X9376930D01*
D02*
G37*
G36*
X9373924Y4129701D02*
Y4126695D01*
X9370919D01*
Y4129701D01*
X9373924D01*
D02*
G37*
G36*
X9370919Y3378375D02*
Y3375370D01*
X9367914D01*
Y3372364D01*
X9370919D01*
Y3369359D01*
X9367914D01*
X9364909D01*
Y3366354D01*
X9367914D01*
Y3363349D01*
X9370919D01*
Y3357338D01*
X9367914D01*
Y3360343D01*
X9364909D01*
Y3366354D01*
X9361903D01*
X9358898D01*
Y3372364D01*
X9361903D01*
Y3378375D01*
X9364909D01*
Y3381380D01*
X9367914D01*
Y3378375D01*
X9370919D01*
D02*
G37*
G36*
X9373924Y3354333D02*
Y3348322D01*
X9370919D01*
Y3345317D01*
X9367914D01*
X9364909D01*
Y3348322D01*
X9367914D01*
Y3351327D01*
X9370919D01*
Y3354333D01*
X9373924D01*
D02*
G37*
G36*
X9361903Y4111669D02*
Y4108664D01*
X9358898D01*
Y4111669D01*
X9361903D01*
D02*
G37*
G36*
X9358898Y4108664D02*
Y4105658D01*
X9355893D01*
Y4108664D01*
X9358898D01*
D02*
G37*
G36*
X9355893Y4069595D02*
Y4066589D01*
X9352888D01*
Y4069595D01*
X9355893D01*
D02*
G37*
G36*
X9352888Y3396407D02*
Y3387391D01*
X9349882D01*
Y3396407D01*
X9352888D01*
D02*
G37*
G36*
X9349882Y4102653D02*
Y4093637D01*
X9346877D01*
Y4102653D01*
X9349882D01*
D02*
G37*
G36*
Y4090632D02*
Y4087626D01*
X9346877D01*
Y4078611D01*
X9349882D01*
Y4075605D01*
X9346877D01*
Y4078611D01*
X9343872D01*
Y4081616D01*
X9340866D01*
Y4084621D01*
X9337861D01*
Y4093637D01*
X9340866D01*
Y4087626D01*
X9343872D01*
Y4093637D01*
X9340866D01*
Y4096642D01*
X9343872D01*
Y4093637D01*
X9346877D01*
Y4090632D01*
X9349882D01*
D02*
G37*
%LPD*%
D66*
X461232Y4513680D02*
G03*
X461232Y4513680I-12500J0D01*
G01*
Y5783680D02*
G03*
X461232Y5783680I-12500J0D01*
G01*
D67*
X9934440Y7420759D02*
G03*
X9934440Y7420759I-10000J0D01*
G01*
X10248740Y7423530D02*
G03*
X10248740Y7423530I-10000J0D01*
G01*
X4429800Y3649980D02*
G03*
X4429800Y3649980I-315000J0D01*
G01*
X2941360D02*
G03*
X2941360Y3649980I-315000J0D01*
G01*
X5174020D02*
G03*
X5174020Y3649980I-315000J0D01*
G01*
X3685580D02*
G03*
X3685580Y3649980I-315000J0D01*
G01*
X2941360Y6466840D02*
G03*
X2941360Y6466840I-315000J0D01*
G01*
X3685580D02*
G03*
X3685580Y6466840I-315000J0D01*
G01*
X5174020D02*
G03*
X5174020Y6466840I-315000J0D01*
G01*
X4429800D02*
G03*
X4429800Y6466840I-315000J0D01*
G01*
X232832Y4523680D02*
X333632D01*
X232832Y4833680D02*
X333632D01*
Y4523680D02*
Y4833680D01*
X232832Y4523680D02*
Y4833680D01*
X1562528Y4318804D02*
X2107001Y3774332D01*
X1477676Y3918582D02*
X1720213Y4161119D01*
X1706778Y3689479D02*
X1949316Y3932017D01*
X1792338Y3297035D02*
X1918910Y3423607D01*
X1711021Y3378352D02*
X1792338Y3297035D01*
X1563094Y3653558D02*
X1706778Y3689479D01*
X1527173D02*
X1563094Y3653558D01*
X1532264Y3199596D02*
X1711021Y3378352D01*
X1441755Y3774898D02*
X1477676Y3918582D01*
X1441755Y3774898D02*
X1527173Y3689479D01*
X1085232Y4004142D02*
X1166549Y3922825D01*
X1085232Y4004142D02*
X1211804Y4130714D01*
X987792Y3744068D02*
X1166549Y3922825D01*
X1113516Y3869792D02*
X1657988Y3325319D01*
X987792Y3744068D02*
X1532264Y3199596D01*
X146240Y6964680D02*
X646240D01*
X146240Y6659880D02*
X646240D01*
X146240D02*
Y6964680D01*
X232832Y5793680D02*
X333632D01*
X232832Y6103680D02*
X333632D01*
Y5793680D02*
Y6103680D01*
X232832Y5793680D02*
Y6103680D01*
D68*
X630230Y8673046D02*
G03*
X198430Y8673046I-215900J0D01*
G01*
X663024Y7664341D02*
G03*
X1094824Y7664341I215900J0D01*
G01*
X663024D02*
Y7724541D01*
X1094824Y7664341D02*
Y7717226D01*
X1094930Y7717333D01*
X39942Y7724546D02*
X658226Y7724541D01*
X652716Y8630971D02*
X686803D01*
X630110D02*
Y8673135D01*
Y8630971D02*
X652716D01*
X198310Y8626653D02*
Y8673135D01*
X40068Y8626653D02*
X198310D01*
X1094930Y7717333D02*
X1139939D01*
X39942Y7724546D02*
Y8624545D01*
X1139939Y7717333D02*
Y7774534D01*
Y7866431D01*
Y8192643D02*
Y8476412D01*
X4299800Y3979980D02*
X4444800Y3834980D01*
X3784800Y3319980D02*
X4444800D01*
Y3834980D01*
X3939800Y3979980D02*
X4299800D01*
X3784800Y3824980D02*
X3939800Y3979980D01*
X3784800Y3319980D02*
Y3824980D01*
X2811360Y3979980D02*
X2956360Y3834980D01*
X2296360Y3319980D02*
X2956360D01*
Y3834980D01*
X2451360Y3979980D02*
X2811360D01*
X2296360Y3824980D02*
X2451360Y3979980D01*
X2296360Y3319980D02*
Y3824980D01*
X5044020Y3979980D02*
X5189020Y3834980D01*
X4529020Y3319980D02*
X5189020D01*
Y3834980D01*
X4684020Y3979980D02*
X5044020D01*
X4529020Y3824980D02*
X4684020Y3979980D01*
X4529020Y3319980D02*
Y3824980D01*
X3555580Y3979980D02*
X3700580Y3834980D01*
X3040580Y3319980D02*
X3700580D01*
Y3834980D01*
X3195580Y3979980D02*
X3555580D01*
X3040580Y3824980D02*
X3195580Y3979980D01*
X3040580Y3319980D02*
Y3824980D01*
X7287768Y7335520D02*
X7897368D01*
Y8707120D01*
X7287768D02*
X7897368D01*
X7287768Y7335520D02*
Y8707120D01*
X7363968Y7538720D02*
X7643368D01*
Y8503920D01*
X7363968D02*
X7643368D01*
X7363968Y7538720D02*
Y8503920D01*
X7795768Y7614920D02*
X7897368D01*
Y7792720D01*
X7795768D02*
X7897368D01*
X7795768Y7614920D02*
Y7792720D01*
Y8249920D02*
X7897368D01*
Y8427720D01*
X7795768D02*
X7897368D01*
X7795768Y8249920D02*
Y8427720D01*
X8576250Y7335520D02*
X9185850D01*
Y8707120D01*
X8576250D02*
X9185850D01*
X8576250Y7335520D02*
Y8707120D01*
X8652450Y7538720D02*
X8931850D01*
Y8503920D01*
X8652450D02*
X8931850D01*
X8652450Y7538720D02*
Y8503920D01*
X9084250Y7614920D02*
X9185850D01*
Y7792720D01*
X9084250D02*
X9185850D01*
X9084250Y7614920D02*
Y7792720D01*
Y8249920D02*
X9185850D01*
Y8427720D01*
X9084250D02*
X9185850D01*
X9084250Y8249920D02*
Y8427720D01*
X9782200Y7521321D02*
Y7694491D01*
Y7868140D02*
Y8174500D01*
Y8348149D02*
Y8521319D01*
X10182199Y7521321D02*
Y7694491D01*
Y7868140D02*
Y8174500D01*
Y8348149D02*
Y8521319D01*
X9782200Y7521321D02*
X10182199D01*
X9782200Y8521319D02*
X10182199D01*
X2296360Y6136840D02*
Y6641840D01*
X2451360Y6796840D01*
X2811360D01*
X2956360Y6136840D02*
Y6651840D01*
X2296360Y6136840D02*
X2956360D01*
X2811360Y6796840D02*
X2956360Y6651840D01*
X3040580Y6136840D02*
Y6641840D01*
X3195580Y6796840D01*
X3555580D01*
X3700580Y6136840D02*
Y6651840D01*
X3040580Y6136840D02*
X3700580D01*
X3555580Y6796840D02*
X3700580Y6651840D01*
X5044020Y6796840D02*
X5189020Y6651840D01*
X4529020Y6136840D02*
X5189020D01*
Y6651840D01*
X4684020Y6796840D02*
X5044020D01*
X4529020Y6641840D02*
X4684020Y6796840D01*
X4529020Y6136840D02*
Y6641840D01*
X4299800Y6796840D02*
X4444800Y6651840D01*
X3784800Y6136840D02*
X4444800D01*
Y6651840D01*
X3939800Y6796840D02*
X4299800D01*
X3784800Y6641840D02*
X3939800Y6796840D01*
X3784800Y6136840D02*
Y6641840D01*
X10017760Y7124700D02*
X10119327D01*
Y7099308D01*
X10093936Y7073916D01*
X10017760D01*
X10093936D01*
X10119327Y7048524D01*
X10093936Y7023133D01*
X10017760D01*
Y6972349D02*
Y6921566D01*
Y6946957D01*
X10119327D01*
Y6972349D01*
X10017760Y6845390D02*
Y6769215D01*
X10043152Y6743823D01*
X10068544Y6769215D01*
Y6819998D01*
X10093936Y6845390D01*
X10119327Y6819998D01*
Y6743823D01*
Y6667648D02*
Y6616864D01*
X10093936Y6591472D01*
X10017760D01*
Y6667648D01*
X10043152Y6693039D01*
X10068544Y6667648D01*
Y6591472D01*
X10017760Y6540689D02*
X10170111D01*
X10068544D02*
X10119327Y6464513D01*
X10068544Y6540689D02*
X10017760Y6464513D01*
X10119327Y6362946D02*
Y6312163D01*
X10093936Y6286771D01*
X10017760D01*
Y6362946D01*
X10043152Y6388338D01*
X10068544Y6362946D01*
Y6286771D01*
X10017760Y6235987D02*
Y6185204D01*
Y6210595D01*
X10170111D01*
X10144719Y6235987D01*
Y6109028D02*
X10170111Y6083637D01*
Y6032853D01*
X10144719Y6007461D01*
X10043152D01*
X10017760Y6032853D01*
Y6083637D01*
X10043152Y6109028D01*
X10144719D01*
Y5956678D02*
X10170111Y5931286D01*
Y5880502D01*
X10144719Y5855110D01*
X10043152D01*
X10017760Y5880502D01*
Y5931286D01*
X10043152Y5956678D01*
X10144719D01*
Y5804327D02*
X10170111Y5778935D01*
Y5728152D01*
X10144719Y5702760D01*
X10119327D01*
X10093936Y5728152D01*
Y5753543D01*
Y5728152D01*
X10068544Y5702760D01*
X10043152D01*
X10017760Y5728152D01*
Y5778935D01*
X10043152Y5804327D01*
Y5651976D02*
X10017760Y5626584D01*
Y5575801D01*
X10043152Y5550409D01*
X10144719D01*
X10170111Y5575801D01*
Y5626584D01*
X10144719Y5651976D01*
X10119327D01*
X10093936Y5626584D01*
Y5550409D01*
X10428691Y7138023D02*
X10301733D01*
X10276341Y7112631D01*
Y7061848D01*
X10301733Y7036456D01*
X10428691D01*
X10403299Y6884105D02*
X10428691Y6909497D01*
Y6960280D01*
X10403299Y6985672D01*
X10377908D01*
X10352516Y6960280D01*
Y6909497D01*
X10327124Y6884105D01*
X10301733D01*
X10276341Y6909497D01*
Y6960280D01*
X10301733Y6985672D01*
X10428691Y6833322D02*
X10276341D01*
Y6757146D01*
X10301733Y6731754D01*
X10327124D01*
X10352516Y6757146D01*
Y6833322D01*
Y6757146D01*
X10377908Y6731754D01*
X10403299D01*
X10428691Y6757146D01*
Y6833322D01*
X10403299Y6680971D02*
X10428691Y6655579D01*
Y6604796D01*
X10403299Y6579404D01*
X10377908D01*
X10352516Y6604796D01*
Y6630187D01*
Y6604796D01*
X10327124Y6579404D01*
X10301733D01*
X10276341Y6604796D01*
Y6655579D01*
X10301733Y6680971D01*
X10276341Y6528620D02*
X10301733D01*
Y6503228D01*
X10276341D01*
Y6528620D01*
Y6401661D02*
Y6350878D01*
Y6376269D01*
X10428691D01*
X10403299Y6401661D01*
Y6020785D02*
X10428691Y6046176D01*
Y6096960D01*
X10403299Y6122352D01*
X10301733D01*
X10276341Y6096960D01*
Y6046176D01*
X10301733Y6020785D01*
X10352516D01*
Y6071568D01*
X10276341Y5893826D02*
Y5944609D01*
X10301733Y5970001D01*
X10352516D01*
X10377908Y5944609D01*
Y5893826D01*
X10352516Y5868434D01*
X10327124D01*
Y5970001D01*
X10276341Y5817650D02*
X10377908D01*
Y5741475D01*
X10352516Y5716083D01*
X10276341D01*
Y5563732D02*
Y5665300D01*
X10377908Y5563732D01*
X10403299D01*
X10428691Y5589124D01*
Y5639908D01*
X10403299Y5665300D01*
X10276341Y5512949D02*
X10377908Y5411382D01*
X10276341Y5360598D02*
Y5309815D01*
Y5335206D01*
X10428691D01*
X10403299Y5360598D01*
Y5233639D02*
X10428691Y5208247D01*
Y5157464D01*
X10403299Y5132072D01*
X10301733D01*
X10276341Y5157464D01*
Y5208247D01*
X10301733Y5233639D01*
X10403299D01*
Y4979721D02*
X10428691Y5005113D01*
Y5055897D01*
X10403299Y5081289D01*
X10301733D01*
X10276341Y5055897D01*
Y5005113D01*
X10301733Y4979721D01*
X10352516D01*
Y5030505D01*
X10225557Y4928938D02*
X10377908D01*
Y4852762D01*
X10352516Y4827371D01*
X10301733D01*
X10276341Y4852762D01*
Y4928938D01*
X10428691Y4776587D02*
X10276341D01*
Y4700412D01*
X10301733Y4675020D01*
X10327124D01*
X10352516D01*
X10377908Y4700412D01*
Y4776587D01*
X10276341Y4624236D02*
Y4548061D01*
X10301733Y4522669D01*
X10327124Y4548061D01*
Y4598844D01*
X10352516Y4624236D01*
X10377908Y4598844D01*
Y4522669D01*
X9888171Y5359400D02*
X9786604D01*
X9735820Y5308616D01*
X9786604Y5257833D01*
X9888171D01*
X9735820Y5130874D02*
Y5181657D01*
X9761212Y5207049D01*
X9811996D01*
X9837387Y5181657D01*
Y5130874D01*
X9811996Y5105482D01*
X9786604D01*
Y5207049D01*
X9837387Y5054698D02*
X9735820D01*
X9786604D01*
X9811996Y5029306D01*
X9837387Y5003915D01*
Y4978523D01*
X9862779Y4902348D02*
X9888171Y4876956D01*
Y4826172D01*
X9862779Y4800780D01*
X9761212D01*
X9735820Y4826172D01*
Y4876956D01*
X9761212Y4902348D01*
X9862779D01*
X9735820Y4749997D02*
X9761212D01*
Y4724605D01*
X9735820D01*
Y4749997D01*
Y4623038D02*
Y4572255D01*
Y4597646D01*
X9888171D01*
X9862779Y4623038D01*
X9728200Y7025673D02*
Y7127240D01*
X9829767Y7025673D01*
X9855159D01*
X9880551Y7051064D01*
Y7101848D01*
X9855159Y7127240D01*
Y6974889D02*
X9880551Y6949497D01*
Y6898714D01*
X9855159Y6873322D01*
X9753592D01*
X9728200Y6898714D01*
Y6949497D01*
X9753592Y6974889D01*
X9855159D01*
X9728200Y6720971D02*
Y6822538D01*
X9829767Y6720971D01*
X9855159D01*
X9880551Y6746363D01*
Y6797146D01*
X9855159Y6822538D01*
X9880551Y6568620D02*
X9855159Y6619404D01*
X9804376Y6670188D01*
X9753592D01*
X9728200Y6644796D01*
Y6594012D01*
X9753592Y6568620D01*
X9778984D01*
X9804376Y6594012D01*
Y6670188D01*
X9728200Y6517837D02*
X9829767Y6416270D01*
X9728200Y6365486D02*
Y6314703D01*
Y6340094D01*
X9880551D01*
X9855159Y6365486D01*
X9728200Y6238527D02*
X9829767Y6136960D01*
X9728200Y6086177D02*
Y6035393D01*
Y6060785D01*
X9880551D01*
X9855159Y6086177D01*
Y5959218D02*
X9880551Y5933826D01*
Y5883042D01*
X9855159Y5857650D01*
X9753592D01*
X9728200Y5883042D01*
Y5933826D01*
X9753592Y5959218D01*
X9855159D01*
D69*
X716490Y7066280D02*
G03*
X716490Y7066280I-15450J0D01*
G01*
D70*
X646240Y6863080D02*
G03*
X595440Y6812280I0J-50800D01*
G01*
X595440D02*
G03*
X646240Y6761480I50800J0D01*
G01*
X84000Y4866648D02*
X215900D01*
X292100D02*
X424000D01*
X292100Y5049512D02*
X424000D01*
X84000D02*
X215900D01*
X84000Y4866632D02*
Y5049512D01*
X424000Y4866632D02*
Y5049512D01*
X1402096Y4732020D02*
Y4914900D01*
X1062096Y4732020D02*
Y4914900D01*
X1193996D01*
X1270196D02*
X1402096D01*
X1270196Y4732036D02*
X1402096D01*
X1062096D02*
X1193996D01*
X1402096Y4442460D02*
Y4625340D01*
X1062096Y4442460D02*
Y4625340D01*
X1193996D01*
X1270196D02*
X1402096D01*
X1270196Y4442476D02*
X1402096D01*
X1062096D02*
X1193996D01*
X1402096Y5712460D02*
Y5895340D01*
X1062096Y5712460D02*
Y5895340D01*
X1193996D01*
X1270196D02*
X1402096D01*
X1270196Y5712476D02*
X1402096D01*
X1062096D02*
X1193996D01*
X1062096Y6002036D02*
X1193996D01*
X1270196D02*
X1402096D01*
X1270196Y6184900D02*
X1402096D01*
X1062096D02*
X1193996D01*
X1062096Y6002020D02*
Y6184900D01*
X1402096Y6002020D02*
Y6184900D01*
X1614621Y6913796D02*
X1659522Y6868895D01*
X1614621Y6913796D02*
X1704424Y7003599D01*
X1749325Y6958698D01*
X1659522Y6868895D02*
X1749325Y6958698D01*
X1443996Y6725211D02*
X1524819Y6644389D01*
X1461957Y6581527D02*
X1524819Y6644389D01*
X1461957Y6581527D02*
X1498022Y6545462D01*
X1704568Y6752008D01*
X1704424Y6752151D02*
X1704568Y6752008D01*
X1866212Y6913652D02*
X1926811Y6974251D01*
X1866068Y6913796D02*
X1866212Y6913652D01*
X1411964Y7116453D02*
X1456866Y7071552D01*
X1546668Y7161354D01*
X1501767Y7206256D02*
X1546668Y7161354D01*
X1411964Y7116453D02*
X1501767Y7206256D01*
X1167306Y7001902D02*
X1248128Y6921080D01*
X1104444Y6939040D02*
X1167306Y7001902D01*
X1068379Y6975104D02*
X1104444Y6939040D01*
X1068379Y6975104D02*
X1274925Y7181650D01*
X1275069Y7181507D01*
X1436570Y7343295D02*
X1436713Y7343151D01*
X1497168Y7403894D02*
X1926811Y6974251D01*
X1436570Y7343295D02*
X1497168Y7403894D01*
X646240Y6863080D02*
Y6964680D01*
Y6659880D02*
Y6761480D01*
X84000Y6136648D02*
X215900D01*
X292100D02*
X424000D01*
X292100Y6319512D02*
X424000D01*
X84000D02*
X215900D01*
X84000Y6136632D02*
Y6319512D01*
X424000Y6136632D02*
Y6319512D01*
D71*
X271780Y5595158D02*
X363220D01*
X271780Y5770158D02*
X363220D01*
X271780Y5710600D02*
Y5770158D01*
X363220Y5595164D02*
Y5654720D01*
Y5710600D02*
Y5770156D01*
X271780Y5595164D02*
Y5654720D01*
X378460Y5769839D02*
X469900D01*
X378460Y5594839D02*
X469900D01*
Y5769839D01*
X378460Y5594839D02*
Y5769839D01*
X271780Y4325164D02*
Y4384720D01*
X363220Y4440600D02*
Y4500156D01*
Y4325164D02*
Y4384720D01*
X271780Y4440600D02*
Y4500158D01*
X363220D01*
X271780Y4325158D02*
X363220D01*
X930061Y6186312D02*
X1041443D01*
Y5711073D02*
Y6186312D01*
X930061Y5711073D02*
X1041443D01*
X596201Y6186312D02*
X707583D01*
X596201Y5711073D02*
Y6186312D01*
Y5711073D02*
X707583D01*
X464820Y4867322D02*
Y4926878D01*
X556260Y4982758D02*
Y5042315D01*
Y4867322D02*
Y4926878D01*
X464820Y4982758D02*
Y5042316D01*
X556260D01*
X464820Y4867316D02*
X556260D01*
X228600Y4958080D02*
X241300D01*
X266700D02*
X279400D01*
X266700Y4919980D02*
Y4996180D01*
X241300Y4919980D02*
Y4996180D01*
X378460Y4499839D02*
X469900D01*
X378460Y4324839D02*
X469900D01*
Y4499839D01*
X378460Y4324839D02*
Y4499839D01*
X576580Y4325158D02*
Y4500158D01*
X485140Y4325158D02*
Y4500158D01*
X576580D01*
X485140Y4325158D02*
X576580D01*
X196302Y4406900D02*
X255858D01*
X80865Y4498340D02*
X140422D01*
X196302D02*
X255858D01*
X80864Y4406900D02*
X140422D01*
X80864D02*
Y4498340D01*
X255864Y4406900D02*
Y4498340D01*
X930061Y4441073D02*
X1041443D01*
Y4916312D01*
X596201Y4441073D02*
X707583D01*
X596201D02*
Y4916312D01*
X930061D02*
X1041443D01*
X596201D02*
X707583D01*
X1219396Y4785368D02*
Y4861568D01*
X1244796Y4785368D02*
Y4861568D01*
Y4823468D02*
X1257496D01*
X1206696D02*
X1219396D01*
Y4495808D02*
Y4572008D01*
X1244796Y4495808D02*
Y4572008D01*
Y4533908D02*
X1257496D01*
X1206696D02*
X1219396D01*
X1234547Y4632960D02*
Y4724400D01*
X1059547Y4632960D02*
Y4724400D01*
Y4632960D02*
X1119105D01*
X1174985Y4724400D02*
X1234542D01*
X1059549D02*
X1119105D01*
X1174985Y4632960D02*
X1234542D01*
X1219396Y5765808D02*
Y5842008D01*
X1244796Y5765808D02*
Y5842008D01*
Y5803908D02*
X1257496D01*
X1206696D02*
X1219396D01*
X1206696Y6093468D02*
X1219396D01*
X1244796D02*
X1257496D01*
X1244796Y6055368D02*
Y6131568D01*
X1219396Y6055368D02*
Y6131568D01*
X3806900Y3962480D02*
X3867300D01*
X3837300Y3932880D02*
Y3992880D01*
X2318460Y3962480D02*
X2378860D01*
X2348860Y3932880D02*
Y3992880D01*
X4551120Y3962480D02*
X4611520D01*
X4581520Y3932880D02*
Y3992880D01*
X3062680Y3962480D02*
X3123080D01*
X3093080Y3932880D02*
Y3992880D01*
X933020Y6953701D02*
X1024460D01*
X933020Y7128701D02*
X1024460D01*
X933020Y6953701D02*
Y7128701D01*
X1024460Y6953701D02*
Y7128701D01*
X821260Y6953378D02*
X912700D01*
X821260Y7128378D02*
X912700D01*
X821260Y7068820D02*
Y7128378D01*
X912700Y6953384D02*
Y7012940D01*
Y7068820D02*
Y7128376D01*
X821260Y6953384D02*
Y7012940D01*
X2348860Y6749740D02*
Y6809740D01*
X2318460Y6779340D02*
X2378860D01*
X3093080Y6749740D02*
Y6809740D01*
X3062680Y6779340D02*
X3123080D01*
X1174985Y5902960D02*
X1234542D01*
X1059549Y5994400D02*
X1119105D01*
X1174985D02*
X1234542D01*
X1059547Y5902960D02*
X1119105D01*
X1059547D02*
Y5994400D01*
X1234547Y5902960D02*
Y5994400D01*
X464820Y6137322D02*
Y6196878D01*
X556260Y6252758D02*
Y6312315D01*
Y6137322D02*
Y6196878D01*
X464820Y6252758D02*
Y6312316D01*
X556260D01*
X464820Y6137316D02*
X556260D01*
X228600Y6228080D02*
X241300D01*
X266700D02*
X279400D01*
X266700Y6189980D02*
Y6266180D01*
X241300Y6189980D02*
Y6266180D01*
X196302Y5676900D02*
X255858D01*
X80865Y5768340D02*
X140422D01*
X196302D02*
X255858D01*
X80864Y5676900D02*
X140422D01*
X80864D02*
Y5768340D01*
X255864Y5676900D02*
Y5768340D01*
X576580Y5595158D02*
Y5770158D01*
X485140Y5595158D02*
Y5770158D01*
X576580D01*
X485140Y5595158D02*
X576580D01*
X4551120Y6779340D02*
X4611520D01*
X4581520Y6749740D02*
Y6809740D01*
X3806900Y6779340D02*
X3867300D01*
X3837300Y6749740D02*
Y6809740D01*
D72*
X9966440Y7245759D02*
Y7345759D01*
X9682440Y7245759D02*
Y7345759D01*
X9996740Y7248530D02*
Y7348530D01*
X10280740Y7248530D02*
Y7348530D01*
D73*
X9503738Y6935101D02*
X9546057Y6977421D01*
Y7062060D01*
X9503738Y7104380D01*
X9334459D01*
X9292139Y7062060D01*
Y6977421D01*
X9334459Y6935101D01*
X9546057Y6850462D02*
X9292139D01*
X9419098D01*
X9461418Y6808142D01*
Y6723503D01*
X9419098Y6681183D01*
X9292139D01*
X9461418Y6554224D02*
Y6469585D01*
X9419098Y6427266D01*
X9292139D01*
Y6554224D01*
X9334459Y6596544D01*
X9376779Y6554224D01*
Y6427266D01*
X9292139Y6342626D02*
X9461418D01*
Y6215667D01*
X9419098Y6173348D01*
X9292139D01*
X9207500Y6004069D02*
Y5961749D01*
X9249820Y5919430D01*
X9461418D01*
Y6046388D01*
X9419098Y6088708D01*
X9334459D01*
X9292139Y6046388D01*
Y5919430D01*
Y5707831D02*
Y5792471D01*
X9334459Y5834790D01*
X9419098D01*
X9461418Y5792471D01*
Y5707831D01*
X9419098Y5665512D01*
X9376779D01*
Y5834790D01*
X9292139Y5538553D02*
Y5453913D01*
X9334459Y5411594D01*
X9419098D01*
X9461418Y5453913D01*
Y5538553D01*
X9419098Y5580872D01*
X9334459D01*
X9292139Y5538553D01*
X9546057Y5073036D02*
Y4903758D01*
Y4988397D01*
X9292139D01*
Y4692160D02*
Y4776799D01*
X9334459Y4819118D01*
X9419098D01*
X9461418Y4776799D01*
Y4692160D01*
X9419098Y4649840D01*
X9376779D01*
Y4819118D01*
X9461418Y4395922D02*
Y4522881D01*
X9419098Y4565200D01*
X9334459D01*
X9292139Y4522881D01*
Y4395922D01*
%TF.MD5,4994c28444b0863531b205d1c31207a8*%
M02*
