%TF.GenerationSoftware,Altium Limited,Altium Designer,24.0.1 (36)*%
G04 Layer_Color=8388736*
%FSLAX45Y45*%
%MOMM*%
%TF.SameCoordinates,DB20E3DF-1D37-4F49-95B0-90F2ADAE02A5*%
%TF.FilePolarity,Negative*%
%TF.FileFunction,Soldermask,Top*%
%TF.Part,Single*%
G01*
G75*
%TA.AperFunction,SMDPad,CuDef*%
%ADD76R,0.70320X0.70320*%
%ADD77R,2.12321X1.92720*%
%ADD78R,1.09220X1.47320*%
%ADD79R,0.70320X0.70320*%
%ADD80R,1.20320X0.65320*%
%ADD81R,1.20320X0.50320*%
%ADD82C,2.27000*%
%TA.AperFunction,ConnectorPad*%
G04:AMPARAMS|DCode=83|XSize=2.2032mm|YSize=3.7032mm|CornerRadius=0mm|HoleSize=0mm|Usage=FLASHONLY|Rotation=315.000|XOffset=0mm|YOffset=0mm|HoleType=Round|Shape=Rectangle|*
%AMROTATEDRECTD83*
4,1,4,-2.08823,-0.53033,0.53033,2.08823,2.08823,0.53033,-0.53033,-2.08823,-2.08823,-0.53033,0.0*
%
%ADD83ROTATEDRECTD83*%

G04:AMPARAMS|DCode=84|XSize=1.4032mm|YSize=3.7032mm|CornerRadius=0mm|HoleSize=0mm|Usage=FLASHONLY|Rotation=135.000|XOffset=0mm|YOffset=0mm|HoleType=Round|Shape=Rectangle|*
%AMROTATEDRECTD84*
4,1,4,1.80539,0.81317,-0.81317,-1.80539,-1.80539,-0.81317,0.81317,1.80539,1.80539,0.81317,0.0*
%
%ADD84ROTATEDRECTD84*%

%ADD85R,3.80319X4.00319*%
%ADD86R,4.60319X3.00330*%
%ADD87R,7.20321X3.00330*%
%TA.AperFunction,SMDPad,CuDef*%
%ADD88R,1.20320X2.90320*%
%ADD89O,1.20320X2.90320*%
G04:AMPARAMS|DCode=90|XSize=1.0032mm|YSize=2.7032mm|CornerRadius=0mm|HoleSize=0mm|Usage=FLASHONLY|Rotation=315.000|XOffset=0mm|YOffset=0mm|HoleType=Round|Shape=Rectangle|*
%AMROTATEDRECTD90*
4,1,4,-1.31041,-0.60104,0.60104,1.31041,1.31041,0.60104,-0.60104,-1.31041,-1.31041,-0.60104,0.0*
%
%ADD90ROTATEDRECTD90*%

G04:AMPARAMS|DCode=91|XSize=2.1532mm|YSize=1.7032mm|CornerRadius=0mm|HoleSize=0mm|Usage=FLASHONLY|Rotation=45.000|XOffset=0mm|YOffset=0mm|HoleType=Round|Shape=Rectangle|*
%AMROTATEDRECTD91*
4,1,4,-0.15910,-1.36345,-1.36345,-0.15910,0.15910,1.36345,1.36345,0.15910,-0.15910,-1.36345,0.0*
%
%ADD91ROTATEDRECTD91*%

%ADD92R,0.70320X1.70320*%
%ADD93O,0.70320X1.70320*%
%TA.AperFunction,ComponentPad*%
%ADD94C,3.20294*%
%ADD95C,1.40208*%
%ADD96C,1.50320*%
%ADD97C,1.20320*%
G36*
X9941440Y7302259D02*
X9907440D01*
Y7372759D01*
X9941440D01*
Y7302259D01*
D02*
G37*
G36*
X9891440D02*
X9857440D01*
Y7372759D01*
X9891440D01*
Y7302259D01*
D02*
G37*
G36*
X9851440D02*
X9797440D01*
Y7372759D01*
X9851440D01*
Y7302259D01*
D02*
G37*
G36*
X9791440D02*
X9757440D01*
Y7372759D01*
X9791440D01*
Y7302259D01*
D02*
G37*
G36*
X9741440D02*
X9707440D01*
Y7372759D01*
X9741440D01*
Y7302259D01*
D02*
G37*
G36*
X9941440Y7218759D02*
X9907440D01*
Y7289259D01*
X9941440D01*
Y7218759D01*
D02*
G37*
G36*
X9891440D02*
X9857440D01*
Y7289259D01*
X9891440D01*
Y7218759D01*
D02*
G37*
G36*
X9851440D02*
X9797440D01*
Y7289259D01*
X9851440D01*
Y7218759D01*
D02*
G37*
G36*
X9791440D02*
X9757440D01*
Y7289259D01*
X9791440D01*
Y7218759D01*
D02*
G37*
G36*
X9741440D02*
X9707440D01*
Y7289259D01*
X9741440D01*
Y7218759D01*
D02*
G37*
G36*
X10255740Y7305030D02*
X10221740D01*
Y7375530D01*
X10255740D01*
Y7305030D01*
D02*
G37*
G36*
X10205740D02*
X10171740D01*
Y7375530D01*
X10205740D01*
Y7305030D01*
D02*
G37*
G36*
X10165740D02*
X10111740D01*
Y7375530D01*
X10165740D01*
Y7305030D01*
D02*
G37*
G36*
X10105740D02*
X10071740D01*
Y7375530D01*
X10105740D01*
Y7305030D01*
D02*
G37*
G36*
X10055740D02*
X10021740D01*
Y7375530D01*
X10055740D01*
Y7305030D01*
D02*
G37*
G36*
X10255740Y7221530D02*
X10221740D01*
Y7292030D01*
X10255740D01*
Y7221530D01*
D02*
G37*
G36*
X10205740D02*
X10171740D01*
Y7292030D01*
X10205740D01*
Y7221530D01*
D02*
G37*
G36*
X10165740D02*
X10111740D01*
Y7292030D01*
X10165740D01*
Y7221530D01*
D02*
G37*
G36*
X10105740D02*
X10071740D01*
Y7292030D01*
X10105740D01*
Y7221530D01*
D02*
G37*
G36*
X10055740D02*
X10021740D01*
Y7292030D01*
X10055740D01*
Y7221530D01*
D02*
G37*
D76*
X317500Y5727662D02*
D03*
Y5637662D02*
D03*
X424180Y5725160D02*
D03*
Y5640160D02*
D03*
X317500Y4367662D02*
D03*
Y4457662D02*
D03*
X510540Y4909820D02*
D03*
Y4999820D02*
D03*
X424180Y4455160D02*
D03*
Y4370160D02*
D03*
X530860Y4454837D02*
D03*
Y4369837D02*
D03*
X978740Y6998380D02*
D03*
Y7083380D02*
D03*
X866980Y7085882D02*
D03*
Y6995882D02*
D03*
X510540Y6179820D02*
D03*
Y6269820D02*
D03*
X530860Y5724837D02*
D03*
Y5639837D02*
D03*
D77*
X818822Y5720880D02*
D03*
Y6176480D02*
D03*
Y4450880D02*
D03*
Y4906480D02*
D03*
D78*
X348992Y4958072D02*
D03*
X158992D02*
D03*
X1137088Y4823460D02*
D03*
X1327088D02*
D03*
X1137088Y4533900D02*
D03*
X1327088D02*
D03*
X1137088Y5803900D02*
D03*
X1327088D02*
D03*
Y6093460D02*
D03*
X1137088D02*
D03*
X348992Y6228072D02*
D03*
X158992D02*
D03*
D79*
X213360Y4452620D02*
D03*
X123360D02*
D03*
X1102044Y4678680D02*
D03*
X1192044D02*
D03*
Y5948680D02*
D03*
X1102044D02*
D03*
X213360Y5722620D02*
D03*
X123360D02*
D03*
D80*
X423332Y4583680D02*
D03*
Y4678680D02*
D03*
Y4773680D02*
D03*
X143932D02*
D03*
Y4678680D02*
D03*
Y4583680D02*
D03*
X423332Y5853680D02*
D03*
Y5948680D02*
D03*
Y6043680D02*
D03*
X143932D02*
D03*
Y5948680D02*
D03*
Y5853680D02*
D03*
D81*
X9910203Y7896327D02*
D03*
X10054196D02*
D03*
X9910203Y7796327D02*
D03*
Y7846314D02*
D03*
Y7946314D02*
D03*
Y7996326D02*
D03*
Y7746314D02*
D03*
Y8096326D02*
D03*
Y8146313D02*
D03*
Y8196326D02*
D03*
Y8246313D02*
D03*
Y8046339D02*
D03*
Y8296326D02*
D03*
X10054196Y7796327D02*
D03*
Y7846314D02*
D03*
Y7946314D02*
D03*
Y7996326D02*
D03*
Y7746314D02*
D03*
Y8096326D02*
D03*
Y8146313D02*
D03*
Y8196326D02*
D03*
Y8246313D02*
D03*
Y8046314D02*
D03*
Y8296326D02*
D03*
D82*
X322580Y3390900D02*
D03*
X10228580Y8630920D02*
D03*
D83*
X2005389Y3605263D02*
D03*
X1393459Y4217193D02*
D03*
D84*
X1106798Y3495379D02*
D03*
X1283575Y3318602D02*
D03*
D85*
X459930Y7494549D02*
D03*
D86*
X1231710Y8029550D02*
D03*
D87*
X1101712Y8639531D02*
D03*
D88*
X4114800Y3949980D02*
D03*
X2626360D02*
D03*
X4859020D02*
D03*
X3370580D02*
D03*
X2626360Y6766840D02*
D03*
X3370580D02*
D03*
X4859020D02*
D03*
X4114800D02*
D03*
D89*
Y3349980D02*
D03*
X2626360D02*
D03*
X4859020D02*
D03*
X3370580D02*
D03*
X2626360Y6166840D02*
D03*
X3370580D02*
D03*
X4859020D02*
D03*
X4114800D02*
D03*
D90*
X1336375Y6709089D02*
D03*
X1230309Y6815155D02*
D03*
D91*
X1768983Y6849237D02*
D03*
X1370457Y7247763D02*
D03*
D92*
X586740Y7062280D02*
D03*
D93*
X459740D02*
D03*
X332740D02*
D03*
X205740D02*
D03*
X586740Y6562280D02*
D03*
X459740D02*
D03*
X332740D02*
D03*
X205740D02*
D03*
D94*
X7584440Y8661400D02*
D03*
Y7381240D02*
D03*
X8872922Y8661400D02*
D03*
Y7381240D02*
D03*
D95*
X7594346Y7671308D02*
D03*
Y7921244D02*
D03*
Y8121396D02*
D03*
Y8371332D02*
D03*
X7444486Y7621270D02*
D03*
Y7821422D02*
D03*
Y8021320D02*
D03*
Y8221218D02*
D03*
Y8421370D02*
D03*
X8882828Y7671308D02*
D03*
Y7921244D02*
D03*
Y8121396D02*
D03*
Y8371332D02*
D03*
X8732968Y7621270D02*
D03*
Y7821422D02*
D03*
Y8021320D02*
D03*
Y8221218D02*
D03*
Y8421370D02*
D03*
D96*
X10197198Y7781315D02*
D03*
X9767201D02*
D03*
Y8261325D02*
D03*
X10197198D02*
D03*
D97*
X1616116Y6469476D02*
D03*
X5416116D02*
D03*
X1616116Y3662126D02*
D03*
X5416116D02*
D03*
%TF.MD5,9d05244a7fcc1ebf0da416321c48d0f7*%
M02*
