%TF.GenerationSoftware,Altium Limited,Altium Designer,24.0.1 (36)*%
G04 Layer_Physical_Order=2*
G04 Layer_Color=36540*
%FSLAX45Y45*%
%MOMM*%
%TF.SameCoordinates,B6A243B4-E260-46CF-AFF0-E69CB888832F*%
%TF.FilePolarity,Positive*%
%TF.FileFunction,Copper,L2,Inr,Signal*%
%TF.Part,Single*%
G01*
G75*
%TA.AperFunction,Conductor*%
%ADD10C,0.12954*%
%TA.AperFunction,ComponentPad*%
%ADD37C,2.99974*%
%ADD38C,1.19888*%
%ADD39C,1.30000*%
%ADD40C,1.00000*%
%TA.AperFunction,ViaPad*%
%ADD41C,0.40000*%
G36*
X10259303Y8892906D02*
X10297303Y8882744D01*
X10333649Y8867706D01*
X10367719Y8848048D01*
X10398928Y8824106D01*
X10426742Y8796293D01*
X10450683Y8765083D01*
X10470342Y8731014D01*
X10485380Y8694667D01*
X10495541Y8656668D01*
X10500650Y8617667D01*
X10500635Y8598000D01*
X10500635D01*
X10500635Y8597999D01*
X10500635Y3398020D01*
X10500639Y3378356D01*
X10495512Y3339363D01*
X10485338Y3301373D01*
X10470292Y3265037D01*
X10450630Y3230977D01*
X10426690Y3199774D01*
X10398880Y3171965D01*
X10367678Y3148025D01*
X10333618Y3128363D01*
X10297282Y3113316D01*
X10259292Y3103143D01*
X10220299Y3098016D01*
X10200635Y3098020D01*
X300635Y3097999D01*
X280974Y3098006D01*
X241990Y3103151D01*
X204010Y3113337D01*
X167684Y3128392D01*
X133632Y3148057D01*
X102437Y3171996D01*
X74633Y3199801D01*
X50693Y3230996D01*
X31028Y3265048D01*
X15973Y3301374D01*
X5787Y3339353D01*
X642Y3378337D01*
X635Y3397999D01*
X634Y8597999D01*
X630Y8617663D01*
X5757Y8656656D01*
X15931Y8694646D01*
X30978Y8730982D01*
X50639Y8765043D01*
X74580Y8796245D01*
X102389Y8824054D01*
X133592Y8847995D01*
X167652Y8867656D01*
X203988Y8882703D01*
X241978Y8892877D01*
X280971Y8898003D01*
X300635Y8897999D01*
X300635Y8898000D01*
X10200635Y8897999D01*
X10220302Y8898014D01*
X10259303Y8892906D01*
D02*
G37*
%LPC*%
G36*
X429454Y8770535D02*
X400491D01*
X399118Y8769966D01*
X397645Y8770161D01*
X369668Y8762664D01*
X368489Y8761759D01*
X367016Y8761566D01*
X341933Y8747084D01*
X341028Y8745905D01*
X339655Y8745336D01*
X319175Y8724856D01*
X318606Y8723483D01*
X317427Y8722578D01*
X302945Y8697495D01*
X302751Y8696022D01*
X301847Y8694843D01*
X294350Y8666866D01*
X294544Y8665393D01*
X293976Y8664020D01*
Y8635057D01*
X294544Y8633684D01*
X294350Y8632210D01*
X301847Y8604234D01*
X302751Y8603055D01*
X302945Y8601582D01*
X317427Y8576498D01*
X318606Y8575593D01*
X319175Y8574221D01*
X339655Y8553740D01*
X341028Y8553172D01*
X341933Y8551993D01*
X367016Y8537511D01*
X368489Y8537317D01*
X369668Y8536412D01*
X397645Y8528916D01*
X399118Y8529110D01*
X400491Y8528541D01*
X429454D01*
X430827Y8529110D01*
X432301Y8528916D01*
X460277Y8536412D01*
X461456Y8537317D01*
X462929Y8537511D01*
X488013Y8551993D01*
X488917Y8553172D01*
X490290Y8553740D01*
X510771Y8574221D01*
X511339Y8575594D01*
X512518Y8576498D01*
X527000Y8601581D01*
X527194Y8603055D01*
X528099Y8604234D01*
X535595Y8632210D01*
X535401Y8633684D01*
X535969Y8635057D01*
Y8664020D01*
X535401Y8665393D01*
X535595Y8666866D01*
X528099Y8694843D01*
X527194Y8696022D01*
X527000Y8697495D01*
X512518Y8722578D01*
X511339Y8723483D01*
X510771Y8724856D01*
X490290Y8745336D01*
X488917Y8745905D01*
X488013Y8747084D01*
X462929Y8761566D01*
X461456Y8761760D01*
X460277Y8762664D01*
X432301Y8770161D01*
X430827Y8769966D01*
X429454Y8770535D01*
D02*
G37*
G36*
X6940297Y8736801D02*
X6920632Y8736797D01*
X1820635Y8736797D01*
X1820632Y8736796D01*
X1820631Y8736797D01*
X1800970Y8736790D01*
X1800268Y8736499D01*
X1799535Y8736695D01*
X1760551Y8731551D01*
X1759894Y8731171D01*
X1759141Y8731270D01*
X1721161Y8721083D01*
X1720559Y8720621D01*
X1719800Y8720621D01*
X1683473Y8705566D01*
X1682937Y8705030D01*
X1682184Y8704930D01*
X1648132Y8685265D01*
X1647670Y8684663D01*
X1646937Y8684466D01*
X1615742Y8660526D01*
X1615363Y8659869D01*
X1614661Y8659579D01*
X1586856Y8631773D01*
X1586566Y8631072D01*
X1585908Y8630692D01*
X1561969Y8599498D01*
X1561772Y8598764D01*
X1561170Y8598302D01*
X1541504Y8564251D01*
X1541405Y8563498D01*
X1540868Y8562961D01*
X1525814Y8526635D01*
X1525814Y8525876D01*
X1525351Y8525274D01*
X1515165Y8487294D01*
X1515263Y8486541D01*
X1514884Y8485884D01*
X1509739Y8446900D01*
X1509936Y8446166D01*
X1509645Y8445465D01*
X1509638Y8425804D01*
X1509639Y8425802D01*
X1509638Y8425800D01*
X1509638Y7324700D01*
X1509639Y7324698D01*
X1509638Y7324696D01*
X1509645Y7305035D01*
X1509936Y7304333D01*
X1509740Y7303600D01*
X1514884Y7264616D01*
X1515264Y7263959D01*
X1515165Y7263206D01*
X1525352Y7225226D01*
X1525814Y7224624D01*
X1525814Y7223865D01*
X1540869Y7187539D01*
X1541406Y7187002D01*
X1541505Y7186249D01*
X1561170Y7152198D01*
X1561772Y7151736D01*
X1561969Y7151002D01*
X1585908Y7119807D01*
X1586566Y7119428D01*
X1586856Y7118726D01*
X1614661Y7090921D01*
X1615363Y7090631D01*
X1615742Y7089973D01*
X1646937Y7066034D01*
X1647670Y7065837D01*
X1648133Y7065235D01*
X1682184Y7045570D01*
X1682937Y7045471D01*
X1683474Y7044934D01*
X1719800Y7029879D01*
X1720559Y7029879D01*
X1721161Y7029416D01*
X1759141Y7019230D01*
X1759893Y7019329D01*
X1760551Y7018949D01*
X1799535Y7013805D01*
X1800268Y7014001D01*
X1800970Y7013710D01*
X1820631Y7013703D01*
X1820633Y7013704D01*
X1820635Y7013703D01*
X6920633Y7013703D01*
X6940297Y7013699D01*
X6940999Y7013989D01*
X6941733Y7013792D01*
X6980725Y7018919D01*
X6981384Y7019299D01*
X6982136Y7019200D01*
X7020126Y7029374D01*
X7020729Y7029836D01*
X7021489D01*
X7057825Y7044882D01*
X7058362Y7045419D01*
X7059115Y7045519D01*
X7093176Y7065180D01*
X7093638Y7065783D01*
X7094372Y7065980D01*
X7125575Y7089920D01*
X7125955Y7090578D01*
X7126656Y7090869D01*
X7154465Y7118678D01*
X7154756Y7119380D01*
X7155414Y7119760D01*
X7179355Y7150962D01*
X7179551Y7151696D01*
X7180154Y7152158D01*
X7199816Y7186219D01*
X7199915Y7186972D01*
X7200452Y7187510D01*
X7215499Y7223846D01*
Y7224606D01*
X7215961Y7225209D01*
X7226135Y7263198D01*
X7226035Y7263951D01*
X7226415Y7264609D01*
X7231542Y7303602D01*
X7231345Y7304336D01*
X7231636Y7305038D01*
X7231632Y7324702D01*
X7231632Y8425800D01*
X7231632Y8425801D01*
X7231636Y8445462D01*
X7231345Y8446163D01*
X7231542Y8446898D01*
X7226416Y8485890D01*
X7226036Y8486549D01*
X7226135Y8487302D01*
X7215961Y8525291D01*
X7215499Y8525894D01*
Y8526654D01*
X7200452Y8562990D01*
X7199915Y8563527D01*
X7199816Y8564281D01*
X7180154Y8598341D01*
X7179552Y8598804D01*
X7179355Y8599538D01*
X7155414Y8630740D01*
X7154757Y8631120D01*
X7154466Y8631822D01*
X7126657Y8659631D01*
X7125955Y8659922D01*
X7125575Y8660580D01*
X7094373Y8684520D01*
X7093639Y8684717D01*
X7093176Y8685319D01*
X7059115Y8704981D01*
X7058362Y8705080D01*
X7057825Y8705618D01*
X7021489Y8720664D01*
X7020729D01*
X7020126Y8721127D01*
X6982136Y8731300D01*
X6981383Y8731201D01*
X6980725Y8731581D01*
X6941732Y8736707D01*
X6940998Y8736511D01*
X6940297Y8736801D01*
D02*
G37*
G36*
X9610699Y8683940D02*
X9598701D01*
X9587616Y8679348D01*
X9579131Y8670864D01*
X9574540Y8659779D01*
Y8647781D01*
X9579131Y8636696D01*
X9587616Y8628212D01*
X9598701Y8623620D01*
X9610699D01*
X9621784Y8628212D01*
X9630268Y8636696D01*
X9634860Y8647781D01*
Y8659779D01*
X9630268Y8670864D01*
X9621784Y8679348D01*
X9610699Y8683940D01*
D02*
G37*
G36*
X8224479D02*
X8212481D01*
X8201396Y8679348D01*
X8192912Y8670864D01*
X8188320Y8659779D01*
Y8647781D01*
X8192912Y8636696D01*
X8201396Y8628212D01*
X8212481Y8623620D01*
X8224479D01*
X8235564Y8628212D01*
X8244049Y8636696D01*
X8248640Y8647781D01*
Y8659779D01*
X8244049Y8670864D01*
X8235564Y8679348D01*
X8224479Y8683940D01*
D02*
G37*
G36*
X7970479D02*
X7958481D01*
X7947396Y8679348D01*
X7938912Y8670864D01*
X7934320Y8659779D01*
Y8647781D01*
X7938912Y8636696D01*
X7947396Y8628212D01*
X7958481Y8623620D01*
X7970479D01*
X7981564Y8628212D01*
X7990049Y8636696D01*
X7994640Y8647781D01*
Y8659779D01*
X7990049Y8670864D01*
X7981564Y8679348D01*
X7970479Y8683940D01*
D02*
G37*
G36*
X7836819D02*
X7824821D01*
X7813736Y8679348D01*
X7805252Y8670864D01*
X7800660Y8659779D01*
Y8647781D01*
X7805252Y8636696D01*
X7813736Y8628212D01*
X7824821Y8623620D01*
X7836819D01*
X7847904Y8628212D01*
X7856388Y8636696D01*
X7860980Y8647781D01*
Y8659779D01*
X7856388Y8670864D01*
X7847904Y8679348D01*
X7836819Y8683940D01*
D02*
G37*
G36*
X8097479Y8682670D02*
X8085481D01*
X8074396Y8678078D01*
X8065912Y8669594D01*
X8061320Y8658509D01*
Y8646511D01*
X8065912Y8635426D01*
X8074396Y8626942D01*
X8085481Y8622350D01*
X8097479D01*
X8108564Y8626942D01*
X8117049Y8635426D01*
X8121640Y8646511D01*
Y8658509D01*
X8117049Y8669594D01*
X8108564Y8678078D01*
X8097479Y8682670D01*
D02*
G37*
G36*
X9483699Y8681400D02*
X9471701D01*
X9460616Y8676808D01*
X9452131Y8668324D01*
X9447540Y8657239D01*
Y8645241D01*
X9452131Y8634156D01*
X9460616Y8625672D01*
X9471701Y8621080D01*
X9483699D01*
X9494784Y8625672D01*
X9503268Y8634156D01*
X9507860Y8645241D01*
Y8657239D01*
X9503268Y8668324D01*
X9494784Y8676808D01*
X9483699Y8681400D01*
D02*
G37*
G36*
X9356699D02*
X9344701D01*
X9333616Y8676808D01*
X9325131Y8668324D01*
X9320540Y8657239D01*
Y8645241D01*
X9325131Y8634156D01*
X9333616Y8625672D01*
X9344701Y8621080D01*
X9356699D01*
X9367784Y8625672D01*
X9376268Y8634156D01*
X9380860Y8645241D01*
Y8657239D01*
X9376268Y8668324D01*
X9367784Y8676808D01*
X9356699Y8681400D01*
D02*
G37*
G36*
X9229699D02*
X9217701D01*
X9206616Y8676808D01*
X9198131Y8668324D01*
X9193540Y8657239D01*
Y8645241D01*
X9198131Y8634156D01*
X9206616Y8625672D01*
X9217701Y8621080D01*
X9229699D01*
X9240784Y8625672D01*
X9249268Y8634156D01*
X9253860Y8645241D01*
Y8657239D01*
X9249268Y8668324D01*
X9240784Y8676808D01*
X9229699Y8681400D01*
D02*
G37*
G36*
X9988776Y8440322D02*
X9975648D01*
X9973627Y8439485D01*
X9971440D01*
X9959311Y8434461D01*
X9957764Y8432915D01*
X9955743Y8432078D01*
X9946460Y8422795D01*
X9945623Y8420773D01*
X9944077Y8419227D01*
X9939053Y8407098D01*
Y8404911D01*
X9938216Y8402890D01*
Y8389762D01*
X9939053Y8387741D01*
Y8385553D01*
X9944077Y8373424D01*
X9945623Y8371878D01*
X9946460Y8369857D01*
X9955743Y8360574D01*
X9957764Y8359737D01*
X9959311Y8358190D01*
X9971440Y8353166D01*
X9973627D01*
X9975648Y8352329D01*
X9988776D01*
X9990797Y8353166D01*
X9992985D01*
X10005114Y8358190D01*
X10006660Y8359737D01*
X10008681Y8360574D01*
X10017964Y8369857D01*
X10018801Y8371877D01*
X10020348Y8373424D01*
X10025372Y8385553D01*
Y8387741D01*
X10026209Y8389762D01*
Y8402890D01*
X10025372Y8404911D01*
Y8407098D01*
X10020348Y8419227D01*
X10018801Y8420774D01*
X10017964Y8422795D01*
X10008681Y8432078D01*
X10006660Y8432915D01*
X10005113Y8434461D01*
X9992985Y8439485D01*
X9990797D01*
X9988776Y8440322D01*
D02*
G37*
G36*
X8742197Y8491474D02*
X8723739D01*
X8705909Y8486697D01*
X8689923Y8477467D01*
X8676871Y8464415D01*
X8667642Y8448429D01*
X8662864Y8430599D01*
Y8412141D01*
X8667642Y8394311D01*
X8676871Y8378325D01*
X8689923Y8365273D01*
X8705909Y8356043D01*
X8723739Y8351266D01*
X8742197D01*
X8760027Y8356043D01*
X8776013Y8365273D01*
X8789065Y8378325D01*
X8798295Y8394311D01*
X8803072Y8412141D01*
Y8430599D01*
X8798295Y8448429D01*
X8789065Y8464415D01*
X8776013Y8477467D01*
X8760027Y8486697D01*
X8742197Y8491474D01*
D02*
G37*
G36*
X7453715D02*
X7435257D01*
X7417427Y8486697D01*
X7401441Y8477467D01*
X7388389Y8464415D01*
X7379159Y8448429D01*
X7374382Y8430599D01*
Y8412141D01*
X7379159Y8394311D01*
X7388389Y8378325D01*
X7401441Y8365273D01*
X7417427Y8356043D01*
X7435257Y8351266D01*
X7453715D01*
X7471545Y8356043D01*
X7487531Y8365273D01*
X7500583Y8378325D01*
X7509813Y8394311D01*
X7514590Y8412141D01*
Y8430599D01*
X7509813Y8448429D01*
X7500583Y8464415D01*
X7487531Y8477467D01*
X7471545Y8486697D01*
X7453715Y8491474D01*
D02*
G37*
G36*
X8742197Y8291322D02*
X8723739D01*
X8705909Y8286545D01*
X8689923Y8277315D01*
X8676871Y8264263D01*
X8667642Y8248277D01*
X8662864Y8230447D01*
Y8211989D01*
X8667642Y8194159D01*
X8676871Y8178173D01*
X8689923Y8165121D01*
X8705909Y8155891D01*
X8723739Y8151114D01*
X8742197D01*
X8760027Y8155891D01*
X8776013Y8165121D01*
X8789065Y8178173D01*
X8798295Y8194159D01*
X8803072Y8211989D01*
Y8230447D01*
X8798295Y8248277D01*
X8789065Y8264263D01*
X8776013Y8277315D01*
X8760027Y8286545D01*
X8742197Y8291322D01*
D02*
G37*
G36*
X7453715D02*
X7435257D01*
X7417427Y8286545D01*
X7401441Y8277315D01*
X7388389Y8264263D01*
X7379159Y8248277D01*
X7374382Y8230447D01*
Y8211989D01*
X7379159Y8194159D01*
X7388389Y8178173D01*
X7401441Y8165121D01*
X7417427Y8155891D01*
X7435257Y8151114D01*
X7453715D01*
X7471545Y8155891D01*
X7487531Y8165121D01*
X7500583Y8178173D01*
X7509813Y8194159D01*
X7514590Y8211989D01*
Y8230447D01*
X7509813Y8248277D01*
X7500583Y8264263D01*
X7487531Y8277315D01*
X7471545Y8286545D01*
X7453715Y8291322D01*
D02*
G37*
G36*
X9327115Y8203837D02*
X9315116D01*
X9304031Y8199245D01*
X9295547Y8190761D01*
X9290956Y8179676D01*
Y8167678D01*
X9295547Y8156593D01*
X9304031Y8148109D01*
X9315116Y8143517D01*
X9327115D01*
X9338200Y8148109D01*
X9346684Y8156593D01*
X9351275Y8167678D01*
Y8179676D01*
X9346684Y8190761D01*
X9338200Y8199245D01*
X9327115Y8203837D01*
D02*
G37*
G36*
X8227979Y8198800D02*
X8215981D01*
X8204896Y8194208D01*
X8196412Y8185724D01*
X8191820Y8174639D01*
Y8162641D01*
X8196412Y8151556D01*
X8197701Y8150267D01*
X8204052Y8141970D01*
X8197701Y8133673D01*
X8196412Y8132384D01*
X8191820Y8121299D01*
Y8109301D01*
X8196412Y8098216D01*
X8204896Y8089732D01*
X8215981Y8085140D01*
X8227979D01*
X8239064Y8089732D01*
X8247548Y8098216D01*
X8252140Y8109301D01*
Y8121299D01*
X8247548Y8132384D01*
X8246259Y8133673D01*
X8239908Y8141970D01*
X8246259Y8150267D01*
X8247548Y8151556D01*
X8252140Y8162641D01*
Y8174639D01*
X8247548Y8185724D01*
X8239064Y8194208D01*
X8227979Y8198800D01*
D02*
G37*
G36*
X8892057Y8191500D02*
X8873599D01*
X8855769Y8186723D01*
X8839783Y8177493D01*
X8826731Y8164441D01*
X8817502Y8148455D01*
X8812724Y8130625D01*
Y8112167D01*
X8817502Y8094337D01*
X8826731Y8078351D01*
X8839783Y8065299D01*
X8855769Y8056069D01*
X8873599Y8051292D01*
X8892057D01*
X8909887Y8056069D01*
X8925873Y8065299D01*
X8938925Y8078351D01*
X8948155Y8094337D01*
X8952932Y8112167D01*
Y8130625D01*
X8948155Y8148455D01*
X8938925Y8164441D01*
X8925873Y8177493D01*
X8909887Y8186723D01*
X8892057Y8191500D01*
D02*
G37*
G36*
X7603575D02*
X7585117D01*
X7567287Y8186723D01*
X7551301Y8177493D01*
X7538249Y8164441D01*
X7529019Y8148455D01*
X7524242Y8130625D01*
Y8112167D01*
X7529019Y8094337D01*
X7538249Y8078351D01*
X7551301Y8065299D01*
X7567287Y8056069D01*
X7585117Y8051292D01*
X7603575D01*
X7621405Y8056069D01*
X7637391Y8065299D01*
X7650443Y8078351D01*
X7659673Y8094337D01*
X7664450Y8112167D01*
Y8130625D01*
X7659673Y8148455D01*
X7650443Y8164441D01*
X7637391Y8177493D01*
X7621405Y8186723D01*
X7603575Y8191500D01*
D02*
G37*
G36*
X9287159Y8094660D02*
X9275161D01*
X9264076Y8090068D01*
X9255592Y8081584D01*
X9251000Y8070499D01*
Y8058501D01*
X9255592Y8047416D01*
X9264076Y8038932D01*
X9275161Y8034340D01*
X9287159D01*
X9298244Y8038932D01*
X9306728Y8047416D01*
X9311320Y8058501D01*
Y8070499D01*
X9306728Y8081584D01*
X9298244Y8090068D01*
X9287159Y8094660D01*
D02*
G37*
G36*
X10351419Y8064180D02*
X10339421D01*
X10328336Y8059588D01*
X10319852Y8051104D01*
X10315260Y8040019D01*
Y8028021D01*
X10319852Y8016936D01*
X10328336Y8008452D01*
X10339421Y8003860D01*
X10351419D01*
X10362504Y8008452D01*
X10370988Y8016936D01*
X10375580Y8028021D01*
Y8040019D01*
X10370988Y8051104D01*
X10362504Y8059588D01*
X10351419Y8064180D01*
D02*
G37*
G36*
X9788200Y8077843D02*
X9776201D01*
X9765116Y8073251D01*
X9756632Y8064767D01*
X9752040Y8053682D01*
Y8041683D01*
X9756632Y8030598D01*
X9757601Y8029629D01*
X9764469Y8021333D01*
X9757601Y8013036D01*
X9756632Y8012067D01*
X9752040Y8000982D01*
Y7988984D01*
X9756632Y7977898D01*
X9765116Y7969414D01*
X9776201Y7964823D01*
X9787123D01*
X9789888Y7962279D01*
X9795357Y7954041D01*
X9791727Y7945279D01*
Y7933280D01*
X9796319Y7922195D01*
X9804803Y7913711D01*
X9815888Y7909120D01*
X9827887D01*
X9838972Y7913711D01*
X9847456Y7922195D01*
X9852047Y7933280D01*
Y7945279D01*
X9847456Y7956364D01*
X9838972Y7964848D01*
X9827887Y7969439D01*
X9816965D01*
X9814200Y7971983D01*
X9808731Y7980221D01*
X9812360Y7988984D01*
Y7998449D01*
X9823243Y8009332D01*
X9823471Y8009104D01*
X9838519Y8020650D01*
X9856043Y8027909D01*
X9874848Y8030384D01*
Y8030707D01*
X10154701D01*
X10154752Y8030586D01*
X10155721Y8029617D01*
X10162589Y8021320D01*
X10155721Y8013023D01*
X10154752Y8012054D01*
X10150160Y8000969D01*
Y7988971D01*
X10154752Y7977886D01*
X10163236Y7969402D01*
X10174321Y7964810D01*
X10186319D01*
X10197404Y7969402D01*
X10205888Y7977886D01*
X10210480Y7988971D01*
Y8000969D01*
X10205888Y8012054D01*
X10204919Y8013023D01*
X10198051Y8021320D01*
X10204919Y8029617D01*
X10205888Y8030586D01*
X10210480Y8041671D01*
Y8053669D01*
X10205888Y8064754D01*
X10197404Y8073238D01*
X10186319Y8077830D01*
X10174321D01*
X10163236Y8073238D01*
X10154752Y8064754D01*
X10154701Y8064633D01*
X9874848D01*
Y8065227D01*
X9847025Y8061564D01*
X9825060Y8052466D01*
X9822420Y8052719D01*
X9813786Y8056089D01*
X9810334Y8058573D01*
X9807769Y8064767D01*
X9799285Y8073251D01*
X9788200Y8077843D01*
D02*
G37*
G36*
X8892057Y7991348D02*
X8873599D01*
X8855769Y7986571D01*
X8839783Y7977341D01*
X8826731Y7964289D01*
X8817502Y7948303D01*
X8812724Y7930473D01*
Y7912015D01*
X8817502Y7894185D01*
X8826731Y7878199D01*
X8839783Y7865147D01*
X8855769Y7855917D01*
X8873599Y7851140D01*
X8892057D01*
X8909887Y7855917D01*
X8925873Y7865147D01*
X8938925Y7878199D01*
X8948155Y7894185D01*
X8952932Y7912015D01*
Y7930473D01*
X8948155Y7948303D01*
X8938925Y7964289D01*
X8925873Y7977341D01*
X8909887Y7986571D01*
X8892057Y7991348D01*
D02*
G37*
G36*
X7603575D02*
X7585117D01*
X7567287Y7986571D01*
X7551301Y7977341D01*
X7538249Y7964289D01*
X7529019Y7948303D01*
X7524242Y7930473D01*
Y7912015D01*
X7529019Y7894185D01*
X7538249Y7878199D01*
X7551301Y7865147D01*
X7567287Y7855917D01*
X7585117Y7851140D01*
X7603575D01*
X7621405Y7855917D01*
X7637391Y7865147D01*
X7650443Y7878199D01*
X7659673Y7894185D01*
X7664450Y7912015D01*
Y7930473D01*
X7659673Y7948303D01*
X7650443Y7964289D01*
X7637391Y7977341D01*
X7621405Y7986571D01*
X7603575Y7991348D01*
D02*
G37*
G36*
X889448Y7805564D02*
X860485D01*
X859112Y7804995D01*
X857639Y7805189D01*
X829662Y7797693D01*
X828483Y7796788D01*
X827010Y7796594D01*
X801927Y7782113D01*
X801022Y7780934D01*
X799649Y7780365D01*
X779169Y7759885D01*
X778600Y7758512D01*
X777421Y7757607D01*
X762939Y7732524D01*
X762745Y7731050D01*
X761841Y7729872D01*
X754344Y7701895D01*
X754538Y7700421D01*
X753970Y7699049D01*
Y7670085D01*
X754538Y7668712D01*
X754344Y7667239D01*
X761841Y7639262D01*
X762745Y7638084D01*
X762939Y7636610D01*
X777421Y7611527D01*
X778600Y7610622D01*
X779169Y7609249D01*
X799649Y7588769D01*
X801022Y7588200D01*
X801927Y7587021D01*
X827010Y7572540D01*
X828483Y7572346D01*
X829662Y7571441D01*
X857639Y7563944D01*
X859112Y7564139D01*
X860485Y7563570D01*
X889448D01*
X890821Y7564139D01*
X892295Y7563944D01*
X920271Y7571441D01*
X921450Y7572346D01*
X922923Y7572540D01*
X948007Y7587021D01*
X948911Y7588200D01*
X950284Y7588769D01*
X970765Y7609249D01*
X971333Y7610622D01*
X972512Y7611527D01*
X986994Y7636610D01*
X987188Y7638084D01*
X988093Y7639263D01*
X995589Y7667239D01*
X995395Y7668712D01*
X995963Y7670085D01*
Y7699049D01*
X995395Y7700421D01*
X995589Y7701895D01*
X988093Y7729872D01*
X987188Y7731050D01*
X986994Y7732524D01*
X972512Y7757607D01*
X971333Y7758512D01*
X970765Y7759885D01*
X950284Y7780365D01*
X948911Y7780934D01*
X948007Y7782112D01*
X922923Y7796594D01*
X921450Y7796788D01*
X920271Y7797693D01*
X892295Y7805189D01*
X890821Y7804995D01*
X889448Y7805564D01*
D02*
G37*
G36*
X9419125Y7875255D02*
X9407127D01*
X9396042Y7870664D01*
X9387558Y7862180D01*
X9382966Y7851095D01*
Y7839096D01*
X9387558Y7828011D01*
X9388527Y7827042D01*
X9395395Y7818745D01*
X9388527Y7810449D01*
X9387558Y7809480D01*
X9382966Y7798395D01*
Y7786396D01*
X9387558Y7775311D01*
X9396042Y7766827D01*
X9407127Y7762235D01*
X9419125D01*
X9430211Y7766827D01*
X9438695Y7775311D01*
X9443286Y7786396D01*
Y7798395D01*
X9438695Y7809480D01*
X9437726Y7810449D01*
X9430858Y7818745D01*
X9437726Y7827042D01*
X9438695Y7828011D01*
X9443286Y7839096D01*
Y7851095D01*
X9438695Y7862180D01*
X9430211Y7870664D01*
X9419125Y7875255D01*
D02*
G37*
G36*
X8742197Y7891526D02*
X8723739D01*
X8705909Y7886749D01*
X8689923Y7877519D01*
X8676871Y7864467D01*
X8667642Y7848481D01*
X8662864Y7830651D01*
Y7812193D01*
X8667642Y7794363D01*
X8676871Y7778377D01*
X8689923Y7765325D01*
X8705909Y7756095D01*
X8723739Y7751318D01*
X8742197D01*
X8760027Y7756095D01*
X8776013Y7765325D01*
X8789065Y7778377D01*
X8798295Y7794363D01*
X8803072Y7812193D01*
Y7830651D01*
X8798295Y7848481D01*
X8789065Y7864467D01*
X8776013Y7877519D01*
X8760027Y7886749D01*
X8742197Y7891526D01*
D02*
G37*
G36*
X7453715D02*
X7435257D01*
X7417427Y7886749D01*
X7401441Y7877519D01*
X7388389Y7864467D01*
X7379159Y7848481D01*
X7374382Y7830651D01*
Y7812193D01*
X7379159Y7794363D01*
X7388389Y7778377D01*
X7401441Y7765325D01*
X7417427Y7756095D01*
X7435257Y7751318D01*
X7453715D01*
X7471545Y7756095D01*
X7487531Y7765325D01*
X7500583Y7778377D01*
X7509813Y7794363D01*
X7514590Y7812193D01*
Y7830651D01*
X7509813Y7848481D01*
X7500583Y7864467D01*
X7487531Y7877519D01*
X7471545Y7886749D01*
X7453715Y7891526D01*
D02*
G37*
G36*
X9987951Y7705508D02*
X9976468D01*
X9974456Y7704674D01*
X9972279Y7704679D01*
X9961662Y7700304D01*
X9960120Y7698767D01*
X9958104Y7697940D01*
X9949955Y7689850D01*
X9949114Y7687841D01*
X9947566Y7686309D01*
X9943115Y7675725D01*
X9943103Y7673547D01*
X9942255Y7671541D01*
X9942214Y7665799D01*
X9942229Y7665761D01*
X9942213Y7665723D01*
X9942203Y7624501D01*
X9942316Y7624229D01*
X9942217Y7623951D01*
X9942495Y7618370D01*
X9943403Y7616452D01*
X9943483Y7614332D01*
X9948142Y7604172D01*
X9949697Y7602729D01*
X9950558Y7600789D01*
X9958656Y7593084D01*
X9960636Y7592322D01*
X9962154Y7590840D01*
X9972534Y7586691D01*
X9974655Y7586718D01*
X9976616Y7585906D01*
X9982204Y7585906D01*
X9982205Y7585906D01*
X9982205Y7585906D01*
X9987770D01*
X9989723Y7586715D01*
X9991836Y7586685D01*
X10002179Y7590801D01*
X10003694Y7592275D01*
X10005669Y7593029D01*
X10013757Y7600677D01*
X10014620Y7602606D01*
X10016176Y7604037D01*
X10020863Y7614133D01*
X10020951Y7616245D01*
X10021868Y7618149D01*
X10022179Y7623706D01*
X10022070Y7624015D01*
X10022196Y7624318D01*
X10022206Y7665717D01*
X10022189Y7665758D01*
X10022206Y7665799D01*
X10022165Y7671540D01*
X10021317Y7673547D01*
X10021305Y7675725D01*
X10016853Y7686309D01*
X10015305Y7687841D01*
X10014464Y7689850D01*
X10006316Y7697940D01*
X10004300Y7698767D01*
X10002757Y7700304D01*
X9992141Y7704679D01*
X9989963Y7704674D01*
X9987951Y7705508D01*
D02*
G37*
G36*
X8235320Y7698615D02*
X8223322D01*
X8212237Y7694023D01*
X8203753Y7685539D01*
X8199161Y7674454D01*
Y7662455D01*
X8203753Y7651370D01*
X8212237Y7642886D01*
X8223322Y7638295D01*
X8235320D01*
X8246405Y7642886D01*
X8254890Y7651370D01*
X8259481Y7662455D01*
Y7674454D01*
X8254890Y7685539D01*
X8246405Y7694023D01*
X8235320Y7698615D01*
D02*
G37*
G36*
X9383999Y7689911D02*
X9372001D01*
X9360916Y7685320D01*
X9352432Y7676836D01*
X9347840Y7665751D01*
Y7653752D01*
X9352432Y7642667D01*
X9360916Y7634183D01*
X9372001Y7629592D01*
X9383999D01*
X9395084Y7634183D01*
X9403568Y7642667D01*
X9408160Y7653752D01*
Y7665751D01*
X9403568Y7676836D01*
X9395084Y7685320D01*
X9383999Y7689911D01*
D02*
G37*
G36*
X8892057Y7741412D02*
X8873599D01*
X8855769Y7736635D01*
X8839783Y7727405D01*
X8826731Y7714353D01*
X8817502Y7698367D01*
X8812724Y7680537D01*
Y7662079D01*
X8817502Y7644249D01*
X8826731Y7628263D01*
X8839783Y7615211D01*
X8855769Y7605981D01*
X8873599Y7601204D01*
X8892057D01*
X8909887Y7605981D01*
X8925873Y7615211D01*
X8938925Y7628263D01*
X8948155Y7644249D01*
X8952932Y7662079D01*
Y7680537D01*
X8948155Y7698367D01*
X8938925Y7714353D01*
X8925873Y7727405D01*
X8909887Y7736635D01*
X8892057Y7741412D01*
D02*
G37*
G36*
X7603575D02*
X7585117D01*
X7567287Y7736635D01*
X7551301Y7727405D01*
X7538249Y7714353D01*
X7529019Y7698367D01*
X7524242Y7680537D01*
Y7662079D01*
X7529019Y7644249D01*
X7538249Y7628263D01*
X7551301Y7615211D01*
X7567287Y7605981D01*
X7585117Y7601204D01*
X7603575D01*
X7621405Y7605981D01*
X7637391Y7615211D01*
X7650443Y7628263D01*
X7659673Y7644249D01*
X7664450Y7662079D01*
Y7680537D01*
X7659673Y7698367D01*
X7650443Y7714353D01*
X7637391Y7727405D01*
X7621405Y7736635D01*
X7603575Y7741412D01*
D02*
G37*
G36*
X595279Y7683180D02*
X583281D01*
X572196Y7678588D01*
X563712Y7670104D01*
X559120Y7659019D01*
Y7647021D01*
X563712Y7635936D01*
X572027Y7627620D01*
X563712Y7619304D01*
X559120Y7608219D01*
Y7596221D01*
X563712Y7585136D01*
X572196Y7576652D01*
X583281Y7572060D01*
X595279D01*
X606364Y7576652D01*
X614848Y7585136D01*
X619440Y7596221D01*
Y7608219D01*
X614848Y7619304D01*
X606533Y7627620D01*
X614848Y7635936D01*
X619440Y7647021D01*
Y7659019D01*
X614848Y7670104D01*
X606364Y7678588D01*
X595279Y7683180D01*
D02*
G37*
G36*
X519079D02*
X507081D01*
X495996Y7678588D01*
X487512Y7670104D01*
X482920Y7659019D01*
Y7647021D01*
X487512Y7635936D01*
X495827Y7627620D01*
X487512Y7619304D01*
X482920Y7608219D01*
Y7596221D01*
X487512Y7585136D01*
X495996Y7576652D01*
X507081Y7572060D01*
X519079D01*
X530164Y7576652D01*
X538648Y7585136D01*
X543240Y7596221D01*
Y7608219D01*
X538648Y7619304D01*
X530333Y7627620D01*
X538648Y7635936D01*
X543240Y7647021D01*
Y7659019D01*
X538648Y7670104D01*
X530164Y7678588D01*
X519079Y7683180D01*
D02*
G37*
G36*
X442879D02*
X430881D01*
X419796Y7678588D01*
X411312Y7670104D01*
X406720Y7659019D01*
Y7647021D01*
X411312Y7635936D01*
X419627Y7627620D01*
X411312Y7619304D01*
X406720Y7608219D01*
Y7596221D01*
X411312Y7585136D01*
X419796Y7576652D01*
X430881Y7572060D01*
X442879D01*
X453964Y7576652D01*
X462448Y7585136D01*
X467040Y7596221D01*
Y7608219D01*
X462448Y7619304D01*
X454133Y7627620D01*
X462448Y7635936D01*
X467040Y7647021D01*
Y7659019D01*
X462448Y7670104D01*
X453964Y7678588D01*
X442879Y7683180D01*
D02*
G37*
G36*
X8742197Y7691374D02*
X8723739D01*
X8705909Y7686597D01*
X8689923Y7677367D01*
X8676871Y7664315D01*
X8667642Y7648329D01*
X8662864Y7630499D01*
Y7612041D01*
X8667642Y7594211D01*
X8676871Y7578225D01*
X8689923Y7565173D01*
X8705909Y7555943D01*
X8723739Y7551166D01*
X8742197D01*
X8760027Y7555943D01*
X8776013Y7565173D01*
X8789065Y7578225D01*
X8798295Y7594211D01*
X8803072Y7612041D01*
Y7630499D01*
X8798295Y7648329D01*
X8789065Y7664315D01*
X8776013Y7677367D01*
X8760027Y7686597D01*
X8742197Y7691374D01*
D02*
G37*
G36*
X7453715D02*
X7435257D01*
X7417427Y7686597D01*
X7401441Y7677367D01*
X7388389Y7664315D01*
X7379159Y7648329D01*
X7374382Y7630499D01*
Y7612041D01*
X7379159Y7594211D01*
X7388389Y7578225D01*
X7401441Y7565173D01*
X7417427Y7555943D01*
X7435257Y7551166D01*
X7453715D01*
X7471545Y7555943D01*
X7487531Y7565173D01*
X7500583Y7578225D01*
X7509813Y7594211D01*
X7514590Y7612041D01*
Y7630499D01*
X7509813Y7648329D01*
X7500583Y7664315D01*
X7487531Y7677367D01*
X7471545Y7686597D01*
X7453715Y7691374D01*
D02*
G37*
G36*
X8357519Y7568880D02*
X8345521D01*
X8334436Y7564288D01*
X8325952Y7555804D01*
X8321360Y7544719D01*
Y7532721D01*
X8325952Y7521636D01*
X8334436Y7513152D01*
X8345521Y7508560D01*
X8357519D01*
X8368604Y7513152D01*
X8377088Y7521636D01*
X8381680Y7532721D01*
Y7544719D01*
X8377088Y7555804D01*
X8368604Y7564288D01*
X8357519Y7568880D01*
D02*
G37*
G36*
X9522707Y7560588D02*
X9510708D01*
X9499623Y7555996D01*
X9491139Y7547512D01*
X9486548Y7536427D01*
Y7524428D01*
X9491139Y7513343D01*
X9499623Y7504859D01*
X9510708Y7500268D01*
X9522707D01*
X9533792Y7504859D01*
X9542276Y7513343D01*
X9546868Y7524428D01*
Y7536427D01*
X9542276Y7547512D01*
X9533792Y7555996D01*
X9522707Y7560588D01*
D02*
G37*
G36*
X10160919Y7600183D02*
X10148921D01*
X10137836Y7595591D01*
X10129352Y7587107D01*
X10124760Y7576022D01*
Y7564024D01*
X10129352Y7552939D01*
X10130321Y7551970D01*
X10137189Y7543673D01*
X10130321Y7535376D01*
X10129352Y7534407D01*
X10124760Y7523322D01*
Y7511324D01*
X10129352Y7500239D01*
X10137836Y7491755D01*
X10148921Y7487163D01*
X10160919D01*
X10172004Y7491755D01*
X10180488Y7500239D01*
X10185080Y7511324D01*
Y7523322D01*
X10180488Y7534407D01*
X10179519Y7535376D01*
X10172651Y7543673D01*
X10179519Y7551970D01*
X10180488Y7552939D01*
X10185080Y7564024D01*
Y7576022D01*
X10180488Y7587107D01*
X10172004Y7595591D01*
X10160919Y7600183D01*
D02*
G37*
G36*
X9781790Y7457120D02*
X9769791D01*
X9758706Y7452528D01*
X9757737Y7451559D01*
X9749440Y7444691D01*
X9741144Y7451559D01*
X9740175Y7452528D01*
X9729090Y7457120D01*
X9717091D01*
X9706006Y7452528D01*
X9697522Y7444044D01*
X9692931Y7432959D01*
Y7420961D01*
X9697522Y7409876D01*
X9706006Y7401392D01*
X9717091Y7396800D01*
X9729090D01*
X9740175Y7401392D01*
X9741144Y7402361D01*
X9749440Y7409229D01*
X9757737Y7402361D01*
X9758706Y7401392D01*
X9769791Y7396800D01*
X9781790D01*
X9792875Y7401392D01*
X9801359Y7409876D01*
X9805950Y7420961D01*
Y7432959D01*
X9801359Y7444044D01*
X9792875Y7452528D01*
X9781790Y7457120D01*
D02*
G37*
G36*
X10447939Y7477440D02*
X10435941D01*
X10424856Y7472848D01*
X10416372Y7464364D01*
X10411780Y7453279D01*
Y7453269D01*
X10409362Y7441536D01*
X10397364Y7441535D01*
X10386279Y7436944D01*
X10377795Y7428460D01*
X10373204Y7417375D01*
Y7405376D01*
X10377795Y7394291D01*
X10386279Y7385807D01*
X10397364Y7381215D01*
X10409363D01*
X10420448Y7385807D01*
X10428932Y7394291D01*
X10433523Y7405376D01*
Y7405387D01*
X10435941Y7417120D01*
X10447939Y7417120D01*
X10459024Y7421712D01*
X10467508Y7430196D01*
X10472100Y7441281D01*
Y7453279D01*
X10467508Y7464364D01*
X10459024Y7472848D01*
X10447939Y7477440D01*
D02*
G37*
G36*
X9134759Y7439340D02*
X9122761D01*
X9111676Y7434748D01*
X9103192Y7426264D01*
X9098600Y7415179D01*
Y7403181D01*
X9103192Y7392096D01*
X9107105Y7388182D01*
X9110272Y7379970D01*
X9107105Y7371758D01*
X9103192Y7367844D01*
X9098600Y7356759D01*
Y7344761D01*
X9103192Y7333676D01*
X9107105Y7329762D01*
X9110272Y7321550D01*
X9107105Y7313338D01*
X9103192Y7309424D01*
X9098600Y7298339D01*
Y7286341D01*
X9103192Y7275256D01*
X9111676Y7266772D01*
X9122761Y7262180D01*
X9134759D01*
X9145844Y7266772D01*
X9154328Y7275256D01*
X9158920Y7286341D01*
Y7298339D01*
X9154328Y7309424D01*
X9150415Y7313338D01*
X9147248Y7321550D01*
X9150415Y7329762D01*
X9154328Y7333676D01*
X9158920Y7344761D01*
Y7356759D01*
X9154328Y7367844D01*
X9150415Y7371758D01*
X9147248Y7379970D01*
X9150415Y7388182D01*
X9154328Y7392096D01*
X9158920Y7403181D01*
Y7415179D01*
X9154328Y7426264D01*
X9145844Y7434748D01*
X9134759Y7439340D01*
D02*
G37*
G36*
X7961279Y7436800D02*
X7949281D01*
X7938196Y7432208D01*
X7929712Y7423724D01*
X7925120Y7412639D01*
Y7400641D01*
X7929712Y7389556D01*
X7933625Y7385642D01*
X7936792Y7377430D01*
X7933625Y7369218D01*
X7929712Y7365304D01*
X7925120Y7354219D01*
Y7342221D01*
X7929712Y7331136D01*
X7933625Y7327222D01*
X7936792Y7319010D01*
X7933625Y7310798D01*
X7929712Y7306884D01*
X7925120Y7295799D01*
Y7283801D01*
X7929712Y7272716D01*
X7938196Y7264232D01*
X7949281Y7259640D01*
X7961279D01*
X7972364Y7264232D01*
X7980848Y7272716D01*
X7985440Y7283801D01*
Y7295799D01*
X7980848Y7306884D01*
X7976935Y7310798D01*
X7973768Y7319010D01*
X7976935Y7327222D01*
X7980848Y7331136D01*
X7985440Y7342221D01*
Y7354219D01*
X7980848Y7365304D01*
X7976935Y7369218D01*
X7973768Y7377430D01*
X7976935Y7385642D01*
X7980848Y7389556D01*
X7985440Y7400641D01*
Y7412639D01*
X7980848Y7423724D01*
X7972364Y7432208D01*
X7961279Y7436800D01*
D02*
G37*
G36*
X7880949Y6992300D02*
X7868951D01*
X7857866Y6987708D01*
X7856897Y6986739D01*
X7848600Y6979871D01*
X7840303Y6986739D01*
X7839334Y6987708D01*
X7828249Y6992300D01*
X7816251D01*
X7805166Y6987708D01*
X7796682Y6979224D01*
X7792090Y6968139D01*
Y6956141D01*
X7796682Y6945056D01*
X7805166Y6936572D01*
X7816251Y6931980D01*
X7828249D01*
X7839334Y6936572D01*
X7840303Y6937541D01*
X7848600Y6944409D01*
X7856897Y6937541D01*
X7857866Y6936572D01*
X7868951Y6931980D01*
X7880949D01*
X7892034Y6936572D01*
X7900518Y6945056D01*
X7905110Y6956141D01*
Y6968139D01*
X7900518Y6979224D01*
X7892034Y6987708D01*
X7880949Y6992300D01*
D02*
G37*
G36*
X9633549D02*
X9621551D01*
X9610466Y6987708D01*
X9609497Y6986739D01*
X9601200Y6979871D01*
X9592903Y6986739D01*
X9591934Y6987708D01*
X9580849Y6992300D01*
X9568851D01*
X9557766Y6987708D01*
X9549282Y6979224D01*
X9544690Y6968139D01*
Y6956141D01*
X9549282Y6945056D01*
X9557766Y6936572D01*
X9568851Y6931980D01*
X9580849D01*
X9591934Y6936572D01*
X9592903Y6937541D01*
X9601200Y6944409D01*
X9609497Y6937541D01*
X9610466Y6936572D01*
X9621551Y6931980D01*
X9633549D01*
X9644634Y6936572D01*
X9653118Y6945056D01*
X9657710Y6956141D01*
Y6968139D01*
X9653118Y6979224D01*
X9644634Y6987708D01*
X9633549Y6992300D01*
D02*
G37*
G36*
X9944622Y6921435D02*
X9932624D01*
X9921538Y6916844D01*
X9913054Y6908360D01*
X9908463Y6897275D01*
Y6885276D01*
X9913054Y6874191D01*
X9921538Y6865707D01*
X9932624Y6861116D01*
X9944622D01*
X9955707Y6865707D01*
X9964191Y6874191D01*
X9968783Y6885276D01*
Y6897275D01*
X9964191Y6908360D01*
X9955707Y6916844D01*
X9944622Y6921435D01*
D02*
G37*
G36*
X8179719Y6921180D02*
X8167721D01*
X8156636Y6916588D01*
X8148152Y6908104D01*
X8143560Y6897019D01*
Y6885021D01*
X8148152Y6873936D01*
X8156636Y6865452D01*
X8167721Y6860860D01*
X8179719D01*
X8190804Y6865452D01*
X8199288Y6873936D01*
X8203880Y6885021D01*
Y6897019D01*
X8199288Y6908104D01*
X8190804Y6916588D01*
X8179719Y6921180D01*
D02*
G37*
G36*
X996599Y6837360D02*
X984601D01*
X973516Y6832768D01*
X965200Y6824453D01*
X956884Y6832768D01*
X945799Y6837360D01*
X933801D01*
X922716Y6832768D01*
X914232Y6824284D01*
X909640Y6813199D01*
Y6801201D01*
X914232Y6790116D01*
X922716Y6781632D01*
X933801Y6777040D01*
X945799D01*
X956884Y6781632D01*
X965200Y6789947D01*
X973516Y6781632D01*
X984601Y6777040D01*
X996599D01*
X1007684Y6781632D01*
X1016168Y6790116D01*
X1020760Y6801201D01*
Y6813199D01*
X1016168Y6824284D01*
X1007684Y6832768D01*
X996599Y6837360D01*
D02*
G37*
G36*
X9447179Y6864580D02*
X9435181D01*
X9424096Y6859988D01*
X9415612Y6851504D01*
X9411020Y6840419D01*
Y6828421D01*
X9415612Y6817336D01*
X9424096Y6808852D01*
X9435181Y6804260D01*
X9447179D01*
X9458264Y6808852D01*
X9466748Y6817336D01*
X9471340Y6828421D01*
Y6840419D01*
X9466748Y6851504D01*
X9458264Y6859988D01*
X9447179Y6864580D01*
D02*
G37*
G36*
X9340499D02*
X9328501D01*
X9317416Y6859988D01*
X9308932Y6851504D01*
X9304340Y6840419D01*
Y6828421D01*
X9308932Y6817336D01*
X9317416Y6808852D01*
X9328501Y6804260D01*
X9340499D01*
X9351584Y6808852D01*
X9360068Y6817336D01*
X9364660Y6828421D01*
Y6840419D01*
X9360068Y6851504D01*
X9351584Y6859988D01*
X9340499Y6864580D01*
D02*
G37*
G36*
X7694579D02*
X7682581D01*
X7671496Y6859988D01*
X7663012Y6851504D01*
X7658420Y6840419D01*
Y6828421D01*
X7663012Y6817336D01*
X7671496Y6808852D01*
X7682581Y6804260D01*
X7694579D01*
X7705664Y6808852D01*
X7714148Y6817336D01*
X7718740Y6828421D01*
Y6840419D01*
X7714148Y6851504D01*
X7705664Y6859988D01*
X7694579Y6864580D01*
D02*
G37*
G36*
X7585359D02*
X7573361D01*
X7562276Y6859988D01*
X7553792Y6851504D01*
X7549200Y6840419D01*
Y6828421D01*
X7553792Y6817336D01*
X7562276Y6808852D01*
X7573361Y6804260D01*
X7585359D01*
X7596444Y6808852D01*
X7604928Y6817336D01*
X7609520Y6828421D01*
Y6840419D01*
X7604928Y6851504D01*
X7596444Y6859988D01*
X7585359Y6864580D01*
D02*
G37*
G36*
X6643019Y6899270D02*
X6631021D01*
X6619936Y6894678D01*
X6611452Y6886194D01*
X6606860Y6875109D01*
Y6863111D01*
X6611452Y6852026D01*
X6612421Y6851057D01*
X6619289Y6842760D01*
X6612421Y6834463D01*
X6611452Y6833494D01*
X6606860Y6822409D01*
Y6810411D01*
X6611452Y6799326D01*
X6619936Y6790842D01*
X6631021Y6786250D01*
X6643019D01*
X6654104Y6790842D01*
X6662588Y6799326D01*
X6667180Y6810411D01*
Y6822409D01*
X6662588Y6833494D01*
X6661619Y6834463D01*
X6654751Y6842760D01*
X6661619Y6851057D01*
X6662588Y6852026D01*
X6667180Y6863111D01*
Y6875109D01*
X6662588Y6886194D01*
X6654104Y6894678D01*
X6643019Y6899270D01*
D02*
G37*
G36*
X996599Y6761160D02*
X984601D01*
X973516Y6756568D01*
X965200Y6748253D01*
X956884Y6756568D01*
X945799Y6761160D01*
X933801D01*
X922716Y6756568D01*
X914232Y6748084D01*
X909640Y6736999D01*
Y6725001D01*
X914232Y6713916D01*
X922716Y6705432D01*
X933801Y6700840D01*
X945799D01*
X956884Y6705432D01*
X965200Y6713747D01*
X973516Y6705432D01*
X984601Y6700840D01*
X996599D01*
X1007684Y6705432D01*
X1016168Y6713916D01*
X1020760Y6725001D01*
Y6736999D01*
X1016168Y6748084D01*
X1007684Y6756568D01*
X996599Y6761160D01*
D02*
G37*
G36*
X2962559Y6794180D02*
X2950561D01*
X2939476Y6789588D01*
X2930992Y6781104D01*
X2926400Y6770019D01*
Y6758021D01*
X2930992Y6746936D01*
X2939476Y6738452D01*
X2950561Y6733860D01*
X2962559D01*
X2973644Y6738452D01*
X2982128Y6746936D01*
X2986720Y6758021D01*
Y6770019D01*
X2982128Y6781104D01*
X2973644Y6789588D01*
X2962559Y6794180D01*
D02*
G37*
G36*
X2833019D02*
X2821021D01*
X2809936Y6789588D01*
X2801452Y6781104D01*
X2796860Y6770019D01*
Y6758021D01*
X2801452Y6746936D01*
X2809936Y6738452D01*
X2821021Y6733860D01*
X2833019D01*
X2844104Y6738452D01*
X2852588Y6746936D01*
X2857180Y6758021D01*
Y6770019D01*
X2852588Y6781104D01*
X2844104Y6789588D01*
X2833019Y6794180D01*
D02*
G37*
G36*
X2708559D02*
X2696561D01*
X2685476Y6789588D01*
X2676992Y6781104D01*
X2672400Y6770019D01*
Y6758021D01*
X2676992Y6746936D01*
X2685476Y6738452D01*
X2696561Y6733860D01*
X2708559D01*
X2719644Y6738452D01*
X2728128Y6746936D01*
X2732720Y6758021D01*
Y6770019D01*
X2728128Y6781104D01*
X2719644Y6789588D01*
X2708559Y6794180D01*
D02*
G37*
G36*
X9954101Y6735760D02*
X9942103D01*
X9931018Y6731168D01*
X9922534Y6722684D01*
X9917942Y6711599D01*
Y6699601D01*
X9922534Y6688516D01*
X9931018Y6680032D01*
X9942103Y6675440D01*
X9954101D01*
X9965186Y6680032D01*
X9973670Y6688516D01*
X9978262Y6699601D01*
Y6711599D01*
X9973670Y6722684D01*
X9965186Y6731168D01*
X9954101Y6735760D01*
D02*
G37*
G36*
X8201501D02*
X8189503D01*
X8178418Y6731168D01*
X8169934Y6722684D01*
X8165342Y6711599D01*
Y6699601D01*
X8169934Y6688516D01*
X8178418Y6680032D01*
X8189503Y6675440D01*
X8201501D01*
X8212586Y6680032D01*
X8221070Y6688516D01*
X8225662Y6699601D01*
Y6711599D01*
X8221070Y6722684D01*
X8212586Y6731168D01*
X8201501Y6735760D01*
D02*
G37*
G36*
X996599Y6684960D02*
X984601D01*
X973516Y6680368D01*
X965200Y6672053D01*
X956884Y6680368D01*
X945799Y6684960D01*
X933801D01*
X922716Y6680368D01*
X914232Y6671884D01*
X909640Y6660799D01*
Y6648801D01*
X914232Y6637716D01*
X922716Y6629232D01*
X933801Y6624640D01*
X945799D01*
X956884Y6629232D01*
X965200Y6637547D01*
X973516Y6629232D01*
X984601Y6624640D01*
X996599D01*
X1007684Y6629232D01*
X1016168Y6637716D01*
X1020760Y6648801D01*
Y6660799D01*
X1016168Y6671884D01*
X1007684Y6680368D01*
X996599Y6684960D01*
D02*
G37*
G36*
X7003699Y6768223D02*
X6991701D01*
X6980616Y6763632D01*
X6972132Y6755148D01*
X6967540Y6744063D01*
Y6732064D01*
X6972132Y6720979D01*
X6973101Y6720010D01*
X6979969Y6711714D01*
X6973101Y6703417D01*
X6972132Y6702448D01*
X6967540Y6691363D01*
Y6679364D01*
X6972132Y6668279D01*
X6980616Y6659795D01*
X6991701Y6655204D01*
X7003699D01*
X7014784Y6659795D01*
X7023268Y6668279D01*
X7027860Y6679364D01*
Y6691363D01*
X7023268Y6702448D01*
X7022299Y6703417D01*
X7015431Y6711714D01*
X7022299Y6720010D01*
X7023268Y6720979D01*
X7027860Y6732064D01*
Y6744063D01*
X7023268Y6755148D01*
X7014784Y6763632D01*
X7003699Y6768223D01*
D02*
G37*
G36*
X8944257Y6697660D02*
X8932259D01*
X8921174Y6693068D01*
X8912690Y6684584D01*
X8908098Y6673499D01*
Y6661501D01*
X8912690Y6650416D01*
X8921174Y6641932D01*
X8932259Y6637340D01*
X8944257D01*
X8955343Y6641932D01*
X8963827Y6650416D01*
X8968418Y6661501D01*
Y6673499D01*
X8963827Y6684584D01*
X8955343Y6693068D01*
X8944257Y6697660D01*
D02*
G37*
G36*
X7191657D02*
X7179659D01*
X7168574Y6693068D01*
X7160090Y6684584D01*
X7155498Y6673499D01*
Y6661501D01*
X7160090Y6650416D01*
X7168574Y6641932D01*
X7179659Y6637340D01*
X7191657D01*
X7202743Y6641932D01*
X7211227Y6650416D01*
X7215818Y6661501D01*
Y6673499D01*
X7211227Y6684584D01*
X7202743Y6693068D01*
X7191657Y6697660D01*
D02*
G37*
G36*
X7718389Y6608760D02*
X7706391D01*
X7695306Y6604168D01*
X7694337Y6603199D01*
X7686040Y6596331D01*
X7677743Y6603199D01*
X7676774Y6604168D01*
X7665689Y6608760D01*
X7653691D01*
X7642606Y6604168D01*
X7634122Y6595684D01*
X7629530Y6584599D01*
Y6572601D01*
X7634122Y6561516D01*
X7642606Y6553032D01*
X7653691Y6548440D01*
X7665689D01*
X7676774Y6553032D01*
X7677743Y6554001D01*
X7686040Y6560869D01*
X7694337Y6554001D01*
X7695306Y6553032D01*
X7706391Y6548440D01*
X7718389D01*
X7729474Y6553032D01*
X7737958Y6561516D01*
X7742550Y6572601D01*
Y6584599D01*
X7737958Y6595684D01*
X7729474Y6604168D01*
X7718389Y6608760D01*
D02*
G37*
G36*
X9470989D02*
X9458991D01*
X9447906Y6604168D01*
X9446937Y6603199D01*
X9438640Y6596331D01*
X9430343Y6603199D01*
X9429374Y6604168D01*
X9418289Y6608760D01*
X9406291D01*
X9395206Y6604168D01*
X9386722Y6595684D01*
X9382130Y6584599D01*
Y6572601D01*
X9386722Y6561516D01*
X9395206Y6553032D01*
X9406291Y6548440D01*
X9418289D01*
X9429374Y6553032D01*
X9430343Y6554001D01*
X9438640Y6560869D01*
X9446937Y6554001D01*
X9447906Y6553032D01*
X9458991Y6548440D01*
X9470989D01*
X9482074Y6553032D01*
X9490558Y6561516D01*
X9495150Y6572601D01*
Y6584599D01*
X9490558Y6595684D01*
X9482074Y6604168D01*
X9470989Y6608760D01*
D02*
G37*
G36*
X234599Y6481760D02*
X222601D01*
X211516Y6477168D01*
X203200Y6468853D01*
X194884Y6477168D01*
X183799Y6481760D01*
X171801D01*
X160716Y6477168D01*
X152232Y6468684D01*
X147640Y6457599D01*
Y6445601D01*
X152232Y6434516D01*
X160547Y6426200D01*
X152232Y6417884D01*
X147640Y6406799D01*
Y6394801D01*
X152232Y6383716D01*
X160716Y6375232D01*
X171801Y6370640D01*
X183799D01*
X194884Y6375232D01*
X203200Y6383547D01*
X211516Y6375232D01*
X222601Y6370640D01*
X234599D01*
X245684Y6375232D01*
X254168Y6383716D01*
X258760Y6394801D01*
Y6406799D01*
X254168Y6417884D01*
X245853Y6426200D01*
X254168Y6434516D01*
X258760Y6445601D01*
Y6457599D01*
X254168Y6468684D01*
X245684Y6477168D01*
X234599Y6481760D01*
D02*
G37*
G36*
X9921446Y6522400D02*
X9909448D01*
X9898363Y6517808D01*
X9889879Y6509324D01*
X9885287Y6498239D01*
Y6486241D01*
X9889879Y6475156D01*
X9898363Y6466672D01*
X9909448Y6462080D01*
X9921446D01*
X9932531Y6466672D01*
X9941015Y6475156D01*
X9945607Y6486241D01*
Y6498239D01*
X9941015Y6509324D01*
X9932531Y6517808D01*
X9921446Y6522400D01*
D02*
G37*
G36*
X8168846D02*
X8156848D01*
X8145763Y6517808D01*
X8137279Y6509324D01*
X8132687Y6498239D01*
Y6486241D01*
X8137279Y6475156D01*
X8145763Y6466672D01*
X8156848Y6462080D01*
X8168846D01*
X8179931Y6466672D01*
X8188415Y6475156D01*
X8193007Y6486241D01*
Y6498239D01*
X8188415Y6509324D01*
X8179931Y6517808D01*
X8168846Y6522400D01*
D02*
G37*
G36*
X8812179Y6563990D02*
X8800181D01*
X8789096Y6559398D01*
X8780612Y6550914D01*
X8776020Y6539829D01*
Y6527831D01*
X8780612Y6516746D01*
X8781581Y6515777D01*
X8788449Y6507480D01*
X8781581Y6499183D01*
X8780612Y6498214D01*
X8776020Y6487129D01*
Y6475131D01*
X8780612Y6464046D01*
X8789096Y6455562D01*
X8800181Y6450970D01*
X8812179D01*
X8823264Y6455562D01*
X8831748Y6464046D01*
X8836340Y6475131D01*
Y6487129D01*
X8831748Y6498214D01*
X8830779Y6499183D01*
X8823911Y6507480D01*
X8830779Y6515777D01*
X8831748Y6516746D01*
X8836340Y6527831D01*
Y6539829D01*
X8831748Y6550914D01*
X8823264Y6559398D01*
X8812179Y6563990D01*
D02*
G37*
G36*
X7059579D02*
X7047581D01*
X7036496Y6559398D01*
X7028012Y6550914D01*
X7023420Y6539829D01*
Y6527831D01*
X7028012Y6516746D01*
X7028981Y6515777D01*
X7035849Y6507480D01*
X7028981Y6499183D01*
X7028012Y6498214D01*
X7023420Y6487129D01*
Y6475131D01*
X7028012Y6464046D01*
X7036496Y6455562D01*
X7047581Y6450970D01*
X7059579D01*
X7070664Y6455562D01*
X7079148Y6464046D01*
X7083740Y6475131D01*
Y6487129D01*
X7079148Y6498214D01*
X7078179Y6499183D01*
X7071311Y6507480D01*
X7078179Y6515777D01*
X7079148Y6516746D01*
X7083740Y6527831D01*
Y6539829D01*
X7079148Y6550914D01*
X7070664Y6559398D01*
X7059579Y6563990D01*
D02*
G37*
G36*
X5425353Y6539636D02*
X5406879D01*
X5389035Y6534855D01*
X5373037Y6525618D01*
X5359974Y6512555D01*
X5350737Y6496557D01*
X5345956Y6478713D01*
Y6460239D01*
X5350737Y6442395D01*
X5359974Y6426397D01*
X5373037Y6413334D01*
X5389035Y6404097D01*
X5406879Y6399316D01*
X5425353D01*
X5443197Y6404097D01*
X5459195Y6413334D01*
X5472258Y6426397D01*
X5481494Y6442395D01*
X5486276Y6460239D01*
Y6478713D01*
X5481494Y6496557D01*
X5472258Y6512555D01*
X5459195Y6525618D01*
X5443197Y6534855D01*
X5425353Y6539636D01*
D02*
G37*
G36*
X1625353D02*
X1606879D01*
X1589035Y6534855D01*
X1573037Y6525618D01*
X1559974Y6512555D01*
X1550737Y6496557D01*
X1545956Y6478713D01*
Y6460239D01*
X1550737Y6442395D01*
X1559974Y6426397D01*
X1573037Y6413334D01*
X1589035Y6404097D01*
X1606879Y6399316D01*
X1625353D01*
X1643197Y6404097D01*
X1659195Y6413334D01*
X1672258Y6426397D01*
X1681494Y6442395D01*
X1686276Y6460239D01*
Y6478713D01*
X1681494Y6496557D01*
X1672258Y6512555D01*
X1659195Y6525618D01*
X1643197Y6534855D01*
X1625353Y6539636D01*
D02*
G37*
G36*
X9921446Y6415720D02*
X9909448D01*
X9898363Y6411128D01*
X9889879Y6402644D01*
X9885287Y6391559D01*
Y6379561D01*
X9889879Y6368476D01*
X9898363Y6359992D01*
X9909448Y6355400D01*
X9921446D01*
X9932531Y6359992D01*
X9941015Y6368476D01*
X9945607Y6379561D01*
Y6391559D01*
X9941015Y6402644D01*
X9932531Y6411128D01*
X9921446Y6415720D01*
D02*
G37*
G36*
X8168846D02*
X8156848D01*
X8145763Y6411128D01*
X8137279Y6402644D01*
X8132687Y6391559D01*
Y6379561D01*
X8137279Y6368476D01*
X8145763Y6359992D01*
X8156848Y6355400D01*
X8168846D01*
X8179931Y6359992D01*
X8188415Y6368476D01*
X8193007Y6379561D01*
Y6391559D01*
X8188415Y6402644D01*
X8179931Y6411128D01*
X8168846Y6415720D01*
D02*
G37*
G36*
X8944257Y6377620D02*
X8932259D01*
X8921174Y6373028D01*
X8912690Y6364544D01*
X8908098Y6353459D01*
Y6341461D01*
X8912690Y6330376D01*
X8921174Y6321892D01*
X8932259Y6317300D01*
X8944257D01*
X8955343Y6321892D01*
X8963827Y6330376D01*
X8968418Y6341461D01*
Y6353459D01*
X8963827Y6364544D01*
X8955343Y6373028D01*
X8944257Y6377620D01*
D02*
G37*
G36*
X7191657D02*
X7179659D01*
X7168574Y6373028D01*
X7160090Y6364544D01*
X7155498Y6353459D01*
Y6341461D01*
X7160090Y6330376D01*
X7168574Y6321892D01*
X7179659Y6317300D01*
X7191657D01*
X7202743Y6321892D01*
X7211227Y6330376D01*
X7215818Y6341461D01*
Y6353459D01*
X7211227Y6364544D01*
X7202743Y6373028D01*
X7191657Y6377620D01*
D02*
G37*
G36*
X9810710Y6247780D02*
X9798711D01*
X9787626Y6243188D01*
X9779142Y6234704D01*
X9774550Y6223619D01*
Y6211621D01*
X9779142Y6200536D01*
X9787626Y6192052D01*
X9798711Y6187460D01*
X9810710D01*
X9821795Y6192052D01*
X9830279Y6200536D01*
X9834870Y6211621D01*
Y6223619D01*
X9830279Y6234704D01*
X9821795Y6243188D01*
X9810710Y6247780D01*
D02*
G37*
G36*
X8067959Y6237920D02*
X8055961D01*
X8044876Y6233328D01*
X8036392Y6224844D01*
X8031800Y6213759D01*
Y6201761D01*
X8036392Y6190676D01*
X8044876Y6182192D01*
X8055961Y6177600D01*
X8067959D01*
X8079044Y6182192D01*
X8087528Y6190676D01*
X8092120Y6201761D01*
Y6213759D01*
X8087528Y6224844D01*
X8079044Y6233328D01*
X8067959Y6237920D01*
D02*
G37*
G36*
X8812172Y6243950D02*
X8800174D01*
X8789089Y6239358D01*
X8780605Y6230874D01*
X8776013Y6219789D01*
Y6207791D01*
X8780605Y6196706D01*
X8781574Y6195737D01*
X8788442Y6187440D01*
X8781574Y6179143D01*
X8780605Y6178174D01*
X8776013Y6167089D01*
Y6155091D01*
X8780605Y6144006D01*
X8789089Y6135522D01*
X8800174Y6130930D01*
X8812172D01*
X8823257Y6135522D01*
X8831742Y6144006D01*
X8836333Y6155091D01*
Y6167089D01*
X8831742Y6178174D01*
X8830773Y6179143D01*
X8823905Y6187440D01*
X8830773Y6195737D01*
X8831742Y6196706D01*
X8836333Y6207791D01*
Y6219789D01*
X8831742Y6230874D01*
X8823257Y6239358D01*
X8812172Y6243950D01*
D02*
G37*
G36*
X7059572D02*
X7047574D01*
X7036489Y6239358D01*
X7028005Y6230874D01*
X7023413Y6219789D01*
Y6207791D01*
X7028005Y6196706D01*
X7028974Y6195737D01*
X7035842Y6187440D01*
X7028974Y6179143D01*
X7028005Y6178174D01*
X7023413Y6167089D01*
Y6155091D01*
X7028005Y6144006D01*
X7036489Y6135522D01*
X7047574Y6130930D01*
X7059572D01*
X7070657Y6135522D01*
X7079142Y6144006D01*
X7083733Y6155091D01*
Y6167089D01*
X7079142Y6178174D01*
X7078173Y6179143D01*
X7071305Y6187440D01*
X7078173Y6195737D01*
X7079142Y6196706D01*
X7083733Y6207791D01*
Y6219789D01*
X7079142Y6230874D01*
X7070657Y6239358D01*
X7059572Y6243950D01*
D02*
G37*
G36*
X547019Y6143940D02*
X535021D01*
X523936Y6139348D01*
X515452Y6130865D01*
X511310Y6130013D01*
X501366Y6130046D01*
X494604Y6136808D01*
X483519Y6141400D01*
X471521D01*
X460436Y6136808D01*
X452930Y6129302D01*
X445770Y6128778D01*
X438610Y6129302D01*
X431104Y6136808D01*
X420019Y6141400D01*
X408021D01*
X396936Y6136808D01*
X388452Y6128324D01*
X387873Y6126928D01*
X374127D01*
X373548Y6128324D01*
X365064Y6136808D01*
X353979Y6141400D01*
X341981D01*
X330896Y6136808D01*
X322412Y6128324D01*
X317820Y6117239D01*
Y6105241D01*
X322412Y6094156D01*
X330896Y6085672D01*
X341981Y6081080D01*
X353979D01*
X365064Y6085672D01*
X373548Y6094156D01*
X374127Y6095552D01*
X387873D01*
X388452Y6094156D01*
X396936Y6085672D01*
X408021Y6081080D01*
X420019D01*
X431104Y6085672D01*
X438610Y6093178D01*
X445770Y6093702D01*
X452930Y6093178D01*
X460436Y6085672D01*
X471521Y6081080D01*
X483519D01*
X494604Y6085672D01*
X503088Y6094155D01*
X507230Y6095007D01*
X517174Y6094974D01*
X523936Y6088212D01*
X535021Y6083620D01*
X547019D01*
X558104Y6088212D01*
X566588Y6096696D01*
X571180Y6107781D01*
Y6119779D01*
X566588Y6130864D01*
X558104Y6139348D01*
X547019Y6143940D01*
D02*
G37*
G36*
X9228739Y6234130D02*
X9216741D01*
X9205656Y6229538D01*
X9197172Y6221054D01*
X9192580Y6209969D01*
Y6197971D01*
X9197172Y6186886D01*
X9198141Y6185917D01*
X9205009Y6177620D01*
X9198141Y6169323D01*
X9197172Y6168354D01*
X9192580Y6157269D01*
Y6145271D01*
X9197172Y6134186D01*
X9205656Y6125702D01*
X9216741Y6121110D01*
X9228739D01*
X9239824Y6125702D01*
X9248308Y6134186D01*
X9252900Y6145271D01*
Y6157269D01*
X9248308Y6168354D01*
X9247339Y6169323D01*
X9240471Y6177620D01*
X9247339Y6185917D01*
X9248308Y6186886D01*
X9252900Y6197971D01*
Y6209969D01*
X9248308Y6221054D01*
X9239824Y6229538D01*
X9228739Y6234130D01*
D02*
G37*
G36*
X7476139D02*
X7464141D01*
X7453056Y6229538D01*
X7444572Y6221054D01*
X7439980Y6209969D01*
Y6197971D01*
X7444572Y6186886D01*
X7445541Y6185917D01*
X7452409Y6177620D01*
X7445541Y6169323D01*
X7444572Y6168354D01*
X7439980Y6157269D01*
Y6145271D01*
X7444572Y6134186D01*
X7453056Y6125702D01*
X7464141Y6121110D01*
X7476139D01*
X7487224Y6125702D01*
X7495708Y6134186D01*
X7500300Y6145271D01*
Y6157269D01*
X7495708Y6168354D01*
X7494739Y6169323D01*
X7487871Y6177620D01*
X7494739Y6185917D01*
X7495708Y6186886D01*
X7500300Y6197971D01*
Y6209969D01*
X7495708Y6221054D01*
X7487224Y6229538D01*
X7476139Y6234130D01*
D02*
G37*
G36*
X9625014Y6159031D02*
X9613015D01*
X9601930Y6154440D01*
X9593446Y6145956D01*
X9588855Y6134871D01*
Y6122872D01*
X9593446Y6111787D01*
X9601930Y6103303D01*
X9613015Y6098711D01*
X9625014D01*
X9636099Y6103303D01*
X9644583Y6111787D01*
X9649175Y6122872D01*
Y6134871D01*
X9644583Y6145956D01*
X9636099Y6154440D01*
X9625014Y6159031D01*
D02*
G37*
G36*
X7860795Y6147705D02*
X7848796D01*
X7837711Y6143114D01*
X7829227Y6134630D01*
X7824635Y6123545D01*
Y6111546D01*
X7829227Y6100461D01*
X7837711Y6091977D01*
X7848796Y6087385D01*
X7860795D01*
X7871880Y6091977D01*
X7880364Y6100461D01*
X7884955Y6111546D01*
Y6123545D01*
X7880364Y6134630D01*
X7871880Y6143114D01*
X7860795Y6147705D01*
D02*
G37*
G36*
X9495856Y6145524D02*
X9483857D01*
X9472772Y6140933D01*
X9464288Y6132448D01*
X9459697Y6121363D01*
Y6109365D01*
X9464288Y6098280D01*
X9472772Y6089796D01*
X9483857Y6085204D01*
X9495856D01*
X9506941Y6089796D01*
X9515425Y6098280D01*
X9520017Y6109365D01*
Y6121363D01*
X9515425Y6132448D01*
X9506941Y6140933D01*
X9495856Y6145524D01*
D02*
G37*
G36*
X7743256D02*
X7731257D01*
X7720172Y6140933D01*
X7711688Y6132448D01*
X7707097Y6121363D01*
Y6109365D01*
X7711688Y6098280D01*
X7720172Y6089796D01*
X7731257Y6085204D01*
X7743256D01*
X7754341Y6089796D01*
X7762825Y6098280D01*
X7767417Y6109365D01*
Y6121363D01*
X7762825Y6132448D01*
X7754341Y6140933D01*
X7743256Y6145524D01*
D02*
G37*
G36*
X150779Y6123620D02*
X138781D01*
X127696Y6119028D01*
X119212Y6110544D01*
X114620Y6099459D01*
Y6087461D01*
X119212Y6076376D01*
X127696Y6067892D01*
X138781Y6063300D01*
X150779D01*
X161864Y6067892D01*
X170348Y6076376D01*
X174940Y6087461D01*
Y6099459D01*
X170348Y6110544D01*
X161864Y6119028D01*
X150779Y6123620D01*
D02*
G37*
G36*
X8944257Y6057580D02*
X8932259D01*
X8921174Y6052988D01*
X8912690Y6044504D01*
X8908098Y6033419D01*
Y6021421D01*
X8912690Y6010336D01*
X8921174Y6001852D01*
X8932259Y5997260D01*
X8944257D01*
X8955343Y6001852D01*
X8963827Y6010336D01*
X8968418Y6021421D01*
Y6033419D01*
X8963827Y6044504D01*
X8955343Y6052988D01*
X8944257Y6057580D01*
D02*
G37*
G36*
X7191657D02*
X7179659D01*
X7168574Y6052988D01*
X7160090Y6044504D01*
X7155498Y6033419D01*
Y6021421D01*
X7160090Y6010336D01*
X7168574Y6001852D01*
X7179659Y5997260D01*
X7191657D01*
X7202743Y6001852D01*
X7211227Y6010336D01*
X7215818Y6021421D01*
Y6033419D01*
X7211227Y6044504D01*
X7202743Y6052988D01*
X7191657Y6057580D01*
D02*
G37*
G36*
X9602952Y6023077D02*
X9590954D01*
X9579869Y6018485D01*
X9571385Y6010001D01*
X9566793Y5998916D01*
Y5986917D01*
X9571385Y5975832D01*
X9579869Y5967348D01*
X9590954Y5962757D01*
X9602952D01*
X9614037Y5967348D01*
X9622522Y5975832D01*
X9627113Y5986917D01*
Y5998916D01*
X9622522Y6010001D01*
X9614037Y6018485D01*
X9602952Y6023077D01*
D02*
G37*
G36*
X7850352D02*
X7838354D01*
X7827269Y6018485D01*
X7818785Y6010001D01*
X7814193Y5998916D01*
Y5986917D01*
X7818785Y5975832D01*
X7827269Y5967348D01*
X7838354Y5962757D01*
X7850352D01*
X7861437Y5967348D01*
X7869922Y5975832D01*
X7874513Y5986917D01*
Y5998916D01*
X7869922Y6010001D01*
X7861437Y6018485D01*
X7850352Y6023077D01*
D02*
G37*
G36*
X9495856Y6018401D02*
X9483857D01*
X9472772Y6013809D01*
X9464288Y6005325D01*
X9459697Y5994240D01*
Y5982242D01*
X9464288Y5971156D01*
X9472772Y5962672D01*
X9483857Y5958081D01*
X9495856D01*
X9506941Y5962672D01*
X9515425Y5971156D01*
X9520017Y5982242D01*
Y5994240D01*
X9515425Y6005325D01*
X9506941Y6013809D01*
X9495856Y6018401D01*
D02*
G37*
G36*
X7714695Y6007328D02*
X7702696D01*
X7691611Y6002737D01*
X7683127Y5994252D01*
X7678536Y5983167D01*
Y5971169D01*
X7683127Y5960084D01*
X7691611Y5951600D01*
X7702696Y5947008D01*
X7714695D01*
X7725780Y5951600D01*
X7734264Y5960084D01*
X7738855Y5971169D01*
Y5983167D01*
X7734264Y5994252D01*
X7725780Y6002737D01*
X7714695Y6007328D01*
D02*
G37*
G36*
X6942739Y5983920D02*
X6930741D01*
X6919656Y5979328D01*
X6911172Y5970844D01*
X6906580Y5959759D01*
Y5947761D01*
X6911172Y5936676D01*
X6911850Y5935997D01*
X6906590Y5923297D01*
X1820635Y5923297D01*
X1820632Y5923296D01*
X1820631Y5923297D01*
X1800970Y5923290D01*
X1800268Y5922999D01*
X1799535Y5923195D01*
X1760551Y5918051D01*
X1759894Y5917671D01*
X1759141Y5917770D01*
X1721161Y5907583D01*
X1720559Y5907121D01*
X1719800Y5907121D01*
X1683473Y5892066D01*
X1682937Y5891529D01*
X1682184Y5891430D01*
X1648132Y5871765D01*
X1647670Y5871163D01*
X1646937Y5870966D01*
X1615742Y5847026D01*
X1615363Y5846369D01*
X1614661Y5846078D01*
X1586856Y5818273D01*
X1586566Y5817572D01*
X1585908Y5817192D01*
X1561969Y5785998D01*
X1561772Y5785264D01*
X1561170Y5784802D01*
X1541504Y5750751D01*
X1541405Y5749998D01*
X1540868Y5749461D01*
X1525814Y5713135D01*
X1525814Y5712376D01*
X1525351Y5711773D01*
X1515165Y5673794D01*
X1515263Y5673041D01*
X1514884Y5672384D01*
X1509739Y5633399D01*
X1509936Y5632666D01*
X1509645Y5631965D01*
X1509638Y5612304D01*
X1509639Y5612302D01*
X1509638Y5612300D01*
X1509638Y4511200D01*
X1509639Y4511198D01*
X1509638Y4511196D01*
X1509645Y4491535D01*
X1509936Y4490833D01*
X1509740Y4490100D01*
X1514884Y4451116D01*
X1515264Y4450458D01*
X1515165Y4449706D01*
X1525352Y4411726D01*
X1525814Y4411124D01*
X1525814Y4410365D01*
X1540869Y4374038D01*
X1541406Y4373502D01*
X1541505Y4372749D01*
X1561170Y4338698D01*
X1561772Y4338235D01*
X1561969Y4337502D01*
X1585908Y4306307D01*
X1586566Y4305928D01*
X1586856Y4305226D01*
X1614661Y4277421D01*
X1615363Y4277131D01*
X1615742Y4276473D01*
X1646937Y4252534D01*
X1647670Y4252337D01*
X1648133Y4251735D01*
X1682184Y4232070D01*
X1682937Y4231970D01*
X1683474Y4231433D01*
X1719800Y4216379D01*
X1720559Y4216379D01*
X1721161Y4215916D01*
X1759141Y4205730D01*
X1759893Y4205829D01*
X1760551Y4205449D01*
X1799535Y4200305D01*
X1800268Y4200501D01*
X1800970Y4200210D01*
X1820631Y4200203D01*
X1820633Y4200204D01*
X1820635Y4200203D01*
X6920633Y4200203D01*
X6940297Y4200199D01*
X6940999Y4200489D01*
X6941733Y4200292D01*
X6980725Y4205419D01*
X6981384Y4205799D01*
X6982136Y4205700D01*
X7020126Y4215873D01*
X7020729Y4216336D01*
X7021489D01*
X7057825Y4231382D01*
X7058362Y4231919D01*
X7059115Y4232018D01*
X7093176Y4251680D01*
X7093638Y4252283D01*
X7094372Y4252480D01*
X7125575Y4276420D01*
X7125955Y4277078D01*
X7126656Y4277369D01*
X7154465Y4305178D01*
X7154756Y4305880D01*
X7155414Y4306260D01*
X7179355Y4337462D01*
X7179551Y4338196D01*
X7180154Y4338658D01*
X7199816Y4372719D01*
X7199915Y4373472D01*
X7200452Y4374010D01*
X7215499Y4410346D01*
Y4411106D01*
X7215961Y4411708D01*
X7226135Y4449698D01*
X7226035Y4450451D01*
X7226415Y4451109D01*
X7231542Y4490102D01*
X7231345Y4490836D01*
X7231636Y4491538D01*
X7231632Y4511202D01*
X7231632Y5612300D01*
X7231632Y5612300D01*
X7231636Y5631962D01*
X7231345Y5632663D01*
X7231542Y5633397D01*
X7226416Y5672390D01*
X7226036Y5673049D01*
X7226135Y5673801D01*
X7215961Y5711791D01*
X7215499Y5712394D01*
Y5713154D01*
X7200452Y5749490D01*
X7199915Y5750027D01*
X7199816Y5750780D01*
X7180154Y5784841D01*
X7179552Y5785304D01*
X7179355Y5786038D01*
X7155414Y5817240D01*
X7154757Y5817620D01*
X7154466Y5818322D01*
X7126657Y5846131D01*
X7125955Y5846422D01*
X7125575Y5847079D01*
X7094373Y5871020D01*
X7093639Y5871217D01*
X7093176Y5871819D01*
X7059115Y5891481D01*
X7058362Y5891580D01*
X7057825Y5892118D01*
X7021489Y5907164D01*
X7020729D01*
X7020126Y5907626D01*
X6982136Y5917800D01*
X6981383Y5917701D01*
X6980725Y5918081D01*
X6963888Y5920294D01*
X6959335Y5933702D01*
X6962308Y5936676D01*
X6966900Y5947761D01*
Y5959759D01*
X6962308Y5970844D01*
X6953824Y5979328D01*
X6942739Y5983920D01*
D02*
G37*
G36*
X10051696Y6052504D02*
X10039697D01*
X10028612Y6047912D01*
X10020128Y6039428D01*
X10015536Y6028343D01*
Y6016344D01*
X10020128Y6005259D01*
X10024634Y6000754D01*
X10020128Y5996248D01*
X10015536Y5985163D01*
Y5973164D01*
X10020128Y5962079D01*
X10027174Y5955034D01*
X10020128Y5947988D01*
X10015536Y5936903D01*
Y5924904D01*
X10020128Y5913819D01*
X10028612Y5905335D01*
X10039697Y5900744D01*
X10051696D01*
X10062781Y5905335D01*
X10071265Y5913819D01*
X10075856Y5924904D01*
Y5936903D01*
X10071265Y5947988D01*
X10064219Y5955034D01*
X10071265Y5962079D01*
X10075856Y5973164D01*
Y5985163D01*
X10071265Y5996248D01*
X10066759Y6000754D01*
X10071265Y6005259D01*
X10075856Y6016344D01*
Y6028343D01*
X10071265Y6039428D01*
X10062781Y6047912D01*
X10051696Y6052504D01*
D02*
G37*
G36*
X8944257Y5950900D02*
X8932259D01*
X8921174Y5946308D01*
X8912690Y5937824D01*
X8908098Y5926739D01*
Y5914741D01*
X8912690Y5903656D01*
X8921174Y5895172D01*
X8932259Y5890580D01*
X8944257D01*
X8955343Y5895172D01*
X8963827Y5903656D01*
X8968418Y5914741D01*
Y5926739D01*
X8963827Y5937824D01*
X8955343Y5946308D01*
X8944257Y5950900D01*
D02*
G37*
G36*
X7191657D02*
X7179659D01*
X7168574Y5946308D01*
X7160090Y5937824D01*
X7155498Y5926739D01*
Y5914741D01*
X7160090Y5903656D01*
X7168574Y5895172D01*
X7179659Y5890580D01*
X7191657D01*
X7202743Y5895172D01*
X7211227Y5903656D01*
X7215818Y5914741D01*
Y5926739D01*
X7211227Y5937824D01*
X7202743Y5946308D01*
X7191657Y5950900D01*
D02*
G37*
G36*
X8301639Y6052500D02*
X8289641D01*
X8278556Y6047908D01*
X8270072Y6039424D01*
X8265480Y6028339D01*
Y6016341D01*
X8270072Y6005256D01*
X8278387Y5996940D01*
X8270072Y5988624D01*
X8265480Y5977539D01*
Y5965541D01*
X8270072Y5954456D01*
X8271361Y5953167D01*
X8277712Y5944870D01*
X8271361Y5936573D01*
X8270072Y5935284D01*
X8265480Y5924199D01*
Y5912201D01*
X8270072Y5901116D01*
X8278556Y5892632D01*
X8289641Y5888040D01*
X8301639D01*
X8312724Y5892632D01*
X8321208Y5901116D01*
X8325800Y5912201D01*
Y5924199D01*
X8321208Y5935284D01*
X8319919Y5936573D01*
X8313568Y5944870D01*
X8319919Y5953167D01*
X8321208Y5954456D01*
X8325800Y5965541D01*
Y5977539D01*
X8321208Y5988624D01*
X8312893Y5996940D01*
X8321208Y6005256D01*
X8325800Y6016341D01*
Y6028339D01*
X8321208Y6039424D01*
X8312724Y6047908D01*
X8301639Y6052500D01*
D02*
G37*
G36*
X9500519Y5910980D02*
X9488521D01*
X9477436Y5906388D01*
X9468952Y5897904D01*
X9464360Y5886819D01*
Y5874821D01*
X9468952Y5863736D01*
X9477436Y5855252D01*
X9488521Y5850660D01*
X9500519D01*
X9511604Y5855252D01*
X9520088Y5863736D01*
X9524680Y5874821D01*
Y5886819D01*
X9520088Y5897904D01*
X9511604Y5906388D01*
X9500519Y5910980D01*
D02*
G37*
G36*
X9393423D02*
X9381424D01*
X9370339Y5906388D01*
X9361855Y5897904D01*
X9357263Y5886819D01*
Y5874821D01*
X9361855Y5863736D01*
X9370339Y5855252D01*
X9381424Y5850660D01*
X9393423D01*
X9404508Y5855252D01*
X9412992Y5863736D01*
X9417583Y5874821D01*
Y5886819D01*
X9412992Y5897904D01*
X9404508Y5906388D01*
X9393423Y5910980D01*
D02*
G37*
G36*
X9286082D02*
X9274084D01*
X9262999Y5906388D01*
X9254515Y5897904D01*
X9249923Y5886819D01*
Y5874821D01*
X9254515Y5863736D01*
X9262999Y5855252D01*
X9274084Y5850660D01*
X9286082D01*
X9297167Y5855252D01*
X9305651Y5863736D01*
X9310243Y5874821D01*
Y5886819D01*
X9305651Y5897904D01*
X9297167Y5906388D01*
X9286082Y5910980D01*
D02*
G37*
G36*
X7747919D02*
X7735921D01*
X7724836Y5906388D01*
X7716352Y5897904D01*
X7711760Y5886819D01*
Y5874821D01*
X7716352Y5863736D01*
X7724836Y5855252D01*
X7735921Y5850660D01*
X7747919D01*
X7759004Y5855252D01*
X7767488Y5863736D01*
X7772080Y5874821D01*
Y5886819D01*
X7767488Y5897904D01*
X7759004Y5906388D01*
X7747919Y5910980D01*
D02*
G37*
G36*
X7641239D02*
X7629241D01*
X7618156Y5906388D01*
X7609672Y5897904D01*
X7605080Y5886819D01*
Y5874821D01*
X7609672Y5863736D01*
X7618156Y5855252D01*
X7629241Y5850660D01*
X7641239D01*
X7652324Y5855252D01*
X7660808Y5863736D01*
X7665400Y5874821D01*
Y5886819D01*
X7660808Y5897904D01*
X7652324Y5906388D01*
X7641239Y5910980D01*
D02*
G37*
G36*
X7534559D02*
X7522561D01*
X7511476Y5906388D01*
X7502992Y5897904D01*
X7498400Y5886819D01*
Y5874821D01*
X7502992Y5863736D01*
X7511476Y5855252D01*
X7522561Y5850660D01*
X7534559D01*
X7545644Y5855252D01*
X7554128Y5863736D01*
X7558720Y5874821D01*
Y5886819D01*
X7554128Y5897904D01*
X7545644Y5906388D01*
X7534559Y5910980D01*
D02*
G37*
G36*
X9607199Y5880507D02*
X9595201D01*
X9584116Y5875916D01*
X9575632Y5867431D01*
X9571040Y5856346D01*
Y5844348D01*
X9575632Y5833263D01*
X9584116Y5824779D01*
X9595201Y5820187D01*
X9607199D01*
X9618284Y5824779D01*
X9626768Y5833263D01*
X9631360Y5844348D01*
Y5856346D01*
X9626768Y5867431D01*
X9618284Y5875916D01*
X9607199Y5880507D01*
D02*
G37*
G36*
X7855676D02*
X7843678D01*
X7832593Y5875916D01*
X7824109Y5867431D01*
X7819517Y5856346D01*
Y5844348D01*
X7824109Y5833263D01*
X7832593Y5824779D01*
X7843678Y5820187D01*
X7855676D01*
X7866761Y5824779D01*
X7875245Y5833263D01*
X7879837Y5844348D01*
Y5856346D01*
X7875245Y5867431D01*
X7866761Y5875916D01*
X7855676Y5880507D01*
D02*
G37*
G36*
X8206069Y5752780D02*
X8194071D01*
X8182986Y5748188D01*
X8182017Y5747219D01*
X8173720Y5740351D01*
X8165423Y5747219D01*
X8164454Y5748188D01*
X8153369Y5752780D01*
X8141371D01*
X8130286Y5748188D01*
X8121802Y5739704D01*
X8117210Y5728619D01*
Y5716621D01*
X8121802Y5705536D01*
X8130286Y5697052D01*
X8141371Y5692460D01*
X8153369D01*
X8164454Y5697052D01*
X8165423Y5698021D01*
X8173720Y5704889D01*
X8182017Y5698021D01*
X8182986Y5697052D01*
X8194071Y5692460D01*
X8206069D01*
X8217154Y5697052D01*
X8225638Y5705536D01*
X8230230Y5716621D01*
Y5728619D01*
X8225638Y5739704D01*
X8217154Y5748188D01*
X8206069Y5752780D01*
D02*
G37*
G36*
X7247539Y5795960D02*
X7235541D01*
X7224456Y5791368D01*
X7215972Y5782884D01*
X7211380Y5771799D01*
Y5759801D01*
X7215972Y5748716D01*
X7224456Y5740232D01*
X7235541Y5735640D01*
X7247539D01*
X7258624Y5740232D01*
X7267108Y5748716D01*
X7271700Y5759801D01*
Y5771799D01*
X7267108Y5782884D01*
X7258624Y5791368D01*
X7247539Y5795960D01*
D02*
G37*
G36*
X9262538Y5736372D02*
X9250540D01*
X9239455Y5731781D01*
X9230971Y5723296D01*
X9226379Y5712211D01*
Y5700213D01*
X9230971Y5689128D01*
X9239455Y5680644D01*
X9250540Y5676052D01*
X9262538D01*
X9273624Y5680644D01*
X9282108Y5689128D01*
X9286699Y5700213D01*
Y5712211D01*
X9282108Y5723296D01*
X9273624Y5731781D01*
X9262538Y5736372D01*
D02*
G37*
G36*
X150779Y5692540D02*
X138781D01*
X127696Y5687948D01*
X119212Y5679464D01*
X114620Y5668379D01*
Y5656381D01*
X119212Y5645296D01*
X127696Y5636812D01*
X138781Y5632220D01*
X150779D01*
X161864Y5636812D01*
X170348Y5645296D01*
X174940Y5656381D01*
Y5668379D01*
X170348Y5679464D01*
X161864Y5687948D01*
X150779Y5692540D01*
D02*
G37*
G36*
X9259219Y5591810D02*
X9247221D01*
X9236136Y5587218D01*
X9227652Y5578734D01*
X9223060Y5567649D01*
Y5555651D01*
X9227652Y5544566D01*
X9236136Y5536082D01*
X9247221Y5531490D01*
X9259219D01*
X9270304Y5536082D01*
X9278788Y5544566D01*
X9283380Y5555651D01*
Y5567649D01*
X9278788Y5578734D01*
X9270304Y5587218D01*
X9259219Y5591810D01*
D02*
G37*
G36*
X7722519Y5541960D02*
X7710521D01*
X7699436Y5537368D01*
X7690952Y5528884D01*
X7686360Y5517799D01*
Y5505801D01*
X7690952Y5494716D01*
X7699436Y5486232D01*
X7710521Y5481640D01*
X7722519D01*
X7733604Y5486232D01*
X7742088Y5494716D01*
X7746680Y5505801D01*
Y5517799D01*
X7742088Y5528884D01*
X7733604Y5537368D01*
X7722519Y5541960D01*
D02*
G37*
G36*
X8798627Y5502172D02*
X8786628D01*
X8775543Y5497581D01*
X8767059Y5489097D01*
X8762468Y5478012D01*
Y5466013D01*
X8767059Y5454928D01*
X8775543Y5446444D01*
X8786628Y5441852D01*
X8787999D01*
X8798722Y5440842D01*
X8799732Y5430119D01*
Y5428749D01*
X8804324Y5417664D01*
X8812808Y5409179D01*
X8823893Y5404588D01*
X8835891D01*
X8846976Y5409179D01*
X8855461Y5417664D01*
X8860052Y5428749D01*
Y5440747D01*
X8855461Y5451832D01*
X8846976Y5460316D01*
X8835891Y5464908D01*
X8834521D01*
X8823798Y5465918D01*
X8822788Y5476641D01*
Y5478012D01*
X8818196Y5489097D01*
X8809712Y5497581D01*
X8798627Y5502172D01*
D02*
G37*
G36*
X8243219Y5434560D02*
X8231221D01*
X8220136Y5429969D01*
X8211652Y5421485D01*
X8207060Y5410400D01*
Y5398401D01*
X8211652Y5387316D01*
X8220136Y5378832D01*
X8231221Y5374240D01*
X8243219D01*
X8254304Y5378832D01*
X8262788Y5387316D01*
X8267380Y5398401D01*
Y5410400D01*
X8262788Y5421485D01*
X8254304Y5429969D01*
X8243219Y5434560D01*
D02*
G37*
G36*
X8120537D02*
X8108539D01*
X8097454Y5429969D01*
X8088970Y5421485D01*
X8084378Y5410400D01*
Y5398401D01*
X8088970Y5387316D01*
X8097454Y5378832D01*
X8108539Y5374240D01*
X8120537D01*
X8131622Y5378832D01*
X8140106Y5387316D01*
X8144698Y5398401D01*
Y5410400D01*
X8140106Y5421485D01*
X8131622Y5429969D01*
X8120537Y5434560D01*
D02*
G37*
G36*
X8000649D02*
X7988651D01*
X7977565Y5429969D01*
X7969081Y5421485D01*
X7964490Y5410400D01*
Y5398401D01*
X7969081Y5387316D01*
X7977565Y5378832D01*
X7988651Y5374240D01*
X8000649D01*
X8011734Y5378832D01*
X8020218Y5387316D01*
X8024810Y5398401D01*
Y5410400D01*
X8020218Y5421485D01*
X8011734Y5429969D01*
X8000649Y5434560D01*
D02*
G37*
G36*
X7880761D02*
X7868763D01*
X7857678Y5429969D01*
X7849194Y5421485D01*
X7844602Y5410400D01*
Y5398401D01*
X7849194Y5387316D01*
X7857678Y5378832D01*
X7868763Y5374240D01*
X7880761D01*
X7891846Y5378832D01*
X7900330Y5387316D01*
X7904922Y5398401D01*
Y5410400D01*
X7900330Y5421485D01*
X7891846Y5429969D01*
X7880761Y5434560D01*
D02*
G37*
G36*
X8360059Y5434557D02*
X8348061D01*
X8336976Y5429965D01*
X8328492Y5421481D01*
X8323900Y5410396D01*
Y5398398D01*
X8328492Y5387313D01*
X8336976Y5378828D01*
X8348061Y5374237D01*
X8360059D01*
X8371144Y5378828D01*
X8379628Y5387313D01*
X8384220Y5398398D01*
Y5410396D01*
X8379628Y5421481D01*
X8371144Y5429965D01*
X8360059Y5434557D01*
D02*
G37*
G36*
X10323101Y5361940D02*
X10311102D01*
X10300017Y5357348D01*
X10291533Y5348864D01*
X10286942Y5337779D01*
Y5325781D01*
X10291533Y5314695D01*
X10300017Y5306211D01*
X10311102Y5301620D01*
X10323101D01*
X10334186Y5306211D01*
X10342670Y5314695D01*
X10347261Y5325781D01*
Y5337779D01*
X10342670Y5348864D01*
X10334186Y5357348D01*
X10323101Y5361940D01*
D02*
G37*
G36*
X8446988Y5310820D02*
X8434990D01*
X8423905Y5306228D01*
X8422936Y5305259D01*
X8414639Y5298391D01*
X8406342Y5305259D01*
X8405373Y5306228D01*
X8394288Y5310820D01*
X8382290D01*
X8371205Y5306228D01*
X8362721Y5297744D01*
X8358129Y5286659D01*
Y5274661D01*
X8362721Y5263576D01*
X8371205Y5255092D01*
X8382290Y5250500D01*
X8394288D01*
X8405373Y5255092D01*
X8406342Y5256061D01*
X8414639Y5262929D01*
X8422936Y5256061D01*
X8423905Y5255092D01*
X8434990Y5250500D01*
X8446988D01*
X8458073Y5255092D01*
X8466557Y5263576D01*
X8471149Y5274661D01*
Y5286659D01*
X8466557Y5297744D01*
X8458073Y5306228D01*
X8446988Y5310820D01*
D02*
G37*
G36*
X8087070Y5275260D02*
X8075072D01*
X8063987Y5270668D01*
X8063018Y5269699D01*
X8054721Y5262831D01*
X8046424Y5269699D01*
X8045455Y5270668D01*
X8034370Y5275260D01*
X8022372D01*
X8011287Y5270668D01*
X8002803Y5262184D01*
X7998211Y5251099D01*
Y5239101D01*
X8002803Y5228016D01*
X8011287Y5219532D01*
X8022372Y5214940D01*
X8034370D01*
X8045455Y5219532D01*
X8046424Y5220501D01*
X8054721Y5227369D01*
X8063018Y5220501D01*
X8063987Y5219532D01*
X8075072Y5214940D01*
X8087070D01*
X8098155Y5219532D01*
X8106639Y5228016D01*
X8111231Y5239101D01*
Y5251099D01*
X8106639Y5262184D01*
X8098155Y5270668D01*
X8087070Y5275260D01*
D02*
G37*
G36*
X7293259Y5183820D02*
X7281261D01*
X7270176Y5179228D01*
X7261692Y5170744D01*
X7257100Y5159659D01*
Y5147661D01*
X7261692Y5136576D01*
X7270176Y5128092D01*
X7281261Y5123500D01*
X7293259D01*
X7304344Y5128092D01*
X7312828Y5136576D01*
X7317420Y5147661D01*
Y5159659D01*
X7312828Y5170744D01*
X7304344Y5179228D01*
X7293259Y5183820D01*
D02*
G37*
G36*
X7967055Y5122860D02*
X7955057D01*
X7943972Y5118268D01*
X7943003Y5117299D01*
X7934706Y5110431D01*
X7926410Y5117299D01*
X7925441Y5118268D01*
X7914356Y5122860D01*
X7902357D01*
X7891272Y5118268D01*
X7882788Y5109784D01*
X7878196Y5098699D01*
Y5086701D01*
X7882788Y5075616D01*
X7891272Y5067132D01*
X7902357Y5062540D01*
X7914356D01*
X7925441Y5067132D01*
X7926410Y5068101D01*
X7934706Y5074969D01*
X7943003Y5068101D01*
X7943972Y5067132D01*
X7955057Y5062540D01*
X7967055D01*
X7978141Y5067132D01*
X7986625Y5075616D01*
X7991216Y5086701D01*
Y5098699D01*
X7986625Y5109784D01*
X7978141Y5118268D01*
X7967055Y5122860D01*
D02*
G37*
G36*
X7847040Y5064440D02*
X7835042D01*
X7823957Y5059848D01*
X7822988Y5058879D01*
X7814691Y5052011D01*
X7806394Y5058879D01*
X7805425Y5059848D01*
X7794340Y5064440D01*
X7782342D01*
X7771257Y5059848D01*
X7762773Y5051364D01*
X7758181Y5040279D01*
Y5028281D01*
X7762773Y5017196D01*
X7771257Y5008712D01*
X7782342Y5004120D01*
X7794340D01*
X7805425Y5008712D01*
X7806394Y5009681D01*
X7814691Y5016549D01*
X7822988Y5009681D01*
X7823957Y5008712D01*
X7835042Y5004120D01*
X7847040D01*
X7858125Y5008712D01*
X7866609Y5017196D01*
X7871201Y5028281D01*
Y5040279D01*
X7866609Y5051364D01*
X7858125Y5059848D01*
X7847040Y5064440D01*
D02*
G37*
G36*
X8326973Y5062260D02*
X8314975D01*
X8303890Y5057668D01*
X8302634Y5056412D01*
X8294337Y5050009D01*
X8286040Y5056412D01*
X8284784Y5057668D01*
X8273699Y5062260D01*
X8261701D01*
X8250616Y5057668D01*
X8242132Y5049184D01*
X8237540Y5038099D01*
Y5026101D01*
X8242132Y5015016D01*
X8250616Y5006532D01*
X8261701Y5001940D01*
X8273699D01*
X8284784Y5006532D01*
X8286040Y5007788D01*
X8294337Y5014191D01*
X8302634Y5007788D01*
X8303890Y5006532D01*
X8314975Y5001940D01*
X8326973D01*
X8338058Y5006532D01*
X8346542Y5015016D01*
X8351134Y5026101D01*
Y5038099D01*
X8346542Y5049184D01*
X8338058Y5057668D01*
X8326973Y5062260D01*
D02*
G37*
G36*
X8621679Y5038339D02*
X8609681D01*
X8598596Y5033747D01*
X8590112Y5025263D01*
X8585520Y5014178D01*
Y5002180D01*
X8590112Y4991095D01*
X8591081Y4990126D01*
X8597949Y4981829D01*
X8591081Y4973532D01*
X8590112Y4972563D01*
X8585520Y4961478D01*
Y4949480D01*
X8590112Y4938395D01*
X8598596Y4929911D01*
X8609681Y4925319D01*
X8621679D01*
X8632764Y4929911D01*
X8641248Y4938395D01*
X8645840Y4949480D01*
Y4961478D01*
X8641248Y4972563D01*
X8640279Y4973532D01*
X8633411Y4981829D01*
X8640279Y4990126D01*
X8641248Y4991095D01*
X8645840Y5002180D01*
Y5014178D01*
X8641248Y5025263D01*
X8632764Y5033747D01*
X8621679Y5038339D01*
D02*
G37*
G36*
X7400659Y4970460D02*
X7388660D01*
X7377575Y4965868D01*
X7369091Y4957384D01*
X7364500Y4946299D01*
Y4934301D01*
X7369091Y4923216D01*
X7377575Y4914732D01*
X7388660Y4910140D01*
X7400659D01*
X7411744Y4914732D01*
X7420228Y4923216D01*
X7424820Y4934301D01*
Y4946299D01*
X7420228Y4957384D01*
X7411744Y4965868D01*
X7400659Y4970460D01*
D02*
G37*
G36*
X7686776Y4952045D02*
X7674777D01*
X7663692Y4947453D01*
X7655208Y4938969D01*
X7650617Y4927884D01*
Y4915886D01*
X7655208Y4904801D01*
X7663692Y4896317D01*
X7674777Y4891725D01*
X7686776D01*
X7697861Y4896317D01*
X7706345Y4904801D01*
X7710937Y4915886D01*
Y4927884D01*
X7706345Y4938969D01*
X7697861Y4947453D01*
X7686776Y4952045D01*
D02*
G37*
G36*
X559719Y4871400D02*
X547721D01*
X536636Y4866808D01*
X529130Y4859302D01*
X521970Y4858778D01*
X514810Y4859302D01*
X507304Y4866808D01*
X496219Y4871400D01*
X484221D01*
X473136Y4866808D01*
X464652Y4858324D01*
X464073Y4856928D01*
X450327D01*
X449748Y4858324D01*
X441264Y4866808D01*
X430179Y4871400D01*
X418181D01*
X407096Y4866808D01*
X399590Y4859302D01*
X392430Y4858778D01*
X385270Y4859302D01*
X377764Y4866808D01*
X366679Y4871400D01*
X354681D01*
X343596Y4866808D01*
X335112Y4858324D01*
X330520Y4847239D01*
Y4835241D01*
X335112Y4824156D01*
X343596Y4815672D01*
X354681Y4811080D01*
X366679D01*
X377764Y4815672D01*
X385270Y4823178D01*
X392430Y4823702D01*
X399590Y4823178D01*
X407096Y4815672D01*
X418181Y4811080D01*
X430179D01*
X441264Y4815672D01*
X449748Y4824156D01*
X450327Y4825552D01*
X464073D01*
X464652Y4824156D01*
X473136Y4815672D01*
X484221Y4811080D01*
X496219D01*
X507304Y4815672D01*
X514810Y4823178D01*
X521970Y4823702D01*
X529130Y4823178D01*
X536636Y4815672D01*
X547721Y4811080D01*
X559719D01*
X570804Y4815672D01*
X579288Y4824156D01*
X583880Y4835241D01*
Y4847239D01*
X579288Y4858324D01*
X570804Y4866808D01*
X559719Y4871400D01*
D02*
G37*
G36*
X7770419Y4912040D02*
X7758421D01*
X7747336Y4907448D01*
X7738852Y4898964D01*
X7734260Y4887879D01*
Y4875881D01*
X7738852Y4864796D01*
X7747336Y4856312D01*
X7758421Y4851720D01*
X7770419D01*
X7781504Y4856312D01*
X7789988Y4864796D01*
X7794580Y4875881D01*
Y4887879D01*
X7789988Y4898964D01*
X7781504Y4907448D01*
X7770419Y4912040D01*
D02*
G37*
G36*
X10325457Y4904420D02*
X10313459D01*
X10302374Y4899828D01*
X10293890Y4891344D01*
X10289298Y4880259D01*
Y4868261D01*
X10293890Y4857176D01*
X10302374Y4848692D01*
X10313459Y4844100D01*
X10325457D01*
X10336542Y4848692D01*
X10345027Y4857176D01*
X10349618Y4868261D01*
Y4880259D01*
X10345027Y4891344D01*
X10336542Y4899828D01*
X10325457Y4904420D01*
D02*
G37*
G36*
X9261759Y4983160D02*
X9249761D01*
X9238676Y4978568D01*
X9230192Y4970084D01*
X9225600Y4958999D01*
Y4947001D01*
X9230192Y4935916D01*
X9235967Y4930140D01*
X9230192Y4924364D01*
X9225600Y4913279D01*
Y4901281D01*
X9230192Y4890196D01*
X9237237Y4883150D01*
X9230192Y4876104D01*
X9225600Y4865019D01*
Y4853021D01*
X9230192Y4841936D01*
X9238676Y4833452D01*
X9249761Y4828860D01*
X9261759D01*
X9272844Y4833452D01*
X9281328Y4841936D01*
X9285920Y4853021D01*
Y4865019D01*
X9281328Y4876104D01*
X9274283Y4883150D01*
X9281328Y4890196D01*
X9285920Y4901281D01*
Y4913279D01*
X9281328Y4924364D01*
X9275553Y4930140D01*
X9281328Y4935916D01*
X9285920Y4947001D01*
Y4958999D01*
X9281328Y4970084D01*
X9272844Y4978568D01*
X9261759Y4983160D01*
D02*
G37*
G36*
X7686776Y4872035D02*
X7674777D01*
X7663692Y4867443D01*
X7655208Y4858959D01*
X7650617Y4847874D01*
Y4835876D01*
X7655208Y4824791D01*
X7663692Y4816307D01*
X7674777Y4811715D01*
X7686776D01*
X7697861Y4816307D01*
X7706345Y4824791D01*
X7710937Y4835876D01*
Y4847874D01*
X7706345Y4858959D01*
X7697861Y4867443D01*
X7686776Y4872035D01*
D02*
G37*
G36*
X150779Y4853620D02*
X138781D01*
X127696Y4849028D01*
X119212Y4840544D01*
X114620Y4829459D01*
Y4817461D01*
X119212Y4806376D01*
X127696Y4797892D01*
X138781Y4793300D01*
X150779D01*
X161864Y4797892D01*
X170348Y4806376D01*
X174940Y4817461D01*
Y4829459D01*
X170348Y4840544D01*
X161864Y4849028D01*
X150779Y4853620D01*
D02*
G37*
G36*
X8760660Y4833300D02*
X8748661D01*
X8737576Y4828708D01*
X8729092Y4820224D01*
X8724500Y4809139D01*
Y4797141D01*
X8729092Y4786056D01*
X8737576Y4777572D01*
X8748661Y4772980D01*
X8760660D01*
X8771745Y4777572D01*
X8780229Y4786056D01*
X8784820Y4797141D01*
Y4809139D01*
X8780229Y4820224D01*
X8771745Y4828708D01*
X8760660Y4833300D01*
D02*
G37*
G36*
X7768239Y4830760D02*
X7756241D01*
X7745156Y4826168D01*
X7736672Y4817684D01*
X7732080Y4806599D01*
Y4794601D01*
X7736672Y4783516D01*
X7745156Y4775032D01*
X7756241Y4770440D01*
X7768239D01*
X7779324Y4775032D01*
X7787808Y4783516D01*
X7792400Y4794601D01*
Y4806599D01*
X7787808Y4817684D01*
X7779324Y4826168D01*
X7768239Y4830760D01*
D02*
G37*
G36*
X7293259Y4754560D02*
X7281261D01*
X7270176Y4749968D01*
X7261692Y4741484D01*
X7257100Y4730399D01*
Y4718401D01*
X7261692Y4707316D01*
X7270176Y4698832D01*
X7281261Y4694240D01*
X7293259D01*
X7304344Y4698832D01*
X7312828Y4707316D01*
X7317420Y4718401D01*
Y4730399D01*
X7312828Y4741484D01*
X7304344Y4749968D01*
X7293259Y4754560D01*
D02*
G37*
G36*
X8390899Y4798309D02*
X8378901D01*
X8367816Y4793717D01*
X8359332Y4785233D01*
X8354740Y4774148D01*
Y4762150D01*
X8359332Y4751065D01*
X8360301Y4750096D01*
X8367168Y4741799D01*
X8360301Y4733502D01*
X8359332Y4732533D01*
X8354740Y4721448D01*
Y4709450D01*
X8359332Y4698365D01*
X8367816Y4689881D01*
X8378901Y4685289D01*
X8390899D01*
X8401984Y4689881D01*
X8410468Y4698365D01*
X8415060Y4709450D01*
Y4721448D01*
X8410468Y4732533D01*
X8409499Y4733502D01*
X8402631Y4741799D01*
X8409499Y4750096D01*
X8410468Y4751065D01*
X8415060Y4762150D01*
Y4774148D01*
X8410468Y4785233D01*
X8401984Y4793717D01*
X8390899Y4798309D01*
D02*
G37*
G36*
X7509159Y4713920D02*
X7497161D01*
X7486076Y4709328D01*
X7477592Y4700844D01*
X7473000Y4689759D01*
Y4677761D01*
X7477592Y4666676D01*
X7486076Y4658192D01*
X7497161Y4653600D01*
X7509159D01*
X7520244Y4658192D01*
X7528728Y4666676D01*
X7533320Y4677761D01*
Y4689759D01*
X7528728Y4700844D01*
X7520244Y4709328D01*
X7509159Y4713920D01*
D02*
G37*
G36*
X8760660Y4711380D02*
X8748661D01*
X8737576Y4706788D01*
X8729092Y4698304D01*
X8724500Y4687219D01*
Y4675221D01*
X8729092Y4664136D01*
X8737576Y4655652D01*
X8748661Y4651060D01*
X8760660D01*
X8771745Y4655652D01*
X8780229Y4664136D01*
X8784820Y4675221D01*
Y4687219D01*
X8780229Y4698304D01*
X8771745Y4706788D01*
X8760660Y4711380D01*
D02*
G37*
G36*
X8456579Y4678421D02*
X8444581D01*
X8433496Y4673829D01*
X8425012Y4665345D01*
X8420420Y4654260D01*
Y4642262D01*
X8425012Y4631177D01*
X8425981Y4630208D01*
X8432849Y4621911D01*
X8425981Y4613614D01*
X8425012Y4612645D01*
X8420420Y4601560D01*
Y4589562D01*
X8425012Y4578477D01*
X8433496Y4569993D01*
X8444581Y4565401D01*
X8456579D01*
X8467664Y4569993D01*
X8476148Y4578477D01*
X8480740Y4589562D01*
Y4601560D01*
X8476148Y4612645D01*
X8475179Y4613614D01*
X8468311Y4621911D01*
X8475179Y4630208D01*
X8476148Y4631177D01*
X8480740Y4642262D01*
Y4654260D01*
X8476148Y4665345D01*
X8467664Y4673829D01*
X8456579Y4678421D01*
D02*
G37*
G36*
X8760660Y4592000D02*
X8748661D01*
X8737576Y4587408D01*
X8729092Y4578924D01*
X8724500Y4567839D01*
Y4555841D01*
X8729092Y4544756D01*
X8737576Y4536272D01*
X8748661Y4531680D01*
X8760660D01*
X8771745Y4536272D01*
X8780229Y4544756D01*
X8784820Y4555841D01*
Y4567839D01*
X8780229Y4578924D01*
X8771745Y4587408D01*
X8760660Y4592000D01*
D02*
G37*
G36*
X7293259Y4538660D02*
X7281261D01*
X7270176Y4534068D01*
X7261692Y4525584D01*
X7257100Y4514499D01*
Y4502501D01*
X7261692Y4491416D01*
X7270176Y4482932D01*
X7281261Y4478340D01*
X7293259D01*
X7304344Y4482932D01*
X7312828Y4491416D01*
X7317420Y4502501D01*
Y4514499D01*
X7312828Y4525584D01*
X7304344Y4534068D01*
X7293259Y4538660D01*
D02*
G37*
G36*
X10325457Y4533900D02*
X10313459D01*
X10302374Y4529308D01*
X10293890Y4520824D01*
X10289298Y4509739D01*
Y4497741D01*
X10293890Y4486655D01*
X10302374Y4478171D01*
X10313459Y4473580D01*
X10325457D01*
X10336542Y4478171D01*
X10345027Y4486655D01*
X10349618Y4497741D01*
Y4509739D01*
X10345027Y4520824D01*
X10336542Y4529308D01*
X10325457Y4533900D01*
D02*
G37*
G36*
X8390899Y4558406D02*
X8378901D01*
X8367816Y4553814D01*
X8359332Y4545330D01*
X8354740Y4534245D01*
Y4522247D01*
X8359332Y4511162D01*
X8360301Y4510193D01*
X8367168Y4501896D01*
X8360301Y4493599D01*
X8359332Y4492630D01*
X8354740Y4481545D01*
Y4469547D01*
X8359332Y4458462D01*
X8367816Y4449978D01*
X8378901Y4445386D01*
X8390899D01*
X8401984Y4449978D01*
X8410468Y4458462D01*
X8415060Y4469547D01*
Y4481545D01*
X8410468Y4492630D01*
X8409499Y4493599D01*
X8402631Y4501896D01*
X8409499Y4510193D01*
X8410468Y4511162D01*
X8415060Y4522247D01*
Y4534245D01*
X8410468Y4545330D01*
X8401984Y4553814D01*
X8390899Y4558406D01*
D02*
G37*
G36*
X8760660Y4480052D02*
X8748661D01*
X8737576Y4475460D01*
X8729092Y4466976D01*
X8724500Y4455891D01*
Y4443893D01*
X8729092Y4432808D01*
X8737576Y4424324D01*
X8748661Y4419732D01*
X8760660D01*
X8771745Y4424324D01*
X8780229Y4432808D01*
X8784820Y4443893D01*
Y4455891D01*
X8780229Y4466976D01*
X8771745Y4475460D01*
X8760660Y4480052D01*
D02*
G37*
G36*
X7290719Y4437060D02*
X7278721D01*
X7267636Y4432468D01*
X7259152Y4423984D01*
X7254560Y4412899D01*
Y4400901D01*
X7259152Y4389816D01*
X7267636Y4381332D01*
X7278721Y4376740D01*
X7290719D01*
X7301804Y4381332D01*
X7310288Y4389816D01*
X7314880Y4400901D01*
Y4412899D01*
X7310288Y4423984D01*
X7301804Y4432468D01*
X7290719Y4437060D01*
D02*
G37*
G36*
X150779Y4422540D02*
X138781D01*
X127696Y4417948D01*
X119212Y4409464D01*
X114620Y4398379D01*
Y4386381D01*
X119212Y4375296D01*
X127696Y4366812D01*
X138781Y4362220D01*
X150779D01*
X161864Y4366812D01*
X170348Y4375296D01*
X174940Y4386381D01*
Y4398379D01*
X170348Y4409464D01*
X161864Y4417948D01*
X150779Y4422540D01*
D02*
G37*
G36*
X1451259Y4409120D02*
X1439261D01*
X1428176Y4404528D01*
X1419692Y4396044D01*
X1415100Y4384959D01*
Y4372961D01*
X1419692Y4361876D01*
X1428176Y4353392D01*
X1439261Y4348800D01*
X1451259D01*
X1462344Y4353392D01*
X1470828Y4361876D01*
X1475420Y4372961D01*
Y4384959D01*
X1470828Y4396044D01*
X1462344Y4404528D01*
X1451259Y4409120D01*
D02*
G37*
G36*
X8906159Y4438391D02*
X8894161D01*
X8883076Y4433799D01*
X8874592Y4425315D01*
X8870000Y4414230D01*
Y4402232D01*
X8874592Y4391147D01*
X8875561Y4390178D01*
X8882429Y4381881D01*
X8875561Y4373584D01*
X8874592Y4372615D01*
X8870000Y4361530D01*
Y4349532D01*
X8874592Y4338447D01*
X8883076Y4329963D01*
X8894161Y4325371D01*
X8906159D01*
X8917244Y4329963D01*
X8925728Y4338447D01*
X8930320Y4349532D01*
Y4361530D01*
X8925728Y4372615D01*
X8924759Y4373584D01*
X8917891Y4381881D01*
X8924759Y4390178D01*
X8925728Y4391147D01*
X8930320Y4402232D01*
Y4414230D01*
X8925728Y4425315D01*
X8917244Y4433799D01*
X8906159Y4438391D01*
D02*
G37*
G36*
X7400659Y4327840D02*
X7388660D01*
X7377575Y4323248D01*
X7369091Y4314764D01*
X7364500Y4303679D01*
Y4291681D01*
X7369091Y4280596D01*
X7377575Y4272112D01*
X7388660Y4267520D01*
X7400659D01*
X7411744Y4272112D01*
X7420228Y4280596D01*
X7424820Y4291681D01*
Y4303679D01*
X7420228Y4314764D01*
X7411744Y4323248D01*
X7400659Y4327840D01*
D02*
G37*
G36*
X1563019Y4302440D02*
X1551021D01*
X1539936Y4297848D01*
X1531452Y4289364D01*
X1526860Y4278279D01*
Y4266281D01*
X1531452Y4255196D01*
X1539936Y4246712D01*
X1551021Y4242120D01*
X1563019D01*
X1574104Y4246712D01*
X1582588Y4255196D01*
X1587180Y4266281D01*
Y4278279D01*
X1582588Y4289364D01*
X1574104Y4297848D01*
X1563019Y4302440D01*
D02*
G37*
G36*
X1344579D02*
X1332581D01*
X1321496Y4297848D01*
X1313012Y4289364D01*
X1308420Y4278279D01*
Y4266281D01*
X1313012Y4255196D01*
X1321496Y4246712D01*
X1332581Y4242120D01*
X1344579D01*
X1355664Y4246712D01*
X1364148Y4255196D01*
X1368740Y4266281D01*
Y4278279D01*
X1364148Y4289364D01*
X1355664Y4297848D01*
X1344579Y4302440D01*
D02*
G37*
G36*
X8794359Y4236400D02*
X8782361D01*
X8771276Y4231808D01*
X8762791Y4223324D01*
X8758200Y4212239D01*
Y4200241D01*
X8762791Y4189156D01*
X8771276Y4180672D01*
X8782361Y4176080D01*
X8794359D01*
X8805444Y4180672D01*
X8813928Y4189156D01*
X8818520Y4200241D01*
Y4212239D01*
X8813928Y4223324D01*
X8805444Y4231808D01*
X8794359Y4236400D01*
D02*
G37*
G36*
X1235359Y4195760D02*
X1223361D01*
X1212276Y4191168D01*
X1203792Y4182684D01*
X1199200Y4171599D01*
Y4159601D01*
X1203792Y4148516D01*
X1212276Y4140032D01*
X1223361Y4135440D01*
X1235359D01*
X1246444Y4140032D01*
X1254928Y4148516D01*
X1259520Y4159601D01*
Y4171599D01*
X1254928Y4182684D01*
X1246444Y4191168D01*
X1235359Y4195760D01*
D02*
G37*
G36*
X1451259Y4188140D02*
X1439261D01*
X1428176Y4183548D01*
X1419692Y4175064D01*
X1415100Y4163979D01*
Y4151981D01*
X1419692Y4140896D01*
X1428176Y4132412D01*
X1439261Y4127820D01*
X1451259D01*
X1462344Y4132412D01*
X1470828Y4140896D01*
X1475420Y4151981D01*
Y4163979D01*
X1470828Y4175064D01*
X1462344Y4183548D01*
X1451259Y4188140D01*
D02*
G37*
G36*
X9304939Y4131475D02*
X9292941D01*
X9281856Y4126884D01*
X9273372Y4118399D01*
X9272793Y4117003D01*
X9259047D01*
X9258468Y4118399D01*
X9249984Y4126884D01*
X9238899Y4131475D01*
X9226901D01*
X9215816Y4126884D01*
X9207332Y4118399D01*
X9202740Y4107314D01*
Y4095316D01*
X9207332Y4084231D01*
X9209727Y4081835D01*
X9214536Y4073539D01*
X9209727Y4065242D01*
X9207332Y4062847D01*
X9202740Y4051762D01*
Y4039763D01*
X9207332Y4028678D01*
X9215816Y4020194D01*
X9226901Y4015602D01*
X9238899D01*
X9249984Y4020194D01*
X9258468Y4028678D01*
X9259047Y4030074D01*
X9272793D01*
X9273372Y4028678D01*
X9281856Y4020194D01*
X9292941Y4015602D01*
X9304939D01*
X9316024Y4020194D01*
X9324508Y4028678D01*
X9329100Y4039763D01*
Y4051762D01*
X9324508Y4062847D01*
X9322113Y4065242D01*
X9317304Y4073539D01*
X9322113Y4081835D01*
X9324508Y4084231D01*
X9329100Y4095316D01*
Y4107314D01*
X9324508Y4118399D01*
X9316024Y4126884D01*
X9304939Y4131475D01*
D02*
G37*
G36*
X1347119Y4089080D02*
X1335121D01*
X1324036Y4084488D01*
X1315552Y4076004D01*
X1310960Y4064919D01*
Y4052921D01*
X1315552Y4041836D01*
X1324036Y4033352D01*
X1335121Y4028760D01*
X1347119D01*
X1358204Y4033352D01*
X1366688Y4041836D01*
X1371280Y4052921D01*
Y4064919D01*
X1366688Y4076004D01*
X1358204Y4084488D01*
X1347119Y4089080D01*
D02*
G37*
G36*
X10319233Y4073840D02*
X10307234D01*
X10296149Y4069248D01*
X10287665Y4060764D01*
X10283074Y4049679D01*
Y4037681D01*
X10287665Y4026596D01*
X10296149Y4018112D01*
X10307234Y4013520D01*
X10319233D01*
X10330318Y4018112D01*
X10338802Y4026596D01*
X10343394Y4037681D01*
Y4049679D01*
X10338802Y4060764D01*
X10330318Y4069248D01*
X10319233Y4073840D01*
D02*
G37*
G36*
X8080024Y4069480D02*
X8068026D01*
X8056941Y4064888D01*
X8048457Y4056404D01*
X8043865Y4045319D01*
Y4033320D01*
X8048457Y4022235D01*
X8056941Y4013751D01*
X8068026Y4009160D01*
X8080024D01*
X8091109Y4013751D01*
X8099593Y4022235D01*
X8104185Y4033320D01*
Y4045319D01*
X8099593Y4056404D01*
X8091109Y4064888D01*
X8080024Y4069480D01*
D02*
G37*
G36*
X7961279D02*
X7949281D01*
X7938196Y4064888D01*
X7929712Y4056404D01*
X7925120Y4045319D01*
Y4033320D01*
X7929712Y4022235D01*
X7938196Y4013751D01*
X7949281Y4009160D01*
X7961279D01*
X7972364Y4013751D01*
X7980848Y4022235D01*
X7985440Y4033320D01*
Y4045319D01*
X7980848Y4056404D01*
X7972364Y4064888D01*
X7961279Y4069480D01*
D02*
G37*
G36*
X7839359D02*
X7827361D01*
X7816276Y4064888D01*
X7807792Y4056404D01*
X7803200Y4045319D01*
Y4033320D01*
X7807792Y4022235D01*
X7816276Y4013751D01*
X7827361Y4009160D01*
X7839359D01*
X7850444Y4013751D01*
X7858928Y4022235D01*
X7863520Y4033320D01*
Y4045319D01*
X7858928Y4056404D01*
X7850444Y4064888D01*
X7839359Y4069480D01*
D02*
G37*
G36*
X8639459Y4036182D02*
X8627461D01*
X8616376Y4031591D01*
X8607892Y4023107D01*
X8603300Y4012021D01*
Y4000023D01*
X8607892Y3988938D01*
X8616376Y3980454D01*
X8627461Y3975862D01*
X8639459D01*
X8650544Y3980454D01*
X8659028Y3988938D01*
X8663620Y4000023D01*
Y4012021D01*
X8659028Y4023107D01*
X8650544Y4031591D01*
X8639459Y4036182D01*
D02*
G37*
G36*
X2962559Y3992560D02*
X2950561D01*
X2939476Y3987968D01*
X2930992Y3979484D01*
X2926400Y3968399D01*
Y3956401D01*
X2930992Y3945316D01*
X2939476Y3936832D01*
X2950561Y3932240D01*
X2962559D01*
X2973644Y3936832D01*
X2982128Y3945316D01*
X2986720Y3956401D01*
Y3968399D01*
X2982128Y3979484D01*
X2973644Y3987968D01*
X2962559Y3992560D01*
D02*
G37*
G36*
X2830479D02*
X2818481D01*
X2807396Y3987968D01*
X2798912Y3979484D01*
X2794320Y3968399D01*
Y3956401D01*
X2798912Y3945316D01*
X2807396Y3936832D01*
X2818481Y3932240D01*
X2830479D01*
X2841564Y3936832D01*
X2850048Y3945316D01*
X2854640Y3956401D01*
Y3968399D01*
X2850048Y3979484D01*
X2841564Y3987968D01*
X2830479Y3992560D01*
D02*
G37*
G36*
X2703479D02*
X2691481D01*
X2680396Y3987968D01*
X2671912Y3979484D01*
X2667320Y3968399D01*
Y3956401D01*
X2671912Y3945316D01*
X2680396Y3936832D01*
X2691481Y3932240D01*
X2703479D01*
X2714564Y3936832D01*
X2723048Y3945316D01*
X2727640Y3956401D01*
Y3968399D01*
X2723048Y3979484D01*
X2714564Y3987968D01*
X2703479Y3992560D01*
D02*
G37*
G36*
X5903879Y4126860D02*
X5891881D01*
X5880796Y4122268D01*
X5872312Y4113784D01*
X5867720Y4102699D01*
Y4090701D01*
X5872312Y4079616D01*
X5873281Y4078647D01*
X5880149Y4070350D01*
X5873281Y4062053D01*
X5872312Y4061084D01*
X5867720Y4049999D01*
Y4038001D01*
X5872312Y4026916D01*
X5880796Y4018432D01*
X5889454Y4014845D01*
X5891138Y4006035D01*
X5890717Y4001622D01*
X5888416Y4000668D01*
X5879932Y3992184D01*
X5875340Y3981099D01*
Y3969101D01*
X5879932Y3958016D01*
X5880901Y3957047D01*
X5887769Y3948750D01*
X5880901Y3940453D01*
X5879932Y3939484D01*
X5875340Y3928399D01*
Y3916401D01*
X5879932Y3905316D01*
X5888416Y3896832D01*
X5899501Y3892240D01*
X5911499D01*
X5922584Y3896832D01*
X5931068Y3905316D01*
X5935660Y3916401D01*
Y3928399D01*
X5931068Y3939484D01*
X5930099Y3940453D01*
X5923231Y3948750D01*
X5930099Y3957047D01*
X5931068Y3958016D01*
X5935660Y3969101D01*
Y3981099D01*
X5931068Y3992184D01*
X5922584Y4000668D01*
X5913926Y4004255D01*
X5912242Y4013065D01*
X5912663Y4017478D01*
X5914964Y4018432D01*
X5923448Y4026916D01*
X5928040Y4038001D01*
Y4049999D01*
X5923448Y4061084D01*
X5922479Y4062053D01*
X5915611Y4070350D01*
X5922479Y4078647D01*
X5923448Y4079616D01*
X5928040Y4090701D01*
Y4102699D01*
X5923448Y4113784D01*
X5914964Y4122268D01*
X5903879Y4126860D01*
D02*
G37*
G36*
X8250839Y3852860D02*
X8238841D01*
X8227756Y3848268D01*
X8219272Y3839784D01*
X8214680Y3828699D01*
Y3816701D01*
X8219272Y3805616D01*
X8227756Y3797132D01*
X8238841Y3792540D01*
X8250839D01*
X8261924Y3797132D01*
X8270408Y3805616D01*
X8275000Y3816701D01*
Y3828699D01*
X8270408Y3839784D01*
X8261924Y3848268D01*
X8250839Y3852860D01*
D02*
G37*
G36*
X5911499Y3878260D02*
X5899501D01*
X5888416Y3873668D01*
X5879932Y3865184D01*
X5875340Y3854099D01*
Y3842101D01*
X5879932Y3831016D01*
X5880901Y3830047D01*
X5887769Y3821750D01*
X5880901Y3813453D01*
X5879932Y3812484D01*
X5875340Y3801399D01*
Y3789401D01*
X5879932Y3778316D01*
X5888416Y3769832D01*
X5899501Y3765240D01*
X5911499D01*
X5922584Y3769832D01*
X5931068Y3778316D01*
X5935660Y3789401D01*
Y3801399D01*
X5931068Y3812484D01*
X5930099Y3813453D01*
X5923231Y3821750D01*
X5930099Y3830047D01*
X5931068Y3831016D01*
X5935660Y3842101D01*
Y3854099D01*
X5931068Y3865184D01*
X5922584Y3873668D01*
X5911499Y3878260D01*
D02*
G37*
G36*
X6165499Y3852884D02*
X6153501D01*
X6142416Y3848292D01*
X6133932Y3839808D01*
X6129340Y3828723D01*
Y3827353D01*
X6128330Y3816630D01*
X6117607Y3815619D01*
X6116236D01*
X6105151Y3811028D01*
X6096667Y3802544D01*
X6092075Y3791459D01*
Y3779460D01*
X6096667Y3768375D01*
X6105151Y3759891D01*
X6116236Y3755299D01*
X6128235D01*
X6139320Y3759891D01*
X6147804Y3768375D01*
X6152395Y3779460D01*
Y3780831D01*
X6153406Y3791554D01*
X6164129Y3792564D01*
X6165499D01*
X6176584Y3797155D01*
X6185068Y3805640D01*
X6189660Y3816725D01*
Y3828723D01*
X6185068Y3839808D01*
X6176584Y3848292D01*
X6165499Y3852884D01*
D02*
G37*
G36*
X2063189Y3797190D02*
X2051191D01*
X2040106Y3792598D01*
X2031622Y3784114D01*
X2027030Y3773029D01*
Y3761031D01*
X2031622Y3749946D01*
X2040106Y3741462D01*
X2051191Y3736870D01*
X2063189D01*
X2074274Y3741462D01*
X2082758Y3749946D01*
X2087350Y3761031D01*
Y3773029D01*
X2082758Y3784114D01*
X2074274Y3792598D01*
X2063189Y3797190D01*
D02*
G37*
G36*
X6020719Y3817324D02*
X6008721D01*
X5997636Y3812732D01*
X5989152Y3804248D01*
X5984560Y3793163D01*
Y3791793D01*
X5983550Y3781070D01*
X5972827Y3780059D01*
X5971456D01*
X5960371Y3775468D01*
X5951887Y3766984D01*
X5947295Y3755899D01*
Y3743900D01*
X5951887Y3732815D01*
X5960371Y3724331D01*
X5971456Y3719739D01*
X5983455D01*
X5994540Y3724331D01*
X6003024Y3732815D01*
X6007615Y3743900D01*
Y3745271D01*
X6008626Y3755994D01*
X6019349Y3757004D01*
X6020719D01*
X6031804Y3761595D01*
X6040288Y3770080D01*
X6044880Y3781165D01*
Y3793163D01*
X6040288Y3804248D01*
X6031804Y3812732D01*
X6020719Y3817324D01*
D02*
G37*
G36*
X2174949Y3690510D02*
X2162951D01*
X2151866Y3685918D01*
X2143382Y3677434D01*
X2138790Y3666349D01*
Y3654351D01*
X2143382Y3643266D01*
X2151866Y3634782D01*
X2162951Y3630190D01*
X2174949D01*
X2186034Y3634782D01*
X2194518Y3643266D01*
X2199110Y3654351D01*
Y3666349D01*
X2194518Y3677434D01*
X2186034Y3685918D01*
X2174949Y3690510D01*
D02*
G37*
G36*
X1956509D02*
X1944511D01*
X1933426Y3685918D01*
X1924942Y3677434D01*
X1920350Y3666349D01*
Y3654351D01*
X1924942Y3643266D01*
X1933426Y3634782D01*
X1944511Y3630190D01*
X1956509D01*
X1967594Y3634782D01*
X1976078Y3643266D01*
X1980670Y3654351D01*
Y3666349D01*
X1976078Y3677434D01*
X1967594Y3685918D01*
X1956509Y3690510D01*
D02*
G37*
G36*
X5425353Y3732286D02*
X5406879D01*
X5389035Y3727505D01*
X5373037Y3718268D01*
X5359974Y3705205D01*
X5350737Y3689207D01*
X5345956Y3671363D01*
Y3652889D01*
X5350737Y3635045D01*
X5359974Y3619047D01*
X5373037Y3605984D01*
X5389035Y3596747D01*
X5406879Y3591966D01*
X5425353D01*
X5443197Y3596747D01*
X5459195Y3605984D01*
X5472258Y3619047D01*
X5481494Y3635045D01*
X5486276Y3652889D01*
Y3671363D01*
X5481494Y3689207D01*
X5472258Y3705205D01*
X5459195Y3718268D01*
X5443197Y3727505D01*
X5425353Y3732286D01*
D02*
G37*
G36*
X1625353D02*
X1606879D01*
X1589035Y3727505D01*
X1573037Y3718268D01*
X1559974Y3705205D01*
X1550737Y3689207D01*
X1545956Y3671363D01*
Y3652889D01*
X1550737Y3635045D01*
X1559974Y3619047D01*
X1573037Y3605984D01*
X1589035Y3596747D01*
X1606879Y3591966D01*
X1625353D01*
X1643197Y3596747D01*
X1659195Y3605984D01*
X1672258Y3619047D01*
X1681494Y3635045D01*
X1686276Y3652889D01*
Y3671363D01*
X1681494Y3689207D01*
X1672258Y3705205D01*
X1659195Y3718268D01*
X1643197Y3727505D01*
X1625353Y3732286D01*
D02*
G37*
G36*
X1847289Y3583830D02*
X1835291D01*
X1824206Y3579238D01*
X1815722Y3570754D01*
X1811130Y3559669D01*
Y3547671D01*
X1815722Y3536586D01*
X1824206Y3528102D01*
X1835291Y3523510D01*
X1847289D01*
X1858374Y3528102D01*
X1866858Y3536586D01*
X1871450Y3547671D01*
Y3559669D01*
X1866858Y3570754D01*
X1858374Y3579238D01*
X1847289Y3583830D01*
D02*
G37*
G36*
X2063189Y3576210D02*
X2051191D01*
X2040106Y3571618D01*
X2031622Y3563134D01*
X2027030Y3552049D01*
Y3540051D01*
X2031622Y3528966D01*
X2040106Y3520482D01*
X2051191Y3515890D01*
X2063189D01*
X2074274Y3520482D01*
X2082758Y3528966D01*
X2087350Y3540051D01*
Y3552049D01*
X2082758Y3563134D01*
X2074274Y3571618D01*
X2063189Y3576210D01*
D02*
G37*
G36*
X5983455Y3565005D02*
X5971456D01*
X5960371Y3560413D01*
X5951887Y3551929D01*
X5947295Y3540844D01*
Y3528845D01*
X5951887Y3517760D01*
X5960371Y3509276D01*
X5971456Y3504685D01*
X5972827D01*
X5983550Y3503674D01*
X5984560Y3492951D01*
Y3491581D01*
X5989152Y3480496D01*
X5997636Y3472012D01*
X6008721Y3467420D01*
X6020719D01*
X6031804Y3472012D01*
X6040288Y3480496D01*
X6044880Y3491581D01*
Y3503579D01*
X6040288Y3514664D01*
X6031804Y3523148D01*
X6020719Y3527740D01*
X6019349D01*
X6008626Y3528750D01*
X6007615Y3539473D01*
Y3540844D01*
X6003024Y3551929D01*
X5994540Y3560413D01*
X5983455Y3565005D01*
D02*
G37*
G36*
X6371239Y3446460D02*
X6359241D01*
X6348156Y3441868D01*
X6339672Y3433384D01*
X6339093Y3431988D01*
X6325347D01*
X6324768Y3433384D01*
X6316284Y3441868D01*
X6305199Y3446460D01*
X6293201D01*
X6282116Y3441868D01*
X6273632Y3433384D01*
X6269040Y3422299D01*
Y3410301D01*
X6273632Y3399216D01*
X6282116Y3390732D01*
X6293201Y3386140D01*
X6305199D01*
X6316284Y3390732D01*
X6324768Y3399216D01*
X6325347Y3400612D01*
X6339093D01*
X6339672Y3399216D01*
X6348156Y3390732D01*
X6359241Y3386140D01*
X6371239D01*
X6382324Y3390732D01*
X6390808Y3399216D01*
X6395400Y3410301D01*
Y3422299D01*
X6390808Y3433384D01*
X6382324Y3441868D01*
X6371239Y3446460D01*
D02*
G37*
G36*
X6128235Y3529445D02*
X6116236D01*
X6105151Y3524853D01*
X6096667Y3516369D01*
X6092075Y3505284D01*
Y3493285D01*
X6096667Y3482200D01*
X6105151Y3473716D01*
X6116236Y3469125D01*
X6117607D01*
X6128330Y3468114D01*
X6129340Y3457391D01*
Y3456021D01*
X6133932Y3444936D01*
X6142416Y3436452D01*
X6153501Y3431860D01*
X6165499D01*
X6176584Y3436452D01*
X6185068Y3444936D01*
X6189660Y3456021D01*
Y3468019D01*
X6185068Y3479104D01*
X6176584Y3487588D01*
X6165499Y3492180D01*
X6164129D01*
X6153406Y3493190D01*
X6152395Y3503913D01*
Y3505284D01*
X6147804Y3516369D01*
X6139320Y3524853D01*
X6128235Y3529445D01*
D02*
G37*
G36*
X1959049Y3477150D02*
X1947051D01*
X1935966Y3472558D01*
X1927482Y3464074D01*
X1922890Y3452989D01*
Y3440991D01*
X1927482Y3429906D01*
X1935966Y3421422D01*
X1947051Y3416830D01*
X1959049D01*
X1970134Y3421422D01*
X1978618Y3429906D01*
X1983210Y3440991D01*
Y3452989D01*
X1978618Y3464074D01*
X1970134Y3472558D01*
X1959049Y3477150D01*
D02*
G37*
G36*
X9246519Y3349940D02*
X9234521D01*
X9223436Y3345348D01*
X9215120Y3337033D01*
X9206804Y3345348D01*
X9195719Y3349940D01*
X9183721D01*
X9172636Y3345348D01*
X9164152Y3336864D01*
X9159560Y3325779D01*
Y3313781D01*
X9164152Y3302696D01*
X9172467Y3294380D01*
X9164152Y3286064D01*
X9159560Y3274979D01*
Y3262981D01*
X9164152Y3251896D01*
X9172467Y3243580D01*
X9164152Y3235264D01*
X9159560Y3224179D01*
Y3212181D01*
X9164152Y3201096D01*
X9172636Y3192612D01*
X9183721Y3188020D01*
X9195719D01*
X9206804Y3192612D01*
X9215120Y3200927D01*
X9223436Y3192612D01*
X9234521Y3188020D01*
X9246519D01*
X9257604Y3192612D01*
X9266088Y3201096D01*
X9270680Y3212181D01*
Y3224179D01*
X9266088Y3235264D01*
X9257773Y3243580D01*
X9266088Y3251896D01*
X9270680Y3262981D01*
Y3274979D01*
X9266088Y3286064D01*
X9257773Y3294380D01*
X9266088Y3302696D01*
X9270680Y3313781D01*
Y3325779D01*
X9266088Y3336864D01*
X9257604Y3345348D01*
X9246519Y3349940D01*
D02*
G37*
G36*
X7836819Y3322000D02*
X7824821D01*
X7813736Y3317408D01*
X7805252Y3308924D01*
X7800660Y3297839D01*
Y3285841D01*
X7805252Y3274756D01*
X7813736Y3266272D01*
X7824821Y3261680D01*
X7836819D01*
X7847904Y3266272D01*
X7856388Y3274756D01*
X7860980Y3285841D01*
Y3297839D01*
X7856388Y3308924D01*
X7847904Y3317408D01*
X7836819Y3322000D01*
D02*
G37*
G36*
X7747919D02*
X7735921D01*
X7724836Y3317408D01*
X7716352Y3308924D01*
X7711760Y3297839D01*
Y3285841D01*
X7716352Y3274756D01*
X7724836Y3266272D01*
X7735921Y3261680D01*
X7747919D01*
X7759004Y3266272D01*
X7767488Y3274756D01*
X7772080Y3285841D01*
Y3297839D01*
X7767488Y3308924D01*
X7759004Y3317408D01*
X7747919Y3322000D01*
D02*
G37*
G36*
X8012079Y3319460D02*
X8000081D01*
X7988996Y3314868D01*
X7980512Y3306384D01*
X7975920Y3295299D01*
Y3283301D01*
X7980512Y3272216D01*
X7988996Y3263732D01*
X8000081Y3259140D01*
X8012079D01*
X8023164Y3263732D01*
X8031648Y3272216D01*
X8036240Y3283301D01*
Y3295299D01*
X8031648Y3306384D01*
X8023164Y3314868D01*
X8012079Y3319460D01*
D02*
G37*
G36*
X7928259D02*
X7916261D01*
X7905176Y3314868D01*
X7896692Y3306384D01*
X7892100Y3295299D01*
Y3283301D01*
X7896692Y3272216D01*
X7905176Y3263732D01*
X7916261Y3259140D01*
X7928259D01*
X7939344Y3263732D01*
X7947828Y3272216D01*
X7952420Y3283301D01*
Y3295299D01*
X7947828Y3306384D01*
X7939344Y3314868D01*
X7928259Y3319460D01*
D02*
G37*
%LPD*%
D10*
X9811287Y8021365D02*
G03*
X9811249Y8021326I63560J-63638D01*
G01*
X9874848Y8047670D02*
G03*
X9811287Y8021365I0J-89943D01*
G01*
X9784905Y7994983D02*
X9811249Y8021326D01*
X9874848Y8047670D02*
X10180320D01*
X9782200Y7994983D02*
X9784905D01*
D37*
X7584440Y8661400D02*
D03*
Y7381240D02*
D03*
X8872922Y8661400D02*
D03*
Y7381240D02*
D03*
D38*
X7594346Y7671308D02*
D03*
Y7921244D02*
D03*
Y8121396D02*
D03*
Y8371332D02*
D03*
X7444486Y7621270D02*
D03*
Y7821422D02*
D03*
Y8021320D02*
D03*
Y8221218D02*
D03*
Y8421370D02*
D03*
X8882828Y7671308D02*
D03*
Y7921244D02*
D03*
Y8121396D02*
D03*
Y8371332D02*
D03*
X8732968Y7621270D02*
D03*
Y7821422D02*
D03*
Y8021320D02*
D03*
Y8221218D02*
D03*
Y8421370D02*
D03*
D39*
X10197198Y7781315D02*
D03*
X9767201D02*
D03*
Y8261325D02*
D03*
X10197198D02*
D03*
D40*
X1616116Y6469476D02*
D03*
X5416116D02*
D03*
X1616116Y3662126D02*
D03*
X5416116D02*
D03*
D41*
X436880Y7653020D02*
D03*
X513080D02*
D03*
X589280D02*
D03*
Y7602220D02*
D03*
X513080D02*
D03*
X436880D02*
D03*
X1023620Y7975600D02*
D03*
X1099820D02*
D03*
X1176020D02*
D03*
Y7924800D02*
D03*
X1099820D02*
D03*
X1023620D02*
D03*
X1041400Y8671560D02*
D03*
X1117600D02*
D03*
X1193800D02*
D03*
Y8620760D02*
D03*
X1117600D02*
D03*
X1041400D02*
D03*
X1277620Y8752840D02*
D03*
X1353820D02*
D03*
X1430020D02*
D03*
Y8702040D02*
D03*
X1353820D02*
D03*
X1277620D02*
D03*
X784860Y8750300D02*
D03*
X861060D02*
D03*
X937260D02*
D03*
Y8699500D02*
D03*
X861060D02*
D03*
X784860D02*
D03*
X779780Y8577580D02*
D03*
X855980D02*
D03*
X932180D02*
D03*
Y8526780D02*
D03*
X855980D02*
D03*
X779780D02*
D03*
X1267460Y8580120D02*
D03*
X1343660D02*
D03*
X1419860D02*
D03*
Y8529320D02*
D03*
X1343660D02*
D03*
X1267460D02*
D03*
X1262380Y8133080D02*
D03*
X1338580D02*
D03*
X1414780D02*
D03*
Y8082280D02*
D03*
X1338580D02*
D03*
X1262380D02*
D03*
X1267460Y8450580D02*
D03*
X1343660D02*
D03*
X1419860D02*
D03*
Y8399780D02*
D03*
X1343660D02*
D03*
X1267460D02*
D03*
X93980Y6281420D02*
D03*
Y6169660D02*
D03*
Y6228080D02*
D03*
X9075420Y4963160D02*
D03*
Y4917440D02*
D03*
Y4871720D02*
D03*
X9123680Y5212080D02*
D03*
X8244840Y3822700D02*
D03*
X347980Y6111240D02*
D03*
X414020D02*
D03*
X477520D02*
D03*
X541020Y6113780D02*
D03*
X360680Y4841240D02*
D03*
X424180D02*
D03*
X490220D02*
D03*
X553720D02*
D03*
X5977455Y3749899D02*
D03*
X6014720Y3787164D02*
D03*
X8440989Y5280660D02*
D03*
X8388289D02*
D03*
X8615680Y4955479D02*
D03*
Y5008179D02*
D03*
X8792628Y5472012D02*
D03*
X8829892Y5434748D02*
D03*
X8384900Y4768149D02*
D03*
Y4715449D02*
D03*
X8320974Y5032100D02*
D03*
X8267700D02*
D03*
X8147370Y5722620D02*
D03*
X8200070D02*
D03*
X8081071Y5245100D02*
D03*
X8028371D02*
D03*
X7470140Y6151270D02*
D03*
Y6203970D02*
D03*
X7053580Y6533830D02*
D03*
X7788341Y5034280D02*
D03*
X7841041D02*
D03*
X7053580Y6481130D02*
D03*
X7874950Y6962140D02*
D03*
X6997700Y6685364D02*
D03*
X7822250Y6962140D02*
D03*
X6997700Y6738063D02*
D03*
X7659690Y6578600D02*
D03*
X6637020Y6869110D02*
D03*
X7712390Y6578600D02*
D03*
X6637020Y6816410D02*
D03*
X7961056Y5092700D02*
D03*
X7053573Y6213790D02*
D03*
X7908356Y5092700D02*
D03*
X7053573Y6161090D02*
D03*
X8806180Y6533830D02*
D03*
X8450580Y4648261D02*
D03*
X8806180Y6481130D02*
D03*
X8450580Y4595561D02*
D03*
X8806173Y6161090D02*
D03*
Y6213790D02*
D03*
X8384900Y4475546D02*
D03*
Y4528246D02*
D03*
X9222740Y6151270D02*
D03*
X8900160Y4355531D02*
D03*
X9222740Y6203970D02*
D03*
X8900160Y4408231D02*
D03*
X9412290Y6578600D02*
D03*
X5897880Y4096700D02*
D03*
X9464990Y6578600D02*
D03*
X5897880Y4044000D02*
D03*
X9574850Y6962140D02*
D03*
X5905500Y3975100D02*
D03*
X9627550Y6962140D02*
D03*
X5905500Y3922400D02*
D03*
X6122235Y3499285D02*
D03*
X6159500Y3462020D02*
D03*
X5977455Y3534845D02*
D03*
X6014720Y3497580D02*
D03*
X9782200Y8047683D02*
D03*
X10180320Y7994970D02*
D03*
X9413126Y7845095D02*
D03*
X5905500Y3848100D02*
D03*
X10180320Y8047670D02*
D03*
X9782200Y7994983D02*
D03*
X9413126Y7792395D02*
D03*
X5905500Y3795400D02*
D03*
X10154920Y7517323D02*
D03*
X9775790Y7426960D02*
D03*
X10154920Y7570023D02*
D03*
X9723091Y7426960D02*
D03*
X6159500Y3822724D02*
D03*
X6122235Y3785459D02*
D03*
X6637020Y6921810D02*
D03*
Y6763710D02*
D03*
X2956560Y6764020D02*
D03*
X2827020D02*
D03*
X2702560D02*
D03*
X2697480Y3962400D02*
D03*
X2824480D02*
D03*
X2956560D02*
D03*
X4777740Y6012180D02*
D03*
X4845799Y6352483D02*
D03*
X4658360Y6062980D02*
D03*
X4541106Y6232950D02*
D03*
X4437980Y6033730D02*
D03*
X4303798Y6078848D02*
D03*
X3759200Y6197600D02*
D03*
X3947160Y6322060D02*
D03*
X3878985Y6086466D02*
D03*
X3614722Y6037832D02*
D03*
X3594100Y6296660D02*
D03*
X2811780Y6327140D02*
D03*
X2900680Y6240780D02*
D03*
X3088640Y6172200D02*
D03*
X2918460Y6073140D02*
D03*
X2989580Y6035040D02*
D03*
X2773680Y6027420D02*
D03*
X2905760Y3373120D02*
D03*
X2733040Y3246120D02*
D03*
X2768600Y3352800D02*
D03*
X2840851Y3282718D02*
D03*
X3126155Y3374751D02*
D03*
X3558540Y3385820D02*
D03*
X4522940Y3385371D02*
D03*
X4691432Y3389619D02*
D03*
X4340289Y3235994D02*
D03*
X4622761Y3262895D02*
D03*
X4366484Y3377583D02*
D03*
X3954780Y3406140D02*
D03*
X3731260Y3370580D02*
D03*
X3843020Y3248660D02*
D03*
X3604260Y3218180D02*
D03*
X3053080Y3225800D02*
D03*
X1328420Y6911340D02*
D03*
X1130300Y6715760D02*
D03*
X1346200Y4993640D02*
D03*
X1272540D02*
D03*
Y4912360D02*
D03*
X1346200D02*
D03*
X1272540Y4719320D02*
D03*
X1346200D02*
D03*
X1272540Y4630420D02*
D03*
X1346200D02*
D03*
Y4442460D02*
D03*
X1272540D02*
D03*
X485140Y5062220D02*
D03*
X563880Y5064760D02*
D03*
X508000Y5151120D02*
D03*
X378460D02*
D03*
X246380D02*
D03*
X142240D02*
D03*
X73660Y5074920D02*
D03*
Y5001260D02*
D03*
Y4930140D02*
D03*
X1290320Y6273800D02*
D03*
X1358900D02*
D03*
X1292860Y6192520D02*
D03*
X1358900D02*
D03*
X1297940Y5897880D02*
D03*
X1358900Y5900420D02*
D03*
X1346200Y5717540D02*
D03*
X1275080D02*
D03*
X637540Y6245860D02*
D03*
Y6299200D02*
D03*
X574040Y6245860D02*
D03*
Y6299200D02*
D03*
X484420Y4368800D02*
D03*
Y5639837D02*
D03*
X360680Y5801360D02*
D03*
X449580D02*
D03*
X533400D02*
D03*
X414020Y4559300D02*
D03*
X472440D02*
D03*
X530995Y4557608D02*
D03*
X228600Y6451600D02*
D03*
Y6400800D02*
D03*
X177800D02*
D03*
Y6451600D02*
D03*
X939800Y6807200D02*
D03*
Y6731000D02*
D03*
Y6654800D02*
D03*
X990600D02*
D03*
Y6731000D02*
D03*
Y6807200D02*
D03*
X1953050Y3446990D02*
D03*
X2057190Y3546050D02*
D03*
X1841290Y3553670D02*
D03*
X2057190Y3767030D02*
D03*
X2168950Y3660350D02*
D03*
X1950510D02*
D03*
X1445260Y4157980D02*
D03*
X1338580Y4272280D02*
D03*
X1229360Y4165600D02*
D03*
X1341120Y4058920D02*
D03*
X1557020Y4272280D02*
D03*
X1445260Y4378960D02*
D03*
X1681480Y6835140D02*
D03*
X1752600Y6758940D02*
D03*
X1856740Y6865620D02*
D03*
X1783080Y6939280D02*
D03*
X1356360Y7155180D02*
D03*
X1280160Y7231380D02*
D03*
X1463040Y7264400D02*
D03*
X1386840Y7338060D02*
D03*
X927100Y3314700D02*
D03*
X962660Y3350260D02*
D03*
X2319020Y3322320D02*
D03*
X5212080Y3812540D02*
D03*
X4733116Y3501942D02*
D03*
X4352116D02*
D03*
X3209116D02*
D03*
X3082116D02*
D03*
X2574116D02*
D03*
X5114116Y6309292D02*
D03*
X4733116D02*
D03*
X4352116D02*
D03*
X3209116D02*
D03*
X3082116D02*
D03*
X2574116D02*
D03*
X2320116D02*
D03*
X144780Y5662380D02*
D03*
Y6093460D02*
D03*
Y4823460D02*
D03*
Y4392380D02*
D03*
X5862321Y4135595D02*
D03*
X5941733Y4013471D02*
D03*
X5867295Y3886100D02*
D03*
X6215380Y3828883D02*
D03*
X6065852Y3799923D02*
D03*
X5920740Y3743960D02*
D03*
X5935980Y3571240D02*
D03*
X6067354Y3494948D02*
D03*
X6197600Y3423920D02*
D03*
X9223700Y8651240D02*
D03*
X9350700D02*
D03*
X9477700D02*
D03*
X9604700Y8653780D02*
D03*
X7830820D02*
D03*
X7964480D02*
D03*
X8091480Y8652510D02*
D03*
X8218480Y8653780D02*
D03*
X8397240Y8754866D02*
D03*
X9679940Y8727440D02*
D03*
X9378000Y7659752D02*
D03*
X6324600Y3319780D02*
D03*
Y3276280D02*
D03*
X6464300Y3624580D02*
D03*
X6537960D02*
D03*
X6393180D02*
D03*
X8120380Y4775200D02*
D03*
X8067040D02*
D03*
Y4724400D02*
D03*
X8120380D02*
D03*
X7889240Y4777740D02*
D03*
X7835900D02*
D03*
Y4726940D02*
D03*
X7889240D02*
D03*
X8120380Y4655820D02*
D03*
X8067040D02*
D03*
Y4605020D02*
D03*
X8120380D02*
D03*
X7889240Y4658360D02*
D03*
X7835900D02*
D03*
Y4607560D02*
D03*
X7889240D02*
D03*
X8120380Y4528820D02*
D03*
X8067040D02*
D03*
Y4478020D02*
D03*
X8120380D02*
D03*
X7889240Y4528820D02*
D03*
X7835900D02*
D03*
Y4478020D02*
D03*
X7889240D02*
D03*
X7800340Y6344920D02*
D03*
X7731760Y6342380D02*
D03*
X7670800D02*
D03*
X7609840D02*
D03*
X7551420D02*
D03*
X7800340Y6225540D02*
D03*
X7731760D02*
D03*
X7670800D02*
D03*
X7609840D02*
D03*
X7551420D02*
D03*
X7704826Y6455674D02*
D03*
X7767320Y6456680D02*
D03*
X7830820D02*
D03*
X7008713Y6453485D02*
D03*
X7006156Y6556814D02*
D03*
X7048500Y6106926D02*
D03*
X7053580Y6266490D02*
D03*
X7927150Y6954899D02*
D03*
X7770050D02*
D03*
X8787191Y6582990D02*
D03*
Y6431970D02*
D03*
X10403363Y7411375D02*
D03*
X10441940Y7447280D02*
D03*
X9821887Y7939280D02*
D03*
X10345420Y8034020D02*
D03*
X8875264Y5407940D02*
D03*
X8762258Y5515082D02*
D03*
X8785140Y4921385D02*
D03*
X6235700Y3932891D02*
D03*
X7503160Y4683760D02*
D03*
X7762240Y4800600D02*
D03*
X7764420Y4881880D02*
D03*
X7680777Y4921885D02*
D03*
X7922260Y3289300D02*
D03*
X7830820Y3291840D02*
D03*
X8006080Y3289300D02*
D03*
X7741920Y3291840D02*
D03*
X7680777Y4841875D02*
D03*
X8553519Y3328601D02*
D03*
X8229600Y3289300D02*
D03*
X8577580Y3828883D02*
D03*
X8778240Y3952240D02*
D03*
X8229321Y7668455D02*
D03*
X10313234Y4043680D02*
D03*
X9255760Y4859020D02*
D03*
Y4953000D02*
D03*
Y4907280D02*
D03*
X9232900Y4101315D02*
D03*
X9298940D02*
D03*
X9232900Y4045762D02*
D03*
X9298940D02*
D03*
X7955280Y7289800D02*
D03*
Y7406640D02*
D03*
Y7348220D02*
D03*
X9128760Y7350760D02*
D03*
Y7409180D02*
D03*
Y7292340D02*
D03*
X9514840Y3733800D02*
D03*
X9240520Y3731260D02*
D03*
X9306560D02*
D03*
X9372600D02*
D03*
X9446260Y3732698D02*
D03*
X10462260Y3421380D02*
D03*
X10375900D02*
D03*
X10462260Y3347720D02*
D03*
X10375900D02*
D03*
X10396220Y3271520D02*
D03*
X10309860D02*
D03*
X10325100Y3208020D02*
D03*
X10238740D02*
D03*
X10223500Y3139440D02*
D03*
X10137140D02*
D03*
X10165080Y3202940D02*
D03*
X10078720D02*
D03*
X10002520Y3159760D02*
D03*
X9916160D02*
D03*
X9751486Y3130559D02*
D03*
X9677826Y3133099D02*
D03*
X9162206Y3138179D02*
D03*
X9334926Y3135639D02*
D03*
X9591466Y3133099D02*
D03*
X9837846Y3130559D02*
D03*
X9507646Y3133099D02*
D03*
X9248566Y3135639D02*
D03*
X9075846Y3138179D02*
D03*
X9421286Y3133099D02*
D03*
X10462260Y3505200D02*
D03*
X10375900D02*
D03*
X10462260Y3563620D02*
D03*
X10375900D02*
D03*
X10462260Y3622040D02*
D03*
X10375900D02*
D03*
X10462260Y3677920D02*
D03*
X10375900D02*
D03*
Y3733800D02*
D03*
X10462260D02*
D03*
X9065260Y4051300D02*
D03*
Y4099560D02*
D03*
X9121140Y4051300D02*
D03*
Y4099560D02*
D03*
X9080500Y4333240D02*
D03*
X9141460Y4335780D02*
D03*
Y4386580D02*
D03*
X9123680Y5161280D02*
D03*
X9075420D02*
D03*
Y5212080D02*
D03*
X9123680Y5260340D02*
D03*
X9075420D02*
D03*
X9123680Y4871720D02*
D03*
Y4917440D02*
D03*
Y4963160D02*
D03*
X9516708Y7530428D02*
D03*
X9321115Y8173677D02*
D03*
X9281160Y8064500D02*
D03*
X8481060Y8067040D02*
D03*
X8351520Y7538720D02*
D03*
X8061960Y6207760D02*
D03*
X8221980Y8115300D02*
D03*
Y8168640D02*
D03*
X9387423Y6301740D02*
D03*
X9296400Y6510020D02*
D03*
X9385300Y6418580D02*
D03*
X9387423Y6510020D02*
D03*
X9494520D02*
D03*
X9491980Y6416040D02*
D03*
Y6301740D02*
D03*
X9596953D02*
D03*
Y6416040D02*
D03*
Y6510020D02*
D03*
X9680942Y7395325D02*
D03*
X7394660Y4297680D02*
D03*
Y4940300D02*
D03*
X8354060Y5404397D02*
D03*
X6936740Y5953760D02*
D03*
X7241540Y5765800D02*
D03*
X9253220Y5561650D02*
D03*
X9256539Y5706212D02*
D03*
X9230360Y5821680D02*
D03*
X9489857Y6115364D02*
D03*
X9619015Y6128871D02*
D03*
X10038737Y6204988D02*
D03*
X9804710Y6217620D02*
D03*
X9123680Y7162800D02*
D03*
X9230360Y7155180D02*
D03*
X9113958Y7050720D02*
D03*
X8974711Y6882509D02*
D03*
X8971280Y6764020D02*
D03*
X8872220Y6776720D02*
D03*
X7477760Y7091749D02*
D03*
X7541191Y7152640D02*
D03*
X7249160Y7160260D02*
D03*
X7360029Y7049391D02*
D03*
X7272122Y6713118D02*
D03*
X7227191Y6887589D02*
D03*
X7044164Y6660497D02*
D03*
X7040880Y6769100D02*
D03*
X7737257Y6532136D02*
D03*
X7634823D02*
D03*
X9940501Y4742180D02*
D03*
X7849677Y5850347D02*
D03*
X7854795Y6117545D02*
D03*
X7708696Y5977168D02*
D03*
X7844353Y5992917D02*
D03*
X7737257Y6115364D02*
D03*
X9489857Y5988241D02*
D03*
X9596953Y5992917D02*
D03*
X9825380Y7198129D02*
D03*
X9823500Y7393389D02*
D03*
X10137800Y7396160D02*
D03*
X10139680Y7200900D02*
D03*
X6299200Y3416300D02*
D03*
X10055140Y4865549D02*
D03*
X9938623Y6891276D02*
D03*
X9954260Y5885180D02*
D03*
X9953926Y5819842D02*
D03*
X10099040Y3982720D02*
D03*
X9931400Y5603240D02*
D03*
X10033000Y5057140D02*
D03*
X9941560D02*
D03*
X9987280D02*
D03*
Y4229100D02*
D03*
X9941560D02*
D03*
X10033000D02*
D03*
X10317102Y5331780D02*
D03*
X10319458Y4503740D02*
D03*
Y4874260D02*
D03*
X7284720Y4300220D02*
D03*
Y4406900D02*
D03*
X7287260Y4508500D02*
D03*
Y4620260D02*
D03*
Y4724400D02*
D03*
Y4833620D02*
D03*
Y4937760D02*
D03*
Y5044440D02*
D03*
Y5153660D02*
D03*
X7716520Y5511800D02*
D03*
X7823200Y5466080D02*
D03*
X7995920Y5506720D02*
D03*
X7874762Y5404400D02*
D03*
X7994650D02*
D03*
X8114538D02*
D03*
X8116763Y5506340D02*
D03*
X8237220D02*
D03*
Y5404400D02*
D03*
X8356600Y5514340D02*
D03*
X8754660Y4803140D02*
D03*
X8867140D02*
D03*
X8754660Y4681220D02*
D03*
X8867140Y4559300D02*
D03*
Y4681220D02*
D03*
X8867885Y4449892D02*
D03*
X8873359Y4310155D02*
D03*
X8788360Y4206240D02*
D03*
X8754660Y4449892D02*
D03*
Y4561840D02*
D03*
X7785100Y3980180D02*
D03*
X7952740Y3937000D02*
D03*
X7833360Y4039320D02*
D03*
X7955280D02*
D03*
X8074025D02*
D03*
X8181340Y3934460D02*
D03*
X8074660D02*
D03*
X8288020D02*
D03*
X8529320Y3937000D02*
D03*
X8633460Y4006022D02*
D03*
X8112760Y5763260D02*
D03*
X8235200Y5761902D02*
D03*
X8054340Y5943600D02*
D03*
Y5877560D02*
D03*
Y5819140D02*
D03*
X8295640Y6022340D02*
D03*
Y5971540D02*
D03*
Y5918200D02*
D03*
X8173720Y6891020D02*
D03*
X8008620Y6959600D02*
D03*
X7528560Y5880820D02*
D03*
X7635240D02*
D03*
X7741920D02*
D03*
X7421880Y5773420D02*
D03*
X7741920D02*
D03*
X7635240D02*
D03*
X7528560D02*
D03*
X9125011Y5819140D02*
D03*
X7125418Y6073860D02*
D03*
Y5973362D02*
D03*
X7185658Y5920740D02*
D03*
Y6027420D02*
D03*
X7084060Y6344920D02*
D03*
X7185658Y6347460D02*
D03*
Y6667500D02*
D03*
X7544743Y6894660D02*
D03*
X7643960D02*
D03*
X7722700D02*
D03*
X7579360Y6834420D02*
D03*
X7688580D02*
D03*
X8195502Y6705600D02*
D03*
X8162847Y6385560D02*
D03*
Y6492240D02*
D03*
X8223087Y6549553D02*
D03*
X8222533Y6439453D02*
D03*
X9786620Y5882640D02*
D03*
Y5941060D02*
D03*
X9758680Y5821680D02*
D03*
X9679750Y6954899D02*
D03*
X9522650D02*
D03*
X8817778Y6109684D02*
D03*
Y6265196D02*
D03*
X8834120Y5920740D02*
D03*
X8832632Y6027420D02*
D03*
X9387423Y5777865D02*
D03*
X10045696Y5930904D02*
D03*
Y5979164D02*
D03*
Y6022344D02*
D03*
X9494520Y5777865D02*
D03*
X9601200Y5850347D02*
D03*
X9915447Y6385560D02*
D03*
Y6492240D02*
D03*
X9977120Y6548120D02*
D03*
X9975133Y6436913D02*
D03*
X9334500Y6834420D02*
D03*
X9441180D02*
D03*
X8835172Y6667500D02*
D03*
X8938258D02*
D03*
X8830092Y6347460D02*
D03*
X8938258D02*
D03*
X9494520Y5880820D02*
D03*
X9272411Y6894971D02*
D03*
X9487620Y6894660D02*
D03*
X9387840D02*
D03*
X9948102Y6705600D02*
D03*
X10317480Y4556760D02*
D03*
X10205720D02*
D03*
X10261600D02*
D03*
Y5384800D02*
D03*
X10205720D02*
D03*
X10317480D02*
D03*
X8938258Y6027420D02*
D03*
Y5920740D02*
D03*
X9280083Y5880820D02*
D03*
X9387423D02*
D03*
X9240520Y3319780D02*
D03*
X9189720D02*
D03*
X9240520Y3268980D02*
D03*
X9189720D02*
D03*
X9240520Y3218180D02*
D03*
X9189720D02*
D03*
X6365240Y3416300D02*
D03*
X7734300Y5044440D02*
D03*
X8373424Y5037223D02*
D03*
X8214360Y5041900D02*
D03*
X8294337Y4986627D02*
D03*
X7976681Y5042370D02*
D03*
X7893135Y5042246D02*
D03*
X8430934Y4793803D02*
D03*
X8352462Y4673915D02*
D03*
X8352625Y4569907D02*
D03*
X8384707Y4422846D02*
D03*
X8339260Y4741799D02*
D03*
Y4501896D02*
D03*
%TF.MD5,30016ff1cc404605d2d72c8f51ec32a7*%
M02*
