%TF.GenerationSoftware,Altium Limited,Altium Designer,24.0.1 (36)*%
G04 Layer_Physical_Order=2*
G04 Layer_Color=36540*
%FSLAX45Y45*%
%MOMM*%
%TF.SameCoordinates,DB20E3DF-1D37-4F49-95B0-90F2ADAE02A5*%
%TF.FilePolarity,Positive*%
%TF.FileFunction,Copper,L2,Inr,Signal*%
%TF.Part,Single*%
G01*
G75*
%TA.AperFunction,Conductor*%
%ADD10C,0.12954*%
%TA.AperFunction,ComponentPad*%
%ADD37C,2.99974*%
%ADD38C,1.19888*%
%ADD39C,1.30000*%
%ADD40C,1.00000*%
%TA.AperFunction,ViaPad*%
%ADD41C,0.40000*%
G36*
X10259303Y8892906D02*
X10297303Y8882744D01*
X10333649Y8867706D01*
X10367719Y8848048D01*
X10398928Y8824106D01*
X10426742Y8796293D01*
X10450683Y8765083D01*
X10470342Y8731014D01*
X10485380Y8694667D01*
X10495541Y8656668D01*
X10500650Y8617667D01*
X10500635Y8598000D01*
X10500635D01*
X10500635Y8597999D01*
X10500635Y3398020D01*
X10500639Y3378356D01*
X10495512Y3339363D01*
X10485338Y3301373D01*
X10470292Y3265037D01*
X10450630Y3230977D01*
X10426690Y3199774D01*
X10398880Y3171965D01*
X10367678Y3148025D01*
X10333618Y3128363D01*
X10297282Y3113316D01*
X10259292Y3103143D01*
X10220299Y3098016D01*
X10200635Y3098020D01*
X300635Y3097999D01*
X280974Y3098006D01*
X241990Y3103151D01*
X204010Y3113337D01*
X167684Y3128392D01*
X133632Y3148057D01*
X102437Y3171996D01*
X74633Y3199801D01*
X50693Y3230996D01*
X31028Y3265048D01*
X15973Y3301374D01*
X5787Y3339353D01*
X642Y3378337D01*
X635Y3397999D01*
X634Y8597999D01*
X630Y8617663D01*
X5757Y8656656D01*
X15931Y8694646D01*
X30978Y8730982D01*
X50639Y8765043D01*
X74580Y8796245D01*
X102389Y8824054D01*
X133592Y8847995D01*
X167652Y8867656D01*
X203988Y8882703D01*
X241978Y8892877D01*
X280971Y8898003D01*
X300635Y8897999D01*
X300635Y8898000D01*
X10200635Y8897999D01*
X10220302Y8898014D01*
X10259303Y8892906D01*
D02*
G37*
%LPC*%
G36*
X429454Y8770535D02*
X400491D01*
X399118Y8769966D01*
X397645Y8770161D01*
X369668Y8762664D01*
X368489Y8761759D01*
X367016Y8761566D01*
X341933Y8747084D01*
X341028Y8745905D01*
X339655Y8745336D01*
X319175Y8724856D01*
X318606Y8723483D01*
X317427Y8722578D01*
X302945Y8697495D01*
X302751Y8696022D01*
X301847Y8694843D01*
X294350Y8666866D01*
X294544Y8665393D01*
X293976Y8664020D01*
Y8635057D01*
X294544Y8633684D01*
X294350Y8632210D01*
X301847Y8604234D01*
X302751Y8603055D01*
X302945Y8601582D01*
X317427Y8576498D01*
X318606Y8575593D01*
X319175Y8574221D01*
X339655Y8553740D01*
X341028Y8553172D01*
X341933Y8551993D01*
X367016Y8537511D01*
X368489Y8537317D01*
X369668Y8536412D01*
X397645Y8528916D01*
X399118Y8529110D01*
X400491Y8528541D01*
X429454D01*
X430827Y8529110D01*
X432301Y8528916D01*
X460277Y8536412D01*
X461456Y8537317D01*
X462929Y8537511D01*
X488013Y8551993D01*
X488917Y8553172D01*
X490290Y8553740D01*
X510771Y8574221D01*
X511339Y8575594D01*
X512518Y8576498D01*
X527000Y8601581D01*
X527194Y8603055D01*
X528099Y8604234D01*
X535595Y8632210D01*
X535401Y8633684D01*
X535969Y8635057D01*
Y8664020D01*
X535401Y8665393D01*
X535595Y8666866D01*
X528099Y8694843D01*
X527194Y8696022D01*
X527000Y8697495D01*
X512518Y8722578D01*
X511339Y8723483D01*
X510771Y8724856D01*
X490290Y8745336D01*
X488917Y8745905D01*
X488013Y8747084D01*
X462929Y8761566D01*
X461456Y8761760D01*
X460277Y8762664D01*
X432301Y8770161D01*
X430827Y8769966D01*
X429454Y8770535D01*
D02*
G37*
G36*
X6940297Y8736801D02*
X6920632Y8736797D01*
X1820635Y8736797D01*
X1820632Y8736796D01*
X1820631Y8736797D01*
X1800970Y8736790D01*
X1800268Y8736499D01*
X1799535Y8736695D01*
X1760551Y8731551D01*
X1759894Y8731171D01*
X1759141Y8731270D01*
X1721161Y8721083D01*
X1720559Y8720621D01*
X1719800Y8720621D01*
X1683473Y8705566D01*
X1682937Y8705030D01*
X1682184Y8704930D01*
X1648132Y8685265D01*
X1647670Y8684663D01*
X1646937Y8684466D01*
X1615742Y8660526D01*
X1615363Y8659869D01*
X1614661Y8659579D01*
X1586856Y8631773D01*
X1586566Y8631072D01*
X1585908Y8630692D01*
X1561969Y8599498D01*
X1561772Y8598764D01*
X1561170Y8598302D01*
X1541504Y8564251D01*
X1541405Y8563498D01*
X1540868Y8562961D01*
X1525814Y8526635D01*
X1525814Y8525876D01*
X1525351Y8525274D01*
X1515165Y8487294D01*
X1515263Y8486541D01*
X1514884Y8485884D01*
X1509739Y8446900D01*
X1509936Y8446166D01*
X1509645Y8445465D01*
X1509638Y8425804D01*
X1509639Y8425802D01*
X1509638Y8425800D01*
X1509638Y7324700D01*
X1509639Y7324698D01*
X1509638Y7324696D01*
X1509645Y7305035D01*
X1509936Y7304333D01*
X1509740Y7303600D01*
X1514884Y7264616D01*
X1515264Y7263959D01*
X1515165Y7263206D01*
X1525352Y7225226D01*
X1525814Y7224624D01*
X1525814Y7223865D01*
X1540869Y7187539D01*
X1541406Y7187002D01*
X1541505Y7186249D01*
X1561170Y7152198D01*
X1561772Y7151736D01*
X1561969Y7151002D01*
X1585908Y7119807D01*
X1586566Y7119428D01*
X1586856Y7118726D01*
X1614661Y7090921D01*
X1615363Y7090631D01*
X1615742Y7089973D01*
X1646937Y7066034D01*
X1647670Y7065837D01*
X1648133Y7065235D01*
X1682184Y7045570D01*
X1682937Y7045471D01*
X1683474Y7044934D01*
X1719800Y7029879D01*
X1720559Y7029879D01*
X1721161Y7029416D01*
X1759141Y7019230D01*
X1759893Y7019329D01*
X1760551Y7018949D01*
X1799535Y7013805D01*
X1800268Y7014001D01*
X1800970Y7013710D01*
X1820631Y7013703D01*
X1820633Y7013704D01*
X1820635Y7013703D01*
X6920633Y7013703D01*
X6940297Y7013699D01*
X6940999Y7013989D01*
X6941733Y7013792D01*
X6980725Y7018919D01*
X6981384Y7019299D01*
X6982136Y7019200D01*
X7020126Y7029374D01*
X7020729Y7029836D01*
X7021489D01*
X7057825Y7044882D01*
X7058362Y7045419D01*
X7059115Y7045519D01*
X7093176Y7065180D01*
X7093638Y7065783D01*
X7094372Y7065980D01*
X7125575Y7089920D01*
X7125955Y7090578D01*
X7126656Y7090869D01*
X7154465Y7118678D01*
X7154756Y7119380D01*
X7155414Y7119760D01*
X7179355Y7150962D01*
X7179551Y7151696D01*
X7180154Y7152158D01*
X7199816Y7186219D01*
X7199915Y7186972D01*
X7200452Y7187510D01*
X7215499Y7223846D01*
Y7224606D01*
X7215961Y7225209D01*
X7226135Y7263198D01*
X7226035Y7263951D01*
X7226415Y7264609D01*
X7231542Y7303602D01*
X7231345Y7304336D01*
X7231636Y7305038D01*
X7231632Y7324702D01*
X7231632Y8425800D01*
X7231632Y8425801D01*
X7231636Y8445462D01*
X7231345Y8446163D01*
X7231542Y8446898D01*
X7226416Y8485890D01*
X7226036Y8486549D01*
X7226135Y8487302D01*
X7215961Y8525291D01*
X7215499Y8525894D01*
Y8526654D01*
X7200452Y8562990D01*
X7199915Y8563527D01*
X7199816Y8564281D01*
X7180154Y8598341D01*
X7179552Y8598804D01*
X7179355Y8599538D01*
X7155414Y8630740D01*
X7154757Y8631120D01*
X7154466Y8631822D01*
X7126657Y8659631D01*
X7125955Y8659922D01*
X7125575Y8660580D01*
X7094373Y8684520D01*
X7093639Y8684717D01*
X7093176Y8685319D01*
X7059115Y8704981D01*
X7058362Y8705080D01*
X7057825Y8705618D01*
X7021489Y8720664D01*
X7020729D01*
X7020126Y8721127D01*
X6982136Y8731300D01*
X6981383Y8731201D01*
X6980725Y8731581D01*
X6941732Y8736707D01*
X6940998Y8736511D01*
X6940297Y8736801D01*
D02*
G37*
G36*
X9613253Y8696780D02*
X9596147D01*
X9580342Y8690234D01*
X9568246Y8678138D01*
X9561700Y8662333D01*
Y8645227D01*
X9568246Y8629422D01*
X9580342Y8617326D01*
X9596147Y8610780D01*
X9613253D01*
X9629057Y8617326D01*
X9641153Y8629422D01*
X9647700Y8645227D01*
Y8662333D01*
X9641153Y8678138D01*
X9629057Y8690234D01*
X9613253Y8696780D01*
D02*
G37*
G36*
X8227033D02*
X8209927D01*
X8194123Y8690234D01*
X8182027Y8678138D01*
X8175480Y8662333D01*
Y8645227D01*
X8182027Y8629422D01*
X8194123Y8617326D01*
X8209927Y8610780D01*
X8227033D01*
X8242838Y8617326D01*
X8254934Y8629422D01*
X8261480Y8645227D01*
Y8662333D01*
X8254934Y8678138D01*
X8242838Y8690234D01*
X8227033Y8696780D01*
D02*
G37*
G36*
X7973033D02*
X7955927D01*
X7940123Y8690234D01*
X7928027Y8678138D01*
X7921480Y8662333D01*
Y8645227D01*
X7928027Y8629422D01*
X7940123Y8617326D01*
X7955927Y8610780D01*
X7973033D01*
X7988838Y8617326D01*
X8000934Y8629422D01*
X8007480Y8645227D01*
Y8662333D01*
X8000934Y8678138D01*
X7988838Y8690234D01*
X7973033Y8696780D01*
D02*
G37*
G36*
X7839373D02*
X7822267D01*
X7806462Y8690234D01*
X7794366Y8678138D01*
X7787820Y8662333D01*
Y8645227D01*
X7794366Y8629422D01*
X7806462Y8617326D01*
X7822267Y8610780D01*
X7839373D01*
X7855178Y8617326D01*
X7867274Y8629422D01*
X7873820Y8645227D01*
Y8662333D01*
X7867274Y8678138D01*
X7855178Y8690234D01*
X7839373Y8696780D01*
D02*
G37*
G36*
X8100033Y8695510D02*
X8082927D01*
X8067123Y8688964D01*
X8055027Y8676868D01*
X8048480Y8661063D01*
Y8643957D01*
X8055027Y8628152D01*
X8067123Y8616056D01*
X8082927Y8609510D01*
X8100033D01*
X8115838Y8616056D01*
X8127934Y8628152D01*
X8134480Y8643957D01*
Y8661063D01*
X8127934Y8676868D01*
X8115838Y8688964D01*
X8100033Y8695510D01*
D02*
G37*
G36*
X9486253Y8694240D02*
X9469147D01*
X9453342Y8687694D01*
X9441246Y8675598D01*
X9434700Y8659793D01*
Y8642687D01*
X9441246Y8626882D01*
X9453342Y8614786D01*
X9469147Y8608240D01*
X9486253D01*
X9502057Y8614786D01*
X9514153Y8626882D01*
X9520700Y8642687D01*
Y8659793D01*
X9514153Y8675598D01*
X9502057Y8687694D01*
X9486253Y8694240D01*
D02*
G37*
G36*
X9359253D02*
X9342147D01*
X9326342Y8687694D01*
X9314246Y8675598D01*
X9307700Y8659793D01*
Y8642687D01*
X9314246Y8626882D01*
X9326342Y8614786D01*
X9342147Y8608240D01*
X9359253D01*
X9375057Y8614786D01*
X9387153Y8626882D01*
X9393700Y8642687D01*
Y8659793D01*
X9387153Y8675598D01*
X9375057Y8687694D01*
X9359253Y8694240D01*
D02*
G37*
G36*
X9232253D02*
X9215147D01*
X9199342Y8687694D01*
X9187246Y8675598D01*
X9180700Y8659793D01*
Y8642687D01*
X9187246Y8626882D01*
X9199342Y8614786D01*
X9215147Y8608240D01*
X9232253D01*
X9248057Y8614786D01*
X9260153Y8626882D01*
X9266700Y8642687D01*
Y8659793D01*
X9260153Y8675598D01*
X9248057Y8687694D01*
X9232253Y8694240D01*
D02*
G37*
G36*
X9988776Y8440322D02*
X9975648D01*
X9973627Y8439485D01*
X9971440D01*
X9959311Y8434461D01*
X9957764Y8432915D01*
X9955743Y8432078D01*
X9946460Y8422795D01*
X9945623Y8420773D01*
X9944077Y8419227D01*
X9939053Y8407098D01*
Y8404911D01*
X9938216Y8402890D01*
Y8389762D01*
X9939053Y8387741D01*
Y8385553D01*
X9944077Y8373424D01*
X9945623Y8371878D01*
X9946460Y8369857D01*
X9955743Y8360574D01*
X9957764Y8359737D01*
X9959311Y8358190D01*
X9971440Y8353166D01*
X9973627D01*
X9975648Y8352329D01*
X9988776D01*
X9990797Y8353166D01*
X9992985D01*
X10005114Y8358190D01*
X10006660Y8359737D01*
X10008681Y8360574D01*
X10017964Y8369857D01*
X10018801Y8371877D01*
X10020348Y8373424D01*
X10025372Y8385553D01*
Y8387741D01*
X10026209Y8389762D01*
Y8402890D01*
X10025372Y8404911D01*
Y8407098D01*
X10020348Y8419227D01*
X10018801Y8420774D01*
X10017964Y8422795D01*
X10008681Y8432078D01*
X10006660Y8432915D01*
X10005113Y8434461D01*
X9992985Y8439485D01*
X9990797D01*
X9988776Y8440322D01*
D02*
G37*
G36*
X8742197Y8491474D02*
X8723739D01*
X8705909Y8486697D01*
X8689923Y8477467D01*
X8676871Y8464415D01*
X8667642Y8448429D01*
X8662864Y8430599D01*
Y8412141D01*
X8667642Y8394311D01*
X8676871Y8378325D01*
X8689923Y8365273D01*
X8705909Y8356043D01*
X8723739Y8351266D01*
X8742197D01*
X8760027Y8356043D01*
X8776013Y8365273D01*
X8789065Y8378325D01*
X8798295Y8394311D01*
X8803072Y8412141D01*
Y8430599D01*
X8798295Y8448429D01*
X8789065Y8464415D01*
X8776013Y8477467D01*
X8760027Y8486697D01*
X8742197Y8491474D01*
D02*
G37*
G36*
X7453715D02*
X7435257D01*
X7417427Y8486697D01*
X7401441Y8477467D01*
X7388389Y8464415D01*
X7379159Y8448429D01*
X7374382Y8430599D01*
Y8412141D01*
X7379159Y8394311D01*
X7388389Y8378325D01*
X7401441Y8365273D01*
X7417427Y8356043D01*
X7435257Y8351266D01*
X7453715D01*
X7471545Y8356043D01*
X7487531Y8365273D01*
X7500583Y8378325D01*
X7509813Y8394311D01*
X7514590Y8412141D01*
Y8430599D01*
X7509813Y8448429D01*
X7500583Y8464415D01*
X7487531Y8477467D01*
X7471545Y8486697D01*
X7453715Y8491474D01*
D02*
G37*
G36*
X8742197Y8291322D02*
X8723739D01*
X8705909Y8286545D01*
X8689923Y8277315D01*
X8676871Y8264263D01*
X8667642Y8248277D01*
X8662864Y8230447D01*
Y8211989D01*
X8667642Y8194159D01*
X8676871Y8178173D01*
X8689923Y8165121D01*
X8705909Y8155891D01*
X8723739Y8151114D01*
X8742197D01*
X8760027Y8155891D01*
X8776013Y8165121D01*
X8789065Y8178173D01*
X8798295Y8194159D01*
X8803072Y8211989D01*
Y8230447D01*
X8798295Y8248277D01*
X8789065Y8264263D01*
X8776013Y8277315D01*
X8760027Y8286545D01*
X8742197Y8291322D01*
D02*
G37*
G36*
X7453715D02*
X7435257D01*
X7417427Y8286545D01*
X7401441Y8277315D01*
X7388389Y8264263D01*
X7379159Y8248277D01*
X7374382Y8230447D01*
Y8211989D01*
X7379159Y8194159D01*
X7388389Y8178173D01*
X7401441Y8165121D01*
X7417427Y8155891D01*
X7435257Y8151114D01*
X7453715D01*
X7471545Y8155891D01*
X7487531Y8165121D01*
X7500583Y8178173D01*
X7509813Y8194159D01*
X7514590Y8211989D01*
Y8230447D01*
X7509813Y8248277D01*
X7500583Y8264263D01*
X7487531Y8277315D01*
X7471545Y8286545D01*
X7453715Y8291322D01*
D02*
G37*
G36*
X9329669Y8216677D02*
X9312562D01*
X9296758Y8210131D01*
X9284662Y8198035D01*
X9278116Y8182230D01*
Y8165124D01*
X9284662Y8149319D01*
X9296758Y8137224D01*
X9312562Y8130677D01*
X9329669D01*
X9345473Y8137224D01*
X9357569Y8149319D01*
X9364115Y8165124D01*
Y8182230D01*
X9357569Y8198035D01*
X9345473Y8210131D01*
X9329669Y8216677D01*
D02*
G37*
G36*
X8230533Y8211640D02*
X8213427D01*
X8197622Y8205094D01*
X8185526Y8192998D01*
X8178980Y8177193D01*
Y8160087D01*
X8185526Y8144282D01*
X8194130Y8135678D01*
X8189582Y8131130D01*
X8183036Y8115326D01*
Y8098220D01*
X8189582Y8082415D01*
X8201678Y8070319D01*
X8217483Y8063773D01*
X8234589D01*
X8250393Y8070319D01*
X8262489Y8082415D01*
X8269036Y8098220D01*
Y8115326D01*
X8262489Y8131130D01*
X8253885Y8139734D01*
X8258434Y8144282D01*
X8264980Y8160087D01*
Y8177193D01*
X8258434Y8192998D01*
X8246338Y8205094D01*
X8230533Y8211640D01*
D02*
G37*
G36*
X8892057Y8191500D02*
X8873599D01*
X8855769Y8186723D01*
X8839783Y8177493D01*
X8826731Y8164441D01*
X8817502Y8148455D01*
X8812724Y8130625D01*
Y8112167D01*
X8817502Y8094337D01*
X8826731Y8078351D01*
X8839783Y8065299D01*
X8855769Y8056069D01*
X8873599Y8051292D01*
X8892057D01*
X8909887Y8056069D01*
X8925873Y8065299D01*
X8938925Y8078351D01*
X8948155Y8094337D01*
X8952932Y8112167D01*
Y8130625D01*
X8948155Y8148455D01*
X8938925Y8164441D01*
X8925873Y8177493D01*
X8909887Y8186723D01*
X8892057Y8191500D01*
D02*
G37*
G36*
X7603575D02*
X7585117D01*
X7567287Y8186723D01*
X7551301Y8177493D01*
X7538249Y8164441D01*
X7529019Y8148455D01*
X7524242Y8130625D01*
Y8112167D01*
X7529019Y8094337D01*
X7538249Y8078351D01*
X7551301Y8065299D01*
X7567287Y8056069D01*
X7585117Y8051292D01*
X7603575D01*
X7621405Y8056069D01*
X7637391Y8065299D01*
X7650443Y8078351D01*
X7659673Y8094337D01*
X7664450Y8112167D01*
Y8130625D01*
X7659673Y8148455D01*
X7650443Y8164441D01*
X7637391Y8177493D01*
X7621405Y8186723D01*
X7603575Y8191500D01*
D02*
G37*
G36*
X9289713Y8107500D02*
X9272607D01*
X9256802Y8100954D01*
X9244706Y8088858D01*
X9238160Y8073053D01*
Y8055947D01*
X9244706Y8040142D01*
X9256802Y8028046D01*
X9272607Y8021500D01*
X9289713D01*
X9305518Y8028046D01*
X9317614Y8040142D01*
X9324160Y8055947D01*
Y8073053D01*
X9317614Y8088858D01*
X9305518Y8100954D01*
X9289713Y8107500D01*
D02*
G37*
G36*
X10353973Y8077020D02*
X10336867D01*
X10321062Y8070474D01*
X10308966Y8058378D01*
X10302420Y8042573D01*
Y8025467D01*
X10308966Y8009662D01*
X10321062Y7997566D01*
X10336867Y7991020D01*
X10353973D01*
X10369778Y7997566D01*
X10381874Y8009662D01*
X10388420Y8025467D01*
Y8042573D01*
X10381874Y8058378D01*
X10369778Y8070474D01*
X10353973Y8077020D01*
D02*
G37*
G36*
X9790093Y8095333D02*
X9772987D01*
X9757182Y8088786D01*
X9745086Y8076690D01*
X9738540Y8060886D01*
Y8043779D01*
X9745086Y8027975D01*
X9751729Y8021333D01*
X9745086Y8014690D01*
X9738540Y7998886D01*
Y7981780D01*
X9745086Y7965975D01*
X9757182Y7953879D01*
X9772987Y7947333D01*
X9782699D01*
X9784916Y7944014D01*
Y7926908D01*
X9791463Y7911104D01*
X9803559Y7899008D01*
X9819363Y7892461D01*
X9836470D01*
X9852274Y7899008D01*
X9864370Y7911104D01*
X9870916Y7926908D01*
Y7944015D01*
X9864370Y7959819D01*
X9852274Y7971915D01*
X9836470Y7978461D01*
X9826757D01*
X9824540Y7981780D01*
Y7998886D01*
X9823142Y8002262D01*
X9856393Y8020035D01*
X9894219Y8031509D01*
X9933467Y8035375D01*
X9933558Y8035357D01*
X10145883D01*
X10148946Y8027962D01*
X10155589Y8021320D01*
X10148946Y8014678D01*
X10142400Y7998873D01*
Y7981767D01*
X10148946Y7965962D01*
X10161042Y7953866D01*
X10176847Y7947320D01*
X10193953D01*
X10209758Y7953866D01*
X10221854Y7965962D01*
X10228400Y7981767D01*
Y7998873D01*
X10221854Y8014678D01*
X10215211Y8021320D01*
X10221854Y8027962D01*
X10228400Y8043767D01*
Y8060873D01*
X10221854Y8076678D01*
X10209758Y8088774D01*
X10193953Y8095320D01*
X10176847D01*
X10161042Y8088774D01*
X10148946Y8076678D01*
X10145883Y8069283D01*
X9933558D01*
Y8070095D01*
X9887448Y8065554D01*
X9843109Y8052104D01*
X9837240Y8048967D01*
X9824540Y8056579D01*
Y8060886D01*
X9817994Y8076690D01*
X9805898Y8088786D01*
X9790093Y8095333D01*
D02*
G37*
G36*
X8892057Y7991348D02*
X8873599D01*
X8855769Y7986571D01*
X8839783Y7977341D01*
X8826731Y7964289D01*
X8817502Y7948303D01*
X8812724Y7930473D01*
Y7912015D01*
X8817502Y7894185D01*
X8826731Y7878199D01*
X8839783Y7865147D01*
X8855769Y7855917D01*
X8873599Y7851140D01*
X8892057D01*
X8909887Y7855917D01*
X8925873Y7865147D01*
X8938925Y7878199D01*
X8948155Y7894185D01*
X8952932Y7912015D01*
Y7930473D01*
X8948155Y7948303D01*
X8938925Y7964289D01*
X8925873Y7977341D01*
X8909887Y7986571D01*
X8892057Y7991348D01*
D02*
G37*
G36*
X7603575D02*
X7585117D01*
X7567287Y7986571D01*
X7551301Y7977341D01*
X7538249Y7964289D01*
X7529019Y7948303D01*
X7524242Y7930473D01*
Y7912015D01*
X7529019Y7894185D01*
X7538249Y7878199D01*
X7551301Y7865147D01*
X7567287Y7855917D01*
X7585117Y7851140D01*
X7603575D01*
X7621405Y7855917D01*
X7637391Y7865147D01*
X7650443Y7878199D01*
X7659673Y7894185D01*
X7664450Y7912015D01*
Y7930473D01*
X7659673Y7948303D01*
X7650443Y7964289D01*
X7637391Y7977341D01*
X7621405Y7986571D01*
X7603575Y7991348D01*
D02*
G37*
G36*
X889448Y7805564D02*
X860485D01*
X859112Y7804995D01*
X857639Y7805189D01*
X829662Y7797693D01*
X828483Y7796788D01*
X827010Y7796594D01*
X801927Y7782113D01*
X801022Y7780934D01*
X799649Y7780365D01*
X779169Y7759885D01*
X778600Y7758512D01*
X777421Y7757607D01*
X762939Y7732524D01*
X762745Y7731050D01*
X761841Y7729872D01*
X754344Y7701895D01*
X754538Y7700421D01*
X753970Y7699049D01*
Y7670085D01*
X754538Y7668712D01*
X754344Y7667239D01*
X761841Y7639262D01*
X762745Y7638084D01*
X762939Y7636610D01*
X777421Y7611527D01*
X778600Y7610622D01*
X779169Y7609249D01*
X799649Y7588769D01*
X801022Y7588200D01*
X801927Y7587021D01*
X827010Y7572540D01*
X828483Y7572346D01*
X829662Y7571441D01*
X857639Y7563944D01*
X859112Y7564139D01*
X860485Y7563570D01*
X889448D01*
X890821Y7564139D01*
X892295Y7563944D01*
X920271Y7571441D01*
X921450Y7572346D01*
X922923Y7572540D01*
X948007Y7587021D01*
X948911Y7588200D01*
X950284Y7588769D01*
X970765Y7609249D01*
X971333Y7610622D01*
X972512Y7611527D01*
X986994Y7636610D01*
X987188Y7638084D01*
X988093Y7639263D01*
X995589Y7667239D01*
X995395Y7668712D01*
X995963Y7670085D01*
Y7699049D01*
X995395Y7700421D01*
X995589Y7701895D01*
X988093Y7729872D01*
X987188Y7731050D01*
X986994Y7732524D01*
X972512Y7757607D01*
X971333Y7758512D01*
X970765Y7759885D01*
X950284Y7780365D01*
X948911Y7780934D01*
X948007Y7782112D01*
X922923Y7796594D01*
X921450Y7796788D01*
X920271Y7797693D01*
X892295Y7805189D01*
X890821Y7804995D01*
X889448Y7805564D01*
D02*
G37*
G36*
X8742197Y7891526D02*
X8723739D01*
X8705909Y7886749D01*
X8689923Y7877519D01*
X8676871Y7864467D01*
X8667642Y7848481D01*
X8662864Y7830651D01*
Y7812193D01*
X8667642Y7794363D01*
X8676871Y7778377D01*
X8689923Y7765325D01*
X8705909Y7756095D01*
X8723739Y7751318D01*
X8742197D01*
X8760027Y7756095D01*
X8776013Y7765325D01*
X8789065Y7778377D01*
X8798295Y7794363D01*
X8803072Y7812193D01*
Y7830651D01*
X8798295Y7848481D01*
X8789065Y7864467D01*
X8776013Y7877519D01*
X8760027Y7886749D01*
X8742197Y7891526D01*
D02*
G37*
G36*
X7453715D02*
X7435257D01*
X7417427Y7886749D01*
X7401441Y7877519D01*
X7388389Y7864467D01*
X7379159Y7848481D01*
X7374382Y7830651D01*
Y7812193D01*
X7379159Y7794363D01*
X7388389Y7778377D01*
X7401441Y7765325D01*
X7417427Y7756095D01*
X7435257Y7751318D01*
X7453715D01*
X7471545Y7756095D01*
X7487531Y7765325D01*
X7500583Y7778377D01*
X7509813Y7794363D01*
X7514590Y7812193D01*
Y7830651D01*
X7509813Y7848481D01*
X7500583Y7864467D01*
X7487531Y7877519D01*
X7471545Y7886749D01*
X7453715Y7891526D01*
D02*
G37*
G36*
X9424330Y7893372D02*
X9407223D01*
X9391419Y7886825D01*
X9379323Y7874729D01*
X9372777Y7858925D01*
Y7841818D01*
X9379323Y7826014D01*
X9386134Y7819204D01*
X9379660Y7812730D01*
X9373114Y7796926D01*
Y7779820D01*
X9379660Y7764015D01*
X9391756Y7751919D01*
X9407561Y7745373D01*
X9424667D01*
X9440472Y7751919D01*
X9452568Y7764015D01*
X9459114Y7779820D01*
Y7796926D01*
X9452568Y7812730D01*
X9445757Y7819541D01*
X9452230Y7826014D01*
X9458776Y7841818D01*
Y7858925D01*
X9452230Y7874729D01*
X9440134Y7886825D01*
X9424330Y7893372D01*
D02*
G37*
G36*
X9987951Y7705508D02*
X9976468D01*
X9974456Y7704674D01*
X9972279Y7704679D01*
X9961662Y7700304D01*
X9960120Y7698767D01*
X9958104Y7697940D01*
X9949955Y7689850D01*
X9949114Y7687841D01*
X9947566Y7686309D01*
X9943115Y7675725D01*
X9943103Y7673547D01*
X9942255Y7671541D01*
X9942214Y7665799D01*
X9942229Y7665761D01*
X9942213Y7665723D01*
X9942203Y7624501D01*
X9942316Y7624229D01*
X9942217Y7623951D01*
X9942495Y7618370D01*
X9943403Y7616452D01*
X9943483Y7614332D01*
X9948142Y7604172D01*
X9949697Y7602729D01*
X9950558Y7600789D01*
X9958656Y7593084D01*
X9960636Y7592322D01*
X9962154Y7590840D01*
X9972534Y7586691D01*
X9974655Y7586718D01*
X9976616Y7585906D01*
X9982204Y7585906D01*
X9982205Y7585906D01*
X9982205Y7585906D01*
X9987770D01*
X9989723Y7586715D01*
X9991836Y7586685D01*
X10002179Y7590801D01*
X10003694Y7592275D01*
X10005669Y7593029D01*
X10013757Y7600677D01*
X10014620Y7602606D01*
X10016176Y7604037D01*
X10020863Y7614133D01*
X10020951Y7616245D01*
X10021868Y7618149D01*
X10022179Y7623706D01*
X10022070Y7624015D01*
X10022196Y7624318D01*
X10022206Y7665717D01*
X10022189Y7665758D01*
X10022206Y7665799D01*
X10022165Y7671540D01*
X10021317Y7673547D01*
X10021305Y7675725D01*
X10016853Y7686309D01*
X10015305Y7687841D01*
X10014464Y7689850D01*
X10006316Y7697940D01*
X10004300Y7698767D01*
X10002757Y7700304D01*
X9992141Y7704679D01*
X9989963Y7704674D01*
X9987951Y7705508D01*
D02*
G37*
G36*
X597833Y7696020D02*
X580727D01*
X564922Y7689474D01*
X559477Y7684028D01*
X551180Y7678479D01*
X542883Y7684028D01*
X537438Y7689474D01*
X521633Y7696020D01*
X504527D01*
X488722Y7689474D01*
X483277Y7684028D01*
X474980Y7678479D01*
X466683Y7684028D01*
X461238Y7689474D01*
X445433Y7696020D01*
X428327D01*
X412522Y7689474D01*
X400426Y7677378D01*
X393880Y7661573D01*
Y7644467D01*
X400426Y7628662D01*
X401469Y7627620D01*
X400426Y7626578D01*
X393880Y7610773D01*
Y7593667D01*
X400426Y7577862D01*
X412522Y7565766D01*
X428327Y7559220D01*
X445433D01*
X461238Y7565766D01*
X466683Y7571212D01*
X474980Y7576761D01*
X483277Y7571212D01*
X488722Y7565766D01*
X504527Y7559220D01*
X521633D01*
X537438Y7565766D01*
X542883Y7571212D01*
X551180Y7576761D01*
X559477Y7571212D01*
X564922Y7565766D01*
X580727Y7559220D01*
X597833D01*
X613638Y7565766D01*
X625734Y7577862D01*
X632280Y7593667D01*
Y7610773D01*
X625734Y7626578D01*
X624691Y7627620D01*
X625734Y7628662D01*
X632280Y7644467D01*
Y7661573D01*
X625734Y7677378D01*
X613638Y7689474D01*
X597833Y7696020D01*
D02*
G37*
G36*
X8237874Y7711454D02*
X8220768D01*
X8204964Y7704908D01*
X8192868Y7692812D01*
X8186321Y7677008D01*
Y7659901D01*
X8192868Y7644097D01*
X8204964Y7632001D01*
X8220768Y7625455D01*
X8237874D01*
X8253679Y7632001D01*
X8265775Y7644097D01*
X8272321Y7659901D01*
Y7677008D01*
X8265775Y7692812D01*
X8253679Y7704908D01*
X8237874Y7711454D01*
D02*
G37*
G36*
X9386553Y7702751D02*
X9369447D01*
X9353642Y7696205D01*
X9341546Y7684109D01*
X9335000Y7668305D01*
Y7651198D01*
X9341546Y7635394D01*
X9353642Y7623298D01*
X9369447Y7616752D01*
X9386553D01*
X9402358Y7623298D01*
X9414454Y7635394D01*
X9421000Y7651198D01*
Y7668305D01*
X9414454Y7684109D01*
X9402358Y7696205D01*
X9386553Y7702751D01*
D02*
G37*
G36*
X8892057Y7741412D02*
X8873599D01*
X8855769Y7736635D01*
X8839783Y7727405D01*
X8826731Y7714353D01*
X8817502Y7698367D01*
X8812724Y7680537D01*
Y7662079D01*
X8817502Y7644249D01*
X8826731Y7628263D01*
X8839783Y7615211D01*
X8855769Y7605981D01*
X8873599Y7601204D01*
X8892057D01*
X8909887Y7605981D01*
X8925873Y7615211D01*
X8938925Y7628263D01*
X8948155Y7644249D01*
X8952932Y7662079D01*
Y7680537D01*
X8948155Y7698367D01*
X8938925Y7714353D01*
X8925873Y7727405D01*
X8909887Y7736635D01*
X8892057Y7741412D01*
D02*
G37*
G36*
X7603575D02*
X7585117D01*
X7567287Y7736635D01*
X7551301Y7727405D01*
X7538249Y7714353D01*
X7529019Y7698367D01*
X7524242Y7680537D01*
Y7662079D01*
X7529019Y7644249D01*
X7538249Y7628263D01*
X7551301Y7615211D01*
X7567287Y7605981D01*
X7585117Y7601204D01*
X7603575D01*
X7621405Y7605981D01*
X7637391Y7615211D01*
X7650443Y7628263D01*
X7659673Y7644249D01*
X7664450Y7662079D01*
Y7680537D01*
X7659673Y7698367D01*
X7650443Y7714353D01*
X7637391Y7727405D01*
X7621405Y7736635D01*
X7603575Y7741412D01*
D02*
G37*
G36*
X8742197Y7691374D02*
X8723739D01*
X8705909Y7686597D01*
X8689923Y7677367D01*
X8676871Y7664315D01*
X8667642Y7648329D01*
X8662864Y7630499D01*
Y7612041D01*
X8667642Y7594211D01*
X8676871Y7578225D01*
X8689923Y7565173D01*
X8705909Y7555943D01*
X8723739Y7551166D01*
X8742197D01*
X8760027Y7555943D01*
X8776013Y7565173D01*
X8789065Y7578225D01*
X8798295Y7594211D01*
X8803072Y7612041D01*
Y7630499D01*
X8798295Y7648329D01*
X8789065Y7664315D01*
X8776013Y7677367D01*
X8760027Y7686597D01*
X8742197Y7691374D01*
D02*
G37*
G36*
X7453715D02*
X7435257D01*
X7417427Y7686597D01*
X7401441Y7677367D01*
X7388389Y7664315D01*
X7379159Y7648329D01*
X7374382Y7630499D01*
Y7612041D01*
X7379159Y7594211D01*
X7388389Y7578225D01*
X7401441Y7565173D01*
X7417427Y7555943D01*
X7435257Y7551166D01*
X7453715D01*
X7471545Y7555943D01*
X7487531Y7565173D01*
X7500583Y7578225D01*
X7509813Y7594211D01*
X7514590Y7612041D01*
Y7630499D01*
X7509813Y7648329D01*
X7500583Y7664315D01*
X7487531Y7677367D01*
X7471545Y7686597D01*
X7453715Y7691374D01*
D02*
G37*
G36*
X8360073Y7581720D02*
X8342967D01*
X8327162Y7575174D01*
X8315066Y7563078D01*
X8308520Y7547273D01*
Y7530167D01*
X8315066Y7514362D01*
X8327162Y7502266D01*
X8342967Y7495720D01*
X8360073D01*
X8375878Y7502266D01*
X8387974Y7514362D01*
X8394520Y7530167D01*
Y7547273D01*
X8387974Y7563078D01*
X8375878Y7575174D01*
X8360073Y7581720D01*
D02*
G37*
G36*
X9518313Y7566480D02*
X9501207D01*
X9485402Y7559934D01*
X9473306Y7547838D01*
X9466760Y7532033D01*
Y7514927D01*
X9473306Y7499122D01*
X9485402Y7487026D01*
X9501207Y7480480D01*
X9518313D01*
X9534118Y7487026D01*
X9546214Y7499122D01*
X9552760Y7514927D01*
Y7532033D01*
X9546214Y7547838D01*
X9534118Y7559934D01*
X9518313Y7566480D01*
D02*
G37*
G36*
X9788994Y7490280D02*
X9771887D01*
X9756083Y7483734D01*
X9749440Y7477091D01*
X9742798Y7483734D01*
X9726994Y7490280D01*
X9709887D01*
X9694083Y7483734D01*
X9681987Y7471638D01*
X9675441Y7455833D01*
Y7438727D01*
X9681987Y7422922D01*
X9694083Y7410826D01*
X9709887Y7404280D01*
X9726994D01*
X9742798Y7410826D01*
X9749440Y7417469D01*
X9756083Y7410826D01*
X9771887Y7404280D01*
X9788994D01*
X9804798Y7410826D01*
X9816894Y7422922D01*
X9823440Y7438727D01*
Y7455833D01*
X9816894Y7471638D01*
X9804798Y7483734D01*
X9788994Y7490280D01*
D02*
G37*
G36*
X10145693Y7617673D02*
X10128587D01*
X10112782Y7611127D01*
X10100686Y7599031D01*
X10094140Y7583226D01*
Y7566120D01*
X10100686Y7550315D01*
X10107329Y7543673D01*
X10100686Y7537031D01*
X10094140Y7521226D01*
Y7504120D01*
X10100686Y7488315D01*
X10112782Y7476219D01*
X10128587Y7469673D01*
X10145693D01*
X10161498Y7476219D01*
X10173594Y7488315D01*
X10180140Y7504120D01*
Y7521226D01*
X10173594Y7537031D01*
X10166951Y7543673D01*
X10173594Y7550315D01*
X10180140Y7566120D01*
Y7583226D01*
X10173594Y7599031D01*
X10161498Y7611127D01*
X10145693Y7617673D01*
D02*
G37*
G36*
X10450493Y7490280D02*
X10433387D01*
X10417582Y7483734D01*
X10405486Y7471638D01*
X10398940Y7455833D01*
Y7445064D01*
X10390966D01*
X10375162Y7438518D01*
X10363066Y7426422D01*
X10356520Y7410617D01*
Y7393511D01*
X10363066Y7377706D01*
X10375162Y7365610D01*
X10390966Y7359064D01*
X10408073D01*
X10423877Y7365610D01*
X10435973Y7377706D01*
X10442519Y7393511D01*
Y7404280D01*
X10450493D01*
X10466298Y7410826D01*
X10478394Y7422922D01*
X10484940Y7438727D01*
Y7455833D01*
X10478394Y7471638D01*
X10466298Y7483734D01*
X10450493Y7490280D01*
D02*
G37*
G36*
X9137313Y7452180D02*
X9120207D01*
X9104402Y7445634D01*
X9092306Y7433538D01*
X9085760Y7417733D01*
Y7400627D01*
X9092306Y7384822D01*
X9097159Y7379970D01*
X9092306Y7375118D01*
X9085760Y7359313D01*
Y7342207D01*
X9092306Y7326402D01*
X9097159Y7321550D01*
X9092306Y7316698D01*
X9085760Y7300893D01*
Y7283787D01*
X9092306Y7267982D01*
X9104402Y7255886D01*
X9120207Y7249340D01*
X9137313D01*
X9153118Y7255886D01*
X9165214Y7267982D01*
X9171760Y7283787D01*
Y7300893D01*
X9165214Y7316698D01*
X9160361Y7321550D01*
X9165214Y7326402D01*
X9171760Y7342207D01*
Y7359313D01*
X9165214Y7375118D01*
X9160361Y7379970D01*
X9165214Y7384822D01*
X9171760Y7400627D01*
Y7417733D01*
X9165214Y7433538D01*
X9153118Y7445634D01*
X9137313Y7452180D01*
D02*
G37*
G36*
X7963833Y7449640D02*
X7946727D01*
X7930922Y7443094D01*
X7918826Y7430998D01*
X7912280Y7415193D01*
Y7398087D01*
X7918826Y7382282D01*
X7923679Y7377430D01*
X7918826Y7372578D01*
X7912280Y7356773D01*
Y7339667D01*
X7918826Y7323862D01*
X7923679Y7319010D01*
X7918826Y7314158D01*
X7912280Y7298353D01*
Y7281247D01*
X7918826Y7265442D01*
X7930922Y7253346D01*
X7946727Y7246800D01*
X7963833D01*
X7979638Y7253346D01*
X7991734Y7265442D01*
X7998280Y7281247D01*
Y7298353D01*
X7991734Y7314158D01*
X7986881Y7319010D01*
X7991734Y7323862D01*
X7998280Y7339667D01*
Y7356773D01*
X7991734Y7372578D01*
X7986881Y7377430D01*
X7991734Y7382282D01*
X7998280Y7398087D01*
Y7415193D01*
X7991734Y7430998D01*
X7979638Y7443094D01*
X7963833Y7449640D01*
D02*
G37*
G36*
X7888153Y7007680D02*
X7871047D01*
X7855242Y7001134D01*
X7848600Y6994491D01*
X7841958Y7001134D01*
X7826153Y7007680D01*
X7809047D01*
X7793242Y7001134D01*
X7781146Y6989038D01*
X7774600Y6973233D01*
Y6956127D01*
X7781146Y6940322D01*
X7793242Y6928226D01*
X7809047Y6921680D01*
X7826153D01*
X7841958Y6928226D01*
X7848600Y6934869D01*
X7855242Y6928226D01*
X7871047Y6921680D01*
X7888153D01*
X7903958Y6928226D01*
X7916054Y6940322D01*
X7922600Y6956127D01*
Y6973233D01*
X7916054Y6989038D01*
X7903958Y7001134D01*
X7888153Y7007680D01*
D02*
G37*
G36*
X9640753Y7005140D02*
X9623647D01*
X9607842Y6998594D01*
X9601200Y6991951D01*
X9594558Y6998594D01*
X9578753Y7005140D01*
X9561647D01*
X9545842Y6998594D01*
X9533746Y6986498D01*
X9527200Y6970693D01*
Y6953587D01*
X9533746Y6937782D01*
X9545842Y6925686D01*
X9561647Y6919140D01*
X9578753D01*
X9594558Y6925686D01*
X9601200Y6932329D01*
X9607842Y6925686D01*
X9623647Y6919140D01*
X9640753D01*
X9656558Y6925686D01*
X9668654Y6937782D01*
X9675200Y6953587D01*
Y6970693D01*
X9668654Y6986498D01*
X9656558Y6998594D01*
X9640753Y7005140D01*
D02*
G37*
G36*
X9947176Y6934275D02*
X9930070D01*
X9914265Y6927729D01*
X9902169Y6915633D01*
X9895623Y6899829D01*
Y6882722D01*
X9902169Y6866918D01*
X9914265Y6854822D01*
X9930070Y6848276D01*
X9947176D01*
X9962980Y6854822D01*
X9975076Y6866918D01*
X9981623Y6882722D01*
Y6899829D01*
X9975076Y6915633D01*
X9962980Y6927729D01*
X9947176Y6934275D01*
D02*
G37*
G36*
X8182273Y6934020D02*
X8165167D01*
X8149362Y6927474D01*
X8137266Y6915378D01*
X8130720Y6899573D01*
Y6882467D01*
X8137266Y6866662D01*
X8149362Y6854566D01*
X8165167Y6848020D01*
X8182273D01*
X8198078Y6854566D01*
X8210174Y6866662D01*
X8216720Y6882467D01*
Y6899573D01*
X8210174Y6915378D01*
X8198078Y6927474D01*
X8182273Y6934020D01*
D02*
G37*
G36*
X999153Y6850200D02*
X982047D01*
X966242Y6843654D01*
X965200Y6842611D01*
X964158Y6843654D01*
X948353Y6850200D01*
X931247D01*
X915442Y6843654D01*
X903346Y6831558D01*
X896800Y6815753D01*
Y6798647D01*
X903346Y6782842D01*
X908792Y6777397D01*
X914341Y6769100D01*
X908792Y6760803D01*
X903346Y6755358D01*
X896800Y6739553D01*
Y6722447D01*
X903346Y6706642D01*
X908792Y6701197D01*
X914341Y6692900D01*
X908792Y6684603D01*
X903346Y6679158D01*
X896800Y6663353D01*
Y6646247D01*
X903346Y6630442D01*
X915442Y6618346D01*
X931247Y6611800D01*
X948353D01*
X964158Y6618346D01*
X965200Y6619389D01*
X966242Y6618346D01*
X982047Y6611800D01*
X999153D01*
X1014958Y6618346D01*
X1027054Y6630442D01*
X1033600Y6646247D01*
Y6663353D01*
X1027054Y6679158D01*
X1021608Y6684603D01*
X1016059Y6692900D01*
X1021608Y6701197D01*
X1027054Y6706642D01*
X1033600Y6722447D01*
Y6739553D01*
X1027054Y6755358D01*
X1021608Y6760803D01*
X1016059Y6769100D01*
X1021608Y6777397D01*
X1027054Y6782842D01*
X1033600Y6798647D01*
Y6815753D01*
X1027054Y6831558D01*
X1014958Y6843654D01*
X999153Y6850200D01*
D02*
G37*
G36*
X9449733Y6877420D02*
X9432627D01*
X9416822Y6870873D01*
X9404726Y6858777D01*
X9398180Y6842973D01*
Y6825867D01*
X9404726Y6810062D01*
X9416822Y6797966D01*
X9432627Y6791420D01*
X9449733D01*
X9465538Y6797966D01*
X9477634Y6810062D01*
X9484180Y6825867D01*
Y6842973D01*
X9477634Y6858777D01*
X9465538Y6870873D01*
X9449733Y6877420D01*
D02*
G37*
G36*
X9343053D02*
X9325947D01*
X9310142Y6870873D01*
X9298046Y6858777D01*
X9291500Y6842973D01*
Y6825867D01*
X9298046Y6810062D01*
X9310142Y6797966D01*
X9325947Y6791420D01*
X9343053D01*
X9358858Y6797966D01*
X9370954Y6810062D01*
X9377500Y6825867D01*
Y6842973D01*
X9370954Y6858777D01*
X9358858Y6870873D01*
X9343053Y6877420D01*
D02*
G37*
G36*
X7697133D02*
X7680027D01*
X7664222Y6870873D01*
X7652126Y6858777D01*
X7645580Y6842973D01*
Y6825867D01*
X7652126Y6810062D01*
X7664222Y6797966D01*
X7680027Y6791420D01*
X7697133D01*
X7712938Y6797966D01*
X7725034Y6810062D01*
X7731580Y6825867D01*
Y6842973D01*
X7725034Y6858777D01*
X7712938Y6870873D01*
X7697133Y6877420D01*
D02*
G37*
G36*
X7587913D02*
X7570807D01*
X7555002Y6870873D01*
X7542906Y6858777D01*
X7536360Y6842973D01*
Y6825867D01*
X7542906Y6810062D01*
X7555002Y6797966D01*
X7570807Y6791420D01*
X7587913D01*
X7603718Y6797966D01*
X7615814Y6810062D01*
X7622360Y6825867D01*
Y6842973D01*
X7615814Y6858777D01*
X7603718Y6870873D01*
X7587913Y6877420D01*
D02*
G37*
G36*
X6648113Y6916760D02*
X6631007D01*
X6615202Y6910214D01*
X6603106Y6898118D01*
X6596560Y6882313D01*
Y6865207D01*
X6603106Y6849402D01*
X6609749Y6842760D01*
X6603106Y6836118D01*
X6596560Y6820313D01*
Y6803207D01*
X6603106Y6787402D01*
X6615202Y6775306D01*
X6631007Y6768760D01*
X6648113D01*
X6663918Y6775306D01*
X6676014Y6787402D01*
X6682560Y6803207D01*
Y6820313D01*
X6676014Y6836118D01*
X6669371Y6842760D01*
X6676014Y6849402D01*
X6682560Y6865207D01*
Y6882313D01*
X6676014Y6898118D01*
X6663918Y6910214D01*
X6648113Y6916760D01*
D02*
G37*
G36*
X2965113Y6807020D02*
X2948007D01*
X2932202Y6800474D01*
X2920106Y6788378D01*
X2913560Y6772573D01*
Y6755467D01*
X2920106Y6739662D01*
X2932202Y6727566D01*
X2948007Y6721020D01*
X2965113D01*
X2980918Y6727566D01*
X2993014Y6739662D01*
X2999560Y6755467D01*
Y6772573D01*
X2993014Y6788378D01*
X2980918Y6800474D01*
X2965113Y6807020D01*
D02*
G37*
G36*
X2835573D02*
X2818467D01*
X2802662Y6800474D01*
X2790566Y6788378D01*
X2784020Y6772573D01*
Y6755467D01*
X2790566Y6739662D01*
X2802662Y6727566D01*
X2818467Y6721020D01*
X2835573D01*
X2851378Y6727566D01*
X2863474Y6739662D01*
X2870020Y6755467D01*
Y6772573D01*
X2863474Y6788378D01*
X2851378Y6800474D01*
X2835573Y6807020D01*
D02*
G37*
G36*
X2711113D02*
X2694007D01*
X2678202Y6800474D01*
X2666106Y6788378D01*
X2659560Y6772573D01*
Y6755467D01*
X2666106Y6739662D01*
X2678202Y6727566D01*
X2694007Y6721020D01*
X2711113D01*
X2726918Y6727566D01*
X2739014Y6739662D01*
X2745560Y6755467D01*
Y6772573D01*
X2739014Y6788378D01*
X2726918Y6800474D01*
X2711113Y6807020D01*
D02*
G37*
G36*
X9956655Y6748600D02*
X9939549D01*
X9923744Y6742054D01*
X9911648Y6729958D01*
X9905102Y6714153D01*
Y6697047D01*
X9911648Y6681242D01*
X9923744Y6669146D01*
X9939549Y6662600D01*
X9956655D01*
X9972460Y6669146D01*
X9984556Y6681242D01*
X9991102Y6697047D01*
Y6714153D01*
X9984556Y6729958D01*
X9972460Y6742054D01*
X9956655Y6748600D01*
D02*
G37*
G36*
X8204055D02*
X8186949D01*
X8171144Y6742054D01*
X8159048Y6729958D01*
X8152502Y6714153D01*
Y6697047D01*
X8159048Y6681242D01*
X8171144Y6669146D01*
X8186949Y6662600D01*
X8204055D01*
X8219860Y6669146D01*
X8231956Y6681242D01*
X8238502Y6697047D01*
Y6714153D01*
X8231956Y6729958D01*
X8219860Y6742054D01*
X8204055Y6748600D01*
D02*
G37*
G36*
X6988473Y6785713D02*
X6971367D01*
X6955562Y6779167D01*
X6943466Y6767071D01*
X6936920Y6751267D01*
Y6734160D01*
X6943466Y6718356D01*
X6950109Y6711714D01*
X6943466Y6705071D01*
X6936920Y6689267D01*
Y6672160D01*
X6943466Y6656356D01*
X6955562Y6644260D01*
X6971367Y6637714D01*
X6988473D01*
X7004278Y6644260D01*
X7016374Y6656356D01*
X7022920Y6672160D01*
Y6689267D01*
X7016374Y6705071D01*
X7009731Y6711714D01*
X7016374Y6718356D01*
X7022920Y6734160D01*
Y6751267D01*
X7016374Y6767071D01*
X7004278Y6779167D01*
X6988473Y6785713D01*
D02*
G37*
G36*
X8946811Y6710500D02*
X8929705D01*
X8913901Y6703954D01*
X8901805Y6691858D01*
X8895258Y6676053D01*
Y6658947D01*
X8901805Y6643142D01*
X8913901Y6631046D01*
X8929705Y6624500D01*
X8946811D01*
X8962616Y6631046D01*
X8974712Y6643142D01*
X8981258Y6658947D01*
Y6676053D01*
X8974712Y6691858D01*
X8962616Y6703954D01*
X8946811Y6710500D01*
D02*
G37*
G36*
X7194211D02*
X7177105D01*
X7161301Y6703954D01*
X7149205Y6691858D01*
X7142658Y6676053D01*
Y6658947D01*
X7149205Y6643142D01*
X7161301Y6631046D01*
X7177105Y6624500D01*
X7194211D01*
X7210016Y6631046D01*
X7222112Y6643142D01*
X7228658Y6658947D01*
Y6676053D01*
X7222112Y6691858D01*
X7210016Y6703954D01*
X7194211Y6710500D01*
D02*
G37*
G36*
X9478193Y6621600D02*
X9461087D01*
X9445282Y6615054D01*
X9438640Y6608411D01*
X9431998Y6615054D01*
X9416193Y6621600D01*
X9399087D01*
X9383282Y6615054D01*
X9371186Y6602958D01*
X9364640Y6587153D01*
Y6570047D01*
X9371186Y6554242D01*
X9383282Y6542146D01*
X9399087Y6535600D01*
X9416193D01*
X9431998Y6542146D01*
X9438640Y6548789D01*
X9445282Y6542146D01*
X9461087Y6535600D01*
X9478193D01*
X9493998Y6542146D01*
X9506094Y6554242D01*
X9512640Y6570047D01*
Y6587153D01*
X9506094Y6602958D01*
X9493998Y6615054D01*
X9478193Y6621600D01*
D02*
G37*
G36*
X7665651Y6617061D02*
X7648544D01*
X7632740Y6610515D01*
X7620644Y6598419D01*
X7614098Y6582615D01*
Y6565508D01*
X7620644Y6549704D01*
X7632740Y6537608D01*
X7648544Y6531062D01*
X7665651D01*
X7681455Y6537608D01*
X7687816Y6543969D01*
X7694737Y6537048D01*
X7710542Y6530501D01*
X7727648D01*
X7743452Y6537048D01*
X7755548Y6549144D01*
X7762095Y6564948D01*
Y6582054D01*
X7755548Y6597859D01*
X7743452Y6609955D01*
X7727648Y6616501D01*
X7710542D01*
X7694737Y6609955D01*
X7688376Y6603594D01*
X7681455Y6610515D01*
X7665651Y6617061D01*
D02*
G37*
G36*
X237153Y6494600D02*
X220047D01*
X204242Y6488054D01*
X203200Y6487011D01*
X202158Y6488054D01*
X186353Y6494600D01*
X169247D01*
X153442Y6488054D01*
X141346Y6475958D01*
X134800Y6460153D01*
Y6443047D01*
X141346Y6427242D01*
X142389Y6426200D01*
X141346Y6425158D01*
X134800Y6409353D01*
Y6392247D01*
X141346Y6376442D01*
X153442Y6364346D01*
X169247Y6357800D01*
X186353D01*
X202158Y6364346D01*
X203200Y6365389D01*
X204242Y6364346D01*
X220047Y6357800D01*
X237153D01*
X252958Y6364346D01*
X265054Y6376442D01*
X271600Y6392247D01*
Y6409353D01*
X265054Y6425158D01*
X264011Y6426200D01*
X265054Y6427242D01*
X271600Y6443047D01*
Y6460153D01*
X265054Y6475958D01*
X252958Y6488054D01*
X237153Y6494600D01*
D02*
G37*
G36*
X9924000Y6535240D02*
X9906894D01*
X9891089Y6528694D01*
X9878993Y6516598D01*
X9872447Y6500793D01*
Y6483687D01*
X9878993Y6467882D01*
X9891089Y6455786D01*
X9906894Y6449240D01*
X9924000D01*
X9939805Y6455786D01*
X9951901Y6467882D01*
X9958447Y6483687D01*
Y6500793D01*
X9951901Y6516598D01*
X9939805Y6528694D01*
X9924000Y6535240D01*
D02*
G37*
G36*
X8171400D02*
X8154294D01*
X8138489Y6528694D01*
X8126393Y6516598D01*
X8119847Y6500793D01*
Y6483687D01*
X8126393Y6467882D01*
X8138489Y6455786D01*
X8154294Y6449240D01*
X8171400D01*
X8187205Y6455786D01*
X8199301Y6467882D01*
X8205847Y6483687D01*
Y6500793D01*
X8199301Y6516598D01*
X8187205Y6528694D01*
X8171400Y6535240D01*
D02*
G37*
G36*
X8814733Y6581480D02*
X8797627D01*
X8781822Y6574934D01*
X8769726Y6562838D01*
X8763180Y6547033D01*
Y6529927D01*
X8769726Y6514122D01*
X8776369Y6507480D01*
X8769726Y6500838D01*
X8763180Y6485033D01*
Y6467927D01*
X8769726Y6452122D01*
X8781822Y6440026D01*
X8797627Y6433480D01*
X8814733D01*
X8830538Y6440026D01*
X8842634Y6452122D01*
X8849180Y6467927D01*
Y6485033D01*
X8842634Y6500838D01*
X8835991Y6507480D01*
X8842634Y6514122D01*
X8849180Y6529927D01*
Y6547033D01*
X8842634Y6562838D01*
X8830538Y6574934D01*
X8814733Y6581480D01*
D02*
G37*
G36*
X7064673D02*
X7047567D01*
X7031762Y6574934D01*
X7019666Y6562838D01*
X7013120Y6547033D01*
Y6529927D01*
X7019666Y6514122D01*
X7026309Y6507480D01*
X7019666Y6500838D01*
X7013120Y6485033D01*
Y6467927D01*
X7019666Y6452122D01*
X7031762Y6440026D01*
X7047567Y6433480D01*
X7064673D01*
X7080478Y6440026D01*
X7092574Y6452122D01*
X7099120Y6467927D01*
Y6485033D01*
X7092574Y6500838D01*
X7085931Y6507480D01*
X7092574Y6514122D01*
X7099120Y6529927D01*
Y6547033D01*
X7092574Y6562838D01*
X7080478Y6574934D01*
X7064673Y6581480D01*
D02*
G37*
G36*
X5425353Y6539636D02*
X5406879D01*
X5389035Y6534855D01*
X5373037Y6525618D01*
X5359974Y6512555D01*
X5350737Y6496557D01*
X5345956Y6478713D01*
Y6460239D01*
X5350737Y6442395D01*
X5359974Y6426397D01*
X5373037Y6413334D01*
X5389035Y6404097D01*
X5406879Y6399316D01*
X5425353D01*
X5443197Y6404097D01*
X5459195Y6413334D01*
X5472258Y6426397D01*
X5481494Y6442395D01*
X5486276Y6460239D01*
Y6478713D01*
X5481494Y6496557D01*
X5472258Y6512555D01*
X5459195Y6525618D01*
X5443197Y6534855D01*
X5425353Y6539636D01*
D02*
G37*
G36*
X1625353D02*
X1606879D01*
X1589035Y6534855D01*
X1573037Y6525618D01*
X1559974Y6512555D01*
X1550737Y6496557D01*
X1545956Y6478713D01*
Y6460239D01*
X1550737Y6442395D01*
X1559974Y6426397D01*
X1573037Y6413334D01*
X1589035Y6404097D01*
X1606879Y6399316D01*
X1625353D01*
X1643197Y6404097D01*
X1659195Y6413334D01*
X1672258Y6426397D01*
X1681494Y6442395D01*
X1686276Y6460239D01*
Y6478713D01*
X1681494Y6496557D01*
X1672258Y6512555D01*
X1659195Y6525618D01*
X1643197Y6534855D01*
X1625353Y6539636D01*
D02*
G37*
G36*
X9924000Y6428560D02*
X9906894D01*
X9891089Y6422014D01*
X9878993Y6409918D01*
X9872447Y6394113D01*
Y6377007D01*
X9878993Y6361202D01*
X9891089Y6349106D01*
X9906894Y6342560D01*
X9924000D01*
X9939805Y6349106D01*
X9951901Y6361202D01*
X9958447Y6377007D01*
Y6394113D01*
X9951901Y6409918D01*
X9939805Y6422014D01*
X9924000Y6428560D01*
D02*
G37*
G36*
X8171400D02*
X8154294D01*
X8138489Y6422014D01*
X8126393Y6409918D01*
X8119847Y6394113D01*
Y6377007D01*
X8126393Y6361202D01*
X8138489Y6349106D01*
X8154294Y6342560D01*
X8171400D01*
X8187205Y6349106D01*
X8199301Y6361202D01*
X8205847Y6377007D01*
Y6394113D01*
X8199301Y6409918D01*
X8187205Y6422014D01*
X8171400Y6428560D01*
D02*
G37*
G36*
X8946811Y6390460D02*
X8929705D01*
X8913901Y6383914D01*
X8901805Y6371818D01*
X8895258Y6356013D01*
Y6338907D01*
X8901805Y6323102D01*
X8913901Y6311006D01*
X8929705Y6304460D01*
X8946811D01*
X8962616Y6311006D01*
X8974712Y6323102D01*
X8981258Y6338907D01*
Y6356013D01*
X8974712Y6371818D01*
X8962616Y6383914D01*
X8946811Y6390460D01*
D02*
G37*
G36*
X7194211D02*
X7177105D01*
X7161301Y6383914D01*
X7149205Y6371818D01*
X7142658Y6356013D01*
Y6338907D01*
X7149205Y6323102D01*
X7161301Y6311006D01*
X7177105Y6304460D01*
X7194211D01*
X7210016Y6311006D01*
X7222112Y6323102D01*
X7228658Y6338907D01*
Y6356013D01*
X7222112Y6371818D01*
X7210016Y6383914D01*
X7194211Y6390460D01*
D02*
G37*
G36*
X9813264Y6260620D02*
X9796157D01*
X9780353Y6254074D01*
X9768257Y6241978D01*
X9761710Y6226173D01*
Y6209067D01*
X9768257Y6193262D01*
X9780353Y6181166D01*
X9796157Y6174620D01*
X9813264D01*
X9829068Y6181166D01*
X9841164Y6193262D01*
X9847710Y6209067D01*
Y6226173D01*
X9841164Y6241978D01*
X9829068Y6254074D01*
X9813264Y6260620D01*
D02*
G37*
G36*
X8070513Y6250760D02*
X8053407D01*
X8037602Y6244214D01*
X8025506Y6232118D01*
X8018960Y6216313D01*
Y6199207D01*
X8025506Y6183402D01*
X8037602Y6171306D01*
X8053407Y6164760D01*
X8070513D01*
X8086318Y6171306D01*
X8098414Y6183402D01*
X8104960Y6199207D01*
Y6216313D01*
X8098414Y6232118D01*
X8086318Y6244214D01*
X8070513Y6250760D01*
D02*
G37*
G36*
X549573Y6156780D02*
X532467D01*
X516662Y6150234D01*
X508000Y6141571D01*
X501878Y6147694D01*
X486073Y6154240D01*
X468967D01*
X453162Y6147694D01*
X445770Y6140301D01*
X438378Y6147694D01*
X422573Y6154240D01*
X405467D01*
X389662Y6147694D01*
X381000Y6139031D01*
X372338Y6147694D01*
X356533Y6154240D01*
X339427D01*
X323622Y6147694D01*
X311526Y6135598D01*
X304980Y6119793D01*
Y6102687D01*
X311526Y6086882D01*
X323622Y6074786D01*
X339427Y6068240D01*
X356533D01*
X372338Y6074786D01*
X381000Y6083449D01*
X389662Y6074786D01*
X405467Y6068240D01*
X422573D01*
X438378Y6074786D01*
X445770Y6082179D01*
X453162Y6074786D01*
X468967Y6068240D01*
X486073D01*
X501878Y6074786D01*
X510540Y6083449D01*
X516662Y6077326D01*
X532467Y6070780D01*
X549573D01*
X565378Y6077326D01*
X577474Y6089422D01*
X584020Y6105227D01*
Y6122333D01*
X577474Y6138138D01*
X565378Y6150234D01*
X549573Y6156780D01*
D02*
G37*
G36*
X7062133Y6261440D02*
X7045027D01*
X7029222Y6254894D01*
X7017126Y6242798D01*
X7010580Y6226993D01*
Y6209887D01*
X7017126Y6194082D01*
X7023769Y6187440D01*
X7017126Y6180798D01*
X7010580Y6164993D01*
Y6147887D01*
X7017126Y6132082D01*
X7029222Y6119986D01*
X7045027Y6113440D01*
X7062133D01*
X7077938Y6119986D01*
X7090034Y6132082D01*
X7096580Y6147887D01*
Y6164993D01*
X7090034Y6180798D01*
X7083391Y6187440D01*
X7090034Y6194082D01*
X7096580Y6209887D01*
Y6226993D01*
X7090034Y6242798D01*
X7077938Y6254894D01*
X7062133Y6261440D01*
D02*
G37*
G36*
X8814598Y6260367D02*
X8797491D01*
X8781687Y6253821D01*
X8769591Y6241725D01*
X8763045Y6225920D01*
Y6208814D01*
X8769591Y6193009D01*
X8776302Y6186298D01*
X8769729Y6179725D01*
X8763182Y6163920D01*
Y6146814D01*
X8769729Y6131010D01*
X8781825Y6118914D01*
X8797629Y6112367D01*
X8814735D01*
X8830540Y6118914D01*
X8842636Y6131010D01*
X8849182Y6146814D01*
Y6163920D01*
X8842636Y6179725D01*
X8835925Y6186436D01*
X8842498Y6193009D01*
X8849045Y6208814D01*
Y6225920D01*
X8842498Y6241725D01*
X8830402Y6253821D01*
X8814598Y6260367D01*
D02*
G37*
G36*
X9211516Y6251620D02*
X9194409D01*
X9178605Y6245074D01*
X9166509Y6232978D01*
X9159963Y6217173D01*
Y6200067D01*
X9166509Y6184262D01*
X9173151Y6177620D01*
X9166509Y6170978D01*
X9159963Y6155173D01*
Y6138067D01*
X9166509Y6122263D01*
X9178605Y6110167D01*
X9194409Y6103620D01*
X9211516D01*
X9227320Y6110167D01*
X9239416Y6122263D01*
X9245962Y6138067D01*
Y6155173D01*
X9239416Y6170978D01*
X9232774Y6177620D01*
X9239416Y6184262D01*
X9245962Y6200067D01*
Y6217173D01*
X9239416Y6232978D01*
X9227320Y6245074D01*
X9211516Y6251620D01*
D02*
G37*
G36*
X7473613D02*
X7456507D01*
X7440702Y6245074D01*
X7428606Y6232978D01*
X7422060Y6217173D01*
Y6200067D01*
X7428606Y6184262D01*
X7435249Y6177620D01*
X7428606Y6170978D01*
X7422060Y6155173D01*
Y6138067D01*
X7428606Y6122263D01*
X7440702Y6110167D01*
X7456507Y6103620D01*
X7473613D01*
X7489418Y6110167D01*
X7501514Y6122263D01*
X7508060Y6138067D01*
Y6155173D01*
X7501514Y6170978D01*
X7494871Y6177620D01*
X7501514Y6184262D01*
X7508060Y6200067D01*
Y6217173D01*
X7501514Y6232978D01*
X7489418Y6245074D01*
X7473613Y6251620D01*
D02*
G37*
G36*
X9627568Y6171871D02*
X9610461D01*
X9594657Y6165325D01*
X9582561Y6153229D01*
X9576015Y6137425D01*
Y6120318D01*
X9582561Y6104514D01*
X9594657Y6092418D01*
X9610461Y6085871D01*
X9627568D01*
X9643372Y6092418D01*
X9655468Y6104514D01*
X9662014Y6120318D01*
Y6137425D01*
X9655468Y6153229D01*
X9643372Y6165325D01*
X9627568Y6171871D01*
D02*
G37*
G36*
X7863349Y6160545D02*
X7846242D01*
X7830438Y6153999D01*
X7818342Y6141903D01*
X7811795Y6126098D01*
Y6108992D01*
X7818342Y6093188D01*
X7830438Y6081092D01*
X7846242Y6074545D01*
X7863349D01*
X7879153Y6081092D01*
X7891249Y6093188D01*
X7897795Y6108992D01*
Y6126098D01*
X7891249Y6141903D01*
X7879153Y6153999D01*
X7863349Y6160545D01*
D02*
G37*
G36*
X9498410Y6158364D02*
X9481303D01*
X9465499Y6151818D01*
X9453403Y6139722D01*
X9446857Y6123917D01*
Y6106811D01*
X9453403Y6091007D01*
X9465499Y6078911D01*
X9481303Y6072364D01*
X9498410D01*
X9514214Y6078911D01*
X9526310Y6091007D01*
X9532856Y6106811D01*
Y6123917D01*
X9526310Y6139722D01*
X9514214Y6151818D01*
X9498410Y6158364D01*
D02*
G37*
G36*
X7745810D02*
X7728703D01*
X7712899Y6151818D01*
X7700803Y6139722D01*
X7694257Y6123917D01*
Y6106811D01*
X7700803Y6091007D01*
X7712899Y6078911D01*
X7728703Y6072364D01*
X7745810D01*
X7761614Y6078911D01*
X7773710Y6091007D01*
X7780256Y6106811D01*
Y6123917D01*
X7773710Y6139722D01*
X7761614Y6151818D01*
X7745810Y6158364D01*
D02*
G37*
G36*
X152121Y6131560D02*
X135015D01*
X119211Y6125014D01*
X107115Y6112918D01*
X100568Y6097113D01*
Y6080007D01*
X107115Y6064203D01*
X119211Y6052107D01*
X135015Y6045560D01*
X152121D01*
X167926Y6052107D01*
X180022Y6064203D01*
X186568Y6080007D01*
Y6097113D01*
X180022Y6112918D01*
X167926Y6125014D01*
X152121Y6131560D01*
D02*
G37*
G36*
X8946811Y6070420D02*
X8929705D01*
X8913901Y6063874D01*
X8901805Y6051778D01*
X8895258Y6035973D01*
Y6018867D01*
X8901805Y6003062D01*
X8913901Y5990966D01*
X8929705Y5984420D01*
X8946811D01*
X8962616Y5990966D01*
X8974712Y6003062D01*
X8981258Y6018867D01*
Y6035973D01*
X8974712Y6051778D01*
X8962616Y6063874D01*
X8946811Y6070420D01*
D02*
G37*
G36*
X7194211D02*
X7177105D01*
X7161301Y6063874D01*
X7149205Y6051778D01*
X7142658Y6035973D01*
Y6018867D01*
X7149205Y6003062D01*
X7161301Y5990966D01*
X7177105Y5984420D01*
X7194211D01*
X7210016Y5990966D01*
X7222112Y6003062D01*
X7228658Y6018867D01*
Y6035973D01*
X7222112Y6051778D01*
X7210016Y6063874D01*
X7194211Y6070420D01*
D02*
G37*
G36*
X9605506Y6035917D02*
X9588400D01*
X9572596Y6029370D01*
X9560500Y6017274D01*
X9553953Y6001470D01*
Y5984363D01*
X9560500Y5968559D01*
X9572596Y5956463D01*
X9588400Y5949917D01*
X9605506D01*
X9621311Y5956463D01*
X9633407Y5968559D01*
X9639953Y5984363D01*
Y6001470D01*
X9633407Y6017274D01*
X9621311Y6029370D01*
X9605506Y6035917D01*
D02*
G37*
G36*
X7852906D02*
X7835800D01*
X7819996Y6029370D01*
X7807900Y6017274D01*
X7801353Y6001470D01*
Y5984363D01*
X7807900Y5968559D01*
X7819996Y5956463D01*
X7835800Y5949917D01*
X7852906D01*
X7868711Y5956463D01*
X7880807Y5968559D01*
X7887353Y5984363D01*
Y6001470D01*
X7880807Y6017274D01*
X7868711Y6029370D01*
X7852906Y6035917D01*
D02*
G37*
G36*
X9498410Y6031241D02*
X9481303D01*
X9465499Y6024694D01*
X9453403Y6012598D01*
X9446857Y5996794D01*
Y5979688D01*
X9453403Y5963883D01*
X9465499Y5951787D01*
X9481303Y5945241D01*
X9498410D01*
X9514214Y5951787D01*
X9526310Y5963883D01*
X9532856Y5979688D01*
Y5996794D01*
X9526310Y6012598D01*
X9514214Y6024694D01*
X9498410Y6031241D01*
D02*
G37*
G36*
X7717249Y6020168D02*
X7700142D01*
X7684338Y6013622D01*
X7672242Y6001526D01*
X7665696Y5985721D01*
Y5968615D01*
X7672242Y5952811D01*
X7684338Y5940715D01*
X7700142Y5934168D01*
X7717249D01*
X7733053Y5940715D01*
X7745149Y5952811D01*
X7751695Y5968615D01*
Y5985721D01*
X7745149Y6001526D01*
X7733053Y6013622D01*
X7717249Y6020168D01*
D02*
G37*
G36*
X6947729Y6008471D02*
X6930623D01*
X6914818Y6001925D01*
X6902722Y5989829D01*
X6896176Y5974025D01*
Y5956918D01*
X6902722Y5941114D01*
X6907839Y5935997D01*
X6902579Y5923297D01*
X1820635Y5923297D01*
X1820632Y5923296D01*
X1820631Y5923297D01*
X1800970Y5923290D01*
X1800268Y5922999D01*
X1799535Y5923195D01*
X1760551Y5918051D01*
X1759894Y5917671D01*
X1759141Y5917770D01*
X1721161Y5907583D01*
X1720559Y5907121D01*
X1719800Y5907121D01*
X1683473Y5892066D01*
X1682937Y5891529D01*
X1682184Y5891430D01*
X1648132Y5871765D01*
X1647670Y5871163D01*
X1646937Y5870966D01*
X1615742Y5847026D01*
X1615363Y5846369D01*
X1614661Y5846078D01*
X1586856Y5818273D01*
X1586566Y5817572D01*
X1585908Y5817192D01*
X1561969Y5785998D01*
X1561772Y5785264D01*
X1561170Y5784802D01*
X1541504Y5750751D01*
X1541405Y5749998D01*
X1540868Y5749461D01*
X1525814Y5713135D01*
X1525814Y5712376D01*
X1525351Y5711773D01*
X1515165Y5673794D01*
X1515263Y5673041D01*
X1514884Y5672384D01*
X1509739Y5633399D01*
X1509936Y5632666D01*
X1509645Y5631965D01*
X1509638Y5612304D01*
X1509639Y5612302D01*
X1509638Y5612300D01*
X1509638Y4511200D01*
X1509639Y4511198D01*
X1509638Y4511196D01*
X1509645Y4491535D01*
X1509936Y4490833D01*
X1509740Y4490100D01*
X1514884Y4451116D01*
X1515264Y4450458D01*
X1515165Y4449706D01*
X1525352Y4411726D01*
X1525814Y4411124D01*
X1525814Y4410365D01*
X1540869Y4374038D01*
X1541406Y4373502D01*
X1541505Y4372749D01*
X1561170Y4338698D01*
X1561772Y4338235D01*
X1561969Y4337502D01*
X1570018Y4327013D01*
X1568088Y4321919D01*
X1563014Y4315280D01*
X1548467D01*
X1532662Y4308734D01*
X1520566Y4296638D01*
X1514020Y4280833D01*
Y4263727D01*
X1520566Y4247922D01*
X1532662Y4235826D01*
X1548467Y4229280D01*
X1565573D01*
X1581378Y4235826D01*
X1593474Y4247922D01*
X1600020Y4263727D01*
Y4274102D01*
X1612720Y4279363D01*
X1614661Y4277421D01*
X1615363Y4277131D01*
X1615742Y4276473D01*
X1646937Y4252534D01*
X1647670Y4252337D01*
X1648133Y4251735D01*
X1682184Y4232070D01*
X1682937Y4231970D01*
X1683474Y4231433D01*
X1719800Y4216379D01*
X1720559Y4216379D01*
X1721161Y4215916D01*
X1759141Y4205730D01*
X1759893Y4205829D01*
X1760551Y4205449D01*
X1799535Y4200305D01*
X1800268Y4200501D01*
X1800970Y4200210D01*
X1820631Y4200203D01*
X1820633Y4200204D01*
X1820635Y4200203D01*
X6920633Y4200203D01*
X6940297Y4200199D01*
X6940999Y4200489D01*
X6941733Y4200292D01*
X6980725Y4205419D01*
X6981384Y4205799D01*
X6982136Y4205700D01*
X7020126Y4215873D01*
X7020729Y4216336D01*
X7021489D01*
X7057825Y4231382D01*
X7058362Y4231919D01*
X7059115Y4232018D01*
X7093176Y4251680D01*
X7093638Y4252283D01*
X7094372Y4252480D01*
X7125575Y4276420D01*
X7125955Y4277078D01*
X7126656Y4277369D01*
X7154465Y4305178D01*
X7154756Y4305880D01*
X7155414Y4306260D01*
X7179355Y4337462D01*
X7179551Y4338196D01*
X7180154Y4338658D01*
X7199816Y4372719D01*
X7199915Y4373472D01*
X7200452Y4374010D01*
X7215499Y4410346D01*
Y4411106D01*
X7215961Y4411708D01*
X7226135Y4449698D01*
X7226035Y4450451D01*
X7226415Y4451109D01*
X7231542Y4490102D01*
X7233537Y4492648D01*
X7248109Y4490655D01*
X7250806Y4484142D01*
X7262902Y4472046D01*
X7278707Y4465500D01*
X7295813D01*
X7311618Y4472046D01*
X7323714Y4484142D01*
X7330260Y4499947D01*
Y4517053D01*
X7323714Y4532858D01*
X7311618Y4544954D01*
X7295813Y4551500D01*
X7278707D01*
X7262902Y4544954D01*
X7250806Y4532858D01*
X7244260Y4517053D01*
X7231632Y4517226D01*
Y4715674D01*
X7244260Y4715847D01*
X7250806Y4700042D01*
X7262902Y4687946D01*
X7278707Y4681400D01*
X7295813D01*
X7311618Y4687946D01*
X7323714Y4700042D01*
X7330260Y4715847D01*
Y4732953D01*
X7323714Y4748758D01*
X7311618Y4760854D01*
X7295813Y4767400D01*
X7278707D01*
X7262902Y4760854D01*
X7250806Y4748758D01*
X7244260Y4732953D01*
X7231632Y4733126D01*
X7231632Y5144933D01*
X7244260Y5145107D01*
X7250806Y5129302D01*
X7262902Y5117206D01*
X7278707Y5110660D01*
X7295813D01*
X7311618Y5117206D01*
X7323714Y5129302D01*
X7330260Y5145107D01*
Y5162213D01*
X7323714Y5178018D01*
X7311618Y5190114D01*
X7295813Y5196660D01*
X7278707D01*
X7262902Y5190114D01*
X7250806Y5178018D01*
X7244260Y5162213D01*
X7231632Y5162387D01*
X7231632Y5612300D01*
X7231632Y5612300D01*
X7231636Y5631962D01*
X7231345Y5632663D01*
X7231542Y5633397D01*
X7226416Y5672390D01*
X7226036Y5673049D01*
X7226135Y5673801D01*
X7215961Y5711791D01*
X7215499Y5712394D01*
Y5713154D01*
X7213928Y5716948D01*
X7223649Y5726668D01*
X7232987Y5722800D01*
X7250093D01*
X7265898Y5729346D01*
X7277994Y5741442D01*
X7284540Y5757247D01*
Y5774353D01*
X7277994Y5790158D01*
X7265898Y5802254D01*
X7250093Y5808800D01*
X7232987D01*
X7217182Y5802254D01*
X7205086Y5790158D01*
X7199515Y5776706D01*
X7191477Y5774562D01*
X7185994Y5774725D01*
X7180154Y5784841D01*
X7179552Y5785304D01*
X7179355Y5786038D01*
X7155414Y5817240D01*
X7154757Y5817620D01*
X7154466Y5818322D01*
X7126657Y5846131D01*
X7125955Y5846422D01*
X7125575Y5847079D01*
X7094373Y5871020D01*
X7093639Y5871217D01*
X7093176Y5871819D01*
X7059115Y5891481D01*
X7058362Y5891580D01*
X7057825Y5892118D01*
X7021489Y5907164D01*
X7020729D01*
X7020126Y5907626D01*
X6982136Y5917800D01*
X6981383Y5917701D01*
X6980725Y5918081D01*
X6970907Y5919372D01*
X6967186Y5932670D01*
X6975629Y5941114D01*
X6982176Y5956918D01*
Y5974025D01*
X6975629Y5989829D01*
X6963533Y6001925D01*
X6947729Y6008471D01*
D02*
G37*
G36*
X10054250Y6065343D02*
X10037143D01*
X10021339Y6058797D01*
X10009243Y6046701D01*
X10002697Y6030897D01*
Y6013790D01*
X10008097Y6000754D01*
X10002697Y5987717D01*
Y5970610D01*
X10009149Y5955034D01*
X10002697Y5939457D01*
Y5922350D01*
X10009243Y5906546D01*
X10021339Y5894450D01*
X10037143Y5887904D01*
X10054250D01*
X10070054Y5894450D01*
X10082150Y5906546D01*
X10088696Y5922350D01*
Y5939457D01*
X10082244Y5955034D01*
X10088696Y5970610D01*
Y5987717D01*
X10083296Y6000754D01*
X10088696Y6013790D01*
Y6030897D01*
X10082150Y6046701D01*
X10070054Y6058797D01*
X10054250Y6065343D01*
D02*
G37*
G36*
X8946811Y5963740D02*
X8929705D01*
X8913901Y5957194D01*
X8901805Y5945098D01*
X8895258Y5929293D01*
Y5912187D01*
X8901805Y5896382D01*
X8913901Y5884286D01*
X8929705Y5877740D01*
X8946811D01*
X8962616Y5884286D01*
X8974712Y5896382D01*
X8981258Y5912187D01*
Y5929293D01*
X8974712Y5945098D01*
X8962616Y5957194D01*
X8946811Y5963740D01*
D02*
G37*
G36*
X7194211D02*
X7177105D01*
X7161301Y5957194D01*
X7149205Y5945098D01*
X7142658Y5929293D01*
Y5912187D01*
X7149205Y5896382D01*
X7161301Y5884286D01*
X7177105Y5877740D01*
X7194211D01*
X7210016Y5884286D01*
X7222112Y5896382D01*
X7228658Y5912187D01*
Y5929293D01*
X7222112Y5945098D01*
X7210016Y5957194D01*
X7194211Y5963740D01*
D02*
G37*
G36*
X8304193Y6065340D02*
X8287087D01*
X8271282Y6058794D01*
X8259186Y6046698D01*
X8252640Y6030893D01*
Y6013787D01*
X8259186Y5997982D01*
X8260229Y5996940D01*
X8259186Y5995898D01*
X8252640Y5980093D01*
Y5962987D01*
X8259186Y5947182D01*
X8261499Y5944870D01*
X8259186Y5942558D01*
X8252640Y5926753D01*
Y5909647D01*
X8259186Y5893842D01*
X8271282Y5881746D01*
X8287087Y5875200D01*
X8304193D01*
X8319998Y5881746D01*
X8332094Y5893842D01*
X8338640Y5909647D01*
Y5926753D01*
X8332094Y5942558D01*
X8329781Y5944870D01*
X8332094Y5947182D01*
X8338640Y5962987D01*
Y5980093D01*
X8332094Y5995898D01*
X8331051Y5996940D01*
X8332094Y5997982D01*
X8338640Y6013787D01*
Y6030893D01*
X8332094Y6046698D01*
X8319998Y6058794D01*
X8304193Y6065340D01*
D02*
G37*
G36*
X9503073Y5923820D02*
X9485967D01*
X9470162Y5917274D01*
X9458066Y5905178D01*
X9451520Y5889373D01*
Y5872267D01*
X9458066Y5856463D01*
X9470162Y5844367D01*
X9485967Y5837820D01*
X9503073D01*
X9518878Y5844367D01*
X9530974Y5856463D01*
X9537520Y5872267D01*
Y5889373D01*
X9530974Y5905178D01*
X9518878Y5917274D01*
X9503073Y5923820D01*
D02*
G37*
G36*
X9395977D02*
X9378870D01*
X9363066Y5917274D01*
X9350970Y5905178D01*
X9344424Y5889373D01*
Y5872267D01*
X9350970Y5856463D01*
X9363066Y5844367D01*
X9378870Y5837820D01*
X9395977D01*
X9411781Y5844367D01*
X9423877Y5856463D01*
X9430423Y5872267D01*
Y5889373D01*
X9423877Y5905178D01*
X9411781Y5917274D01*
X9395977Y5923820D01*
D02*
G37*
G36*
X9288636D02*
X9271530D01*
X9255725Y5917274D01*
X9243629Y5905178D01*
X9237083Y5889373D01*
Y5872267D01*
X9243629Y5856463D01*
X9255725Y5844367D01*
X9271530Y5837820D01*
X9288636D01*
X9304441Y5844367D01*
X9316537Y5856463D01*
X9323083Y5872267D01*
Y5889373D01*
X9316537Y5905178D01*
X9304441Y5917274D01*
X9288636Y5923820D01*
D02*
G37*
G36*
X7750473D02*
X7733367D01*
X7717562Y5917274D01*
X7705466Y5905178D01*
X7698920Y5889373D01*
Y5872267D01*
X7705466Y5856463D01*
X7717562Y5844367D01*
X7733367Y5837820D01*
X7750473D01*
X7766278Y5844367D01*
X7778374Y5856463D01*
X7784920Y5872267D01*
Y5889373D01*
X7778374Y5905178D01*
X7766278Y5917274D01*
X7750473Y5923820D01*
D02*
G37*
G36*
X7643793D02*
X7626687D01*
X7610882Y5917274D01*
X7598786Y5905178D01*
X7592240Y5889373D01*
Y5872267D01*
X7598786Y5856463D01*
X7610882Y5844367D01*
X7626687Y5837820D01*
X7643793D01*
X7659598Y5844367D01*
X7671694Y5856463D01*
X7678240Y5872267D01*
Y5889373D01*
X7671694Y5905178D01*
X7659598Y5917274D01*
X7643793Y5923820D01*
D02*
G37*
G36*
X7537113D02*
X7520007D01*
X7504202Y5917274D01*
X7492106Y5905178D01*
X7485560Y5889373D01*
Y5872267D01*
X7492106Y5856463D01*
X7504202Y5844367D01*
X7520007Y5837820D01*
X7537113D01*
X7552918Y5844367D01*
X7565014Y5856463D01*
X7571560Y5872267D01*
Y5889373D01*
X7565014Y5905178D01*
X7552918Y5917274D01*
X7537113Y5923820D01*
D02*
G37*
G36*
X9609753Y5893347D02*
X9592647D01*
X9576842Y5886801D01*
X9564746Y5874705D01*
X9558200Y5858900D01*
Y5841794D01*
X9564746Y5825990D01*
X9576842Y5813894D01*
X9592647Y5807347D01*
X9609753D01*
X9625558Y5813894D01*
X9637654Y5825990D01*
X9644200Y5841794D01*
Y5858900D01*
X9637654Y5874705D01*
X9625558Y5886801D01*
X9609753Y5893347D01*
D02*
G37*
G36*
X7858230D02*
X7841124D01*
X7825319Y5886801D01*
X7813223Y5874705D01*
X7806677Y5858900D01*
Y5841794D01*
X7813223Y5825990D01*
X7825319Y5813894D01*
X7841124Y5807347D01*
X7858230D01*
X7874035Y5813894D01*
X7886131Y5825990D01*
X7892677Y5841794D01*
Y5858900D01*
X7886131Y5874705D01*
X7874035Y5886801D01*
X7858230Y5893347D01*
D02*
G37*
G36*
X8213273Y5765620D02*
X8196167D01*
X8180362Y5759074D01*
X8173720Y5752431D01*
X8167078Y5759074D01*
X8151273Y5765620D01*
X8134167D01*
X8118362Y5759074D01*
X8106266Y5746978D01*
X8099720Y5731173D01*
Y5714067D01*
X8106266Y5698262D01*
X8118362Y5686166D01*
X8134167Y5679620D01*
X8151273D01*
X8167078Y5686166D01*
X8173720Y5692809D01*
X8180362Y5686166D01*
X8196167Y5679620D01*
X8213273D01*
X8229078Y5686166D01*
X8241174Y5698262D01*
X8247720Y5714067D01*
Y5731173D01*
X8241174Y5746978D01*
X8229078Y5759074D01*
X8213273Y5765620D01*
D02*
G37*
G36*
X9265092Y5749212D02*
X9247986D01*
X9232182Y5742666D01*
X9220086Y5730570D01*
X9213539Y5714765D01*
Y5697659D01*
X9220086Y5681855D01*
X9232182Y5669759D01*
X9247986Y5663212D01*
X9265092D01*
X9280897Y5669759D01*
X9292993Y5681855D01*
X9299539Y5697659D01*
Y5714765D01*
X9292993Y5730570D01*
X9280897Y5742666D01*
X9265092Y5749212D01*
D02*
G37*
G36*
X153333Y5705380D02*
X136227D01*
X120422Y5698834D01*
X108326Y5686738D01*
X101780Y5670933D01*
Y5653827D01*
X108326Y5638023D01*
X120422Y5625927D01*
X136227Y5619380D01*
X153333D01*
X169138Y5625927D01*
X181234Y5638023D01*
X187780Y5653827D01*
Y5670933D01*
X181234Y5686738D01*
X169138Y5698834D01*
X153333Y5705380D01*
D02*
G37*
G36*
X9261773Y5604650D02*
X9244667D01*
X9228862Y5598104D01*
X9216766Y5586008D01*
X9210220Y5570203D01*
Y5553097D01*
X9216766Y5537292D01*
X9228862Y5525196D01*
X9244667Y5518650D01*
X9261773D01*
X9277578Y5525196D01*
X9289674Y5537292D01*
X9296220Y5553097D01*
Y5570203D01*
X9289674Y5586008D01*
X9277578Y5598104D01*
X9261773Y5604650D01*
D02*
G37*
G36*
X7725073Y5554800D02*
X7707967D01*
X7692162Y5548254D01*
X7680066Y5536158D01*
X7673520Y5520353D01*
Y5503247D01*
X7680066Y5487442D01*
X7692162Y5475346D01*
X7707967Y5468800D01*
X7725073D01*
X7740878Y5475346D01*
X7752974Y5487442D01*
X7759520Y5503247D01*
Y5520353D01*
X7752974Y5536158D01*
X7740878Y5548254D01*
X7725073Y5554800D01*
D02*
G37*
G36*
X8797893Y5518300D02*
X8780786D01*
X8764982Y5511754D01*
X8752886Y5499658D01*
X8746340Y5483854D01*
Y5466747D01*
X8752886Y5450943D01*
X8764982Y5438847D01*
X8780786Y5432301D01*
X8790180D01*
Y5422907D01*
X8796727Y5407102D01*
X8808823Y5395006D01*
X8824627Y5388460D01*
X8841733D01*
X8857538Y5395006D01*
X8869634Y5407102D01*
X8876180Y5422907D01*
Y5440013D01*
X8869634Y5455817D01*
X8857538Y5467913D01*
X8841733Y5474460D01*
X8832339D01*
Y5483854D01*
X8825793Y5499658D01*
X8813697Y5511754D01*
X8797893Y5518300D01*
D02*
G37*
G36*
X8245773Y5447400D02*
X8228667D01*
X8212862Y5440854D01*
X8200766Y5428758D01*
X8194220Y5412954D01*
Y5395847D01*
X8200766Y5380043D01*
X8212862Y5367947D01*
X8228667Y5361401D01*
X8245773D01*
X8261578Y5367947D01*
X8273674Y5380043D01*
X8280220Y5395847D01*
Y5412954D01*
X8273674Y5428758D01*
X8261578Y5440854D01*
X8245773Y5447400D01*
D02*
G37*
G36*
X8123091D02*
X8105985D01*
X8090180Y5440854D01*
X8078084Y5428758D01*
X8071538Y5412954D01*
Y5395847D01*
X8078084Y5380043D01*
X8090180Y5367947D01*
X8105985Y5361401D01*
X8123091D01*
X8138896Y5367947D01*
X8150992Y5380043D01*
X8157538Y5395847D01*
Y5412954D01*
X8150992Y5428758D01*
X8138896Y5440854D01*
X8123091Y5447400D01*
D02*
G37*
G36*
X8003203D02*
X7986097D01*
X7970292Y5440854D01*
X7958196Y5428758D01*
X7951650Y5412954D01*
Y5395847D01*
X7958196Y5380043D01*
X7970292Y5367947D01*
X7986097Y5361401D01*
X8003203D01*
X8019007Y5367947D01*
X8031103Y5380043D01*
X8037650Y5395847D01*
Y5412954D01*
X8031103Y5428758D01*
X8019007Y5440854D01*
X8003203Y5447400D01*
D02*
G37*
G36*
X7883315D02*
X7866209D01*
X7850404Y5440854D01*
X7838308Y5428758D01*
X7831762Y5412954D01*
Y5395847D01*
X7838308Y5380043D01*
X7850404Y5367947D01*
X7866209Y5361401D01*
X7883315D01*
X7899120Y5367947D01*
X7911216Y5380043D01*
X7917762Y5395847D01*
Y5412954D01*
X7911216Y5428758D01*
X7899120Y5440854D01*
X7883315Y5447400D01*
D02*
G37*
G36*
X8362613Y5447397D02*
X8345507D01*
X8329702Y5440850D01*
X8317606Y5428754D01*
X8311060Y5412950D01*
Y5395844D01*
X8317606Y5380039D01*
X8329702Y5367943D01*
X8345507Y5361397D01*
X8362613D01*
X8378418Y5367943D01*
X8390514Y5380039D01*
X8397060Y5395844D01*
Y5412950D01*
X8390514Y5428754D01*
X8378418Y5440850D01*
X8362613Y5447397D01*
D02*
G37*
G36*
X8094274Y5331280D02*
X8077168D01*
X8061363Y5324734D01*
X8054721Y5318091D01*
X8048079Y5324734D01*
X8032274Y5331280D01*
X8015168D01*
X7999363Y5324734D01*
X7987267Y5312638D01*
X7980721Y5296833D01*
Y5279727D01*
X7987267Y5263922D01*
X7999363Y5251826D01*
X8015168Y5245280D01*
X8032274D01*
X8048079Y5251826D01*
X8054721Y5258469D01*
X8061363Y5251826D01*
X8077168Y5245280D01*
X8094274D01*
X8110079Y5251826D01*
X8122175Y5263922D01*
X8128721Y5279727D01*
Y5296833D01*
X8122175Y5312638D01*
X8110079Y5324734D01*
X8094274Y5331280D01*
D02*
G37*
G36*
X8454192Y5326200D02*
X8437086D01*
X8421281Y5319654D01*
X8414639Y5313011D01*
X8407997Y5319654D01*
X8392192Y5326200D01*
X8375086D01*
X8359281Y5319654D01*
X8347185Y5307558D01*
X8340639Y5291753D01*
Y5274647D01*
X8347185Y5258842D01*
X8359281Y5246746D01*
X8375086Y5240200D01*
X8392192D01*
X8407997Y5246746D01*
X8414639Y5253389D01*
X8421281Y5246746D01*
X8437086Y5240200D01*
X8454192D01*
X8469997Y5246746D01*
X8482093Y5258842D01*
X8488639Y5274647D01*
Y5291753D01*
X8482093Y5307558D01*
X8469997Y5319654D01*
X8454192Y5326200D01*
D02*
G37*
G36*
X10326569Y5355802D02*
X10309463D01*
X10293659Y5349255D01*
X10281563Y5337160D01*
X10275016Y5321355D01*
Y5304249D01*
X10281563Y5288444D01*
X10293659Y5276348D01*
X10309463Y5269802D01*
X10326569D01*
X10342374Y5276348D01*
X10354470Y5288444D01*
X10361016Y5304249D01*
Y5321355D01*
X10354470Y5337160D01*
X10342374Y5349255D01*
X10326569Y5355802D01*
D02*
G37*
G36*
X7974259Y5128080D02*
X7957153D01*
X7941349Y5121534D01*
X7934706Y5114891D01*
X7928064Y5121534D01*
X7912260Y5128080D01*
X7895153D01*
X7879349Y5121534D01*
X7867253Y5109438D01*
X7861532Y5095628D01*
X7854244Y5084900D01*
X7837138D01*
X7821333Y5078354D01*
X7814691Y5071711D01*
X7808049Y5078354D01*
X7792244Y5084900D01*
X7775138D01*
X7759333Y5078354D01*
X7747237Y5066258D01*
X7740691Y5050453D01*
Y5033347D01*
X7747237Y5017542D01*
X7759333Y5005446D01*
X7775138Y4998900D01*
X7792244D01*
X7808049Y5005446D01*
X7814691Y5012089D01*
X7821333Y5005446D01*
X7837138Y4998900D01*
X7854244D01*
X7870049Y5005446D01*
X7882145Y5017542D01*
X7887865Y5031352D01*
X7895153Y5042080D01*
X7912260D01*
X7928064Y5048626D01*
X7934706Y5055269D01*
X7941349Y5048626D01*
X7957153Y5042080D01*
X7974259D01*
X7990064Y5048626D01*
X8002160Y5060722D01*
X8008706Y5076527D01*
Y5093633D01*
X8002160Y5109438D01*
X7990064Y5121534D01*
X7974259Y5128080D01*
D02*
G37*
G36*
X8333851Y5104898D02*
X8316745D01*
X8300940Y5098351D01*
X8294226Y5091637D01*
X8287656Y5098206D01*
X8271851Y5104753D01*
X8254745D01*
X8238941Y5098206D01*
X8226845Y5086110D01*
X8220298Y5070306D01*
Y5053200D01*
X8226845Y5037395D01*
X8238941Y5025299D01*
X8254745Y5018753D01*
X8271851D01*
X8287656Y5025299D01*
X8294371Y5032014D01*
X8300940Y5025444D01*
X8316745Y5018898D01*
X8333851D01*
X8349656Y5025444D01*
X8361752Y5037540D01*
X8368298Y5053344D01*
Y5070451D01*
X8361752Y5086255D01*
X8349656Y5098351D01*
X8333851Y5104898D01*
D02*
G37*
G36*
X8626701Y5051141D02*
X8609594D01*
X8593790Y5044594D01*
X8581694Y5032498D01*
X8575148Y5016694D01*
Y4999587D01*
X8581694Y4983783D01*
X8588376Y4977102D01*
X8581772Y4970498D01*
X8575226Y4954694D01*
Y4937588D01*
X8581772Y4921783D01*
X8593868Y4909687D01*
X8609673Y4903141D01*
X8626779D01*
X8642583Y4909687D01*
X8654679Y4921783D01*
X8661226Y4937588D01*
Y4954694D01*
X8654679Y4970498D01*
X8647998Y4977180D01*
X8654601Y4983783D01*
X8661148Y4999587D01*
Y5016694D01*
X8654601Y5032498D01*
X8642505Y5044594D01*
X8626701Y5051141D01*
D02*
G37*
G36*
X7403213Y4983300D02*
X7386106D01*
X7370302Y4976754D01*
X7358206Y4964658D01*
X7351660Y4948853D01*
Y4931747D01*
X7358206Y4915942D01*
X7370302Y4903846D01*
X7386106Y4897300D01*
X7403213D01*
X7419017Y4903846D01*
X7431113Y4915942D01*
X7437659Y4931747D01*
Y4948853D01*
X7431113Y4964658D01*
X7419017Y4976754D01*
X7403213Y4983300D01*
D02*
G37*
G36*
X562273Y4884240D02*
X545167D01*
X529362Y4877694D01*
X521970Y4870301D01*
X514578Y4877694D01*
X498773Y4884240D01*
X481667D01*
X465862Y4877694D01*
X457200Y4869031D01*
X448538Y4877694D01*
X432733Y4884240D01*
X415627D01*
X399822Y4877694D01*
X392430Y4870301D01*
X385038Y4877694D01*
X369233Y4884240D01*
X352127D01*
X336322Y4877694D01*
X324226Y4865598D01*
X317680Y4849793D01*
Y4832687D01*
X324226Y4816882D01*
X336322Y4804786D01*
X352127Y4798240D01*
X369233D01*
X385038Y4804786D01*
X392430Y4812179D01*
X399822Y4804786D01*
X415627Y4798240D01*
X432733D01*
X448538Y4804786D01*
X457200Y4813449D01*
X465862Y4804786D01*
X481667Y4798240D01*
X498773D01*
X514578Y4804786D01*
X521970Y4812179D01*
X529362Y4804786D01*
X545167Y4798240D01*
X562273D01*
X578078Y4804786D01*
X590174Y4816882D01*
X596720Y4832687D01*
Y4849793D01*
X590174Y4865598D01*
X578078Y4877694D01*
X562273Y4884240D01*
D02*
G37*
G36*
X10327484Y4922160D02*
X10310378D01*
X10294573Y4915613D01*
X10282477Y4903517D01*
X10275931Y4887713D01*
Y4870607D01*
X10282477Y4854802D01*
X10294573Y4842706D01*
X10310378Y4836160D01*
X10327484D01*
X10343288Y4842706D01*
X10355384Y4854802D01*
X10361931Y4870607D01*
Y4887713D01*
X10355384Y4903517D01*
X10343288Y4915613D01*
X10327484Y4922160D01*
D02*
G37*
G36*
X9264313Y4996000D02*
X9247207D01*
X9231402Y4989454D01*
X9219306Y4977358D01*
X9212760Y4961553D01*
Y4944447D01*
X9218686Y4930140D01*
X9212760Y4915833D01*
Y4898727D01*
X9219212Y4883150D01*
X9212760Y4867573D01*
Y4850467D01*
X9219306Y4834662D01*
X9231402Y4822566D01*
X9247207Y4816020D01*
X9264313D01*
X9280118Y4822566D01*
X9292214Y4834662D01*
X9298760Y4850467D01*
Y4867573D01*
X9292308Y4883150D01*
X9298760Y4898727D01*
Y4915833D01*
X9292834Y4930140D01*
X9298760Y4944447D01*
Y4961553D01*
X9292214Y4977358D01*
X9280118Y4989454D01*
X9264313Y4996000D01*
D02*
G37*
G36*
X153333Y4866460D02*
X136227D01*
X120422Y4859914D01*
X108326Y4847818D01*
X101780Y4832013D01*
Y4814907D01*
X108326Y4799102D01*
X120422Y4787006D01*
X136227Y4780460D01*
X153333D01*
X169138Y4787006D01*
X181234Y4799102D01*
X187780Y4814907D01*
Y4832013D01*
X181234Y4847818D01*
X169138Y4859914D01*
X153333Y4866460D01*
D02*
G37*
G36*
X8763214Y4846140D02*
X8746107D01*
X8730303Y4839594D01*
X8718207Y4827498D01*
X8711661Y4811693D01*
Y4794587D01*
X8718207Y4778782D01*
X8730303Y4766686D01*
X8746107Y4760140D01*
X8763214D01*
X8779018Y4766686D01*
X8791114Y4778782D01*
X8797660Y4794587D01*
Y4811693D01*
X8791114Y4827498D01*
X8779018Y4839594D01*
X8763214Y4846140D01*
D02*
G37*
G36*
X7689330Y4964885D02*
X7672223D01*
X7656419Y4958339D01*
X7644323Y4946243D01*
X7637777Y4930438D01*
Y4913332D01*
X7644323Y4897527D01*
X7651721Y4890129D01*
X7655005Y4881880D01*
X7651721Y4873631D01*
X7644323Y4866233D01*
X7637777Y4850428D01*
Y4833322D01*
X7644323Y4817517D01*
X7656419Y4805421D01*
X7672223Y4798875D01*
X7689330D01*
X7705134Y4805421D01*
X7706540Y4806827D01*
X7719240Y4801567D01*
Y4792047D01*
X7725786Y4776242D01*
X7737882Y4764146D01*
X7753687Y4757600D01*
X7770793D01*
X7786598Y4764146D01*
X7798694Y4776242D01*
X7805240Y4792047D01*
Y4809153D01*
X7798694Y4824958D01*
X7791036Y4832615D01*
X7789235Y4842832D01*
X7791798Y4848447D01*
X7800874Y4857522D01*
X7807420Y4873327D01*
Y4890433D01*
X7800874Y4906238D01*
X7788778Y4918334D01*
X7772973Y4924880D01*
X7755867D01*
X7740062Y4918334D01*
X7736477Y4914748D01*
X7723777Y4920008D01*
Y4930438D01*
X7717230Y4946243D01*
X7705134Y4958339D01*
X7689330Y4964885D01*
D02*
G37*
G36*
X7511713Y4726760D02*
X7494607D01*
X7478802Y4720214D01*
X7466706Y4708118D01*
X7460160Y4692313D01*
Y4675207D01*
X7466706Y4659402D01*
X7478802Y4647306D01*
X7494607Y4640760D01*
X7511713D01*
X7527518Y4647306D01*
X7539614Y4659402D01*
X7546160Y4675207D01*
Y4692313D01*
X7539614Y4708118D01*
X7527518Y4720214D01*
X7511713Y4726760D01*
D02*
G37*
G36*
X8763214Y4724220D02*
X8746107D01*
X8730303Y4717674D01*
X8718207Y4705578D01*
X8711661Y4689773D01*
Y4672667D01*
X8718207Y4656862D01*
X8730303Y4644766D01*
X8746107Y4638220D01*
X8763214D01*
X8779018Y4644766D01*
X8791114Y4656862D01*
X8797660Y4672667D01*
Y4689773D01*
X8791114Y4705578D01*
X8779018Y4717674D01*
X8763214Y4724220D01*
D02*
G37*
G36*
Y4604840D02*
X8746107D01*
X8730303Y4598294D01*
X8718207Y4586198D01*
X8711661Y4570393D01*
Y4553287D01*
X8718207Y4537482D01*
X8730303Y4525386D01*
X8746107Y4518840D01*
X8763214D01*
X8779018Y4525386D01*
X8791114Y4537482D01*
X8797660Y4553287D01*
Y4570393D01*
X8791114Y4586198D01*
X8779018Y4598294D01*
X8763214Y4604840D01*
D02*
G37*
G36*
X10325233Y4527764D02*
X10308127D01*
X10292323Y4521218D01*
X10280227Y4509122D01*
X10273680Y4493318D01*
Y4476211D01*
X10280227Y4460407D01*
X10292323Y4448311D01*
X10308127Y4441765D01*
X10325233D01*
X10341038Y4448311D01*
X10353134Y4460407D01*
X10359680Y4476211D01*
Y4493318D01*
X10353134Y4509122D01*
X10341038Y4521218D01*
X10325233Y4527764D01*
D02*
G37*
G36*
X8398173Y4815799D02*
X8381067D01*
X8365262Y4809253D01*
X8353166Y4797157D01*
X8346620Y4781352D01*
Y4764246D01*
X8353166Y4748441D01*
X8359809Y4741799D01*
X8353166Y4735157D01*
X8346620Y4719352D01*
Y4702246D01*
X8353166Y4686441D01*
X8365262Y4674345D01*
X8381067Y4667799D01*
X8388838D01*
X8399060Y4661977D01*
X8399960Y4656066D01*
Y4644358D01*
X8406506Y4628553D01*
X8413149Y4621911D01*
X8406506Y4615269D01*
X8399960Y4599464D01*
Y4586947D01*
X8395843Y4579955D01*
X8388890Y4575896D01*
X8376347D01*
X8360542Y4569350D01*
X8348446Y4557254D01*
X8341900Y4541449D01*
Y4524343D01*
X8348446Y4508538D01*
X8355089Y4501896D01*
X8348446Y4495254D01*
X8341900Y4479449D01*
Y4462343D01*
X8348446Y4446538D01*
X8360542Y4434442D01*
X8376347Y4427896D01*
X8393453D01*
X8409258Y4434442D01*
X8421353Y4446538D01*
X8427900Y4462343D01*
Y4479449D01*
X8421353Y4495254D01*
X8414711Y4501896D01*
X8421353Y4508538D01*
X8427900Y4524343D01*
Y4536860D01*
X8432017Y4543852D01*
X8438970Y4547911D01*
X8451513D01*
X8467318Y4554457D01*
X8479414Y4566553D01*
X8485960Y4582358D01*
Y4599464D01*
X8479414Y4615269D01*
X8472771Y4621911D01*
X8479414Y4628553D01*
X8485960Y4644358D01*
Y4661464D01*
X8479414Y4677269D01*
X8467318Y4689365D01*
X8451513Y4695911D01*
X8443742D01*
X8433520Y4701733D01*
X8432620Y4707644D01*
Y4719352D01*
X8426074Y4735157D01*
X8419431Y4741799D01*
X8426074Y4748441D01*
X8432620Y4764246D01*
Y4781352D01*
X8426074Y4797157D01*
X8413978Y4809253D01*
X8398173Y4815799D01*
D02*
G37*
G36*
X8763214Y4492892D02*
X8746107D01*
X8730303Y4486346D01*
X8718207Y4474250D01*
X8711661Y4458445D01*
Y4441339D01*
X8718207Y4425534D01*
X8730303Y4413438D01*
X8746107Y4406892D01*
X8763214D01*
X8779018Y4413438D01*
X8791114Y4425534D01*
X8797660Y4441339D01*
Y4458445D01*
X8791114Y4474250D01*
X8779018Y4486346D01*
X8763214Y4492892D01*
D02*
G37*
G36*
X7293273Y4449900D02*
X7276167D01*
X7260362Y4443354D01*
X7248266Y4431258D01*
X7241720Y4415453D01*
Y4398347D01*
X7248266Y4382542D01*
X7260362Y4370446D01*
X7276167Y4363900D01*
X7293273D01*
X7309078Y4370446D01*
X7321174Y4382542D01*
X7327720Y4398347D01*
Y4415453D01*
X7321174Y4431258D01*
X7309078Y4443354D01*
X7293273Y4449900D01*
D02*
G37*
G36*
X153333Y4435380D02*
X136227D01*
X120422Y4428834D01*
X108326Y4416738D01*
X101780Y4400933D01*
Y4383827D01*
X108326Y4368023D01*
X120422Y4355927D01*
X136227Y4349380D01*
X153333D01*
X169138Y4355927D01*
X181234Y4368023D01*
X187780Y4383827D01*
Y4400933D01*
X181234Y4416738D01*
X169138Y4428834D01*
X153333Y4435380D01*
D02*
G37*
G36*
X1453813Y4421960D02*
X1436707D01*
X1420902Y4415414D01*
X1408806Y4403318D01*
X1402260Y4387513D01*
Y4370407D01*
X1408806Y4354602D01*
X1420902Y4342506D01*
X1436707Y4335960D01*
X1453813D01*
X1469618Y4342506D01*
X1481714Y4354602D01*
X1488260Y4370407D01*
Y4387513D01*
X1481714Y4403318D01*
X1469618Y4415414D01*
X1453813Y4421960D01*
D02*
G37*
G36*
X8908713Y4455881D02*
X8891607D01*
X8875802Y4449335D01*
X8863706Y4437239D01*
X8857160Y4421434D01*
Y4404328D01*
X8863706Y4388523D01*
X8870349Y4381881D01*
X8863706Y4375239D01*
X8857160Y4359434D01*
Y4342328D01*
X8863706Y4326523D01*
X8875802Y4314427D01*
X8891607Y4307881D01*
X8908713D01*
X8924518Y4314427D01*
X8936614Y4326523D01*
X8943160Y4342328D01*
Y4359434D01*
X8936614Y4375239D01*
X8929971Y4381881D01*
X8936614Y4388523D01*
X8943160Y4404328D01*
Y4421434D01*
X8936614Y4437239D01*
X8924518Y4449335D01*
X8908713Y4455881D01*
D02*
G37*
G36*
X7403213Y4340680D02*
X7386106D01*
X7370302Y4334134D01*
X7358206Y4322038D01*
X7351660Y4306233D01*
Y4289127D01*
X7358206Y4273322D01*
X7370302Y4261226D01*
X7386106Y4254680D01*
X7403213D01*
X7419017Y4261226D01*
X7431113Y4273322D01*
X7437659Y4289127D01*
Y4306233D01*
X7431113Y4322038D01*
X7419017Y4334134D01*
X7403213Y4340680D01*
D02*
G37*
G36*
X1347133Y4315280D02*
X1330027D01*
X1314222Y4308734D01*
X1302126Y4296638D01*
X1295580Y4280833D01*
Y4263727D01*
X1302126Y4247922D01*
X1314222Y4235826D01*
X1330027Y4229280D01*
X1347133D01*
X1362938Y4235826D01*
X1375034Y4247922D01*
X1381580Y4263727D01*
Y4280833D01*
X1375034Y4296638D01*
X1362938Y4308734D01*
X1347133Y4315280D01*
D02*
G37*
G36*
X8796913Y4249240D02*
X8779807D01*
X8764002Y4242694D01*
X8751906Y4230598D01*
X8745360Y4214793D01*
Y4197687D01*
X8751906Y4181882D01*
X8764002Y4169786D01*
X8779807Y4163240D01*
X8796913D01*
X8812717Y4169786D01*
X8824813Y4181882D01*
X8831360Y4197687D01*
Y4214793D01*
X8824813Y4230598D01*
X8812717Y4242694D01*
X8796913Y4249240D01*
D02*
G37*
G36*
X9307493Y4144315D02*
X9290387D01*
X9274582Y4137769D01*
X9265920Y4129106D01*
X9257258Y4137769D01*
X9241453Y4144315D01*
X9224347D01*
X9208542Y4137769D01*
X9196446Y4125673D01*
X9189900Y4109868D01*
Y4092762D01*
X9196446Y4076958D01*
X9199865Y4073539D01*
X9196446Y4070120D01*
X9189900Y4054315D01*
Y4037209D01*
X9196446Y4021405D01*
X9208542Y4009309D01*
X9224347Y4002762D01*
X9241453D01*
X9257258Y4009309D01*
X9265920Y4017971D01*
X9274582Y4009309D01*
X9290387Y4002762D01*
X9307493D01*
X9323298Y4009309D01*
X9335394Y4021405D01*
X9341940Y4037209D01*
Y4054315D01*
X9335394Y4070120D01*
X9331975Y4073539D01*
X9335394Y4076958D01*
X9341940Y4092762D01*
Y4109868D01*
X9335394Y4125673D01*
X9323298Y4137769D01*
X9307493Y4144315D01*
D02*
G37*
G36*
X1237913Y4208600D02*
X1220807D01*
X1205002Y4202054D01*
X1192906Y4189958D01*
X1186360Y4174153D01*
Y4157047D01*
X1192906Y4141242D01*
X1205002Y4129146D01*
X1220807Y4122600D01*
X1237913D01*
X1253718Y4129146D01*
X1265814Y4141242D01*
X1272360Y4157047D01*
Y4174153D01*
X1265814Y4189958D01*
X1253718Y4202054D01*
X1237913Y4208600D01*
D02*
G37*
G36*
X1453813Y4200980D02*
X1436707D01*
X1420902Y4194434D01*
X1408806Y4182338D01*
X1402260Y4166533D01*
Y4149427D01*
X1408806Y4133622D01*
X1420902Y4121526D01*
X1436707Y4114980D01*
X1453813D01*
X1469618Y4121526D01*
X1481714Y4133622D01*
X1488260Y4149427D01*
Y4166533D01*
X1481714Y4182338D01*
X1469618Y4194434D01*
X1453813Y4200980D01*
D02*
G37*
G36*
X1349673Y4101920D02*
X1332567D01*
X1316762Y4095374D01*
X1304666Y4083278D01*
X1298120Y4067473D01*
Y4050367D01*
X1304666Y4034562D01*
X1316762Y4022466D01*
X1332567Y4015920D01*
X1349673D01*
X1365478Y4022466D01*
X1377574Y4034562D01*
X1384120Y4050367D01*
Y4067473D01*
X1377574Y4083278D01*
X1365478Y4095374D01*
X1349673Y4101920D01*
D02*
G37*
G36*
X10321787Y4086680D02*
X10304680D01*
X10288876Y4080134D01*
X10276780Y4068038D01*
X10270234Y4052233D01*
Y4035127D01*
X10276780Y4019322D01*
X10288876Y4007226D01*
X10304680Y4000680D01*
X10321787D01*
X10337591Y4007226D01*
X10349687Y4019322D01*
X10356234Y4035127D01*
Y4052233D01*
X10349687Y4068038D01*
X10337591Y4080134D01*
X10321787Y4086680D01*
D02*
G37*
G36*
X8082578Y4082319D02*
X8065472D01*
X8049667Y4075773D01*
X8037571Y4063677D01*
X8031025Y4047873D01*
Y4030766D01*
X8037571Y4014962D01*
X8049667Y4002866D01*
X8065472Y3996320D01*
X8082578D01*
X8098383Y4002866D01*
X8110479Y4014962D01*
X8117025Y4030766D01*
Y4047873D01*
X8110479Y4063677D01*
X8098383Y4075773D01*
X8082578Y4082319D01*
D02*
G37*
G36*
X7963833D02*
X7946727D01*
X7930922Y4075773D01*
X7918826Y4063677D01*
X7912280Y4047873D01*
Y4030766D01*
X7918826Y4014962D01*
X7930922Y4002866D01*
X7946727Y3996320D01*
X7963833D01*
X7979638Y4002866D01*
X7991734Y4014962D01*
X7998280Y4030766D01*
Y4047873D01*
X7991734Y4063677D01*
X7979638Y4075773D01*
X7963833Y4082319D01*
D02*
G37*
G36*
X7841913D02*
X7824807D01*
X7809002Y4075773D01*
X7796906Y4063677D01*
X7790360Y4047873D01*
Y4030766D01*
X7796906Y4014962D01*
X7809002Y4002866D01*
X7824807Y3996320D01*
X7841913D01*
X7857718Y4002866D01*
X7869814Y4014962D01*
X7876360Y4030766D01*
Y4047873D01*
X7869814Y4063677D01*
X7857718Y4075773D01*
X7841913Y4082319D01*
D02*
G37*
G36*
X8642013Y4049022D02*
X8624907D01*
X8609102Y4042476D01*
X8597006Y4030380D01*
X8590460Y4014575D01*
Y3997469D01*
X8597006Y3981665D01*
X8609102Y3969569D01*
X8624907Y3963022D01*
X8642013D01*
X8657818Y3969569D01*
X8669914Y3981665D01*
X8676460Y3997469D01*
Y4014575D01*
X8669914Y4030380D01*
X8657818Y4042476D01*
X8642013Y4049022D01*
D02*
G37*
G36*
X2965113Y4005400D02*
X2948007D01*
X2932202Y3998854D01*
X2920106Y3986758D01*
X2913560Y3970953D01*
Y3953847D01*
X2920106Y3938042D01*
X2932202Y3925946D01*
X2948007Y3919400D01*
X2965113D01*
X2980918Y3925946D01*
X2993014Y3938042D01*
X2999560Y3953847D01*
Y3970953D01*
X2993014Y3986758D01*
X2980918Y3998854D01*
X2965113Y4005400D01*
D02*
G37*
G36*
X2833033D02*
X2815927D01*
X2800122Y3998854D01*
X2788026Y3986758D01*
X2781480Y3970953D01*
Y3953847D01*
X2788026Y3938042D01*
X2800122Y3925946D01*
X2815927Y3919400D01*
X2833033D01*
X2848838Y3925946D01*
X2860934Y3938042D01*
X2867480Y3953847D01*
Y3970953D01*
X2860934Y3986758D01*
X2848838Y3998854D01*
X2833033Y4005400D01*
D02*
G37*
G36*
X2706033D02*
X2688927D01*
X2673122Y3998854D01*
X2661026Y3986758D01*
X2654480Y3970953D01*
Y3953847D01*
X2661026Y3938042D01*
X2673122Y3925946D01*
X2688927Y3919400D01*
X2706033D01*
X2721838Y3925946D01*
X2733934Y3938042D01*
X2740480Y3953847D01*
Y3970953D01*
X2733934Y3986758D01*
X2721838Y3998854D01*
X2706033Y4005400D01*
D02*
G37*
G36*
X6180753Y3860620D02*
X6163647D01*
X6147842Y3854074D01*
X6135746Y3841978D01*
X6129200Y3826173D01*
Y3816779D01*
X6119806D01*
X6104002Y3810233D01*
X6091906Y3798137D01*
X6086420Y3784893D01*
X6074590Y3786198D01*
X6073626Y3786520D01*
X6067174Y3802098D01*
X6055078Y3814194D01*
X6039273Y3820740D01*
X6022167D01*
X6006363Y3814194D01*
X5994267Y3802098D01*
X5987720Y3786293D01*
Y3776899D01*
X5978326D01*
X5962522Y3770353D01*
X5950426Y3758257D01*
X5943880Y3742453D01*
Y3725346D01*
X5950426Y3709542D01*
X5962522Y3697446D01*
X5978326Y3690900D01*
X5995433D01*
X6011237Y3697446D01*
X6023333Y3709542D01*
X6029879Y3725346D01*
Y3734740D01*
X6039273D01*
X6055078Y3741287D01*
X6067174Y3753383D01*
X6072659Y3766626D01*
X6084490Y3765322D01*
X6085453Y3764999D01*
X6091906Y3749422D01*
X6104002Y3737326D01*
X6119806Y3730779D01*
X6136913D01*
X6152717Y3737326D01*
X6164813Y3749422D01*
X6171359Y3765226D01*
Y3774620D01*
X6180753D01*
X6196558Y3781166D01*
X6208654Y3793262D01*
X6215200Y3809067D01*
Y3826173D01*
X6208654Y3841978D01*
X6196558Y3854074D01*
X6180753Y3860620D01*
D02*
G37*
G36*
X8253393Y3865700D02*
X8236287D01*
X8220482Y3859154D01*
X8208386Y3847058D01*
X8201840Y3831253D01*
Y3814147D01*
X8208386Y3798342D01*
X8220482Y3786246D01*
X8236287Y3779700D01*
X8253393D01*
X8269198Y3786246D01*
X8281294Y3798342D01*
X8287840Y3814147D01*
Y3831253D01*
X8281294Y3847058D01*
X8269198Y3859154D01*
X8253393Y3865700D01*
D02*
G37*
G36*
X5903893Y4144350D02*
X5886787D01*
X5870982Y4137804D01*
X5858886Y4125708D01*
X5852340Y4109903D01*
Y4092797D01*
X5858886Y4076992D01*
X5865529Y4070350D01*
X5858886Y4063708D01*
X5852340Y4047903D01*
Y4030797D01*
X5854944Y4024511D01*
X5853767Y4022750D01*
X5837962Y4016204D01*
X5825866Y4004108D01*
X5819320Y3988303D01*
Y3971197D01*
X5825866Y3955392D01*
X5832509Y3948750D01*
X5825866Y3942108D01*
X5819320Y3926303D01*
Y3909197D01*
X5825866Y3893393D01*
X5837962Y3881297D01*
X5848177Y3877066D01*
X5845243Y3869983D01*
Y3852876D01*
X5851789Y3837072D01*
X5863885Y3824976D01*
X5879689Y3818429D01*
X5889802D01*
Y3809767D01*
X5896348Y3793962D01*
X5908444Y3781866D01*
X5924249Y3775320D01*
X5941355D01*
X5957160Y3781866D01*
X5969256Y3793962D01*
X5975802Y3809767D01*
Y3826873D01*
X5969256Y3842677D01*
X5957160Y3854773D01*
X5941355Y3861320D01*
X5931242D01*
Y3869983D01*
X5924696Y3885787D01*
X5912600Y3897883D01*
X5902386Y3902114D01*
X5905320Y3909197D01*
Y3926303D01*
X5898774Y3942108D01*
X5892131Y3948750D01*
X5898774Y3955392D01*
X5905320Y3971197D01*
Y3988303D01*
X5902716Y3994589D01*
X5903893Y3996350D01*
X5919698Y4002896D01*
X5931794Y4014992D01*
X5938340Y4030797D01*
Y4047903D01*
X5931794Y4063708D01*
X5925151Y4070350D01*
X5931794Y4076992D01*
X5938340Y4092797D01*
Y4109903D01*
X5931794Y4125708D01*
X5919698Y4137804D01*
X5903893Y4144350D01*
D02*
G37*
G36*
X2065743Y3810030D02*
X2048637D01*
X2032832Y3803484D01*
X2020736Y3791388D01*
X2014190Y3775583D01*
Y3758477D01*
X2020736Y3742672D01*
X2032832Y3730576D01*
X2048637Y3724030D01*
X2065743D01*
X2081548Y3730576D01*
X2093644Y3742672D01*
X2100190Y3758477D01*
Y3775583D01*
X2093644Y3791388D01*
X2081548Y3803484D01*
X2065743Y3810030D01*
D02*
G37*
G36*
X2177503Y3703350D02*
X2160397D01*
X2144592Y3696804D01*
X2132496Y3684708D01*
X2125950Y3668903D01*
Y3651797D01*
X2132496Y3635992D01*
X2144592Y3623896D01*
X2160397Y3617350D01*
X2177503D01*
X2193308Y3623896D01*
X2205404Y3635992D01*
X2211950Y3651797D01*
Y3668903D01*
X2205404Y3684708D01*
X2193308Y3696804D01*
X2177503Y3703350D01*
D02*
G37*
G36*
X1959063D02*
X1941957D01*
X1926152Y3696804D01*
X1914056Y3684708D01*
X1907510Y3668903D01*
Y3651797D01*
X1914056Y3635992D01*
X1926152Y3623896D01*
X1941957Y3617350D01*
X1959063D01*
X1974868Y3623896D01*
X1986964Y3635992D01*
X1993510Y3651797D01*
Y3668903D01*
X1986964Y3684708D01*
X1974868Y3696804D01*
X1959063Y3703350D01*
D02*
G37*
G36*
X5425353Y3732286D02*
X5406879D01*
X5389035Y3727505D01*
X5373037Y3718268D01*
X5359974Y3705205D01*
X5350737Y3689207D01*
X5345956Y3671363D01*
Y3652889D01*
X5350737Y3635045D01*
X5359974Y3619047D01*
X5373037Y3605984D01*
X5389035Y3596747D01*
X5406879Y3591966D01*
X5425353D01*
X5443197Y3596747D01*
X5459195Y3605984D01*
X5472258Y3619047D01*
X5481494Y3635045D01*
X5486276Y3652889D01*
Y3671363D01*
X5481494Y3689207D01*
X5472258Y3705205D01*
X5459195Y3718268D01*
X5443197Y3727505D01*
X5425353Y3732286D01*
D02*
G37*
G36*
X1625353D02*
X1606879D01*
X1589035Y3727505D01*
X1573037Y3718268D01*
X1559974Y3705205D01*
X1550737Y3689207D01*
X1545956Y3671363D01*
Y3652889D01*
X1550737Y3635045D01*
X1559974Y3619047D01*
X1573037Y3605984D01*
X1589035Y3596747D01*
X1606879Y3591966D01*
X1625353D01*
X1643197Y3596747D01*
X1659195Y3605984D01*
X1672258Y3619047D01*
X1681494Y3635045D01*
X1686276Y3652889D01*
Y3671363D01*
X1681494Y3689207D01*
X1672258Y3705205D01*
X1659195Y3718268D01*
X1643197Y3727505D01*
X1625353Y3732286D01*
D02*
G37*
G36*
X1849843Y3596670D02*
X1832737D01*
X1816932Y3590124D01*
X1804836Y3578028D01*
X1798290Y3562223D01*
Y3545117D01*
X1804836Y3529312D01*
X1816932Y3517216D01*
X1832737Y3510670D01*
X1849843D01*
X1865648Y3517216D01*
X1877744Y3529312D01*
X1884290Y3545117D01*
Y3562223D01*
X1877744Y3578028D01*
X1865648Y3590124D01*
X1849843Y3596670D01*
D02*
G37*
G36*
X2065743Y3589050D02*
X2048637D01*
X2032832Y3582504D01*
X2020736Y3570408D01*
X2014190Y3554603D01*
Y3537497D01*
X2020736Y3521692D01*
X2032832Y3509596D01*
X2048637Y3503050D01*
X2065743D01*
X2081548Y3509596D01*
X2093644Y3521692D01*
X2100190Y3537497D01*
Y3554603D01*
X2093644Y3570408D01*
X2081548Y3582504D01*
X2065743Y3589050D01*
D02*
G37*
G36*
X6160433Y3489780D02*
X6143327D01*
X6127522Y3483234D01*
X6120880Y3476591D01*
X6114238Y3483234D01*
X6098433Y3489780D01*
X6081327D01*
X6065523Y3483234D01*
X6053427Y3471138D01*
X6046880Y3455333D01*
Y3438227D01*
X6053427Y3422422D01*
X6065523Y3410326D01*
X6081327Y3403780D01*
X6098433D01*
X6114238Y3410326D01*
X6120880Y3416969D01*
X6127522Y3410326D01*
X6143327Y3403780D01*
X6160433D01*
X6176238Y3410326D01*
X6188334Y3422422D01*
X6194880Y3438227D01*
Y3455333D01*
X6188334Y3471138D01*
X6176238Y3483234D01*
X6160433Y3489780D01*
D02*
G37*
G36*
X5969273Y3586961D02*
X5952166D01*
X5936362Y3580414D01*
X5924266Y3568318D01*
X5917719Y3552514D01*
Y3535407D01*
X5924266Y3519603D01*
X5936362Y3507507D01*
X5952166Y3500961D01*
X5961560D01*
Y3491567D01*
X5968106Y3475762D01*
X5980202Y3463666D01*
X5996007Y3457120D01*
X6013113D01*
X6028918Y3463666D01*
X6041014Y3475762D01*
X6047560Y3491567D01*
Y3508673D01*
X6041014Y3524478D01*
X6028918Y3536574D01*
X6013113Y3543120D01*
X6003719D01*
Y3552514D01*
X5997173Y3568318D01*
X5985077Y3580414D01*
X5969273Y3586961D01*
D02*
G37*
G36*
X6373793Y3459300D02*
X6356687D01*
X6340882Y3452754D01*
X6332220Y3444091D01*
X6323558Y3452754D01*
X6307753Y3459300D01*
X6290647D01*
X6274842Y3452754D01*
X6262746Y3440658D01*
X6256200Y3424853D01*
Y3407747D01*
X6262746Y3391942D01*
X6274842Y3379846D01*
X6290647Y3373300D01*
X6307753D01*
X6323558Y3379846D01*
X6332220Y3388509D01*
X6340882Y3379846D01*
X6356687Y3373300D01*
X6373793D01*
X6389598Y3379846D01*
X6401694Y3391942D01*
X6408240Y3407747D01*
Y3424853D01*
X6401694Y3440658D01*
X6389598Y3452754D01*
X6373793Y3459300D01*
D02*
G37*
G36*
X1961603Y3489990D02*
X1944497D01*
X1928692Y3483444D01*
X1916596Y3471348D01*
X1910050Y3455543D01*
Y3438437D01*
X1916596Y3422632D01*
X1928692Y3410536D01*
X1944497Y3403990D01*
X1961603D01*
X1977408Y3410536D01*
X1989504Y3422632D01*
X1996050Y3438437D01*
Y3455543D01*
X1989504Y3471348D01*
X1977408Y3483444D01*
X1961603Y3489990D01*
D02*
G37*
G36*
X9249073Y3362780D02*
X9231967D01*
X9216162Y3356234D01*
X9215120Y3355191D01*
X9214078Y3356234D01*
X9198273Y3362780D01*
X9181167D01*
X9165362Y3356234D01*
X9153266Y3344138D01*
X9146720Y3328333D01*
Y3311227D01*
X9153266Y3295422D01*
X9154309Y3294380D01*
X9153266Y3293338D01*
X9146720Y3277533D01*
Y3260427D01*
X9153266Y3244622D01*
X9154309Y3243580D01*
X9153266Y3242538D01*
X9146720Y3226733D01*
Y3209627D01*
X9153266Y3193822D01*
X9165362Y3181726D01*
X9181167Y3175180D01*
X9198273D01*
X9214078Y3181726D01*
X9215120Y3182769D01*
X9216162Y3181726D01*
X9231967Y3175180D01*
X9249073D01*
X9264878Y3181726D01*
X9276974Y3193822D01*
X9283520Y3209627D01*
Y3226733D01*
X9276974Y3242538D01*
X9275931Y3243580D01*
X9276974Y3244622D01*
X9283520Y3260427D01*
Y3277533D01*
X9276974Y3293338D01*
X9275931Y3294380D01*
X9276974Y3295422D01*
X9283520Y3311227D01*
Y3328333D01*
X9276974Y3344138D01*
X9264878Y3356234D01*
X9249073Y3362780D01*
D02*
G37*
G36*
X7839373Y3334840D02*
X7822267D01*
X7806462Y3328294D01*
X7794366Y3316198D01*
X7793243Y3313486D01*
X7779497D01*
X7778374Y3316198D01*
X7766278Y3328294D01*
X7750473Y3334840D01*
X7733367D01*
X7717562Y3328294D01*
X7705466Y3316198D01*
X7698920Y3300393D01*
Y3283287D01*
X7705466Y3267482D01*
X7717562Y3255386D01*
X7733367Y3248840D01*
X7750473D01*
X7766278Y3255386D01*
X7778374Y3267482D01*
X7779497Y3270194D01*
X7793243D01*
X7794366Y3267482D01*
X7806462Y3255386D01*
X7822267Y3248840D01*
X7839373D01*
X7855178Y3255386D01*
X7867274Y3267482D01*
X7869141Y3271990D01*
X7882887D01*
X7885806Y3264942D01*
X7897902Y3252846D01*
X7913707Y3246300D01*
X7930813D01*
X7946618Y3252846D01*
X7956710Y3262939D01*
X7964170Y3264096D01*
X7971630Y3262939D01*
X7981722Y3252846D01*
X7997527Y3246300D01*
X8014633D01*
X8030438Y3252846D01*
X8042534Y3264942D01*
X8049080Y3280747D01*
Y3297853D01*
X8042534Y3313658D01*
X8030438Y3325754D01*
X8014633Y3332300D01*
X7997527D01*
X7981722Y3325754D01*
X7971630Y3315661D01*
X7964170Y3314504D01*
X7956710Y3315661D01*
X7946618Y3325754D01*
X7930813Y3332300D01*
X7913707D01*
X7897902Y3325754D01*
X7885806Y3313658D01*
X7883939Y3309150D01*
X7870193D01*
X7867274Y3316198D01*
X7855178Y3328294D01*
X7839373Y3334840D01*
D02*
G37*
%LPD*%
D10*
X9888712Y8047670D02*
G03*
X9779000Y7988300I44846J-213928D01*
G01*
X9933558Y8052320D02*
G03*
X9888712Y8047670I0J-218578D01*
G01*
X9933558Y8052320D02*
X10185400D01*
D37*
X7584440Y8661400D02*
D03*
Y7381240D02*
D03*
X8872922Y8661400D02*
D03*
Y7381240D02*
D03*
D38*
X7594346Y7671308D02*
D03*
Y7921244D02*
D03*
Y8121396D02*
D03*
Y8371332D02*
D03*
X7444486Y7621270D02*
D03*
Y7821422D02*
D03*
Y8021320D02*
D03*
Y8221218D02*
D03*
Y8421370D02*
D03*
X8882828Y7671308D02*
D03*
Y7921244D02*
D03*
Y8121396D02*
D03*
Y8371332D02*
D03*
X8732968Y7621270D02*
D03*
Y7821422D02*
D03*
Y8021320D02*
D03*
Y8221218D02*
D03*
Y8421370D02*
D03*
D39*
X10197198Y7781315D02*
D03*
X9767201D02*
D03*
Y8261325D02*
D03*
X10197198D02*
D03*
D40*
X1616116Y6469476D02*
D03*
X5416116D02*
D03*
X1616116Y3662126D02*
D03*
X5416116D02*
D03*
D41*
X8337132Y4431371D02*
D03*
X8444428Y4801782D02*
D03*
X8335926Y4741799D02*
D03*
X8340318Y4673205D02*
D03*
X8806182Y6155367D02*
D03*
X8806045Y6217367D02*
D03*
X8806180Y6538480D02*
D03*
Y6476480D02*
D03*
X8389620Y4772799D02*
D03*
Y4710799D02*
D03*
X8442960Y4652911D02*
D03*
Y4590911D02*
D03*
X8384900Y4532896D02*
D03*
Y4470896D02*
D03*
X7731537Y5075425D02*
D03*
X8027290Y5092253D02*
D03*
X7904768Y5023089D02*
D03*
X7053580Y6156440D02*
D03*
Y6218440D02*
D03*
X7965706Y5085080D02*
D03*
X7903706D02*
D03*
X7056120Y6538480D02*
D03*
Y6476480D02*
D03*
X7783691Y5041900D02*
D03*
X7845691D02*
D03*
X7465060Y6208620D02*
D03*
Y6146620D02*
D03*
X8023721Y5288280D02*
D03*
X8085721D02*
D03*
X8850770Y4450359D02*
D03*
X9202963Y6208620D02*
D03*
Y6146620D02*
D03*
X8900160Y4350881D02*
D03*
Y4412881D02*
D03*
X9781540Y7990333D02*
D03*
X9416114Y7788373D02*
D03*
X5932802Y3818320D02*
D03*
X9781540Y8052333D02*
D03*
X9415776Y7850372D02*
D03*
X5888242Y3861429D02*
D03*
X10185400Y8052320D02*
D03*
Y7990320D02*
D03*
X10137140Y7574673D02*
D03*
X6172200Y3817620D02*
D03*
X10137140Y7512673D02*
D03*
X6128359Y3773779D02*
D03*
X9718441Y7447280D02*
D03*
X9780440D02*
D03*
X9680942Y7395325D02*
D03*
X7761321Y6528103D02*
D03*
X7610293Y6533400D02*
D03*
X6639560Y6811760D02*
D03*
Y6873760D02*
D03*
X7719095Y6573501D02*
D03*
X7657097Y6574062D02*
D03*
X7879600Y6964680D02*
D03*
X7817600D02*
D03*
X6979920Y6680714D02*
D03*
Y6742713D02*
D03*
X9508200Y6962140D02*
D03*
X6210254Y3425890D02*
D03*
X6028013Y3442727D02*
D03*
X5929539Y3597550D02*
D03*
X5908074Y4162028D02*
D03*
X5944530Y4001609D02*
D03*
X5826506Y3867140D02*
D03*
X5873188Y3801285D02*
D03*
X6000176Y3673342D02*
D03*
X5929118Y3756429D02*
D03*
X5994080Y3827755D02*
D03*
X6081087Y3813895D02*
D03*
X6089880Y3446780D02*
D03*
X6151880D02*
D03*
X5960719Y3543961D02*
D03*
X6004560Y3500120D02*
D03*
X5986880Y3733900D02*
D03*
X6030720Y3777740D02*
D03*
X9632200Y6962140D02*
D03*
X9570200D02*
D03*
X5862320Y3917750D02*
D03*
Y3979750D02*
D03*
X9407640Y6578600D02*
D03*
X9469640D02*
D03*
X5895340Y4101350D02*
D03*
Y4039350D02*
D03*
X8873629Y5384471D02*
D03*
X8745499Y5519141D02*
D03*
X8789340Y5475300D02*
D03*
X8833180Y5431460D02*
D03*
X8618148Y5008141D02*
D03*
X8618226Y4946141D02*
D03*
X8445639Y5283200D02*
D03*
X8383639D02*
D03*
X8294771Y5007934D02*
D03*
X8205451Y5039444D02*
D03*
X8382439Y5037838D02*
D03*
X8325298Y5061898D02*
D03*
X8263298Y5061753D02*
D03*
X8809308Y6414559D02*
D03*
X8803463Y6600420D02*
D03*
X8806193Y6279367D02*
D03*
X8806178Y6093367D02*
D03*
X9601200Y7015833D02*
D03*
X9128760Y7350760D02*
D03*
Y7292340D02*
D03*
X9509760Y7523480D02*
D03*
X8083224Y5740063D02*
D03*
X8266719Y5722356D02*
D03*
X8204720Y5722620D02*
D03*
X8142720D02*
D03*
X7050286Y6280352D02*
D03*
X7053580Y6094440D02*
D03*
X7032681Y6419081D02*
D03*
X6998077Y6560274D02*
D03*
X6669317Y6928152D02*
D03*
X6677765Y6762930D02*
D03*
X7940341Y6952252D02*
D03*
X7756859D02*
D03*
X10399519Y7402064D02*
D03*
X8226036Y8106773D02*
D03*
X10318016Y5312802D02*
D03*
X10318931Y4879160D02*
D03*
X10316680Y4484764D02*
D03*
X6939176Y5965471D02*
D03*
X9827916Y7935461D02*
D03*
X143568Y6088560D02*
D03*
X436880Y7653020D02*
D03*
X513080D02*
D03*
X589280D02*
D03*
Y7602220D02*
D03*
X513080D02*
D03*
X436880D02*
D03*
X1023620Y7975600D02*
D03*
X1099820D02*
D03*
X1176020D02*
D03*
Y7924800D02*
D03*
X1099820D02*
D03*
X1023620D02*
D03*
X1041400Y8671560D02*
D03*
X1117600D02*
D03*
X1193800D02*
D03*
Y8620760D02*
D03*
X1117600D02*
D03*
X1041400D02*
D03*
X1277620Y8752840D02*
D03*
X1353820D02*
D03*
X1430020D02*
D03*
Y8702040D02*
D03*
X1353820D02*
D03*
X1277620D02*
D03*
X784860Y8750300D02*
D03*
X861060D02*
D03*
X937260D02*
D03*
Y8699500D02*
D03*
X861060D02*
D03*
X784860D02*
D03*
X779780Y8577580D02*
D03*
X855980D02*
D03*
X932180D02*
D03*
Y8526780D02*
D03*
X855980D02*
D03*
X779780D02*
D03*
X1267460Y8580120D02*
D03*
X1343660D02*
D03*
X1419860D02*
D03*
Y8529320D02*
D03*
X1343660D02*
D03*
X1267460D02*
D03*
X1262380Y8133080D02*
D03*
X1338580D02*
D03*
X1414780D02*
D03*
Y8082280D02*
D03*
X1338580D02*
D03*
X1262380D02*
D03*
X1267460Y8450580D02*
D03*
X1343660D02*
D03*
X1419860D02*
D03*
Y8399780D02*
D03*
X1343660D02*
D03*
X1267460D02*
D03*
X93980Y6281420D02*
D03*
Y6169660D02*
D03*
Y6228080D02*
D03*
X9075420Y4963160D02*
D03*
Y4917440D02*
D03*
Y4871720D02*
D03*
X9123680Y5212080D02*
D03*
X8244840Y3822700D02*
D03*
X347980Y6111240D02*
D03*
X414020D02*
D03*
X477520D02*
D03*
X541020Y6113780D02*
D03*
X360680Y4841240D02*
D03*
X424180D02*
D03*
X490220D02*
D03*
X553720D02*
D03*
X2956560Y6764020D02*
D03*
X2827020D02*
D03*
X2702560D02*
D03*
X2697480Y3962400D02*
D03*
X2824480D02*
D03*
X2956560D02*
D03*
X4777740Y6012180D02*
D03*
X4845799Y6352483D02*
D03*
X4658360Y6062980D02*
D03*
X4541106Y6232950D02*
D03*
X4437980Y6033730D02*
D03*
X4303798Y6078848D02*
D03*
X3759200Y6197600D02*
D03*
X3947160Y6322060D02*
D03*
X3878985Y6086466D02*
D03*
X3614722Y6037832D02*
D03*
X3594100Y6296660D02*
D03*
X2811780Y6327140D02*
D03*
X2900680Y6240780D02*
D03*
X3088640Y6172200D02*
D03*
X2918460Y6073140D02*
D03*
X2989580Y6035040D02*
D03*
X2773680Y6027420D02*
D03*
X2905760Y3373120D02*
D03*
X2733040Y3246120D02*
D03*
X2768600Y3352800D02*
D03*
X2840851Y3282718D02*
D03*
X3126155Y3374751D02*
D03*
X3558540Y3385820D02*
D03*
X4522940Y3385371D02*
D03*
X4691432Y3389619D02*
D03*
X4340289Y3235994D02*
D03*
X4622761Y3262895D02*
D03*
X4366484Y3377583D02*
D03*
X3954780Y3406140D02*
D03*
X3731260Y3370580D02*
D03*
X3843020Y3248660D02*
D03*
X3604260Y3218180D02*
D03*
X3053080Y3225800D02*
D03*
X1328420Y6911340D02*
D03*
X1130300Y6715760D02*
D03*
X1346200Y4993640D02*
D03*
X1272540D02*
D03*
Y4912360D02*
D03*
X1346200D02*
D03*
X1272540Y4719320D02*
D03*
X1346200D02*
D03*
X1272540Y4630420D02*
D03*
X1346200D02*
D03*
Y4442460D02*
D03*
X1272540D02*
D03*
X485140Y5062220D02*
D03*
X563880Y5064760D02*
D03*
X508000Y5151120D02*
D03*
X378460D02*
D03*
X246380D02*
D03*
X142240D02*
D03*
X73660Y5074920D02*
D03*
Y5001260D02*
D03*
Y4930140D02*
D03*
X1290320Y6273800D02*
D03*
X1358900D02*
D03*
X1292860Y6192520D02*
D03*
X1358900D02*
D03*
X1297940Y5897880D02*
D03*
X1358900Y5900420D02*
D03*
X1346200Y5717540D02*
D03*
X1275080D02*
D03*
X637540Y6245860D02*
D03*
Y6299200D02*
D03*
X574040Y6245860D02*
D03*
Y6299200D02*
D03*
X484420Y4368800D02*
D03*
Y5639837D02*
D03*
X360680Y5801360D02*
D03*
X449580D02*
D03*
X533400D02*
D03*
X414020Y4559300D02*
D03*
X472440D02*
D03*
X530995Y4557608D02*
D03*
X228600Y6451600D02*
D03*
Y6400800D02*
D03*
X177800D02*
D03*
Y6451600D02*
D03*
X939800Y6807200D02*
D03*
Y6731000D02*
D03*
Y6654800D02*
D03*
X990600D02*
D03*
Y6731000D02*
D03*
Y6807200D02*
D03*
X1953050Y3446990D02*
D03*
X2057190Y3546050D02*
D03*
X1841290Y3553670D02*
D03*
X2057190Y3767030D02*
D03*
X2168950Y3660350D02*
D03*
X1950510D02*
D03*
X1445260Y4157980D02*
D03*
X1338580Y4272280D02*
D03*
X1229360Y4165600D02*
D03*
X1341120Y4058920D02*
D03*
X1557020Y4272280D02*
D03*
X1445260Y4378960D02*
D03*
X1681480Y6835140D02*
D03*
X1752600Y6758940D02*
D03*
X1856740Y6865620D02*
D03*
X1783080Y6939280D02*
D03*
X1356360Y7155180D02*
D03*
X1280160Y7231380D02*
D03*
X1463040Y7264400D02*
D03*
X1386840Y7338060D02*
D03*
X927100Y3314700D02*
D03*
X962660Y3350260D02*
D03*
X2319020Y3322320D02*
D03*
X5212080Y3812540D02*
D03*
X4733116Y3501942D02*
D03*
X4352116D02*
D03*
X3209116D02*
D03*
X3082116D02*
D03*
X2574116D02*
D03*
X5114116Y6309292D02*
D03*
X4733116D02*
D03*
X4352116D02*
D03*
X3209116D02*
D03*
X3082116D02*
D03*
X2574116D02*
D03*
X2320116D02*
D03*
X144780Y5662380D02*
D03*
Y4823460D02*
D03*
Y4392380D02*
D03*
X9223700Y8651240D02*
D03*
X9350700D02*
D03*
X9477700D02*
D03*
X9604700Y8653780D02*
D03*
X7830820D02*
D03*
X7964480D02*
D03*
X8091480Y8652510D02*
D03*
X8218480Y8653780D02*
D03*
X8397240Y8754866D02*
D03*
X9679940Y8727440D02*
D03*
X9378000Y7659752D02*
D03*
X6324600Y3319780D02*
D03*
Y3276280D02*
D03*
X6464300Y3624580D02*
D03*
X6537960D02*
D03*
X6393180D02*
D03*
X8120380Y4775200D02*
D03*
X8067040D02*
D03*
Y4724400D02*
D03*
X8120380D02*
D03*
X7889240Y4777740D02*
D03*
X7835900D02*
D03*
Y4726940D02*
D03*
X7889240D02*
D03*
X8120380Y4655820D02*
D03*
X8067040D02*
D03*
Y4605020D02*
D03*
X8120380D02*
D03*
X7889240Y4658360D02*
D03*
X7835900D02*
D03*
Y4607560D02*
D03*
X7889240D02*
D03*
X8120380Y4528820D02*
D03*
X8067040D02*
D03*
Y4478020D02*
D03*
X8120380D02*
D03*
X7889240Y4528820D02*
D03*
X7835900D02*
D03*
Y4478020D02*
D03*
X7889240D02*
D03*
X7800340Y6344920D02*
D03*
X7731760Y6342380D02*
D03*
X7670800D02*
D03*
X7609840D02*
D03*
X7551420D02*
D03*
X7800340Y6225540D02*
D03*
X7731760D02*
D03*
X7670800D02*
D03*
X7609840D02*
D03*
X7551420D02*
D03*
X7704826Y6455674D02*
D03*
X7767320Y6456680D02*
D03*
X7830820D02*
D03*
X10441940Y7447280D02*
D03*
X10345420Y8034020D02*
D03*
X8785140Y4921385D02*
D03*
X6235700Y3932891D02*
D03*
X7503160Y4683760D02*
D03*
X7762240Y4800600D02*
D03*
X7764420Y4881880D02*
D03*
X7680777Y4921885D02*
D03*
X7922260Y3289300D02*
D03*
X7830820Y3291840D02*
D03*
X8006080Y3289300D02*
D03*
X7741920Y3291840D02*
D03*
X7680777Y4841875D02*
D03*
X8553519Y3328601D02*
D03*
X8229600Y3289300D02*
D03*
X8577580Y3828883D02*
D03*
X8778240Y3952240D02*
D03*
X8229321Y7668455D02*
D03*
X10313234Y4043680D02*
D03*
X9255760Y4859020D02*
D03*
Y4953000D02*
D03*
Y4907280D02*
D03*
X9232900Y4101315D02*
D03*
X9298940D02*
D03*
X9232900Y4045762D02*
D03*
X9298940D02*
D03*
X7955280Y7289800D02*
D03*
Y7406640D02*
D03*
Y7348220D02*
D03*
X9128760Y7409180D02*
D03*
X9514840Y3733800D02*
D03*
X9240520Y3731260D02*
D03*
X9306560D02*
D03*
X9372600D02*
D03*
X9446260Y3732698D02*
D03*
X10462260Y3421380D02*
D03*
X10375900D02*
D03*
X10462260Y3347720D02*
D03*
X10375900D02*
D03*
X10396220Y3271520D02*
D03*
X10309860D02*
D03*
X10325100Y3208020D02*
D03*
X10238740D02*
D03*
X10223500Y3139440D02*
D03*
X10137140D02*
D03*
X10165080Y3202940D02*
D03*
X10078720D02*
D03*
X10002520Y3159760D02*
D03*
X9916160D02*
D03*
X9751486Y3130559D02*
D03*
X9677826Y3133099D02*
D03*
X9162206Y3138179D02*
D03*
X9334926Y3135639D02*
D03*
X9591466Y3133099D02*
D03*
X9837846Y3130559D02*
D03*
X9507646Y3133099D02*
D03*
X9248566Y3135639D02*
D03*
X9075846Y3138179D02*
D03*
X9421286Y3133099D02*
D03*
X10462260Y3505200D02*
D03*
X10375900D02*
D03*
X10462260Y3563620D02*
D03*
X10375900D02*
D03*
X10462260Y3622040D02*
D03*
X10375900D02*
D03*
X10462260Y3677920D02*
D03*
X10375900D02*
D03*
Y3733800D02*
D03*
X10462260D02*
D03*
X9065260Y4051300D02*
D03*
Y4099560D02*
D03*
X9121140Y4051300D02*
D03*
Y4099560D02*
D03*
X9080500Y4333240D02*
D03*
X9141460Y4335780D02*
D03*
Y4386580D02*
D03*
X9123680Y5161280D02*
D03*
X9075420D02*
D03*
Y5212080D02*
D03*
X9123680Y5260340D02*
D03*
X9075420D02*
D03*
X9123680Y4871720D02*
D03*
Y4917440D02*
D03*
Y4963160D02*
D03*
X9321115Y8173677D02*
D03*
X9281160Y8064500D02*
D03*
X8481060Y8067040D02*
D03*
X8351520Y7538720D02*
D03*
X8061960Y6207760D02*
D03*
X8221980Y8168640D02*
D03*
X9387423Y6301740D02*
D03*
X9296400Y6510020D02*
D03*
X9385300Y6418580D02*
D03*
X9387423Y6510020D02*
D03*
X9494520D02*
D03*
X9491980Y6416040D02*
D03*
Y6301740D02*
D03*
X9596953D02*
D03*
Y6416040D02*
D03*
Y6510020D02*
D03*
X7394660Y4297680D02*
D03*
Y4940300D02*
D03*
X8354060Y5404397D02*
D03*
X7241540Y5765800D02*
D03*
X9253220Y5561650D02*
D03*
X9256539Y5706212D02*
D03*
X9230360Y5821680D02*
D03*
X9489857Y6115364D02*
D03*
X9619015Y6128871D02*
D03*
X10038737Y6204988D02*
D03*
X9804710Y6217620D02*
D03*
X9123680Y7162800D02*
D03*
X9230360Y7155180D02*
D03*
X9113958Y7050720D02*
D03*
X8974711Y6882509D02*
D03*
X8971280Y6764020D02*
D03*
X8872220Y6776720D02*
D03*
X7477760Y7091749D02*
D03*
X7541191Y7152640D02*
D03*
X7249160Y7160260D02*
D03*
X7360029Y7049391D02*
D03*
X7272122Y6713118D02*
D03*
X7227191Y6887589D02*
D03*
X7044164Y6660497D02*
D03*
X7040880Y6769100D02*
D03*
X9940501Y4742180D02*
D03*
X7849677Y5850347D02*
D03*
X7854795Y6117545D02*
D03*
X7708696Y5977168D02*
D03*
X7844353Y5992917D02*
D03*
X7737257Y6115364D02*
D03*
X9489857Y5988241D02*
D03*
X9596953Y5992917D02*
D03*
X9825380Y7198129D02*
D03*
X9823500Y7393389D02*
D03*
X10137800Y7396160D02*
D03*
X10139680Y7200900D02*
D03*
X6299200Y3416300D02*
D03*
X10055140Y4865549D02*
D03*
X9938623Y6891276D02*
D03*
X9954260Y5885180D02*
D03*
X9953926Y5819842D02*
D03*
X10099040Y3982720D02*
D03*
X9931400Y5603240D02*
D03*
X10033000Y5057140D02*
D03*
X9941560D02*
D03*
X9987280D02*
D03*
Y4229100D02*
D03*
X9941560D02*
D03*
X10033000D02*
D03*
X7284720Y4300220D02*
D03*
Y4406900D02*
D03*
X7287260Y4508500D02*
D03*
Y4620260D02*
D03*
Y4724400D02*
D03*
Y4833620D02*
D03*
Y4937760D02*
D03*
Y5044440D02*
D03*
Y5153660D02*
D03*
X7716520Y5511800D02*
D03*
X7823200Y5466080D02*
D03*
X7995920Y5506720D02*
D03*
X7874762Y5404400D02*
D03*
X7994650D02*
D03*
X8114538D02*
D03*
X8116763Y5506340D02*
D03*
X8237220D02*
D03*
Y5404400D02*
D03*
X8356600Y5514340D02*
D03*
X8754660Y4803140D02*
D03*
X8867140D02*
D03*
X8754660Y4681220D02*
D03*
X8867140Y4559300D02*
D03*
Y4681220D02*
D03*
X8788360Y4206240D02*
D03*
X8754660Y4449892D02*
D03*
Y4561840D02*
D03*
X7785100Y3980180D02*
D03*
X7952740Y3937000D02*
D03*
X7833360Y4039320D02*
D03*
X7955280D02*
D03*
X8074025D02*
D03*
X8181340Y3934460D02*
D03*
X8074660D02*
D03*
X8288020D02*
D03*
X8529320Y3937000D02*
D03*
X8633460Y4006022D02*
D03*
X8054340Y5943600D02*
D03*
Y5877560D02*
D03*
Y5819140D02*
D03*
X8295640Y6022340D02*
D03*
Y5971540D02*
D03*
Y5918200D02*
D03*
X8173720Y6891020D02*
D03*
X8008620Y6959600D02*
D03*
X7528560Y5880820D02*
D03*
X7635240D02*
D03*
X7741920D02*
D03*
X7421880Y5773420D02*
D03*
X7741920D02*
D03*
X7635240D02*
D03*
X7528560D02*
D03*
X9125011Y5819140D02*
D03*
X7125418Y6073860D02*
D03*
Y5973362D02*
D03*
X7185658Y5920740D02*
D03*
Y6027420D02*
D03*
X7084060Y6344920D02*
D03*
X7185658Y6347460D02*
D03*
Y6667500D02*
D03*
X7544743Y6894660D02*
D03*
X7643960D02*
D03*
X7722700D02*
D03*
X7579360Y6834420D02*
D03*
X7688580D02*
D03*
X8195502Y6705600D02*
D03*
X8162847Y6385560D02*
D03*
Y6492240D02*
D03*
X8223087Y6549553D02*
D03*
X8222533Y6439453D02*
D03*
X9786620Y5882640D02*
D03*
Y5941060D02*
D03*
X9758680Y5821680D02*
D03*
X8834120Y5920740D02*
D03*
X8832632Y6027420D02*
D03*
X9387423Y5777865D02*
D03*
X10045696Y5930904D02*
D03*
Y5979164D02*
D03*
Y6022344D02*
D03*
X9494520Y5777865D02*
D03*
X9601200Y5850347D02*
D03*
X9915447Y6385560D02*
D03*
Y6492240D02*
D03*
X9977120Y6548120D02*
D03*
X9975133Y6436913D02*
D03*
X9334500Y6834420D02*
D03*
X9441180D02*
D03*
X8835172Y6667500D02*
D03*
X8938258D02*
D03*
X8830092Y6347460D02*
D03*
X8938258D02*
D03*
X9494520Y5880820D02*
D03*
X9272411Y6894971D02*
D03*
X9387840Y6894660D02*
D03*
X9948102Y6705600D02*
D03*
X10317480Y4556760D02*
D03*
X10205720D02*
D03*
X10261600D02*
D03*
Y5384800D02*
D03*
X10205720D02*
D03*
X10317480D02*
D03*
X8938258Y6027420D02*
D03*
Y5920740D02*
D03*
X9280083Y5880820D02*
D03*
X9387423D02*
D03*
X9240520Y3319780D02*
D03*
X9189720D02*
D03*
X9240520Y3268980D02*
D03*
X9189720D02*
D03*
X9240520Y3218180D02*
D03*
X9189720D02*
D03*
X6365240Y3416300D02*
D03*
%TF.MD5,0ee84913078806070ab9ddfb39bb6b88*%
M02*
