%TF.GenerationSoftware,Altium Limited,Altium Designer,24.0.1 (36)*%
G04 Layer_Physical_Order=4*
G04 Layer_Color=15238730*
%FSLAX45Y45*%
%MOMM*%
%TF.SameCoordinates,B6A243B4-E260-46CF-AFF0-E69CB888832F*%
%TF.FilePolarity,Positive*%
%TF.FileFunction,Copper,L4,Bot,Signal*%
%TF.Part,Single*%
G01*
G75*
%TA.AperFunction,Conductor*%
%ADD10C,0.12954*%
%ADD11C,0.15240*%
%ADD12C,0.10897*%
%ADD13C,1.27000*%
%ADD14C,0.50800*%
%ADD15C,0.20320*%
%TA.AperFunction,SMDPad,CuDef*%
%ADD16R,0.50000X0.50000*%
%ADD17R,1.92001X1.72400*%
%ADD18R,0.88900X1.27000*%
%ADD19R,0.50000X0.50000*%
%ADD20R,1.00000X0.45000*%
%ADD24C,1.00000*%
%ADD34R,0.50000X1.50000*%
%ADD35O,0.50000X1.50000*%
%TA.AperFunction,Conductor*%
%ADD36C,0.38100*%
%TA.AperFunction,ComponentPad*%
%ADD37C,2.99974*%
%ADD38C,1.19888*%
%ADD39C,1.30000*%
%ADD40C,1.00000*%
%TA.AperFunction,ViaPad*%
%ADD41C,0.40000*%
%TA.AperFunction,Conductor*%
%ADD42C,0.12700*%
%ADD43C,0.25400*%
%TA.AperFunction,SMDPad,CuDef*%
G04:AMPARAMS|DCode=44|XSize=1.27mm|YSize=0.889mm|CornerRadius=0mm|HoleSize=0mm|Usage=FLASHONLY|Rotation=0.000|XOffset=0mm|YOffset=0mm|HoleType=Round|Shape=Octagon|*
%AMOCTAGOND44*
4,1,8,0.63500,-0.22225,0.63500,0.22225,0.41275,0.44450,-0.41275,0.44450,-0.63500,0.22225,-0.63500,-0.22225,-0.41275,-0.44450,0.41275,-0.44450,0.63500,-0.22225,0.0*
%
%ADD44OCTAGOND44*%

%ADD45R,1.27000X0.88900*%
%ADD46O,0.80000X1.20000*%
%ADD47R,0.80000X1.20000*%
%ADD48O,1.50000X0.50000*%
%ADD49R,1.50000X0.50000*%
%ADD50P,0.70711X4X270.0*%
%ADD51R,3.30000X3.30000*%
%ADD52O,0.70000X0.20000*%
%ADD53O,0.20000X0.70000*%
%ADD54O,0.80000X0.20000*%
%ADD55O,0.20000X0.80000*%
%ADD56R,5.50000X5.50000*%
G04:AMPARAMS|DCode=57|XSize=1.3mm|YSize=1.2mm|CornerRadius=0mm|HoleSize=0mm|Usage=FLASHONLY|Rotation=45.000|XOffset=0mm|YOffset=0mm|HoleType=Round|Shape=Rectangle|*
%AMROTATEDRECTD57*
4,1,4,-0.03535,-0.88388,-0.88388,-0.03535,0.03535,0.88388,0.88388,0.03535,-0.03535,-0.88388,0.0*
%
%ADD57ROTATEDRECTD57*%

%ADD58P,0.70711X4X180.0*%
%ADD59R,0.75000X0.85000*%
%ADD60R,0.20000X0.70002*%
%ADD61R,0.70000X0.20000*%
%ADD62R,2.00000X2.99999*%
%ADD63R,2.40000X2.80000*%
%ADD64R,0.60000X2.90000*%
%TA.AperFunction,Conductor*%
%ADD65C,0.10160*%
G36*
X9243060Y7635240D02*
Y7470140D01*
X9230360Y7457440D01*
Y7272020D01*
X9210040Y7251700D01*
X9116060D01*
X9093200Y7274560D01*
Y7632700D01*
X9105900Y7645400D01*
X9232900D01*
X9243060Y7635240D01*
D02*
G37*
G36*
X8069580Y7632700D02*
Y7467600D01*
X8056880Y7454900D01*
Y7269480D01*
X8036560Y7249160D01*
X7942580D01*
X7919720Y7272020D01*
Y7630160D01*
X7932420Y7642860D01*
X8059420D01*
X8069580Y7632700D01*
D02*
G37*
G36*
X10360660Y6512560D02*
X10380980Y6492240D01*
Y6316980D01*
X10349948Y6285948D01*
X9708432D01*
X9702800Y6291580D01*
X9702800Y6309360D01*
X9707879Y6314439D01*
X9796780Y6314440D01*
X9822180Y6339840D01*
X10066020D01*
X10088880Y6362700D01*
Y6489700D01*
X10111740Y6512560D01*
X10360660Y6512560D01*
D02*
G37*
G36*
X8608060D02*
X8628380Y6492240D01*
Y6316980D01*
X8597348Y6285948D01*
X7955832D01*
X7950200Y6291580D01*
X7950200Y6309360D01*
X7955279Y6314439D01*
X8044180Y6314440D01*
X8069580Y6339840D01*
X8313420D01*
X8336280Y6362700D01*
Y6489700D01*
X8359140Y6512560D01*
X8608060Y6512560D01*
D02*
G37*
G36*
X1183640Y6830060D02*
Y6276340D01*
X1244600Y6215380D01*
X1256474D01*
X1264423Y6202680D01*
X1262700Y6198519D01*
Y6186521D01*
X1267292Y6175436D01*
X1275776Y6166952D01*
X1286861Y6162360D01*
X1298859D01*
X1309944Y6166952D01*
X1318428Y6175436D01*
X1319007Y6176832D01*
X1332753D01*
X1333332Y6175436D01*
X1341816Y6166952D01*
X1352901Y6162360D01*
X1364899D01*
X1375984Y6166952D01*
X1384468Y6175436D01*
X1389060Y6186521D01*
Y6198519D01*
X1387337Y6202680D01*
X1395286Y6215380D01*
X1798320D01*
X1861820Y6278880D01*
Y6753860D01*
X1889760Y6781800D01*
X2232660D01*
X2260600Y6753860D01*
Y6075680D01*
X2192020Y6007100D01*
X1003300D01*
X874716Y6135684D01*
X871220Y6147208D01*
Y6835140D01*
X901700Y6865620D01*
X1148080Y6865620D01*
X1183640Y6830060D01*
D02*
G37*
G36*
X10353040Y6106159D02*
X10406380Y6052820D01*
Y5824220D01*
X10373360Y5791200D01*
X10025380D01*
X9994900Y5821680D01*
Y5900420D01*
X9944100Y5951220D01*
X9944100Y6029960D01*
X9961880Y6047740D01*
X10007600D01*
X10066020Y6106160D01*
X10353040Y6106159D01*
D02*
G37*
G36*
X10012680Y6230620D02*
X10012680Y6070600D01*
X9999980Y6057900D01*
X9956800D01*
X9933939Y6035039D01*
X9933940Y5946140D01*
X9979660Y5900420D01*
Y5821680D01*
X9949180Y5791200D01*
X9677400D01*
X9667240Y5801360D01*
Y5859780D01*
X9677400Y5869940D01*
X9735820D01*
X9766300Y5900420D01*
Y5981700D01*
X9850120Y6065520D01*
X9911080D01*
X9923780Y6078220D01*
X9923780Y6230619D01*
X9933940Y6240780D01*
X10002519D01*
X10012680Y6230620D01*
D02*
G37*
G36*
X8600440Y6106159D02*
X8653780Y6052820D01*
Y5824220D01*
X8620760Y5791200D01*
X8272780D01*
X8242300Y5821680D01*
Y5900420D01*
X8191500Y5951220D01*
X8191500Y6029960D01*
X8209280Y6047740D01*
X8255000D01*
X8313420Y6106160D01*
X8600440Y6106159D01*
D02*
G37*
G36*
X8260080Y6230620D02*
X8260080Y6070600D01*
X8247380Y6057900D01*
X8204200D01*
X8181339Y6035039D01*
X8181340Y5946140D01*
X8227060Y5900420D01*
Y5821680D01*
X8196580Y5791200D01*
X7924800D01*
X7914640Y5801360D01*
Y5859780D01*
X7924800Y5869940D01*
X7983220D01*
X8013700Y5900420D01*
Y5981700D01*
X8097520Y6065520D01*
X8158480D01*
X8171180Y6078220D01*
X8171180Y6230619D01*
X8181340Y6240780D01*
X8249919D01*
X8260080Y6230620D01*
D02*
G37*
G36*
X10340340Y5374640D02*
X10327639Y5361940D01*
X10185399D01*
X10170160Y5377181D01*
Y5537200D01*
X10198100Y5565140D01*
X10340340D01*
Y5374640D01*
D02*
G37*
G36*
X10388600Y5656580D02*
Y5580380D01*
X10383520Y5575300D01*
X10193020D01*
X10160000Y5542280D01*
Y5290820D01*
X10124440Y5255260D01*
X9926320D01*
X9895840Y5285740D01*
Y5450840D01*
X9913620Y5468620D01*
X9966960D01*
X9984740Y5486400D01*
Y5537200D01*
Y5603240D01*
X10027920Y5646420D01*
X10134600D01*
X10152380Y5664200D01*
X10380980D01*
X10388600Y5656580D01*
D02*
G37*
G36*
X9875520Y5509260D02*
Y5275580D01*
X9911080Y5240020D01*
X10063480D01*
X10073640Y5229860D01*
Y5161280D01*
X10063480Y5151120D01*
X9476740D01*
X9443720Y5184140D01*
Y5509260D01*
X9474200Y5539740D01*
X9845040D01*
X9875520Y5509260D01*
D02*
G37*
G36*
X9423400Y5412740D02*
Y5181600D01*
X9494520Y5110480D01*
X9685020D01*
X9720580Y5074920D01*
Y4874260D01*
X9682480Y4836160D01*
X9215120D01*
X9199880Y4851400D01*
Y5130800D01*
X9212580Y5143500D01*
X9263380Y5143500D01*
X9278620Y5158740D01*
Y5252720D01*
X9268460Y5262880D01*
X9215120Y5262880D01*
X9199880Y5278120D01*
Y5433060D01*
X9220200Y5453380D01*
X9382760D01*
X9423400Y5412740D01*
D02*
G37*
G36*
X518160Y6334760D02*
X545005Y6307915D01*
X543880Y6305199D01*
Y6293201D01*
X548472Y6282116D01*
X549761Y6280827D01*
X556112Y6272530D01*
X549761Y6264233D01*
X548472Y6262944D01*
X543880Y6251859D01*
Y6239861D01*
X548472Y6228776D01*
X556956Y6220292D01*
X568041Y6215700D01*
X580039D01*
X591124Y6220292D01*
X598630Y6227798D01*
X605790Y6228322D01*
X612950Y6227798D01*
X620456Y6220292D01*
X631541Y6215700D01*
X637220D01*
X944880Y5908040D01*
X1265000D01*
X1267780Y5903879D01*
Y5891881D01*
X1272372Y5880796D01*
X1280856Y5872312D01*
X1291941Y5867720D01*
X1303939D01*
X1315024Y5872312D01*
X1321478Y5878765D01*
X1326227Y5880596D01*
X1336850Y5879818D01*
X1341816Y5874852D01*
X1352901Y5870260D01*
X1364899D01*
X1375984Y5874852D01*
X1384468Y5883336D01*
X1389060Y5894421D01*
Y5906419D01*
X1390143Y5908040D01*
X1455420D01*
X1568575Y5794885D01*
X1565314Y5790356D01*
X1561969Y5785998D01*
X1561847Y5785543D01*
X1561491Y5785048D01*
X1561170Y5784802D01*
X1541504Y5750751D01*
X1541405Y5749998D01*
X1540868Y5749461D01*
X1525814Y5713135D01*
X1525814Y5712376D01*
X1525351Y5711773D01*
X1515165Y5673794D01*
X1515263Y5673041D01*
X1514884Y5672384D01*
X1509739Y5633399D01*
X1509936Y5632666D01*
X1509645Y5631965D01*
X1509638Y5612304D01*
X1509639Y5612302D01*
X1509638Y5612300D01*
X1509638Y4511200D01*
X1509639Y4511198D01*
X1509638Y4511196D01*
X1509645Y4491535D01*
X1509936Y4490833D01*
X1509740Y4490100D01*
X1514884Y4451116D01*
X1515264Y4450458D01*
X1515165Y4449706D01*
X1525352Y4411726D01*
X1525814Y4411124D01*
X1525814Y4410365D01*
X1540869Y4374038D01*
X1541406Y4373502D01*
X1541505Y4372749D01*
X1561170Y4338698D01*
X1561772Y4338235D01*
X1561969Y4337502D01*
X1585908Y4306307D01*
X1586566Y4305928D01*
X1586856Y4305226D01*
X1614661Y4277421D01*
X1615363Y4277131D01*
X1615742Y4276473D01*
X1646937Y4252534D01*
X1647670Y4252337D01*
X1648133Y4251735D01*
X1682184Y4232070D01*
X1682937Y4231970D01*
X1683474Y4231433D01*
X1719800Y4216379D01*
X1720559Y4216379D01*
X1721161Y4215916D01*
X1759141Y4205730D01*
X1759893Y4205829D01*
X1760551Y4205449D01*
X1799535Y4200305D01*
X1800268Y4200501D01*
X1800970Y4200210D01*
X1820631Y4200203D01*
X1820633Y4200204D01*
X1820635Y4200203D01*
X2241237D01*
X2260600Y4180840D01*
Y3685540D01*
X2199640Y3624580D01*
X1780540D01*
X1584960Y3820160D01*
X952500D01*
X744220Y4028440D01*
Y4729480D01*
X706120Y4767580D01*
X307340D01*
X218796Y4856124D01*
X217642Y4864890D01*
X217654Y4864950D01*
Y5119233D01*
X224950Y5123192D01*
X230354Y5125113D01*
X240381Y5120960D01*
X252379D01*
X263464Y5125552D01*
X271948Y5134036D01*
X276540Y5145121D01*
Y5157119D01*
X271948Y5168204D01*
X263464Y5176688D01*
X252379Y5181280D01*
X240381D01*
X230354Y5177127D01*
X224950Y5179048D01*
X217654Y5183007D01*
Y5230456D01*
X218466D01*
X213440Y5281491D01*
X210820Y5290126D01*
Y6096000D01*
X115267Y6191553D01*
X116667Y6208114D01*
X119548Y6210996D01*
X124140Y6222081D01*
Y6234079D01*
X119548Y6245164D01*
X118259Y6246453D01*
X111908Y6254750D01*
X118259Y6263047D01*
X119548Y6264336D01*
X124140Y6275421D01*
Y6287419D01*
X119548Y6298504D01*
X111064Y6306988D01*
X99979Y6311580D01*
X88900D01*
Y6443271D01*
X92144Y6447224D01*
X119380Y6474460D01*
X378460D01*
X518160Y6334760D01*
D02*
G37*
G36*
X10058400Y5113038D02*
Y5041900D01*
X10050780Y5034280D01*
X9926320D01*
X9918700Y5041900D01*
Y5118100D01*
X9931400Y5130800D01*
X10040638D01*
X10058400Y5113038D01*
D02*
G37*
G36*
X9187180Y5430520D02*
Y5257800D01*
X9197340Y5247640D01*
X9253220D01*
X9263380Y5237480D01*
Y5173980D01*
X9253220Y5163820D01*
X9199880D01*
X9187180Y5151120D01*
Y4851400D01*
X9171940Y4836160D01*
X9055100D01*
X9037320Y4853940D01*
Y5433060D01*
X9057640Y5453380D01*
X9164320D01*
X9187180Y5430520D01*
D02*
G37*
G36*
X10340340Y4546600D02*
X10327639Y4533900D01*
X10185399D01*
X10170160Y4549141D01*
Y4709160D01*
X10198100Y4737100D01*
X10340340D01*
Y4546600D01*
D02*
G37*
G36*
X10388600Y4828540D02*
Y4752340D01*
X10383520Y4747260D01*
X10193020D01*
X10160000Y4714240D01*
Y4462780D01*
X10124440Y4427220D01*
X9926320D01*
X9895840Y4457700D01*
Y4622800D01*
X9913620Y4640580D01*
X9966960D01*
X9984740Y4658360D01*
Y4709160D01*
Y4775200D01*
X10027920Y4818380D01*
X10134600D01*
X10152380Y4836160D01*
X10380980D01*
X10388600Y4828540D01*
D02*
G37*
G36*
X9875520Y4681220D02*
Y4447540D01*
X9911080Y4411980D01*
X10063480D01*
X10073640Y4401820D01*
Y4333240D01*
X10063480Y4323080D01*
X9476740D01*
X9443720Y4356100D01*
Y4681220D01*
X9474200Y4711700D01*
X9845040D01*
X9875520Y4681220D01*
D02*
G37*
G36*
X9423400Y4584700D02*
Y4353560D01*
X9494520Y4282440D01*
X9685020D01*
X9720580Y4246880D01*
Y4046220D01*
X9682480Y4008120D01*
X9215120D01*
X9199880Y4023360D01*
Y4302760D01*
X9212580Y4315460D01*
X9263380Y4315460D01*
X9278620Y4330700D01*
Y4424680D01*
X9268460Y4434840D01*
X9215120Y4434840D01*
X9199880Y4450080D01*
Y4605020D01*
X9220200Y4625340D01*
X9382760D01*
X9423400Y4584700D01*
D02*
G37*
G36*
X10058400Y4284998D02*
Y4213860D01*
X10050780Y4206240D01*
X9926320D01*
X9918700Y4213860D01*
Y4290060D01*
X9931400Y4302760D01*
X10040638D01*
X10058400Y4284998D01*
D02*
G37*
G36*
X9187180Y4602480D02*
Y4429760D01*
X9197340Y4419600D01*
X9253220D01*
X9263380Y4409440D01*
Y4345940D01*
X9253220Y4335780D01*
X9199880D01*
X9187180Y4323080D01*
Y4023360D01*
X9171940Y4008120D01*
X9055100D01*
X9037320Y4025900D01*
Y4605020D01*
X9057640Y4625340D01*
X9164320D01*
X9187180Y4602480D01*
D02*
G37*
G36*
X9606280Y3746500D02*
X9606280Y3629660D01*
X9593580Y3616960D01*
X9314180Y3616960D01*
X9202420Y3728720D01*
Y3746500D01*
X9212580Y3756660D01*
X9596120D01*
X9606280Y3746500D01*
D02*
G37*
G36*
X10154920Y3893820D02*
Y3614420D01*
X10142220Y3601720D01*
X10091420Y3601720D01*
X10076180Y3586480D01*
Y3492500D01*
X10086340Y3482340D01*
X10139680Y3482340D01*
X10154920Y3467100D01*
Y3312160D01*
X10134600Y3291840D01*
X9972040D01*
X9931400Y3332480D01*
Y3563620D01*
X9860280Y3634740D01*
X9669780D01*
X9634220Y3670300D01*
Y3870960D01*
X9672320Y3909060D01*
X10139680D01*
X10154920Y3893820D01*
D02*
G37*
G36*
X9885680Y3545840D02*
Y3241040D01*
X9855200Y3210560D01*
X9512300D01*
X9476740Y3246120D01*
X9476740Y3474720D01*
X9433560Y3517900D01*
X9311639Y3517900D01*
X9304020Y3525520D01*
Y3583940D01*
X9314180Y3594100D01*
X9837420D01*
X9885680Y3545840D01*
D02*
G37*
G36*
X9458960Y3459480D02*
Y3294380D01*
X9441180Y3276600D01*
X9387840D01*
X9370060Y3258820D01*
X9370060Y3192779D01*
X9347199Y3169920D01*
X9189720D01*
X9166121Y3193519D01*
X9166121Y3453661D01*
X9202420Y3489960D01*
X9428480D01*
X9458960Y3459480D01*
D02*
G37*
G36*
X10515599Y3743960D02*
X10515600Y3263900D01*
X10340340Y3088640D01*
X9052560D01*
X9022080Y3119120D01*
Y3335020D01*
X9037320Y3350260D01*
X9131300D01*
X9151620Y3329940D01*
Y3177540D01*
X9169400Y3159760D01*
X9375140D01*
X9403080Y3187700D01*
X9862820D01*
X9941560Y3266440D01*
X10147300D01*
X10177780Y3296920D01*
Y3474720D01*
X10157460Y3495040D01*
X10101580Y3495040D01*
X10091420Y3505200D01*
Y3576320D01*
X10104120Y3589020D01*
X10165080D01*
X10187940Y3611880D01*
Y3749040D01*
X10208260Y3769360D01*
X10490200D01*
X10515599Y3743960D01*
D02*
G37*
%LPC*%
G36*
X1136299Y6745920D02*
X1124301D01*
X1113216Y6741328D01*
X1104732Y6732844D01*
X1100140Y6721759D01*
Y6709761D01*
X1104732Y6698676D01*
X1113216Y6690192D01*
X1124301Y6685600D01*
X1136299D01*
X1147384Y6690192D01*
X1155868Y6698676D01*
X1160460Y6709761D01*
Y6721759D01*
X1155868Y6732844D01*
X1147384Y6741328D01*
X1136299Y6745920D01*
D02*
G37*
G36*
X539399Y5831520D02*
X527401D01*
X516316Y5826928D01*
X507832Y5818444D01*
X503240Y5807359D01*
Y5795361D01*
X507832Y5784276D01*
X516316Y5775792D01*
X527401Y5771200D01*
X539399D01*
X550484Y5775792D01*
X558968Y5784276D01*
X563560Y5795361D01*
Y5807359D01*
X558968Y5818444D01*
X550484Y5826928D01*
X539399Y5831520D01*
D02*
G37*
G36*
X455579D02*
X443581D01*
X432496Y5826928D01*
X424012Y5818444D01*
X419420Y5807359D01*
Y5795361D01*
X424012Y5784276D01*
X432496Y5775792D01*
X443581Y5771200D01*
X455579D01*
X466664Y5775792D01*
X475148Y5784276D01*
X479740Y5795361D01*
Y5807359D01*
X475148Y5818444D01*
X466664Y5826928D01*
X455579Y5831520D01*
D02*
G37*
G36*
X366679D02*
X354681D01*
X343596Y5826928D01*
X335112Y5818444D01*
X330520Y5807359D01*
Y5795361D01*
X335112Y5784276D01*
X343596Y5775792D01*
X354681Y5771200D01*
X366679D01*
X377764Y5775792D01*
X386248Y5784276D01*
X390840Y5795361D01*
Y5807359D01*
X386248Y5818444D01*
X377764Y5826928D01*
X366679Y5831520D01*
D02*
G37*
G36*
X1352199Y5747700D02*
X1340201D01*
X1329116Y5743108D01*
X1320632Y5734624D01*
X1316990Y5725833D01*
X1316783Y5725792D01*
X1304497D01*
X1304290Y5725833D01*
X1300648Y5734624D01*
X1292164Y5743108D01*
X1281079Y5747700D01*
X1269081D01*
X1257996Y5743108D01*
X1249512Y5734624D01*
X1244920Y5723539D01*
Y5711541D01*
X1249512Y5700456D01*
X1257996Y5691972D01*
X1269081Y5687380D01*
X1281079D01*
X1292164Y5691972D01*
X1300648Y5700456D01*
X1304290Y5709247D01*
X1304497Y5709288D01*
X1316783D01*
X1316990Y5709247D01*
X1320632Y5700456D01*
X1329116Y5691972D01*
X1340201Y5687380D01*
X1352199D01*
X1363284Y5691972D01*
X1371768Y5700456D01*
X1376360Y5711541D01*
Y5723539D01*
X1371768Y5734624D01*
X1363284Y5743108D01*
X1352199Y5747700D01*
D02*
G37*
G36*
X490419Y5669997D02*
X478421D01*
X467336Y5665405D01*
X458852Y5656921D01*
X454260Y5645836D01*
Y5633838D01*
X458852Y5622753D01*
X467336Y5614268D01*
X478421Y5609677D01*
X490419D01*
X501504Y5614268D01*
X509988Y5622753D01*
X514580Y5633838D01*
Y5645836D01*
X509988Y5656921D01*
X501504Y5665405D01*
X490419Y5669997D01*
D02*
G37*
G36*
X513999Y5181280D02*
X502001D01*
X490916Y5176688D01*
X482432Y5168204D01*
X477840Y5157119D01*
Y5145121D01*
X482432Y5134036D01*
X490916Y5125552D01*
X502001Y5120960D01*
X513999D01*
X525084Y5125552D01*
X533568Y5134036D01*
X538160Y5145121D01*
Y5157119D01*
X533568Y5168204D01*
X525084Y5176688D01*
X513999Y5181280D01*
D02*
G37*
G36*
X384459D02*
X372461D01*
X361376Y5176688D01*
X352892Y5168204D01*
X348300Y5157119D01*
Y5145121D01*
X352892Y5134036D01*
X361376Y5125552D01*
X372461Y5120960D01*
X384459D01*
X395544Y5125552D01*
X404028Y5134036D01*
X408620Y5145121D01*
Y5157119D01*
X404028Y5168204D01*
X395544Y5176688D01*
X384459Y5181280D01*
D02*
G37*
G36*
X569879Y5094920D02*
X557881D01*
X546796Y5090328D01*
X538312Y5081844D01*
X533720Y5070759D01*
Y5058761D01*
X538312Y5047676D01*
X546796Y5039192D01*
X557881Y5034600D01*
X569879D01*
X580964Y5039192D01*
X589448Y5047676D01*
X594040Y5058761D01*
Y5070759D01*
X589448Y5081844D01*
X580964Y5090328D01*
X569879Y5094920D01*
D02*
G37*
G36*
X491139Y5092380D02*
X479141D01*
X468056Y5087788D01*
X459572Y5079304D01*
X454980Y5068219D01*
Y5056221D01*
X459572Y5045136D01*
X468056Y5036652D01*
X479141Y5032060D01*
X491139D01*
X502224Y5036652D01*
X510708Y5045136D01*
X515300Y5056221D01*
Y5068219D01*
X510708Y5079304D01*
X502224Y5087788D01*
X491139Y5092380D01*
D02*
G37*
G36*
X1352199Y5023800D02*
X1340201D01*
X1329116Y5019208D01*
X1320632Y5010724D01*
X1316040Y4999639D01*
Y4987641D01*
X1320632Y4976556D01*
X1329116Y4968072D01*
X1340201Y4963480D01*
X1352199D01*
X1363284Y4968072D01*
X1371768Y4976556D01*
X1376360Y4987641D01*
Y4999639D01*
X1371768Y5010724D01*
X1363284Y5019208D01*
X1352199Y5023800D01*
D02*
G37*
G36*
X1278539D02*
X1266541D01*
X1255456Y5019208D01*
X1246972Y5010724D01*
X1242380Y4999639D01*
Y4987641D01*
X1246972Y4976556D01*
X1255456Y4968072D01*
X1266541Y4963480D01*
X1278539D01*
X1289624Y4968072D01*
X1298108Y4976556D01*
X1302700Y4987641D01*
Y4999639D01*
X1298108Y5010724D01*
X1289624Y5019208D01*
X1278539Y5023800D01*
D02*
G37*
G36*
X1352199Y4942520D02*
X1340201D01*
X1329116Y4937928D01*
X1320632Y4929444D01*
X1316040Y4918359D01*
Y4906361D01*
X1320632Y4895276D01*
X1329116Y4886792D01*
X1340201Y4882200D01*
X1352199D01*
X1363284Y4886792D01*
X1371768Y4895276D01*
X1376360Y4906361D01*
Y4918359D01*
X1371768Y4929444D01*
X1363284Y4937928D01*
X1352199Y4942520D01*
D02*
G37*
G36*
X1278539D02*
X1266541D01*
X1255456Y4937928D01*
X1246972Y4929444D01*
X1242380Y4918359D01*
Y4906361D01*
X1246972Y4895276D01*
X1255456Y4886792D01*
X1266541Y4882200D01*
X1278539D01*
X1289624Y4886792D01*
X1298108Y4895276D01*
X1302700Y4906361D01*
Y4918359D01*
X1298108Y4929444D01*
X1289624Y4937928D01*
X1278539Y4942520D01*
D02*
G37*
G36*
X1352199Y4749480D02*
X1340201D01*
X1329116Y4744888D01*
X1320632Y4736404D01*
X1316040Y4725319D01*
Y4713321D01*
X1320632Y4702236D01*
X1329116Y4693752D01*
X1340201Y4689160D01*
X1352199D01*
X1363284Y4693752D01*
X1371768Y4702236D01*
X1376360Y4713321D01*
Y4725319D01*
X1371768Y4736404D01*
X1363284Y4744888D01*
X1352199Y4749480D01*
D02*
G37*
G36*
X1278539D02*
X1266541D01*
X1255456Y4744888D01*
X1246972Y4736404D01*
X1242380Y4725319D01*
Y4713321D01*
X1246972Y4702236D01*
X1255456Y4693752D01*
X1266541Y4689160D01*
X1278539D01*
X1289624Y4693752D01*
X1298108Y4702236D01*
X1302700Y4713321D01*
Y4725319D01*
X1298108Y4736404D01*
X1289624Y4744888D01*
X1278539Y4749480D01*
D02*
G37*
G36*
X1352199Y4660580D02*
X1340201D01*
X1329116Y4655988D01*
X1320632Y4647504D01*
X1316040Y4636419D01*
Y4624421D01*
X1320632Y4613336D01*
X1329116Y4604852D01*
X1340201Y4600260D01*
X1352199D01*
X1363284Y4604852D01*
X1371768Y4613336D01*
X1376360Y4624421D01*
Y4636419D01*
X1371768Y4647504D01*
X1363284Y4655988D01*
X1352199Y4660580D01*
D02*
G37*
G36*
X1278539D02*
X1266541D01*
X1255456Y4655988D01*
X1246972Y4647504D01*
X1242380Y4636419D01*
Y4624421D01*
X1246972Y4613336D01*
X1255456Y4604852D01*
X1266541Y4600260D01*
X1278539D01*
X1289624Y4604852D01*
X1298108Y4613336D01*
X1302700Y4624421D01*
Y4636419D01*
X1298108Y4647504D01*
X1289624Y4655988D01*
X1278539Y4660580D01*
D02*
G37*
G36*
X1352199Y4472620D02*
X1340201D01*
X1329116Y4468028D01*
X1320632Y4459544D01*
X1316040Y4448459D01*
Y4436461D01*
X1320632Y4425376D01*
X1329116Y4416892D01*
X1340201Y4412300D01*
X1352199D01*
X1363284Y4416892D01*
X1371768Y4425376D01*
X1376360Y4436461D01*
Y4448459D01*
X1371768Y4459544D01*
X1363284Y4468028D01*
X1352199Y4472620D01*
D02*
G37*
G36*
X1278539D02*
X1266541D01*
X1255456Y4468028D01*
X1246972Y4459544D01*
X1242380Y4448459D01*
Y4436461D01*
X1246972Y4425376D01*
X1255456Y4416892D01*
X1266541Y4412300D01*
X1278539D01*
X1289624Y4416892D01*
X1298108Y4425376D01*
X1302700Y4436461D01*
Y4448459D01*
X1298108Y4459544D01*
X1289624Y4468028D01*
X1278539Y4472620D01*
D02*
G37*
G36*
X1451259Y4409120D02*
X1439261D01*
X1428176Y4404528D01*
X1419692Y4396044D01*
X1415100Y4384959D01*
Y4372961D01*
X1419692Y4361876D01*
X1428176Y4353392D01*
X1439261Y4348800D01*
X1451259D01*
X1462344Y4353392D01*
X1470828Y4361876D01*
X1475420Y4372961D01*
Y4384959D01*
X1470828Y4396044D01*
X1462344Y4404528D01*
X1451259Y4409120D01*
D02*
G37*
G36*
X1563019Y4302440D02*
X1551021D01*
X1539936Y4297848D01*
X1531452Y4289364D01*
X1526860Y4278279D01*
Y4266281D01*
X1531452Y4255196D01*
X1539936Y4246712D01*
X1551021Y4242120D01*
X1563019D01*
X1574104Y4246712D01*
X1582588Y4255196D01*
X1587180Y4266281D01*
Y4278279D01*
X1582588Y4289364D01*
X1574104Y4297848D01*
X1563019Y4302440D01*
D02*
G37*
G36*
X1344579D02*
X1332581D01*
X1321496Y4297848D01*
X1313012Y4289364D01*
X1308420Y4278279D01*
Y4266281D01*
X1313012Y4255196D01*
X1321496Y4246712D01*
X1332581Y4242120D01*
X1344579D01*
X1355664Y4246712D01*
X1364148Y4255196D01*
X1368740Y4266281D01*
Y4278279D01*
X1364148Y4289364D01*
X1355664Y4297848D01*
X1344579Y4302440D01*
D02*
G37*
G36*
X1235359Y4195760D02*
X1223361D01*
X1212276Y4191168D01*
X1203792Y4182684D01*
X1199200Y4171599D01*
Y4159601D01*
X1203792Y4148516D01*
X1212276Y4140032D01*
X1223361Y4135440D01*
X1235359D01*
X1246444Y4140032D01*
X1254928Y4148516D01*
X1259520Y4159601D01*
Y4171599D01*
X1254928Y4182684D01*
X1246444Y4191168D01*
X1235359Y4195760D01*
D02*
G37*
G36*
X1451259Y4188140D02*
X1439261D01*
X1428176Y4183548D01*
X1419692Y4175064D01*
X1415100Y4163979D01*
Y4151981D01*
X1419692Y4140896D01*
X1428176Y4132412D01*
X1439261Y4127820D01*
X1451259D01*
X1462344Y4132412D01*
X1470828Y4140896D01*
X1475420Y4151981D01*
Y4163979D01*
X1470828Y4175064D01*
X1462344Y4183548D01*
X1451259Y4188140D01*
D02*
G37*
G36*
X1347119Y4089080D02*
X1335121D01*
X1324036Y4084488D01*
X1315552Y4076004D01*
X1310960Y4064919D01*
Y4052921D01*
X1315552Y4041836D01*
X1324036Y4033352D01*
X1335121Y4028760D01*
X1347119D01*
X1358204Y4033352D01*
X1366688Y4041836D01*
X1371280Y4052921D01*
Y4064919D01*
X1366688Y4076004D01*
X1358204Y4084488D01*
X1347119Y4089080D01*
D02*
G37*
%LPD*%
D10*
X5977455Y3749899D02*
G03*
X5989948Y3744725I12493J12493D01*
G01*
X6265710Y3665962D02*
G03*
X6257048Y3669550I-8662J-8662D01*
G01*
X6265710Y3665962D02*
G03*
X6274372Y3662374I8662J8662D01*
G01*
X6008516Y3737963D02*
G03*
X5992192Y3744725I-16323J-16323D01*
G01*
X6039342Y3707137D02*
G03*
X6130086Y3669550I90744J90744D01*
G01*
X6019895Y3774671D02*
G03*
X6014720Y3787164I-17668J0D01*
G01*
X6274372Y3702379D02*
G03*
X6265710Y3698792I0J-12249D01*
G01*
X6257048Y3695204D02*
G03*
X6265710Y3698792I0J12249D01*
G01*
X6019895Y3772427D02*
G03*
X6026643Y3756116I23086J0D01*
G01*
D02*
G03*
X6026656Y3756103I16337J16311D01*
G01*
X6053761Y3728999D02*
G03*
X6135398Y3695204I81638J81709D01*
G01*
X6053725Y3729034D02*
G03*
X6053761Y3728999I81673J81673D01*
G01*
X8435794Y5268146D02*
G03*
X8427466Y5248013I20173J-20134D01*
G01*
X8434578Y5193746D02*
G03*
X8431022Y5202331I-12141J0D01*
G01*
X8427466Y5210916D02*
G03*
X8431022Y5202331I12141J0D01*
G01*
X8401812Y5248013D02*
G03*
X8393484Y5268146I-28501J0D01*
G01*
X8398256Y5202331D02*
G03*
X8401812Y5210916I-8585J8585D01*
G01*
X8398256Y5202331D02*
G03*
X8394700Y5193746I8585J-8585D01*
G01*
X8435814Y5268166D02*
G03*
X8440989Y5280660I-12494J12494D01*
G01*
X8435814Y5268166D02*
G03*
X8435794Y5268146I20153J-20153D01*
G01*
X8388289Y5280660D02*
G03*
X8393464Y5268166I17669J0D01*
G01*
X8393484Y5268146D02*
G03*
X8393464Y5268166I-20173J-20134D01*
G01*
X8563716Y4969002D02*
G03*
X8555131Y4965446I0J-12141D01*
G01*
X8603166Y4960674D02*
G03*
X8583033Y4969002I-20134J-20173D01*
G01*
X8546546Y4961890D02*
G03*
X8555131Y4965446I0J12141D01*
G01*
X8583033Y4994656D02*
G03*
X8603166Y5002984I0J28501D01*
G01*
X8555131Y4998212D02*
G03*
X8546546Y5001768I-8585J-8585D01*
G01*
X8555131Y4998212D02*
G03*
X8563716Y4994656I8585J8585D01*
G01*
X8603186Y4960654D02*
G03*
X8603166Y4960674I-20153J-20153D01*
G01*
X8603186Y4960654D02*
G03*
X8615680Y4955479I12494J12494D01*
G01*
Y5008179D02*
G03*
X8603186Y5003004I0J-17669D01*
G01*
X8603166Y5002984D02*
G03*
X8603186Y5003004I-20134J20173D01*
G01*
X8792628Y5472012D02*
G03*
X8787453Y5459519I12493J-12493D01*
G01*
X8780705Y5440965D02*
G03*
X8787453Y5457275I-16337J16311D01*
G01*
X8780691Y5440952D02*
G03*
X8780705Y5440965I-16324J16324D01*
G01*
X8768695Y5428955D02*
G03*
X8768707Y5428967I-9147J9172D01*
G01*
X8759547Y5425173D02*
G03*
X8768695Y5428955I0J12953D01*
G01*
X8750400D02*
G03*
X8759547Y5425173I9147J9172D01*
G01*
X8748898Y5430457D02*
G03*
X8736144Y5435740I-12755J-12755D01*
G01*
X8750388Y5428967D02*
G03*
X8750400Y5428955I9159J9159D01*
G01*
X8817399Y5429573D02*
G03*
X8829892Y5434748I0J17668D01*
G01*
X8815155Y5429573D02*
G03*
X8798832Y5422812I0J-23085D01*
G01*
X8793620Y5378264D02*
G03*
X8788336Y5391018I-18038J0D01*
G01*
X8786847Y5410827D02*
G03*
X8783053Y5401667I9160J-9160D01*
G01*
X8786835Y5392520D02*
G03*
X8786847Y5392508I9172J9147D01*
G01*
X8783053Y5401667D02*
G03*
X8786835Y5392520I12953J0D01*
G01*
X8492790Y4761738D02*
G03*
X8484205Y4758182I0J-12141D01*
G01*
X8475620Y4754626D02*
G03*
X8484205Y4758182I0J12141D01*
G01*
X8397413Y4762954D02*
G03*
X8417547Y4754626I20134J20173D01*
G01*
X8484205Y4725416D02*
G03*
X8475620Y4728972I-8585J-8585D01*
G01*
X8417547D02*
G03*
X8397413Y4720644I0J-28501D01*
G01*
X8484205Y4725416D02*
G03*
X8492790Y4721860I8585J8585D01*
G01*
X8397394Y4762974D02*
G03*
X8384900Y4768149I-12494J-12494D01*
G01*
X8397394Y4762974D02*
G03*
X8397413Y4762954I20153J20153D01*
G01*
Y4720644D02*
G03*
X8397394Y4720624I20134J-20173D01*
G01*
X8384900Y4715449D02*
G03*
X8397394Y4720624I0J17669D01*
G01*
X8315816Y5044560D02*
G03*
X8315811Y5044564I-12469J-12460D01*
G01*
X8307164Y5062976D02*
G03*
X8314038Y5046338I23575J0D01*
G01*
X8320974Y5032100D02*
G03*
X8315816Y5044560I-17627J0D01*
G01*
X8311070Y5131342D02*
G03*
X8307451Y5122603I8738J-8738D01*
G01*
X8311070Y5131342D02*
G03*
X8314690Y5140080I-8738J8738D01*
G01*
X8314038Y5046338D02*
G03*
X8314069Y5046306I16701J16639D01*
G01*
X8272858Y5044560D02*
G03*
X8267700Y5032100I12469J-12460D01*
G01*
X8272863Y5044564D02*
G03*
X8272858Y5044560I12465J-12464D01*
G01*
X8274558Y5140080D02*
G03*
X8278177Y5131342I12358J0D01*
G01*
X8281797Y5122603D02*
G03*
X8278177Y5131342I-12358J0D01*
G01*
X8274636Y5046338D02*
G03*
X8281510Y5062976I-16701J16639D01*
G01*
X8274605Y5046306D02*
G03*
X8274636Y5046338I-16670J16670D01*
G01*
X8190341Y5678897D02*
G03*
X8199502Y5675103I9160J9160D01*
G01*
X8186547Y5688057D02*
G03*
X8190341Y5678897I12955J0D01*
G01*
X8213629Y5670011D02*
G03*
X8213604Y5670036I-12292J-12292D01*
G01*
D02*
G03*
X8201336Y5675103I-12268J-12317D01*
G01*
X8193308Y5708540D02*
G03*
X8186547Y5692216I16324J-16324D01*
G01*
X8194895Y5710126D02*
G03*
X8200070Y5722620I-12494J12494D01*
G01*
X8133836Y5670036D02*
G03*
X8133811Y5670011I12268J-12317D01*
G01*
X8146104Y5675103D02*
G03*
X8133836Y5670036I0J-17384D01*
G01*
X8147938Y5675103D02*
G03*
X8157099Y5678897I0J12955D01*
G01*
X8160893Y5692216D02*
G03*
X8154132Y5708540I-23085J0D01*
G01*
X8147370Y5722620D02*
G03*
X8152545Y5710126I17669J0D01*
G01*
X8157099Y5678897D02*
G03*
X8160893Y5688057I-9160J9160D01*
G01*
X7439736Y6190447D02*
G03*
X7456060Y6197209I0J23085D01*
G01*
X7470140Y6203970D02*
G03*
X7457646Y6198795I0J-17669D01*
G01*
Y6156445D02*
G03*
X7470140Y6151270I12494J12494D01*
G01*
X7456060Y6158032D02*
G03*
X7439736Y6164793I-16324J-16324D01*
G01*
X8067548Y5210916D02*
G03*
X8071104Y5202331I12141J0D01*
G01*
X8074018Y5230728D02*
G03*
X8067548Y5215073I15706J-15656D01*
G01*
X8074043Y5230754D02*
G03*
X8074018Y5230728I15681J-15681D01*
G01*
X8074660Y5193746D02*
G03*
X8071104Y5202331I-12141J0D01*
G01*
X8075896Y5232606D02*
G03*
X8079821Y5238571I-12494J12494D01*
G01*
D02*
G03*
X8081071Y5245100I-16419J6529D01*
G01*
X7435547Y6163501D02*
G03*
X7431260Y6160280I5469J-11743D01*
G01*
X7416771Y6151607D02*
G03*
X7431260Y6160280I-5731J26013D01*
G01*
X7416771Y6151607D02*
G03*
X7407169Y6142481I2869J-12633D01*
G01*
X7431401Y6194801D02*
G03*
X7437861Y6190918I9615J8681D01*
G01*
X7431299Y6194915D02*
G03*
X7416741Y6203640I-20259J-17295D01*
G01*
X7407169Y6212759D02*
G03*
X7416741Y6203640I12471J3507D01*
G01*
X7407169Y6212064D02*
G03*
X7405541Y6215993I-5556J0D01*
G01*
D02*
G03*
X7401613Y6217620I-3929J-3929D01*
G01*
X8029621Y5238571D02*
G03*
X8033546Y5232606I16419J6529D01*
G01*
X8035424Y5230728D02*
G03*
X8035399Y5230754I-15706J-15656D01*
G01*
X8038338Y5202331D02*
G03*
X8034782Y5193746I8585J-8585D01*
G01*
X8038338Y5202331D02*
G03*
X8041894Y5210916I-8585J8585D01*
G01*
Y5215073D02*
G03*
X8035424Y5230728I-22176J0D01*
G01*
X8028371Y5245100D02*
G03*
X8029621Y5238571I17669J0D01*
G01*
X7794752Y5139990D02*
G03*
X7798308Y5131405I12141J0D01*
G01*
X7801864Y5122820D02*
G03*
X7798308Y5131405I-12141J0D01*
G01*
X7111970Y6547364D02*
G03*
X7106902Y6535096I12317J-12268D01*
G01*
X7066074Y6528655D02*
G03*
X7053580Y6533830I-12494J-12494D01*
G01*
X7067660Y6527068D02*
G03*
X7083984Y6520307I16324J16324D01*
G01*
X7093948D02*
G03*
X7103108Y6524101I0J12955D01*
G01*
X7793516Y5046774D02*
G03*
X7788341Y5034280I12494J-12494D01*
G01*
X7831074Y5131405D02*
G03*
X7834630Y5139990I-8585J8585D01*
G01*
X7841041Y5034280D02*
G03*
X7835866Y5046774I-17669J0D01*
G01*
X7103108Y6490859D02*
G03*
X7093948Y6494653I-9160J-9160D01*
G01*
X7083984D02*
G03*
X7067660Y6487892I0J-23085D01*
G01*
X7106902Y6479864D02*
G03*
X7111970Y6467596I17384J0D01*
G01*
D02*
G03*
X7111994Y6467571I12317J12268D01*
G01*
X7106902Y6481698D02*
G03*
X7103108Y6490859I-12955J0D01*
G01*
X7053580Y6481130D02*
G03*
X7066074Y6486305I0J17669D01*
G01*
X7831074Y5131405D02*
G03*
X7827518Y5122820I8585J-8585D01*
G01*
Y5064684D02*
G03*
X7834250Y5048390I23085J0D01*
G01*
X7795132D02*
G03*
X7801864Y5064684I-16353J16294D01*
G01*
X7795103Y5048360D02*
G03*
X7795132Y5048390I-16324J16324D01*
G01*
X7103108Y6524101D02*
G03*
X7106902Y6533262I-9160J9160D01*
G01*
X7834250Y5048390D02*
G03*
X7834279Y5048360I16353J16294D01*
G01*
X7951153Y5131342D02*
G03*
X7954772Y5140080I-8738J8738D01*
G01*
X7960989Y5094235D02*
G03*
X7955881Y5105194I-17602J-1535D01*
G01*
X7947533Y5122603D02*
G03*
X7953941Y5107134I21877J0D01*
G01*
X7951153Y5131342D02*
G03*
X7947533Y5122603I8738J-8738D01*
G01*
X7111987Y6227349D02*
G03*
X7111963Y6227324I12292J-12292D01*
G01*
D02*
G03*
X7106895Y6215056I12317J-12268D01*
G01*
X7066067Y6208615D02*
G03*
X7053573Y6213790I-12494J-12494D01*
G01*
X7067653Y6207028D02*
G03*
X7083977Y6200267I16324J16324D01*
G01*
X7093941D02*
G03*
X7103101Y6204061I0J12955D01*
G01*
X7914640Y5140080D02*
G03*
X7918259Y5131342I12358J0D01*
G01*
X7921879Y5122603D02*
G03*
X7918259Y5131342I-12359J0D01*
G01*
X7915496Y5107158D02*
G03*
X7921879Y5122603I-15492J15445D01*
G01*
X7915472Y5107135D02*
G03*
X7915496Y5107158I-15469J15468D01*
G01*
X7913532Y5105194D02*
G03*
X7908356Y5092700I12494J-12494D01*
G01*
X7103101Y6170819D02*
G03*
X7093941Y6174613I-9160J-9160D01*
G01*
X7083977D02*
G03*
X7067653Y6167852I0J-23085D01*
G01*
X7106895Y6161658D02*
G03*
X7103101Y6170819I-12955J0D01*
G01*
X7053573Y6161090D02*
G03*
X7066067Y6166265I0J17669D01*
G01*
X7106895Y6159824D02*
G03*
X7111963Y6147556I17384J0D01*
G01*
D02*
G03*
X7111987Y6147531I12317J12268D01*
G01*
X7961056Y5092700D02*
G03*
X7960989Y5094235I-17669J0D01*
G01*
X7103101Y6204061D02*
G03*
X7106895Y6213222I-9160J9160D01*
G01*
X8864570Y6547364D02*
G03*
X8859502Y6535096I12317J-12268D01*
G01*
X8846548Y6520307D02*
G03*
X8855708Y6524101I0J12955D01*
G01*
X8820260Y6527068D02*
G03*
X8836584Y6520307I16324J16324D01*
G01*
X8818674Y6528655D02*
G03*
X8806180Y6533830I-12494J-12494D01*
G01*
X8519668Y4641850D02*
G03*
X8516414Y4643198I-3254J-3254D01*
G01*
X8450580Y4648261D02*
G03*
X8462804Y4643198I12224J12224D01*
G01*
X8859502Y6481698D02*
G03*
X8855708Y6490859I-12955J0D01*
G01*
X8859502Y6479864D02*
G03*
X8864570Y6467596I17384J0D01*
G01*
X8836584Y6494653D02*
G03*
X8820260Y6487892I0J-23085D01*
G01*
X8855708Y6490859D02*
G03*
X8846548Y6494653I-9160J-9160D01*
G01*
X8806180Y6481130D02*
G03*
X8818674Y6486305I0J17669D01*
G01*
X8516414Y4600624D02*
G03*
X8519668Y4601972I0J4602D01*
G01*
X8462804Y4600624D02*
G03*
X8450580Y4595561I0J-17287D01*
G01*
X8855708Y6524101D02*
G03*
X8859502Y6533262I-9160J9160D01*
G01*
X8855701Y6170819D02*
G03*
X8846541Y6174613I-9160J-9160D01*
G01*
X8859495Y6161658D02*
G03*
X8855701Y6170819I-12955J0D01*
G01*
X8859495Y6159824D02*
G03*
X8864563Y6147556I17384J0D01*
G01*
D02*
G03*
X8864587Y6147531I12317J12268D01*
G01*
X8836577Y6174613D02*
G03*
X8820253Y6167852I0J-23085D01*
G01*
X8806173Y6161090D02*
G03*
X8818667Y6166265I0J17669D01*
G01*
X8492880Y4521962D02*
G03*
X8484142Y4518342I0J-12358D01*
G01*
X8397413Y4523051D02*
G03*
X8417547Y4514723I20134J20173D01*
G01*
X8475403D02*
G03*
X8484142Y4518342I0J12358D01*
G01*
X8864563Y6227324D02*
G03*
X8859495Y6215056I12317J-12268D01*
G01*
X8820253Y6207028D02*
G03*
X8836577Y6200267I16324J16324D01*
G01*
X8846541D02*
G03*
X8855701Y6204061I0J12955D01*
G01*
X8818667Y6208615D02*
G03*
X8806173Y6213790I-12494J-12494D01*
G01*
X8484142Y4485449D02*
G03*
X8492880Y4481830I8738J8738D01*
G01*
X8484142Y4485449D02*
G03*
X8475403Y4489069I-8738J-8738D01*
G01*
X8417547D02*
G03*
X8397413Y4480741I0J-28501D01*
G01*
X8397394Y4523071D02*
G03*
X8397413Y4523051I20153J20153D01*
G01*
X8397394Y4523071D02*
G03*
X8384900Y4528246I-12494J-12494D01*
G01*
X8855701Y6204061D02*
G03*
X8859495Y6213222I-9160J9160D01*
G01*
X8397413Y4480741D02*
G03*
X8397394Y4480721I20134J-20173D01*
G01*
X8384900Y4475546D02*
G03*
X8397394Y4480721I0J17669D01*
G01*
X9208660Y6158032D02*
G03*
X9192336Y6164793I-16324J-16324D01*
G01*
X9210246Y6156445D02*
G03*
X9222740Y6151270I12494J12494D01*
G01*
X8563716Y4369054D02*
G03*
X8555131Y4365498I0J-12141D01*
G01*
X8886080Y4362293D02*
G03*
X8869756Y4369054I-16324J-16324D01*
G01*
X8887666Y4360706D02*
G03*
X8900160Y4355531I12494J12494D01*
G01*
X8546546Y4361942D02*
G03*
X8555131Y4365498I0J12141D01*
G01*
X9222740Y6203970D02*
G03*
X9210246Y6198795I0J-17669D01*
G01*
X9159769Y6212064D02*
G03*
X9158141Y6215993I-5556J0D01*
G01*
X9183899Y6194915D02*
G03*
X9169341Y6203640I-20259J-17295D01*
G01*
X9159769Y6212759D02*
G03*
X9169341Y6203640I12471J3507D01*
G01*
X9192336Y6190447D02*
G03*
X9208660Y6197209I0J23085D01*
G01*
X9184001Y6194801D02*
G03*
X9190461Y6190918I9615J8681D01*
G01*
X9158141Y6215993D02*
G03*
X9154213Y6217620I-3929J-3929D01*
G01*
X8900160Y4408231D02*
G03*
X8887666Y4403056I0J-17669D01*
G01*
X8869756Y4394708D02*
G03*
X8886080Y4401469I0J23085D01*
G01*
X8555131Y4398264D02*
G03*
X8546546Y4401820I-8585J-8585D01*
G01*
X8555131Y4398264D02*
G03*
X8563716Y4394708I8585J8585D01*
G01*
X9188147Y6163501D02*
G03*
X9183860Y6160280I5469J-11743D01*
G01*
X9169371Y6151607D02*
G03*
X9183860Y6160280I-5731J26013D01*
G01*
X9169371Y6151607D02*
G03*
X9159769Y6142481I2869J-12633D01*
G01*
X6134728Y3504459D02*
G03*
X6122235Y3499285I0J-17668D01*
G01*
X6136972Y3504459D02*
G03*
X6153283Y3511208I0J23086D01*
G01*
X6199006Y3535197D02*
G03*
X6161951Y3519875I0J-52471D01*
G01*
X6257070Y3535197D02*
G03*
X6265693Y3538755I0J12228D01*
G01*
X6274363Y3542359D02*
G03*
X6265740Y3538801I0J-12228D01*
G01*
X6171436Y3493080D02*
G03*
X6164675Y3476757I16323J-16323D01*
G01*
X6204320Y3509543D02*
G03*
X6176287Y3497931I0J-39645D01*
G01*
X6265740Y3505938D02*
G03*
X6274363Y3502380I8623J8669D01*
G01*
X6265693Y3505984D02*
G03*
X6257070Y3509543I-8623J-8669D01*
G01*
X6265740Y3538801D02*
G03*
X6265716Y3538778I8623J-8669D01*
G01*
X6265693Y3538755D02*
G03*
X6265716Y3538778I-8623J8669D01*
G01*
X6161951Y3519875D02*
G03*
X6161904Y3519828I37056J-37150D01*
G01*
X6265716Y3505961D02*
G03*
X6265693Y3505984I-8646J-8646D01*
G01*
X6265716Y3505961D02*
G03*
X6265740Y3505938I8646J8646D01*
G01*
X6159500Y3462020D02*
G03*
X6164675Y3474513I-12493J12493D01*
G01*
X6274372Y3622369D02*
G03*
X6265710Y3618782I0J-12249D01*
G01*
X6257048Y3615194D02*
G03*
X6265710Y3618782I0J12249D01*
G01*
X6130086Y3615194D02*
G03*
X6039342Y3577607I0J-128331D01*
G01*
X5992192Y3540019D02*
G03*
X6008516Y3546781I0J23085D01*
G01*
X5989948Y3540019D02*
G03*
X5977455Y3534845I0J-17668D01*
G01*
X6135398Y3589540D02*
G03*
X6053761Y3555745I0J-115504D01*
G01*
X6265710Y3585952D02*
G03*
X6274372Y3582364I8662J8662D01*
G01*
X6265710Y3585952D02*
G03*
X6257048Y3589540I-8662J-8662D01*
G01*
X6026656Y3528641D02*
G03*
X6026643Y3528628I16324J-16324D01*
G01*
D02*
G03*
X6019895Y3512317I16337J-16311D01*
G01*
X6053761Y3555745D02*
G03*
X6053725Y3555710I81638J-81709D01*
G01*
X6014720Y3497580D02*
G03*
X6019895Y3510073I-12493J12493D01*
G01*
X9749553Y8034160D02*
G03*
X9769687Y8042488I0J28501D01*
G01*
X9427236Y7838304D02*
G03*
X9443530Y7831572I16294J16353D01*
G01*
X9472092D02*
G03*
X9537174Y7858530I0J92040D01*
G01*
X9425620Y7839920D02*
G03*
X9413126Y7845095I-12494J-12494D01*
G01*
X7761859Y4232587D02*
G03*
X7758239Y4241326I-12358J0D01*
G01*
X7754620Y4250064D02*
G03*
X7758239Y4241326I12358J0D01*
G01*
X6960745Y4100955D02*
G03*
X6960712Y4100988I-158357J-158357D01*
G01*
D02*
G03*
X6802387Y4166549I-158324J-158390D01*
G01*
X6271165D02*
G03*
X6094151Y4093351I0J-250634D01*
G01*
X7625284Y4038854D02*
G03*
X7721858Y4078856I0J136575D01*
G01*
X6960870Y4100830D02*
G03*
X7110493Y4038854I149623J149623D01*
G01*
X6012693Y4011893D02*
G03*
X5981446Y3936455I75438J-75438D01*
G01*
X5966475Y3856121D02*
G03*
X5981446Y3892265I-36144J36144D01*
G01*
X5917994Y3842925D02*
G03*
X5905500Y3848100I-12494J-12494D01*
G01*
X5919769Y3841149D02*
G03*
X5935636Y3834577I15867J15867D01*
G01*
D02*
G03*
X5951503Y3841149I0J22439D01*
G01*
X9736492Y8008505D02*
G03*
X9714206Y7999282I0J-31534D01*
G01*
X9472337Y7805918D02*
G03*
X9555141Y7840217I0J117103D01*
G01*
X9443530Y7805918D02*
G03*
X9427236Y7799187I0J-23085D01*
G01*
X9413126Y7792395D02*
G03*
X9425620Y7797571I0J17669D01*
G01*
X7791133Y4241326D02*
G03*
X7794752Y4250064I-8738J8738D01*
G01*
X7791133Y4241326D02*
G03*
X7787513Y4232587I8738J-8738D01*
G01*
X6271260Y4140895D02*
G03*
X6112013Y4074933I0J-225209D01*
G01*
X6942730Y4082689D02*
G03*
X6942974Y4082446I167763J167763D01*
G01*
X6942730Y4082690D02*
G03*
X6802210Y4140895I-140520J-140520D01*
G01*
X7625398Y4013200D02*
G03*
X7739917Y4060635I0J161954D01*
G01*
X6037559Y4000479D02*
G03*
X6007100Y3926914I73607J-73564D01*
G01*
X5938147Y3808923D02*
G03*
X5967868Y3821234I0J42031D01*
G01*
X5938147Y3808923D02*
G03*
X5918014Y3800595I0J-28501D01*
G01*
X9782200Y8047683D02*
G03*
X9769707Y8042507I0J-17669D01*
G01*
X9769687Y8042488D02*
G03*
X9769706Y8042507I-20134J20173D01*
G01*
X9725865Y8034160D02*
G03*
X9703567Y8024923I1J-31535D01*
G01*
X9427206Y7838334D02*
G03*
X9427236Y7838304I16324J16324D01*
G01*
X7721858Y4078856D02*
G03*
X7761859Y4175428I-96572J96572D01*
G01*
X6094151Y4093351D02*
G03*
X6093940Y4093140I177014J-177436D01*
G01*
X9769648Y8000216D02*
G03*
X9749554Y8008506I-20095J-20211D01*
G01*
X9769706Y8000158D02*
G03*
X9769648Y8000216I-20153J-20153D01*
G01*
X9769707Y8000158D02*
G03*
X9782200Y7994983I12494J12494D01*
G01*
X9427236Y7799187D02*
G03*
X9427206Y7799157I16294J-16353D01*
G01*
X7747590Y4068308D02*
G03*
X7787513Y4164801I-96649J96493D01*
G01*
X7747512Y4068230D02*
G03*
X7747590Y4068308I-96571J96571D01*
G01*
X7110146Y4013200D02*
G03*
X7110493Y4013200I347J237252D01*
G01*
X6942974Y4082446D02*
G03*
X7110146Y4013200I167519J168006D01*
G01*
X5984761Y3838127D02*
G03*
X6007100Y3892170I-54201J54042D01*
G01*
X5984682Y3838048D02*
G03*
X5984761Y3838127I-54122J54122D01*
G01*
X5918014Y3800595D02*
G03*
X5917994Y3800575I20134J-20173D01*
G01*
X5905500Y3795400D02*
G03*
X5917994Y3800575I0J17669D01*
G01*
X10142426Y7522498D02*
G03*
X10154920Y7517323I12494J12494D01*
G01*
X9839791Y7530846D02*
G03*
X9785015Y7508181I0J-77523D01*
G01*
X10140810Y7524114D02*
G03*
X10124516Y7530846I-16294J-16353D01*
G01*
X9775790Y7426960D02*
G03*
X9770615Y7439454I-17669J0D01*
G01*
X9773621Y7496787D02*
G03*
X9762267Y7469376I27411J-27411D01*
G01*
Y7457364D02*
G03*
X9768961Y7441109I23085J0D01*
G01*
X6273583Y3742384D02*
G03*
X6274372Y3742359I788J12224D01*
G01*
X6265710Y3745947D02*
G03*
X6266191Y3745491I8662J8662D01*
G01*
X6153296Y3773523D02*
G03*
X6136972Y3780285I-16323J-16323D01*
G01*
X6122235Y3785459D02*
G03*
X6134728Y3780285I12493J12493D01*
G01*
X6197873Y3749547D02*
G03*
X6199028Y3749535I1155J52480D01*
G01*
X6265710Y3745947D02*
G03*
X6257048Y3749535I-8662J-8662D01*
G01*
X6161910Y3764909D02*
G03*
X6162000Y3764819I37118J37118D01*
G01*
X10154920Y7570023D02*
G03*
X10142426Y7564848I0J-17669D01*
G01*
X10124516Y7556500D02*
G03*
X10140810Y7563232I0J23085D01*
G01*
X9839696Y7556500D02*
G03*
X9767053Y7526499I0J-102948D01*
G01*
X9748383Y7507829D02*
G03*
X9736613Y7479495I28221J-28334D01*
G01*
X9728266Y7439454D02*
G03*
X9723091Y7426960I12494J-12494D01*
G01*
X6274372Y3782364D02*
G03*
X6265710Y3778776I0J-12249D01*
G01*
X6257606Y3775201D02*
G03*
X6265710Y3778776I-558J12237D01*
G01*
X6257048Y3775189D02*
G03*
X6257606Y3775201I0J12249D01*
G01*
X6203337D02*
G03*
X6204341Y3775189I1004J39653D01*
G01*
X6164675Y3807987D02*
G03*
X6171371Y3791729I23086J0D01*
G01*
D02*
G03*
X6171423Y3791676I16390J16258D01*
G01*
X6164675Y3810231D02*
G03*
X6159500Y3822724I-17668J0D01*
G01*
X6176293Y3786806D02*
G03*
X6176316Y3786783I28048J28048D01*
G01*
D02*
G03*
X6176380Y3786719I28025J28071D01*
G01*
X6171423Y3791676D02*
G03*
X6171436Y3791663I16337J16311D01*
G01*
X10140840Y7524085D02*
G03*
X10140810Y7524114I-16324J-16324D01*
G01*
X9785015Y7508181D02*
G03*
X9784974Y7508140I54776J-54858D01*
G01*
X9768961Y7441109D02*
G03*
X9769029Y7441040I16392J16255D01*
G01*
X6162000Y3764819D02*
G03*
X6197873Y3749547I37028J37208D01*
G01*
X6266191Y3745491D02*
G03*
X6273583Y3742384I8180J9118D01*
G01*
X10140810Y7563232D02*
G03*
X10140840Y7563261I-16294J16353D01*
G01*
X9767053Y7526499D02*
G03*
X9766901Y7526347I72643J-72947D01*
G01*
X9729882Y7441070D02*
G03*
X9736613Y7457364I-16353J16294D01*
G01*
X9729852Y7441040D02*
G03*
X9729882Y7441070I-16324J16324D01*
G01*
X6176380Y3786719D02*
G03*
X6203337Y3775201I27961J28136D01*
G01*
X10430702Y7463567D02*
G03*
X10441940Y7447280I50018J22493D01*
G01*
X10425877Y7486059D02*
G03*
X10430702Y7463567I54842J0D01*
G01*
X10341402Y7878018D02*
G03*
X10193433Y7939280I-147969J-148068D01*
G01*
X10341502Y7877918D02*
G03*
X10341452Y7877968I-148068J-147969D01*
G01*
X10402763Y7729950D02*
G03*
X10341502Y7877918I-209330J0D01*
G01*
X10341452Y7877968D02*
G03*
X10341402Y7878018I-148018J-148018D01*
G01*
X10385694Y7993746D02*
G03*
X10385649Y7993791I-97166J-97074D01*
G01*
X10425877Y7896671D02*
G03*
X10385694Y7993746I-137349J0D01*
G01*
X8608809Y3687331D02*
G03*
X8664882Y3664122I56073J56133D01*
G01*
X8608779Y3687361D02*
G03*
X8608809Y3687331I56103J56103D01*
G01*
X8497437Y3766015D02*
G03*
X8497397Y3766055I-34835J-34755D01*
G01*
X8511810Y3731260D02*
G03*
X8497437Y3766015I-49207J0D01*
G01*
X8386136Y3877316D02*
G03*
X8386201Y3877251I112324J112195D01*
G01*
X8339701Y3989510D02*
G03*
X8386136Y3877316I158758J0D01*
G01*
X8362815Y3994298D02*
G03*
X8405930Y3890210I147202J0D01*
G01*
X8325807Y4144761D02*
G03*
X8325621Y4144948I-89697J-89491D01*
G01*
X8362815Y4055270D02*
G03*
X8325807Y4144761I-126705J0D01*
G01*
X8309384Y4128496D02*
G03*
X8309360Y4128520I-73274J-73226D01*
G01*
X8339701Y4055270D02*
G03*
X8309384Y4128496I-103591J0D01*
G01*
X8194548Y4276852D02*
G03*
X8218250Y4219631I80923J0D01*
G01*
X8263616Y4206953D02*
G03*
X8263646Y4206923I69959J69899D01*
G01*
X8236028Y4260579D02*
G03*
X8263616Y4206953I97547J16273D01*
G01*
X8234680Y4276852D02*
G03*
X8236028Y4260579I98895J0D01*
G01*
X8031163Y4241326D02*
G03*
X8034782Y4250064I-8738J8738D01*
G01*
X8031163Y4241326D02*
G03*
X8027543Y4232587I8738J-8738D01*
G01*
X7975934Y3836608D02*
G03*
X8027543Y3961202I-124594J124594D01*
G01*
X7850880Y3784539D02*
G03*
X7975474Y3836148I0J176201D01*
G01*
X6983439Y3755502D02*
G03*
X6990101Y3771585I-16083J16083D01*
G01*
X6993896Y3780745D02*
G03*
X6990101Y3771585I9160J-9160D01*
G01*
X7003056Y3784539D02*
G03*
X6993896Y3780745I0J-12955D01*
G01*
X8001889Y4232587D02*
G03*
X7998269Y4241326I-12359J0D01*
G01*
X7994650Y4250064D02*
G03*
X7998269Y4241326I12358J0D01*
G01*
X7850555Y3810193D02*
G03*
X7957513Y3854467I0J151334D01*
G01*
X6983781Y3838438D02*
G03*
X6983759Y3838459I-15333J-15290D01*
G01*
X6990101Y3823148D02*
G03*
X6983781Y3838438I-21654J0D01*
G01*
X6990101Y3823148D02*
G03*
X6993896Y3813988I12955J0D01*
G01*
D02*
G03*
X7003056Y3810193I9160J9160D01*
G01*
X7957616Y3854569D02*
G03*
X8001889Y3961528I-107061J106958D01*
G01*
X7957564Y3854518D02*
G03*
X7957616Y3854569I-107009J107009D01*
G01*
X7957513Y3854467D02*
G03*
X7957564Y3854518I-106958J107061D01*
G01*
X7911084Y4241389D02*
G03*
X7914640Y4249974I-8585J8585D01*
G01*
X7911084Y4241389D02*
G03*
X7907528Y4232804I8585J-8585D01*
G01*
X7784174Y3864504D02*
G03*
X7871303Y3900594I0J123219D01*
G01*
X7067676Y3894244D02*
G03*
X6995114Y3924300I-72562J-72562D01*
G01*
X6814595D02*
G03*
X6765029Y3903793I0J-70154D01*
G01*
X6764970Y3903733D02*
G03*
X6744441Y3854145I49627J-49588D01*
G01*
X6654228Y3702354D02*
G03*
X6662890Y3705942I0J12249D01*
G01*
X6671552Y3709530D02*
G03*
X6662890Y3705942I0J-12249D01*
G01*
X6720333Y3723581D02*
G03*
X6720354Y3723602I-33953J33995D01*
G01*
X6686380Y3709530D02*
G03*
X6720333Y3723581I0J48047D01*
G01*
X7881874Y4232804D02*
G03*
X7878318Y4241389I-12141J0D01*
G01*
X7867553Y3933124D02*
G03*
X7881874Y3967699I-34575J34575D01*
G01*
X7874762Y4249974D02*
G03*
X7878318Y4241389I12141J0D01*
G01*
X7784079Y3890158D02*
G03*
X7853231Y3918802I0J97795D01*
G01*
X7085735Y3912464D02*
G03*
X7139696Y3890158I53961J54116D01*
G01*
X7085652Y3912547D02*
G03*
X6995345Y3949954I-90307J-90307D01*
G01*
X7085658Y3912542D02*
G03*
X7085735Y3912464I54038J54038D01*
G01*
X6814500Y3949954D02*
G03*
X6747062Y3922106I0J-95578D01*
G01*
D02*
G03*
X6746916Y3921960I67437J-67730D01*
G01*
X6746781Y3921825D02*
G03*
X6746707Y3921751I67585J-67585D01*
G01*
X6707221Y3746749D02*
G03*
X6718787Y3774671I-27922J27922D01*
G01*
X6662890Y3738771D02*
G03*
X6654228Y3742359I-8662J-8662D01*
G01*
X6662890Y3738771D02*
G03*
X6671552Y3735184I8662J8662D01*
G01*
X6705946Y3745475D02*
G03*
X6705971Y3745499I-24880J24929D01*
G01*
X6681066Y3735184D02*
G03*
X6705946Y3745475I0J35220D01*
G01*
X6746707Y3921751D02*
G03*
X6718787Y3854460I67659J-67511D01*
G01*
D02*
G03*
X6718786Y3854240I95579J-220D01*
G01*
X7885840Y3915131D02*
G03*
X7907528Y3967603I-52632J52473D01*
G01*
X7885760Y3915051D02*
G03*
X7885840Y3915131I-52552J52552D01*
G01*
X7139246Y3864504D02*
G03*
X7139473Y3864504I227J101537D01*
G01*
X7067675Y3894244D02*
G03*
X7067852Y3894068I71798J71797D01*
G01*
D02*
G03*
X7139246Y3864504I71621J71973D01*
G01*
X6765029Y3903793D02*
G03*
X6764989Y3903752I49566J-49647D01*
G01*
D02*
G03*
X6764970Y3903733I49607J-49607D01*
G01*
X6725511Y3728760D02*
G03*
X6744441Y3774576I-45982J45817D01*
G01*
X6725429Y3728677D02*
G03*
X6725511Y3728760I-45900J45900D01*
G01*
X6859580Y3780612D02*
G03*
X6850420Y3784407I-9160J-9160D01*
G01*
X6863375Y3771452D02*
G03*
X6859580Y3780612I-12955J0D01*
G01*
X6839432Y3784407D02*
G03*
X6824164Y3778101I0J-21639D01*
G01*
X6869695Y3756162D02*
G03*
X6869717Y3756141I15333J15290D01*
G01*
X6863375Y3771452D02*
G03*
X6869695Y3756162I21654J0D01*
G01*
X6817793Y3771730D02*
G03*
X6812580Y3759144I12586J-12586D01*
G01*
X6791242Y3611123D02*
G03*
X6812579Y3662635I-51512J51512D01*
G01*
X6739363Y3589515D02*
G03*
X6791039Y3610920I0J73081D01*
G01*
X6870037Y3839098D02*
G03*
X6863375Y3823015I16083J-16083D01*
G01*
X6850420Y3810061D02*
G03*
X6859580Y3813855I0J12955D01*
G01*
X6828806Y3810061D02*
G03*
X6813506Y3803723I0J-21638D01*
G01*
X6799653Y3789870D02*
G03*
X6799548Y3789765I30726J-30726D01*
G01*
X6772967Y3629127D02*
G03*
X6786926Y3662826I-33698J33698D01*
G01*
X6739268Y3615169D02*
G03*
X6772967Y3629127I0J47659D01*
G01*
X6824164Y3778101D02*
G03*
X6824132Y3778069I15268J-15333D01*
G01*
X6859580Y3813855D02*
G03*
X6863375Y3823015I-9160J9160D01*
G01*
X6799548Y3789765D02*
G03*
X6786926Y3759293I30831J-30621D01*
G01*
D02*
G03*
X6786925Y3759144I43453J-149D01*
G01*
X8194548Y5193746D02*
G03*
X8190992Y5202331I-12141J0D01*
G01*
X8188037Y5207141D02*
G03*
X8190992Y5202331I11539J3774D01*
G01*
X8187436Y5210915D02*
G03*
X8188037Y5207141I12140J0D01*
G01*
X8190341Y5544262D02*
G03*
X8186547Y5535102I9160J-9160D01*
G01*
X8199502Y5548057D02*
G03*
X8190341Y5544262I0J-12955D01*
G01*
X8213604Y5553124D02*
G03*
X8213629Y5553148I-12268J12317D01*
G01*
X8201336Y5548057D02*
G03*
X8213604Y5553124I0J17384D01*
G01*
X8158226Y5202331D02*
G03*
X8154670Y5193746I8585J-8585D01*
G01*
X8158226Y5202331D02*
G03*
X8161782Y5210915I-8584J8584D01*
G01*
X8160893Y5535102D02*
G03*
X8157099Y5544262I-12955J0D01*
G01*
D02*
G03*
X8147938Y5548057I-9160J-9160D01*
G01*
X8133836Y5553124D02*
G03*
X8146104Y5548057I12268J12317D01*
G01*
X8133811Y5553148D02*
G03*
X8133836Y5553124I12292J12292D01*
G01*
X8873113Y5131529D02*
G03*
X8798406Y5162474I-74706J-74706D01*
G01*
X8904257Y5056792D02*
G03*
X8873431Y5131211I-105244J0D01*
G01*
X8698501Y5301183D02*
G03*
X8711256Y5295900I12755J12755D01*
G01*
X8826872Y4848987D02*
G03*
X8869661Y4866711I0J60512D01*
G01*
X8697000Y5302685D02*
G03*
X8687852Y5306467I-9147J-9172D01*
G01*
X8697012Y5302673D02*
G03*
X8697000Y5302685I-9159J-9159D01*
G01*
X8687852Y5306467D02*
G03*
X8678693Y5302672I0J-12954D01*
G01*
X8656855Y5280835D02*
G03*
X8642530Y5246252I34583J-34583D01*
G01*
X8664076Y5194164D02*
G03*
X8664127Y5194113I52190J52088D01*
G01*
X8642530Y5246252D02*
G03*
X8664076Y5194164I73736J0D01*
G01*
X8664127Y5194113D02*
G03*
X8740510Y5162474I76383J76383D01*
G01*
X8546456Y4841748D02*
G03*
X8555194Y4845367I0J12358D01*
G01*
X8563933Y4848987D02*
G03*
X8555194Y4845367I0J-12358D01*
G01*
X8660565Y5320825D02*
G03*
X8664347Y5329972I-9172J9147D01*
G01*
D02*
G03*
X8660565Y5339120I-12953J0D01*
G01*
X8855072Y5113290D02*
G03*
X8798266Y5136820I-56807J-56807D01*
G01*
X8660565Y5339120D02*
G03*
X8660553Y5339132I-9172J-9147D01*
G01*
Y5320813D02*
G03*
X8660565Y5320825I-9159J9159D01*
G01*
X8878603Y5056483D02*
G03*
X8855072Y5113290I-80337J0D01*
G01*
X8859957Y4893287D02*
G03*
X8878603Y4938302I-45015J45015D01*
G01*
X8826762Y4874641D02*
G03*
X8851599Y4884929I0J35124D01*
G01*
X8653780Y5353376D02*
G03*
X8659063Y5340621I18038J0D01*
G01*
X8638570Y5298830D02*
G03*
X8616876Y5246456I52373J-52373D01*
G01*
Y5246029D02*
G03*
X8645800Y5176160I98852J0D01*
G01*
X8653556Y5168403D02*
G03*
X8729884Y5136820I76327J76438D01*
G01*
X8555194Y4878260D02*
G03*
X8546456Y4881880I-8739J-8739D01*
G01*
X8555194Y4878260D02*
G03*
X8563933Y4874641I8738J8738D01*
G01*
X8653501Y5168459D02*
G03*
X8653556Y5168403I76383J76383D01*
G01*
X8645800Y5176160D02*
G03*
X8645829Y5176130I69928J69870D01*
G01*
X8878250Y4875300D02*
G03*
X8904257Y4938206I-63078J62906D01*
G01*
X8878164Y4875214D02*
G03*
X8878250Y4875300I-62992J62992D01*
G01*
X7237743Y6490859D02*
G03*
X7233948Y6481698I9160J-9160D01*
G01*
X7364205Y6537620D02*
G03*
X7355546Y6534034I0J-12245D01*
G01*
X7346887Y6530447D02*
G03*
X7355546Y6534034I0J12246D01*
G01*
X7309407Y6530447D02*
G03*
X7297167Y6525377I0J-17310D01*
G01*
X7284927Y6520307D02*
G03*
X7297167Y6525377I0J17310D01*
G01*
X7237743Y6524101D02*
G03*
X7246903Y6520307I9160J9160D01*
G01*
X7233948Y6533262D02*
G03*
X7237743Y6524101I12955J0D01*
G01*
X7233948Y6533262D02*
G03*
X7227576Y6548669I-21814J0D01*
G01*
D02*
G03*
X7227559Y6548686I-15442J-15408D01*
G01*
X7355546Y6501206D02*
G03*
X7364205Y6497620I8659J8659D01*
G01*
X7355546Y6501206D02*
G03*
X7346888Y6504793I-8659J-8659D01*
G01*
X7320033D02*
G03*
X7307793Y6499723I0J-17310D01*
G01*
X7295553Y6494653D02*
G03*
X7307793Y6499723I0J17310D01*
G01*
X7246903Y6494653D02*
G03*
X7237743Y6490859I0J-12955D01*
G01*
X7227559Y6466274D02*
G03*
X7227576Y6466291I-15425J15425D01*
G01*
D02*
G03*
X7233948Y6481698I-15442J15408D01*
G01*
X7265607Y6217283D02*
G03*
X7282623Y6258364I-41081J41081D01*
G01*
X7234065Y6204061D02*
G03*
X7243225Y6200267I9160J9160D01*
G01*
X7234065Y6170819D02*
G03*
X7230271Y6161658I9160J-9160D01*
G01*
X7221286Y6139968D02*
G03*
X7230271Y6161658I-21691J21691D01*
G01*
X7355546Y6381207D02*
G03*
X7364205Y6377620I8659J8659D01*
G01*
X7355546Y6381207D02*
G03*
X7346888Y6384793I-8659J-8659D01*
G01*
D02*
G03*
X7333759Y6379355I0J-18567D01*
G01*
D02*
G03*
X7308277Y6317836I61519J-61519D01*
G01*
X7283912Y6199308D02*
G03*
X7308277Y6258131I-58823J58823D01*
G01*
X7248538Y6174613D02*
G03*
X7266768Y6182164I0J25780D01*
G01*
X7243225Y6174613D02*
G03*
X7234065Y6170819I0J-12955D01*
G01*
X7364205Y6417620D02*
G03*
X7355546Y6414034I0J-12245D01*
G01*
X7346888Y6410447D02*
G03*
X7355546Y6414034I0J12245D01*
G01*
X7346753Y6410447D02*
G03*
X7315714Y6397591I0J-43895D01*
G01*
X7315551Y6397427D02*
G03*
X7282623Y6317931I79496J-79496D01*
G01*
X7243225Y6200267D02*
G03*
X7252385Y6204061I0J12954D01*
G01*
X7230271Y6213222D02*
G03*
X7234065Y6204061I12955J0D01*
G01*
X7230271Y6213222D02*
G03*
X7221286Y6234912I-30675J0D01*
G01*
X8982871Y6213222D02*
G03*
X8973886Y6234912I-30675J0D01*
G01*
X8982871Y6213222D02*
G03*
X8986665Y6204061I12955J0D01*
G01*
X8995825Y6200267D02*
G03*
X9004985Y6204061I0J12954D01*
G01*
X9068151Y6397427D02*
G03*
X9035223Y6317931I79496J-79496D01*
G01*
X9099353Y6410447D02*
G03*
X9068314Y6397591I0J-43895D01*
G01*
X9099488Y6410447D02*
G03*
X9108146Y6414034I0J12245D01*
G01*
X9116805Y6417620D02*
G03*
X9108146Y6414034I0J-12245D01*
G01*
X8995825Y6174613D02*
G03*
X8986665Y6170819I0J-12955D01*
G01*
X9001138Y6174613D02*
G03*
X9019368Y6182164I0J25780D01*
G01*
X9036512Y6199308D02*
G03*
X9060877Y6258131I-58823J58823D01*
G01*
X9086359Y6379355D02*
G03*
X9060877Y6317836I61519J-61519D01*
G01*
X9099488Y6384793D02*
G03*
X9086359Y6379355I0J-18567D01*
G01*
X9108146Y6381207D02*
G03*
X9099488Y6384793I-8659J-8659D01*
G01*
X9108146Y6381207D02*
G03*
X9116805Y6377620I8659J8659D01*
G01*
X8973886Y6139968D02*
G03*
X8982871Y6161658I-21691J21691D01*
G01*
X8986665Y6170819D02*
G03*
X8982871Y6161658I9160J-9160D01*
G01*
X8986665Y6204061D02*
G03*
X8995825Y6200267I9160J9160D01*
G01*
X9018207Y6217283D02*
G03*
X9035223Y6258364I-41081J41081D01*
G01*
X8980176Y6466291D02*
G03*
X8986548Y6481698I-15442J15408D01*
G01*
X8980159Y6466274D02*
G03*
X8980176Y6466291I-15425J15425D01*
G01*
X8999503Y6494653D02*
G03*
X8990343Y6490859I0J-12955D01*
G01*
X9048153Y6494653D02*
G03*
X9060393Y6499723I0J17310D01*
G01*
X9072633Y6504793D02*
G03*
X9060393Y6499723I0J-17310D01*
G01*
X9108146Y6501206D02*
G03*
X9099488Y6504793I-8659J-8659D01*
G01*
X9108146Y6501206D02*
G03*
X9116805Y6497620I8659J8659D01*
G01*
X8980176Y6548669D02*
G03*
X8980159Y6548686I-15442J-15408D01*
G01*
X8986548Y6533262D02*
G03*
X8980176Y6548669I-21814J0D01*
G01*
X8986548Y6533262D02*
G03*
X8990343Y6524101I12955J0D01*
G01*
D02*
G03*
X8999503Y6520307I9160J9160D01*
G01*
X9037527D02*
G03*
X9049767Y6525377I0J17310D01*
G01*
X9062007Y6530447D02*
G03*
X9049767Y6525377I0J-17310D01*
G01*
X9099487Y6530447D02*
G03*
X9108146Y6534034I0J12246D01*
G01*
X9116805Y6537620D02*
G03*
X9108146Y6534034I0J-12245D01*
G01*
X8990343Y6490859D02*
G03*
X8986548Y6481698I9160J-9160D01*
G01*
X6130086Y3669550D02*
X6257048D01*
X6274372Y3662374D02*
X6294298D01*
X6008516Y3737963D02*
X6039342Y3707137D01*
X5989948Y3744725D02*
X5992192D01*
X6274372Y3702379D02*
X6294298D01*
X6135398Y3695204D02*
X6257048D01*
X6026643Y3756116D02*
X6026656Y3756103D01*
X6019895Y3772427D02*
Y3774671D01*
X6026656Y3756103D02*
X6053725Y3729034D01*
X8427466Y5210916D02*
Y5248013D01*
X8434578Y5166868D02*
Y5193746D01*
X8401812Y5210916D02*
Y5248013D01*
X8394700Y5166868D02*
Y5193746D01*
X8563716Y4969002D02*
X8583033D01*
X8519668Y4961890D02*
X8546546D01*
X8519668Y5001768D02*
X8546546D01*
X8563716Y4994656D02*
X8583033D01*
X8787453Y5457275D02*
Y5459519D01*
X8780691Y5440952D02*
X8780705Y5440965D01*
X8768707Y5428967D02*
X8780691Y5440952D01*
X8768695Y5428955D02*
X8768707Y5428967D01*
X8750388D02*
X8750400Y5428955D01*
X8748898Y5430457D02*
X8750388Y5428967D01*
X8717420Y5435740D02*
X8736144D01*
X8815155Y5429573D02*
X8817399D01*
X8786847Y5410827D02*
X8798832Y5422812D01*
X8793620Y5359540D02*
Y5378264D01*
X8786835Y5392520D02*
X8786847Y5392508D01*
X8788336Y5391018D01*
X8492790Y4761738D02*
X8519668D01*
X8417547Y4754626D02*
X8475620D01*
X8417547Y4728972D02*
X8475620D01*
X8492790Y4721860D02*
X8519668D01*
Y4761738D02*
X8551575D01*
X8314069Y5046306D02*
X8315811Y5044564D01*
X8315816Y5044560D01*
X8307164Y5062976D02*
Y5101541D01*
X8307451Y5101829D02*
Y5122603D01*
X8314690Y5140080D02*
Y5166868D01*
X8307164Y5101541D02*
X8307451Y5101829D01*
X8272858Y5044560D02*
X8272863Y5044564D01*
X8274605Y5046306D01*
X8274558Y5140080D02*
Y5166868D01*
X8281797Y5112455D02*
Y5122603D01*
X8281510Y5112168D02*
X8281797Y5112455D01*
X8281510Y5062976D02*
Y5112168D01*
X8199502Y5675103D02*
X8201336D01*
X8186547Y5688057D02*
Y5692216D01*
X8213604Y5670036D02*
X8213629Y5670011D01*
X8227060Y5656580D01*
X8193308Y5708540D02*
X8194895Y5710126D01*
X8120380Y5656580D02*
X8133811Y5670011D01*
X8133836Y5670036D01*
X8146104Y5675103D02*
X8147938D01*
X8160893Y5688057D02*
Y5692216D01*
X8152545Y5710126D02*
X8154132Y5708540D01*
X7456060Y6197209D02*
X7457646Y6198795D01*
X7456060Y6158032D02*
X7457646Y6156445D01*
X7438322Y6164793D02*
X7439736D01*
X8067548Y5210916D02*
Y5215073D01*
X8074018Y5230728D02*
X8074043Y5230754D01*
X8074660Y5172195D02*
Y5193746D01*
X8074043Y5230754D02*
X8075896Y5232606D01*
X7435547Y6163501D02*
X7438322Y6164793D01*
X7431299Y6194915D02*
X7431401Y6194801D01*
X7437861Y6190918D02*
X7439736Y6190447D01*
X7407169Y6212064D02*
Y6212759D01*
Y6212759D01*
X7386040Y6217620D02*
X7401613D01*
X8034782Y5182822D02*
Y5193746D01*
X8035399Y5230754D02*
X8035424Y5230728D01*
X8033546Y5232606D02*
X8035399Y5230754D01*
X8041894Y5210916D02*
Y5215073D01*
X7801864Y5064684D02*
Y5122820D01*
X7111970Y6547364D02*
X7125425Y6560820D01*
X7106902Y6533262D02*
Y6535096D01*
X7083984Y6520307D02*
X7093948D01*
X7066074Y6528655D02*
X7067660Y6527068D01*
X7794752Y5139990D02*
Y5166868D01*
X7793516Y5046774D02*
X7795103Y5048360D01*
X7834279D02*
X7835866Y5046774D01*
X7083984Y6494653D02*
X7093948D01*
X7106902Y6479864D02*
Y6481698D01*
X7066074Y6486305D02*
X7067660Y6487892D01*
X7827518Y5064684D02*
Y5122820D01*
X7111994Y6467571D02*
X7125425Y6454140D01*
X7111970Y6467596D02*
X7111994Y6467571D01*
X7834630Y5139990D02*
Y5166868D01*
X7953941Y5107134D02*
X7955881Y5105194D01*
X7111987Y6227349D02*
X7125418Y6240780D01*
X7111963Y6227324D02*
X7111987Y6227349D01*
X7106895Y6213222D02*
Y6215056D01*
X7066067Y6208615D02*
X7067653Y6207028D01*
X7083977Y6200267D02*
X7093941D01*
X7914640Y5140080D02*
Y5166868D01*
X7915472Y5107135D02*
X7915496Y5107158D01*
X7913532Y5105194D02*
X7915472Y5107135D01*
X7083977Y6174613D02*
X7093941D01*
X7066067Y6166265D02*
X7067653Y6167852D01*
X7106895Y6159824D02*
Y6161658D01*
X7111963Y6147556D02*
X7111987Y6147531D01*
X7125418Y6134100D01*
X7954772Y5140080D02*
Y5166868D01*
X8864570Y6547364D02*
X8878025Y6560820D01*
X8859502Y6533262D02*
Y6535096D01*
X8818674Y6528655D02*
X8820260Y6527068D01*
X8836584Y6520307D02*
X8846548D01*
X8462804Y4643198D02*
X8516414D01*
X8864570Y6467596D02*
X8878025Y6454140D01*
X8859502Y6479864D02*
Y6481698D01*
X8836584Y6494653D02*
X8846548D01*
X8818674Y6486305D02*
X8820260Y6487892D01*
X8462804Y4600624D02*
X8516414D01*
X8836577Y6174613D02*
X8846541D01*
X8859495Y6159824D02*
Y6161658D01*
X8864587Y6147531D02*
X8878018Y6134100D01*
X8864563Y6147556D02*
X8864587Y6147531D01*
X8818667Y6166265D02*
X8820253Y6167852D01*
X8492880Y4521962D02*
X8519668D01*
X8417547Y4514723D02*
X8475403D01*
X8864563Y6227324D02*
X8878018Y6240780D01*
X8859495Y6213222D02*
Y6215056D01*
X8836577Y6200267D02*
X8846541D01*
X8818667Y6208615D02*
X8820253Y6207028D01*
X8417547Y4489069D02*
X8475403D01*
X8492880Y4481830D02*
X8519668D01*
Y4521962D02*
X8551575D01*
X8519668Y4481830D02*
X8551575D01*
X9208660Y6158032D02*
X9210246Y6156445D01*
X9190922Y6164793D02*
X9192336D01*
X8563716Y4369054D02*
X8869756D01*
X8519668Y4361942D02*
X8546546D01*
X8886080Y4362293D02*
X8887666Y4360706D01*
X9208660Y6197209D02*
X9210246Y6198795D01*
X9159769Y6212759D02*
Y6212759D01*
Y6212064D02*
Y6212759D01*
X9190461Y6190918D02*
X9192336Y6190447D01*
X9183899Y6194915D02*
X9184001Y6194801D01*
X9138640Y6217620D02*
X9154213D01*
X8886080Y4401469D02*
X8887666Y4403056D01*
X8519668Y4401820D02*
X8546546D01*
X8563716Y4394708D02*
X8869756D01*
X9188147Y6163501D02*
X9190922Y6164793D01*
X6134728Y3504459D02*
X6136972D01*
X6153283Y3511208D02*
X6161904Y3519828D01*
X6199006Y3535197D02*
X6257070D01*
X6274363Y3542359D02*
X6294298D01*
X6164675Y3474513D02*
Y3476757D01*
X6171436Y3493081D02*
X6176287Y3497931D01*
X6274363Y3502380D02*
X6294298D01*
X6204320Y3509543D02*
X6257070D01*
X6274372Y3622369D02*
X6294298D01*
X6130086Y3615194D02*
X6257048D01*
X6008516Y3546781D02*
X6039342Y3577607D01*
X5989948Y3540019D02*
X5992192D01*
X6274372Y3582364D02*
X6294298D01*
X6135398Y3589540D02*
X6257048D01*
X6026656Y3528641D02*
X6053725Y3555710D01*
X6026643Y3528628D02*
X6026656Y3528641D01*
X6019895Y3510073D02*
Y3512317D01*
X9725865Y8034160D02*
X9749553D01*
X9537174Y7858530D02*
X9703568Y8024923D01*
X9425620Y7839920D02*
X9427206Y7838334D01*
X9443530Y7831572D02*
X9472092D01*
X7761859Y4175428D02*
Y4232587D01*
X7754620Y4250064D02*
Y4276852D01*
X6960745Y4100955D02*
X6960870Y4100830D01*
X6271165Y4166549D02*
X6802387D01*
X7110493Y4038854D02*
X7625284D01*
X6012693Y4011893D02*
X6093940Y4093140D01*
X5981446Y3892265D02*
Y3936455D01*
X5951503Y3841149D02*
X5966475Y3856121D01*
X5917994Y3842925D02*
X5919769Y3841149D01*
X9736492Y8008505D02*
X9749553D01*
X9555141Y7840217D02*
X9714206Y7999282D01*
X9443530Y7805918D02*
X9472337D01*
X9425620Y7797571D02*
X9427206Y7799157D01*
X7787513Y4164801D02*
Y4232587D01*
X7739917Y4060635D02*
X7747512Y4068230D01*
X6271260Y4140895D02*
X6802210D01*
X6942730Y4082689D02*
Y4082690D01*
X7110493Y4013200D02*
X7625398D01*
X6037559Y4000479D02*
X6112013Y4074933D01*
X6007100Y3892170D02*
Y3926914D01*
X5967868Y3821234D02*
X5984682Y3838048D01*
X7794752Y4250064D02*
Y4276852D01*
X9839791Y7530846D02*
X10124516D01*
X10140840Y7524085D02*
X10142426Y7522498D01*
X9773621Y7496787D02*
X9784974Y7508140D01*
X9769029Y7441040D02*
X9770615Y7439454D01*
X9762267Y7457364D02*
Y7469376D01*
X6274372Y3742359D02*
X6294298D01*
X6134728Y3780285D02*
X6136972D01*
X6199028Y3749535D02*
X6257048D01*
X6153296Y3773523D02*
X6161910Y3764909D01*
X10140840Y7563261D02*
X10142426Y7564848D01*
X9839696Y7556500D02*
X10124516D01*
X9748383Y7507829D02*
X9766901Y7526347D01*
X9736613Y7479495D02*
X9736613Y7479354D01*
X9728266Y7439454D02*
X9729852Y7441040D01*
X6274372Y3782364D02*
X6294298D01*
X6204341Y3775189D02*
X6257048D01*
X6164675Y3807987D02*
Y3810231D01*
X6171423Y3791676D02*
X6171436Y3791663D01*
X6176293Y3786806D02*
X6176316Y3786783D01*
X6171436Y3791663D02*
X6176293Y3786806D01*
X9736613Y7457364D02*
Y7479354D01*
X9821887Y7939280D02*
X10193433D01*
X10402763Y7411976D02*
Y7729950D01*
X10425877Y7486059D02*
Y7896671D01*
X10345420Y8034020D02*
X10385649Y7993791D01*
X10402763Y7411976D02*
X10403363Y7411375D01*
X8511810Y3635838D02*
Y3731260D01*
X8776975Y3660587D02*
X8780510Y3664122D01*
X8664882D02*
X8697746D01*
X8405930Y3890210D02*
X8608779Y3687361D01*
X8386201Y3877251D02*
X8497397Y3766055D01*
X8339701Y3989510D02*
Y4055270D01*
X8362815Y3994298D02*
Y4055270D01*
X8263646Y4206923D02*
X8313231Y4157338D01*
X8325620Y4144948D01*
X8218250Y4219631D02*
X8309360Y4128520D01*
X8027543Y3961202D02*
Y4232587D01*
X7975474Y3836148D02*
X7975934Y3836608D01*
X6971898Y3743960D02*
X6983439Y3755502D01*
X7003056Y3784539D02*
X7850880D01*
X7994650Y4250064D02*
Y4276852D01*
X8001889Y3961528D02*
Y4232587D01*
X6983759Y3838459D02*
X6983781Y3838438D01*
X6971578Y3850640D02*
X6983759Y3838459D01*
X7003056Y3810193D02*
X7850555D01*
X8034782Y4250064D02*
Y4276852D01*
X7907528Y3967603D02*
Y4232804D01*
X6814595Y3924300D02*
X6995114D01*
X7871303Y3900594D02*
X7885760Y3915051D01*
X7139473Y3864504D02*
X7784174D01*
X6744441Y3774576D02*
Y3854145D01*
X6634302Y3702354D02*
X6654228D01*
X6671552Y3709530D02*
X6686380D01*
X6720354Y3723602D02*
X6725428Y3728677D01*
X6720333Y3723581D02*
X6720354Y3723602D01*
X7881874Y3967699D02*
Y4232804D01*
X7874762Y4249974D02*
Y4276852D01*
X6814500Y3949954D02*
X6995345D01*
X7853231Y3918802D02*
X7867553Y3933124D01*
X7139696Y3890158D02*
X7784079D01*
X7085652Y3912547D02*
X7085658Y3912542D01*
X6746781Y3921825D02*
X6746916Y3921960D01*
X6634302Y3742359D02*
X6654228D01*
X6671552Y3735184D02*
X6681066D01*
X6705971Y3745499D02*
X6707221Y3746749D01*
X6705946Y3745475D02*
X6705971Y3745499D01*
X6718787Y3774671D02*
Y3854240D01*
X7914640Y4249974D02*
Y4276852D01*
X6839432Y3784407D02*
X6850420D01*
X6817793Y3771730D02*
X6824132Y3778069D01*
X6869695Y3756162D02*
X6869717Y3756141D01*
X6881898Y3743960D01*
X6812580Y3662635D02*
Y3759144D01*
X6666478Y3589515D02*
X6739363D01*
X6791040Y3610919D02*
X6791242Y3611122D01*
X6870037Y3839098D02*
X6881578Y3850640D01*
X6828806Y3810061D02*
X6850420D01*
X6799653Y3789870D02*
X6799653D01*
X6666478Y3615169D02*
X6739268D01*
X6659302Y3582339D02*
X6666478Y3589515D01*
X6634302Y3582339D02*
X6659302D01*
X6799653Y3789870D02*
X6812381Y3802598D01*
X6786926Y3662826D02*
Y3759144D01*
X6634302Y3622344D02*
X6659302D01*
X6666478Y3615169D01*
X8225790Y5567850D02*
X8227060Y5569120D01*
X8194548Y5166868D02*
Y5193746D01*
X8187436Y5210915D02*
Y5354817D01*
X8186547Y5355706D02*
Y5535102D01*
X8199502Y5548057D02*
X8201336D01*
X8213629Y5553148D02*
X8227060Y5566580D01*
X8213604Y5553124D02*
X8213629Y5553148D01*
X8120380Y5568402D02*
X8121291Y5567491D01*
X8154670Y5166868D02*
Y5193746D01*
X8160893Y5345080D02*
Y5535102D01*
X8146104Y5548057D02*
X8147938D01*
X8133811Y5553148D02*
X8133836Y5553124D01*
X8120380Y5566580D02*
X8133811Y5553148D01*
X8186547Y5355706D02*
X8187436Y5354817D01*
X8161782Y5210915D02*
Y5344191D01*
X8160893Y5345080D02*
X8161782Y5344191D01*
X8873113Y5131529D02*
X8873431Y5131211D01*
X8904257Y4938206D02*
Y5056792D01*
X8697012Y5302673D02*
X8698501Y5301183D01*
X8740510Y5162474D02*
X8798406D01*
X8711256Y5295900D02*
X8729980D01*
X8869661Y4866711D02*
X8878164Y4875214D01*
X8712793Y4848987D02*
X8826872D01*
X8697000Y5302685D02*
X8697012Y5302673D01*
X8656855Y5280835D02*
X8678692Y5302672D01*
X8563933Y4848987D02*
X8712793D01*
X8519668Y4841748D02*
X8546456D01*
X8729884Y5136820D02*
X8798266D01*
X8878603Y4938302D02*
Y5056483D01*
X8851599Y4884929D02*
X8859957Y4893287D01*
X8702167Y4874641D02*
X8826762D01*
X8660553Y5339132D02*
X8660565Y5339120D01*
X8659063Y5340621D02*
X8660553Y5339132D01*
Y5320813D02*
X8660565Y5320825D01*
X8638570Y5298830D02*
X8660553Y5320813D01*
X8653780Y5353376D02*
Y5372100D01*
X8616876Y5246029D02*
Y5246456D01*
X8563933Y4874641D02*
X8702167D01*
X8519668Y4881880D02*
X8546456D01*
X8702167Y4874641D02*
X8702167Y4874641D01*
X8645829Y5176130D02*
X8653501Y5168459D01*
X8712793Y4848987D02*
X8712793Y4848987D01*
X6299200Y3416300D02*
Y3458852D01*
X6294298Y3462375D02*
X6295677D01*
X6299200Y3458852D01*
X6400757Y3416300D02*
X6404280Y3419823D01*
X6365240Y3416300D02*
X6400757D01*
X6404280Y3419823D02*
Y3422344D01*
X7364205Y6537620D02*
X7386040D01*
X7309407Y6530447D02*
X7346887D01*
X7246903Y6520307D02*
X7284927D01*
X7215425Y6560820D02*
X7227559Y6548686D01*
X7227576Y6548669D01*
X7364205Y6497620D02*
X7386040D01*
X7320033Y6504793D02*
X7346888D01*
X7246903Y6494653D02*
X7295553D01*
X7215425Y6454140D02*
X7227559Y6466274D01*
X7227576Y6466291D01*
X7282623Y6258364D02*
Y6317931D01*
X7215418Y6240780D02*
X7221286Y6234912D01*
X7215418Y6134100D02*
X7221286Y6139968D01*
X7364205Y6377620D02*
X7386040D01*
X7308277Y6258131D02*
Y6317836D01*
X7266768Y6182164D02*
X7283912Y6199308D01*
X7243225Y6174613D02*
X7248538D01*
X7364205Y6417620D02*
X7386040D01*
X7346753Y6410447D02*
X7346888D01*
X7315551Y6397427D02*
X7315714Y6397590D01*
X7252385Y6204061D02*
X7265607Y6217283D01*
X9004985Y6204061D02*
X9018207Y6217283D01*
X9068151Y6397427D02*
X9068314Y6397590D01*
X9099353Y6410447D02*
X9099488D01*
X9116805Y6417620D02*
X9138640D01*
X8995825Y6174613D02*
X9001138D01*
X9019368Y6182164D02*
X9036512Y6199308D01*
X9060877Y6258131D02*
Y6317836D01*
X9116805Y6377620D02*
X9138640D01*
X8968018Y6134100D02*
X8973886Y6139968D01*
X8968018Y6240780D02*
X8973886Y6234912D01*
X9035223Y6258364D02*
Y6317931D01*
X8980159Y6466274D02*
X8980176Y6466291D01*
X8968025Y6454140D02*
X8980159Y6466274D01*
X8999503Y6494653D02*
X9048153D01*
X9072633Y6504793D02*
X9099488D01*
X9116805Y6497620D02*
X9138640D01*
X8980159Y6548686D02*
X8980176Y6548669D01*
X8968025Y6560820D02*
X8980159Y6548686D01*
X8999503Y6520307D02*
X9037527D01*
X9062007Y6530447D02*
X9099487D01*
X9116805Y6537620D02*
X9138640D01*
X8701282Y3660587D02*
X8776975D01*
X8697746Y3664122D02*
X8701282Y3660587D01*
D11*
X7830820Y3291840D02*
G03*
X7800287Y3365553I-104246J0D01*
G01*
X7971790Y3620770D02*
G03*
X7922260Y3501194I119576J-119576D01*
G01*
X8056343Y3670300D02*
G03*
X7996555Y3645535I0J-84553D01*
G01*
X8110640Y7301740D02*
G03*
X8163560Y7429500I-127760J127760D01*
G01*
X9272226Y7292386D02*
G03*
X9337040Y7448926I-156631J156540D01*
G01*
X9272180Y7292340D02*
G03*
X9272226Y7292386I-156586J156586D01*
G01*
X9541952Y7640991D02*
G03*
X9496660Y7659752I-45292J-45292D01*
G01*
X3261721Y6063341D02*
G03*
X3336116Y6242946I-179605J179605D01*
G01*
X3072330Y5979160D02*
G03*
X3251935Y6053555I0J254000D01*
G01*
X822960Y6187907D02*
G03*
X891529Y6022351I234147J0D01*
G01*
X891621Y6022259D02*
G03*
X1057106Y5953760I165485J165647D01*
G01*
X848360Y6187907D02*
G03*
X909501Y6040300I208747J0D01*
G01*
X909588Y6040213D02*
G03*
X1057106Y5979160I147519J147693D01*
G01*
X909501Y6040300D02*
G03*
X909588Y6040213I147606J147606D01*
G01*
X398361Y7447111D02*
G03*
X398312Y7447062I85813J-85910D01*
G01*
X407665Y7455492D02*
G03*
X398361Y7447111I76509J-94291D01*
G01*
X484174Y7482627D02*
G03*
X407665Y7455492I0J-121427D01*
G01*
X848360Y7136040D02*
G03*
X802585Y7246676I-156588J0D01*
G01*
X802408Y7246852D02*
G03*
X691772Y7292627I-110636J-110812D01*
G01*
X802496Y7246764D02*
G03*
X802408Y7246852I-110724J-110724D01*
G01*
X802585Y7246676D02*
G03*
X802496Y7246764I-110812J-110636D01*
G01*
X822960Y6678658D02*
G03*
X765610Y6817114I-195807J0D01*
G01*
X758699Y6823621D02*
G03*
X653840Y6863411I-104860J-118277D01*
G01*
X484174Y4668357D02*
G03*
X398398Y4632828I0J-121306D01*
G01*
X591820Y4320804D02*
G03*
X556578Y4405954I-120487J0D01*
G01*
D02*
G03*
X556530Y4406001I-85244J-85150D01*
G01*
X361164Y3703950D02*
G03*
X448134Y3739974I0J122994D01*
G01*
X448191Y3740031D02*
G03*
X484158Y3826943I-87026J86912D01*
G01*
X448134Y3739974D02*
G03*
X448191Y3740031I-86969J86969D01*
G01*
X540938Y3998547D02*
G03*
X540918Y3998566I-61586J-61547D01*
G01*
X566420Y3937000D02*
G03*
X540938Y3998547I-87068J0D01*
G01*
X566420Y3503731D02*
G03*
X640815Y3324125I254000J0D01*
G01*
X591820Y3514252D02*
G03*
X666215Y3334646I254000J0D01*
G01*
X738405Y3226535D02*
G03*
X918011Y3152140I179605J179605D01*
G01*
X748926Y3251935D02*
G03*
X928532Y3177540I179605J179605D01*
G01*
X3072330D02*
G03*
X3251935Y3251935I0J254000D01*
G01*
X3261721Y3261721D02*
G03*
X3336116Y3441326I-179605J179605D01*
G01*
X9355300Y5982180D02*
G03*
X9378640Y6038527I-56347J56347D01*
G01*
X9355300Y5982180D02*
G03*
X9355273Y5982153I56348J-56348D01*
G01*
D02*
G03*
X9331960Y5925832I56375J-56321D01*
G01*
X9294250Y5743922D02*
G03*
X9331960Y5834963I-91041J91041D01*
G01*
X9162455Y5561650D02*
G03*
X9054364Y5516877I0J-152864D01*
G01*
D02*
G03*
X9009591Y5408786I108091J-108091D01*
G01*
X8982896Y3920301D02*
G03*
X8956560Y3856692I63648J-63609D01*
G01*
X8882165Y3269565D02*
G03*
X8956560Y3449170I-179605J179605D01*
G01*
X8659530Y3152140D02*
G03*
X8839135Y3226535I0J254000D01*
G01*
X6330996Y3911052D02*
G03*
X6294298Y3822369I88804J-88683D01*
G01*
X6331056Y3911113D02*
G03*
X6330996Y3911052I88744J-88744D01*
G01*
X8081447Y3536649D02*
G03*
X8028216Y3514636I0J-75367D01*
G01*
X8028093Y3514513D02*
G03*
X8006080Y3461282I53354J-53232D01*
G01*
X8028155Y3514575D02*
G03*
X8028093Y3514513I53293J-53293D01*
G01*
X8028216Y3514636D02*
G03*
X8028155Y3514575I53232J-53354D01*
G01*
X7790130Y3375710D02*
G03*
X7692066Y3416300I-98064J-98163D01*
G01*
X7790180Y3375660D02*
G03*
X7790130Y3375710I-98114J-98114D01*
G01*
X6884620Y3530498D02*
G03*
X6884723Y3530600I-164669J164874D01*
G01*
X6719951Y3462349D02*
G03*
X6884620Y3530498I0J233022D01*
G01*
X6643944Y3502354D02*
G03*
X6823549Y3576749I0J254000D01*
G01*
X7421880Y3689940D02*
G03*
X7469295Y3670300I47415J47415D01*
G01*
X8511810Y3635838D02*
G03*
X8489879Y3582892I52946J-52946D01*
G01*
X8780510Y3664122D02*
G03*
X8803780Y3720300I-56177J56177D01*
G01*
X9309225Y7916922D02*
G03*
X9272180Y7827393I89662J-89529D01*
G01*
X9309292Y7916988D02*
G03*
X9309225Y7916922I89595J-89595D01*
G01*
X9423110Y8021528D02*
G03*
X9394879Y8002575I34075J-81259D01*
G01*
X9457185Y8028383D02*
G03*
X9423110Y8021528I0J-88115D01*
G01*
X8114849Y8168640D02*
G03*
X8071780Y8150800I0J-60909D01*
G01*
X8053940Y8128043D02*
G03*
X8036560Y8065772I102868J-62272D01*
G01*
X8071722Y8150742D02*
G03*
X8053940Y8128043I85086J-84970D01*
G01*
X8071780Y8150800D02*
G03*
X8071722Y8150742I85028J-85028D01*
G01*
X8224520Y7777480D02*
G03*
X8290560Y7936915I-159435J159435D01*
G01*
X8156951Y7709911D02*
G03*
X8098700Y7569200I140826J-140711D01*
G01*
X8157008Y7709968D02*
G03*
X8156951Y7709911I140768J-140768D01*
G01*
X8417560Y7589849D02*
G03*
X8390852Y7654328I-91187J0D01*
G01*
X8390802Y7654378D02*
G03*
X8356748Y7668455I-34054J-34153D01*
G01*
X8390852Y7654328D02*
G03*
X8390802Y7654378I-34104J-34104D01*
G01*
X7266997Y5740343D02*
G03*
X7328261Y5715000I61264J61378D01*
G01*
X7266940Y5740400D02*
G03*
X7266997Y5740343I61321J61321D01*
G01*
X7557978Y5736382D02*
G03*
X7579360Y5788004I-51622J51622D01*
G01*
X7506356Y5715000D02*
G03*
X7557978Y5736382I0J73004D01*
G01*
X7602700Y5961111D02*
G03*
X7626040Y6017458I-56347J56347D01*
G01*
X7602673Y5961084D02*
G03*
X7579360Y5904763I56375J-56321D01*
G01*
X7602700Y5961111D02*
G03*
X7602673Y5961084I56348J-56348D01*
G01*
X8982916Y3920321D02*
G03*
X8982896Y3920301I63629J-63629D01*
G01*
X8982950Y3920355D02*
G03*
X9009591Y3984721I-64434J64366D01*
G01*
X8982916Y3920321D02*
G03*
X8982950Y3920355I-64400J64400D01*
G01*
X7629652Y4641850D02*
G03*
X7563310Y4614370I0J-93822D01*
G01*
X7229729Y6027420D02*
G03*
X7262883Y6041143I0J46910D01*
G01*
D02*
G03*
X7262900Y6041160I-33154J33187D01*
G01*
X8727718Y5029200D02*
G03*
X8600783Y5081778I-126934J-126934D01*
G01*
X8703591Y4196080D02*
G03*
X8728120Y4206240I0J34689D01*
G01*
X8412635Y4213704D02*
G03*
X8412675Y4213665I43433J43355D01*
G01*
X8412714Y4213626D02*
G03*
X8455129Y4196080I42415J42494D01*
G01*
X8412675Y4213665D02*
G03*
X8412714Y4213626I42454J42454D01*
G01*
X8395089Y4250157D02*
G03*
X8412635Y4213704I60980J6902D01*
G01*
X8394700Y4257060D02*
G03*
X8395089Y4250157I61369J0D01*
G01*
X8365571Y4331348D02*
G03*
X8365544Y4331321I24271J-24326D01*
G01*
X8389842Y4341385D02*
G03*
X8365571Y4331348I0J-34363D01*
G01*
X8355479Y4313034D02*
G03*
X8354568Y4304823I36563J-8211D01*
G01*
X8365544Y4331321D02*
G03*
X8355479Y4313034I26498J-26498D01*
G01*
X8477252Y4327138D02*
G03*
X8511598Y4312920I34346J34375D01*
G01*
X8477223Y4327167D02*
G03*
X8442877Y4341385I-34346J-34375D01*
G01*
X8477238Y4327153D02*
G03*
X8477223Y4327167I-34361J-34361D01*
G01*
X8526780Y4066262D02*
G03*
X8489770Y4050932I0J-52340D01*
G01*
X8396578Y4123082D02*
G03*
X8396555Y4123105I-56866J-56820D01*
G01*
X8420100Y4066262D02*
G03*
X8396578Y4123082I-80388J0D01*
G01*
X8274558Y4271324D02*
G03*
X8293100Y4226560I63306J0D01*
G01*
X7495821Y4478301D02*
G03*
X7520940Y4538980I-60730J60679D01*
G01*
X7495795Y4478275D02*
G03*
X7495821Y4478301I-60705J60705D01*
G01*
X7544289Y4595349D02*
G03*
X7520940Y4538980I56369J-56369D01*
G01*
X7438045Y4550064D02*
G03*
X7421880Y4511040I39024J-39024D01*
G01*
X7610553Y4681982D02*
G03*
X7541260Y4653280I0J-97995D01*
G01*
X7512022Y4761738D02*
G03*
X7421880Y4724400I0J-127480D01*
G01*
X7424420Y4831080D02*
G03*
X7591826Y4761738I167406J167406D01*
G01*
X7421880Y5044440D02*
G03*
X7524899Y5001768I103019J103019D01*
G01*
X7461414Y5111587D02*
G03*
X7629652Y5041900I168238J168238D01*
G01*
X9494520Y5876072D02*
G03*
X9497060Y5869940I8672J0D01*
G01*
X9133283Y6337620D02*
G03*
X9099786Y6323767I0J-47423D01*
G01*
X8928314Y6346967D02*
G03*
X8928289Y6346961I3844J-14748D01*
G01*
D02*
G03*
X8920798Y6342380I3869J-14742D01*
G01*
X9092976Y6316187D02*
G03*
X9092963Y6316173I20664J-18567D01*
G01*
D02*
G03*
X9085860Y6297620I20677J-18552D01*
G01*
X9063503Y6189645D02*
G03*
X9063548Y6189690I-53973J53973D01*
G01*
X9062818Y6188960D02*
G03*
X9062775Y6188918I52321J-52320D01*
G01*
D02*
G03*
X9041146Y6136640I52363J-52278D01*
G01*
X9015483Y6041143D02*
G03*
X9015500Y6041160I-33154J33187D01*
G01*
X9003778Y6032610D02*
G03*
X9015483Y6041143I-21448J41720D01*
G01*
X8982329Y6027420D02*
G03*
X9003778Y6032610I0J46910D01*
G01*
X7424150Y6903471D02*
G03*
X7456890Y6824430I111781J0D01*
G01*
X7315717Y6929683D02*
G03*
X7256780Y6954073I-58937J-59012D01*
G01*
X7315754Y6929645D02*
G03*
X7315717Y6929683I-58974J-58974D01*
G01*
X7585129Y6658531D02*
G03*
X7558499Y6722821I-90920J0D01*
G01*
X7522449Y6722951D02*
G03*
X7522409Y6722991I-57091J-57011D01*
G01*
X7546040Y6665940D02*
G03*
X7522449Y6722951I-80683J0D01*
G01*
X7310903Y6189645D02*
G03*
X7310948Y6189690I-53973J53973D01*
G01*
X7310903Y6189645D02*
G03*
X7288546Y6135671I53974J-53974D01*
G01*
X7271496Y6049756D02*
G03*
X7288546Y6090986I-41325J41230D01*
G01*
X7271448Y6049708D02*
G03*
X7271496Y6049756I-41278J41278D01*
G01*
X7337357Y6312142D02*
G03*
X7333260Y6297620I23682J-14522D01*
G01*
X7380683Y6337620D02*
G03*
X7347150Y6323730I0J-47423D01*
G01*
X7310948Y6189690D02*
G03*
X7333260Y6243619I-54018J53929D01*
G01*
X7939016Y6737230D02*
G03*
X7906040Y6657620I79610J-79610D01*
G01*
X8056719Y6748254D02*
G03*
X7986040Y6577620I170634J-170634D01*
G01*
Y6537620D02*
G03*
X8132420Y6598253I0J207013D01*
G01*
X8135262Y6705600D02*
G03*
X8133087Y6700349I5251J-5251D01*
G01*
X7906040Y6023513D02*
G03*
X7953719Y5908405I162788J0D01*
G01*
X7848600Y5910587D02*
G03*
X7906040Y6049259I-138672J138672D01*
G01*
X8908073Y6950561D02*
G03*
X8908050Y6950538I8512J-8559D01*
G01*
X8916585Y6954073D02*
G03*
X8908073Y6950561I0J-12071D01*
G01*
X9061078Y6935098D02*
G03*
X9015268Y6954073I-45810J-45810D01*
G01*
X9204699Y6827399D02*
G03*
X9204769Y6827329I67712J67573D01*
G01*
X9176750Y6894971D02*
G03*
X9204699Y6827399I95661J0D01*
G01*
X9337729Y6658531D02*
G03*
X9312389Y6719709I-86519J0D01*
G01*
X9298103Y6667781D02*
G03*
X9270415Y6725762I-95829J-10161D01*
G01*
X9298640Y6657620D02*
G03*
X9298103Y6667781I-96367J0D01*
G01*
X9691616Y6737230D02*
G03*
X9658640Y6657620I79610J-79610D01*
G01*
X9809319Y6748254D02*
G03*
X9738640Y6577620I170634J-170634D01*
G01*
X9885027Y6598260D02*
G03*
X9887862Y6605115I-6869J6855D01*
G01*
X9885020Y6598253D02*
G03*
X9885027Y6598260I-6862J6862D01*
G01*
X9738640Y6537620D02*
G03*
X9885020Y6598253I0J207013D01*
G01*
X9024096Y6049756D02*
G03*
X9041146Y6090986I-41325J41230D01*
G01*
X9024048Y6049708D02*
G03*
X9024096Y6049756I-41278J41278D01*
G01*
X9063548Y6189690D02*
G03*
X9085860Y6243619I-54018J53929D01*
G01*
X8006080Y3289300D02*
Y3461282D01*
X7922260Y3289300D02*
Y3501194D01*
X7971790Y3620770D02*
X7996555Y3645535D01*
X8056343Y3670300D02*
X8124000D01*
X7680777Y4841875D02*
X7683952Y4838700D01*
X7680713Y4841811D02*
X7680777Y4841875D01*
X7629716Y4841811D02*
X7680713D01*
X7629652Y4841748D02*
X7629716Y4841811D01*
X9171940Y8651240D02*
X9223700D01*
X9378000Y7659752D02*
X9496660D01*
X8098700Y7289800D02*
X8110640Y7301740D01*
X8163560Y7429500D02*
Y7565580D01*
X9337040Y7448926D02*
Y7565580D01*
X9541952Y7640991D02*
X9574983Y7607960D01*
X1057106Y5979160D02*
X3072330D01*
X3251935Y6053555D02*
X3261721Y6063341D01*
X3336116Y6242946D02*
Y6619476D01*
X891529Y6022350D02*
X891621Y6022259D01*
X1057106Y5953760D02*
X6936740D01*
X822960Y6187907D02*
Y6678658D01*
X848360Y6187907D02*
Y7136040D01*
X331760Y7380510D02*
X398312Y7447062D01*
X484174Y7292627D02*
X691772D01*
X758699Y6823621D02*
X765206Y6817114D01*
X765610D01*
X595273Y6863411D02*
X653840D01*
X484158Y6860072D02*
X595273Y6863411D01*
X349736Y6535650D02*
X484158Y6670072D01*
X331760Y4566190D02*
X398398Y4632828D01*
X484174Y4478357D02*
X556530Y4406001D01*
X591820Y3514252D02*
Y4320804D01*
X331760Y3703950D02*
X361164D01*
X484158Y3826943D02*
Y3855802D01*
Y4045802D02*
X493683D01*
X540918Y3998566D02*
X540938Y3998547D01*
X493683Y4045802D02*
X540918Y3998566D01*
X566420Y3503731D02*
Y3937000D01*
X640815Y3324125D02*
X738405Y3226535D01*
X666215Y3334646D02*
X748926Y3251935D01*
X918011Y3152140D02*
X8659530D01*
X928532Y3177540D02*
X3072330D01*
X3251935Y3251935D02*
X3261721Y3261721D01*
X3336116Y3441326D02*
Y3812126D01*
X2955116Y6762576D02*
X2956560Y6764020D01*
X2955116Y6619476D02*
Y6762576D01*
X2827020Y6620572D02*
X2828116Y6619476D01*
X2827020Y6620572D02*
Y6764020D01*
X2701116Y6762576D02*
X2702560Y6764020D01*
X2701116Y6619476D02*
Y6762576D01*
X2697480Y3815762D02*
Y3962400D01*
Y3815762D02*
X2701116Y3812126D01*
X2824480Y3815762D02*
Y3962400D01*
Y3815762D02*
X2828116Y3812126D01*
X2956560Y3813570D02*
Y3962400D01*
X2955116Y3812126D02*
X2956560Y3813570D01*
X144780Y5662380D02*
Y6093460D01*
X332356Y6518866D02*
X349140Y6535650D01*
X332356Y6518270D02*
Y6518866D01*
X349140Y6535650D02*
X349736D01*
X9331960Y5834963D02*
Y5925832D01*
X9256539Y5706212D02*
X9294250Y5743922D01*
X9162455Y5561650D02*
X9253220D01*
X9009591Y3984721D02*
Y5408786D01*
X8956560Y3449170D02*
Y3856692D01*
X8839135Y3226535D02*
X8882165Y3269565D01*
X144780Y4392380D02*
Y4823460D01*
X9298940Y8651240D02*
X9350700D01*
X9425940D02*
X9477700D01*
X8229321Y7668455D02*
X8356748D01*
X8114849Y8168640D02*
X8221980D01*
X6331056Y3911112D02*
X6413500Y3993556D01*
X8081447Y3536649D02*
X8117349D01*
X7680713Y4921821D02*
X7680777Y4921885D01*
X7683500Y4919162D01*
X7629715Y4921821D02*
X7680713D01*
X7629652Y4921758D02*
X7629715Y4921821D01*
X7790180Y3375660D02*
X7800287Y3365553D01*
X7624000Y3416300D02*
X7692066D01*
X6634302Y3462349D02*
X6719951D01*
X6634302Y3502354D02*
X6643944D01*
X6823549Y3576749D02*
X6884080Y3637280D01*
X6525870Y3423920D02*
X6884080D01*
X6524295Y3422344D02*
X6525870Y3423920D01*
X7469295Y3670300D02*
X7624000D01*
X8489879Y3450661D02*
Y3582892D01*
X8803780Y3720300D02*
Y3850500D01*
X9272180Y7399020D02*
Y7827393D01*
X9309292Y7916988D02*
X9394879Y8002575D01*
X9457185Y8028383D02*
X9464040Y8035238D01*
X8036560Y8065580D02*
Y8065772D01*
X8098700Y7399020D02*
Y7569200D01*
X8157008Y7709968D02*
X8224520Y7777480D01*
X8290560Y7936915D02*
Y8065580D01*
X8417560Y7565580D02*
Y7589849D01*
X8290560Y7554777D02*
Y7565580D01*
X8306617Y7538720D02*
X8351520D01*
X8290560Y7554777D02*
X8306617Y7538720D01*
X7328261Y5715000D02*
X7506356D01*
X7241540Y5765800D02*
X7266940Y5740400D01*
X7579360Y5788004D02*
Y5904763D01*
X7626040Y6017458D02*
Y6057620D01*
X9378640Y6038527D02*
Y6057620D01*
X9464040Y7546485D02*
X9480097Y7530428D01*
X9464040Y7546485D02*
Y7565580D01*
X9480097Y7530428D02*
X9516708D01*
X8163560Y8095573D02*
X8179617Y8111630D01*
X8218310D01*
X8163560Y8065580D02*
Y8095573D01*
X8218310Y8111630D02*
X8221980Y8115300D01*
X9464040Y8035238D02*
Y8065580D01*
X7544289Y4595349D02*
X7563310Y4614370D01*
X7688580Y6804660D02*
Y6834420D01*
X7581900Y6804660D02*
Y6831880D01*
X7215418Y6027420D02*
X7229729D01*
X7185658D02*
X7215418D01*
X7262900Y6041160D02*
X7271448Y6049708D01*
X7262883Y6041143D02*
X7262900Y6041160D01*
X7741920Y5880820D02*
Y5910580D01*
X8519668Y5081778D02*
X8600783D01*
X8455129Y4196080D02*
X8703591D01*
X8394700Y4257060D02*
Y4276852D01*
X8389842Y4341385D02*
X8442877D01*
X8354568Y4276852D02*
Y4304823D01*
X8477238Y4327153D02*
X8477252Y4327138D01*
X8511598Y4312920D02*
X8728120D01*
X8526780Y4066262D02*
X8633460D01*
X8420100Y3981262D02*
X8489770Y4050932D01*
X8396555Y4123105D02*
X8396578Y4123082D01*
X8293100Y4226560D02*
X8396555Y4123105D01*
X8274558Y4271324D02*
Y4276852D01*
X7421880Y4404360D02*
X7495795Y4478275D01*
X7438045Y4550065D02*
X7541260Y4653280D01*
X7610553Y4681982D02*
X7629652D01*
X7591826Y4761738D02*
X7629652D01*
X7512022D02*
X7591826D01*
X7524899Y5001768D02*
X7629652D01*
X7421880Y5151120D02*
X7461413Y5111587D01*
X7714742Y5166868D02*
Y5377458D01*
X7528560Y5880820D02*
Y5910580D01*
X7741920Y5874120D02*
Y5880820D01*
X7734300Y5866500D02*
X7741920Y5874120D01*
X7178040Y6347460D02*
X7185658D01*
X7215418D01*
X7185658Y6667500D02*
X7215418D01*
X7579360Y6834420D02*
X7581900Y6831880D01*
X8162847Y6385560D02*
X8165387Y6383020D01*
X8133087Y6385560D02*
X8162847D01*
X9334500Y6804660D02*
Y6834420D01*
X9441180Y6804660D02*
Y6834420D01*
X9494520Y5876072D02*
Y5880820D01*
Y5910580D01*
X9280083Y5909503D02*
X9281160Y5910580D01*
X9133283Y6337620D02*
X9138640D01*
X8928314Y6346967D02*
X8930204Y6347460D01*
X8928289Y6346961D02*
X8928314Y6346967D01*
X9092976Y6316187D02*
X9099786Y6323767D01*
X9092963Y6316173D02*
X9092976Y6316187D01*
X9085860Y6243619D02*
Y6297620D01*
X9062818Y6188960D02*
X9063503Y6189645D01*
X9041146Y6090986D02*
Y6136640D01*
X9015500Y6041160D02*
X9024048Y6049708D01*
X9015483Y6041143D02*
X9015500Y6041160D01*
X8968018Y6027420D02*
X8982329D01*
X9601200Y5820587D02*
Y5850347D01*
X9885687Y6492240D02*
X9915447D01*
X8938258Y6667500D02*
X8968018D01*
X8930204Y6347460D02*
X8938258D01*
X8968018D01*
X9945562Y6708140D02*
X9948102Y6705600D01*
X9972862D01*
X8938258Y6027420D02*
X8968018D01*
X8938258Y5920740D02*
X8968018D01*
X9280083Y5880820D02*
Y5909503D01*
X9387423Y5880820D02*
X9392161Y5876083D01*
X7456890Y6824430D02*
X7558499Y6722821D01*
X7424150Y6903471D02*
Y6978822D01*
X7158985Y6954073D02*
X7256780D01*
X7315754Y6929645D02*
X7522409Y6722991D01*
X7546040Y6657620D02*
Y6665940D01*
X7025640Y6873240D02*
X7102938Y6950538D01*
X7155450D01*
X7424150Y6978822D02*
X7492044D01*
X7573081Y7059859D01*
X7155450Y6950538D02*
X7158985Y6954073D01*
X7288546Y6090986D02*
Y6135671D01*
X7340205Y6316785D02*
X7347150Y6323730D01*
X7333260Y6243619D02*
Y6297620D01*
X7337357Y6312142D02*
X7340205Y6316785D01*
X7380683Y6337620D02*
X7386040D01*
X7939016Y6737231D02*
X8008620Y6806835D01*
X8056719Y6748254D02*
X8115300Y6806835D01*
X8132420Y6598253D02*
X8133087Y6598920D01*
Y6700349D01*
X7906040Y6023513D02*
Y6049259D01*
Y6057620D01*
X8855538Y6950538D02*
X8908050D01*
X8916585Y6954073D02*
X9015268D01*
X9061078Y6935098D02*
X9241017Y6755159D01*
X9204769Y6827329D02*
X9312389Y6719709D01*
X9176750Y6894971D02*
Y6978822D01*
X9241017Y6755159D02*
X9270415Y6725762D01*
X8778240Y6873240D02*
X8855538Y6950538D01*
X9176750Y6978822D02*
X9244644D01*
X9325681Y7059859D01*
X9241017Y6755159D02*
X9241017D01*
X9691616Y6737231D02*
X9761220Y6806835D01*
X9809319Y6748254D02*
X9867900Y6806835D01*
X9887862Y6605115D02*
Y6705600D01*
D12*
X7869538Y6949075D02*
G03*
X7869560Y6949096I-13065J13065D01*
G01*
X7889320Y6907280D02*
G03*
X7872565Y6914211I-16754J-16783D01*
G01*
X7864863Y6917400D02*
G03*
X7872565Y6914211I7703J7709D01*
G01*
X7868955Y6948492D02*
G03*
X7861668Y6930900I17592J-17592D01*
G01*
Y6925108D02*
G03*
X7864860Y6917403I10897J0D01*
G01*
X7889334Y6907266D02*
G03*
X7889320Y6907280I-16769J-16769D01*
G01*
X5746544Y6755336D02*
G03*
X5609069Y6812280I-137474J-137474D01*
G01*
X4964537D02*
G03*
X4944872Y6804152I0J-27852D01*
G01*
X4944842Y6804122D02*
G03*
X4936684Y6784427I19695J-19695D01*
G01*
X4987116Y6627995D02*
G03*
X4986889Y6632348I-41912J0D01*
G01*
D02*
G03*
X4974840Y6657632I-41686J-4353D01*
G01*
X4936684Y6680805D02*
G03*
X4939876Y6673099I10897J0D01*
G01*
D02*
G03*
X4947581Y6669908I7705J7705D01*
G01*
X4969457Y6663015D02*
G03*
X4952816Y6669908I-16641J-16641D01*
G01*
X7835532Y6930900D02*
G03*
X7828245Y6948492I-24879J0D01*
G01*
X7824635Y6914211D02*
G03*
X7832337Y6917400I0J10897D01*
G01*
X7827640Y6949096D02*
G03*
X7827662Y6949075I13086J13044D01*
G01*
X7824635Y6914211D02*
G03*
X7807880Y6907280I0J-23715D01*
G01*
D02*
G03*
X7807866Y6907266I16754J-16783D01*
G01*
X5764988Y6773855D02*
G03*
X5883586Y6724782I118598J118776D01*
G01*
X5764899Y6773944D02*
G03*
X5764988Y6773855I118687J118687D01*
G01*
X5764716Y6774126D02*
G03*
X5609506Y6838416I-155211J-155211D01*
G01*
X4964441Y6838417D02*
G03*
X4926526Y6822769I0J-53757D01*
G01*
D02*
G03*
X4926429Y6822671I37914J-38109D01*
G01*
X4926242Y6822484D02*
G03*
X4910548Y6784595I37890J-37890D01*
G01*
X4899651Y6669908D02*
G03*
X4907356Y6673099I0J10897D01*
G01*
X4894416Y6669908D02*
G03*
X4877775Y6663015I0J-23534D01*
G01*
X4872392Y6657632D02*
G03*
X4860343Y6632348I29636J-29636D01*
G01*
D02*
G03*
X4860116Y6627995I41686J-4353D01*
G01*
X7869560Y6949096D02*
G03*
X7874950Y6962140I-13086J13044D01*
G01*
X7864860Y6917403D02*
G03*
X7864863Y6917400I7706J7706D01*
G01*
X5746802Y6755078D02*
G03*
X5883094Y6698645I136606J137122D01*
G01*
D02*
G03*
X5883408Y6698645I314J193555D01*
G01*
X4944872Y6804152D02*
G03*
X4944842Y6804122I19665J-19724D01*
G01*
X5746544Y6755336D02*
G03*
X5746802Y6755078I136864J136864D01*
G01*
X7832340Y6917403D02*
G03*
X7835532Y6925108I-7705J7705D01*
G01*
X7832337Y6917400D02*
G03*
X7832340Y6917403I-7703J7709D01*
G01*
X7822250Y6962140D02*
G03*
X7827640Y6949096I18477J0D01*
G01*
X4907356Y6673099D02*
G03*
X4910548Y6680805I-7706J7706D01*
G01*
X7672972Y6618323D02*
G03*
X7669527Y6626670I-11834J0D01*
G01*
X7666040Y6635058D02*
G03*
X7669506Y6626691I11833J0D01*
G01*
X7666331Y6592894D02*
G03*
X7672972Y6608927I-16032J16032D01*
G01*
X7665102Y6591665D02*
G03*
X7665080Y6591644I13065J-13065D01*
G01*
D02*
G03*
X7659690Y6578600I13086J-13044D01*
G01*
X6580338Y6883480D02*
G03*
X6580324Y6883494I-16783J-16754D01*
G01*
X6587270Y6866725D02*
G03*
X6590458Y6859023I10897J0D01*
G01*
X6587270Y6866725D02*
G03*
X6580338Y6883480I-23715J0D01*
G01*
X6604955Y6855828D02*
G03*
X6623955Y6863698I0J26870D01*
G01*
X6590462Y6859020D02*
G03*
X6598167Y6855828I7705J7705D01*
G01*
X7712390Y6578600D02*
G03*
X7707000Y6591644I-18477J0D01*
G01*
D02*
G03*
X7706978Y6591665I-13086J-13044D01*
G01*
X7702574Y6626691D02*
G03*
X7706040Y6635058I-8367J8367D01*
G01*
X7702574Y6626691D02*
G03*
X7699108Y6618324I8367J-8367D01*
G01*
Y6608927D02*
G03*
X7705749Y6592894I22673J0D01*
G01*
X6623955Y6821822D02*
G03*
X6604955Y6829692I-19000J-19000D01*
G01*
X6598167D02*
G03*
X6590462Y6826500I0J-10897D01*
G01*
X6580338Y6802040D02*
G03*
X6587270Y6818795I-16783J16754D01*
G01*
X6580324Y6802026D02*
G03*
X6580338Y6802040I-16769J16769D01*
G01*
X7669527Y6626670D02*
G03*
X7669506Y6626691I-8389J-8347D01*
G01*
X6637020Y6869110D02*
G03*
X6623976Y6863720I0J-18477D01*
G01*
D02*
G03*
X6623955Y6863698I13044J-13086D01*
G01*
X6590458Y6859023D02*
G03*
X6590462Y6859020I7709J7703D01*
G01*
X6623976Y6821800D02*
G03*
X6637020Y6816410I13044J13086D01*
G01*
X6590462Y6826500D02*
G03*
X6590458Y6826497I7706J-7706D01*
G01*
X6623955Y6821822D02*
G03*
X6623976Y6821800I13065J13065D01*
G01*
X6590458Y6826497D02*
G03*
X6587270Y6818795I7709J-7703D01*
G01*
X9425572Y6618323D02*
G03*
X9422127Y6626670I-11834J0D01*
G01*
X9418640Y6635058D02*
G03*
X9422106Y6626691I11833J0D01*
G01*
X9418931Y6592894D02*
G03*
X9425572Y6608927I-16032J16032D01*
G01*
X9417702Y6591665D02*
G03*
X9417680Y6591644I13065J-13065D01*
G01*
D02*
G03*
X9412290Y6578600I13086J-13044D01*
G01*
X5897880Y4096700D02*
G03*
X5884836Y4091310I0J-18477D01*
G01*
D02*
G03*
X5884815Y4091288I13044J-13086D01*
G01*
X5800336Y4107484D02*
G03*
X5800332Y4107488I-11157J-11149D01*
G01*
X5804952Y4096335D02*
G03*
X5800336Y4107484I-15772J0D01*
G01*
X5867553Y4083418D02*
G03*
X5883586Y4090059I0J22673D01*
G01*
X5804952Y4094315D02*
G03*
X5808143Y4086610I10897J0D01*
G01*
X5808146Y4086607D02*
G03*
X5815849Y4083419I7703J7709D01*
G01*
X9459600Y6591644D02*
G03*
X9459578Y6591665I-13086J-13044D01*
G01*
X9464990Y6578600D02*
G03*
X9459600Y6591644I-18477J0D01*
G01*
X9455174Y6626691D02*
G03*
X9458640Y6635058I-8367J8367D01*
G01*
X9455174Y6626691D02*
G03*
X9451708Y6618324I8367J-8367D01*
G01*
Y6608927D02*
G03*
X9458349Y6592894I22673J0D01*
G01*
X5883586Y4050641D02*
G03*
X5867553Y4057282I-16032J-16032D01*
G01*
X5884815Y4049412D02*
G03*
X5884836Y4049390I13065J13065D01*
G01*
D02*
G03*
X5897880Y4044000I13044J13086D01*
G01*
X5808143Y4054090D02*
G03*
X5804952Y4046385I7705J-7705D01*
G01*
X5800331Y4033209D02*
G03*
X5804952Y4044364I-11155J11155D01*
G01*
X9422127Y6626670D02*
G03*
X9422106Y6626691I-8389J-8347D01*
G01*
X5808143Y4086610D02*
G03*
X5808146Y4086607I7706J7706D01*
G01*
X5815849Y4057282D02*
G03*
X5808146Y4054093I0J-10897D01*
G01*
D02*
G03*
X5808143Y4054090I7703J-7709D01*
G01*
X9588132Y6930900D02*
G03*
X9580845Y6948492I-24879J0D01*
G01*
X9577235Y6914211D02*
G03*
X9584937Y6917400I0J10897D01*
G01*
X9580240Y6949096D02*
G03*
X9580262Y6949075I13086J13044D01*
G01*
X9577235Y6914211D02*
G03*
X9560480Y6907280I0J-23715D01*
G01*
D02*
G03*
X9560466Y6907266I16754J-16783D01*
G01*
X4979945Y4011397D02*
G03*
X4931150Y3991237I0J-69134D01*
G01*
X5444770Y3978995D02*
G03*
X5366485Y4011397I-78285J-78370D01*
G01*
X4931150Y3991237D02*
G03*
X4931060Y3991148I48795J-48975D01*
G01*
X5444847Y3978918D02*
G03*
X5486177Y3961818I41330J41399D01*
G01*
X5873435D02*
G03*
X5892435Y3969688I0J26870D01*
G01*
X4930860Y3990947D02*
G03*
X4910548Y3941910I49038J-49038D01*
G01*
X4899651Y3862558D02*
G03*
X4903097Y3863117I0J10897D01*
G01*
X4894416Y3862558D02*
G03*
X4877775Y3855665I0J-23534D01*
G01*
X4872392Y3850282D02*
G03*
X4860116Y3820645I29636J-29636D01*
G01*
X9622138Y6949075D02*
G03*
X9622160Y6949096I-13065J13065D01*
G01*
X9641920Y6907280D02*
G03*
X9625165Y6914211I-16754J-16783D01*
G01*
X9617463Y6917400D02*
G03*
X9625165Y6914211I7703J7709D01*
G01*
X9621555Y6948492D02*
G03*
X9614268Y6930900I17592J-17592D01*
G01*
Y6925108D02*
G03*
X9617460Y6917403I10897J0D01*
G01*
X5426439Y3960363D02*
G03*
X5366306Y3985260I-60133J-60169D01*
G01*
X4980131D02*
G03*
X4949410Y3972535I0J-43446D01*
G01*
D02*
G03*
X4936684Y3941812I30723J-30723D01*
G01*
X5892435Y3927812D02*
G03*
X5873435Y3935682I-19000J-19000D01*
G01*
X4939876Y3865749D02*
G03*
X4947581Y3862558I7705J7705D01*
G01*
X4936684Y3873455D02*
G03*
X4939876Y3865749I10897J0D01*
G01*
X4987116Y3820645D02*
G03*
X4974840Y3850282I-41912J0D01*
G01*
X4969457Y3855665D02*
G03*
X4952816Y3862558I-16641J-16641D01*
G01*
X9584940Y6917403D02*
G03*
X9588132Y6925108I-7705J7705D01*
G01*
X9584937Y6917400D02*
G03*
X9584940Y6917403I-7703J7709D01*
G01*
X9574850Y6962140D02*
G03*
X9580240Y6949096I18477J0D01*
G01*
X5905500Y3975100D02*
G03*
X5892456Y3969710I0J-18477D01*
G01*
D02*
G03*
X5892435Y3969688I13044J-13086D01*
G01*
X5444812Y3978952D02*
G03*
X5444770Y3978995I-78328J-78328D01*
G01*
X5444812Y3978952D02*
G03*
X5444847Y3978918I41365J41365D01*
G01*
X4909988Y3870009D02*
G03*
X4910548Y3873455I-10338J3446D01*
G01*
X4907356Y3865749D02*
G03*
X4909988Y3870009I-7706J7706D01*
G01*
X4903097Y3863117D02*
G03*
X4907356Y3865749I-3446J10338D01*
G01*
X9622160Y6949096D02*
G03*
X9627550Y6962140I-13086J13044D01*
G01*
X9617460Y6917403D02*
G03*
X9617463Y6917400I7706J7706D01*
G01*
X5426621Y3960181D02*
G03*
X5485792Y3935682I59378J59704D01*
G01*
D02*
G03*
X5485998Y3935681I207J84204D01*
G01*
X5426457Y3960345D02*
G03*
X5426439Y3960363I-60151J-60151D01*
G01*
X5426457Y3960344D02*
G03*
X5426621Y3960181I59541J59541D01*
G01*
X5892435Y3927812D02*
G03*
X5892456Y3927790I13065J13065D01*
G01*
D02*
G03*
X5905500Y3922400I13044J13086D01*
G01*
X4491392Y6657632D02*
G03*
X4479116Y6627995I29636J-29636D01*
G01*
X4513416Y6669908D02*
G03*
X4496775Y6663015I0J-23534D01*
G01*
X4518651Y6669908D02*
G03*
X4526356Y6673099I0J10897D01*
G01*
X4573247Y6893669D02*
G03*
X4529548Y6788094I105684J-105576D01*
G01*
X5830185Y6888997D02*
G03*
X5910263Y6855828I80077J80077D01*
G01*
X6447270D02*
G03*
X6454972Y6859017I0J10897D01*
G01*
X6463226Y6881608D02*
G03*
X6458167Y6869380I12246J-12228D01*
G01*
X5830166Y6889017D02*
G03*
X5713174Y6937477I-116992J-116992D01*
G01*
X6463235Y6881617D02*
G03*
X6463226Y6881608I12237J-12237D01*
G01*
X4581191Y6901613D02*
G03*
X4581136Y6901559I86659J-86768D01*
G01*
X4667850Y6937477D02*
G03*
X4581191Y6901613I0J-122632D01*
G01*
X4588457Y6663015D02*
G03*
X4571816Y6669908I-16641J-16641D01*
G01*
X4558876Y6673099D02*
G03*
X4566581Y6669908I7705J7705D01*
G01*
X4606116Y6627995D02*
G03*
X4593840Y6657632I-41912J0D01*
G01*
X4555684Y6680805D02*
G03*
X4558876Y6673099I10897J0D01*
G01*
X4599383Y6882843D02*
G03*
X4555684Y6777268I105684J-105576D01*
G01*
X6458167Y6816140D02*
G03*
X6463226Y6803912I17306J0D01*
G01*
X6458167Y6818795D02*
G03*
X6454975Y6826500I-10897J0D01*
G01*
X6463226Y6803912D02*
G03*
X6463235Y6803903I12246J12228D01*
G01*
X5811793Y6870427D02*
G03*
X5712985Y6911340I-98808J-98858D01*
G01*
X6454972Y6826503D02*
G03*
X6447270Y6829692I-7703J-7709D01*
G01*
X5811872Y6870348D02*
G03*
X5910101Y6829692I98229J98337D01*
G01*
X4668104Y6911340D02*
G03*
X4599438Y6882898I0J-97109D01*
G01*
X6454975Y6859020D02*
G03*
X6458167Y6866725I-7705J7705D01*
G01*
X6454972Y6859017D02*
G03*
X6454975Y6859020I-7703J7709D01*
G01*
X4573301Y6893724D02*
G03*
X4573247Y6893669I105630J-105630D01*
G01*
X4526356Y6673099D02*
G03*
X4529548Y6680805I-7706J7706D01*
G01*
X4599438Y6882898D02*
G03*
X4599383Y6882843I105630J-105630D01*
G01*
X6454975Y6826500D02*
G03*
X6454972Y6826503I-7706J-7706D01*
G01*
X5811818Y6870402D02*
G03*
X5811793Y6870427I-98833J-98833D01*
G01*
X5811818Y6870402D02*
G03*
X5811872Y6870348I98283J98283D01*
G01*
X5675850Y4046385D02*
G03*
X5672659Y4054090I-10897J0D01*
G01*
X5672656Y4054093D02*
G03*
X5664953Y4057281I-7703J-7709D01*
G01*
X5680466Y4033216D02*
G03*
X5680470Y4033212I11157J11149D01*
G01*
X5675850Y4044365D02*
G03*
X5680466Y4033216I15772J0D01*
G01*
X4611092Y4057281D02*
G03*
X4571913Y4041053I0J-55407D01*
G01*
X4571868Y4041008D02*
G03*
X4555684Y4001873I39225J-39135D01*
G01*
X4606116Y3818268D02*
G03*
X4592159Y3851963I-47652J0D01*
G01*
D02*
G03*
X4566581Y3862558I-25578J-25578D01*
G01*
X4558876Y3865749D02*
G03*
X4566581Y3862558I7706J7706D01*
G01*
X4555684Y3873455D02*
G03*
X4558876Y3865749I10897J0D01*
G01*
X5680471Y4107491D02*
G03*
X5675850Y4096336I11155J-11155D01*
G01*
X5664953Y4083418D02*
G03*
X5672656Y4086607I0J10897D01*
G01*
X4610897Y4083418D02*
G03*
X4553679Y4059782I0J-81074D01*
G01*
D02*
G03*
X4553569Y4059672I57218J-57438D01*
G01*
X4553363Y4059466D02*
G03*
X4553226Y4059328I57496J-57496D01*
G01*
X4493073Y3851963D02*
G03*
X4479116Y3818268I33695J-33695D01*
G01*
X4518651Y3862558D02*
G03*
X4493073Y3851963I0J-36172D01*
G01*
X4518651Y3862558D02*
G03*
X4526356Y3865749I0J10897D01*
G01*
X5672659Y4054090D02*
G03*
X5672656Y4054093I-7706J-7706D01*
G01*
X4571913Y4041053D02*
G03*
X4571868Y4041008I39180J-39180D01*
G01*
X5672659Y4086610D02*
G03*
X5675850Y4094315I-7705J7705D01*
G01*
X5672656Y4086607D02*
G03*
X5672659Y4086610I-7703J7709D01*
G01*
X4553226Y4059328D02*
G03*
X4529548Y4002173I57633J-57358D01*
G01*
D02*
G03*
X4529547Y4001970I81311J-203D01*
G01*
X4526356Y3865749D02*
G03*
X4529548Y3873455I-7705J7705D01*
G01*
X7832340Y6787227D02*
G03*
X7824635Y6790418I-7705J-7705D01*
G01*
X7802555Y6797365D02*
G03*
X7802578Y6797342I16770J16770D01*
G01*
X7835532Y6779521D02*
G03*
X7832340Y6787227I-10897J0D01*
G01*
X7802578Y6797342D02*
G03*
X7819325Y6790418I16747J16792D01*
G01*
X7800535Y6720971D02*
G03*
X7800525Y6720961I18260J-18260D01*
G01*
X7818918Y6739354D02*
G03*
X7835532Y6779521I-40249J40167D01*
G01*
X7818877Y6739313D02*
G03*
X7818918Y6739354I-40208J40208D01*
G01*
X7800525Y6720961D02*
G03*
X7792971Y6702712I18270J-18249D01*
G01*
X7789506Y6688549D02*
G03*
X7792971Y6696917I-8367J8367D01*
G01*
X7789506Y6688549D02*
G03*
X7786040Y6680182I8367J-8367D01*
G01*
X7877875Y6790418D02*
G03*
X7894622Y6797342I0J23716D01*
G01*
D02*
G03*
X7894645Y6797365I-16747J16792D01*
G01*
X7872565Y6790418D02*
G03*
X7864860Y6787227I0J-10897D01*
G01*
D02*
G03*
X7861668Y6779521I7706J-7706D01*
G01*
X7840388Y6723862D02*
G03*
X7861668Y6775237I-51375J51375D01*
G01*
X7822844Y6706318D02*
G03*
X7822825Y6706299I9019J-9019D01*
G01*
D02*
G03*
X7819108Y6697299I9038J-9000D01*
G01*
Y6696917D02*
G03*
X7822574Y6688550I11833J0D01*
G01*
X7826040Y6680182D02*
G03*
X7822574Y6688550I-11834J0D01*
G01*
X9578640Y6680182D02*
G03*
X9575174Y6688550I-11834J0D01*
G01*
X9571708Y6696917D02*
G03*
X9575174Y6688550I11833J0D01*
G01*
X9575425Y6706299D02*
G03*
X9571708Y6697299I9038J-9000D01*
G01*
X9575444Y6706318D02*
G03*
X9575425Y6706299I9019J-9019D01*
G01*
X9592988Y6723862D02*
G03*
X9614268Y6775237I-51375J51375D01*
G01*
X9617460Y6787227D02*
G03*
X9614268Y6779521I7706J-7706D01*
G01*
X9625165Y6790418D02*
G03*
X9617460Y6787227I0J-10897D01*
G01*
X9647222Y6797342D02*
G03*
X9647245Y6797365I-16747J16792D01*
G01*
X9630475Y6790418D02*
G03*
X9647222Y6797342I0J23716D01*
G01*
X9542106Y6688549D02*
G03*
X9538640Y6680182I8367J-8367D01*
G01*
X9542106Y6688549D02*
G03*
X9545571Y6696917I-8367J8367D01*
G01*
X9553125Y6720961D02*
G03*
X9545571Y6702712I18270J-18249D01*
G01*
X9553135Y6720971D02*
G03*
X9553125Y6720961I18260J-18260D01*
G01*
X9571518Y6739354D02*
G03*
X9588132Y6779521I-40249J40167D01*
G01*
X9571477Y6739313D02*
G03*
X9571518Y6739354I-40208J40208D01*
G01*
X9584940Y6787227D02*
G03*
X9577235Y6790418I-7705J-7705D01*
G01*
X9555178Y6797342D02*
G03*
X9571925Y6790418I16747J16792D01*
G01*
X9555155Y6797365D02*
G03*
X9555178Y6797342I16770J16770D01*
G01*
X9588132Y6779521D02*
G03*
X9584940Y6787227I-10897J0D01*
G01*
X6291580Y6829692D02*
X6385560D01*
X6266180Y6804292D02*
X6291580Y6829692D01*
X6228080Y6804292D02*
X6266180D01*
X6202680Y6829692D02*
X6228080Y6804292D01*
X6164580Y6829692D02*
X6202680D01*
X6139180Y6804292D02*
X6164580Y6829692D01*
X6101080Y6804292D02*
X6139180D01*
X6075680Y6829692D02*
X6101080Y6804292D01*
X6037580Y6829692D02*
X6075680D01*
X6012180Y6804292D02*
X6037580Y6829692D01*
X5974080Y6804292D02*
X6012180D01*
X5948680Y6829692D02*
X5974080Y6804292D01*
X5910580Y6829692D02*
X5948680D01*
X6385560D02*
X6447270D01*
X5910101D02*
X5910580D01*
X7868955Y6948492D02*
X7869538Y6949075D01*
X7861668Y6925108D02*
Y6930900D01*
X7889334Y6907266D02*
X7901940Y6894660D01*
X7889320Y6907280D02*
X7889334Y6907266D01*
X4964537Y6812280D02*
X5609069D01*
X4987116Y6619476D02*
Y6627995D01*
X4936684Y6680805D02*
Y6784427D01*
X4969457Y6663015D02*
X4974840Y6657632D01*
X4947581Y6669908D02*
X4952816D01*
X7835532Y6925108D02*
Y6930900D01*
X7827662Y6949075D02*
X7828245Y6948492D01*
X7807866Y6907266D02*
X7807880Y6907280D01*
X7795260Y6894660D02*
X7807866Y6907266D01*
X5764716Y6774126D02*
X5764899Y6773944D01*
X5883586Y6724782D02*
X6976765D01*
X4964441Y6838417D02*
X5609506D01*
X4926242Y6822485D02*
X4926429Y6822671D01*
X4910548Y6680805D02*
Y6784595D01*
X4894416Y6669908D02*
X4899651D01*
X4872392Y6657632D02*
X4877775Y6663015D01*
X4860116Y6619476D02*
Y6627995D01*
X5883408Y6698645D02*
X6976765D01*
X6990047Y6685364D01*
X6997700D01*
X6990047Y6738063D02*
X6997700D01*
X6976765Y6724782D02*
X6990047Y6738063D01*
X7672972Y6608927D02*
Y6618323D01*
X7665102Y6591665D02*
X7666331Y6592894D01*
X7665080Y6591644D02*
X7665102Y6591665D01*
X7666040Y6635058D02*
Y6657620D01*
X6580324Y6883494D02*
X6580338Y6883480D01*
X6567718Y6896100D02*
X6580324Y6883494D01*
X6598167Y6855828D02*
X6604955D01*
X7706978Y6591665D02*
X7707000Y6591644D01*
X7705749Y6592894D02*
X7706978Y6591665D01*
X7699108Y6608927D02*
Y6618324D01*
X6598167Y6829692D02*
X6604955D01*
X6580324Y6802026D02*
X6580338Y6802040D01*
X6567718Y6789420D02*
X6580324Y6802026D01*
X7706040Y6635058D02*
Y6657620D01*
X9425572Y6608927D02*
Y6618323D01*
X9417702Y6591665D02*
X9418931Y6592894D01*
X9417680Y6591644D02*
X9417702Y6591665D01*
X9418640Y6635058D02*
Y6657620D01*
X5800332Y4107488D02*
X5800336Y4107484D01*
X5785400Y4122420D02*
X5800332Y4107488D01*
X5804952Y4094315D02*
Y4096335D01*
X5884815Y4091288D02*
X5884836Y4091310D01*
X5883586Y4090059D02*
X5884815Y4091288D01*
X5815849Y4083418D02*
X5867553D01*
X9459578Y6591665D02*
X9459600Y6591644D01*
X9458349Y6592894D02*
X9459578Y6591665D01*
X9451708Y6608927D02*
Y6618324D01*
X5815849Y4057282D02*
X5867553D01*
X5883586Y4050641D02*
X5884815Y4049412D01*
X5884836Y4049390D01*
X5804952Y4044364D02*
Y4046385D01*
X5785402Y4018280D02*
X5800331Y4033209D01*
X9458640Y6635058D02*
Y6657620D01*
X9588132Y6925108D02*
Y6930900D01*
X9580262Y6949075D02*
X9580845Y6948492D01*
X9560466Y6907266D02*
X9560480Y6907280D01*
X9547860Y6894660D02*
X9560466Y6907266D01*
X4979945Y4011397D02*
X5366485D01*
X4930860Y3990947D02*
X4931060Y3991148D01*
X5486177Y3961818D02*
X5873435D01*
X4910548Y3873455D02*
Y3941910D01*
X4894416Y3862558D02*
X4899651D01*
X4899651D01*
X4872392Y3850282D02*
X4877775Y3855665D01*
X4860116Y3812126D02*
Y3820645D01*
X9641920Y6907280D02*
X9654540Y6894660D01*
X9621555Y6948492D02*
X9622138Y6949075D01*
X9614268Y6925108D02*
Y6930900D01*
X5485998Y3935682D02*
X5873435D01*
X4980131Y3985260D02*
X5366306D01*
X4947581Y3862558D02*
X4952816D01*
X4936684Y3873455D02*
Y3941812D01*
X4987116Y3812126D02*
Y3820645D01*
X4969457Y3855665D02*
X4974840Y3850282D01*
X4479116Y6619476D02*
Y6627995D01*
X4491392Y6657632D02*
X4496775Y6663015D01*
X4513416Y6669908D02*
X4518651D01*
X4529548Y6680805D02*
Y6788094D01*
X4667850Y6937477D02*
X5713174D01*
X5910263Y6855828D02*
X6447270D01*
X6458167Y6866725D02*
Y6869380D01*
X5830166Y6889017D02*
X5830185Y6888997D01*
X6463226Y6881608D02*
X6463235Y6881617D01*
X6477718Y6896100D01*
X4573301Y6893724D02*
X4581136Y6901558D01*
X4566581Y6669908D02*
X4571816D01*
X4606116Y6619476D02*
Y6627995D01*
X4588457Y6663015D02*
X4593840Y6657632D01*
X4555684Y6680805D02*
Y6777268D01*
X6458167Y6816140D02*
Y6818795D01*
X6463235Y6803903D02*
X6477718Y6789420D01*
X6463226Y6803912D02*
X6463235Y6803903D01*
X4668104Y6911340D02*
X5712985D01*
X6477350Y6896468D02*
X6477718Y6896100D01*
X5675850Y4044365D02*
Y4046385D01*
X4611092Y4057281D02*
X5664953D01*
X5680470Y4033212D02*
X5695402Y4018280D01*
X5680466Y4033216D02*
X5680470Y4033212D01*
X4555684Y3873455D02*
Y4001873D01*
X4606116Y3812126D02*
Y3818268D01*
X5680471Y4107491D02*
X5695400Y4122420D01*
X5675850Y4094315D02*
Y4096336D01*
X4610897Y4083418D02*
X5664953D01*
X4553363Y4059466D02*
X4553569Y4059672D01*
X4529548Y3873455D02*
Y4001970D01*
X4479116Y3812126D02*
Y3818268D01*
X7819325Y6790418D02*
X7824635D01*
X7795260Y6804660D02*
X7802555Y6797365D01*
X7802578Y6797342D01*
X7800535Y6720971D02*
X7818877Y6739314D01*
X7800525Y6720961D02*
X7800535Y6720971D01*
X7792971Y6696917D02*
Y6702712D01*
X7786040Y6668902D02*
Y6680182D01*
X7894622Y6797342D02*
X7894645Y6797365D01*
X7901940Y6804660D01*
X7872565Y6790418D02*
X7877875D01*
X7861668Y6775237D02*
Y6779521D01*
X7822825Y6706299D02*
X7822844Y6706318D01*
X7840388Y6723862D01*
X7819108Y6696917D02*
Y6697299D01*
X7826040Y6658075D02*
Y6680182D01*
X9578640Y6658075D02*
Y6680182D01*
X9571708Y6696917D02*
Y6697299D01*
X9575444Y6706318D02*
X9592988Y6723862D01*
X9575425Y6706299D02*
X9575444Y6706318D01*
X9614268Y6775237D02*
Y6779521D01*
X9625165Y6790418D02*
X9630475D01*
X9647245Y6797365D02*
X9654540Y6804660D01*
X9647222Y6797342D02*
X9647245Y6797365D01*
X9538640Y6668902D02*
Y6680182D01*
X9545571Y6696917D02*
Y6702712D01*
X9553135Y6720971D02*
X9571477Y6739314D01*
X9553125Y6720961D02*
X9553135Y6720971D01*
X9571925Y6790418D02*
X9577235D01*
X9555155Y6797365D02*
X9555178Y6797342D01*
X9547860Y6804660D02*
X9555155Y6797365D01*
D13*
X10178681Y3848100D02*
G03*
X10346249Y3917509I0J236977D01*
G01*
D02*
G03*
X10415658Y4085077I-167568J167568D01*
G01*
Y5610860D01*
X10049674Y3848100D02*
X10178681D01*
D14*
X9425940Y3189804D02*
Y3231598D01*
D15*
X8242700Y4064311D02*
G03*
X8207349Y4149751I-120925J0D01*
G01*
X8210371Y3820851D02*
G03*
X8242700Y3898900I-78049J78049D01*
G01*
X8154670Y4276852D02*
G03*
X8207282Y4149818I179671J0D01*
G01*
X8207349Y4149751D02*
G03*
X8207282Y4149818I-85574J-85440D01*
G01*
X7089280Y6809600D02*
G03*
X7075795Y6804015I0J-19071D01*
G01*
X7108512Y6660497D02*
G03*
X7125418Y6667500I0J23910D01*
G01*
X9619707Y8181526D02*
G03*
X9591040Y8112318I69209J-69209D01*
G01*
X9767201Y8261325D02*
G03*
X9651637Y8213457I0J-163432D01*
G01*
X6269588Y4044548D02*
G03*
X6235700Y3962650I82018J-81897D01*
G01*
X6351606Y4078556D02*
G03*
X6269648Y4044608I0J-115905D01*
G01*
D02*
G03*
X6269588Y4044548I81958J-81958D01*
G01*
X8373321Y5115368D02*
G03*
X8394699Y5106548I21379J21500D01*
G01*
X8369793Y5119579D02*
G03*
X8373200Y5115489I24907J17290D01*
G01*
X8361699Y5130058D02*
G03*
X8369793Y5119578I44850J26277D01*
G01*
X8354568Y5156334D02*
G03*
X8361699Y5130058I51981J0D01*
G01*
X8434578Y5106548D02*
G03*
X8446242Y5108882I0J30320D01*
G01*
X8373200Y5115489D02*
G03*
X8373321Y5115368I21500J21379D01*
G01*
X8490733Y5123180D02*
G03*
X8488132Y5123120I0J-56785D01*
G01*
D02*
G03*
X8462460Y5115641I2601J-56725D01*
G01*
X8652573Y5117102D02*
G03*
X8708116Y5095240I55543J59629D01*
G01*
X8652573Y5117101D02*
G03*
X8626095Y5123180I-26477J-54626D01*
G01*
X8801100Y5082540D02*
G03*
X8770439Y5095240I-30661J-30661D01*
G01*
X8340026Y5360094D02*
G03*
X8339984Y5360053I58100J-58100D01*
G01*
D02*
G03*
X8315960Y5301994I58142J-58059D01*
G01*
Y5295260D02*
G03*
X8335224Y5248696I65908J0D01*
G01*
D02*
G03*
X8335264Y5248656I46644J46564D01*
G01*
X8335304Y5248616D02*
G03*
X8335264Y5248656I-46644J-46564D01*
G01*
X8354568Y5202052D02*
G03*
X8335304Y5248616I-65908J0D01*
G01*
X8812718Y5054492D02*
G03*
X8801100Y5082540I-39666J0D01*
G01*
X8593415Y4918856D02*
G03*
X8583051Y4921758I-10465J-17418D01*
G01*
X8593415Y4918856D02*
G03*
X8619892Y4912827I22265J36623D01*
G01*
X8738776Y4955258D02*
G03*
X8724900Y4921758I33500J-33500D01*
G01*
X8710060Y4920495D02*
G03*
X8710059Y4920495I1722J-20246D01*
G01*
X8242700Y3586480D02*
G03*
X8268609Y3523932I88457J0D01*
G01*
X7482675Y4961890D02*
G03*
X7424420Y4937760I0J-82385D01*
G01*
X7620884Y4521962D02*
G03*
X7551299Y4493139I0J-98408D01*
G01*
X7287260Y5153660D02*
G03*
X7293392Y5151120I6132J6132D01*
G01*
Y4511040D02*
G03*
X7287260Y4508500I0J-8672D01*
G01*
X7551299Y4493139D02*
G03*
X7520892Y4434209I77084J-77084D01*
G01*
X7519430Y4419704D02*
G03*
X7520892Y4434209I-102737J17676D01*
G01*
X8092118Y3751580D02*
G03*
X8175736Y3786216I0J118254D01*
G01*
X8039629Y3751580D02*
G03*
X7934661Y3708101I0J-148448D01*
G01*
X7829692Y3664621D02*
G03*
X7934661Y3708101I0J148448D01*
G01*
X7284720Y4406900D02*
G03*
X7290852Y4404360I6132J6132D01*
G01*
X8704805Y3828833D02*
G03*
X8738567Y3894725I-85307J85307D01*
G01*
X9711164Y6941891D02*
G03*
X9679750Y6954899I-31414J-31428D01*
G01*
X9711171Y6941884D02*
G03*
X9711164Y6941891I-31421J-31421D01*
G01*
X9813384Y6129515D02*
G03*
X9805505Y6138105I-103323J-86855D01*
G01*
X9505446Y6937695D02*
G03*
X9487620Y6894660I43035J-43035D01*
G01*
X9258640Y6642831D02*
G03*
X9333035Y6463225I254000J0D01*
G01*
X8826500Y6029960D02*
G03*
X8832632Y6027420I6132J6132D01*
G01*
X9155266Y3920655D02*
G03*
X9251573Y3880763I96307J96309D01*
G01*
X9155204Y3920716D02*
G03*
X9155265Y3920655I82446J82324D01*
G01*
X9121140Y4003040D02*
G03*
X9155204Y3920716I116510J0D01*
G01*
X7506040Y6642831D02*
G03*
X7580435Y6463225I254000J0D01*
G01*
X8059651Y6119609D02*
G03*
X8044180Y6156960I-52823J0D01*
G01*
D02*
G03*
X7994302Y6177620I-49878J-49878D01*
G01*
X8059651Y6020548D02*
G03*
X8077200Y5991860I68313J22076D01*
G01*
X7734325Y6377620D02*
G03*
X7686040Y6357620I0J-68285D01*
G01*
D02*
G03*
X7734324Y6337620I48284J48284D01*
G01*
X8237220Y5516880D02*
G03*
X8234680Y5510748I6132J-6132D01*
G01*
X7995920Y5506720D02*
G03*
X7994650Y5503653I3067J-3067D01*
G01*
X7823200Y5466080D02*
G03*
X7826676Y5464640I3476J3476D01*
G01*
X7287260Y4833620D02*
G03*
X7293392Y4831080I6132J6132D01*
G01*
X7287260Y4620260D02*
G03*
X7293392Y4617720I6132J6132D01*
G01*
X7284720Y4300220D02*
G03*
X7290852Y4297680I6132J6132D01*
G01*
X8234680Y5374640D02*
G03*
X8237220Y5380772I-6132J6132D01*
G01*
X7629652Y4721860D02*
G03*
X7457083Y4650383I0J-244058D01*
G01*
X7452530Y3574290D02*
G03*
X7526525Y3543640I73996J73996D01*
G01*
X9025096Y3478744D02*
G03*
X9025112Y3478728I61211J61179D01*
G01*
X8999765Y3539923D02*
G03*
X9025096Y3478744I86542J0D01*
G01*
X10140420Y4910617D02*
G03*
X10043160Y4950869I-97260J-97375D01*
G01*
X10140478Y4910559D02*
G03*
X10140420Y4910617I-97318J-97318D01*
G01*
X10141943Y4909094D02*
G03*
X10226040Y4874260I84097J84097D01*
G01*
X10140449Y4082548D02*
G03*
X10140469Y4082528I93836J93836D01*
G01*
D02*
G03*
X10234285Y4043680I93816J93857D01*
G01*
X10140449Y4082548D02*
G03*
X10039792Y4124242I-100657J-100657D01*
G01*
X9047285Y3853142D02*
G03*
X9013683Y3839224I0J-47521D01*
G01*
D02*
G03*
X8999765Y3805622I33602J-33602D01*
G01*
X9224530Y3824453D02*
G03*
X9155268Y3853142I-69263J-69263D01*
G01*
X9743211Y6265628D02*
G03*
X9708210Y6257620I0J-80499D01*
G01*
X9627849Y6183609D02*
G03*
X9627870Y6183630I-42124J42166D01*
G01*
X9585725Y6166173D02*
G03*
X9627849Y6183609I0J59602D01*
G01*
X9331960Y6166173D02*
G03*
X9276230Y6143089I0J-78815D01*
G01*
X9232290Y6099150D02*
G03*
X9218640Y6066194I32955J-32955D01*
G01*
X7981588Y6257620D02*
G03*
X7976257Y6257460I0J-88868D01*
G01*
D02*
G03*
X7918748Y6231591I5331J-88708D01*
G01*
X7828067Y6162040D02*
G03*
X7864138Y6176981I0J51013D01*
G01*
X7589859Y6162040D02*
G03*
X7509190Y6128649I0J-114139D01*
G01*
X7484602Y6104061D02*
G03*
X7484540Y6103999I21438J-21441D01*
G01*
D02*
G03*
X7482795Y6102088I21500J-21379D01*
G01*
X7481747Y6100836D02*
G03*
X7475720Y6092395I51599J-43216D01*
G01*
X7475118Y6091379D02*
G03*
X7466040Y6057620I58227J-33759D01*
G01*
X8133087Y6492240D02*
G03*
X8120099Y6497620I-12988J-12988D01*
G01*
X7366327Y6177620D02*
G03*
X7336040Y6165100I0J-42893D01*
G01*
X7335997Y6165057D02*
G03*
X7323434Y6134726I30331J-30331D01*
G01*
X7635240Y5910580D02*
G03*
X7666040Y5984937I-74357J74357D01*
G01*
X8114051Y6404596D02*
G03*
X7986040Y6457620I-128011J-128011D01*
G01*
X7528560Y5910580D02*
G03*
X7546040Y5952781I-42201J42201D01*
G01*
X7741920Y5910580D02*
G03*
X7786040Y6017095I-106515J106515D01*
G01*
X7475720Y6092395D02*
G03*
X7475118Y6091379I57626J-34775D01*
G01*
X7421880Y5910580D02*
G03*
X7466040Y6017191I-106611J106611D01*
G01*
X7509190Y6128649D02*
G03*
X7509150Y6128610I80668J-80748D01*
G01*
X9686347Y6242107D02*
G03*
X9686290Y6242050I56865J-56978D01*
G01*
X9708210Y6257620D02*
G03*
X9686347Y6242107I35001J-72491D01*
G01*
X8354568Y5464637D02*
G03*
X8356600Y5469543I-4906J4906D01*
G01*
X8693013Y4441952D02*
G03*
X8724900Y4455160I0J45095D01*
G01*
X8114538Y4227536D02*
G03*
X8181340Y4066262I228076J0D01*
G01*
X7515119Y4403032D02*
G03*
X7519430Y4419704I-98425J34348D01*
G01*
X7490407Y4363667D02*
G03*
X7515119Y4403032I-73713J73713D01*
G01*
X8114538Y5278144D02*
G03*
X8117512Y5267662I20320J102D01*
G01*
X8114618Y5213757D02*
G03*
X8114538Y5212055I20240J-1803D01*
G01*
X8117524Y5222557D02*
G03*
X8114618Y5213757I17334J-10603D01*
G01*
X8117524Y5222557D02*
G03*
X8117512Y5267662I-36453J22543D01*
G01*
X7991739Y5267350D02*
G03*
X7994650Y5277830I-17409J10479D01*
G01*
X7991739Y5267350D02*
G03*
X7990081Y5225843I36632J-22250D01*
G01*
X7992189Y5217763D02*
G03*
X7990080Y5225843I-20296J-981D01*
G01*
X9173210Y5909310D02*
G03*
X9174473Y5910587I-109677J109677D01*
G01*
X7626040Y6698097D02*
G03*
X7581900Y6804660I-150703J0D01*
G01*
X7746040Y6665940D02*
G03*
X7688580Y6804660I-196180J0D01*
G01*
X9866651Y6404596D02*
G03*
X9807544Y6443995I-128011J-128011D01*
G01*
X9378640Y6698097D02*
G03*
X9334500Y6804660I-150703J0D01*
G01*
X9498640Y6665940D02*
G03*
X9441180Y6804660I-196180J0D01*
G01*
X9494520Y5910580D02*
G03*
X9538640Y6017095I-106515J106515D01*
G01*
X9281160Y5910580D02*
G03*
X9298640Y5952781I-42201J42201D01*
G01*
X9841342Y6074038D02*
G03*
X9813384Y6129515I-131281J-31378D01*
G01*
X9845040Y6042714D02*
G03*
X9841342Y6074038I-134979J-54D01*
G01*
X9845040Y6042660D02*
G03*
X9845040Y6042713I-134979J0D01*
G01*
X9776992Y6165340D02*
G03*
X9738641Y6177620I-38352J-53751D01*
G01*
X9787563Y6156249D02*
G03*
X9789096Y6154515I15964J12572D01*
G01*
X9787563Y6156249D02*
G03*
X9781250Y6162302I-23922J-18628D01*
G01*
X9807544Y6443995D02*
G03*
X9738640Y6457620I-68904J-167410D01*
G01*
X9885687Y6492240D02*
G03*
X9872699Y6497620I-12988J-12988D01*
G01*
X9174480Y5910595D02*
G03*
X9218640Y6018987I-110947J108393D01*
G01*
X9387840Y5910580D02*
G03*
X9418640Y5984937I-74357J74357D01*
G01*
X7286029Y5991350D02*
G03*
X7323434Y6081741I-90513J90390D01*
G01*
X7285967Y5991289D02*
G03*
X7286029Y5991350I-90452J90452D01*
G01*
X7336040Y6165100D02*
G03*
X7335997Y6165057I30286J-30373D01*
G01*
X7386040Y6457620D02*
G03*
X7282825Y6414867I0J-145967D01*
G01*
X7248205Y6634713D02*
G03*
X7386040Y6577620I137835J137835D01*
G01*
X9000805Y6634713D02*
G03*
X9138640Y6577620I137835J137835D01*
G01*
X9038629Y5991350D02*
G03*
X9076034Y6081741I-90513J90390D01*
G01*
X9038567Y5991289D02*
G03*
X9038629Y5991350I-90452J90452D01*
G01*
X9088597Y6165057D02*
G03*
X9076034Y6134726I30331J-30331D01*
G01*
X9088640Y6165100D02*
G03*
X9088597Y6165057I30286J-30373D01*
G01*
X9118927Y6177620D02*
G03*
X9088640Y6165100I0J-42893D01*
G01*
X9138640Y6457620D02*
G03*
X9035425Y6414867I0J-145967D01*
G01*
X8242700Y3586480D02*
Y3898900D01*
Y4064311D01*
X8242700Y4069080D02*
X8288020D01*
X8242700Y4069080D02*
X8242700Y4069080D01*
X8242700Y4064311D02*
Y4069080D01*
X7040880Y6769100D02*
X7075795Y6804015D01*
X7044164Y6660497D02*
X7108512D01*
X8008620Y6891835D02*
Y6959600D01*
X8835172Y6667500D02*
X8878018D01*
X8830092Y6347460D02*
X8878018D01*
X9619707Y8181526D02*
X9651638Y8213457D01*
X9619707Y8181526D02*
X9619707Y8181526D01*
X9591040Y8065580D02*
Y8112318D01*
X6351606Y4078556D02*
X6413500D01*
X6235700Y3932891D02*
Y3962650D01*
X8553519Y3387021D02*
X8632018Y3465521D01*
X8553519Y3328601D02*
Y3387021D01*
X8394699Y5106548D02*
X8408360Y5106548D01*
X8354568Y5156334D02*
Y5166868D01*
Y5202052D01*
X8408360Y5106548D02*
X8434578D01*
X8490733Y5123180D02*
X8626095D01*
X8462460Y5115641D02*
X8468360Y5118100D01*
X8446242Y5108882D02*
X8462460Y5115641D01*
X8708116Y5095240D02*
X8770439D01*
X8354060Y5404397D02*
X8354314Y5404143D01*
Y5374890D02*
Y5404143D01*
Y5374890D02*
X8354568Y5374636D01*
X8340026Y5360094D02*
X8354568Y5374636D01*
X8315960Y5295260D02*
Y5301994D01*
X8738776Y4955258D02*
X8812718Y5029200D01*
Y5054492D01*
X8519668Y4921758D02*
X8583051D01*
X8710060Y4920495D02*
X8724900Y4921758D01*
X8619905Y4912828D02*
X8710059Y4920495D01*
X8619892Y4912827D02*
X8619905Y4912828D01*
X8785327Y4921572D02*
X8814714D01*
X8814900Y4921758D01*
X8785140Y4921385D02*
X8785327Y4921572D01*
X8813120Y4209460D02*
X8816340Y4206240D01*
X9415100Y4036740D02*
X9994900D01*
X8268609Y3523931D02*
X8308340Y3484200D01*
X7482675Y4961890D02*
X7629652D01*
X7620884Y4521962D02*
X7629652D01*
X7423150Y4939030D02*
X7424420Y4937760D01*
X7293392Y5151120D02*
X7336880D01*
X7293392Y4511040D02*
X7336880D01*
X8175736Y3786216D02*
X8210371Y3820851D01*
X8039629Y3751580D02*
X8092118D01*
X7629679Y3664621D02*
X7829692D01*
X7290852Y4404360D02*
X7336880D01*
X6484290Y3302235D02*
Y3422344D01*
Y3302235D02*
X6490970Y3295555D01*
X6444285Y3315570D02*
Y3422344D01*
Y3315570D02*
X6464300Y3295555D01*
Y3642359D02*
X6484290Y3662349D01*
X6634302D01*
X6413500Y4078556D02*
X6520180D01*
X7424420Y4617720D02*
X7430770Y4624070D01*
X7457083Y4650383D01*
X7424420Y4617720D02*
X7450733Y4644033D01*
X8632018Y3465521D02*
Y3515630D01*
X8124000Y3289300D02*
X8229600D01*
X8738567Y3894725D02*
X8740140Y3914139D01*
X8660302Y3784330D02*
X8704805Y3828833D01*
X9711171Y6941884D02*
X9761220Y6891835D01*
X9711164Y6941891D02*
X9711171Y6941884D01*
X9789095Y6154515D02*
X9805505Y6138105D01*
X9441180Y6894660D02*
X9487620D01*
X9494520Y6413500D02*
Y6510020D01*
X9507664Y6398360D02*
X9525345Y6416040D01*
X9479380Y6398360D02*
X9507664D01*
X9333035Y6463225D02*
X9354820Y6441440D01*
X9438640Y6357620D01*
X9258640Y6642831D02*
Y6657620D01*
X8832632Y6027420D02*
X8878018D01*
X9175200Y5819860D02*
X9231460D01*
X9251573Y3880763D02*
X9253220D01*
X9121140Y4003040D02*
Y4051300D01*
X8223087Y6596054D02*
X8224520Y6597487D01*
X7986040Y6177620D02*
X7994302D01*
X8059651Y6020548D02*
Y6119609D01*
X7734325Y6377620D02*
X7986040D01*
X7734324Y6337620D02*
X7986040D01*
X7634823Y6408837D02*
X7686040Y6357620D01*
X7580435Y6463225D02*
X7634823Y6408837D01*
X7506040Y6642831D02*
Y6657620D01*
X8237220Y5506340D02*
Y5516880D01*
X8234680Y5464640D02*
Y5510748D01*
X7994650Y5464640D02*
Y5503653D01*
X7826676Y5464640D02*
X7874762D01*
X8576399Y3830064D02*
X8579195Y3832860D01*
X7293392Y4831080D02*
X7334420D01*
X7293392Y4617720D02*
X7334420D01*
X7290852Y4297680D02*
X7334420D01*
X8622133Y3784330D02*
X8660302D01*
X8577580Y3828883D02*
X8622133Y3784330D01*
X8740140Y3914140D02*
X8778240Y3952240D01*
X7874762Y5374640D02*
Y5404400D01*
Y5166868D02*
Y5374640D01*
X8724900Y4455160D02*
X8727534Y4452526D01*
X8724900Y4561840D02*
X8754660D01*
X8519668D02*
X8724900D01*
X7421880Y3604940D02*
X7452530Y3574290D01*
X7526525Y3543640D02*
X7623660D01*
X8999765Y3539923D02*
Y3805622D01*
X9025112Y3478728D02*
X9050460Y3453380D01*
X9889632Y4950869D02*
X10043160D01*
X10101580Y4949457D02*
X10140420Y4910617D01*
X10140478Y4910559D02*
X10141943Y4909094D01*
X10226040Y4874260D02*
X10319458D01*
X9888220Y4124242D02*
X10039792D01*
X10101580D01*
X10234285Y4043680D02*
X10313234D01*
X9975687Y6492240D02*
X9976403Y6492957D01*
X9975133Y6491687D02*
X9975687Y6492240D01*
X9561073Y6337620D02*
X9738640D01*
X9458640D02*
X9561073D01*
X9596953Y6301740D01*
X9541073Y6357620D02*
X9561073Y6337620D01*
X7125418Y6027420D02*
Y6073860D01*
Y5973362D02*
Y6027420D01*
X9047285Y3853142D02*
X9155268D01*
X9254632Y3794351D02*
X9465168D01*
X9224530Y3824453D02*
X9253220Y3795763D01*
X8419020Y8067040D02*
X8481060D01*
X8417560Y8065580D02*
X8419020Y8067040D01*
X8094463Y6147325D02*
X8133087Y6108700D01*
X8094463Y6147325D02*
Y6169932D01*
X8061960Y6202435D02*
X8094463Y6169932D01*
X8061960Y6202435D02*
Y6207760D01*
X7986200Y6217460D02*
X8046935D01*
X8056635Y6207760D02*
X8061960D01*
X8046935Y6217460D02*
X8056635Y6207760D01*
X7986040Y6217620D02*
X7986200Y6217460D01*
X9387423Y6492032D02*
Y6510020D01*
X9354820Y6459429D02*
X9387423Y6492032D01*
X9354820Y6441440D02*
Y6459429D01*
X9479380Y6398360D02*
Y6403440D01*
X9491980Y6416040D01*
X9438640Y6357620D02*
X9458640Y6337620D01*
X9454200Y6373180D02*
X9479380Y6398360D01*
X9438640Y6357620D02*
X9541073D01*
X9438640D02*
X9454200Y6373180D01*
X9482485D02*
X9507664Y6398360D01*
X9454200Y6373180D02*
X9482485D01*
X9525345Y6416040D02*
X9596953D01*
X9507664Y6398360D02*
X9528404Y6377620D01*
X9738640D01*
X7394660Y4297680D02*
X7424420D01*
X7395930Y4939030D02*
X7423150D01*
X7394660Y4940300D02*
X7395930Y4939030D01*
X7624000Y3670300D02*
X7629679Y3664621D01*
X7623660Y3543640D02*
X7624000Y3543300D01*
X9743211Y6265628D02*
X9883140D01*
X9627870Y6183630D02*
X9686290Y6242050D01*
X9627849Y6183609D02*
X9627870Y6183630D01*
X9331960Y6166173D02*
X9585725D01*
X9232290Y6099150D02*
X9276230Y6143089D01*
X9218640Y6057620D02*
Y6066194D01*
X9359900Y3880440D02*
X9685700D01*
X7981588Y6257620D02*
X7986040D01*
X7864138Y6176981D02*
X7918748Y6231591D01*
X7589859Y6162040D02*
X7828067D01*
X7484602Y6104061D02*
X7485753Y6105213D01*
X7481747Y6100836D02*
X7482795Y6102088D01*
X7466040Y6017191D02*
Y6057620D01*
X9050460Y3453380D02*
X9077960D01*
X9230360Y5821680D02*
X9230910Y5821130D01*
X9280610D02*
X9281160Y5820580D01*
X9230910Y5821130D02*
X9280610D01*
X9982314Y6208753D02*
X10034972D01*
X10038737Y6204988D01*
X9975687Y6215380D02*
X9982314Y6208753D01*
X9870847Y6123540D02*
X9885687Y6108700D01*
X9804710Y6217620D02*
X9870847Y6151483D01*
Y6123540D02*
Y6151483D01*
X9738640Y6217620D02*
X9804710D01*
X9230360Y7155180D02*
X9262041Y7123499D01*
X9059910Y7099030D02*
X9065648D01*
X9056542D02*
X9059910D01*
X9123680Y7162800D01*
X9065648Y7099030D02*
X9113958Y7050720D01*
X9026890Y6830330D02*
X9028258D01*
X8974711Y6882509D02*
X9026890Y6830330D01*
X9028258Y6820998D02*
Y6830330D01*
X8971280Y6764020D02*
X9028258Y6820998D01*
X8841880Y6808330D02*
Y6809600D01*
Y6808330D02*
X8872220Y6777990D01*
Y6776720D02*
Y6777990D01*
X7509441Y7123499D02*
X7512050D01*
X7541191Y7152640D01*
X7509441Y7123430D02*
Y7123499D01*
X7477760Y7091749D02*
X7509441Y7123430D01*
X7249160Y7160260D02*
X7303942Y7105478D01*
Y7099030D02*
Y7105478D01*
X7310390Y7099030D02*
X7360029Y7049391D01*
X7303942Y7099030D02*
X7310390D01*
X7272122Y6713118D02*
Y6826794D01*
X7275658Y6830330D01*
Y6839122D01*
X7227191Y6887589D02*
X7275658Y6839122D01*
X7737256Y6532136D02*
X7737257Y6532135D01*
X7634823Y6408837D02*
Y6532136D01*
X9936736Y4693457D02*
Y4738414D01*
X9940501Y4742180D01*
X9928860Y4685582D02*
X9936736Y4693457D01*
X7849138Y5849809D02*
X7849677Y5850347D01*
X7848600Y5820587D02*
X7849138Y5821126D01*
Y5849809D01*
X8133087Y6492240D02*
X8162847D01*
X7986040Y6497620D02*
X8120099D01*
X7366327Y6177620D02*
X7386040D01*
X7323434Y6081741D02*
Y6134726D01*
X7635240Y5880820D02*
Y5910580D01*
X8114051Y6404596D02*
X8133087Y6385560D01*
X7485753Y6105213D02*
X7509150Y6128610D01*
X9218640Y6018987D02*
Y6057620D01*
X7986040Y6257620D02*
X8048320D01*
X8056328Y6265628D01*
X8133087D01*
X7626040Y6057620D02*
X7626200Y6057780D01*
X9378640Y6057620D02*
X9378800Y6057780D01*
X10055686Y4865003D02*
X10101034D01*
X10055140Y4865549D02*
X10055686Y4865003D01*
X10101034D02*
X10101580Y4864457D01*
X9505446Y6937695D02*
X9522650Y6954899D01*
X10099040Y3982720D02*
X10100310Y3983990D01*
Y4035147D01*
X10101580Y4036417D01*
X9930130Y5601970D02*
X9931400Y5603240D01*
X9928860Y5513622D02*
X9930130Y5514892D01*
Y5601970D01*
X10316680Y5331358D02*
X10317102Y5331780D01*
X10316680Y5304180D02*
Y5331358D01*
X10304340Y5291840D02*
X10316680Y5304180D01*
X10276840Y5291840D02*
X10304340D01*
X10316680Y4500962D02*
X10319458Y4503740D01*
X10316680Y4476140D02*
Y4500962D01*
X10276840Y4463800D02*
X10304340D01*
X10316680Y4476140D01*
X7287260Y4724400D02*
X7336880D01*
X7287260Y4937760D02*
X7334420D01*
X7287260Y5044440D02*
X7336880D01*
X7714742Y5462458D02*
X7715631Y5463347D01*
Y5510911D01*
X7716520Y5511800D01*
X7994650Y5374640D02*
Y5404400D01*
X8114538Y5278144D02*
Y5374640D01*
Y5404400D01*
X8115651Y5465753D02*
Y5505227D01*
X8116763Y5506340D01*
X8114538Y5464640D02*
X8115651Y5465753D01*
X8234680Y5166868D02*
Y5374640D01*
X8237220Y5380772D02*
Y5404400D01*
X8356600Y5469543D02*
Y5514340D01*
X8724900Y4801870D02*
X8725535Y4802505D01*
X8754026D01*
X8754660Y4803140D01*
X8519668Y4801870D02*
X8724900D01*
X8814900D02*
X8815535Y4802505D01*
X8866505D01*
X8867140Y4803140D01*
X8724900Y4681982D02*
X8725281Y4681601D01*
X8754279D01*
X8754660Y4681220D01*
X8814900Y4561840D02*
X8816170Y4560570D01*
X8865870D02*
X8867140Y4559300D01*
X8816170Y4560570D02*
X8865870D01*
X8815281Y4681601D02*
X8866759D01*
X8867140Y4681220D01*
X8814900Y4681982D02*
X8815281Y4681601D01*
X8865252Y4452526D02*
X8867885Y4449892D01*
X8817534Y4452526D02*
X8865252D01*
X8814900Y4455160D02*
X8817534Y4452526D01*
X8788360Y4206240D02*
X8813120D01*
X8727534Y4452526D02*
X8752026D01*
X8754660Y4449892D01*
X8813120Y4209460D02*
Y4312920D01*
X7785650Y3979630D02*
X7834080D01*
X7785100Y3980180D02*
X7785650Y3979630D01*
X7834080D02*
X7834630Y3979080D01*
X7953756Y3938016D02*
Y3978063D01*
X7954772Y3979080D01*
X7952740Y3937000D02*
X7953756Y3938016D01*
X7833360Y4039320D02*
X7833995Y4039955D01*
Y4068445D02*
X7834630Y4069080D01*
X7833995Y4039955D02*
Y4068445D01*
X7954772Y4069080D02*
X7955026Y4068826D01*
Y4039574D02*
Y4068826D01*
Y4039574D02*
X7955280Y4039320D01*
X8074343Y4039637D02*
Y4068762D01*
X8074025Y4039320D02*
X8074343Y4039637D01*
Y4068762D02*
X8074660Y4069080D01*
X8181340Y3934460D02*
Y3981262D01*
X8074660Y3934460D02*
Y3979080D01*
X8288020Y3934460D02*
Y3979080D01*
X8526780Y3981262D02*
X8528050Y3979992D01*
Y3938270D02*
X8529320Y3937000D01*
X8528050Y3938270D02*
Y3979992D01*
X8114538Y4227536D02*
Y4276852D01*
X8074660Y4069080D02*
Y4276852D01*
X7954772Y4069080D02*
Y4276852D01*
X7834630Y4069080D02*
Y4276852D01*
X7424420Y4297680D02*
X7487559Y4360819D01*
X8114538Y5278144D02*
Y5278144D01*
Y5166868D02*
Y5212055D01*
X7994650Y5277830D02*
Y5374640D01*
X7992189Y5217763D02*
X7994650Y5166868D01*
X8519668Y4441952D02*
X8693013D01*
X8173313Y6891427D02*
X8173720Y6891020D01*
X8115300Y6891835D02*
X8115708Y6891427D01*
X8173313D01*
X7528560Y5773420D02*
Y5820580D01*
X7635240Y5773420D02*
Y5820580D01*
X7421880Y5773420D02*
Y5820580D01*
X7741920Y5773420D02*
Y5820580D01*
X7635240D02*
X7741920D01*
X7421880D02*
X7528560D01*
X9173760Y5819860D02*
X9174480Y5820580D01*
X9125731Y5819860D02*
X9173760D01*
X9125011Y5819140D02*
X9125731Y5819860D01*
X7125418Y5920740D02*
Y5973362D01*
X7183118Y5918200D02*
X7185658Y5920740D01*
X7215418D01*
X7124148Y6346190D02*
X7125418Y6347460D01*
X7085330Y6346190D02*
X7124148D01*
X7084060Y6344920D02*
X7085330Y6346190D01*
X7544743Y6894660D02*
X7581900D01*
X7643960D01*
X7688580D01*
X7722700D01*
X8195502Y6705600D02*
X8220262D01*
X8133087Y6215380D02*
Y6265628D01*
X8275271D01*
X8162847Y6492240D02*
X8165387Y6494780D01*
X8222810Y6385837D02*
Y6439177D01*
Y6385837D02*
X8223087Y6385560D01*
X8222533Y6439453D02*
X8222810Y6439177D01*
X8222533Y6491687D02*
X8223087Y6492240D01*
X8222533Y6439453D02*
Y6491687D01*
X8223087Y6492240D02*
Y6549553D01*
Y6596054D01*
Y6598920D02*
X8224520Y6597487D01*
X9387840Y6894660D02*
X9441180D01*
X9866651Y6404596D02*
X9885687Y6385560D01*
X9498640Y6657620D02*
Y6665940D01*
X9378640Y6657620D02*
Y6698097D01*
X8817778Y6109684D02*
X8823104D01*
X9174480Y5820580D02*
X9175200Y5819860D01*
X8834120Y5920740D02*
X8878018D01*
Y6027420D01*
X9387840Y5820580D02*
X9494520D01*
X9387632Y5820372D02*
X9387840Y5820580D01*
X9387632Y5778073D02*
Y5820372D01*
X9387423Y5777865D02*
X9387632Y5778073D01*
X9776991Y6165340D02*
X9781250Y6162302D01*
X9494520Y5777865D02*
Y5820580D01*
X9885687Y6385560D02*
X9915447D01*
X9975687Y6598920D02*
X9976403Y6598203D01*
Y6548837D02*
Y6598203D01*
Y6492957D02*
Y6547403D01*
Y6548837D02*
X9977120Y6548120D01*
X9976403Y6547403D02*
X9977120Y6548120D01*
X9975410Y6385837D02*
Y6436637D01*
Y6385837D02*
X9975687Y6385560D01*
X9975133Y6436913D02*
X9975410Y6436637D01*
X9975133Y6436913D02*
Y6491687D01*
X9738640Y6497620D02*
X9872699D01*
X9883140Y6265628D02*
X10027871D01*
X9883140D02*
X9885687Y6263081D01*
Y6215380D02*
Y6263081D01*
X9334344Y6894816D02*
X9334500Y6894660D01*
X9272567Y6894816D02*
X9334344D01*
X9272411Y6894971D02*
X9272567Y6894816D01*
X9334500Y6894660D02*
X9387840D01*
X9387632Y5910372D02*
X9387840Y5910580D01*
X9387632Y5881028D02*
Y5910372D01*
X9387423Y5880820D02*
X9387632Y5881028D01*
X7215418Y5920740D02*
X7285967Y5991289D01*
X7215418Y6347460D02*
X7282825Y6414867D01*
X7215418Y6667500D02*
X7248205Y6634713D01*
X7626040Y6657620D02*
Y6698097D01*
X7746040Y6657620D02*
Y6665940D01*
X7786040Y6017095D02*
Y6057620D01*
X7666040Y5984937D02*
Y6057620D01*
X7546040Y5952781D02*
Y6057620D01*
X8968018Y6667500D02*
X9000805Y6634713D01*
X9076034Y6081741D02*
Y6134726D01*
X8968018Y5920740D02*
X9038567Y5991289D01*
X9118927Y6177620D02*
X9138640D01*
X8968018Y6347460D02*
X9035425Y6414867D01*
X9298640Y5952781D02*
Y6057620D01*
X9418640Y5984937D02*
Y6057620D01*
X9538640Y6017095D02*
Y6057620D01*
X9465168Y3794351D02*
X9466580Y3792938D01*
X9253220Y3795763D02*
X9254632Y3794351D01*
X9888220Y4952282D02*
X9889632Y4950869D01*
X9272818Y4862282D02*
X9888220D01*
X9889469Y4863531D02*
X9993651D01*
X9994900Y4864780D01*
X9888220Y4862282D02*
X9889469Y4863531D01*
X8519668Y4681982D02*
X8724900D01*
D16*
X7421880Y3689940D02*
D03*
Y3604940D02*
D03*
X8308340Y3484200D02*
D03*
Y3399200D02*
D03*
X9174480Y5910580D02*
D03*
Y5820580D02*
D03*
X7795260Y6894660D02*
D03*
Y6804660D02*
D03*
X7741920Y5910580D02*
D03*
Y5820580D02*
D03*
X9547860Y6894660D02*
D03*
Y6804660D02*
D03*
X9441180D02*
D03*
Y6894660D02*
D03*
X9334500Y6804660D02*
D03*
Y6894660D02*
D03*
X9654540D02*
D03*
Y6804660D02*
D03*
X9761220Y6806835D02*
D03*
Y6891835D02*
D03*
X9867900Y6806835D02*
D03*
Y6891835D02*
D03*
X7688580Y6804660D02*
D03*
Y6894660D02*
D03*
X8008620Y6891835D02*
D03*
Y6806835D02*
D03*
X7901940Y6804660D02*
D03*
Y6894660D02*
D03*
X7581900Y6804660D02*
D03*
Y6894660D02*
D03*
X7848600Y5910587D02*
D03*
Y5820587D02*
D03*
X7953719Y5908405D02*
D03*
Y5823405D02*
D03*
X8115300Y6891835D02*
D03*
Y6806835D02*
D03*
X7528560Y5820580D02*
D03*
Y5910580D02*
D03*
X7635240Y5820580D02*
D03*
Y5910580D02*
D03*
X7421880Y5820580D02*
D03*
Y5910580D02*
D03*
X8114538Y5374640D02*
D03*
Y5464640D02*
D03*
X7994650D02*
D03*
Y5374640D02*
D03*
X7874762D02*
D03*
Y5464640D02*
D03*
X8354568Y5374636D02*
D03*
Y5464637D02*
D03*
X6413500Y3993556D02*
D03*
Y4078556D02*
D03*
X6410960Y3205555D02*
D03*
Y3295555D02*
D03*
X6517640Y3205555D02*
D03*
Y3295555D02*
D03*
X9253220Y3795763D02*
D03*
Y3880763D02*
D03*
X9359900Y3880440D02*
D03*
Y3795440D02*
D03*
X9466580Y3882938D02*
D03*
Y3792938D02*
D03*
X9425940Y3321598D02*
D03*
Y3231598D02*
D03*
X10101580Y4121417D02*
D03*
Y4036417D02*
D03*
X9888220Y4862282D02*
D03*
Y4952282D02*
D03*
X9994900Y4949780D02*
D03*
Y4864780D02*
D03*
X10101580Y4864457D02*
D03*
Y4949457D02*
D03*
X9928860Y5423622D02*
D03*
Y5513622D02*
D03*
Y4595582D02*
D03*
Y4685582D02*
D03*
X9888220Y4034242D02*
D03*
Y4124242D02*
D03*
X9994900Y4036740D02*
D03*
Y4121740D02*
D03*
X8227060Y5656580D02*
D03*
Y5566580D02*
D03*
X8120380Y5656580D02*
D03*
Y5566580D02*
D03*
X6520180Y3993556D02*
D03*
Y4078556D02*
D03*
X9387840Y5820580D02*
D03*
Y5910580D02*
D03*
X9281160D02*
D03*
Y5820580D02*
D03*
X9494520Y5910580D02*
D03*
Y5820580D02*
D03*
X9601200Y5910587D02*
D03*
Y5820587D02*
D03*
X9706319Y5908405D02*
D03*
Y5823405D02*
D03*
X7834630Y3979080D02*
D03*
Y4069080D02*
D03*
X7954772Y3979080D02*
D03*
Y4069080D02*
D03*
X7714742Y5377458D02*
D03*
Y5462458D02*
D03*
X8234680Y5464640D02*
D03*
Y5374640D02*
D03*
X8181340Y3981262D02*
D03*
Y4066262D02*
D03*
X8288020Y3979080D02*
D03*
Y4069080D02*
D03*
X8074660Y3979080D02*
D03*
Y4069080D02*
D03*
X8420100Y3981262D02*
D03*
Y4066262D02*
D03*
X8633460Y3981262D02*
D03*
Y4066262D02*
D03*
X8526780Y3981262D02*
D03*
Y4066262D02*
D03*
X331760Y6603270D02*
D03*
Y6518270D02*
D03*
Y7380510D02*
D03*
Y7295510D02*
D03*
Y3788950D02*
D03*
Y3703950D02*
D03*
Y4481190D02*
D03*
Y4566190D02*
D03*
D17*
X8506460Y6421120D02*
D03*
Y5965520D02*
D03*
X9753600Y3320580D02*
D03*
Y3776180D02*
D03*
X9601200Y4596600D02*
D03*
Y4141000D02*
D03*
Y5424640D02*
D03*
Y4969040D02*
D03*
X10259060Y6421120D02*
D03*
Y5965520D02*
D03*
D18*
X10261100Y3403600D02*
D03*
X10071100D02*
D03*
X10261100Y3693160D02*
D03*
X10071100D02*
D03*
X9284712Y3271528D02*
D03*
X9094712D02*
D03*
X9093700Y5341620D02*
D03*
X9283700D02*
D03*
X9093700Y4224020D02*
D03*
X9283700D02*
D03*
X9093700Y4513580D02*
D03*
X9283700D02*
D03*
X10070088Y4645652D02*
D03*
X10260088D02*
D03*
X9093700Y5052060D02*
D03*
X9283700D02*
D03*
X10070088Y5473692D02*
D03*
X10260088D02*
D03*
D19*
X6477718Y6789420D02*
D03*
X6567718D02*
D03*
X7125418Y6240780D02*
D03*
X7215418D02*
D03*
X8878018Y6134100D02*
D03*
Y6240780D02*
D03*
X8968018Y6347460D02*
D03*
X8878018D02*
D03*
X8968018Y6240780D02*
D03*
Y6134100D02*
D03*
Y5920740D02*
D03*
X8878018D02*
D03*
X8968018Y6027420D02*
D03*
X8878018D02*
D03*
X8878025Y6560820D02*
D03*
X8968025D02*
D03*
X8878025Y6454140D02*
D03*
X8968025D02*
D03*
X7215418Y6667500D02*
D03*
X7125418D02*
D03*
X7215418Y5920740D02*
D03*
X7125418D02*
D03*
X8133087Y6215380D02*
D03*
X8223087D02*
D03*
X7125418Y6347460D02*
D03*
X7215418D02*
D03*
X8223087Y6385560D02*
D03*
X8133087D02*
D03*
X8223087Y6108700D02*
D03*
X8133087D02*
D03*
X8223087Y6598920D02*
D03*
X8133087D02*
D03*
X8220262Y6705600D02*
D03*
X8135262D02*
D03*
X8223080Y6002020D02*
D03*
X8133080D02*
D03*
X7125418Y6027420D02*
D03*
X7215418D02*
D03*
X7424420Y4297680D02*
D03*
X7334420D02*
D03*
X6881578Y3850640D02*
D03*
X6971578D02*
D03*
X6881898Y3743960D02*
D03*
X6971898D02*
D03*
X6969080Y3423920D02*
D03*
X6884080D02*
D03*
X6969723Y3530600D02*
D03*
X6884723D02*
D03*
X6969080Y3637280D02*
D03*
X6884080D02*
D03*
X7334420Y4617720D02*
D03*
X7424420D02*
D03*
X10126065Y3548380D02*
D03*
X10036065D02*
D03*
X9148358Y3797300D02*
D03*
X9058358D02*
D03*
X9228735Y5196840D02*
D03*
X9318735D02*
D03*
X8013700Y7289800D02*
D03*
X8098700D02*
D03*
X9187180Y7399020D02*
D03*
X9272180D02*
D03*
X8098700D02*
D03*
X8013700D02*
D03*
X9187180Y7292340D02*
D03*
X9272180D02*
D03*
X9228735Y4368800D02*
D03*
X9318735D02*
D03*
X10206442Y4119880D02*
D03*
X10296442D02*
D03*
X10206442Y4947920D02*
D03*
X10296442D02*
D03*
X7215425Y6454140D02*
D03*
X7125425D02*
D03*
X7215425Y6560820D02*
D03*
X7125425D02*
D03*
X9975687Y6385560D02*
D03*
X9885687D02*
D03*
X8968018Y6667500D02*
D03*
X8878018D02*
D03*
X9972862Y6705600D02*
D03*
X9887862D02*
D03*
X9975687Y6598920D02*
D03*
X9885687D02*
D03*
X9975680Y6002020D02*
D03*
X9885680D02*
D03*
X9885687Y6215380D02*
D03*
X9975687D02*
D03*
X9885687Y6108700D02*
D03*
X9975687D02*
D03*
X7421880Y5151120D02*
D03*
X7336880D02*
D03*
X8814900Y4681982D02*
D03*
X8724900D02*
D03*
X8812718Y5029200D02*
D03*
X8727718D02*
D03*
X8814900Y4921758D02*
D03*
X8724900D02*
D03*
X7421880Y4724400D02*
D03*
X7336880D02*
D03*
X7424420Y4937760D02*
D03*
X7334420D02*
D03*
X8814900Y4455160D02*
D03*
X8724900D02*
D03*
X8814900Y4561840D02*
D03*
X8724900D02*
D03*
X7334420Y4831080D02*
D03*
X7424420D02*
D03*
X8724900Y4801870D02*
D03*
X8814900D02*
D03*
X7421880Y4511040D02*
D03*
X7336880D02*
D03*
Y4404360D02*
D03*
X7421880D02*
D03*
X8813120Y4312920D02*
D03*
X8728120D02*
D03*
X8813120Y4206240D02*
D03*
X8728120D02*
D03*
X7336880Y5044440D02*
D03*
X7421880D02*
D03*
X6567718Y6896100D02*
D03*
X6477718D02*
D03*
X9885687Y6492240D02*
D03*
X9975687D02*
D03*
X8133087D02*
D03*
X8223087D02*
D03*
X7215418Y6134100D02*
D03*
X7125418D02*
D03*
X5695402Y4018280D02*
D03*
X5785402D02*
D03*
X5695400Y4122420D02*
D03*
X5785400D02*
D03*
D20*
X10276840Y4273800D02*
D03*
Y4368800D02*
D03*
Y4463800D02*
D03*
X9997440D02*
D03*
Y4368800D02*
D03*
Y4273800D02*
D03*
X9357360Y3643380D02*
D03*
Y3548380D02*
D03*
Y3453380D02*
D03*
X9077960D02*
D03*
Y3548380D02*
D03*
Y3643380D02*
D03*
X9997440Y5101840D02*
D03*
Y5196840D02*
D03*
Y5291840D02*
D03*
X10276840D02*
D03*
Y5196840D02*
D03*
Y5101840D02*
D03*
D24*
X322580Y3390900D02*
D03*
X10228580Y8630920D02*
D03*
D34*
X8036560Y8065580D02*
D03*
X9210040D02*
D03*
D35*
X8417560Y7565580D02*
D03*
X8290560D02*
D03*
X8163560D02*
D03*
X8036560D02*
D03*
X8417560Y8065580D02*
D03*
X8290560D02*
D03*
X8163560D02*
D03*
X9591040Y7565580D02*
D03*
X9464040D02*
D03*
X9337040D02*
D03*
X9210040D02*
D03*
X9591040Y8065580D02*
D03*
X9464040D02*
D03*
X9337040D02*
D03*
D36*
X7016659Y3250021D02*
G03*
X7131797Y3202329I115138J115138D01*
G01*
X7013741Y3252939D02*
G03*
X7013833Y3252847I122183J122183D01*
G01*
X9587044Y8394314D02*
G03*
X9766649Y8468709I0J254000D01*
G01*
D02*
G03*
X9806940Y8565980I-97271J97271D01*
G01*
X9366893Y8394314D02*
G03*
X9189527Y8320847I0J-250833D01*
G01*
D02*
G03*
X9116060Y8143482I177366J-177366D01*
G01*
X8133219Y8363082D02*
G03*
X7996621Y8306501I0J-193179D01*
G01*
D02*
G03*
X7940040Y8169903I136598J-136598D01*
G01*
X8471819Y8453091D02*
G03*
X8524240Y8579646I-126555J126555D01*
G01*
X8280292Y8363082D02*
G03*
X8453594Y8434866I0J245087D01*
G01*
X6335416Y3223664D02*
G03*
X6335426Y3223654I26147J26127D01*
G01*
X6324600Y3249791D02*
G03*
X6335416Y3223664I36963J0D01*
G01*
X6335426Y3223654D02*
G03*
X6379121Y3205555I43695J43695D01*
G01*
X9178090Y3700150D02*
G03*
X9178144Y3700096I57599J57491D01*
G01*
X9154308Y3757641D02*
G03*
X9178090Y3700150I81381J0D01*
G01*
X9986656Y5726115D02*
G03*
X9850674Y5669834I0J-192416D01*
G01*
X10452100Y6032469D02*
G03*
X10387420Y6188620I-220830J0D01*
G01*
X10353359Y6222681D02*
G03*
X10242237Y6256738I-111122J-164261D01*
G01*
X9850674Y5669834D02*
G03*
X9850598Y5669758I135982J-136135D01*
G01*
X9714538Y5613400D02*
G03*
X9850598Y5669758I0J192417D01*
G01*
X10182660Y5039120D02*
G03*
X10182606Y5039174I-57599J-57491D01*
G01*
X10206442Y4981629D02*
G03*
X10182660Y5039120I-81381J0D01*
G01*
X10176710Y4217030D02*
G03*
X10176656Y4217084I-57599J-57491D01*
G01*
X10200492Y4159539D02*
G03*
X10176710Y4217030I-81381J0D01*
G01*
X7016573Y3250107D02*
G03*
X6906650Y3295555I-109923J-110207D01*
G01*
X6969080Y3360760D02*
G03*
X7013741Y3252939I152482J0D01*
G01*
X7013833Y3252847D02*
G03*
X7135924Y3202329I122090J122275D01*
G01*
X8501380Y6998560D02*
G03*
X8535696Y6915492I117700J0D01*
G01*
X8680509Y7719060D02*
G03*
X8553894Y7666643I0J-179129D01*
G01*
X8553797Y7666546D02*
G03*
X8501380Y7539931I126712J-126615D01*
G01*
X8553846Y7666594D02*
G03*
X8553797Y7666546I126663J-126663D01*
G01*
X8822477Y7709527D02*
G03*
X8767545Y7719060I-54933J-153502D01*
G01*
X8882828Y7671308D02*
G03*
X8822477Y7709527I-115283J-115283D01*
G01*
X8553894Y7666643D02*
G03*
X8553846Y7666594I126615J-126712D01*
G01*
X7768336Y7626604D02*
G03*
X7660411Y7671308I-107925J-107925D01*
G01*
X7813040Y7518679D02*
G03*
X7768336Y7626604I-152629J0D01*
G01*
X7872793Y7141147D02*
G03*
X8016834Y7081520I144041J144168D01*
G01*
X7872667Y7141273D02*
G03*
X7872730Y7141210I144168J144041D01*
G01*
X7813040Y7285314D02*
G03*
X7872667Y7141273I203794J0D01*
G01*
X7872730Y7141210D02*
G03*
X7872793Y7141147I144104J144104D01*
G01*
X8443912Y7007275D02*
G03*
X8264457Y7081520I-179455J-179755D01*
G01*
X8444062Y7007125D02*
G03*
X8443912Y7007275I-179605J-179605D01*
G01*
X8735433Y6610544D02*
G03*
X8661038Y6790149I-254000J0D01*
G01*
X8735433Y5987877D02*
G03*
X8661038Y6167482I-254000J0D01*
G01*
X8639596Y3202329D02*
G03*
X8819201Y3276724I0J254000D01*
G01*
X8828305Y3285828D02*
G03*
X8902700Y3465433I-179605J179605D01*
G01*
X8929508Y3949233D02*
G03*
X8902700Y3884419I64946J-64814D01*
G01*
X8929574Y3949299D02*
G03*
X8929508Y3949233I64880J-64880D01*
G01*
X8929640Y3949365D02*
G03*
X8956448Y4014179I-64946J64814D01*
G01*
X8929574Y3949299D02*
G03*
X8929640Y3949365I-64880J64880D01*
G01*
X8735433Y5828274D02*
G03*
X8809828Y5648669I254000J0D01*
G01*
X9146537Y5613400D02*
G03*
X9012124Y5557724I0J-190089D01*
G01*
X8956448Y5423311D02*
G03*
X8900482Y5558015I-191081J-411D01*
G01*
X9012124Y5557724D02*
G03*
X8956448Y5423311I134413J-134413D01*
G01*
X8275334Y6256675D02*
G03*
X8356721Y6223000I81387J81513D01*
G01*
X8654014Y6174506D02*
G03*
X8536940Y6223000I-117074J-117074D01*
G01*
X8275271Y6256738D02*
G03*
X8275334Y6256675I81450J81450D01*
G01*
X7131797Y3202329D02*
X7135924D01*
X2319383Y3322683D02*
Y3338438D01*
X2320116Y3339170D02*
Y3812126D01*
X2319020Y3322320D02*
X2319383Y3322683D01*
Y3338438D02*
X2320116Y3339170D01*
X5114116Y3812126D02*
X5114530Y3812540D01*
X5212080D01*
X4733116Y3501942D02*
Y3812126D01*
X4352116Y3501942D02*
Y3812126D01*
X3209116Y3501942D02*
Y3812126D01*
X3082116Y3501942D02*
Y3812126D01*
X2574116Y3501942D02*
Y3812126D01*
X5114116Y6309292D02*
Y6619476D01*
X4733116Y6309292D02*
Y6619476D01*
X4352116Y6309292D02*
Y6619476D01*
X3209116Y6309292D02*
Y6619476D01*
X3082116Y6309292D02*
Y6619476D01*
X2574116Y6309292D02*
Y6619476D01*
X2320116Y6309292D02*
Y6619476D01*
X9806940Y8565980D02*
Y8651240D01*
X9116060Y7571740D02*
Y8143482D01*
X9366893Y8394314D02*
X9587044D01*
X7940040Y7592060D02*
Y8169903D01*
X8133219Y8363082D02*
X8280292D01*
X8453594Y8434866D02*
X8471819Y8453091D01*
X8524240Y8579646D02*
Y8653780D01*
X8397240D02*
Y8754866D01*
X9679940Y8651240D02*
Y8727440D01*
X6379121Y3205555D02*
X6410960D01*
X6324600Y3249791D02*
Y3276280D01*
Y3319780D01*
X6410960Y3205555D02*
X6517640D01*
X6410960Y3295555D02*
X6464300D01*
X6517640D02*
X6906650D01*
X6490970D02*
X6517640D01*
X6464300D02*
X6490970D01*
X9154308Y3757641D02*
Y3791350D01*
X9178144Y3700096D02*
X9329860Y3548380D01*
X9986656Y5726115D02*
X10445435D01*
X10452100Y5732780D01*
Y6032469D01*
Y5647302D02*
Y5732780D01*
X10415658Y5610860D02*
X10452100Y5647302D01*
X10353359Y6222681D02*
X10387420Y6188620D01*
X10027871Y6256738D02*
X10242237D01*
X9146537Y5613400D02*
X9714538D01*
X10206442Y4947920D02*
Y4981629D01*
X10024940Y5196840D02*
X10182606Y5039174D01*
X10200492Y4125830D02*
Y4159539D01*
X10024940Y4368800D02*
X10176656Y4217084D01*
X10200492Y4125830D02*
X10206442Y4119880D01*
X7135924Y3202329D02*
X8639596D01*
X6969080Y3360760D02*
Y3423920D01*
Y3637280D01*
X8444062Y7007125D02*
X8535696Y6915492D01*
X8661038Y6790149D01*
X8680509Y7719060D02*
X8767545D01*
X7813040Y7285314D02*
Y7518679D01*
X7594346Y7671308D02*
X7660411D01*
X8016834Y7081520D02*
X8264457D01*
X8501380Y6998560D02*
Y7539931D01*
X8735433Y5987877D02*
Y6610544D01*
Y5828274D02*
Y5987877D01*
X8819201Y3276724D02*
X8828305Y3285828D01*
X8902700Y3465433D02*
Y3884419D01*
X8956448Y4014179D02*
Y5423311D01*
X8809828Y5648669D02*
X8900482Y5558015D01*
X8356721Y6223000D02*
X8536940D01*
X8654014Y6174506D02*
X8661038Y6167482D01*
X9058358Y3646830D02*
X9061808Y3643380D01*
X9077960D01*
X9058358Y3646830D02*
Y3797300D01*
X9329860Y3548380D02*
X9357360D01*
X9148358Y3797300D02*
X9154308Y3791350D01*
X9997440Y5196840D02*
X10024940D01*
X10296442Y4947920D02*
Y5098390D01*
X10292992Y5101840D02*
X10296442Y5098390D01*
X10276840Y5101840D02*
X10292992D01*
X9997440Y4368800D02*
X10024940D01*
X10296442Y4119880D02*
Y4270350D01*
X10276840Y4273800D02*
X10292992D01*
X10296442Y4270350D01*
D37*
X7584440Y8661400D02*
D03*
Y7381240D02*
D03*
X8872922Y8661400D02*
D03*
Y7381240D02*
D03*
D38*
X7594346Y7671308D02*
D03*
Y7921244D02*
D03*
Y8121396D02*
D03*
Y8371332D02*
D03*
X7444486Y7621270D02*
D03*
Y7821422D02*
D03*
Y8021320D02*
D03*
Y8221218D02*
D03*
Y8421370D02*
D03*
X8882828Y7671308D02*
D03*
Y7921244D02*
D03*
Y8121396D02*
D03*
Y8371332D02*
D03*
X8732968Y7621270D02*
D03*
Y7821422D02*
D03*
Y8021320D02*
D03*
Y8221218D02*
D03*
Y8421370D02*
D03*
D39*
X10197198Y7781315D02*
D03*
X9767201D02*
D03*
Y8261325D02*
D03*
X10197198D02*
D03*
D40*
X1616116Y6469476D02*
D03*
X5416116D02*
D03*
X1616116Y3662126D02*
D03*
X5416116D02*
D03*
D41*
X436880Y7653020D02*
D03*
X513080D02*
D03*
X589280D02*
D03*
Y7602220D02*
D03*
X513080D02*
D03*
X436880D02*
D03*
X1023620Y7975600D02*
D03*
X1099820D02*
D03*
X1176020D02*
D03*
Y7924800D02*
D03*
X1099820D02*
D03*
X1023620D02*
D03*
X1041400Y8671560D02*
D03*
X1117600D02*
D03*
X1193800D02*
D03*
Y8620760D02*
D03*
X1117600D02*
D03*
X1041400D02*
D03*
X1277620Y8752840D02*
D03*
X1353820D02*
D03*
X1430020D02*
D03*
Y8702040D02*
D03*
X1353820D02*
D03*
X1277620D02*
D03*
X784860Y8750300D02*
D03*
X861060D02*
D03*
X937260D02*
D03*
Y8699500D02*
D03*
X861060D02*
D03*
X784860D02*
D03*
X779780Y8577580D02*
D03*
X855980D02*
D03*
X932180D02*
D03*
Y8526780D02*
D03*
X855980D02*
D03*
X779780D02*
D03*
X1267460Y8580120D02*
D03*
X1343660D02*
D03*
X1419860D02*
D03*
Y8529320D02*
D03*
X1343660D02*
D03*
X1267460D02*
D03*
X1262380Y8133080D02*
D03*
X1338580D02*
D03*
X1414780D02*
D03*
Y8082280D02*
D03*
X1338580D02*
D03*
X1262380D02*
D03*
X1267460Y8450580D02*
D03*
X1343660D02*
D03*
X1419860D02*
D03*
Y8399780D02*
D03*
X1343660D02*
D03*
X1267460D02*
D03*
X93980Y6281420D02*
D03*
Y6169660D02*
D03*
Y6228080D02*
D03*
X9075420Y4963160D02*
D03*
Y4917440D02*
D03*
Y4871720D02*
D03*
X9123680Y5212080D02*
D03*
X8244840Y3822700D02*
D03*
X347980Y6111240D02*
D03*
X414020D02*
D03*
X477520D02*
D03*
X541020Y6113780D02*
D03*
X360680Y4841240D02*
D03*
X424180D02*
D03*
X490220D02*
D03*
X553720D02*
D03*
X5977455Y3749899D02*
D03*
X6014720Y3787164D02*
D03*
X8440989Y5280660D02*
D03*
X8388289D02*
D03*
X8615680Y4955479D02*
D03*
Y5008179D02*
D03*
X8792628Y5472012D02*
D03*
X8829892Y5434748D02*
D03*
X8384900Y4768149D02*
D03*
Y4715449D02*
D03*
X8320974Y5032100D02*
D03*
X8267700D02*
D03*
X8147370Y5722620D02*
D03*
X8200070D02*
D03*
X8081071Y5245100D02*
D03*
X8028371D02*
D03*
X7470140Y6151270D02*
D03*
Y6203970D02*
D03*
X7053580Y6533830D02*
D03*
X7788341Y5034280D02*
D03*
X7841041D02*
D03*
X7053580Y6481130D02*
D03*
X7874950Y6962140D02*
D03*
X6997700Y6685364D02*
D03*
X7822250Y6962140D02*
D03*
X6997700Y6738063D02*
D03*
X7659690Y6578600D02*
D03*
X6637020Y6869110D02*
D03*
X7712390Y6578600D02*
D03*
X6637020Y6816410D02*
D03*
X7961056Y5092700D02*
D03*
X7053573Y6213790D02*
D03*
X7908356Y5092700D02*
D03*
X7053573Y6161090D02*
D03*
X8806180Y6533830D02*
D03*
X8450580Y4648261D02*
D03*
X8806180Y6481130D02*
D03*
X8450580Y4595561D02*
D03*
X8806173Y6161090D02*
D03*
Y6213790D02*
D03*
X8384900Y4475546D02*
D03*
Y4528246D02*
D03*
X9222740Y6151270D02*
D03*
X8900160Y4355531D02*
D03*
X9222740Y6203970D02*
D03*
X8900160Y4408231D02*
D03*
X9412290Y6578600D02*
D03*
X5897880Y4096700D02*
D03*
X9464990Y6578600D02*
D03*
X5897880Y4044000D02*
D03*
X9574850Y6962140D02*
D03*
X5905500Y3975100D02*
D03*
X9627550Y6962140D02*
D03*
X5905500Y3922400D02*
D03*
X6122235Y3499285D02*
D03*
X6159500Y3462020D02*
D03*
X5977455Y3534845D02*
D03*
X6014720Y3497580D02*
D03*
X9782200Y8047683D02*
D03*
X10180320Y7994970D02*
D03*
X9413126Y7845095D02*
D03*
X5905500Y3848100D02*
D03*
X10180320Y8047670D02*
D03*
X9782200Y7994983D02*
D03*
X9413126Y7792395D02*
D03*
X5905500Y3795400D02*
D03*
X10154920Y7517323D02*
D03*
X9775790Y7426960D02*
D03*
X10154920Y7570023D02*
D03*
X9723091Y7426960D02*
D03*
X6159500Y3822724D02*
D03*
X6122235Y3785459D02*
D03*
X6637020Y6921810D02*
D03*
Y6763710D02*
D03*
X2956560Y6764020D02*
D03*
X2827020D02*
D03*
X2702560D02*
D03*
X2697480Y3962400D02*
D03*
X2824480D02*
D03*
X2956560D02*
D03*
X4777740Y6012180D02*
D03*
X4845799Y6352483D02*
D03*
X4658360Y6062980D02*
D03*
X4541106Y6232950D02*
D03*
X4437980Y6033730D02*
D03*
X4303798Y6078848D02*
D03*
X3759200Y6197600D02*
D03*
X3947160Y6322060D02*
D03*
X3878985Y6086466D02*
D03*
X3614722Y6037832D02*
D03*
X3594100Y6296660D02*
D03*
X2811780Y6327140D02*
D03*
X2900680Y6240780D02*
D03*
X3088640Y6172200D02*
D03*
X2918460Y6073140D02*
D03*
X2989580Y6035040D02*
D03*
X2773680Y6027420D02*
D03*
X2905760Y3373120D02*
D03*
X2733040Y3246120D02*
D03*
X2768600Y3352800D02*
D03*
X2840851Y3282718D02*
D03*
X3126155Y3374751D02*
D03*
X3558540Y3385820D02*
D03*
X4522940Y3385371D02*
D03*
X4691432Y3389619D02*
D03*
X4340289Y3235994D02*
D03*
X4622761Y3262895D02*
D03*
X4366484Y3377583D02*
D03*
X3954780Y3406140D02*
D03*
X3731260Y3370580D02*
D03*
X3843020Y3248660D02*
D03*
X3604260Y3218180D02*
D03*
X3053080Y3225800D02*
D03*
X1328420Y6911340D02*
D03*
X1130300Y6715760D02*
D03*
X1346200Y4993640D02*
D03*
X1272540D02*
D03*
Y4912360D02*
D03*
X1346200D02*
D03*
X1272540Y4719320D02*
D03*
X1346200D02*
D03*
X1272540Y4630420D02*
D03*
X1346200D02*
D03*
Y4442460D02*
D03*
X1272540D02*
D03*
X485140Y5062220D02*
D03*
X563880Y5064760D02*
D03*
X508000Y5151120D02*
D03*
X378460D02*
D03*
X246380D02*
D03*
X142240D02*
D03*
X73660Y5074920D02*
D03*
Y5001260D02*
D03*
Y4930140D02*
D03*
X1290320Y6273800D02*
D03*
X1358900D02*
D03*
X1292860Y6192520D02*
D03*
X1358900D02*
D03*
X1297940Y5897880D02*
D03*
X1358900Y5900420D02*
D03*
X1346200Y5717540D02*
D03*
X1275080D02*
D03*
X637540Y6245860D02*
D03*
Y6299200D02*
D03*
X574040Y6245860D02*
D03*
Y6299200D02*
D03*
X484420Y4368800D02*
D03*
Y5639837D02*
D03*
X360680Y5801360D02*
D03*
X449580D02*
D03*
X533400D02*
D03*
X414020Y4559300D02*
D03*
X472440D02*
D03*
X530995Y4557608D02*
D03*
X228600Y6451600D02*
D03*
Y6400800D02*
D03*
X177800D02*
D03*
Y6451600D02*
D03*
X939800Y6807200D02*
D03*
Y6731000D02*
D03*
Y6654800D02*
D03*
X990600D02*
D03*
Y6731000D02*
D03*
Y6807200D02*
D03*
X1953050Y3446990D02*
D03*
X2057190Y3546050D02*
D03*
X1841290Y3553670D02*
D03*
X2057190Y3767030D02*
D03*
X2168950Y3660350D02*
D03*
X1950510D02*
D03*
X1445260Y4157980D02*
D03*
X1338580Y4272280D02*
D03*
X1229360Y4165600D02*
D03*
X1341120Y4058920D02*
D03*
X1557020Y4272280D02*
D03*
X1445260Y4378960D02*
D03*
X1681480Y6835140D02*
D03*
X1752600Y6758940D02*
D03*
X1856740Y6865620D02*
D03*
X1783080Y6939280D02*
D03*
X1356360Y7155180D02*
D03*
X1280160Y7231380D02*
D03*
X1463040Y7264400D02*
D03*
X1386840Y7338060D02*
D03*
X927100Y3314700D02*
D03*
X962660Y3350260D02*
D03*
X2319020Y3322320D02*
D03*
X5212080Y3812540D02*
D03*
X4733116Y3501942D02*
D03*
X4352116D02*
D03*
X3209116D02*
D03*
X3082116D02*
D03*
X2574116D02*
D03*
X5114116Y6309292D02*
D03*
X4733116D02*
D03*
X4352116D02*
D03*
X3209116D02*
D03*
X3082116D02*
D03*
X2574116D02*
D03*
X2320116D02*
D03*
X144780Y5662380D02*
D03*
Y6093460D02*
D03*
Y4823460D02*
D03*
Y4392380D02*
D03*
X5862321Y4135595D02*
D03*
X5941733Y4013471D02*
D03*
X5867295Y3886100D02*
D03*
X6215380Y3828883D02*
D03*
X6065852Y3799923D02*
D03*
X5920740Y3743960D02*
D03*
X5935980Y3571240D02*
D03*
X6067354Y3494948D02*
D03*
X6197600Y3423920D02*
D03*
X9223700Y8651240D02*
D03*
X9350700D02*
D03*
X9477700D02*
D03*
X9604700Y8653780D02*
D03*
X7830820D02*
D03*
X7964480D02*
D03*
X8091480Y8652510D02*
D03*
X8218480Y8653780D02*
D03*
X8397240Y8754866D02*
D03*
X9679940Y8727440D02*
D03*
X9378000Y7659752D02*
D03*
X6324600Y3319780D02*
D03*
Y3276280D02*
D03*
X6464300Y3624580D02*
D03*
X6537960D02*
D03*
X6393180D02*
D03*
X8120380Y4775200D02*
D03*
X8067040D02*
D03*
Y4724400D02*
D03*
X8120380D02*
D03*
X7889240Y4777740D02*
D03*
X7835900D02*
D03*
Y4726940D02*
D03*
X7889240D02*
D03*
X8120380Y4655820D02*
D03*
X8067040D02*
D03*
Y4605020D02*
D03*
X8120380D02*
D03*
X7889240Y4658360D02*
D03*
X7835900D02*
D03*
Y4607560D02*
D03*
X7889240D02*
D03*
X8120380Y4528820D02*
D03*
X8067040D02*
D03*
Y4478020D02*
D03*
X8120380D02*
D03*
X7889240Y4528820D02*
D03*
X7835900D02*
D03*
Y4478020D02*
D03*
X7889240D02*
D03*
X7800340Y6344920D02*
D03*
X7731760Y6342380D02*
D03*
X7670800D02*
D03*
X7609840D02*
D03*
X7551420D02*
D03*
X7800340Y6225540D02*
D03*
X7731760D02*
D03*
X7670800D02*
D03*
X7609840D02*
D03*
X7551420D02*
D03*
X7704826Y6455674D02*
D03*
X7767320Y6456680D02*
D03*
X7830820D02*
D03*
X7008713Y6453485D02*
D03*
X7006156Y6556814D02*
D03*
X7048500Y6106926D02*
D03*
X7053580Y6266490D02*
D03*
X7927150Y6954899D02*
D03*
X7770050D02*
D03*
X8787191Y6582990D02*
D03*
Y6431970D02*
D03*
X10403363Y7411375D02*
D03*
X10441940Y7447280D02*
D03*
X9821887Y7939280D02*
D03*
X10345420Y8034020D02*
D03*
X8875264Y5407940D02*
D03*
X8762258Y5515082D02*
D03*
X8785140Y4921385D02*
D03*
X6235700Y3932891D02*
D03*
X7503160Y4683760D02*
D03*
X7762240Y4800600D02*
D03*
X7764420Y4881880D02*
D03*
X7680777Y4921885D02*
D03*
X7922260Y3289300D02*
D03*
X7830820Y3291840D02*
D03*
X8006080Y3289300D02*
D03*
X7741920Y3291840D02*
D03*
X7680777Y4841875D02*
D03*
X8553519Y3328601D02*
D03*
X8229600Y3289300D02*
D03*
X8577580Y3828883D02*
D03*
X8778240Y3952240D02*
D03*
X8229321Y7668455D02*
D03*
X10313234Y4043680D02*
D03*
X9255760Y4859020D02*
D03*
Y4953000D02*
D03*
Y4907280D02*
D03*
X9232900Y4101315D02*
D03*
X9298940D02*
D03*
X9232900Y4045762D02*
D03*
X9298940D02*
D03*
X7955280Y7289800D02*
D03*
Y7406640D02*
D03*
Y7348220D02*
D03*
X9128760Y7350760D02*
D03*
Y7409180D02*
D03*
Y7292340D02*
D03*
X9514840Y3733800D02*
D03*
X9240520Y3731260D02*
D03*
X9306560D02*
D03*
X9372600D02*
D03*
X9446260Y3732698D02*
D03*
X10462260Y3421380D02*
D03*
X10375900D02*
D03*
X10462260Y3347720D02*
D03*
X10375900D02*
D03*
X10396220Y3271520D02*
D03*
X10309860D02*
D03*
X10325100Y3208020D02*
D03*
X10238740D02*
D03*
X10223500Y3139440D02*
D03*
X10137140D02*
D03*
X10165080Y3202940D02*
D03*
X10078720D02*
D03*
X10002520Y3159760D02*
D03*
X9916160D02*
D03*
X9751486Y3130559D02*
D03*
X9677826Y3133099D02*
D03*
X9162206Y3138179D02*
D03*
X9334926Y3135639D02*
D03*
X9591466Y3133099D02*
D03*
X9837846Y3130559D02*
D03*
X9507646Y3133099D02*
D03*
X9248566Y3135639D02*
D03*
X9075846Y3138179D02*
D03*
X9421286Y3133099D02*
D03*
X10462260Y3505200D02*
D03*
X10375900D02*
D03*
X10462260Y3563620D02*
D03*
X10375900D02*
D03*
X10462260Y3622040D02*
D03*
X10375900D02*
D03*
X10462260Y3677920D02*
D03*
X10375900D02*
D03*
Y3733800D02*
D03*
X10462260D02*
D03*
X9065260Y4051300D02*
D03*
Y4099560D02*
D03*
X9121140Y4051300D02*
D03*
Y4099560D02*
D03*
X9080500Y4333240D02*
D03*
X9141460Y4335780D02*
D03*
Y4386580D02*
D03*
X9123680Y5161280D02*
D03*
X9075420D02*
D03*
Y5212080D02*
D03*
X9123680Y5260340D02*
D03*
X9075420D02*
D03*
X9123680Y4871720D02*
D03*
Y4917440D02*
D03*
Y4963160D02*
D03*
X9516708Y7530428D02*
D03*
X9321115Y8173677D02*
D03*
X9281160Y8064500D02*
D03*
X8481060Y8067040D02*
D03*
X8351520Y7538720D02*
D03*
X8061960Y6207760D02*
D03*
X8221980Y8115300D02*
D03*
Y8168640D02*
D03*
X9387423Y6301740D02*
D03*
X9296400Y6510020D02*
D03*
X9385300Y6418580D02*
D03*
X9387423Y6510020D02*
D03*
X9494520D02*
D03*
X9491980Y6416040D02*
D03*
Y6301740D02*
D03*
X9596953D02*
D03*
Y6416040D02*
D03*
Y6510020D02*
D03*
X9680942Y7395325D02*
D03*
X7394660Y4297680D02*
D03*
Y4940300D02*
D03*
X8354060Y5404397D02*
D03*
X6936740Y5953760D02*
D03*
X7241540Y5765800D02*
D03*
X9253220Y5561650D02*
D03*
X9256539Y5706212D02*
D03*
X9230360Y5821680D02*
D03*
X9489857Y6115364D02*
D03*
X9619015Y6128871D02*
D03*
X10038737Y6204988D02*
D03*
X9804710Y6217620D02*
D03*
X9123680Y7162800D02*
D03*
X9230360Y7155180D02*
D03*
X9113958Y7050720D02*
D03*
X8974711Y6882509D02*
D03*
X8971280Y6764020D02*
D03*
X8872220Y6776720D02*
D03*
X7477760Y7091749D02*
D03*
X7541191Y7152640D02*
D03*
X7249160Y7160260D02*
D03*
X7360029Y7049391D02*
D03*
X7272122Y6713118D02*
D03*
X7227191Y6887589D02*
D03*
X7044164Y6660497D02*
D03*
X7040880Y6769100D02*
D03*
X7737257Y6532136D02*
D03*
X7634823D02*
D03*
X9940501Y4742180D02*
D03*
X7849677Y5850347D02*
D03*
X7854795Y6117545D02*
D03*
X7708696Y5977168D02*
D03*
X7844353Y5992917D02*
D03*
X7737257Y6115364D02*
D03*
X9489857Y5988241D02*
D03*
X9596953Y5992917D02*
D03*
X9825380Y7198129D02*
D03*
X9823500Y7393389D02*
D03*
X10137800Y7396160D02*
D03*
X10139680Y7200900D02*
D03*
X6299200Y3416300D02*
D03*
X10055140Y4865549D02*
D03*
X9938623Y6891276D02*
D03*
X9954260Y5885180D02*
D03*
X9953926Y5819842D02*
D03*
X10099040Y3982720D02*
D03*
X9931400Y5603240D02*
D03*
X10033000Y5057140D02*
D03*
X9941560D02*
D03*
X9987280D02*
D03*
Y4229100D02*
D03*
X9941560D02*
D03*
X10033000D02*
D03*
X10317102Y5331780D02*
D03*
X10319458Y4503740D02*
D03*
Y4874260D02*
D03*
X7284720Y4300220D02*
D03*
Y4406900D02*
D03*
X7287260Y4508500D02*
D03*
Y4620260D02*
D03*
Y4724400D02*
D03*
Y4833620D02*
D03*
Y4937760D02*
D03*
Y5044440D02*
D03*
Y5153660D02*
D03*
X7716520Y5511800D02*
D03*
X7823200Y5466080D02*
D03*
X7995920Y5506720D02*
D03*
X7874762Y5404400D02*
D03*
X7994650D02*
D03*
X8114538D02*
D03*
X8116763Y5506340D02*
D03*
X8237220D02*
D03*
Y5404400D02*
D03*
X8356600Y5514340D02*
D03*
X8754660Y4803140D02*
D03*
X8867140D02*
D03*
X8754660Y4681220D02*
D03*
X8867140Y4559300D02*
D03*
Y4681220D02*
D03*
X8867885Y4449892D02*
D03*
X8873359Y4310155D02*
D03*
X8788360Y4206240D02*
D03*
X8754660Y4449892D02*
D03*
Y4561840D02*
D03*
X7785100Y3980180D02*
D03*
X7952740Y3937000D02*
D03*
X7833360Y4039320D02*
D03*
X7955280D02*
D03*
X8074025D02*
D03*
X8181340Y3934460D02*
D03*
X8074660D02*
D03*
X8288020D02*
D03*
X8529320Y3937000D02*
D03*
X8633460Y4006022D02*
D03*
X8112760Y5763260D02*
D03*
X8235200Y5761902D02*
D03*
X8054340Y5943600D02*
D03*
Y5877560D02*
D03*
Y5819140D02*
D03*
X8295640Y6022340D02*
D03*
Y5971540D02*
D03*
Y5918200D02*
D03*
X8173720Y6891020D02*
D03*
X8008620Y6959600D02*
D03*
X7528560Y5880820D02*
D03*
X7635240D02*
D03*
X7741920D02*
D03*
X7421880Y5773420D02*
D03*
X7741920D02*
D03*
X7635240D02*
D03*
X7528560D02*
D03*
X9125011Y5819140D02*
D03*
X7125418Y6073860D02*
D03*
Y5973362D02*
D03*
X7185658Y5920740D02*
D03*
Y6027420D02*
D03*
X7084060Y6344920D02*
D03*
X7185658Y6347460D02*
D03*
Y6667500D02*
D03*
X7544743Y6894660D02*
D03*
X7643960D02*
D03*
X7722700D02*
D03*
X7579360Y6834420D02*
D03*
X7688580D02*
D03*
X8195502Y6705600D02*
D03*
X8162847Y6385560D02*
D03*
Y6492240D02*
D03*
X8223087Y6549553D02*
D03*
X8222533Y6439453D02*
D03*
X9786620Y5882640D02*
D03*
Y5941060D02*
D03*
X9758680Y5821680D02*
D03*
X9679750Y6954899D02*
D03*
X9522650D02*
D03*
X8817778Y6109684D02*
D03*
Y6265196D02*
D03*
X8834120Y5920740D02*
D03*
X8832632Y6027420D02*
D03*
X9387423Y5777865D02*
D03*
X10045696Y5930904D02*
D03*
Y5979164D02*
D03*
Y6022344D02*
D03*
X9494520Y5777865D02*
D03*
X9601200Y5850347D02*
D03*
X9915447Y6385560D02*
D03*
Y6492240D02*
D03*
X9977120Y6548120D02*
D03*
X9975133Y6436913D02*
D03*
X9334500Y6834420D02*
D03*
X9441180D02*
D03*
X8835172Y6667500D02*
D03*
X8938258D02*
D03*
X8830092Y6347460D02*
D03*
X8938258D02*
D03*
X9494520Y5880820D02*
D03*
X9272411Y6894971D02*
D03*
X9487620Y6894660D02*
D03*
X9387840D02*
D03*
X9948102Y6705600D02*
D03*
X10317480Y4556760D02*
D03*
X10205720D02*
D03*
X10261600D02*
D03*
Y5384800D02*
D03*
X10205720D02*
D03*
X10317480D02*
D03*
X8938258Y6027420D02*
D03*
Y5920740D02*
D03*
X9280083Y5880820D02*
D03*
X9387423D02*
D03*
X9240520Y3319780D02*
D03*
X9189720D02*
D03*
X9240520Y3268980D02*
D03*
X9189720D02*
D03*
X9240520Y3218180D02*
D03*
X9189720D02*
D03*
X6365240Y3416300D02*
D03*
X7734300Y5044440D02*
D03*
X8373424Y5037223D02*
D03*
X8214360Y5041900D02*
D03*
X8294337Y4986627D02*
D03*
X7976681Y5042370D02*
D03*
X7893135Y5042246D02*
D03*
X8430934Y4793803D02*
D03*
X8352462Y4673915D02*
D03*
X8352625Y4569907D02*
D03*
X8384707Y4422846D02*
D03*
X8339260Y4741799D02*
D03*
Y4501896D02*
D03*
D42*
X6520180Y3993556D02*
G03*
X6484315Y3906971I86585J-86585D01*
G01*
X9228690Y8130037D02*
G03*
X9210040Y8065580I102061J-64457D01*
G01*
X9245396Y8150935D02*
G03*
X9228690Y8130037I85355J-85355D01*
G01*
X9294626Y8173720D02*
G03*
X9249499Y8155040I0J-63847D01*
G01*
X9658640Y6023513D02*
G03*
X9706319Y5908405I162788J0D01*
G01*
X9601200Y5910587D02*
G03*
X9658640Y6049259I-138672J138672D01*
G01*
X7830820Y8653780D02*
X7889240D01*
X7964480D02*
X8016240D01*
X8091480Y8652510D02*
X8141970D01*
X8143240Y8653780D01*
X8218480D02*
X8270240D01*
X9294626Y8173720D02*
X9321073D01*
X6484315Y3862374D02*
Y3906971D01*
X7629652Y4881880D02*
X7764420D01*
X7630287Y4801235D02*
X7761605D01*
X7629652Y4801870D02*
X7630287Y4801235D01*
X7761605D02*
X7762240Y4800600D01*
X7624000Y3289300D02*
X7625270Y3290570D01*
X7740650D02*
X7741920Y3291840D01*
X7625270Y3290570D02*
X7740650D01*
X9245396Y8150936D02*
X9249499Y8155040D01*
X9321073Y8173720D02*
X9321115Y8173677D01*
X9335960Y8064500D02*
X9337040Y8065580D01*
X9281160Y8064500D02*
X9335960D01*
X8124000Y3416300D02*
X8291240D01*
X8308340Y3399200D01*
X8307660Y3398520D02*
X8308340Y3399200D01*
X9489857Y6107977D02*
Y6115364D01*
Y6107977D02*
X9497243Y6100590D01*
Y6059017D02*
Y6100590D01*
X9618640Y6057620D02*
X9618827Y6057807D01*
Y6128684D01*
X9619015Y6128871D01*
X7854795Y6110158D02*
X7864643Y6100310D01*
Y6085992D02*
Y6100310D01*
X7866040Y6057620D02*
Y6084596D01*
X7864643Y6085992D02*
X7866040Y6084596D01*
X7854795Y6110158D02*
Y6117545D01*
X7707368Y5978496D02*
Y6056292D01*
Y5978496D02*
X7708696Y5977168D01*
X7707300Y6056360D02*
X7707368Y6056292D01*
X7844353Y5992917D02*
Y5995693D01*
X7826040Y6014006D02*
X7844353Y5995693D01*
X7826040Y6014006D02*
Y6057620D01*
X7744643Y6059017D02*
X7746040Y6057620D01*
X7744643Y6059017D02*
Y6100590D01*
X9596953Y5992917D02*
Y5995693D01*
X9578640Y6014006D02*
Y6057620D01*
Y6014006D02*
X9596953Y5995693D01*
X9459900Y6018197D02*
X9489857Y5988241D01*
X9459900Y6018197D02*
Y6056360D01*
X9458640Y6057620D02*
X9459900Y6056360D01*
X9497243Y6059017D02*
X9498640Y6057620D01*
X9658640Y6023513D02*
Y6049259D01*
Y6057620D01*
D43*
X109955Y7073705D02*
G03*
X35560Y6894099I179605J-179605D01*
G01*
X86898Y6477538D02*
G03*
X35560Y6353597I123940J-123940D01*
G01*
X271780Y4711700D02*
G03*
X241300Y4638115I73585J-73585D01*
G01*
Y4620316D02*
G03*
X275712Y4537238I117490J0D01*
G01*
X241300Y3943375D02*
G03*
X286447Y3834263I154425J0D01*
G01*
D02*
G03*
X286530Y3834180I109278J109112D01*
G01*
X345365Y4742180D02*
G03*
X271780Y4711700I0J-104065D01*
G01*
X194346Y4864950D02*
G03*
X229996Y4778884I121715J0D01*
G01*
D02*
G03*
X318608Y4742180I88612J88612D01*
G01*
X194346Y5230456D02*
G03*
X109955Y5412005I-237476J0D01*
G01*
X35560Y5591610D02*
G03*
X109955Y5412005I254000J0D01*
G01*
X317840Y6603270D02*
G03*
X138235Y6528875I0J-254000D01*
G01*
X622299Y4629444D02*
G03*
X589280Y4709160I-112736J0D01*
G01*
X589216Y4709225D02*
G03*
X575663Y4720769I-79652J-79781D01*
G01*
X589280Y4709160D02*
G03*
X589216Y4709225I-79717J-79717D01*
G01*
X535383Y4739184D02*
G03*
X509563Y4742180I-25820J-109740D01*
G01*
X561077Y4731326D02*
G03*
X552909Y4735060I-13403J-18518D01*
G01*
X2337095Y3256575D02*
G03*
X2337146Y3256626I-117295J117397D01*
G01*
X2219800Y3208020D02*
G03*
X2337095Y3256575I0J165952D01*
G01*
X2337197Y3256677D02*
G03*
X2385752Y3373972I-117397J117295D01*
G01*
X2337146Y3256626D02*
G03*
X2337197Y3256677I-117346J117346D01*
G01*
X2479964Y4018280D02*
G03*
X2413346Y3990686I0J-94211D01*
G01*
D02*
G03*
X2385752Y3924069I66617J-66617D01*
G01*
X3977640Y3982720D02*
G03*
X3891791Y4018280I-85849J-85849D01*
G01*
X4013200Y3896871D02*
G03*
X3977640Y3982720I-121409J0D01*
G01*
X4047733Y3490987D02*
G03*
X4130952Y3456542I83219J83308D01*
G01*
X4013200Y3574294D02*
G03*
X4047689Y3491031I117752J0D01*
G01*
D02*
G03*
X4047733Y3490987I83263J83263D01*
G01*
X5186879Y3411021D02*
G03*
X5296777Y3365500I109898J109898D01*
G01*
X5186836Y3411064D02*
G03*
X5076981Y3456542I-109855J-109940D01*
G01*
X5186879Y3411021D02*
G03*
X5186836Y3411064I-109898J-109898D01*
G01*
X6356532Y3352052D02*
G03*
X6324065Y3365500I-32467J-32467D01*
G01*
X6356637Y3351948D02*
G03*
X6356532Y3352052I-32037J-32168D01*
G01*
X6356768Y3351817D02*
G03*
X6356637Y3351948I-32168J-32037D01*
G01*
X6357473Y3351093D02*
G03*
X6356768Y3351817I-32873J-31313D01*
G01*
X622300Y3514252D02*
G03*
X687873Y3356093I223520J0D01*
G01*
X770373Y3273593D02*
G03*
X928532Y3208020I158158J157947D01*
G01*
X109955Y7073705D02*
X331760Y7295510D01*
X35560Y5591610D02*
Y6353597D01*
Y6894099D01*
X241300Y3943375D02*
Y4602517D01*
Y4620316D02*
Y4638115D01*
X275712Y4537238D02*
X331760Y4481190D01*
X286530Y3834180D02*
X331760Y3788950D01*
X345365Y4742180D02*
X509563D01*
X318608D02*
X345365D01*
X194346Y4864950D02*
Y5230456D01*
Y5230456D01*
X86898Y6477538D02*
X138235Y6528875D01*
X317840Y6603270D02*
X331760D01*
X622300Y3514251D02*
Y3514252D01*
X561077Y4731326D02*
X575663Y4720769D01*
X535383Y4739183D02*
X552909Y4735060D01*
X622299Y4333428D02*
Y4629444D01*
X928532Y3208020D02*
X2219800D01*
X2385752Y3373972D02*
Y3924069D01*
X2479964Y4018280D02*
X3891791D01*
X4013200Y3574294D02*
Y3896871D01*
X4130952Y3456542D02*
X5076981D01*
X5296777Y3365500D02*
X6324065D01*
X6357473Y3351093D02*
X6370000Y3337942D01*
X6398660Y3307855D01*
X6410960Y3295555D01*
X622299Y4333428D02*
X622300Y3514252D01*
X687873Y3356093D02*
X749764Y3294201D01*
X770373Y3273593D01*
X9868180Y6891555D02*
X9938343D01*
X9867900Y6891835D02*
X9868180Y6891555D01*
X9938343D02*
X9938623Y6891276D01*
D44*
X484158Y6860072D02*
D03*
Y4045802D02*
D03*
X484174Y4478357D02*
D03*
Y7292627D02*
D03*
D45*
X484158Y6670072D02*
D03*
Y3855802D02*
D03*
X484174Y4668357D02*
D03*
Y7482627D02*
D03*
D46*
X7889240Y8653780D02*
D03*
X8143240D02*
D03*
X8270240D02*
D03*
X8397240D02*
D03*
X8016240D02*
D03*
X9171940Y8651240D02*
D03*
X9425940D02*
D03*
X9552940D02*
D03*
X9679940D02*
D03*
X9298940D02*
D03*
D47*
X8524240Y8653780D02*
D03*
X9806940Y8651240D02*
D03*
D48*
X8124000Y3416300D02*
D03*
Y3543300D02*
D03*
Y3289300D02*
D03*
X7624000Y3670300D02*
D03*
Y3543300D02*
D03*
Y3416300D02*
D03*
Y3289300D02*
D03*
D49*
X8124000Y3670300D02*
D03*
D50*
X8653780Y5372100D02*
D03*
X8717420Y5435740D02*
D03*
X8793620Y5359540D02*
D03*
X8729980Y5295900D02*
D03*
D51*
X9438640Y6357620D02*
D03*
X7686040D02*
D03*
D52*
X9738640Y6137620D02*
D03*
Y6177620D02*
D03*
Y6217620D02*
D03*
Y6257620D02*
D03*
Y6297620D02*
D03*
Y6337620D02*
D03*
Y6377620D02*
D03*
Y6417620D02*
D03*
Y6457620D02*
D03*
Y6497620D02*
D03*
Y6537620D02*
D03*
Y6577620D02*
D03*
X9138640D02*
D03*
Y6537620D02*
D03*
Y6497620D02*
D03*
Y6457620D02*
D03*
Y6417620D02*
D03*
Y6377620D02*
D03*
Y6337620D02*
D03*
Y6297620D02*
D03*
Y6257620D02*
D03*
Y6217620D02*
D03*
Y6177620D02*
D03*
Y6137620D02*
D03*
X7386040D02*
D03*
Y6177620D02*
D03*
Y6217620D02*
D03*
Y6257620D02*
D03*
Y6297620D02*
D03*
Y6337620D02*
D03*
Y6377620D02*
D03*
Y6417620D02*
D03*
Y6457620D02*
D03*
Y6497620D02*
D03*
Y6537620D02*
D03*
Y6577620D02*
D03*
X7986040D02*
D03*
Y6537620D02*
D03*
Y6497620D02*
D03*
Y6457620D02*
D03*
Y6417620D02*
D03*
Y6377620D02*
D03*
Y6337620D02*
D03*
Y6297620D02*
D03*
Y6257620D02*
D03*
Y6217620D02*
D03*
Y6177620D02*
D03*
Y6137620D02*
D03*
D53*
X9658640Y6657620D02*
D03*
X9618640D02*
D03*
X9578640D02*
D03*
X9538640D02*
D03*
X9498640D02*
D03*
X9458640D02*
D03*
X9418640D02*
D03*
X9378640D02*
D03*
X9338640D02*
D03*
X9298640D02*
D03*
X9258640D02*
D03*
X9218640D02*
D03*
Y6057620D02*
D03*
X9258640D02*
D03*
X9298640D02*
D03*
X9338640D02*
D03*
X9378640D02*
D03*
X9418640D02*
D03*
X9458640D02*
D03*
X9498640D02*
D03*
X9538640D02*
D03*
X9578640D02*
D03*
X9618640D02*
D03*
X9658640D02*
D03*
X7906040D02*
D03*
X7866040D02*
D03*
X7826040D02*
D03*
X7786040D02*
D03*
X7746040D02*
D03*
X7706040D02*
D03*
X7666040D02*
D03*
X7626040D02*
D03*
X7586040D02*
D03*
X7546040D02*
D03*
X7506040D02*
D03*
X7466040D02*
D03*
Y6657620D02*
D03*
X7506040D02*
D03*
X7546040D02*
D03*
X7586040D02*
D03*
X7626040D02*
D03*
X7666040D02*
D03*
X7706040D02*
D03*
X7746040D02*
D03*
X7786040D02*
D03*
X7826040D02*
D03*
X7866040D02*
D03*
X7906040D02*
D03*
D54*
X8519668Y5081778D02*
D03*
X8519668Y5041900D02*
D03*
X8519668Y5001768D02*
D03*
Y4881880D02*
D03*
Y4961890D02*
D03*
Y4921758D02*
D03*
Y4761738D02*
D03*
Y4841748D02*
D03*
Y4801870D02*
D03*
Y4641850D02*
D03*
Y4721860D02*
D03*
Y4681982D02*
D03*
Y4601972D02*
D03*
Y4561840D02*
D03*
Y4521962D02*
D03*
X8519668Y4401820D02*
D03*
X8519668Y4361942D02*
D03*
Y4481830D02*
D03*
Y4441952D02*
D03*
X7629652Y5081778D02*
D03*
X7629652Y5041900D02*
D03*
X7629652Y5001768D02*
D03*
Y4961890D02*
D03*
Y4841748D02*
D03*
Y4921758D02*
D03*
Y4881880D02*
D03*
Y4801870D02*
D03*
Y4761738D02*
D03*
Y4641850D02*
D03*
Y4721860D02*
D03*
Y4681982D02*
D03*
Y4601972D02*
D03*
Y4561840D02*
D03*
Y4441952D02*
D03*
Y4521962D02*
D03*
Y4481830D02*
D03*
X7629652Y4401820D02*
D03*
X7629652Y4361942D02*
D03*
D55*
X8394700Y5166868D02*
D03*
X8434578Y5166868D02*
D03*
X8314690D02*
D03*
X8354568D02*
D03*
X8154670D02*
D03*
X8194548D02*
D03*
X8074660D02*
D03*
X8114538D02*
D03*
X8274558D02*
D03*
X8234680D02*
D03*
X8434578Y4276852D02*
D03*
X8394700Y4276852D02*
D03*
X8314690Y4276852D02*
D03*
X8354568D02*
D03*
X8194548D02*
D03*
X8234680D02*
D03*
X8114538D02*
D03*
X8154670D02*
D03*
X8274558D02*
D03*
X7994650Y5166868D02*
D03*
X8034782D02*
D03*
X7914640D02*
D03*
X7954772D02*
D03*
X7794752D02*
D03*
X7834630D02*
D03*
X7754620Y5166868D02*
D03*
X7714742Y5166868D02*
D03*
X7874762D02*
D03*
X8034782Y4276852D02*
D03*
X8074660D02*
D03*
X7954772D02*
D03*
X7994650D02*
D03*
X7834630D02*
D03*
X7874762D02*
D03*
X7714742D02*
D03*
X7794752D02*
D03*
X7914640D02*
D03*
X7754620Y4276852D02*
D03*
D56*
X8074660Y4721860D02*
D03*
D57*
X8908050Y6950538D02*
D03*
X9056542Y7099030D02*
D03*
X9028258Y6830330D02*
D03*
X9176750Y6978822D02*
D03*
X7424150D02*
D03*
X7275658Y6830330D02*
D03*
X7303942Y7099030D02*
D03*
X7155450Y6950538D02*
D03*
X8780510Y3664122D02*
D03*
X8660302Y3784330D02*
D03*
X8632018Y3515630D02*
D03*
X8511810Y3635838D02*
D03*
D58*
X9325681Y7059859D02*
D03*
X9262041Y7123499D02*
D03*
X8778240Y6873240D02*
D03*
X8841880Y6809600D02*
D03*
X7509441Y7123499D02*
D03*
X7573081Y7059859D02*
D03*
X7025640Y6873240D02*
D03*
X7089280Y6809600D02*
D03*
X8489879Y3450661D02*
D03*
X8553519Y3387021D02*
D03*
X8803780Y3850500D02*
D03*
X8740140Y3914140D02*
D03*
D59*
X8153400Y5869940D02*
D03*
X8298400D02*
D03*
X9906000D02*
D03*
X10051000D02*
D03*
D60*
X6404280Y3422344D02*
D03*
X6444285D02*
D03*
X6484290D02*
D03*
X6524295D02*
D03*
X6404305Y3862374D02*
D03*
X6444310D02*
D03*
X6484315D02*
D03*
X6524320D02*
D03*
D61*
X6294298Y3462375D02*
D03*
Y3502380D02*
D03*
Y3542359D02*
D03*
Y3622369D02*
D03*
Y3582364D02*
D03*
X6634302Y3502354D02*
D03*
Y3462349D02*
D03*
Y3582339D02*
D03*
Y3542359D02*
D03*
Y3622344D02*
D03*
X6294298Y3662374D02*
D03*
Y3702379D02*
D03*
Y3782364D02*
D03*
Y3742359D02*
D03*
Y3822369D02*
D03*
X6634302Y3702354D02*
D03*
Y3742359D02*
D03*
Y3782339D02*
D03*
Y3662349D02*
D03*
Y3822344D02*
D03*
D62*
X6464300Y3642359D02*
D03*
D63*
X5735116Y6469476D02*
D03*
X1341116D02*
D03*
X5735116Y3662126D02*
D03*
X1341116D02*
D03*
D64*
X5114116Y6619476D02*
D03*
X4987116D02*
D03*
X4860116D02*
D03*
X4733116D02*
D03*
X4606116D02*
D03*
X4479116D02*
D03*
X4352116D02*
D03*
X3717116D02*
D03*
X3590116D02*
D03*
X3463116D02*
D03*
X3336116D02*
D03*
X3209116D02*
D03*
X3082116D02*
D03*
X2955116D02*
D03*
X2828116D02*
D03*
X2701116D02*
D03*
X2574116D02*
D03*
X2447116D02*
D03*
X2320116D02*
D03*
X2193116D02*
D03*
X2066116D02*
D03*
X1939116D02*
D03*
X5114116Y3812126D02*
D03*
X4987116D02*
D03*
X4860116D02*
D03*
X4733116D02*
D03*
X4606116D02*
D03*
X4479116D02*
D03*
X4352116D02*
D03*
X3717116D02*
D03*
X3590116D02*
D03*
X3463116D02*
D03*
X3336116D02*
D03*
X3209116D02*
D03*
X3082116D02*
D03*
X2955116D02*
D03*
X2828116D02*
D03*
X2701116D02*
D03*
X2574116D02*
D03*
X2447116D02*
D03*
X2320116D02*
D03*
X2193116D02*
D03*
X2066116D02*
D03*
X1939116D02*
D03*
D65*
X7893135Y5042246D02*
X7893197Y5042308D01*
X7976620D02*
X7976681Y5042370D01*
%TF.MD5,53341cc0702c5135ea946f126401f3a2*%
M02*
