M48
;Layer_Color=9474304
;FILE_FORMAT=4:4
METRIC,LZ
;TYPE=PLATED
T01F00S00C0.3000
T02F00S00C0.7000
T03F00S00C0.7010
T04F00S00C2.3089
;TYPE=NON_PLATED
T05F00S00C1.2000
%
T01
X0009271Y0033147
X00096266Y00335026
X00184129Y00355367
X00195051Y00366035
X00205719Y00376703
X00216895Y00366035
X00205719Y00354605
X00195305Y00344699
X00231902Y00332232
X00257412Y00350194
X0027686Y0033528
X00273304Y00324612
X00284085Y00328272
X00290576Y00337312
X00312616Y00337475
X00308212Y00350194
X00320912
X00305308Y0032258
X00360426Y00321818
X00355854Y00338582
X00373126Y00337058
X00384302Y00324866
X00395478Y00340614
X00295656Y0039624
X00282448
X00269748
X00435212Y00350194
X00436648Y00337758
X00452294Y00338537
X00469143Y00338962
X00473312Y00350194
X00462276Y00326289
X00434029Y00323599
X00521208Y00381254
X0059055Y0037954
Y0038481
Y0039224
X0058673Y0038861
X00592074Y00374396
X00597746Y0037499
X00601472Y00378716
X00606585Y00379992
X00612224Y00378546
X0061595Y00382272
X00621538Y00382888
X0062357Y00393289
X00639318Y00362458
X0064643
X00653796
X00636524Y0034163
X0062992
X0061976Y00342392
X0061595Y00346202
X00612224Y00349929
X00606735Y00349495
X00601472Y00349758
X00597746Y00353484
X00593598Y00357124
X0063246Y00331978
Y00327628
X00774192Y00329184
X00783082
X00792226Y0032893
X00800608
X0082296
X00855352Y0033286
X00857758Y00382888
X00852932Y003937
X00828802Y00393446
X00818134
X00807466
X00795274Y003937
X00824484Y0038227
X00877824Y00395224
X00924052Y00373126
X00930656
X0093726
X00944626Y0037327
X00951484Y0037338
X00950765Y0031331
X00959147
X00967783
X00975149Y00313056
X00983785
X00991616Y00315976
X01000252
X01007872Y00320294
X01016508
X01023874Y00320802
X0102235Y00313944
X01013714
X0103251Y00320802
X01030986Y00327152
X01039622
X0103759Y00334772
Y00342138
Y0035052
Y00356362
Y00362204
Y00367792
Y0037338
X01046226
Y00367792
Y00362204
Y00356362
Y0035052
Y00342138
Y00334772
X00924052Y00331978
X00918972
Y00326898
X00924052
Y00321818
X00918972
X00916221Y00313818
X00907585
X00924857Y00313564
X00933493
X00942129Y0031331
X00929894Y00404576
Y00410131
X0092329
Y00404576
X00912114Y0040513
Y00409956
X00906526
Y0040513
X0090805Y00433324
X00914146Y00433578
Y00438658
X00890016Y00440823
Y00435553
X00887336Y00431016
X00886788Y00444989
X00886714Y0045593
X00875466Y00456184
Y00444989
Y00468122
X00886714
Y00480314
X00875466
X00878514Y00492138
X00861568Y00495548
Y00500818
X00837342Y00503722
X00832097Y0050321
X0082677
X00821436Y0050419
X00829434Y00498663
X00833926Y0047418
X0083849Y00476815
Y00471545
X00835246Y00467392
X00835263Y00456991
X0083849Y00452825
Y00447555
X00838471Y00442285
X00833926Y0045019
X00845058Y00459556
Y00464826
X00843093Y0047938
X00812038Y0047752
Y0047244
X00806704
Y0047752
Y00465582
Y00460502
X00812038
Y00465582
Y00452882
Y00447802
X00806704
Y00452882
X00807402Y00403932
X00795528
X00863346Y00400602
X00878836Y00420624
X00907542Y00487172
Y00491744
Y00496316
X00912368
Y00491744
Y00487172
X00925576Y00485902
Y00490728
Y004953
X00912368Y00516128
X00907542
Y00521208
X00912368
Y00526034
X00907542
X00887526Y00540794
X00882989Y00543475
X00879263Y00547201
X00876226Y00551508
X0083566Y00551434
X00835406Y0054044
X00823722Y0054044
Y00550634
X00811676
X00811454Y0054044
X00799465
X00799592Y00550672
X00802837Y0052451
X00808107
X00796106Y0050927
X00797668Y00504237
X00838829Y00528066
X00844099
X00820007Y00572262
X00814737
X00811276Y00576326
X00805434Y00581914
Y00587756
Y0059436
X00829564Y0059182
Y00597154
Y00602234
X0082352Y0057619
X00806196Y00620776
X00816285Y00638556
Y00649224
X00822253Y00643945
X00822309Y00654955
X0081955Y0067056
X00817372Y00689102
X00800862Y0069596
X00795528Y0072898
Y00734822
Y00740664
X00835152Y00753872
X00822932Y00766845
X009378Y00765975
X00941313Y0077924
Y0078451
X00951671Y00753043
X00968094Y00739532
X00972309Y00742696
X00977579
X0098235Y00739339
X00982538Y00719813
X01013968Y0072009
X0101378Y00739616
X01015492Y00751732
Y00757002
X01040336Y00741137
X01044194Y00744728
X00993862Y00689128
X0099481Y0067056
X00997712Y00654812
X00997513Y00643691
X00991545Y00638556
Y00649224
X00959695Y00651002
Y00641604
X00949198
X00949452Y00651002
X00946499Y0065786
X00941229
X00938742Y00651002
X0092964
X0093853Y00641858
X00938742Y00630174
X00949198
X00959695
X00961901Y00612887
X00948986Y00611536
Y00598824
X00959695Y00599292
X0096012Y00585035
X00949452Y00588082
Y00577786
X00938742
Y00588082
X00928008
X00923036Y00582168
X00912501Y00581914
X00925654Y00570621
X00925322Y00556165
X00922274Y00615127
Y00620397
X00880617Y00621379
Y00616109
X00881778Y00610968
X00883263Y00602742
X00893826
Y00592074
X00883412
X00881778Y0062652
X00883009Y00634746
X00893826
X00878719Y00643197
X00880618Y00648113
Y00653383
X00878719Y00658299
X00883517Y0066675
X00893826
X00897128Y00676402
X00887222Y00677672
X00897471Y00688251
X00911396Y00705072
X00912368Y0071628
X00923036Y00715518
X00912876Y00729234
Y00735076
Y00740918
X00927241Y00689497
X00938784Y00689466
X00948762
X00952265Y0069549
X00957485Y00696214
X00962755
X00967975Y0069549
X00944118Y00683442
X0093345
X00980471Y00621762
X01003874Y00620499
X0100457Y00602234
Y00597916
Y0059309
X00995426Y00588518
X00995393Y00581984
X00975868Y00582168
X00978662Y00588264
Y00594106
X0099314Y00560324
X01020572Y0053848
X0102616
X01031748
X0103171Y00533178
X01031946Y00487426
X01005514Y00486555
X010033Y00505714
X00998728
X00994156
X0099405Y00474218
X01020572Y00455676
X0102616
X01031748
X01031946Y00450374
X01031323Y00404368
X01009904Y00398272
X010033Y0042291
X00998728
X00994156
X00783336Y00403932
X0077851Y00398018
X0078359Y00447802
Y00452882
X00788924
Y00447802
Y00460756
Y00465836
X0078359
Y00460756
Y00472694
Y00477774
X00788924
Y00472694
X00776224Y0048006
X00776442Y00488188
X00768078Y00492188
Y00484188
X0077343Y00504444
X00778834Y00503428
X00784104
X00789314Y00504225
X00790836Y0050927
X00787476Y0054044
X0078232Y00546608
X00771652Y0055118
X00774192Y00577342
X00763524
X00752856
X00742188
X00724154Y0057658
X00718566Y00592074
Y00602742
X00712542Y00607386
Y00597336
X00693674Y00595376
X0070485Y00610693
X00705357Y00616109
Y00621379
X00705358Y00626649
X00708406Y00634492
X00718566Y00634746
X00705358Y00648113
Y00653383
X00700616Y00655681
X00700871Y00645349
X00704416Y0066605
X0069977Y00668536
Y00673806
X00704088Y0067691
X00718566Y0066675
X00727212Y00671312
X00722719Y00688759
X00724916Y00716026
X00736003Y00704939
X00747776Y00709175
X00754119Y00715264
X00754474Y00689466
X00757936Y00683442
X00768858
X0077227Y00689466
X00764396
X00777005Y0069549
X00782225Y00696214
X00787495
X00792715Y0069549
X00771239Y0065786
X00765969
X00763482Y00653214
X00773726
X00776732Y00645668
X00770483Y00645567
X00783082Y00645668
X00780034Y00634492
X00773176Y00634238
X0076708
X00760984
X00755142
Y00622554
X00760984
X0076708
X00773176
X00780034
X0078548Y00611754
X00773726Y00611536
X0077087Y00597717
X00774192Y00588082
X00763524
X00752856
X00747014Y00615127
Y00620397
X00784435Y00599292
X00784968Y00585035
X00728726Y00515366
Y00504444
Y00493776
Y00483362
Y0047244
Y00462026
Y0045085
X00728472Y0044069
Y00430022
X00739466Y00429768
X00750316Y00468376
X00739466Y0049403
X00586232Y00413559
X00589788Y0040967
Y004044
X00594173Y00401347
X0059055Y0039751
X00511412Y00630929
X0048458Y00635248
X00473312Y00630929
X00454111Y00623295
X00435212Y00630929
X0043038Y00607885
X00443798Y00603373
X00465836Y00606298
X00477774Y00601218
X00663702Y00676371
Y00681641
Y00686911
Y00692181
X00394716Y00632206
X00387898Y00608647
X0037592Y0061976
X0035941Y00629666
X00361472Y00603783
X00298958Y00603504
X00291846Y00607314
X00290068Y00624078
X00281178Y00632714
X00257412Y00630929
X00232012
X00277368Y00602742
X00308864Y0061722
X00308212Y00630929
X00320912
X00295656Y00676402
X00282702
X00270256
X00185674Y00686562
X00178308Y00693928
X00168148Y00683514
X0017526Y00675894
X00132842Y00691134
X00135636Y00715518
X00128016Y00723138
X00138684Y00733806
X00146304Y0072644
X0011303Y00671576
X0009906Y006731
X0009398
Y0068072
X0009906
Y0066548
X0009398
X00063754Y0062992
Y00624586
X00057404
Y0062992
X00054102Y00611378
X00047752Y00611124
X00041402
X00034798
X00014478Y00609346
X00009398Y00616966
Y00622808
Y00628142
X0001778Y0064008
X0002286
Y0064516
X0001778
X00014478Y00566238
X00036068Y00580136
X00044958
X0005334
X00048442Y00563984
X000508Y00515112
X00048514Y00506222
X00056388Y00506476
X00055372Y00484124
X00049022
X00042418
X00036068
X00014478Y00482346
X00007366Y00493014
Y00500126
Y00507492
X00014224Y00515112
X00024638
X00037846
X00041402Y0045593
X00047244
X00053099Y00455761
X00048442Y0043688
X00014478Y00439238
X00127254Y00444246
X0013462
X00144526Y00437896
X00133858Y00427228
X00122936Y0041656
X00134112Y00405892
X00144526Y00415798
X00155702Y00427228
X0013462Y00463042
X00127254
Y00471932
X0013462
Y00491236
X00127254
Y00499364
X0013462
Y00571754
X00127508
X00129794Y00589788
X0013589Y00590042
Y00619252
X00129286
X00129032Y0062738
X0013589
X00117602Y0079248
X00109982
X00102362
X00058928Y00765302
Y00760222
X00051308
Y00765302
X00043688
Y00760222
X00102362Y0079756
X00109982
X00117602
X00126238Y00808228
Y00813308
X00133858
Y00808228
X00141478
Y00813308
X00141986Y00839978
Y00845058
X00134366
Y00839978
X00126746
Y00845058
Y00852932
Y00858012
X00134366
Y00852932
X00141986
Y00858012
X00143002Y00870204
Y00875284
X00135382
Y00870204
X00127762
Y00875284
X0011938Y00867156
Y00862076
X0011176
Y00867156
X0010414
Y00862076
X00093218Y00857758
Y00852678
X00085598
Y00857758
X00077978
Y00852678
X00078486Y0086995
Y0087503
X00086106
Y0086995
X00093726
Y0087503
X00783082Y00865378
X00796448
X00809148Y00865251
X00821848Y00865378
X00839724Y00875487
X00822198Y00816864
Y0081153
X00848106Y00806704
X00928116Y0080645
X00932112Y00817368
X0093507Y00865124
X0092237
X0094777
X0096047Y00865378
X00967994Y00872744
X0097822Y00804768
Y00799498
X00982189Y00793928
X01018032Y00799497
Y00804767
X01034542Y00803402
T02
X0097672Y00778131
X0101972
Y00826133
X0097672
T03
X00873297Y00762127
X00888283Y00767131
Y00792124
X00873297Y00782142
X00759435Y00792124
X00744449Y00782142
Y00762127
X00759435Y00767131
Y0081214
X00744449Y00822122
Y00802132
Y00842137
X00759435Y00837133
X00873297Y00842137
X00888283Y00837133
Y0081214
X00873297Y00822122
Y00802132
T04
X00887292Y00738124
X00758444
Y0086614
X00887292
T05
X00161612Y00366213
X00541612
Y00646948
X00161612
M30
