%TF.GenerationSoftware,Altium Limited,Altium Designer,24.0.1 (36)*%
G04 Layer_Physical_Order=1*
G04 Layer_Color=152*
%FSLAX45Y45*%
%MOMM*%
%TF.SameCoordinates,B6A243B4-E260-46CF-AFF0-E69CB888832F*%
%TF.FilePolarity,Positive*%
%TF.FileFunction,Copper,L1,Top,Signal*%
%TF.Part,Single*%
G01*
G75*
%TA.AperFunction,Conductor*%
%ADD10C,0.12954*%
%ADD11C,0.15240*%
%ADD12C,0.10897*%
%ADD13C,1.27000*%
%ADD14C,0.50800*%
%ADD15C,0.20320*%
%TA.AperFunction,SMDPad,CuDef*%
%ADD16R,0.50000X0.50000*%
%ADD17R,1.92001X1.72400*%
%ADD18R,0.88900X1.27000*%
%ADD19R,0.50000X0.50000*%
%ADD20R,1.00000X0.45000*%
%ADD21R,1.00000X0.30000*%
%ADD22R,0.20000X0.56500*%
%ADD23R,0.40000X0.56500*%
%ADD24C,1.00000*%
%TA.AperFunction,ConnectorPad*%
G04:AMPARAMS|DCode=25|XSize=2mm|YSize=3.5mm|CornerRadius=0mm|HoleSize=0mm|Usage=FLASHONLY|Rotation=315.000|XOffset=0mm|YOffset=0mm|HoleType=Round|Shape=Rectangle|*
%AMROTATEDRECTD25*
4,1,4,-1.94455,-0.53033,0.53033,1.94455,1.94455,0.53033,-0.53033,-1.94455,-1.94455,-0.53033,0.0*
%
%ADD25ROTATEDRECTD25*%

G04:AMPARAMS|DCode=26|XSize=1.2mm|YSize=3.5mm|CornerRadius=0mm|HoleSize=0mm|Usage=FLASHONLY|Rotation=135.000|XOffset=0mm|YOffset=0mm|HoleType=Round|Shape=Rectangle|*
%AMROTATEDRECTD26*
4,1,4,1.66170,0.81317,-0.81317,-1.66170,-1.66170,-0.81317,0.81317,1.66170,1.66170,0.81317,0.0*
%
%ADD26ROTATEDRECTD26*%

%ADD27R,3.59999X3.79999*%
%ADD28R,4.39999X2.80010*%
%ADD29R,7.00001X2.80010*%
%TA.AperFunction,SMDPad,CuDef*%
%ADD30R,1.00000X2.70000*%
%ADD31O,1.00000X2.70000*%
G04:AMPARAMS|DCode=32|XSize=0.8mm|YSize=2.5mm|CornerRadius=0mm|HoleSize=0mm|Usage=FLASHONLY|Rotation=315.000|XOffset=0mm|YOffset=0mm|HoleType=Round|Shape=Rectangle|*
%AMROTATEDRECTD32*
4,1,4,-1.16673,-0.60104,0.60104,1.16673,1.16673,0.60104,-0.60104,-1.16673,-1.16673,-0.60104,0.0*
%
%ADD32ROTATEDRECTD32*%

G04:AMPARAMS|DCode=33|XSize=1.95mm|YSize=1.5mm|CornerRadius=0mm|HoleSize=0mm|Usage=FLASHONLY|Rotation=45.000|XOffset=0mm|YOffset=0mm|HoleType=Round|Shape=Rectangle|*
%AMROTATEDRECTD33*
4,1,4,-0.15910,-1.21976,-1.21976,-0.15910,0.15910,1.21976,1.21976,0.15910,-0.15910,-1.21976,0.0*
%
%ADD33ROTATEDRECTD33*%

%ADD34R,0.50000X1.50000*%
%ADD35O,0.50000X1.50000*%
%TA.AperFunction,Conductor*%
%ADD36C,0.38100*%
%TA.AperFunction,ComponentPad*%
%ADD37C,2.99974*%
%ADD38C,1.19888*%
%ADD39C,1.30000*%
%ADD40C,1.00000*%
%TA.AperFunction,ViaPad*%
%ADD41C,0.40000*%
G36*
X1490980Y8727440D02*
Y7142480D01*
X1427480Y7078980D01*
X1143000D01*
Y7081520D01*
X1061720Y7162800D01*
X942340D01*
X850900Y7254240D01*
Y7555757D01*
X860485Y7563570D01*
X889448D01*
X890821Y7564139D01*
X892295Y7563944D01*
X920271Y7571441D01*
X921450Y7572346D01*
X922923Y7572540D01*
X948007Y7587021D01*
X948911Y7588200D01*
X950284Y7588769D01*
X970765Y7609249D01*
X971333Y7610622D01*
X972512Y7611527D01*
X986994Y7636610D01*
X987188Y7638084D01*
X988093Y7639263D01*
X995589Y7667239D01*
X995395Y7668712D01*
X995963Y7670085D01*
Y7699049D01*
X995395Y7700421D01*
X995589Y7701895D01*
X988093Y7729872D01*
X987188Y7731050D01*
X986994Y7732524D01*
X972512Y7757607D01*
X971333Y7758512D01*
X970765Y7759885D01*
X950284Y7780365D01*
X948911Y7780934D01*
X948007Y7782112D01*
X922923Y7796594D01*
X921450Y7796788D01*
X920271Y7797693D01*
X892295Y7805189D01*
X890821Y7804995D01*
X889448Y7805564D01*
X860485D01*
X859112Y7804995D01*
X857639Y7805189D01*
X829662Y7797693D01*
X828483Y7796788D01*
X827010Y7796594D01*
X801927Y7782113D01*
X792480Y7785100D01*
X127000D01*
X60960Y7851140D01*
Y8676640D01*
X231140Y8846820D01*
X1371600D01*
X1490980Y8727440D01*
D02*
G37*
G36*
X795020Y7683500D02*
Y6990080D01*
X759460Y6954520D01*
X314960D01*
X269240Y7000240D01*
Y7152640D01*
X233680Y7188200D01*
X58420D01*
X10160Y7236460D01*
Y7678420D01*
X86360Y7754620D01*
X723900D01*
X795020Y7683500D01*
D02*
G37*
G36*
X1076960Y6809740D02*
Y6614160D01*
X1041400Y6578600D01*
X853440D01*
X635000Y6360160D01*
X91440D01*
X48260Y6403340D01*
Y6781800D01*
X116840Y6850380D01*
X1036320D01*
X1076960Y6809740D01*
D02*
G37*
G36*
X678180Y6306820D02*
Y6238240D01*
X660400Y6220460D01*
X485140D01*
X467360Y6238240D01*
Y6314440D01*
X477520Y6324600D01*
X660400D01*
X678180Y6306820D01*
D02*
G37*
G36*
X238760Y6296660D02*
Y6154420D01*
X215900Y6131560D01*
X30480D01*
X12700Y6149340D01*
X12700Y6299200D01*
X33020Y6319520D01*
X215900D01*
X238760Y6296660D01*
D02*
G37*
G36*
X436880Y6278880D02*
Y6228080D01*
X457200Y6207760D01*
X568960D01*
X586740Y6189980D01*
Y6027420D01*
X568960Y6009640D01*
X335280D01*
X292100Y6052820D01*
Y6281420D01*
X312420Y6301740D01*
X414020D01*
X436880Y6278880D01*
D02*
G37*
G36*
X4942840Y6898640D02*
Y6494780D01*
X4894580Y6446520D01*
X2623820D01*
X2527300Y6350000D01*
X1276771D01*
X1245925Y6319153D01*
X1241055Y6317136D01*
X1225815Y6301896D01*
X1223798Y6297027D01*
X1220891Y6294120D01*
Y6014720D01*
X1208191Y6002020D01*
X1157391Y6002020D01*
X1142151Y5986780D01*
Y5892800D01*
X1152311Y5882640D01*
X1205651Y5882640D01*
X1220891Y5867400D01*
Y5712460D01*
X1200571Y5692140D01*
X1038011D01*
X997371Y5732780D01*
Y5963920D01*
X926251Y6035040D01*
X735751D01*
X700191Y6070600D01*
Y6256525D01*
Y6271260D01*
Y6382171D01*
X866140Y6548120D01*
X1295400D01*
X1447800Y6700520D01*
X1790700D01*
X2021840Y6931660D01*
X4909820D01*
X4942840Y6898640D01*
D02*
G37*
G36*
X4925060Y6385560D02*
Y5981700D01*
X4879340Y5935980D01*
X2588260D01*
X2547620Y5976620D01*
Y6311900D01*
X2654300Y6418580D01*
X4892040D01*
X4925060Y6385560D01*
D02*
G37*
G36*
X561340Y5825514D02*
Y5773420D01*
X551180Y5763260D01*
X337820Y5763260D01*
X325120Y5775960D01*
Y5842000D01*
X370840Y5887720D01*
X499134D01*
X561340Y5825514D01*
D02*
G37*
G36*
X1383451Y6291580D02*
Y5712460D01*
X1363131Y5692140D01*
X1256451D01*
X1233591Y5715000D01*
Y5887720D01*
X1223432Y5897880D01*
X1167551D01*
X1157391Y5908040D01*
Y5971540D01*
X1167551Y5981700D01*
X1220891D01*
X1233591Y5994400D01*
Y6294120D01*
X1248831Y6309360D01*
X1365672D01*
X1383451Y6291580D01*
D02*
G37*
G36*
X977051Y5961380D02*
Y5636260D01*
X946571Y5605780D01*
X637539D01*
X584200Y5659120D01*
Y5830992D01*
X509691Y5905500D01*
X357291D01*
X347131Y5915660D01*
Y5984240D01*
X357291Y5994400D01*
X944031D01*
X977051Y5961380D01*
D02*
G37*
G36*
X586740Y5140960D02*
Y4975860D01*
X574040Y4963160D01*
X474980D01*
X467360Y4970780D01*
Y5021580D01*
X434340Y5054600D01*
X289560D01*
X259080Y5024120D01*
Y4919980D01*
X213360Y4874260D01*
X66040D01*
X38100Y4902200D01*
Y5107940D01*
X104140Y5173980D01*
X553720D01*
X586740Y5140960D01*
D02*
G37*
G36*
X436880Y5008880D02*
Y4958080D01*
X457200Y4937760D01*
X568960D01*
X586740Y4919980D01*
Y4757420D01*
X568960Y4739640D01*
X335280D01*
X292100Y4782820D01*
Y5011420D01*
X312420Y5031740D01*
X414020D01*
X436880Y5008880D01*
D02*
G37*
G36*
X1220891Y5024120D02*
Y4744720D01*
X1208191Y4732020D01*
X1157391Y4732020D01*
X1142151Y4716780D01*
Y4622800D01*
X1152311Y4612640D01*
X1205651Y4612640D01*
X1220891Y4597400D01*
Y4442460D01*
Y4316309D01*
X1381760Y4155440D01*
X4945380D01*
X4991100Y4109720D01*
Y3835400D01*
X4953000Y3797300D01*
X2075208D01*
X2058422Y3814086D01*
X2041637Y3797300D01*
X1198880D01*
X997371Y3998809D01*
Y4462780D01*
Y4693920D01*
X926251Y4765040D01*
X735751D01*
X700191Y4800600D01*
Y5001260D01*
X738291Y5039360D01*
X1205651D01*
X1220891Y5024120D01*
D02*
G37*
G36*
X561340Y4555514D02*
Y4503420D01*
X551180Y4493260D01*
X337820D01*
X325120Y4505960D01*
Y4572000D01*
X370840Y4617720D01*
X499134D01*
X561340Y4555514D01*
D02*
G37*
G36*
X1383451Y5021580D02*
Y4442460D01*
X1363131Y4422140D01*
X1256451D01*
X1233591Y4445000D01*
Y4617720D01*
X1223432Y4627880D01*
X1167551D01*
X1157391Y4638040D01*
Y4701540D01*
X1167551Y4711700D01*
X1220891D01*
X1233591Y4724400D01*
Y5024120D01*
X1248831Y5039360D01*
X1365672D01*
X1383451Y5021580D01*
D02*
G37*
G36*
X977051Y4691380D02*
Y4366260D01*
X946571Y4335780D01*
X637539D01*
X584200Y4389120D01*
Y4560992D01*
X509691Y4635500D01*
X357291D01*
X347131Y4645660D01*
Y4714240D01*
X357291Y4724400D01*
X944031D01*
X977051Y4691380D01*
D02*
G37*
G36*
X4955540Y3515360D02*
Y3213100D01*
X4919980Y3177540D01*
X2540000D01*
X2496820Y3220720D01*
Y3497580D01*
X2542540Y3543300D01*
X4927600D01*
X4955540Y3515360D01*
D02*
G37*
%LPC*%
G36*
X429454Y8770535D02*
X400491D01*
X399118Y8769966D01*
X397645Y8770161D01*
X369668Y8762664D01*
X368489Y8761759D01*
X367016Y8761566D01*
X341933Y8747084D01*
X341028Y8745905D01*
X339655Y8745336D01*
X319175Y8724856D01*
X318606Y8723483D01*
X317427Y8722578D01*
X302945Y8697495D01*
X302751Y8696022D01*
X301847Y8694843D01*
X294350Y8666866D01*
X294544Y8665393D01*
X293976Y8664020D01*
Y8635057D01*
X294544Y8633684D01*
X294350Y8632210D01*
X301847Y8604234D01*
X302751Y8603055D01*
X302945Y8601582D01*
X317427Y8576498D01*
X318606Y8575593D01*
X319175Y8574221D01*
X339655Y8553740D01*
X341028Y8553172D01*
X341933Y8551993D01*
X367016Y8537511D01*
X368489Y8537317D01*
X369668Y8536412D01*
X397645Y8528916D01*
X399118Y8529110D01*
X400491Y8528541D01*
X429454D01*
X430827Y8529110D01*
X432301Y8528916D01*
X460277Y8536412D01*
X461456Y8537317D01*
X462929Y8537511D01*
X488013Y8551993D01*
X488917Y8553172D01*
X490290Y8553740D01*
X510771Y8574221D01*
X511339Y8575594D01*
X512518Y8576498D01*
X527000Y8601581D01*
X527194Y8603055D01*
X528099Y8604234D01*
X535595Y8632210D01*
X535401Y8633684D01*
X535969Y8635057D01*
Y8664020D01*
X535401Y8665393D01*
X535595Y8666866D01*
X528099Y8694843D01*
X527194Y8696022D01*
X527000Y8697495D01*
X512518Y8722578D01*
X511339Y8723483D01*
X510771Y8724856D01*
X490290Y8745336D01*
X488917Y8745905D01*
X488013Y8747084D01*
X462929Y8761566D01*
X461456Y8761760D01*
X460277Y8762664D01*
X432301Y8770161D01*
X430827Y8769966D01*
X429454Y8770535D01*
D02*
G37*
G36*
X1625353Y6539636D02*
X1606879D01*
X1589035Y6534855D01*
X1573037Y6525618D01*
X1559974Y6512555D01*
X1550737Y6496557D01*
X1545956Y6478713D01*
Y6460239D01*
X1550737Y6442395D01*
X1559974Y6426397D01*
X1573037Y6413334D01*
X1589035Y6404097D01*
X1606879Y6399316D01*
X1625353D01*
X1643197Y6404097D01*
X1659195Y6413334D01*
X1672258Y6426397D01*
X1681494Y6442395D01*
X1686276Y6460239D01*
Y6478713D01*
X1681494Y6496557D01*
X1672258Y6512555D01*
X1659195Y6525618D01*
X1643197Y6534855D01*
X1625353Y6539636D01*
D02*
G37*
%LPD*%
D10*
X7893902Y6341962D02*
G03*
X7893833Y6342030I-104642J-104642D01*
G01*
D02*
G03*
X7789260Y6385306I-104574J-104711D01*
G01*
X7981061Y6190810D02*
G03*
X7935812Y6300052I-154491J0D01*
G01*
X7233940Y6451580D02*
G03*
X7393940Y6385306I160000J160000D01*
G01*
X7221490Y6464031D02*
G03*
X7147560Y6494653I-73930J-73930D01*
G01*
X7083984D02*
G03*
X7067690Y6487921I0J-23085D01*
G01*
D02*
G03*
X7067660Y6487892I16294J-16353D01*
G01*
X7053580Y6481130D02*
G03*
X7066074Y6486305I0J17669D01*
G01*
X7841512Y4959863D02*
G03*
X7841559Y4959816I53362J53362D01*
G01*
D02*
G03*
X7894874Y4937760I53315J53409D01*
G01*
X7835866Y5021786D02*
G03*
X7841041Y5034280I-12494J12494D01*
G01*
X7834279Y5020200D02*
G03*
X7834250Y5020170I16324J-16324D01*
G01*
X7827518Y4993648D02*
G03*
X7841512Y4959863I47778J0D01*
G01*
X7834250Y5020170D02*
G03*
X7827518Y5003876I16353J-16294D01*
G01*
X8017983Y4937760D02*
G03*
X8067015Y4958055I0J69377D01*
G01*
D02*
G03*
X8067040Y4958080I-49032J49082D01*
G01*
D02*
G03*
X8097520Y5031665I-73585J73585D01*
G01*
X8133595Y5152355D02*
G03*
X8097520Y5065226I87181J-87129D01*
G01*
X8140790Y5160664D02*
G03*
X8155940Y5206265I-61053J45601D01*
G01*
X8133621Y5152381D02*
G03*
X8140790Y5160664I-53884J53884D01*
G01*
X8133621Y5152381D02*
G03*
X8133595Y5152355I87155J-87155D01*
G01*
X7981061Y5852954D02*
G03*
X7990479Y5784394I254253J0D01*
G01*
D02*
G03*
X8055374Y5673326I244835J68560D01*
G01*
D02*
G03*
X8055530Y5673170I179940J179628D01*
G01*
X8112829Y5615871D02*
G03*
X8112760Y5615940I-104314J-104177D01*
G01*
X8155940Y5511695D02*
G03*
X8112829Y5615871I-147426J0D01*
G01*
X8068256Y6416828D02*
G03*
X8114501Y6305079I158141J0D01*
G01*
X8425032Y7287726D02*
G03*
X8494794Y7119306I238182J0D01*
G01*
X9810864Y5591924D02*
G03*
X9855200Y5698961I-107037J107037D01*
G01*
X9821361Y6619141D02*
G03*
X9832086Y6644967I-25732J25826D01*
G01*
Y6991464D02*
G03*
X9802033Y7064017I-102606J-0D01*
G01*
X9857740Y6991619D02*
G03*
X9820283Y7082048I-127885J0D01*
G01*
X9839605Y6601105D02*
G03*
X9857740Y6644849I-43691J43744D01*
G01*
X10102330Y6821168D02*
G03*
X10027935Y7000773I-254000J0D01*
G01*
X9281921Y4337708D02*
G03*
X9319260Y4427958I-90399J90249D01*
G01*
X9869114Y8002416D02*
G03*
X9854412Y8008506I-14702J-14702D01*
G01*
X9812604D02*
G03*
X9796310Y8001774I0J-23085D01*
G01*
X9854412Y8034160D02*
G03*
X9869114Y8040249I0J20791D01*
G01*
X9796310Y8040891D02*
G03*
X9812604Y8034160I16294J16353D01*
G01*
X6299200Y3416300D02*
G03*
X6319792Y3399451I94581J94581D01*
G01*
X6343569Y3383663D02*
G03*
X6365240Y3377123I21671J32637D01*
G01*
X6381527Y3405062D02*
G03*
X6404019Y3400237I22493J50018D01*
G01*
X6365240Y3416300D02*
G03*
X6381527Y3405062I38779J38779D01*
G01*
X9819701Y3377123D02*
G03*
X9999306Y3451518I0J254000D01*
G01*
X9810127Y3400237D02*
G03*
X9989732Y3474632I0J254000D01*
G01*
X10240820Y3693032D02*
G03*
X10271964Y3737080I-113534J113307D01*
G01*
X10240599Y3692810D02*
G03*
X10240820Y3693032I-113312J113528D01*
G01*
X10327877Y3893821D02*
G03*
X10287687Y3796765I97096J-97056D01*
G01*
X10279685Y3753142D02*
G03*
X10287687Y3788107I-72392J34965D01*
G01*
X10304763Y3903395D02*
G03*
X10264573Y3806339I97096J-97056D01*
G01*
X10224382Y3709282D02*
G03*
X10264573Y3806339I-97096J97056D01*
G01*
X10224363Y3709262D02*
G03*
X10224382Y3709282I-97077J97077D01*
G01*
X10304783Y3903415D02*
G03*
X10304763Y3903395I97077J-97077D01*
G01*
X10327897Y3893841D02*
G03*
X10327877Y3893821I97077J-97077D01*
G01*
X10387603Y3953547D02*
G03*
X10442540Y4086397I-133160J132850D01*
G01*
X10387374Y3953318D02*
G03*
X10387603Y3953547I-132931J133078D01*
G01*
X10371195Y3969827D02*
G03*
X10419426Y4086397I-116751J116570D01*
G01*
X10371104Y3969736D02*
G03*
X10371195Y3969827I-116661J116661D01*
G01*
X9922679Y7317497D02*
G03*
X9924440Y7321750I-4253J4253D01*
G01*
Y7267277D02*
G03*
X9920917Y7275782I-12028J0D01*
G01*
X9902347Y8193072D02*
G03*
X9910203Y8196326I0J11111D01*
G01*
X9912267Y7422633D02*
G03*
X9888650Y7479693I-80739J0D01*
G01*
X9912267Y7288737D02*
G03*
X9916061Y7279577I12955J0D01*
G01*
X9919856Y7315736D02*
G03*
X9912267Y7297416I18320J-18320D01*
G01*
X10127984Y6821505D02*
G03*
X10046313Y7018675I-278840J0D01*
G01*
X9912267Y7180688D02*
G03*
X9932043Y7132945I67519J0D01*
G01*
X9946429Y5514394D02*
G03*
X9901324Y5405392I109159J-109002D01*
G01*
X9920917Y7232236D02*
G03*
X9920931Y7232249I-8505J8505D01*
G01*
X9916061Y7228442D02*
G03*
X9912267Y7219281I9160J-9160D01*
G01*
X9881181Y8193072D02*
G03*
X9829113Y8171505I0J-73635D01*
G01*
X9754745Y8140700D02*
G03*
X9829113Y8171505I0J105174D01*
G01*
X9869105Y7499238D02*
G03*
X9822844Y7518400I-46262J-46262D01*
G01*
X9857721Y3877265D02*
G03*
X9901324Y3982531I-105266J105266D01*
G01*
X9562725Y7576095D02*
G03*
X9702187Y7518400I139462J139707D01*
G01*
X9664314Y8140700D02*
G03*
X9562137Y8098377I0J-144500D01*
G01*
X9519814Y7679519D02*
G03*
X9562522Y7576298I146090J0D01*
G01*
X9562137Y8098377D02*
G03*
X9519814Y7996198I102179J-102179D01*
G01*
X5977455Y3749899D02*
G03*
X5989948Y3744725I12493J12493D01*
G01*
X9521755Y3652139D02*
G03*
X9710972Y3730516I0J267594D01*
G01*
X6010103Y3736376D02*
G03*
X5989948Y3744725I-20154J-20155D01*
G01*
X6026624Y3719855D02*
G03*
X6148388Y3669486I121764J121993D01*
G01*
X9919845Y7359293D02*
G03*
X9919856Y7359282I18331J18309D01*
G01*
X9912267Y7377602D02*
G03*
X9919845Y7359293I25909J0D01*
G01*
X9924440Y7353268D02*
G03*
X9922679Y7357521I-6014J0D01*
G01*
X9894711Y8246313D02*
G03*
X9861447Y8232557I0J-47095D01*
G01*
X9886613Y7412006D02*
G03*
X9862965Y7469098I-80740J0D01*
G01*
X9886613Y7297416D02*
G03*
X9879025Y7315736I-25909J0D01*
G01*
X9882819Y7279577D02*
G03*
X9886613Y7288737I-9160J9160D01*
G01*
X9859442Y8230886D02*
G03*
X9861293Y8232402I-7249J10737D01*
G01*
X9851141Y7480922D02*
G03*
X9851126Y7480937I-28546J-28546D01*
G01*
X9874440Y7321750D02*
G03*
X9876202Y7317497I6014J0D01*
G01*
X9886613Y7180575D02*
G03*
X9913728Y7114980I92899J0D01*
G01*
X10027935Y5632181D02*
G03*
X10102330Y5811786I-179605J179605D01*
G01*
X9928234Y5532480D02*
G03*
X9875670Y5405528I127026J-126952D01*
G01*
X9877963Y7275782D02*
G03*
X9874440Y7267277I8505J-8505D01*
G01*
X9886613Y7219281D02*
G03*
X9882819Y7228442I-12955J0D01*
G01*
X9877950Y7232249D02*
G03*
X9877963Y7232236I8519J8492D01*
G01*
X9874440Y7240741D02*
G03*
X9877950Y7232249I12028J0D01*
G01*
X9752541Y8166354D02*
G03*
X9812477Y8191148I0J84841D01*
G01*
X9664219Y8166354D02*
G03*
X9544195Y8116715I0J-169924D01*
G01*
X9851126Y7480937D02*
G03*
X9822596Y7492746I-28530J-28561D01*
G01*
X9552099Y7550441D02*
G03*
X9691561Y7492746I139462J139707D01*
G01*
X9544195Y8116715D02*
G03*
X9544064Y8116584I120024J-120285D01*
G01*
X9543929Y8116449D02*
G03*
X9543751Y8116271I120155J-120155D01*
G01*
X9494160Y7679342D02*
G03*
X9544191Y7558349I171317J0D01*
G01*
X6019895Y3774671D02*
G03*
X6014720Y3787164I-17668J0D01*
G01*
X9521620Y3677793D02*
G03*
X9692833Y3748656I0J242267D01*
G01*
X6044540Y3738220D02*
G03*
X6148543Y3695140I104004J104004D01*
G01*
X6019895Y3774671D02*
G03*
X6028179Y3754580I28503J0D01*
G01*
X9879036Y7359293D02*
G03*
X9886613Y7377602I-18331J18309D01*
G01*
X9879025Y7359282D02*
G03*
X9879036Y7359293I-18320J18320D01*
G01*
X9876202Y7357521D02*
G03*
X9874440Y7353268I4253J-4253D01*
G01*
X9888650Y7479693D02*
G03*
X9888619Y7479724I-57122J-57060D01*
G01*
X10046322Y5614287D02*
G03*
X10127984Y5811651I-197665J197363D01*
G01*
X10046171Y5614136D02*
G03*
X10046322Y5614287I-197514J197514D01*
G01*
X9946507Y5514473D02*
G03*
X9946429Y5514394I109081J-109081D01*
G01*
X9920931Y7232249D02*
G03*
X9924440Y7240741I-8519J8492D01*
G01*
X9562522Y7576298D02*
G03*
X9562602Y7576218I103381J103221D01*
G01*
Y7576218D02*
G03*
X9562725Y7576095I139584J139585D01*
G01*
X6026509Y3719970D02*
G03*
X6026624Y3719855I121879J121879D01*
G01*
X9861447Y8232557D02*
G03*
X9861410Y8232519I33264J-33338D01*
G01*
X9861293Y8232402D02*
G03*
X9861410Y8232519I-9100J9220D01*
G01*
X9913728Y7114980D02*
G03*
X9913823Y7114885I65784J65595D01*
G01*
X9928271Y5532517D02*
G03*
X9928234Y5532480I126989J-126989D01*
G01*
X9812477Y8191148D02*
G03*
X9812532Y8191203I-59936J60047D01*
G01*
X9839495Y3895318D02*
G03*
X9875670Y3982720I-87495J87402D01*
G01*
X9839448Y3895271D02*
G03*
X9839495Y3895318I-87449J87449D01*
G01*
X9551976Y7550564D02*
G03*
X9552099Y7550441I139584J139585D01*
G01*
X9543751Y8116271D02*
G03*
X9494160Y7996588I120334J-119977D01*
G01*
D02*
G03*
X9494159Y7996294I169925J-294D01*
G01*
X9544191Y7558349D02*
G03*
X9544337Y7558203I121285J120993D01*
G01*
X9692833Y3748656D02*
G03*
X9692928Y3748752I-171213J171404D01*
G01*
X6028179Y3754580D02*
G03*
X6028243Y3754516I20219J20091D01*
G01*
X8462894Y6894877D02*
G03*
X8401978Y7041942I-207981J0D01*
G01*
X8298434Y7215682D02*
G03*
X8348070Y7095850I169469J0D01*
G01*
X8444230Y5640070D02*
G03*
X8462894Y5685129I-45059J45059D01*
G01*
X8444230Y5640070D02*
G03*
X8427466Y5599599I40471J-40471D01*
G01*
X8240220Y8798820D02*
G03*
X8240146Y8798895I-140795J-140647D01*
G01*
X8239715Y8799324D02*
G03*
X8099397Y8857446I-140319J-140319D01*
G01*
X8298434Y8658173D02*
G03*
X8240220Y8798820I-199010J0D01*
G01*
X8427466Y5313307D02*
G03*
X8435794Y5293174I28501J0D01*
G01*
X7426054Y8857446D02*
G03*
X7310272Y8809592I0J-163993D01*
G01*
D02*
G03*
X7310093Y8809414I115782J-116139D01*
G01*
X7261606Y8059623D02*
G03*
X7271392Y8035997I33412J0D01*
G01*
X7445674Y7944713D02*
G03*
X7444820Y7944740I-830J-12927D01*
G01*
X7554095Y7941705D02*
G03*
X7542836Y7942580I-11259J-71970D01*
G01*
X7366621Y7990883D02*
G03*
X7323954Y8008493I-42667J-42883D01*
G01*
X7281222Y8026168D02*
G03*
X7323954Y8008493I42732J42819D01*
G01*
X7390336Y7967168D02*
G03*
X7444551Y7944739I54150J54152D01*
G01*
X7309638Y8808958D02*
G03*
X7261606Y8692998I115960J-115960D01*
G01*
X8437240Y6894464D02*
G03*
X8383545Y7024095I-183326J0D01*
G01*
X8425946Y5658066D02*
G03*
X8425951Y5658071I-27266J27266D01*
G01*
X8425946Y5658066D02*
G03*
X8401812Y5599802I58265J-58265D01*
G01*
X8272780Y8657988D02*
G03*
X8221874Y8780886I-173805J0D01*
G01*
D02*
G03*
X8098975Y8831792I-122898J-122898D01*
G01*
X8272780Y7215569D02*
G03*
X8329717Y7077923I194848J0D01*
G01*
X7542836Y8100060D02*
G03*
X7554095Y8100935I0J72846D01*
G01*
X7454900Y8100060D02*
G03*
X7428714Y8096439I0J-96510D01*
G01*
X7426376Y8831792D02*
G03*
X7328074Y8791113I0J-139116D01*
G01*
X7375899Y8061034D02*
G03*
X7375835Y8060970I19298J-19298D01*
G01*
X7329267Y8034147D02*
G03*
X7362972Y8048108I0J47667D01*
G01*
X7287260Y8072151D02*
G03*
X7298347Y8045323I38004J0D01*
G01*
X7298436Y8045234D02*
G03*
X7325264Y8034147I26829J26918D01*
G01*
X7327939Y8790978D02*
G03*
X7287260Y8692676I98437J-98302D01*
G01*
X7328006Y8791046D02*
G03*
X7327939Y8790978I98370J-98370D01*
G01*
X7594346Y7921244D02*
G03*
X7554095Y7941705I-51510J-51510D01*
G01*
X8435794Y5293174D02*
G03*
X8435814Y5293154I20173J20134D01*
G01*
X8440989Y5280660D02*
G03*
X8435814Y5293154I-17669J0D01*
G01*
X7281178Y8026211D02*
G03*
X7281222Y8026168I42776J42776D01*
G01*
X7366729Y7990775D02*
G03*
X7366621Y7990883I-42775J-42775D01*
G01*
X8425951Y5658071D02*
G03*
X8437240Y5685333I-27271J27261D01*
G01*
X8329717Y7077923D02*
G03*
X8329850Y7077790I137912J137645D01*
G01*
X7554095Y8100935D02*
G03*
X7594346Y8121396I-11259J71970D01*
G01*
X8393484Y5293174D02*
G03*
X8401812Y5313307I-20173J20134D01*
G01*
X8393464Y5293154D02*
G03*
X8393484Y5293174I-20153J20153D01*
G01*
X8393464Y5293154D02*
G03*
X8388289Y5280660I12494J-12494D01*
G01*
X7328074Y8791113D02*
G03*
X7328006Y8791046I98302J-98437D01*
G01*
X7423707Y8095028D02*
G03*
X7390408Y8075544I20779J-73708D01*
G01*
D02*
G03*
X7390334Y8075470I54078J-54224D01*
G01*
X7298347Y8045323D02*
G03*
X7298391Y8045278I26918J26829D01*
G01*
D02*
G03*
X7298436Y8045234I26873J26873D01*
G01*
X9096722Y8071273D02*
G03*
X9118548Y8123965I-52692J52692D01*
G01*
X9118548Y8688261D02*
G03*
X9068454Y8809198I-171032J0D01*
G01*
X9010398Y8023521D02*
G03*
X9076217Y8050768I0J93123D01*
G01*
X9068031Y8809621D02*
G03*
X8947445Y8859570I-120586J-120586D01*
G01*
X8976647Y8023521D02*
G03*
X8958300Y8015921I0J-25947D01*
G01*
X8940365Y8008493D02*
G03*
X8958300Y8015922I0J25363D01*
G01*
X8895783Y8008493D02*
G03*
X8886622Y8004699I0J-12955D01*
G01*
D02*
G03*
X8882828Y7995538I9160J-9160D01*
G01*
X8603186Y4960654D02*
G03*
X8612727Y4955727I12494J12494D01*
G01*
X8676035Y8859570D02*
G03*
X8481025Y8778925I0J-276103D01*
G01*
X8539480Y6949900D02*
G03*
X8476943Y7100877I-213514J0D01*
G01*
X8399378Y7277100D02*
G03*
X8469055Y7108766I238181J0D01*
G01*
X8565565Y4976648D02*
G03*
X8584025Y4969002I18460J18460D01*
G01*
X8602484Y4961356D02*
G03*
X8584025Y4969002I-18459J-18459D01*
G01*
X8539480Y5034196D02*
G03*
X8539673Y5028781I75959J0D01*
G01*
X8399378Y8616806D02*
G03*
X8399378Y8616492I195035J-315D01*
G01*
X8456284Y8754183D02*
G03*
X8399378Y8616806I138130J-137692D01*
G01*
X8456503Y8754403D02*
G03*
X8456284Y8754183I137911J-137911D01*
G01*
X9092894Y8688065D02*
G03*
X9050213Y8791159I-145851J0D01*
G01*
X9050138Y8791235D02*
G03*
X8947043Y8833916I-103094J-103170D01*
G01*
X9002123Y8049175D02*
G03*
X9063957Y8074788I0J87446D01*
G01*
X8965900Y8049175D02*
G03*
X8947759Y8041661I0J-25655D01*
G01*
X8929619Y8034147D02*
G03*
X8947759Y8041661I0J25655D01*
G01*
X8886622Y8037941D02*
G03*
X8895783Y8034147I9160J9160D01*
G01*
X8882828Y8047102D02*
G03*
X8886622Y8037941I12955J0D01*
G01*
X8615680Y5008179D02*
G03*
X8603186Y5003004I0J-17669D01*
G01*
X8676427Y8833916D02*
G03*
X8498664Y8760284I0J-251395D01*
G01*
X8565134Y6950352D02*
G03*
X8495403Y7118697I-238075J0D01*
G01*
X8565134Y5034310D02*
G03*
X8579948Y4998546I50579J0D01*
G01*
X8598713Y4998531D02*
G03*
X8598728Y4998545I-9375J9404D01*
G01*
X8589338Y4994656D02*
G03*
X8598713Y4998531I0J13279D01*
G01*
X8579948Y4998545D02*
G03*
X8589338Y4994656I9390J9390D01*
G01*
X8474710Y8736330D02*
G03*
X8425032Y8616397I119933J-119933D01*
G01*
X9076217Y8050768D02*
G03*
X9076245Y8050796I-65820J65876D01*
G01*
X8612727Y4955727D02*
G03*
X8615680Y4955479I2953J17421D01*
G01*
X8481025Y8778925D02*
G03*
X8480801Y8778701I195010J-195458D01*
G01*
X8469055Y7108766D02*
G03*
X8469140Y7108680I168505J168334D01*
G01*
X8539673Y5028781D02*
G03*
X8561728Y4980485I75766J5415D01*
G01*
X9050213Y8791159D02*
G03*
X9050175Y8791197I-103170J-103094D01*
G01*
X9078473Y8089304D02*
G03*
X9092894Y8124186I-34977J34882D01*
G01*
X9078426Y8089257D02*
G03*
X9078473Y8089304I-34930J34930D01*
G01*
X9050175Y8791197D02*
G03*
X9050138Y8791235I-103132J-103132D01*
G01*
X8835543Y5495803D02*
G03*
X8845810Y5520591I-24788J24788D01*
G01*
Y5647700D02*
G03*
X8801100Y5755640I-152650J0D01*
G01*
X8805121Y5477187D02*
G03*
X8825275Y5485535I0J28503D01*
G01*
X8801024Y5755716D02*
G03*
X8801100Y5755640I190171J190019D01*
G01*
X8805121Y5477187D02*
G03*
X8792628Y5472012I0J-17668D01*
G01*
X8720014Y7734173D02*
G03*
X8729174Y7737967I0J12955D01*
G01*
X8691277Y7734173D02*
G03*
X8633059Y7710059I0J-82332D01*
G01*
X8612009Y7330965D02*
G03*
X8663666Y7206254I176367J0D01*
G01*
X8722360Y5945735D02*
G03*
X8801024Y5755716I268835J0D01*
G01*
X8722360Y7106057D02*
G03*
X8693013Y7176907I-100196J0D01*
G01*
X8612009Y7664828D02*
G03*
X8612009Y7664655I58793J-173D01*
G01*
X8629185Y7706184D02*
G03*
X8612009Y7664828I41617J-41529D01*
G01*
X8629229Y7706228D02*
G03*
X8629185Y7706184I41573J-41573D01*
G01*
X8871464Y5647837D02*
G03*
X8819337Y5773683I-177973J0D01*
G01*
X8843415Y5467395D02*
G03*
X8835067Y5447241I20155J-20155D01*
G01*
X8732968Y7695564D02*
G03*
X8729174Y7704725I-12955J0D01*
G01*
D02*
G03*
X8720014Y7708519I-9160J-9160D01*
G01*
X8696590D02*
G03*
X8647443Y7688162I0J-69504D01*
G01*
X8748014Y5945872D02*
G03*
X8819337Y5773683I243512J0D01*
G01*
X8748014Y7106275D02*
G03*
X8711307Y7194893I-125324J0D01*
G01*
X8681907Y7224293D02*
G03*
X8681932Y7224268I106899J106850D01*
G01*
X8637663Y7331143D02*
G03*
X8681907Y7224293I151143J0D01*
G01*
X8647429Y7688148D02*
G03*
X8637663Y7664552I23623J-23597D01*
G01*
X8647443Y7688162D02*
G03*
X8647429Y7688148I23610J-23610D01*
G01*
X8729174Y7737967D02*
G03*
X8732968Y7747128I-9160J9160D01*
G01*
X8853828Y5477808D02*
G03*
X8871464Y5520496I-42843J42687D01*
G01*
X8853750Y5477730D02*
G03*
X8853828Y5477808I-42765J42765D01*
G01*
X8829892Y5434748D02*
G03*
X8835067Y5447241I-12493J12493D01*
G01*
X8666657Y5359656D02*
G03*
X8699777Y5279606I113297J0D01*
G01*
X8633460Y5766371D02*
G03*
X8649957Y5726443I56568J0D01*
G01*
D02*
G03*
X8650028Y5726371I40071J39928D01*
G01*
X8650071Y5726329D02*
G03*
X8650058Y5726342I-40085J-40059D01*
G01*
X8666657Y5686270D02*
G03*
X8650071Y5726329I-56670J0D01*
G01*
X8905661Y4782399D02*
G03*
X8924521Y4827929I-45530J45530D01*
G01*
Y5135344D02*
G03*
X8892751Y5212145I-108717J0D01*
G01*
X8896753Y4773490D02*
G03*
X8896771Y4773509I-45568J45605D01*
G01*
X8851185Y4754626D02*
G03*
X8896753Y4773490I0J64469D01*
G01*
X8707522Y5271861D02*
G03*
X8803499Y5232146I95977J96113D01*
G01*
X8892689Y5212207D02*
G03*
X8844465Y5232146I-48224J-48349D01*
G01*
X8523986Y7278450D02*
G03*
X8578514Y7146626I186610J0D01*
G01*
X8633460Y7052919D02*
G03*
X8606125Y7119015I-93578J0D01*
G01*
X8397413Y4762954D02*
G03*
X8417547Y4754626I20134J20173D01*
G01*
X8720014Y8334121D02*
G03*
X8729174Y8337915I0J12955D01*
G01*
X8676647Y8334121D02*
G03*
X8593455Y8299662I0J-117651D01*
G01*
X8692311Y5370282D02*
G03*
X8725431Y5290232I113297J0D01*
G01*
X8659114Y5766548D02*
G03*
X8668276Y5744404I31342J0D01*
G01*
X8692311Y5686404D02*
G03*
X8668341Y5744339I-81999J0D01*
G01*
X8923959Y4764416D02*
G03*
X8950174Y4827706I-63290J63290D01*
G01*
X8950175Y5135714D02*
G03*
X8911080Y5230096I-133476J0D01*
G01*
X8852366Y4728972D02*
G03*
X8914027Y4754484I0J87270D01*
G01*
X8725495Y5290168D02*
G03*
X8803640Y5257800I78145J78145D01*
G01*
X8910713Y5230463D02*
G03*
X8844716Y5257800I-65997J-65997D01*
G01*
X8549640Y7278564D02*
G03*
X8596863Y7164557I161230J0D01*
G01*
X8659114Y7053014D02*
G03*
X8624259Y7137161I-119002J0D01*
G01*
X8576180Y8246107D02*
G03*
X8549640Y8181940I64299J-64167D01*
G01*
X8417547Y4728972D02*
G03*
X8397413Y4720644I0J-28501D01*
G01*
X8732968Y8295512D02*
G03*
X8729174Y8304673I-12955J0D01*
G01*
D02*
G03*
X8720014Y8308467I-9160J-9160D01*
G01*
X8681960D02*
G03*
X8607838Y8277764I0J-104825D01*
G01*
X8699777Y5279606D02*
G03*
X8699841Y5279542I80177J80049D01*
G01*
X8707454Y5271929D02*
G03*
X8707522Y5271861I96045J96045D01*
G01*
X8892751Y5212145D02*
G03*
X8892689Y5212207I-48286J-48287D01*
G01*
X8578514Y7146626D02*
G03*
X8578642Y7146497I132082J131825D01*
G01*
X8606125Y7119015D02*
G03*
X8606051Y7119089I-66243J-66096D01*
G01*
X8558010Y8264217D02*
G03*
X8557927Y8264134I82142J-82142D01*
G01*
D02*
G03*
X8523986Y8182318I82225J-82059D01*
G01*
D02*
G03*
X8523986Y8182075I116166J-243D01*
G01*
X8397394Y4762974D02*
G03*
X8384900Y4768149I-12494J-12494D01*
G01*
X8397394Y4762974D02*
G03*
X8397413Y4762954I20153J20153D01*
G01*
X8668276Y5744404D02*
G03*
X8668294Y5744386I22180J22144D01*
G01*
X8668341Y5744339D02*
G03*
X8668294Y5744386I-58029J-57935D01*
G01*
X8914027Y4754484D02*
G03*
X8914076Y4754533I-61661J61758D01*
G01*
X8725431Y5290232D02*
G03*
X8725495Y5290168I80177J80049D01*
G01*
X8576246Y8246173D02*
G03*
X8576180Y8246107I64233J-64233D01*
G01*
X8397413Y4720644D02*
G03*
X8397394Y4720624I20134J-20173D01*
G01*
X8384900Y4715449D02*
G03*
X8397394Y4720624I0J17669D01*
G01*
X8729174Y8337915D02*
G03*
X8732968Y8347076I-9160J9160D01*
G01*
X7475354Y8304696D02*
G03*
X7462672Y8299443I0J-17936D01*
G01*
X7456233Y8293004D02*
G03*
X7444486Y8264645I28360J-28360D01*
G01*
X7526086Y8312530D02*
G03*
X7482783Y8330350I-43303J-43705D01*
G01*
X7468123Y8336423D02*
G03*
X7482783Y8330350I14660J14660D01*
G01*
X7454962Y8350859D02*
G03*
X7461543Y8343003I47759J33324D01*
G01*
X7444486Y8384182D02*
G03*
X7454962Y8350859I58236J0D01*
G01*
X7508126Y8294211D02*
G03*
X7482783Y8304696I-25343J-25385D01*
G01*
X7549587Y8289031D02*
G03*
X7612830Y8262874I63243J63378D01*
G01*
X7538893Y8263444D02*
G03*
X7538918Y8263419I63310J63310D01*
G01*
D02*
G03*
X7602204Y8237220I63286J63335D01*
G01*
X7508147Y8294190D02*
G03*
X7508126Y8294211I-25364J-25364D01*
G01*
X8184134Y7907739D02*
G03*
X8109219Y8088600I-255776J0D01*
G01*
X8016615Y8181204D02*
G03*
X7819446Y8262874I-197169J-197170D01*
G01*
X8307164Y5065440D02*
G03*
X8315772Y5044603I29523J0D01*
G01*
X8184134Y7210091D02*
G03*
X8258529Y7030486I254000J0D01*
G01*
X8364560Y6826202D02*
G03*
X8295085Y6993930I-237202J0D01*
G01*
X8332440Y5701000D02*
G03*
X8307164Y5639936I61124J-61064D01*
G01*
X8332470Y5701030D02*
G03*
X8364560Y5778502I-77472J77472D01*
G01*
X8332470Y5701030D02*
G03*
X8332440Y5701000I61094J-61094D01*
G01*
X8315816Y5044560D02*
G03*
X8315811Y5044564I-12469J-12460D01*
G01*
X8320974Y5032100D02*
G03*
X8315816Y5044560I-17627J0D01*
G01*
X8315772Y5044603D02*
G03*
X8315811Y5044564I20915J20837D01*
G01*
X7549519Y8289098D02*
G03*
X7549587Y8289031I63311J63311D01*
G01*
X8158480Y7209995D02*
G03*
X8240173Y7012562I279424J0D01*
G01*
X8158480Y7907528D02*
G03*
X8090929Y8070609I-230632J0D01*
G01*
X7998713Y8162825D02*
G03*
X7819109Y8237220I-179605J-179605D01*
G01*
X8314149Y5718989D02*
G03*
X8281510Y5640191I78797J-78797D01*
G01*
X8338906Y6825725D02*
G03*
X8276667Y6976067I-212701J0D01*
G01*
X8314149Y5718989D02*
G03*
X8338906Y5778758I-59769J59769D01*
G01*
X8276667Y6976067D02*
G03*
X8276607Y6976127I-150462J-150342D01*
G01*
X8272902Y5044603D02*
G03*
X8281510Y5065440I-20915J20837D01*
G01*
X8272863Y5044564D02*
G03*
X8272902Y5044603I-20876J20876D01*
G01*
X8272863Y5044564D02*
G03*
X8272858Y5044560I12465J-12465D01*
G01*
D02*
G03*
X8267700Y5032100I12469J-12460D01*
G01*
X8240173Y7012562D02*
G03*
X8240321Y7012413I197731J197434D01*
G01*
X7471385Y7708519D02*
G03*
X7522027Y7729496I0J71620D01*
G01*
X8036560Y7549346D02*
G03*
X7957628Y7740038I-269812J0D01*
G01*
X7471249Y7734173D02*
G03*
X7503958Y7747706I0J46293D01*
G01*
X8093910Y6971494D02*
G03*
X8057950Y7058310I-122777J0D01*
G01*
X8093910Y6417254D02*
G03*
X8132971Y6322889I133517J0D01*
G01*
X8057899Y7058362D02*
G03*
X8057950Y7058310I51690J51588D01*
G01*
X8036560Y7109949D02*
G03*
X8057899Y7058362I73029J0D01*
G01*
X7631503Y7810754D02*
G03*
X7521556Y7765305I0J-155712D01*
G01*
X7954326Y7743339D02*
G03*
X7791573Y7810754I-162754J-162754D01*
G01*
X8186547Y6193609D02*
G03*
X8133017Y6322843I-182764J0D01*
G01*
X8132971Y6322889D02*
G03*
X8133017Y6322843I94457J94365D01*
G01*
X8186547Y5755267D02*
G03*
X8194895Y5735114I28501J0D01*
G01*
X8010906Y7545270D02*
G03*
X7936511Y7724875I-254000J0D01*
G01*
X8010906Y7109626D02*
G03*
X8039581Y7040399I97902J0D01*
G01*
X8068256Y6971171D02*
G03*
X8039581Y7040399I-97904J0D01*
G01*
X7631783Y7785100D02*
G03*
X7539341Y7746809I0J-130732D01*
G01*
X7936511Y7724875D02*
G03*
X7791115Y7785100I-145396J-145396D01*
G01*
X8160893Y6193183D02*
G03*
X8114648Y6304931I-158141J0D01*
G01*
X7503958Y7747706D02*
G03*
X7503983Y7747732I-32708J32759D01*
G01*
X8152545Y5735114D02*
G03*
X8160893Y5755267I-20153J20153D01*
G01*
X8152545Y5735114D02*
G03*
X8147370Y5722620I12494J-12494D01*
G01*
X8114648Y6304931D02*
G03*
X8114575Y6305005I-111896J-111749D01*
G01*
X8114501Y6305079D02*
G03*
X8114575Y6305005I111896J111749D01*
G01*
X8200070Y5722620D02*
G03*
X8194895Y5735114I-17669J0D01*
G01*
X7957628Y7740038D02*
G03*
X7957534Y7740132I-190880J-190691D01*
G01*
X7467244Y6266435D02*
G03*
X7456617Y6240780I25655J-25655D01*
G01*
X7458781Y6222648D02*
G03*
X7470140Y6203970I44006J13970D01*
G01*
X7456617Y6236617D02*
G03*
X7458781Y6222648I46170J0D01*
G01*
X7442392Y6176314D02*
G03*
X7442438Y6176268I27748J27656D01*
G01*
X7430963Y6203970D02*
G03*
X7442392Y6176314I39177J0D01*
G01*
X7441577Y6277048D02*
G03*
X7430963Y6251406I25666J-25642D01*
G01*
X7441589Y6277061D02*
G03*
X7441577Y6277048I25654J-25654D01*
G01*
X7490593Y6302574D02*
G03*
X7450552Y6286023I0J-56712D01*
G01*
X7876072Y6253511D02*
G03*
X7757626Y6302574I-118446J-118446D01*
G01*
X7924800Y5755487D02*
G03*
X7970880Y5644240I157328J0D01*
G01*
X7924800Y6138166D02*
G03*
X7877694Y6251890I-160831J0D01*
G01*
X8067548Y5474111D02*
G03*
X8015603Y5599517I-177351J0D01*
G01*
X8067548Y5277747D02*
G03*
X8075876Y5257614I28501J0D01*
G01*
X7450552Y6286023D02*
G03*
X7450492Y6285963I40041J-40162D01*
G01*
X8075876Y5257614D02*
G03*
X8075896Y5257594I20173J20134D01*
G01*
X8081071Y5245100D02*
G03*
X8075896Y5257594I-17669J0D01*
G01*
X7490688Y6276920D02*
G03*
X7468601Y6267792I0J-31288D01*
G01*
X7899146Y5755374D02*
G03*
X7952530Y5626310I182708J0D01*
G01*
X7859452Y6233852D02*
G03*
X7755478Y6276920I-103974J-103974D01*
G01*
X7899146Y6138022D02*
G03*
X7859452Y6233852I-135524J0D01*
G01*
X8041894Y5473725D02*
G03*
X7997190Y5581650I-152629J0D01*
G01*
X7468601Y6267792D02*
G03*
X7468564Y6267756I22087J-22161D01*
G01*
X7952530Y5626310D02*
G03*
X7952660Y5626180I129324J129064D01*
G01*
X8033566Y5257614D02*
G03*
X8041894Y5277747I-20173J20134D01*
G01*
X8033546Y5257594D02*
G03*
X8033566Y5257614I-20153J20153D01*
G01*
X8033546Y5257594D02*
G03*
X8028371Y5245100I12494J-12494D01*
G01*
X8181594Y5512108D02*
G03*
X8131192Y5633788I-172082J0D01*
G01*
X8006715Y5853068D02*
G03*
X8073750Y5691230I228873J0D01*
G01*
X8152070Y5134550D02*
G03*
X8123174Y5064704I69966J-69846D01*
G01*
X8085247Y4940007D02*
G03*
X8085392Y4940152I-91563J91563D01*
G01*
X8018078Y4912106D02*
G03*
X8085112Y4939873I0J94800D01*
G01*
X7830886Y4934209D02*
G03*
X7884248Y4912106I53362J53362D01*
G01*
X7801864Y4988335D02*
G03*
X7819603Y4945492I60605J0D01*
G01*
X7801864Y5003876D02*
G03*
X7795132Y5020170I-23085J0D01*
G01*
X7819603Y4945492D02*
G03*
X7819615Y4945480I42866J42843D01*
G01*
X7067690Y6527039D02*
G03*
X7083984Y6520307I16294J16353D01*
G01*
X7066074Y6528655D02*
G03*
X7053580Y6533830I-12494J-12494D01*
G01*
X7911749Y6360394D02*
G03*
X7789673Y6410960I-122076J-122076D01*
G01*
X7788341Y5034280D02*
G03*
X7793516Y5021786I17669J0D01*
G01*
X7244566Y6477234D02*
G03*
X7404566Y6410960I160000J160001D01*
G01*
X7232112Y6489688D02*
G03*
X7158186Y6520307I-73925J-73933D01*
G01*
X8006715Y6190992D02*
G03*
X7954080Y6318063I-179706J0D01*
G01*
X8152130Y5134610D02*
G03*
X8181594Y5205743I-71132J71132D01*
G01*
X8152130Y5134610D02*
G03*
X8152070Y5134550I69906J-69906D01*
G01*
X8085392Y4940152D02*
G03*
X8123174Y5031570I-91708J91418D01*
G01*
X7795132Y5020170D02*
G03*
X7795103Y5020200I-16353J-16294D01*
G01*
X7067660Y6527068D02*
G03*
X7067690Y6527039I16324J16324D01*
G01*
X7947533Y5422823D02*
G03*
X7883645Y5577062I-218127J0D01*
G01*
X7810500Y5751026D02*
G03*
X7881790Y5578918I243398J0D01*
G01*
X7755947Y6021733D02*
G03*
X7692548Y6047994I-63399J-63399D01*
G01*
X7810500Y5912214D02*
G03*
X7771633Y6006047I-132701J0D01*
G01*
X7947533Y5125347D02*
G03*
X7955861Y5105214I28501J0D01*
G01*
X7066067Y6208615D02*
G03*
X7053573Y6213790I-12494J-12494D01*
G01*
X7309609Y6111102D02*
G03*
X7461966Y6047994I152357J152357D01*
G01*
X7067683Y6206999D02*
G03*
X7083977Y6200267I16294J16353D01*
G01*
X7266379Y6154331D02*
G03*
X7155482Y6200267I-110898J-110898D01*
G01*
X7784846Y5740400D02*
G03*
X7856091Y5568337I243397J0D01*
G01*
X7921879Y5422638D02*
G03*
X7865374Y5559054I-192921J0D01*
G01*
X7738006Y6003394D02*
G03*
X7692267Y6022340I-45739J-45739D01*
G01*
X7784846Y5912012D02*
G03*
X7753424Y5987976I-107534J0D01*
G01*
X7083977Y6174613D02*
G03*
X7067683Y6167881I0J-23085D01*
G01*
X7053573Y6161090D02*
G03*
X7066067Y6166265I0J17669D01*
G01*
X7291469Y6092962D02*
G03*
X7291597Y6092834I170497J170497D01*
G01*
X7248421Y6136010D02*
G03*
X7155180Y6174613I-93241J-93306D01*
G01*
X7248453Y6135978D02*
G03*
X7248421Y6136010I-93273J-93273D01*
G01*
X7961056Y5092700D02*
G03*
X7955881Y5105194I-17669J0D01*
G01*
X7955861Y5105214D02*
G03*
X7955881Y5105194I20173J20134D01*
G01*
X7067653Y6207028D02*
G03*
X7067683Y6206999I16324J16324D01*
G01*
X7856091Y5568337D02*
G03*
X7856135Y5568292I172153J172063D01*
G01*
X7461616Y6022340D02*
G03*
X7461966Y6022340I350J241119D01*
G01*
X7753424Y5987976D02*
G03*
X7753350Y5988050I-76112J-75964D01*
G01*
X7913551Y5105214D02*
G03*
X7921879Y5125347I-20173J20134D01*
G01*
X7913532Y5105194D02*
G03*
X7913551Y5105214I-20153J20153D01*
G01*
X7913532Y5105194D02*
G03*
X7908356Y5092700I12494J-12494D01*
G01*
X7067683Y6167881D02*
G03*
X7067653Y6167852I16294J-16353D01*
G01*
X7291597Y6092834D02*
G03*
X7461616Y6022340I170369J170625D01*
G01*
X9197727Y6472254D02*
G03*
X9081715Y6520307I-116011J-116011D01*
G01*
X8820260Y6527068D02*
G03*
X8836584Y6520307I16324J16324D01*
G01*
X9344914Y6221208D02*
G03*
X9271658Y6398322I-250737J0D01*
G01*
X9300210Y4319717D02*
G03*
X9344914Y4427642I-107925J107925D01*
G01*
X9123741Y4229100D02*
G03*
X9270200Y4289707I0J207264D01*
G01*
X8838096Y4245444D02*
G03*
X8877654Y4229100I39558J39699D01*
G01*
X8818674Y6528655D02*
G03*
X8806180Y6533830I-12494J-12494D01*
G01*
X8450580Y4648261D02*
G03*
X8438086Y4643086I0J-17669D01*
G01*
X8420176Y4634738D02*
G03*
X8436470Y4641470I0J23085D01*
G01*
X8310595Y4300287D02*
G03*
X8310613Y4300269I92513J92476D01*
G01*
X8352419Y4634738D02*
G03*
X8306983Y4615949I0J-64334D01*
G01*
X8832818Y4250722D02*
G03*
X8799613Y4264457I-33205J-33269D01*
G01*
X8299491Y4608457D02*
G03*
X8272301Y4542815I65641J-65641D01*
G01*
Y4392763D02*
G03*
X8310595Y4300287I130807J0D01*
G01*
X8310982Y4299900D02*
G03*
X8396624Y4264457I85642J85749D01*
G01*
X8310929Y4299953D02*
G03*
X8310982Y4299900I85695J85695D01*
G01*
X9187100Y6446600D02*
G03*
X9071089Y6494653I-116011J-116011D01*
G01*
X8836584D02*
G03*
X8820260Y6487892I0J-23085D01*
G01*
X9319260Y6221045D02*
G03*
X9253220Y6380480I-225475J0D01*
G01*
X9113115Y4254754D02*
G03*
X9259574Y4315361I0J207264D01*
G01*
X8856070Y4263750D02*
G03*
X8877789Y4254754I21719J21719D01*
G01*
X8806180Y6481130D02*
G03*
X8818674Y6486305I0J17669D01*
G01*
X8438086Y4600736D02*
G03*
X8450580Y4595561I12494J12494D01*
G01*
X8436470Y4602352D02*
G03*
X8420176Y4609084I-16294J-16353D01*
G01*
X8352625D02*
G03*
X8324984Y4597671I0J-39178D01*
G01*
X8328856Y4318307D02*
G03*
X8328911Y4318251I74791J74679D01*
G01*
X8850802Y4269017D02*
G03*
X8799877Y4290111I-50925J-50925D01*
G01*
X8317767Y4590454D02*
G03*
X8297955Y4542581I47932J-47873D01*
G01*
Y4392986D02*
G03*
X8328856Y4318307I105691J0D01*
G01*
X8328981Y4318182D02*
G03*
X8396847Y4290111I67866J68005D01*
G01*
X8328911Y4318251D02*
G03*
X8328981Y4318182I67936J67936D01*
G01*
X9271658Y6398322D02*
G03*
X9271475Y6398505I-177481J-177114D01*
G01*
X9270200Y4289707D02*
G03*
X9270299Y4289806I-146458J146657D01*
G01*
X8832850Y4250690D02*
G03*
X8832818Y4250722I-33237J-33237D01*
G01*
X8838025Y4245514D02*
G03*
X8838096Y4245444I39628J39628D01*
G01*
X8436470Y4641470D02*
G03*
X8436500Y4641499I-16294J16353D01*
G01*
X8306983Y4615949D02*
G03*
X8306929Y4615895I45437J-45545D01*
G01*
X9281847Y4337634D02*
G03*
X9281921Y4337708I-90324J90324D01*
G01*
X9259574Y4315361D02*
G03*
X9259673Y4315460I-146458J146657D01*
G01*
X8436500Y4602323D02*
G03*
X8436470Y4602352I-16324J-16324D01*
G01*
X8324984Y4597671D02*
G03*
X8324923Y4597609I27641J-27764D01*
G01*
X8317797Y4590483D02*
G03*
X8317767Y4590454I47902J-47902D01*
G01*
X8984303Y6149017D02*
G03*
X8922428Y6174613I-61874J-61988D01*
G01*
X9010012Y6087030D02*
G03*
X8984388Y6148932I-87583J0D01*
G01*
X8968913Y4579447D02*
G03*
X9010012Y4678667I-99221J99221D01*
G01*
X8836006Y4514723D02*
G03*
X8952324Y4562857I0J164610D01*
G01*
X8836577Y6174613D02*
G03*
X8820253Y6167852I0J-23085D01*
G01*
X8806173Y6161090D02*
G03*
X8818667Y6166265I0J17669D01*
G01*
X8397413Y4523051D02*
G03*
X8417547Y4514723I20134J20173D01*
G01*
X8397394Y4523071D02*
G03*
X8397413Y4523051I20153J20153D01*
G01*
X8397394Y4523071D02*
G03*
X8384900Y4528246I-12494J-12494D01*
G01*
X8820253Y6207028D02*
G03*
X8836577Y6200267I16324J16324D01*
G01*
X9035666Y6087356D02*
G03*
X9002730Y6166870I-112449J0D01*
G01*
X8994986Y6174615D02*
G03*
X8933055Y6200267I-61931J-61932D01*
G01*
X8836141Y4489069D02*
G03*
X8970447Y4544700I0J189937D01*
G01*
X8818667Y6208615D02*
G03*
X8806173Y6213790I-12494J-12494D01*
G01*
X8397413Y4480741D02*
G03*
X8397394Y4480721I20134J-20173D01*
G01*
X8417547Y4489069D02*
G03*
X8397413Y4480741I0J-28501D01*
G01*
X8384900Y4475546D02*
G03*
X8397394Y4480721I0J17669D01*
G01*
X8984359Y6148961D02*
G03*
X8984303Y6149017I-61931J-61932D01*
G01*
X8984388Y6148932D02*
G03*
X8984359Y6148961I-61959J-61902D01*
G01*
X8952324Y4562857D02*
G03*
X8952403Y4562936I-116318J116476D01*
G01*
X8994646Y4568899D02*
G03*
X9035666Y4668040I-99298J99142D01*
G01*
X8994568Y4568821D02*
G03*
X8994646Y4568899I-99220J99220D01*
G01*
X9211447Y6146592D02*
G03*
X9222740Y6151270I0J15971D01*
G01*
X9202929Y6146592D02*
G03*
X9193768Y6142798I0J-12955D01*
G01*
D02*
G03*
X9189974Y6133638I9160J-9160D01*
G01*
X8991701Y4369054D02*
G03*
X9083019Y4406879I0J129143D01*
G01*
X8932807Y4369054D02*
G03*
X8912654Y4360706I0J-28501D01*
G01*
X9222740Y6203970D02*
G03*
X9215794Y6201104I0J-9850D01*
G01*
D02*
G03*
X9215775Y6201085I6946J-6984D01*
G01*
X9175519Y6160829D02*
G03*
X9164320Y6133792I27037J-27037D01*
G01*
X8912654Y4403056D02*
G03*
X8932807Y4394708I20153J20153D01*
G01*
X8981075D02*
G03*
X9072393Y4432533I0J129143D01*
G01*
X9110256Y4470396D02*
G03*
X9164320Y4600971I-130651J130575D01*
G01*
X9110219Y4470358D02*
G03*
X9110256Y4470396I-130613J130613D01*
G01*
X8900160Y4355531D02*
G03*
X8912654Y4360706I0J17669D01*
G01*
Y4403056D02*
G03*
X8900160Y4408231I-12494J-12494D01*
G01*
X9135873Y4459733D02*
G03*
X9189974Y4590345I-130613J130613D01*
G01*
X6134728Y3504459D02*
G03*
X6122235Y3499285I0J-17668D01*
G01*
X6136973Y3504459D02*
G03*
X6153283Y3511208I0J23086D01*
G01*
X6172641Y3519752D02*
G03*
X6154181Y3512106I0J-26106D01*
G01*
X6232477Y3512808D02*
G03*
X6200954Y3519752I-31524J-68075D01*
G01*
X9703618Y3484880D02*
G03*
X9883224Y3559275I0J254000D01*
G01*
X10095182Y3771233D02*
G03*
X10117179Y3824338I-53105J53105D01*
G01*
X10054196Y8196326D02*
G03*
X10061485Y8193307I7289J7289D01*
G01*
X10126265Y5367359D02*
G03*
X10126264Y5367099I132909J-260D01*
G01*
X10134014Y8173247D02*
G03*
X10085585Y8193307I-48429J-48429D01*
G01*
X10146648Y3906167D02*
G03*
X10117179Y3834965I71285J-71203D01*
G01*
X10132060Y4510745D02*
G03*
X10173161Y4411520I140326J0D01*
G01*
X10126265Y5366867D02*
G03*
X10165085Y5273035I132809J0D01*
G01*
X10134298Y8173106D02*
G03*
X10215810Y8143240I81512J96298D01*
G01*
X10188740Y7241021D02*
G03*
X10190501Y7236768I6014J0D01*
G01*
X10193335Y7234996D02*
G03*
X10193324Y7235007I-18331J-18309D01*
G01*
X10200913Y7216687D02*
G03*
X10193335Y7234996I-25909J0D01*
G01*
X10192870Y3952390D02*
G03*
X10232010Y4046882I-94492J94492D01*
G01*
X10213340Y5156649D02*
G03*
X10165164Y5272956I-164484J0D01*
G01*
X10232010Y4311058D02*
G03*
X10202626Y4382054I-100461J0D01*
G01*
X10200913Y7216485D02*
G03*
X10227826Y7151414I92123J0D01*
G01*
X10247646Y5543533D02*
G03*
X10312400Y5699863I-156329J156329D01*
G01*
Y7007086D02*
G03*
X10270161Y7109079I-144260J0D01*
G01*
X10188740Y7324521D02*
G03*
X10190501Y7320268I6014J0D01*
G01*
X10192263Y7278553D02*
G03*
X10188740Y7270048I8505J-8505D01*
G01*
X10192249Y7362040D02*
G03*
X10188740Y7353548I8519J-8492D01*
G01*
X10192263Y7362053D02*
G03*
X10192249Y7362040I8505J-8505D01*
G01*
X10197119Y7365847D02*
G03*
X10200913Y7375008I-9160J9160D01*
G01*
Y7300187D02*
G03*
X10193324Y7318507I-25909J0D01*
G01*
X10197119Y7282347D02*
G03*
X10200913Y7291508I-9160J9160D01*
G01*
X10214062Y7425650D02*
G03*
X10200913Y7393906I31744J-31744D01*
G01*
X10370064Y8113516D02*
G03*
X10298230Y8143240I-71834J-71939D01*
G01*
X10351516Y7563105D02*
G03*
X10399893Y7679897I-116793J116793D01*
G01*
Y8041578D02*
G03*
X10370117Y8113464I-101662J0D01*
G01*
X6254045Y3497735D02*
G03*
X6285142Y3484880I31097J31185D01*
G01*
X6254001Y3497779D02*
G03*
X6254045Y3497735I31141J31141D01*
G01*
X6168564Y3490209D02*
G03*
X6164675Y3480818I9391J-9391D01*
G01*
X6177955Y3494098D02*
G03*
X6168564Y3490209I0J-13280D01*
G01*
X6221851Y3487154D02*
G03*
X6190327Y3494098I-31524J-68076D01*
G01*
X6243375Y3472125D02*
G03*
X6221851Y3487154I-53048J-53048D01*
G01*
X9703754Y3459226D02*
G03*
X9901268Y3541039I0J279328D01*
G01*
X10113481Y3753253D02*
G03*
X10142832Y3824113I-70860J70860D01*
G01*
X10134180Y8209360D02*
G03*
X10134162Y8209378I-9233J-9087D01*
G01*
X10134817Y8208663D02*
G03*
X10134180Y8209360I-9871J-8389D01*
G01*
X10107982Y8227526D02*
G03*
X10062628Y8246313I-45354J-45354D01*
G01*
X10113214Y8225307D02*
G03*
X10107983Y8227526I-9018J-13981D01*
G01*
X10172343Y3895583D02*
G03*
X10142833Y3824338I71244J-71244D01*
G01*
X10151919Y5367004D02*
G03*
X10183401Y5290999I107486J0D01*
G01*
X10157714Y4521372D02*
G03*
X10198753Y4422208I140327J0D01*
G01*
X10178106Y4618045D02*
G03*
X10157714Y4568775I49329J-49271D01*
G01*
X10183401Y5443007D02*
G03*
X10151919Y5367004I76004J-76004D01*
G01*
X10144643Y8198428D02*
G03*
X10215945Y8168894I71302J71302D01*
G01*
X10183485Y5290915D02*
G03*
X10183435Y5290965I-134181J-134082D01*
G01*
X10198555Y4638495D02*
G03*
X10238994Y4736123I-97629J97629D01*
G01*
X10234144Y7234996D02*
G03*
X10226567Y7216687I18331J-18309D01*
G01*
X10234155Y7235007D02*
G03*
X10234144Y7234996I18320J-18320D01*
G01*
X10236979Y7236768D02*
G03*
X10238740Y7241021I-4253J4253D01*
G01*
X10211215Y3934455D02*
G03*
X10257664Y4046593I-112138J112138D01*
G01*
X10238994Y5156834D02*
G03*
X10183485Y5290915I-189691J0D01*
G01*
X10257664Y4311231D02*
G03*
X10220848Y4400112I-125697J0D01*
G01*
X10226567Y7216687D02*
G03*
X10246141Y7169379I66955J0D01*
G01*
X10338054Y7007482D02*
G03*
X10288568Y7126952I-168957J0D01*
G01*
X10226567Y7291508D02*
G03*
X10230361Y7282347I12955J0D01*
G01*
X10234155Y7318507D02*
G03*
X10226567Y7300187I18320J-18320D01*
G01*
Y7375008D02*
G03*
X10230361Y7365847I12955J0D01*
G01*
X10232309Y7407617D02*
G03*
X10226567Y7393755I13862J-13862D01*
G01*
X10235230Y7362040D02*
G03*
X10235217Y7362053I-8519J-8492D01*
G01*
X10238740Y7270048D02*
G03*
X10235217Y7278553I-12028J0D01*
G01*
X10238740Y7353548D02*
G03*
X10235230Y7362040I-12028J0D01*
G01*
X10236979Y7320268D02*
G03*
X10238740Y7324521I-4253J4253D01*
G01*
X10388007Y8131853D02*
G03*
X10298582Y8168894I-89425J-89425D01*
G01*
X10369866Y7545175D02*
G03*
X10425547Y7679600I-134425J134425D01*
G01*
X10425547Y8041914D02*
G03*
X10388495Y8131365I-126504J0D01*
G01*
X6248890Y3466610D02*
G03*
X6266827Y3459226I17937J18094D01*
G01*
X6248811Y3466689D02*
G03*
X6248890Y3466610I18016J18016D01*
G01*
X6254000Y3497780D02*
G03*
X6232477Y3512808I-53047J-53047D01*
G01*
X10370117Y8113464D02*
G03*
X10370064Y8113516I-71887J-71887D01*
G01*
X10227826Y7151414D02*
G03*
X10227895Y7151345I65210J65071D01*
G01*
X10180244Y4656464D02*
G03*
X10213340Y4736407I-80002J79942D01*
G01*
X10180214Y4656434D02*
G03*
X10180244Y4656464I-79972J79972D01*
G01*
X10202626Y4382054D02*
G03*
X10202586Y4382095I-71077J-70996D01*
G01*
X10165193Y5461080D02*
G03*
X10165160Y5461047I93981J-93981D01*
G01*
X10165085Y5273035D02*
G03*
X10165164Y5272956I93989J93832D01*
G01*
X10165160Y5461047D02*
G03*
X10126265Y5367359I94014J-93948D01*
G01*
X10159927Y4636147D02*
G03*
X10159775Y4635995I67277J-67277D01*
G01*
X10146689Y3906209D02*
G03*
X10146648Y3906167I71244J-71244D01*
G01*
X10159775Y4635995D02*
G03*
X10132060Y4569090I67429J-67125D01*
G01*
D02*
G03*
X10132060Y4568870I95144J-220D01*
G01*
X10266073Y5525680D02*
G03*
X10338054Y5699768I-174527J174087D01*
G01*
X10246141Y7169379D02*
G03*
X10246177Y7169343I47380J47308D01*
G01*
X10265854Y5525460D02*
G03*
X10266073Y5525680I-174307J174307D01*
G01*
X10198753Y4422208D02*
G03*
X10198815Y4422145I99288J99164D01*
G01*
X10178135Y4618074D02*
G03*
X10178106Y4618045I49300J-49300D01*
G01*
X10143165Y8200116D02*
G03*
X10142856Y8200403I-8969J-9348D01*
G01*
X10139611Y8203460D02*
G03*
X10142856Y8200403I57587J57865D01*
G01*
X10128331Y8215209D02*
G03*
X10126193Y8216935I-9159J-9160D01*
G01*
X10134817Y8208663D02*
G03*
X10139334Y8203737I62381J52662D01*
G01*
D02*
G03*
X10139611Y8203460I57865J57587D01*
G01*
X6164534Y3472289D02*
G03*
X6164675Y3474513I-17527J2224D01*
G01*
X6159500Y3462020D02*
G03*
X6164534Y3472289I-12493J12493D01*
G01*
X10047119Y7365847D02*
G03*
X10050913Y7375008I-9160J9160D01*
G01*
Y7300187D02*
G03*
X10043325Y7318507I-25909J0D01*
G01*
X10050913Y7392102D02*
G03*
X10035031Y7430445I-54225J0D01*
G01*
X10047119Y7282347D02*
G03*
X10050913Y7291508I-9160J9160D01*
G01*
X10043336Y7234996D02*
G03*
X10043325Y7235007I-18331J-18309D01*
G01*
X10042263Y7362053D02*
G03*
X10042249Y7362040I8505J-8505D01*
G01*
X10038740Y7324521D02*
G03*
X10040501Y7320268I6014J0D01*
G01*
X10042249Y7362040D02*
G03*
X10038740Y7353548I8519J-8492D01*
G01*
Y7241021D02*
G03*
X10040501Y7236768I6014J0D01*
G01*
X10042263Y7278553D02*
G03*
X10038740Y7270048I8505J-8505D01*
G01*
X10210800Y6890525D02*
G03*
X10143393Y7053383I-230440J0D01*
G01*
X10150282Y5602799D02*
G03*
X10210800Y5748903I-146104J146104D01*
G01*
X10050913Y7181074D02*
G03*
X10075747Y7121029I85006J0D01*
G01*
X10103606Y5062137D02*
G03*
X10078106Y5123794I-87291J0D01*
G01*
X10065763Y4780743D02*
G03*
X10103606Y4872104I-91361J91361D01*
G01*
X10065642Y4780622D02*
G03*
X10027920Y4689554I91068J-91068D01*
G01*
X10050913Y7216687D02*
G03*
X10043336Y7234996I-25909J0D01*
G01*
X10073314Y4308611D02*
G03*
X10057973Y4345647I-52376J0D01*
G01*
X10057952Y4345668D02*
G03*
X10057973Y4345647I72576J72534D01*
G01*
X10050437Y4046597D02*
G03*
X10073314Y4101827I-55230J55230D01*
G01*
X10027920Y4418201D02*
G03*
X10057952Y4345668I102608J0D01*
G01*
X9883806Y7846314D02*
G03*
X9869120Y7840231I0J-20770D01*
G01*
X9853436Y7845151D02*
G03*
X9863910Y7839819I10474J7622D01*
G01*
X9944318Y7521158D02*
G03*
X9793459Y7583645I-150859J-150859D01*
G01*
X9673425Y7888606D02*
G03*
X9623821Y7868060I0J-70150D01*
G01*
X9842937Y7857312D02*
G03*
X9767201Y7888606I-75736J-75996D01*
G01*
X9616143Y7860381D02*
G03*
X9588246Y7793032I67349J-67349D01*
G01*
X9633333Y7631376D02*
G03*
X9748621Y7583645I115288J115369D01*
G01*
X9588246Y7731468D02*
G03*
X9627102Y7637607I132795J0D01*
G01*
X10001338Y5272876D02*
G03*
X10052472Y5149428I174582J0D01*
G01*
X10035124Y4031284D02*
G03*
X9999726Y3945825I85459J-85459D01*
G01*
X9973886Y3846900D02*
G03*
X9999726Y3909283I-62382J62382D01*
G01*
X9606336Y3584561D02*
G03*
X9785942Y3658955I0J254000D01*
G01*
X6079643Y3584561D02*
G03*
X6022774Y3561039I0J-80506D01*
G01*
X5989948Y3540019D02*
G03*
X5977455Y3534845I0J-17668D01*
G01*
X5992192Y3540019D02*
G03*
X6008516Y3546781I0J23085D01*
G01*
X10088740Y7353548D02*
G03*
X10085231Y7362040I-12028J0D01*
G01*
X10086979Y7320268D02*
G03*
X10088740Y7324521I-4253J4253D01*
G01*
X10085231Y7362040D02*
G03*
X10085217Y7362053I-8519J-8492D01*
G01*
X10086979Y7236768D02*
G03*
X10088740Y7241021I-4253J4253D01*
G01*
Y7270048D02*
G03*
X10085217Y7278553I-12028J0D01*
G01*
X10084156Y7318507D02*
G03*
X10076567Y7300187I18320J-18320D01*
G01*
Y7397415D02*
G03*
X10056928Y7444828I-67051J0D01*
G01*
X10076567Y7375008D02*
G03*
X10080361Y7365847I12955J0D01*
G01*
X10084156Y7235007D02*
G03*
X10084145Y7234996I18320J-18320D01*
G01*
X10076567Y7291508D02*
G03*
X10080361Y7282347I12955J0D01*
G01*
X10236454Y6891027D02*
G03*
X10161801Y7071255I-254880J0D01*
G01*
X10168674Y5584911D02*
G03*
X10236454Y5748546I-163634J163634D01*
G01*
X10129260Y5062324D02*
G03*
X10096341Y5141839I-112494J0D01*
G01*
X10098968Y4308834D02*
G03*
X10076320Y4363580I-77492J0D01*
G01*
X10068733Y4028613D02*
G03*
X10098968Y4101606I-72992J72992D01*
G01*
X10076567Y7181275D02*
G03*
X10094063Y7138994I59838J0D01*
G01*
X10084145Y7234996D02*
G03*
X10076567Y7216687I18331J-18309D01*
G01*
X10083970Y4762670D02*
G03*
X10053574Y4689288I73383J-73383D01*
G01*
Y4418424D02*
G03*
X10076222Y4363678I77492J0D01*
G01*
X9869150Y7802380D02*
G03*
X9883806Y7796327I14656J14717D01*
G01*
X9843716Y7814171D02*
G03*
X9854434Y7808493I10718J7276D01*
G01*
X9869090Y7802440D02*
G03*
X9854434Y7808493I-14656J-14717D01*
G01*
X10070037Y5486274D02*
G03*
X10026992Y5382260I104149J-104014D01*
G01*
Y5283502D02*
G03*
X10078126Y5160054I174582J0D01*
G01*
X9954944Y7546812D02*
G03*
X9804086Y7609299I-150859J-150859D01*
G01*
X9824860Y7839109D02*
G03*
X9767201Y7862952I-57659J-57793D01*
G01*
X9684051D02*
G03*
X9634447Y7842405I0J-70151D01*
G01*
D02*
G03*
X9613900Y7792801I49604J-49604D01*
G01*
X9843703Y7814191D02*
G03*
X9843716Y7814171I10731J7257D01*
G01*
X9651346Y7649643D02*
G03*
X9748844Y7609299I97498J97640D01*
G01*
X9613900Y7739945D02*
G03*
X9651275Y7649714I127607J0D01*
G01*
X10053404Y4013284D02*
G03*
X10025380Y3945550I67846J-67734D01*
G01*
X9992113Y3828847D02*
G03*
X10025380Y3909160I-80314J80314D01*
G01*
X9606472Y3558907D02*
G03*
X9803986Y3640720I0J279328D01*
G01*
X6079839Y3558907D02*
G03*
X6040718Y3542702I0J-55326D01*
G01*
X6014720Y3497580D02*
G03*
X6019895Y3510073I-12493J12493D01*
G01*
X6026605Y3528590D02*
G03*
X6019895Y3512317I16375J-16273D01*
G01*
X6026656Y3528641D02*
G03*
X6026605Y3528590I16324J-16324D01*
G01*
X10143393Y7053383D02*
G03*
X10143306Y7053471I-163033J-162859D01*
G01*
X10075747Y7121029D02*
G03*
X10075811Y7120965I60172J60045D01*
G01*
X10078106Y5123794D02*
G03*
X10078039Y5123861I-61791J-61656D01*
G01*
X10051812Y5504329D02*
G03*
X10051710Y5504227I121855J-121855D01*
G01*
X9853436Y7845151D02*
G03*
X9843198Y7857051I-86234J-63836D01*
G01*
D02*
G03*
X9842937Y7857312I-75996J-75736D01*
G01*
X10051710Y5504227D02*
G03*
X10001338Y5382770I121957J-121753D01*
G01*
D02*
G03*
X10001338Y5382474I172329J-296D01*
G01*
X9633293Y7631416D02*
G03*
X9633333Y7631376I115329J115329D01*
G01*
X9627102Y7637607D02*
G03*
X9627141Y7637568I93939J93861D01*
G01*
X6022774Y3561039D02*
G03*
X6022716Y3560981I56869J-56984D01*
G01*
X10096341Y5141839D02*
G03*
X10096311Y5141869I-79575J-79515D01*
G01*
X10084140Y4762840D02*
G03*
X10129260Y4872009I-109508J109169D01*
G01*
X10094063Y7138994D02*
G03*
X10094093Y7138963I42343J42281D01*
G01*
X10083970Y4762670D02*
G03*
X10084140Y4762840I-109339J109339D01*
G01*
X10070104Y5486341D02*
G03*
X10070037Y5486274I104081J-104081D01*
G01*
X10076222Y4363678D02*
G03*
X10076271Y4363629I54844J54746D01*
G01*
X10076320Y4363580D02*
G03*
X10076271Y4363629I-54844J-54746D01*
G01*
X10053460Y4013340D02*
G03*
X10053404Y4013284I67790J-67790D01*
G01*
X9869120Y7802410D02*
G03*
X9869150Y7802380I14686J14686D01*
G01*
X9869120Y7802410D02*
G03*
X9869090Y7802440I-14686J-14686D01*
G01*
X9824995Y7838974D02*
G03*
X9824860Y7839109I-57793J-57659D01*
G01*
X9834394Y7827681D02*
G03*
X9824995Y7838974I-67192J-46366D01*
G01*
X9651275Y7649714D02*
G03*
X9651346Y7649643I97569J97569D01*
G01*
X10109966Y8008493D02*
G03*
X10095310Y8002440I0J-20770D01*
G01*
X9883816Y8046339D02*
G03*
X9869114Y8040249I0J-20791D01*
G01*
X10167806Y8000165D02*
G03*
X10147673Y8008493I-20134J-20173D01*
G01*
X9794694Y8042507D02*
G03*
X9782200Y8047683I-12494J-12494D01*
G01*
X10080593Y7996326D02*
G03*
X10095249Y8002379I0J20770D01*
G01*
X9695367Y6647367D02*
G03*
X9727480Y6724894I-77526J77526D01*
G01*
Y6932776D02*
G03*
X9680405Y7046425I-160724J0D01*
G01*
X9695367Y6647367D02*
G03*
X9695283Y6647283I77527J-77527D01*
G01*
X9413126Y7845095D02*
G03*
X9400632Y7839920I0J-17669D01*
G01*
X9629945Y4065525D02*
G03*
X9663254Y4145941I-80416J80416D01*
G01*
X9382722Y7831572D02*
G03*
X9399016Y7838304I0J23085D01*
G01*
X9357222Y7831572D02*
G03*
X9314241Y7813821I0J-60911D01*
G01*
D02*
G03*
X9314152Y7813732I42982J-43160D01*
G01*
X9313901Y7813480D02*
G03*
X9285986Y7746089I67392J-67392D01*
G01*
Y7551181D02*
G03*
X9364006Y7362824I266377J0D01*
G01*
X9382760Y3893714D02*
G03*
X9511431Y3947011I0J181969D01*
G01*
X5967720Y3846820D02*
G03*
X5967731Y3846831I-29573J29595D01*
G01*
X5938147Y3834577D02*
G03*
X5967720Y3846820I0J41838D01*
G01*
X5918014Y3842905D02*
G03*
X5938147Y3834577I20134J20173D01*
G01*
X5990734Y3869834D02*
G03*
X5990657Y3869758I57760J-57912D01*
G01*
X6048493Y3893714D02*
G03*
X5990734Y3869834I0J-81792D01*
G01*
X10095249Y8040261D02*
G03*
X10080593Y8046314I-14656J-14717D01*
G01*
X10147673Y8034147D02*
G03*
X10167806Y8042475I0J28501D01*
G01*
X10095310Y8040200D02*
G03*
X10109966Y8034147I14656J14717D01*
G01*
X9869114Y8002416D02*
G03*
X9883816Y7996326I14702J14702D01*
G01*
X9790306Y7996951D02*
G03*
X9794694Y8000158I-8105J15700D01*
G01*
X9753134Y6943403D02*
G03*
X9706146Y7056964I-160723J0D01*
G01*
X9713544Y6629264D02*
G03*
X9688908Y6569745I59581J-59519D01*
G01*
X9655599Y4054899D02*
G03*
X9688908Y4135315I-80416J80416D01*
G01*
X9399016Y7799187D02*
G03*
X9382722Y7805918I-16294J-16353D01*
G01*
X9357357D02*
G03*
X9332196Y7795496I0J-35583D01*
G01*
X9400632Y7797571D02*
G03*
X9413126Y7792395I12494J12494D01*
G01*
X9311640Y7556500D02*
G03*
X9385882Y7377228I253565J0D01*
G01*
X9332196Y7795496D02*
G03*
X9311640Y7745869I49628J-49628D01*
G01*
X9385483Y3868060D02*
G03*
X9527581Y3926881I0J201050D01*
G01*
X5938313Y3808923D02*
G03*
X5985754Y3828574I0J67092D01*
G01*
X5938147Y3808923D02*
G03*
X5918014Y3800595I0J-28501D01*
G01*
X6008783Y3851603D02*
G03*
X6008730Y3851550I39805J-39911D01*
G01*
X6048588Y3868060D02*
G03*
X6008783Y3851603I0J-56368D01*
G01*
X10095310Y8002440D02*
G03*
X10095279Y8002410I14656J-14717D01*
G01*
X10167826Y8000145D02*
G03*
X10167806Y8000165I-20153J-20153D01*
G01*
X10095249Y8002379D02*
G03*
X10095279Y8002410I-14656J14717D01*
G01*
X9796281Y8040921D02*
G03*
X9796310Y8040891I16324J16324D01*
G01*
X10167826Y8000145D02*
G03*
X10180320Y7994970I12494J12494D01*
G01*
X9695283Y6647283D02*
G03*
X9663254Y6570076I77611J-77444D01*
G01*
D02*
G03*
X9663254Y6569840I109640J-236D01*
G01*
X9399016Y7838304D02*
G03*
X9399046Y7838334I-16294J16353D01*
G01*
X5917994Y3842925D02*
G03*
X5905500Y3848100I-12494J-12494D01*
G01*
X5917994Y3842925D02*
G03*
X5918014Y3842905I20153J20153D01*
G01*
X10180320Y8047670D02*
G03*
X10167826Y8042495I0J-17669D01*
G01*
X10167806Y8042475D02*
G03*
X10167826Y8042495I-20134J20173D01*
G01*
X10095279Y8040230D02*
G03*
X10095310Y8040200I14686J14686D01*
G01*
X10095279Y8040230D02*
G03*
X10095249Y8040261I-14686J-14686D01*
G01*
X9796310Y8001774D02*
G03*
X9796281Y8001744I16294J-16353D01*
G01*
X9782200Y7994983D02*
G03*
X9790306Y7996951I0J17669D01*
G01*
X9713693Y6629413D02*
G03*
X9753134Y6724799I-95622J95386D01*
G01*
X9713575Y6629295D02*
G03*
X9713693Y6629413I-95504J95504D01*
G01*
X9713575Y6629295D02*
G03*
X9713544Y6629264I59550J-59550D01*
G01*
X9706146Y7056964D02*
G03*
X9706059Y7057051I-113734J-113562D01*
G01*
X9527581Y3926881D02*
G03*
X9527646Y3926946I-142098J142229D01*
G01*
X9399046Y7799157D02*
G03*
X9399016Y7799187I-16324J-16324D01*
G01*
X5918014Y3800595D02*
G03*
X5917994Y3800575I20134J-20173D01*
G01*
X5905500Y3795400D02*
G03*
X5917994Y3800575I0J17669D01*
G01*
X10322051Y7819572D02*
G03*
X10300656Y7871223I-73046J0D01*
G01*
X10273880Y7589617D02*
G03*
X10322051Y7705911I-116294J116294D01*
G01*
X10298302Y7873578D02*
G03*
X10262021Y7888606I-36281J-36281D01*
G01*
X10197198D02*
G03*
X10110848Y7844994I0J-107291D01*
G01*
X10190313Y7530846D02*
G03*
X10232642Y7548379I0J59861D01*
G01*
X10095279Y7840231D02*
G03*
X10080593Y7846314I-14686J-14686D01*
G01*
X10100489Y7839819D02*
G03*
X10110848Y7844994I0J12955D01*
G01*
X9839605Y6601105D02*
G03*
X9832059Y6582837I18338J-18268D01*
G01*
X9880854Y6302368D02*
G03*
X9856538Y6361073I-83021J0D01*
G01*
X9832059Y6408117D02*
G03*
X9847962Y6369649I54477J0D01*
G01*
X9772679Y7317497D02*
G03*
X9774440Y7321750I-4253J4253D01*
G01*
Y7353268D02*
G03*
X9772679Y7357521I-6014J0D01*
G01*
X9774440Y7267277D02*
G03*
X9770917Y7275782I-12028J0D01*
G01*
X9810626Y5555406D02*
G03*
X9792182Y5510877I44530J-44530D01*
G01*
X9772679Y7233997D02*
G03*
X9774440Y7238250I-4253J4253D01*
G01*
X9770615Y7414466D02*
G03*
X9775790Y7426960I-12494J12494D01*
G01*
X9769856Y7232236D02*
G03*
X9769845Y7232225I18320J-18320D01*
G01*
X9768999Y7412850D02*
G03*
X9762267Y7396556I16353J-16294D01*
G01*
X9769845Y7359293D02*
G03*
X9769856Y7359282I18331J18309D01*
G01*
X9769845Y7232225D02*
G03*
X9762267Y7213916I18331J-18309D01*
G01*
X9769856Y7315736D02*
G03*
X9762267Y7297416I18320J-18320D01*
G01*
Y7288737D02*
G03*
X9766061Y7279577I12955J0D01*
G01*
X9743769Y3951700D02*
G03*
X9792182Y4068578I-116879J116879D01*
G01*
X9762267Y7171677D02*
G03*
X9784621Y7117710I76321J0D01*
G01*
X9488734Y3773278D02*
G03*
X9619445Y3827376I0J184960D01*
G01*
X6196022Y3754751D02*
G03*
X6196194Y3754751I172J58246D01*
G01*
X6155152Y3771668D02*
G03*
X6196022Y3754751I41042J41329D01*
G01*
X6155008Y3771811D02*
G03*
X6155152Y3771668I41186J41186D01*
G01*
X6154883Y3771936D02*
G03*
X6134728Y3780285I-20155J-20155D01*
G01*
X6122235Y3785459D02*
G03*
X6134728Y3780285I12493J12493D01*
G01*
X10282456Y7853143D02*
G03*
X10282417Y7853183I-33791J-33711D01*
G01*
D02*
G03*
X10282376Y7853224I-23585J-23585D01*
G01*
X10296397Y7819432D02*
G03*
X10282456Y7853143I-47731J0D01*
G01*
X10282376Y7853224D02*
G03*
X10258832Y7862952I-23544J-23626D01*
G01*
X10197198D02*
G03*
X10139611Y7839180I0J-81637D01*
G01*
X10214615Y7566632D02*
G03*
X10214637Y7566654I-24493J24537D01*
G01*
X10190122Y7556500D02*
G03*
X10214615Y7566632I0J34670D01*
G01*
X10139334Y7838903D02*
G03*
X10130005Y7827681I57865J-57587D01*
G01*
X10109966Y7808493D02*
G03*
X10120659Y7814137I0J12954D01*
G01*
X10109966Y7808493D02*
G03*
X10095279Y7802410I0J-20770D01*
G01*
X10080593Y7796327D02*
G03*
X10095279Y7802410I0J20770D01*
G01*
X9855200Y6302254D02*
G03*
X9838317Y6343014I-57644J0D01*
G01*
X9806405Y6407895D02*
G03*
X9829673Y6351658I79593J0D01*
G01*
X9732819Y7279577D02*
G03*
X9736613Y7288737I-9160J9160D01*
G01*
Y7171542D02*
G03*
X9766286Y7099765I101649J0D01*
G01*
X9736613Y7396556D02*
G03*
X9729882Y7412850I-23085J0D01*
G01*
X9736613Y7297416D02*
G03*
X9729025Y7315736I-25909J0D01*
G01*
Y7359282D02*
G03*
X9729036Y7359293I-18320J18320D01*
G01*
Y7232225D02*
G03*
X9729025Y7232236I-18331J-18309D01*
G01*
X9724440Y7321750D02*
G03*
X9726202Y7317497I6014J0D01*
G01*
X9723091Y7426960D02*
G03*
X9728266Y7414466I17669J0D01*
G01*
X9726202Y7357521D02*
G03*
X9724440Y7353268I4253J-4253D01*
G01*
Y7238250D02*
G03*
X9726202Y7233997I6014J0D01*
G01*
X9727963Y7275782D02*
G03*
X9724440Y7267277I8505J-8505D01*
G01*
X9718115Y3962326D02*
G03*
X9766528Y4079205I-116879J116879D01*
G01*
X9736613Y7213916D02*
G03*
X9729036Y7232225I-25909J0D01*
G01*
X9478108Y3798932D02*
G03*
X9608819Y3853030I0J184960D01*
G01*
X6173048Y3790051D02*
G03*
X6196371Y3780405I23323J23373D01*
G01*
X6173023Y3790076D02*
G03*
X6173048Y3790051I23348J23348D01*
G01*
X6164675Y3810231D02*
G03*
X6173023Y3790076I28503J0D01*
G01*
X6164675Y3810231D02*
G03*
X6159500Y3822724I-17668J0D01*
G01*
X9847962Y6369649D02*
G03*
X9848015Y6369596I38574J38469D01*
G01*
X9829208Y5573988D02*
G03*
X9880854Y5698866I-125152J124877D01*
G01*
X9829071Y5573851D02*
G03*
X9829208Y5573988I-125015J125015D01*
G01*
X9769029Y7412880D02*
G03*
X9768999Y7412850I16324J-16324D01*
G01*
X9762267Y7377602D02*
G03*
X9769845Y7359293I25909J1D01*
G01*
X9619445Y3827376D02*
G03*
X9619521Y3827452I-130711J130863D01*
G01*
X10255570Y7607587D02*
G03*
X10296397Y7706227I-98745J98640D01*
G01*
X10255517Y7607534D02*
G03*
X10255570Y7607587I-98692J98692D01*
G01*
X10139611Y7839180D02*
G03*
X10139334Y7838903I57587J-57865D01*
G01*
X9821361Y6619141D02*
G03*
X9806405Y6583094I36352J-36209D01*
G01*
D02*
G03*
X9806404Y6582932I51308J-162D01*
G01*
X9829673Y6351658D02*
G03*
X9829717Y6351614I56324J56237D01*
G01*
X9729882Y7412850D02*
G03*
X9729852Y7412880I-16353J-16294D01*
G01*
X9792419Y5573479D02*
G03*
X9792277Y5573337I62507J-62507D01*
G01*
D02*
G03*
X9766528Y5511184I62648J-62365D01*
G01*
D02*
G03*
X9766527Y5510972I88398J-212D01*
G01*
X9766286Y7099765D02*
G03*
X9766385Y7099665I71975J71777D01*
G01*
X9729036Y7359293D02*
G03*
X9736613Y7377602I-18331J18309D01*
G01*
X9608819Y3853030D02*
G03*
X9608895Y3853106I-130711J130863D01*
G01*
X9821912Y7939304D02*
G03*
X9821887Y7939280I16958J-17006D01*
G01*
X9826357Y7942797D02*
G03*
X9821912Y7939304I12513J-20499D01*
G01*
X9838870Y7946314D02*
G03*
X9826357Y7942797I0J-24016D01*
G01*
X10314209Y8065231D02*
G03*
X10239057Y8096326I-75153J-75268D01*
G01*
X10314267Y8065173D02*
G03*
X10314209Y8065231I-75210J-75210D01*
G01*
X10414602Y7395089D02*
G03*
X10403363Y7411375I-50018J-22493D01*
G01*
X10419426Y7372596D02*
G03*
X10414602Y7395089I-54842J0D01*
G01*
X7893902Y6341962D02*
X7935812Y6300052D01*
X7393940Y6385306D02*
X7789260D01*
X7981061Y6144260D02*
Y6190810D01*
X7221490Y6464031D02*
X7233940Y6451580D01*
X7083984Y6494653D02*
X7147560D01*
X7066074Y6486305D02*
X7067660Y6487892D01*
X7894874Y4937760D02*
X8017983D01*
X7834279Y5020200D02*
X7835866Y5021786D01*
X7827518Y4993648D02*
Y5003876D01*
X8097520Y5031665D02*
Y5065226D01*
X8155940Y5206265D02*
Y5252720D01*
X8130540Y5278120D02*
X8155940Y5252720D01*
X8130540Y5278120D02*
Y5316220D01*
X8155940Y5341620D01*
Y5379720D01*
Y5511695D01*
X7981061Y5852954D02*
Y5890260D01*
X7955661Y5915660D02*
X7981061Y5890260D01*
X7955661Y5915660D02*
Y5953760D01*
X7981061Y5979160D01*
Y6017260D01*
X7955661Y6042660D02*
X7981061Y6017260D01*
X7955661Y6042660D02*
Y6080760D01*
X7981061Y6106160D01*
Y6144260D01*
X8055530Y5673170D02*
X8112760Y5615940D01*
X8068256Y6888480D02*
Y6971171D01*
Y6482080D02*
Y6634480D01*
X8042856Y6659880D02*
X8068256Y6634480D01*
X8042856Y6659880D02*
Y6697980D01*
X8068256Y6723380D01*
Y6761480D01*
X8042856Y6786880D02*
X8068256Y6761480D01*
X8042856Y6786880D02*
Y6824980D01*
X8068256Y6850380D01*
Y6888480D01*
Y6416828D02*
Y6482080D01*
X8158480Y7209995D02*
Y7472680D01*
Y7594600D01*
X8133080Y7620000D02*
X8158480Y7594600D01*
X8133080Y7620000D02*
Y7658100D01*
X8158480Y7683500D01*
Y7721600D01*
X8133080Y7747000D02*
X8158480Y7721600D01*
X8133080Y7747000D02*
Y7785100D01*
X8158480Y7810500D01*
Y7848600D01*
Y7907528D01*
X8272780Y7215569D02*
Y7609840D01*
Y8516620D02*
Y8625840D01*
X8247380Y8491220D02*
X8272780Y8516620D01*
X8247380Y8453120D02*
Y8491220D01*
Y8453120D02*
X8272780Y8427720D01*
Y8389620D02*
Y8427720D01*
X8247380Y8364220D02*
X8272780Y8389620D01*
X8247380Y8326120D02*
Y8364220D01*
Y8326120D02*
X8272780Y8300720D01*
Y8262620D02*
Y8300720D01*
X8247380Y8237220D02*
X8272780Y8262620D01*
X8247380Y8199120D02*
Y8237220D01*
Y8199120D02*
X8272780Y8173720D01*
Y8025130D02*
Y8173720D01*
X8247380Y7999730D02*
X8272780Y8025130D01*
X8247380Y7961630D02*
Y7999730D01*
Y7961630D02*
X8272780Y7936230D01*
Y7898130D02*
Y7936230D01*
X8247380Y7872730D02*
X8272780Y7898130D01*
X8247380Y7834630D02*
Y7872730D01*
Y7834630D02*
X8272780Y7809230D01*
Y7771130D02*
Y7809230D01*
X8247380Y7745730D02*
X8272780Y7771130D01*
X8247380Y7707630D02*
Y7745730D01*
Y7707630D02*
X8272780Y7682230D01*
Y7609840D02*
Y7682230D01*
Y8625840D02*
Y8657988D01*
X8425032Y8534400D02*
Y8616397D01*
Y8409940D02*
Y8534400D01*
Y8409940D02*
X8450432Y8384540D01*
Y8346440D02*
Y8384540D01*
X8425032Y8321040D02*
X8450432Y8346440D01*
X8425032Y8282940D02*
Y8321040D01*
Y8282940D02*
X8450432Y8257540D01*
Y8219440D02*
Y8257540D01*
X8425032Y8194040D02*
X8450432Y8219440D01*
X8425032Y8155940D02*
Y8194040D01*
Y8155940D02*
X8450432Y8130540D01*
Y8092440D02*
Y8130540D01*
X8425032Y8067040D02*
X8450432Y8092440D01*
X8425032Y8013700D02*
Y8067040D01*
Y8013700D02*
X8450432Y7988300D01*
Y7950200D02*
Y7988300D01*
X8425032Y7924800D02*
X8450432Y7950200D01*
X8425032Y7886700D02*
Y7924800D01*
Y7886700D02*
X8450432Y7861300D01*
Y7823200D02*
Y7861300D01*
X8425032Y7797800D02*
X8450432Y7823200D01*
X8425032Y7759700D02*
Y7797800D01*
Y7759700D02*
X8450432Y7734300D01*
Y7696200D02*
Y7734300D01*
X8425032Y7670800D02*
X8450432Y7696200D01*
X8425032Y7632700D02*
Y7670800D01*
Y7632700D02*
X8450432Y7607300D01*
Y7569200D02*
Y7607300D01*
X8425032Y7543800D02*
X8450432Y7569200D01*
X8425032Y7505700D02*
Y7543800D01*
Y7505700D02*
X8450432Y7480300D01*
Y7442200D02*
Y7480300D01*
X8425032Y7416800D02*
X8450432Y7442200D01*
X8425032Y7378700D02*
Y7416800D01*
Y7287726D02*
Y7378700D01*
X8494794Y7119306D02*
X8495403Y7118697D01*
X8748014Y5945872D02*
Y6805930D01*
Y6951980D01*
X8773414Y6977380D01*
Y7015480D01*
X8748014Y7040880D02*
X8773414Y7015480D01*
X8748014Y7040880D02*
Y7078980D01*
Y7106275D01*
X9010012Y5753100D02*
Y5900420D01*
X8984612Y5727700D02*
X9010012Y5753100D01*
X8984612Y5689600D02*
Y5727700D01*
Y5689600D02*
X9010012Y5664200D01*
Y5626100D02*
Y5664200D01*
X8984612Y5600700D02*
X9010012Y5626100D01*
X8984612Y5562600D02*
Y5600700D01*
Y5562600D02*
X9010012Y5537200D01*
Y5499100D02*
Y5537200D01*
X8984612Y5473700D02*
X9010012Y5499100D01*
X8984612Y5435600D02*
Y5473700D01*
Y5435600D02*
X9010012Y5410200D01*
Y5372100D02*
Y5410200D01*
X8984612Y5346700D02*
X9010012Y5372100D01*
X8984612Y5308600D02*
Y5346700D01*
Y5308600D02*
X9010012Y5283200D01*
Y5245100D02*
Y5283200D01*
Y5900420D02*
Y6087030D01*
Y4678667D02*
Y5245100D01*
X9189974Y4590345D02*
Y5932170D01*
Y6059170D02*
Y6127750D01*
Y6059170D02*
X9215374Y6033770D01*
Y5995670D02*
Y6033770D01*
X9189974Y5970270D02*
X9215374Y5995670D01*
X9189974Y5932170D02*
Y5970270D01*
Y6127750D02*
Y6133638D01*
X9766528Y4509770D02*
Y5510972D01*
Y4392930D02*
Y4509770D01*
X9741128Y4367530D02*
X9766528Y4392930D01*
X9741128Y4329430D02*
Y4367530D01*
Y4329430D02*
X9766528Y4304030D01*
Y4265930D02*
Y4304030D01*
X9741128Y4240530D02*
X9766528Y4265930D01*
X9741128Y4202430D02*
Y4240530D01*
Y4202430D02*
X9766528Y4177030D01*
Y4138930D02*
Y4177030D01*
Y4079205D02*
Y4138930D01*
X9855200Y6108536D02*
Y6261100D01*
X9829800Y6083136D02*
X9855200Y6108536D01*
X9829800Y6045036D02*
Y6083136D01*
Y6045036D02*
X9855200Y6019636D01*
Y5981536D02*
Y6019636D01*
X9829800Y5956136D02*
X9855200Y5981536D01*
X9829800Y5918036D02*
Y5956136D01*
Y5918036D02*
X9855200Y5892636D01*
Y5854536D02*
Y5892636D01*
X9829800Y5829136D02*
X9855200Y5854536D01*
X9829800Y5791036D02*
Y5829136D01*
Y5791036D02*
X9855200Y5765636D01*
Y5727536D02*
Y5765636D01*
Y5698961D02*
Y5727536D01*
Y6261100D02*
Y6302254D01*
X9857740Y6644849D02*
Y6991619D01*
X9832086Y6644967D02*
Y6991464D01*
X10102330Y6682740D02*
Y6819900D01*
X10076930Y6657340D02*
X10102330Y6682740D01*
X10076930Y6619240D02*
Y6657340D01*
Y6619240D02*
X10102330Y6593840D01*
Y6555740D02*
Y6593840D01*
X10076930Y6530340D02*
X10102330Y6555740D01*
X10076930Y6492240D02*
Y6530340D01*
Y6492240D02*
X10102330Y6466840D01*
Y6428740D02*
Y6466840D01*
Y5811786D02*
Y6428740D01*
Y6819900D02*
Y6821168D01*
X10236454Y6168390D02*
Y6891027D01*
Y6130290D02*
Y6168390D01*
Y6130290D02*
X10261854Y6104890D01*
Y6066790D02*
Y6104890D01*
X10236454Y6041390D02*
X10261854Y6066790D01*
X10236454Y6003290D02*
Y6041390D01*
Y6003290D02*
X10261854Y5977890D01*
Y5939790D02*
Y5977890D01*
X10236454Y5914390D02*
X10261854Y5939790D01*
X10236454Y5876290D02*
Y5914390D01*
Y5748546D02*
Y5876290D01*
X10312400Y5699863D02*
Y6506210D01*
Y6760210D02*
Y6870700D01*
X10287000Y6734810D02*
X10312400Y6760210D01*
X10287000Y6696710D02*
Y6734810D01*
Y6696710D02*
X10312400Y6671310D01*
Y6633210D02*
Y6671310D01*
X10287000Y6607810D02*
X10312400Y6633210D01*
X10287000Y6569710D02*
Y6607810D01*
Y6569710D02*
X10312400Y6544310D01*
Y6506210D02*
Y6544310D01*
Y6870700D02*
Y7007086D01*
X9319260Y4427958D02*
Y4498340D01*
Y4658360D01*
X9293860Y4683760D02*
X9319260Y4658360D01*
X9293860Y4683760D02*
Y4721860D01*
X9319260Y4747260D01*
Y4785360D01*
X9293860Y4810760D02*
X9319260Y4785360D01*
X9293860Y4810760D02*
Y4848860D01*
X9319260Y4874260D01*
Y4988560D01*
X9293860Y5013960D02*
X9319260Y4988560D01*
X9293860Y5013960D02*
Y5052060D01*
X9319260Y5077460D01*
Y5115560D01*
X9293860Y5140960D02*
X9319260Y5115560D01*
X9293860Y5140960D02*
Y5179060D01*
X9319260Y5204460D01*
Y5242560D01*
X9293860Y5267960D02*
X9319260Y5242560D01*
X9293860Y5267960D02*
Y5306060D01*
X9319260Y5331460D01*
Y5369560D01*
X9293860Y5394960D02*
X9319260Y5369560D01*
X9293860Y5394960D02*
Y5433060D01*
X9319260Y5458460D01*
Y5496560D01*
X9293860Y5521960D02*
X9319260Y5496560D01*
X9293860Y5521960D02*
Y5560060D01*
X9319260Y5585460D01*
Y5623560D01*
Y6221045D01*
X9812604Y8008506D02*
X9854412D01*
X9812604Y8034160D02*
X9854412D01*
X6319792Y3399450D02*
X6343569Y3383663D01*
X6365240Y3377123D02*
X9819701D01*
X6404019Y3400237D02*
X9810127D01*
X9999306Y3451518D02*
X10240599Y3692810D01*
X10224363Y3709263D02*
X10224382Y3709282D01*
X9989732Y3474632D02*
X10224363Y3709263D01*
X10287687Y3788107D02*
Y3796765D01*
X10271964Y3737080D02*
X10279685Y3753142D01*
X10304783Y3903415D02*
X10371104Y3969736D01*
X10304763Y3903395D02*
X10304783Y3903415D01*
X10327897Y3893841D02*
X10387374Y3953318D01*
X10327877Y3893821D02*
X10327897Y3893841D01*
X10442540Y4086397D02*
Y7446680D01*
X10419426Y4086397D02*
Y7372596D01*
X9920917Y7315736D02*
X9922679Y7317497D01*
X9919856Y7315736D02*
X9920917D01*
X9919856Y7275782D02*
X9920917D01*
X9916061Y7279577D02*
X9919856Y7275782D01*
X9912267Y7288737D02*
Y7297416D01*
X9932043Y7132945D02*
X10046313Y7018675D01*
X10127984Y5811651D02*
Y6821505D01*
X9924440Y7254009D02*
Y7267277D01*
X9916061Y7228442D02*
X9919856Y7232236D01*
X9920917D01*
X9912267Y7180688D02*
Y7219281D01*
X9901324Y3982531D02*
Y5405392D01*
X9881181Y8193072D02*
X9902347D01*
X9664314Y8140700D02*
X9754745D01*
X9869105Y7499238D02*
X9888619Y7479724D01*
X9702187Y7518400D02*
X9822844D01*
X9519814Y7679519D02*
Y7996198D01*
X9710972Y3730516D02*
X9857721Y3877265D01*
X6637401Y3652139D02*
X9521755D01*
X6148388Y3669486D02*
X6620054D01*
X6010103Y3736376D02*
X6026509Y3719970D01*
X9912267Y7422633D02*
Y7422633D01*
Y7377602D02*
Y7422633D01*
X9919856Y7359282D02*
X9920917D01*
X9922679Y7357521D01*
X9924440Y7337509D02*
Y7353268D01*
X9894711Y8246313D02*
X9910203D01*
X9886613Y7288737D02*
Y7297416D01*
X9876202Y7317497D02*
X9877963Y7315736D01*
X9879025D01*
X9855095Y8227963D02*
X9859442Y8230886D01*
X9851126Y7480937D02*
X9851141Y7480922D01*
X9874440Y7321750D02*
Y7337509D01*
X9851141Y7480922D02*
X9862965Y7469098D01*
X9913823Y7114885D02*
X10027935Y7000773D01*
X9886613Y7180575D02*
Y7219281D01*
X9968484Y5572730D02*
X10027935Y5632181D01*
X9879025Y7275782D02*
X9882819Y7279577D01*
X9877963Y7275782D02*
X9879025D01*
X9874440Y7240741D02*
Y7254009D01*
Y7267277D01*
X9879025Y7232236D02*
X9882819Y7228442D01*
X9877963Y7232236D02*
X9879025D01*
X9875670Y3982720D02*
Y5405528D01*
X9664219Y8166354D02*
X9752541D01*
X9691561Y7492746D02*
X9822596D01*
X9543930Y8116449D02*
X9544064Y8116584D01*
X9494160Y7679342D02*
Y7996294D01*
X6648027Y3677793D02*
X9521620D01*
X6148543Y3695140D02*
X6630680D01*
X6028243Y3754516D02*
X6044540Y3738220D01*
X9886613Y7377602D02*
Y7412006D01*
X9877963Y7359282D02*
X9879025D01*
X9876202Y7357521D02*
X9877963Y7359282D01*
X9874440Y7337509D02*
Y7353268D01*
X9924440Y7321750D02*
Y7337509D01*
X9946507Y5514473D02*
X10046171Y5614136D01*
X9924440Y7240741D02*
Y7254009D01*
X6620054Y3669486D02*
X6637401Y3652139D01*
X9968484Y5572730D02*
X9968484D01*
X9928271Y5532517D02*
X9968484Y5572730D01*
X9837381Y8216052D02*
X9855095Y8227963D01*
X9812532Y8191203D02*
X9837381Y8216052D01*
X9544337Y7558203D02*
X9551976Y7550564D01*
X9692928Y3748752D02*
X9839448Y3895271D01*
X6630680Y3695140D02*
X6648027Y3677793D01*
X8462894Y5685129D02*
Y6894877D01*
X8348070Y7095850D02*
X8401978Y7041942D01*
X8427466Y5313307D02*
Y5599599D01*
X8239716Y8799324D02*
X8240145Y8798895D01*
X8298434Y7215682D02*
Y8658173D01*
X7426054Y8857446D02*
X8099397D01*
X7271392Y8035997D02*
X7281178Y8026211D01*
X7444551Y7944739D02*
X7444820Y7944739D01*
X7478880Y7942580D02*
X7542836D01*
X7375898Y7981606D02*
X7390336Y7967168D01*
X7261606Y8059623D02*
Y8692998D01*
X7309638Y8808958D02*
X7310094Y8809413D01*
X8437240Y5685333D02*
Y6894464D01*
X8329850Y7077790D02*
X8383545Y7024095D01*
X8401812Y5313307D02*
Y5599802D01*
X7426376Y8831792D02*
X8098975D01*
X7454900Y8100060D02*
X7542836D01*
X7375834Y8060970D02*
X7375835Y8060970D01*
X7362973Y8048108D02*
X7375834Y8060970D01*
X7325264Y8034147D02*
X7329267D01*
X7287260Y8072151D02*
Y8692676D01*
X7445674Y7944713D02*
X7478880Y7942580D01*
X7366728Y7990775D02*
X7375898Y7981606D01*
X7423707Y8095028D02*
X7428714Y8096439D01*
X7375899Y8061034D02*
X7390334Y8075470D01*
X9118548Y8123965D02*
Y8688261D01*
X9076245Y8050796D02*
X9096722Y8071273D01*
X8676035Y8859570D02*
X8947445D01*
X9068031Y8809621D02*
X9068454Y8809199D01*
X8976647Y8023521D02*
X9010398D01*
X8895783Y8008493D02*
X8940365D01*
X8882828Y7921244D02*
Y7995538D01*
X8602484Y4961356D02*
X8603186Y4960654D01*
X8456503Y8754403D02*
X8480801Y8778701D01*
X8539480Y5034196D02*
Y6949900D01*
X8469140Y7108680D02*
X8476943Y7100877D01*
X8561728Y4980485D02*
X8565565Y4976648D01*
X9092894Y8124186D02*
Y8688065D01*
X9063957Y8074788D02*
X9078426Y8089257D01*
X8676427Y8833916D02*
X8947043D01*
X8965900Y8049175D02*
X9002123D01*
X8895783Y8034147D02*
X8929619D01*
X8882828Y8047102D02*
Y8121396D01*
X8565134Y5034310D02*
Y6950352D01*
X8598728Y4998545D02*
X8603186Y5003004D01*
X8598713Y4998531D02*
X8598728Y4998545D01*
X8474710Y8736330D02*
X8498664Y8760284D01*
X8399378Y7277100D02*
Y8616492D01*
X8845810Y5520591D02*
Y5647700D01*
X8825275Y5485535D02*
X8835543Y5495803D01*
X8691277Y7734173D02*
X8720014D01*
X8612009Y7330965D02*
Y7664655D01*
X8663666Y7206254D02*
X8693013Y7176907D01*
X8722360Y5945735D02*
Y7106057D01*
X8871464Y5520496D02*
Y5647837D01*
X8843415Y5467396D02*
X8853750Y5477730D01*
X8732968Y7621270D02*
Y7695564D01*
X8696590Y7708519D02*
X8720014D01*
X8681932Y7224268D02*
X8711307Y7194893D01*
X8681907Y7224293D02*
X8681932Y7224268D01*
X8637663Y7331143D02*
Y7664552D01*
X8732968Y7747128D02*
Y7821422D01*
X8629229Y7706228D02*
X8633060Y7710059D01*
X8666657Y5359656D02*
Y5686270D01*
X8633460Y5766371D02*
Y7052919D01*
X8650029Y5726371D02*
X8650058Y5726342D01*
X8924521Y4827929D02*
Y5135344D01*
X8896771Y4773509D02*
X8905661Y4782399D01*
X8896753Y4773490D02*
X8896771Y4773509D01*
X8803499Y5232146D02*
X8844465D01*
X8523986Y7278450D02*
Y8182075D01*
X8417547Y4754626D02*
X8851185D01*
X8676647Y8334121D02*
X8720014D01*
X8558010Y8264217D02*
X8593455Y8299662D01*
X8692311Y5370282D02*
Y5686404D01*
X8659114Y5766548D02*
Y7053014D01*
X8950175Y4827706D02*
Y5135714D01*
X8914076Y4754533D02*
X8923959Y4764416D01*
X8803640Y5257800D02*
X8844716D01*
X8910713Y5230463D02*
X8911080Y5230096D01*
X8596863Y7164557D02*
X8624259Y7137161D01*
X8417547Y4728972D02*
X8852366D01*
X8549640Y7278564D02*
Y8181940D01*
X8732968Y8221218D02*
Y8295512D01*
X8681960Y8308467D02*
X8720014D01*
X8576246Y8246173D02*
X8607837Y8277764D01*
X8699841Y5279542D02*
X8707454Y5271929D01*
X8578643Y7146497D02*
X8606051Y7119089D01*
X8732968Y8347076D02*
Y8421370D01*
X7475354Y8304696D02*
X7482783D01*
X7456233Y8293004D02*
X7462672Y8299443D01*
X7444486Y8221218D02*
Y8264645D01*
Y8384182D02*
Y8421370D01*
X7461543Y8343003D02*
X7468123Y8336423D01*
X7526094Y8312523D02*
X7536407Y8302210D01*
X7526086Y8312530D02*
X7526094Y8312523D01*
X7536407Y8302210D02*
X7549519Y8289098D01*
X7538893Y8263444D02*
X7538918Y8263419D01*
X7508147Y8294190D02*
X7538893Y8263444D01*
X7508126Y8294211D02*
X7508147Y8294190D01*
X8184134Y7210091D02*
Y7907739D01*
X8016615Y8181204D02*
X8109219Y8088600D01*
X8258529Y7030486D02*
X8295085Y6993930D01*
X7612830Y8262874D02*
X7819446D01*
X8307164Y5065440D02*
Y5639936D01*
X8364560Y5778502D02*
Y6826202D01*
X7998713Y8162825D02*
X8090929Y8070609D01*
X7602204Y8237220D02*
X7819109D01*
X8281510Y5065440D02*
Y5640191D01*
X8338906Y5778758D02*
Y6825725D01*
X8240321Y7012413D02*
X8276607Y6976127D01*
X7452075Y7708519D02*
X7471385D01*
X7444486Y7700930D02*
X7452075Y7708519D01*
X7444486Y7621270D02*
Y7700930D01*
X7452075Y7734173D02*
X7471249D01*
X7444486Y7741762D02*
Y7821422D01*
X8036560Y7109949D02*
Y7549346D01*
X7503983Y7747732D02*
X7521556Y7765305D01*
X7954327Y7743339D02*
X7957534Y7740132D01*
X7631503Y7810754D02*
X7791573D01*
X8186547Y5755267D02*
Y6193609D01*
X8093910Y6417254D02*
Y6971494D01*
X7444486Y7741762D02*
X7452075Y7734173D01*
X8010906Y7109626D02*
Y7545270D01*
X7522027Y7729496D02*
X7539341Y7746809D01*
X7631783Y7785100D02*
X7791115D01*
X8160893Y5755267D02*
Y6193183D01*
X7456617Y6236617D02*
Y6240780D01*
X7449199Y6169506D02*
X7467435Y6151270D01*
X7442438Y6176268D02*
X7449199Y6169506D01*
X7430963Y6203970D02*
Y6251406D01*
X7441577Y6277048D02*
X7441589Y6277061D01*
X7450492Y6285963D01*
X7490593Y6302574D02*
X7757626D01*
X7970880Y5644240D02*
X8015603Y5599517D01*
X7876073Y6253511D02*
X7877694Y6251890D01*
X7924800Y5755487D02*
Y6138166D01*
X8067548Y5277747D02*
Y5474111D01*
X7467435Y6151270D02*
X7470140D01*
X7467244Y6266435D02*
X7468564Y6267756D01*
X7490688Y6276920D02*
X7755478D01*
X7952660Y5626180D02*
X7997190Y5581650D01*
X7899146Y5755374D02*
Y6138022D01*
X8041894Y5277747D02*
Y5473725D01*
X8073750Y5691230D02*
X8131192Y5633788D01*
X8006715Y5853068D02*
Y6190992D01*
X8181594Y5205743D02*
Y5512108D01*
X7911749Y6360394D02*
X7954080Y6318063D01*
X8123174Y5031570D02*
Y5064704D01*
X8085113Y4939873D02*
X8085247Y4940007D01*
X7884248Y4912106D02*
X8018078D01*
X7801864Y4988335D02*
Y5003876D01*
X7819615Y4945480D02*
X7830886Y4934209D01*
X7819603Y4945492D02*
X7819615Y4945480D01*
X7083984Y6520307D02*
X7158186D01*
X7066074Y6528655D02*
X7067660Y6527068D01*
X7793516Y5021786D02*
X7795103Y5020200D01*
X7232112Y6489688D02*
X7244566Y6477234D01*
X7404566Y6410960D02*
X7789673D01*
X7881790Y5578918D02*
X7883645Y5577063D01*
X7947533Y5125347D02*
Y5422823D01*
X7755947Y6021733D02*
X7771633Y6006048D01*
X7461966Y6047994D02*
X7692548D01*
X7810500Y5751026D02*
Y5912214D01*
X7066067Y6208615D02*
X7067653Y6207028D01*
X7266380Y6154332D02*
X7309609Y6111102D01*
X7083977Y6200267D02*
X7155482D01*
X7856135Y5568292D02*
X7865374Y5559054D01*
X7784846Y5740400D02*
Y5912012D01*
X7461966Y6022340D02*
X7692267D01*
X7738006Y6003394D02*
X7753350Y5988050D01*
X7921879Y5125347D02*
Y5422638D01*
X7083977Y6174613D02*
X7155180D01*
X7066067Y6166265D02*
X7067653Y6167852D01*
X7291469Y6092962D02*
Y6092962D01*
Y6092962D02*
Y6092962D01*
X7248453Y6135978D02*
X7291469Y6092962D01*
X8836584Y6520307D02*
X9081715D01*
X8818674Y6528655D02*
X8820260Y6527068D01*
X9344914Y4427642D02*
Y6221208D01*
X9197727Y6472254D02*
X9271475Y6398505D01*
X9270299Y4289806D02*
X9300210Y4319717D01*
X8877654Y4229100D02*
X9123741D01*
X8436500Y4641499D02*
X8438086Y4643086D01*
X8352419Y4634738D02*
X8420176D01*
X8396624Y4264457D02*
X8799613D01*
X8299491Y4608457D02*
X8306929Y4615895D01*
X8272301Y4392763D02*
Y4542815D01*
X8310614Y4300269D02*
X8310929Y4299954D01*
X8836584Y6494653D02*
X9071089D01*
X8818674Y6486305D02*
X8820260Y6487892D01*
X9235154Y6398546D02*
X9253220Y6380480D01*
X9187100Y6446600D02*
X9235154Y6398546D01*
X8877789Y4254754D02*
X9113115D01*
X8850803Y4269017D02*
X8856070Y4263750D01*
X8352625Y4609084D02*
X8420176D01*
X8436500Y4602323D02*
X8438086Y4600736D01*
X8396847Y4290111D02*
X8799877D01*
X8297955Y4392986D02*
Y4542581D01*
X8832850Y4250690D02*
X8838025Y4245515D01*
X9259673Y4315460D02*
X9281847Y4337634D01*
X9235154Y6398546D02*
Y6398546D01*
X8317797Y4590483D02*
X8324923Y4597609D01*
X8836577Y6174613D02*
X8922428D01*
X8952403Y4562936D02*
X8968913Y4579447D01*
X8818667Y6166265D02*
X8820253Y6167852D01*
X8417547Y4514723D02*
X8836006D01*
X8836577Y6200267D02*
X8933055D01*
X9035666Y4668040D02*
Y6087356D01*
X8994986Y6174615D02*
X9002730Y6166870D01*
X8970447Y4544700D02*
X8994568Y4568821D01*
X8818667Y6208615D02*
X8820253Y6207028D01*
X8417547Y4489069D02*
X8836141D01*
X9202929Y6146592D02*
X9211447D01*
X9083019Y4406879D02*
X9135873Y4459733D01*
X8932807Y4369054D02*
X8991701D01*
X9215775Y6201085D02*
X9215794Y6201104D01*
X9175519Y6160829D02*
X9215775Y6201085D01*
X9072393Y4432533D02*
X9110218Y4470358D01*
X8932807Y4394708D02*
X8981075D01*
X9164320Y4600971D02*
Y6133792D01*
X6134728Y3504459D02*
X6136973D01*
X6153283Y3511208D02*
X6154181Y3512106D01*
X6172641Y3519752D02*
X6200954D01*
X9883224Y3559275D02*
X10095182Y3771233D01*
X10117179Y3824338D02*
Y3834965D01*
X10132060Y4510745D02*
Y4568870D01*
X10061485Y8193307D02*
X10085585D01*
X10126265Y5366867D02*
Y5367099D01*
X10146689Y3906209D02*
X10192870Y3952390D01*
X10134014Y8173247D02*
X10134154Y8173106D01*
X10134298D01*
X10134298D01*
X10173161Y4411519D02*
X10202586Y4382095D01*
X10200913Y7216485D02*
Y7216687D01*
X10188740Y7241021D02*
Y7256780D01*
X10190501Y7236768D02*
X10192263Y7235007D01*
X10193324D01*
X10232010Y4046882D02*
Y4311058D01*
X10213340Y4736407D02*
Y5156649D01*
X10165193Y5461080D02*
X10247646Y5543533D01*
X10227895Y7151345D02*
X10270161Y7109079D01*
X10188740Y7256780D02*
Y7270048D01*
X10192263Y7278553D02*
X10193324D01*
X10190501Y7320268D02*
X10192263Y7318507D01*
X10193324D01*
X10188740Y7340280D02*
Y7353548D01*
Y7324521D02*
Y7340280D01*
X10192263Y7362053D02*
X10193324D01*
X10197119Y7365847D01*
X10193324Y7278553D02*
X10197119Y7282347D01*
X10200913Y7291508D02*
Y7300187D01*
Y7375008D02*
Y7393906D01*
X10214062Y7425651D02*
X10351516Y7563105D01*
X10215810Y8143240D02*
X10298230D01*
X10399893Y7679897D02*
Y8041578D01*
X6285142Y3484880D02*
X9703618D01*
X6164675Y3474513D02*
Y3480818D01*
X6177955Y3494098D02*
X6190327D01*
X6266827Y3459226D02*
X9703754D01*
X9901268Y3541039D02*
X10113481Y3753252D01*
X10128331Y8215209D02*
X10134162Y8209378D01*
X10134180Y8209360D01*
X10054196Y8246313D02*
X10062628D01*
X10113214Y8225307D02*
X10113279Y8225264D01*
X10142833Y3824113D02*
Y3824338D01*
X10172343Y3895583D02*
X10211215Y3934454D01*
X10157714Y4521372D02*
Y4568775D01*
X10144643Y8198428D02*
X10144780Y8198566D01*
X10178135Y4618074D02*
X10198555Y4638494D01*
X10198815Y4422146D02*
X10220848Y4400112D01*
X10183401Y5290999D02*
X10183435Y5290965D01*
X10234155Y7235007D02*
X10235217D01*
X10236979Y7236768D01*
X10183401Y5443008D02*
X10265853Y5525461D01*
X10257664Y4046593D02*
Y4311231D01*
X10238994Y4736123D02*
Y5156834D01*
X10338054Y5699768D02*
Y7007482D01*
X10246177Y7169343D02*
X10288568Y7126952D01*
X10226567Y7291508D02*
Y7300187D01*
X10234155Y7278553D02*
X10235217D01*
X10230361Y7282347D02*
X10234155Y7278553D01*
Y7318507D02*
X10235217D01*
X10226567Y7375008D02*
Y7393755D01*
X10235217Y7318507D02*
X10236979Y7320268D01*
X10230361Y7365847D02*
X10234155Y7362053D01*
X10235217D01*
X10238740Y7256780D02*
Y7270048D01*
Y7340280D02*
Y7353548D01*
X10232309Y7407617D02*
X10369866Y7545175D01*
X10215945Y8168894D02*
X10298582D01*
X10425547Y7679600D02*
Y8041914D01*
X10388007Y8131853D02*
X10388495Y8131366D01*
X6243375Y3472125D02*
X6248811Y3466689D01*
X10159927Y4636147D02*
X10180214Y4656434D01*
X10238740Y7324521D02*
Y7340280D01*
Y7241021D02*
Y7256780D01*
X10144777Y8198569D02*
X10144780Y8198566D01*
X10143164Y8200116D02*
X10144777Y8198569D01*
X10113279Y8225264D02*
X10126193Y8216935D01*
X10050913Y7375008D02*
Y7392102D01*
X10043325Y7362053D02*
X10047119Y7365847D01*
X10042263Y7362053D02*
X10043325D01*
X10042263Y7318507D02*
X10043325D01*
X10050913Y7291508D02*
Y7300187D01*
X10043325Y7278553D02*
X10047119Y7282347D01*
X10042263Y7278553D02*
X10043325D01*
X10042263Y7235007D02*
X10043325D01*
X10038740Y7324521D02*
Y7340280D01*
X10040501Y7320268D02*
X10042263Y7318507D01*
X10038740Y7340280D02*
Y7353548D01*
Y7241021D02*
Y7256780D01*
X10040501Y7236768D02*
X10042263Y7235007D01*
X10038740Y7256780D02*
Y7270048D01*
X10210800Y5748903D02*
Y6890525D01*
X10103606Y4872104D02*
Y5062137D01*
X10051812Y5504329D02*
X10150282Y5602799D01*
X10052472Y5149428D02*
X10078039Y5123861D01*
X10050913Y7181074D02*
Y7216687D01*
X10065642Y4780622D02*
X10065763Y4780743D01*
X10027920Y4418201D02*
Y4689554D01*
X10073314Y4101827D02*
Y4308611D01*
X10035124Y4031284D02*
X10050437Y4046597D01*
X9883806Y7846314D02*
X9910203D01*
X9866681Y7839819D02*
X9869120Y7840231D01*
X10001338Y5272876D02*
Y5382474D01*
X9863910Y7839819D02*
X9866681D01*
X9944318Y7521158D02*
X10035031Y7430445D01*
X9673425Y7888606D02*
X9767201D01*
X9616143Y7860382D02*
X9623821Y7868060D01*
X9588246Y7731468D02*
Y7793032D01*
X9748621Y7583645D02*
X9793459D01*
X9999726Y3909283D02*
Y3945825D01*
X9785942Y3658955D02*
X9973886Y3846900D01*
X6079643Y3584561D02*
X9606336D01*
X5989948Y3540019D02*
X5992192D01*
X6008516Y3546781D02*
X6022716Y3560981D01*
X10088740Y7340280D02*
Y7353548D01*
X10085217Y7318507D02*
X10086979Y7320268D01*
X10088740Y7256780D02*
Y7270048D01*
X10085217Y7235007D02*
X10086979Y7236768D01*
X10084156Y7362053D02*
X10085217D01*
X10080361Y7365847D02*
X10084156Y7362053D01*
Y7318507D02*
X10085217D01*
X10076567Y7375008D02*
Y7397415D01*
X10084156Y7235007D02*
X10085217D01*
X10084156Y7278553D02*
X10085217D01*
X10076567Y7291508D02*
Y7300187D01*
X10080361Y7282347D02*
X10084156Y7278553D01*
X10070104Y5486341D02*
X10168674Y5584911D01*
X10094093Y7138963D02*
X10161801Y7071255D01*
X10078126Y5160054D02*
X10096311Y5141869D01*
X10129260Y4872009D02*
Y5062324D01*
X10098968Y4101606D02*
Y4308834D01*
X10076567Y7181275D02*
Y7216687D01*
X10053460Y4013340D02*
X10068733Y4028613D01*
X10053574Y4418424D02*
Y4689288D01*
X10026992Y5283502D02*
Y5382260D01*
X9883806Y7796327D02*
X9910203D01*
X9954944Y7546812D02*
X10056928Y7444828D01*
X9834394Y7827681D02*
X9843703Y7814191D01*
X9843716Y7814171D01*
X9684051Y7862952D02*
X9767201D01*
X9748844Y7609299D02*
X9804086D01*
X9613900Y7739945D02*
Y7792801D01*
X10025380Y3909160D02*
Y3945550D01*
X9803986Y3640720D02*
X9992113Y3828846D01*
X6079839Y3558907D02*
X9606472D01*
X6019895Y3510073D02*
Y3512317D01*
X6026656Y3528641D02*
X6040718Y3542702D01*
X10075811Y7120965D02*
X10143306Y7053471D01*
X9627141Y7637568D02*
X9633293Y7631416D01*
X10088740Y7324521D02*
Y7340280D01*
Y7241021D02*
Y7256780D01*
X10109966Y8008493D02*
X10147673D01*
X9883816Y8046339D02*
X9910203D01*
X10054196Y7996326D02*
X10080593D01*
X9794694Y8042507D02*
X9796281Y8040921D01*
X9727480Y6724894D02*
Y6932776D01*
X9695367Y6647367D02*
X9695367Y6647367D01*
X9511432Y3947011D02*
X9629945Y4065525D01*
X9399046Y7838334D02*
X9400632Y7839920D01*
X9357222Y7831572D02*
X9382722D01*
X9313901Y7813481D02*
X9314152Y7813732D01*
X9364006Y7362824D02*
X9680405Y7046425D01*
X9285986Y7551181D02*
Y7746089D01*
X6048493Y3893714D02*
X9382760D01*
X5967720Y3846820D02*
X5967731Y3846831D01*
X5990657Y3869757D01*
X10054196Y8046314D02*
X10080593D01*
X10109966Y8034147D02*
X10147673D01*
X9883816Y7996326D02*
X9910203D01*
X9794694Y8000158D02*
X9796281Y8001744D01*
X9753134Y6724799D02*
Y6943403D01*
X9688908Y4135315D02*
Y6569745D01*
X9527646Y3926946D02*
X9655599Y4054899D01*
X9399046Y7799157D02*
X9400632Y7797571D01*
X9357357Y7805918D02*
X9382722D01*
X9311640Y7556500D02*
Y7745869D01*
X6048588Y3868060D02*
X9385483D01*
X5985754Y3828574D02*
X6008730Y3851550D01*
X5938147Y3808923D02*
X5938313D01*
X10043570Y7996326D02*
X10054196D01*
X9663254Y4145941D02*
Y6569840D01*
X9385907Y7377203D02*
X9706059Y7057051D01*
X10298302Y7873578D02*
X10300656Y7871224D01*
X10322051Y7705911D02*
Y7819572D01*
X10197198Y7888606D02*
X10262021D01*
X10232642Y7548379D02*
X10273880Y7589617D01*
X10175762Y7530846D02*
X10190313D01*
X10095279Y7840231D02*
X10097719Y7839819D01*
X10100489D01*
X10054196Y7846314D02*
X10080593D01*
X9770917Y7359282D02*
X9772679Y7357521D01*
X9832059Y6408117D02*
Y6582837D01*
X9848015Y6369596D02*
X9856538Y6361073D01*
X9880854Y5698866D02*
Y6302368D01*
X9774440Y7337509D02*
Y7353268D01*
Y7254009D02*
Y7267277D01*
X9770917Y7315736D02*
X9772679Y7317497D01*
X9810626Y5555406D02*
X9829071Y5573851D01*
X9792182Y4068578D02*
Y5510877D01*
X9784621Y7117710D02*
X9820283Y7082048D01*
X9769856Y7359282D02*
X9770917D01*
X9769029Y7412880D02*
X9770615Y7414466D01*
X9770917Y7232236D02*
X9772679Y7233997D01*
X9769856Y7232236D02*
X9770917D01*
X9769856Y7275782D02*
X9770917D01*
X9769856Y7315736D02*
X9770917D01*
X9762267Y7377602D02*
Y7396556D01*
X9766061Y7279577D02*
X9769856Y7275782D01*
X9762267Y7171677D02*
Y7213916D01*
Y7288737D02*
Y7297416D01*
X9619521Y3827452D02*
X9743769Y3951700D01*
X8663498Y3773278D02*
X9488734D01*
X6154883Y3771936D02*
X6155008Y3771811D01*
X10296397Y7706227D02*
Y7819432D01*
X10197198Y7862952D02*
X10258832D01*
X10214637Y7566654D02*
X10255517Y7607534D01*
X10214615Y7566632D02*
X10214637Y7566654D01*
X10175762Y7556500D02*
X10190122D01*
X10120659Y7814137D02*
X10130005Y7827681D01*
X10054196Y7796327D02*
X10080593D01*
X9766386Y7099665D02*
X9802033Y7064017D01*
X9829717Y6351614D02*
X9838317Y6343014D01*
X9806405Y6407895D02*
Y6582932D01*
X9792419Y5573479D02*
X9810864Y5591924D01*
X9736613Y7377602D02*
Y7396556D01*
X9736613Y7288737D02*
Y7297416D01*
Y7171542D02*
Y7213916D01*
X9728266Y7414466D02*
X9729852Y7412880D01*
X9729025Y7275782D02*
X9732819Y7279577D01*
X9727963Y7315736D02*
X9729025D01*
X9727963Y7359282D02*
X9729025D01*
X9727963Y7232236D02*
X9729025D01*
X9727963Y7275782D02*
X9729025D01*
X9726202Y7357521D02*
X9727963Y7359282D01*
X9724440Y7337509D02*
Y7353268D01*
Y7321750D02*
Y7337509D01*
X9726202Y7317497D02*
X9727963Y7315736D01*
X9724440Y7238250D02*
Y7254009D01*
X9726202Y7233997D02*
X9727963Y7232236D01*
X9724440Y7254009D02*
Y7267277D01*
X9608895Y3853106D02*
X9718115Y3962326D01*
X8652872Y3798932D02*
X9478108D01*
X6196371Y3780405D02*
X8634345D01*
X10162239Y7517323D02*
X10175762Y7530846D01*
X10154920Y7517323D02*
X10162239D01*
X9774440Y7321750D02*
Y7337509D01*
Y7238250D02*
Y7254009D01*
X8644972Y3754751D02*
X8663498Y3773278D01*
X10154920Y7570023D02*
X10162239D01*
X10175762Y7556500D01*
X8634345Y3780405D02*
X8652872Y3798932D01*
X6196194Y3754751D02*
X8644972D01*
X9838870Y7946314D02*
X9910203D01*
X10314267Y8065173D02*
X10345420Y8034020D01*
X10054196Y8096326D02*
X10239057D01*
X10441940Y7447280D02*
X10442540Y7446680D01*
D11*
X7109258Y5898082D02*
G03*
X6974840Y5953760I-134418J-134418D01*
G01*
X1088301Y5617121D02*
G03*
X1137088Y5734904I-117784J117784D01*
G01*
X969402Y5567680D02*
G03*
X1087974Y5616794I0J167686D01*
G01*
X460420Y5603920D02*
G03*
X547911Y5567680I87491J87491D01*
G01*
X459150Y4335190D02*
G03*
X543575Y4300220I84425J84425D01*
G01*
X208762Y4392380D02*
G03*
X259493Y4413394I0J71744D01*
G01*
X273009Y4426910D02*
G03*
X272937Y4426838I74343J-74488D01*
G01*
X289421Y4440282D02*
G03*
X273009Y4426910I57931J-87859D01*
G01*
X311035Y4451197D02*
G03*
X289421Y4440282I36317J-98775D01*
G01*
X347352Y4457662D02*
G03*
X311035Y4451197I0J-105239D01*
G01*
X6936740Y5953760D02*
X6974840D01*
X7109258Y5898082D02*
X7241540Y5765800D01*
X1137088Y5734904D02*
Y5803900D01*
X1087974Y5616794D02*
X1088301Y5617121D01*
X547911Y5567680D02*
X969402D01*
X424180Y5640160D02*
X460420Y5603920D01*
X424180Y4370160D02*
X459150Y4335190D01*
X543575Y4300220D02*
X1056640D01*
X259493Y4413394D02*
X272937Y4426838D01*
X259493Y4413394D02*
Y4413394D01*
X347352Y4457662D02*
X528035D01*
X317500D02*
X347352D01*
X144780Y4392380D02*
X208762D01*
X1232235Y6815155D02*
X1328420Y6911340D01*
X1230309Y6815155D02*
X1232235D01*
X1130300Y6715760D02*
X1229695Y6815155D01*
X1230309D01*
X1056640Y4300220D02*
X1074420Y4318000D01*
X317500Y4367662D02*
X421682D01*
X424180Y4370160D01*
X529823Y4368800D02*
X530860Y4369837D01*
X484420Y4368800D02*
X529823D01*
X421682Y5637662D02*
X424180Y5640160D01*
X317500Y5637662D02*
X421682D01*
X484420Y5639837D02*
X530860D01*
X528035Y5727662D02*
X530860Y5724837D01*
X300120Y5710282D02*
X317500Y5727662D01*
X238479Y5662380D02*
X259493Y5683394D01*
X144780Y5662380D02*
X238479D01*
X259493Y5683394D02*
Y5683394D01*
X286381Y5710282D02*
X300120D01*
X259493Y5683394D02*
X286381Y5710282D01*
X143932Y6043680D02*
X144780Y6044528D01*
Y6093460D01*
X317500Y5727662D02*
X528035D01*
X144780Y4774528D02*
Y4823460D01*
X143932Y4773680D02*
X144780Y4774528D01*
X528035Y4457662D02*
X530860Y4454837D01*
X9254880Y5563310D02*
Y5704552D01*
X9253220Y5561650D02*
X9254880Y5563310D01*
Y5704552D02*
X9256539Y5706212D01*
D12*
X7869538Y6949075D02*
G03*
X7861668Y6930075I19000J-19000D01*
G01*
X7749154Y6758940D02*
G03*
X7835394Y6794662I0J121962D01*
G01*
X7167710Y6758940D02*
G03*
X7092346Y6727723I0J-106580D01*
G01*
X7038531Y6698645D02*
G03*
X7080759Y6716137I0J59720D01*
G01*
X7029765Y6698645D02*
G03*
X7010765Y6690775I0J-26870D01*
G01*
X7835773Y6795041D02*
G03*
X7861668Y6857754I-62991J62713D01*
G01*
X7835634Y6794902D02*
G03*
X7835773Y6795041I-62853J62853D01*
G01*
X7835532Y6930075D02*
G03*
X7827662Y6949075I-26870J0D01*
G01*
X7748910Y6785077D02*
G03*
X7817085Y6813315I0J96413D01*
G01*
X7156884Y6785077D02*
G03*
X7081520Y6753860I0J-106580D01*
G01*
X7038340Y6724782D02*
G03*
X7062387Y6734727I0J34045D01*
G01*
X7010765Y6732652D02*
G03*
X7029765Y6724782I19000J19000D01*
G01*
X7817085Y6813315D02*
G03*
X7835532Y6857850I-44535J44535D01*
G01*
X7869560Y6949096D02*
G03*
X7874950Y6962140I-13086J13044D01*
G01*
X7869538Y6949075D02*
G03*
X7869560Y6949096I-13065J13065D01*
G01*
X7010744Y6690754D02*
G03*
X7010765Y6690775I-13044J13086D01*
G01*
X6997700Y6685364D02*
G03*
X7010744Y6690754I0J18477D01*
G01*
X7827640Y6949096D02*
G03*
X7827662Y6949075I13086J13044D01*
G01*
X7822250Y6962140D02*
G03*
X7827640Y6949096I18477J0D01*
G01*
X7062387Y6734727D02*
G03*
X7062413Y6734753I-24047J24100D01*
G01*
X7010744Y6732673D02*
G03*
X6997700Y6738063I-13044J-13086D01*
G01*
X7010765Y6732652D02*
G03*
X7010744Y6732673I-13065J-13065D01*
G01*
X7659690Y6578600D02*
G03*
X7665080Y6565556I18477J0D01*
G01*
D02*
G03*
X7665102Y6565535I13086J13044D01*
G01*
X7672972Y6548273D02*
G03*
X7666331Y6564306I-22673J0D01*
G01*
X7385141Y6534132D02*
G03*
X7504800Y6484620I119659J119839D01*
G01*
X7621307D02*
G03*
X7658100Y6499860I0J52033D01*
G01*
X6650064Y6863720D02*
G03*
X6637020Y6869110I-13044J-13086D01*
G01*
X6650085Y6863698D02*
G03*
X6650064Y6863720I-13065J-13065D01*
G01*
X7354316Y6564956D02*
G03*
X7218774Y6621099I-135542J-135542D01*
G01*
X6937467Y6665635D02*
G03*
X7045024Y6621099I107556J107608D01*
G01*
X6651314Y6862469D02*
G03*
X6667347Y6855828I16032J16032D01*
G01*
X6791002Y6812100D02*
G03*
X6685434Y6855828I-105568J-105568D01*
G01*
X7707000Y6565556D02*
G03*
X7712390Y6578600I-13086J13044D01*
G01*
X7706978Y6565535D02*
G03*
X7707000Y6565556I-13065J13065D01*
G01*
X7705749Y6564306D02*
G03*
X7699108Y6548273I16032J-16032D01*
G01*
X7374315Y6507995D02*
G03*
X7493974Y6458483I119659J119839D01*
G01*
X7621510D02*
G03*
X7676438Y6481235I0J77679D01*
G01*
X6667347Y6829692D02*
G03*
X6651314Y6823051I0J-22673D01*
G01*
X6650064Y6821800D02*
G03*
X6650085Y6821822I-13044J13086D01*
G01*
X7336125Y6546185D02*
G03*
X7218365Y6594963I-117760J-117760D01*
G01*
X6926641Y6639499D02*
G03*
X7034198Y6594963I107556J107608D01*
G01*
X6637020Y6816410D02*
G03*
X6650064Y6821800I0J18477D01*
G01*
X6772630Y6793510D02*
G03*
X6685280Y6829692I-87350J-87350D01*
G01*
X7660734Y6502494D02*
G03*
X7672972Y6532136I-29779J29642D01*
G01*
X7660665Y6502425D02*
G03*
X7660734Y6502494I-29710J29710D01*
G01*
X7385051Y6534222D02*
G03*
X7385141Y6534132I119749J119749D01*
G01*
X6937441Y6665661D02*
G03*
X6937467Y6665635I107582J107582D01*
G01*
X7684270Y6489067D02*
G03*
X7699108Y6524937I-35936J35870D01*
G01*
X7684237Y6489034D02*
G03*
X7684270Y6489067I-35903J35903D01*
G01*
X7374225Y6508085D02*
G03*
X7374315Y6507995I119749J119749D01*
G01*
X6926615Y6639525D02*
G03*
X6926641Y6639499I107582J107582D01*
G01*
X9425572Y6546535D02*
G03*
X9417702Y6565535I-26870J0D01*
G01*
X9235440Y4165600D02*
G03*
X9341447Y4209509I0J149916D01*
G01*
X8733202Y4176431D02*
G03*
X8759359Y4165600I26157J26167D01*
G01*
X7378535Y4204437D02*
G03*
X7252719Y4152448I0J-178235D01*
G01*
X7131369Y4083418D02*
G03*
X7220625Y4120354I0J126313D01*
G01*
X5910945Y4091288D02*
G03*
X5929945Y4083418I19000J19000D01*
G01*
X8729290Y4180343D02*
G03*
X8671124Y4204437I-58166J-58166D01*
G01*
X9459578Y6565535D02*
G03*
X9451708Y6546535I19000J-19000D01*
G01*
X9235624Y4139463D02*
G03*
X9359798Y4190898I0J175609D01*
G01*
X8714936Y4157735D02*
G03*
X8759133Y4139463I44197J44320D01*
G01*
X7378631Y4178300D02*
G03*
X7270917Y4133683I0J-152332D01*
G01*
X7131505Y4057282D02*
G03*
X7239070Y4101837I0J152120D01*
G01*
X5929945Y4057282D02*
G03*
X5910945Y4049412I0J-26870D01*
G01*
X8710887Y4161784D02*
G03*
X8670987Y4178300I-39899J-39937D01*
G01*
X8710905Y4161765D02*
G03*
X8710887Y4161784I-39918J-39918D01*
G01*
X9412290Y6578600D02*
G03*
X9417680Y6565556I18477J0D01*
G01*
D02*
G03*
X9417702Y6565535I13086J13044D01*
G01*
X9398068Y4266131D02*
G03*
X9425572Y4332626I-66631J66495D01*
G01*
X9398000Y4266063D02*
G03*
X9398068Y4266131I-66563J66563D01*
G01*
X7252719Y4152448D02*
G03*
X7252503Y4152233I125815J-126247D01*
G01*
X7220625Y4120354D02*
G03*
X7220686Y4120415I-89256J89378D01*
G01*
X5910924Y4091310D02*
G03*
X5897880Y4096700I-13044J-13086D01*
G01*
X5910945Y4091288D02*
G03*
X5910924Y4091310I-13065J-13065D01*
G01*
X9459600Y6565556D02*
G03*
X9464990Y6578600I-13086J13044D01*
G01*
X9459578Y6565535D02*
G03*
X9459600Y6565556I-13065J13065D01*
G01*
X9416725Y4247825D02*
G03*
X9451708Y4332530I-85055J84704D01*
G01*
X9416550Y4247649D02*
G03*
X9416725Y4247825I-84880J84880D01*
G01*
X8714875Y4157796D02*
G03*
X8714936Y4157735I44259J44259D01*
G01*
X5910924Y4049390D02*
G03*
X5910945Y4049412I-13044J13086D01*
G01*
X5897880Y4044000D02*
G03*
X5910924Y4049390I0J18477D01*
G01*
X9588132Y6930075D02*
G03*
X9580262Y6949075I-26870J0D01*
G01*
X9567876Y6721938D02*
G03*
X9588132Y6770841I-48902J48902D01*
G01*
X9567876Y6721938D02*
G03*
X9532668Y6636939I84999J-84999D01*
G01*
X9483973Y4154718D02*
G03*
X9532668Y4272280I-117562J117562D01*
G01*
X9298940Y4007614D02*
G03*
X9363687Y4034433I0J91566D01*
G01*
X8950960Y4041140D02*
G03*
X9031899Y4007614I80939J80939D01*
G01*
X8211048Y4091574D02*
G03*
X8211149Y4091473I34216J34216D01*
G01*
X8211048Y4091574D02*
G03*
X8145806Y4118598I-65242J-65242D01*
G01*
X8211149Y4091473D02*
G03*
X8245264Y4077401I34115J34316D01*
G01*
X7448631Y4118598D02*
G03*
X7292375Y4053875I0J-220978D01*
G01*
X7180341Y3999265D02*
G03*
X7278370Y4039870I0J138633D01*
G01*
X6026040Y3999265D02*
G03*
X5980638Y3980520I0J-64357D01*
G01*
D02*
G03*
X5980533Y3980415I45402J-45612D01*
G01*
X5980370Y3980253D02*
G03*
X5980398Y3980280I-44544J44599D01*
G01*
X5918544Y3969710D02*
G03*
X5905500Y3975100I-13044J-13086D01*
G01*
X5918565Y3969688D02*
G03*
X5918544Y3969710I-13065J-13065D01*
G01*
X5935827Y3961818D02*
G03*
X5980370Y3980253I0J63033D01*
G01*
X5919794Y3968459D02*
G03*
X5935827Y3961818I16032J16032D01*
G01*
X8950937Y4041162D02*
G03*
X8863450Y4077401I-87488J-87488D01*
G01*
X9622138Y6949075D02*
G03*
X9614268Y6930075I19000J-19000D01*
G01*
X9586537Y6703637D02*
G03*
X9614268Y6770587I-66950J66950D01*
G01*
X9586537Y6703637D02*
G03*
X9558805Y6636686I66950J-66950D01*
G01*
X9506854Y4140637D02*
G03*
X9558805Y4266058I-125421J125421D01*
G01*
X9299097Y3981477D02*
G03*
X9382057Y4015840I0J117322D01*
G01*
X8932690Y4022448D02*
G03*
X9031740Y3981477I99050J99247D01*
G01*
X8192770Y4072890D02*
G03*
X8145520Y4092462I-47250J-47250D01*
G01*
X7459457D02*
G03*
X7303201Y4027739I0J-220978D01*
G01*
X8192820Y4072840D02*
G03*
X8244978Y4051265I52158J52257D01*
G01*
X7180623Y3973129D02*
G03*
X7296652Y4021190I0J164090D01*
G01*
X6026231Y3973129D02*
G03*
X5998879Y3961799I0J-38682D01*
G01*
X5945803Y3935682D02*
G03*
X5991793Y3954713I0J65085D01*
G01*
X5935827Y3935682D02*
G03*
X5919794Y3929041I0J-22673D01*
G01*
X5918544Y3927790D02*
G03*
X5918565Y3927812I-13044J13086D01*
G01*
X5905500Y3922400D02*
G03*
X5918544Y3927790I0J18477D01*
G01*
X8932591Y4022546D02*
G03*
X8863119Y4051265I-69472J-69669D01*
G01*
X8932690Y4022448D02*
G03*
X8932591Y4022546I-69571J-69571D01*
G01*
X9580240Y6949096D02*
G03*
X9580262Y6949075I13086J13044D01*
G01*
X9574850Y6962140D02*
G03*
X9580240Y6949096I18477J0D01*
G01*
X9622160D02*
G03*
X9627550Y6962140I-13086J13044D01*
G01*
X9622138Y6949075D02*
G03*
X9622160Y6949096I-13065J13065D01*
G01*
X8192770Y4072890D02*
G03*
X8192820Y4072840I52208J52207D01*
G01*
X5991793Y3954713D02*
G03*
X5991825Y3954745I-45991J46053D01*
G01*
X7886700Y4204437D02*
X8671124D01*
X7813040D02*
X7886700D01*
X7787640Y4229837D02*
X7813040Y4204437D01*
X7749540Y4229837D02*
X7787640D01*
X7724140Y4204437D02*
X7749540Y4229837D01*
X7686040Y4204437D02*
X7724140D01*
X7660640Y4229837D02*
X7686040Y4204437D01*
X7622540Y4229837D02*
X7660640D01*
X7597140Y4204437D02*
X7622540Y4229837D01*
X7559040Y4204437D02*
X7597140D01*
X7378535D02*
X7559040D01*
X7861668Y6857754D02*
Y6930075D01*
X7167710Y6758940D02*
X7749154D01*
X7080760Y6716137D02*
X7092346Y6727723D01*
X7029765Y6698645D02*
X7038531D01*
X7835394Y6794662D02*
X7835634Y6794902D01*
X7835532Y6857850D02*
Y6930075D01*
X7156884Y6785077D02*
X7748910D01*
X7062413Y6734753D02*
X7081520Y6753860D01*
X7029765Y6724782D02*
X7038340D01*
X7665102Y6565535D02*
X7666331Y6564306D01*
X7665080Y6565556D02*
X7665102Y6565535D01*
X7672972Y6532136D02*
Y6548273D01*
X7354317Y6564956D02*
X7385051Y6534222D01*
X7658100Y6499860D02*
X7660665Y6502425D01*
X7504800Y6484620D02*
X7621307D01*
X6650085Y6863698D02*
X6651314Y6862469D01*
X6650064Y6863720D02*
X6650085Y6863698D01*
X7045024Y6621099D02*
X7218774D01*
X6791002Y6812100D02*
X6937441Y6665661D01*
X6667347Y6855828D02*
X6685434D01*
X7706978Y6565535D02*
X7707000Y6565556D01*
X7705749Y6564306D02*
X7706978Y6565535D01*
X7699108Y6524937D02*
Y6548273D01*
X7336125Y6546185D02*
X7374225Y6508085D01*
X7676438Y6481235D02*
X7684237Y6489034D01*
X7493974Y6458483D02*
X7621510D01*
X6667347Y6829692D02*
X6685280D01*
X6650085Y6821822D02*
X6651314Y6823051D01*
X6650064Y6821800D02*
X6650085Y6821822D01*
X7034198Y6594963D02*
X7218365D01*
X6772630Y6793510D02*
X6926615Y6639525D01*
X9425572Y4332626D02*
Y6546535D01*
X9341447Y4209509D02*
X9398000Y4266063D01*
X8759359Y4165600D02*
X9235440D01*
X5929945Y4083418D02*
X7131369D01*
X8729290Y4180343D02*
X8733202Y4176431D01*
X9451708Y4332530D02*
Y6546535D01*
X9359798Y4190898D02*
X9416550Y4247650D01*
X8710905Y4161765D02*
X8714875Y4157796D01*
X8759133Y4139463D02*
X9235624D01*
X7378631Y4178300D02*
X8670987D01*
X7239070Y4101837D02*
X7270917Y4133683D01*
X5929945Y4057282D02*
X7131505D01*
X7220686Y4120415D02*
X7252503Y4152232D01*
X9588132Y6770841D02*
Y6930075D01*
X9532668Y4272280D02*
Y6636939D01*
X9363687Y4034433D02*
X9483973Y4154718D01*
X9031899Y4007614D02*
X9298940D01*
X7448631Y4118598D02*
X8145806D01*
X8245264Y4077401D02*
X8863450D01*
X7278370Y4039870D02*
X7292375Y4053875D01*
X6026040Y3999265D02*
X7180341D01*
X5980398Y3980280D02*
X5980533Y3980415D01*
X5918565Y3969688D02*
X5919794Y3968459D01*
X5918544Y3969710D02*
X5918565Y3969688D01*
X8950938Y4041163D02*
X8950960Y4041140D01*
X9614268Y6770587D02*
Y6930075D01*
X9558805Y4266058D02*
Y6636686D01*
X9382057Y4015840D02*
X9506854Y4140637D01*
X9031740Y3981477D02*
X9299097D01*
X7459457Y4092462D02*
X8145520D01*
X8244978Y4051265D02*
X8863119D01*
X7296652Y4021190D02*
X7303201Y4027739D01*
X6026231Y3973129D02*
X7180623D01*
X5991825Y3954745D02*
X5998879Y3961799D01*
X5935827Y3935682D02*
X5945803D01*
X5918565Y3927812D02*
X5919794Y3929041D01*
X5918544Y3927790D02*
X5918565Y3927812D01*
D13*
X5475505Y3254475D02*
G03*
X5655111Y3180080I179605J179605D01*
G01*
X5162015Y3567965D02*
G03*
X4982410Y3642360I-179605J-179605D01*
G01*
X2242534Y3530600D02*
G03*
X2377440Y3586480I0J190786D01*
G01*
X2512346Y3642360D02*
G03*
X2377440Y3586480I0J-190786D01*
G01*
X1419311Y3454338D02*
G03*
X1419044Y3454071I179338J-179872D01*
G01*
X1598649Y3528466D02*
G03*
X1419311Y3454338I0J-254000D01*
G01*
X5655111Y3180080D02*
X8912860D01*
X9001760Y3268980D02*
X9189720D01*
X8912860Y3180080D02*
X9001760Y3268980D01*
X9189720D02*
X9232797D01*
X5162015Y3567965D02*
X5475505Y3254475D01*
X2512346Y3642360D02*
X4982410D01*
X2200806Y3530600D02*
X2242534D01*
X2005389Y3605263D02*
X2080052Y3530600D01*
X1876973Y3528466D02*
X2198672D01*
X1598649D02*
X1876973D01*
X1283575Y3318602D02*
X1419044Y3454071D01*
X2198672Y3528466D02*
X2200806Y3530600D01*
X2080052D02*
X2200806D01*
X1876973Y3528466D02*
X1953771Y3605263D01*
X2005389D01*
D14*
X240815Y4557773D02*
G03*
X213360Y4491469I66336J-66304D01*
G01*
X240831Y4557789D02*
G03*
X240815Y4557773I66320J-66320D01*
G01*
Y5827773D02*
G03*
X213360Y5761469I66336J-66304D01*
G01*
X240831Y5827789D02*
G03*
X240815Y5827773I66320J-66320D01*
G01*
Y4557773D02*
X240831Y4557789D01*
X358821Y4675780D01*
X213360Y4452620D02*
Y4491469D01*
Y5722620D02*
Y5761469D01*
X240815Y5827773D02*
X240831Y5827789D01*
X358821Y5945780D01*
X123360Y5722620D02*
Y5850780D01*
X420432Y5945780D02*
X423332Y5948680D01*
X358821Y5945780D02*
X420432D01*
X358821Y4675780D02*
X420432D01*
X423332Y4678680D01*
X123360Y4452620D02*
Y4580780D01*
D15*
X1417320Y6880146D02*
G03*
X1382766Y6963674I-118234J0D01*
G01*
X1408440Y6818625D02*
G03*
X1417320Y6880146I-208669J61521D01*
G01*
X1353601Y6726315D02*
G03*
X1408440Y6818625I-153831J153831D01*
G01*
X1382665Y6963775D02*
G03*
X1299086Y6998380I-83579J-83628D01*
G01*
X1382766Y6963674D02*
G03*
X1382690Y6963750I-83680J-83528D01*
G01*
X813186Y6942088D02*
G03*
X813279Y6942181I-129553J129738D01*
G01*
X683634Y6888480D02*
G03*
X813186Y6942088I0J183346D01*
G01*
X205740Y6960750D02*
G03*
X226907Y6909647I72270J0D01*
G01*
D02*
G03*
X278010Y6888480I51103J51103D01*
G01*
X9851702Y8296326D02*
G03*
X9767201Y8261325I0J-119502D01*
G01*
X10112698Y7746314D02*
G03*
X10197198Y7781315I0J119502D01*
G01*
X9767201D02*
G03*
X9851702Y7746314I84500J84500D01*
G01*
X10197198Y8261325D02*
G03*
X10112698Y8296326I-84500J-84500D01*
G01*
X1336375Y6709089D02*
X1353601Y6726315D01*
X1382665Y6963775D02*
X1382690Y6963750D01*
X978740Y6998380D02*
X1299086D01*
X278010Y6888480D02*
X683634D01*
X813279Y6942181D02*
X866980Y6995882D01*
X205740Y6960750D02*
Y7062280D01*
X977491Y6997131D02*
X978740Y6998380D01*
X866980Y6995882D02*
X868229Y6997131D01*
X977491D01*
X755060Y7083380D02*
X978740D01*
X754380Y7084060D02*
X755060Y7083380D01*
X9910203Y7896327D02*
X10054196D01*
Y7746314D02*
X10112698D01*
X9851702D02*
X9910203D01*
X10054196D01*
X9851702Y8296326D02*
X9910203D01*
X10054196D02*
X10112698D01*
X9910203D02*
X10054196D01*
X9910203Y8146313D02*
X10054196D01*
X10316346Y4500628D02*
X10319458Y4503740D01*
X10313234Y4043680D02*
X10316346Y4046792D01*
Y4500628D01*
X9824440Y7254009D02*
Y7337509D01*
X10138740Y7256780D02*
Y7340280D01*
X9824440Y7199069D02*
Y7254009D01*
Y7199069D02*
X9825380Y7198129D01*
X9824440Y7337509D02*
Y7392449D01*
X9823500Y7393389D02*
X9824440Y7392449D01*
X10138740Y7340280D02*
Y7395220D01*
X10137800Y7396160D02*
X10138740Y7395220D01*
Y7201840D02*
X10139680Y7200900D01*
X10138740Y7201840D02*
Y7256780D01*
X10319458Y4874260D02*
Y5329423D01*
X10317102Y5331780D02*
X10319458Y5329423D01*
D16*
X317500Y5727662D02*
D03*
Y5637662D02*
D03*
X424180Y5725160D02*
D03*
Y5640160D02*
D03*
X317500Y4367662D02*
D03*
Y4457662D02*
D03*
X510540Y4909820D02*
D03*
Y4999820D02*
D03*
X424180Y4455160D02*
D03*
Y4370160D02*
D03*
X530860Y4454837D02*
D03*
Y4369837D02*
D03*
X978740Y6998380D02*
D03*
Y7083380D02*
D03*
X866980Y7085882D02*
D03*
Y6995882D02*
D03*
X510540Y6179820D02*
D03*
Y6269820D02*
D03*
X530860Y5724837D02*
D03*
Y5639837D02*
D03*
D17*
X818822Y5720880D02*
D03*
Y6176480D02*
D03*
Y4450880D02*
D03*
Y4906480D02*
D03*
D18*
X348992Y4958072D02*
D03*
X158992D02*
D03*
X1137088Y4823460D02*
D03*
X1327088D02*
D03*
X1137088Y4533900D02*
D03*
X1327088D02*
D03*
X1137088Y5803900D02*
D03*
X1327088D02*
D03*
Y6093460D02*
D03*
X1137088D02*
D03*
X348992Y6228072D02*
D03*
X158992D02*
D03*
D19*
X213360Y4452620D02*
D03*
X123360D02*
D03*
X1102044Y4678680D02*
D03*
X1192044D02*
D03*
Y5948680D02*
D03*
X1102044D02*
D03*
X213360Y5722620D02*
D03*
X123360D02*
D03*
D20*
X423332Y4583680D02*
D03*
Y4678680D02*
D03*
Y4773680D02*
D03*
X143932D02*
D03*
Y4678680D02*
D03*
Y4583680D02*
D03*
X423332Y5853680D02*
D03*
Y5948680D02*
D03*
Y6043680D02*
D03*
X143932D02*
D03*
Y5948680D02*
D03*
Y5853680D02*
D03*
D21*
X9910203Y7896327D02*
D03*
X10054196D02*
D03*
X9910203Y7796327D02*
D03*
Y7846314D02*
D03*
Y7946314D02*
D03*
Y7996326D02*
D03*
Y7746314D02*
D03*
Y8096326D02*
D03*
Y8146313D02*
D03*
Y8196326D02*
D03*
Y8246313D02*
D03*
Y8046339D02*
D03*
Y8296326D02*
D03*
X10054196Y7796327D02*
D03*
Y7846314D02*
D03*
Y7946314D02*
D03*
Y7996326D02*
D03*
Y7746314D02*
D03*
Y8096326D02*
D03*
Y8146313D02*
D03*
Y8196326D02*
D03*
Y8246313D02*
D03*
Y8046314D02*
D03*
Y8296326D02*
D03*
D22*
X9924440Y7337509D02*
D03*
X9874440D02*
D03*
X9724440D02*
D03*
X9774440D02*
D03*
X9874440Y7254009D02*
D03*
X9924440D02*
D03*
X9724440D02*
D03*
X9774440D02*
D03*
X10088740Y7256780D02*
D03*
X10038740D02*
D03*
X10238740D02*
D03*
X10188740D02*
D03*
X10088740Y7340280D02*
D03*
X10038740D02*
D03*
X10188740D02*
D03*
X10238740D02*
D03*
D23*
X9824440Y7337509D02*
D03*
Y7254009D02*
D03*
X10138740Y7256780D02*
D03*
Y7340280D02*
D03*
D24*
X322580Y3390900D02*
D03*
X10228580Y8630920D02*
D03*
D25*
X2005389Y3605263D02*
D03*
X1393459Y4217193D02*
D03*
D26*
X1106798Y3495379D02*
D03*
X1283575Y3318602D02*
D03*
D27*
X459930Y7494549D02*
D03*
D28*
X1231710Y8029550D02*
D03*
D29*
X1101712Y8639531D02*
D03*
D30*
X4114800Y3949980D02*
D03*
X2626360D02*
D03*
X4859020D02*
D03*
X3370580D02*
D03*
X2626360Y6766840D02*
D03*
X3370580D02*
D03*
X4859020D02*
D03*
X4114800D02*
D03*
D31*
Y3349980D02*
D03*
X2626360D02*
D03*
X4859020D02*
D03*
X3370580D02*
D03*
X2626360Y6166840D02*
D03*
X3370580D02*
D03*
X4859020D02*
D03*
X4114800D02*
D03*
D32*
X1336375Y6709089D02*
D03*
X1230309Y6815155D02*
D03*
D33*
X1768983Y6849237D02*
D03*
X1370457Y7247763D02*
D03*
D34*
X586740Y7062280D02*
D03*
D35*
X459740D02*
D03*
X332740D02*
D03*
X205740D02*
D03*
X586740Y6562280D02*
D03*
X459740D02*
D03*
X332740D02*
D03*
X205740D02*
D03*
D36*
X927100Y3314700D02*
X962660Y3350260D01*
X1106798Y3494398D02*
Y3495379D01*
X962660Y3350260D02*
X1106798Y3494398D01*
D37*
X7584440Y8661400D02*
D03*
Y7381240D02*
D03*
X8872922Y8661400D02*
D03*
Y7381240D02*
D03*
D38*
X7594346Y7671308D02*
D03*
Y7921244D02*
D03*
Y8121396D02*
D03*
Y8371332D02*
D03*
X7444486Y7621270D02*
D03*
Y7821422D02*
D03*
Y8021320D02*
D03*
Y8221218D02*
D03*
Y8421370D02*
D03*
X8882828Y7671308D02*
D03*
Y7921244D02*
D03*
Y8121396D02*
D03*
Y8371332D02*
D03*
X8732968Y7621270D02*
D03*
Y7821422D02*
D03*
Y8021320D02*
D03*
Y8221218D02*
D03*
Y8421370D02*
D03*
D39*
X10197198Y7781315D02*
D03*
X9767201D02*
D03*
Y8261325D02*
D03*
X10197198D02*
D03*
D40*
X1616116Y6469476D02*
D03*
X5416116D02*
D03*
X1616116Y3662126D02*
D03*
X5416116D02*
D03*
D41*
X436880Y7653020D02*
D03*
X513080D02*
D03*
X589280D02*
D03*
Y7602220D02*
D03*
X513080D02*
D03*
X436880D02*
D03*
X1023620Y7975600D02*
D03*
X1099820D02*
D03*
X1176020D02*
D03*
Y7924800D02*
D03*
X1099820D02*
D03*
X1023620D02*
D03*
X1041400Y8671560D02*
D03*
X1117600D02*
D03*
X1193800D02*
D03*
Y8620760D02*
D03*
X1117600D02*
D03*
X1041400D02*
D03*
X1277620Y8752840D02*
D03*
X1353820D02*
D03*
X1430020D02*
D03*
Y8702040D02*
D03*
X1353820D02*
D03*
X1277620D02*
D03*
X784860Y8750300D02*
D03*
X861060D02*
D03*
X937260D02*
D03*
Y8699500D02*
D03*
X861060D02*
D03*
X784860D02*
D03*
X779780Y8577580D02*
D03*
X855980D02*
D03*
X932180D02*
D03*
Y8526780D02*
D03*
X855980D02*
D03*
X779780D02*
D03*
X1267460Y8580120D02*
D03*
X1343660D02*
D03*
X1419860D02*
D03*
Y8529320D02*
D03*
X1343660D02*
D03*
X1267460D02*
D03*
X1262380Y8133080D02*
D03*
X1338580D02*
D03*
X1414780D02*
D03*
Y8082280D02*
D03*
X1338580D02*
D03*
X1262380D02*
D03*
X1267460Y8450580D02*
D03*
X1343660D02*
D03*
X1419860D02*
D03*
Y8399780D02*
D03*
X1343660D02*
D03*
X1267460D02*
D03*
X93980Y6281420D02*
D03*
Y6169660D02*
D03*
Y6228080D02*
D03*
X9075420Y4963160D02*
D03*
Y4917440D02*
D03*
Y4871720D02*
D03*
X9123680Y5212080D02*
D03*
X8244840Y3822700D02*
D03*
X347980Y6111240D02*
D03*
X414020D02*
D03*
X477520D02*
D03*
X541020Y6113780D02*
D03*
X360680Y4841240D02*
D03*
X424180D02*
D03*
X490220D02*
D03*
X553720D02*
D03*
X5977455Y3749899D02*
D03*
X6014720Y3787164D02*
D03*
X8440989Y5280660D02*
D03*
X8388289D02*
D03*
X8615680Y4955479D02*
D03*
Y5008179D02*
D03*
X8792628Y5472012D02*
D03*
X8829892Y5434748D02*
D03*
X8384900Y4768149D02*
D03*
Y4715449D02*
D03*
X8320974Y5032100D02*
D03*
X8267700D02*
D03*
X8147370Y5722620D02*
D03*
X8200070D02*
D03*
X8081071Y5245100D02*
D03*
X8028371D02*
D03*
X7470140Y6151270D02*
D03*
Y6203970D02*
D03*
X7053580Y6533830D02*
D03*
X7788341Y5034280D02*
D03*
X7841041D02*
D03*
X7053580Y6481130D02*
D03*
X7874950Y6962140D02*
D03*
X6997700Y6685364D02*
D03*
X7822250Y6962140D02*
D03*
X6997700Y6738063D02*
D03*
X7659690Y6578600D02*
D03*
X6637020Y6869110D02*
D03*
X7712390Y6578600D02*
D03*
X6637020Y6816410D02*
D03*
X7961056Y5092700D02*
D03*
X7053573Y6213790D02*
D03*
X7908356Y5092700D02*
D03*
X7053573Y6161090D02*
D03*
X8806180Y6533830D02*
D03*
X8450580Y4648261D02*
D03*
X8806180Y6481130D02*
D03*
X8450580Y4595561D02*
D03*
X8806173Y6161090D02*
D03*
Y6213790D02*
D03*
X8384900Y4475546D02*
D03*
Y4528246D02*
D03*
X9222740Y6151270D02*
D03*
X8900160Y4355531D02*
D03*
X9222740Y6203970D02*
D03*
X8900160Y4408231D02*
D03*
X9412290Y6578600D02*
D03*
X5897880Y4096700D02*
D03*
X9464990Y6578600D02*
D03*
X5897880Y4044000D02*
D03*
X9574850Y6962140D02*
D03*
X5905500Y3975100D02*
D03*
X9627550Y6962140D02*
D03*
X5905500Y3922400D02*
D03*
X6122235Y3499285D02*
D03*
X6159500Y3462020D02*
D03*
X5977455Y3534845D02*
D03*
X6014720Y3497580D02*
D03*
X9782200Y8047683D02*
D03*
X10180320Y7994970D02*
D03*
X9413126Y7845095D02*
D03*
X5905500Y3848100D02*
D03*
X10180320Y8047670D02*
D03*
X9782200Y7994983D02*
D03*
X9413126Y7792395D02*
D03*
X5905500Y3795400D02*
D03*
X10154920Y7517323D02*
D03*
X9775790Y7426960D02*
D03*
X10154920Y7570023D02*
D03*
X9723091Y7426960D02*
D03*
X6159500Y3822724D02*
D03*
X6122235Y3785459D02*
D03*
X6637020Y6921810D02*
D03*
Y6763710D02*
D03*
X2956560Y6764020D02*
D03*
X2827020D02*
D03*
X2702560D02*
D03*
X2697480Y3962400D02*
D03*
X2824480D02*
D03*
X2956560D02*
D03*
X4777740Y6012180D02*
D03*
X4845799Y6352483D02*
D03*
X4658360Y6062980D02*
D03*
X4541106Y6232950D02*
D03*
X4437980Y6033730D02*
D03*
X4303798Y6078848D02*
D03*
X3759200Y6197600D02*
D03*
X3947160Y6322060D02*
D03*
X3878985Y6086466D02*
D03*
X3614722Y6037832D02*
D03*
X3594100Y6296660D02*
D03*
X2811780Y6327140D02*
D03*
X2900680Y6240780D02*
D03*
X3088640Y6172200D02*
D03*
X2918460Y6073140D02*
D03*
X2989580Y6035040D02*
D03*
X2773680Y6027420D02*
D03*
X2905760Y3373120D02*
D03*
X2733040Y3246120D02*
D03*
X2768600Y3352800D02*
D03*
X2840851Y3282718D02*
D03*
X3126155Y3374751D02*
D03*
X3558540Y3385820D02*
D03*
X4522940Y3385371D02*
D03*
X4691432Y3389619D02*
D03*
X4340289Y3235994D02*
D03*
X4622761Y3262895D02*
D03*
X4366484Y3377583D02*
D03*
X3954780Y3406140D02*
D03*
X3731260Y3370580D02*
D03*
X3843020Y3248660D02*
D03*
X3604260Y3218180D02*
D03*
X3053080Y3225800D02*
D03*
X1328420Y6911340D02*
D03*
X1130300Y6715760D02*
D03*
X1346200Y4993640D02*
D03*
X1272540D02*
D03*
Y4912360D02*
D03*
X1346200D02*
D03*
X1272540Y4719320D02*
D03*
X1346200D02*
D03*
X1272540Y4630420D02*
D03*
X1346200D02*
D03*
Y4442460D02*
D03*
X1272540D02*
D03*
X485140Y5062220D02*
D03*
X563880Y5064760D02*
D03*
X508000Y5151120D02*
D03*
X378460D02*
D03*
X246380D02*
D03*
X142240D02*
D03*
X73660Y5074920D02*
D03*
Y5001260D02*
D03*
Y4930140D02*
D03*
X1290320Y6273800D02*
D03*
X1358900D02*
D03*
X1292860Y6192520D02*
D03*
X1358900D02*
D03*
X1297940Y5897880D02*
D03*
X1358900Y5900420D02*
D03*
X1346200Y5717540D02*
D03*
X1275080D02*
D03*
X637540Y6245860D02*
D03*
Y6299200D02*
D03*
X574040Y6245860D02*
D03*
Y6299200D02*
D03*
X484420Y4368800D02*
D03*
Y5639837D02*
D03*
X360680Y5801360D02*
D03*
X449580D02*
D03*
X533400D02*
D03*
X414020Y4559300D02*
D03*
X472440D02*
D03*
X530995Y4557608D02*
D03*
X228600Y6451600D02*
D03*
Y6400800D02*
D03*
X177800D02*
D03*
Y6451600D02*
D03*
X939800Y6807200D02*
D03*
Y6731000D02*
D03*
Y6654800D02*
D03*
X990600D02*
D03*
Y6731000D02*
D03*
Y6807200D02*
D03*
X1953050Y3446990D02*
D03*
X2057190Y3546050D02*
D03*
X1841290Y3553670D02*
D03*
X2057190Y3767030D02*
D03*
X2168950Y3660350D02*
D03*
X1950510D02*
D03*
X1445260Y4157980D02*
D03*
X1338580Y4272280D02*
D03*
X1229360Y4165600D02*
D03*
X1341120Y4058920D02*
D03*
X1557020Y4272280D02*
D03*
X1445260Y4378960D02*
D03*
X1681480Y6835140D02*
D03*
X1752600Y6758940D02*
D03*
X1856740Y6865620D02*
D03*
X1783080Y6939280D02*
D03*
X1356360Y7155180D02*
D03*
X1280160Y7231380D02*
D03*
X1463040Y7264400D02*
D03*
X1386840Y7338060D02*
D03*
X927100Y3314700D02*
D03*
X962660Y3350260D02*
D03*
X2319020Y3322320D02*
D03*
X5212080Y3812540D02*
D03*
X4733116Y3501942D02*
D03*
X4352116D02*
D03*
X3209116D02*
D03*
X3082116D02*
D03*
X2574116D02*
D03*
X5114116Y6309292D02*
D03*
X4733116D02*
D03*
X4352116D02*
D03*
X3209116D02*
D03*
X3082116D02*
D03*
X2574116D02*
D03*
X2320116D02*
D03*
X144780Y5662380D02*
D03*
Y6093460D02*
D03*
Y4823460D02*
D03*
Y4392380D02*
D03*
X5862321Y4135595D02*
D03*
X5941733Y4013471D02*
D03*
X5867295Y3886100D02*
D03*
X6215380Y3828883D02*
D03*
X6065852Y3799923D02*
D03*
X5920740Y3743960D02*
D03*
X5935980Y3571240D02*
D03*
X6067354Y3494948D02*
D03*
X6197600Y3423920D02*
D03*
X9223700Y8651240D02*
D03*
X9350700D02*
D03*
X9477700D02*
D03*
X9604700Y8653780D02*
D03*
X7830820D02*
D03*
X7964480D02*
D03*
X8091480Y8652510D02*
D03*
X8218480Y8653780D02*
D03*
X8397240Y8754866D02*
D03*
X9679940Y8727440D02*
D03*
X9378000Y7659752D02*
D03*
X6324600Y3319780D02*
D03*
Y3276280D02*
D03*
X6464300Y3624580D02*
D03*
X6537960D02*
D03*
X6393180D02*
D03*
X8120380Y4775200D02*
D03*
X8067040D02*
D03*
Y4724400D02*
D03*
X8120380D02*
D03*
X7889240Y4777740D02*
D03*
X7835900D02*
D03*
Y4726940D02*
D03*
X7889240D02*
D03*
X8120380Y4655820D02*
D03*
X8067040D02*
D03*
Y4605020D02*
D03*
X8120380D02*
D03*
X7889240Y4658360D02*
D03*
X7835900D02*
D03*
Y4607560D02*
D03*
X7889240D02*
D03*
X8120380Y4528820D02*
D03*
X8067040D02*
D03*
Y4478020D02*
D03*
X8120380D02*
D03*
X7889240Y4528820D02*
D03*
X7835900D02*
D03*
Y4478020D02*
D03*
X7889240D02*
D03*
X7800340Y6344920D02*
D03*
X7731760Y6342380D02*
D03*
X7670800D02*
D03*
X7609840D02*
D03*
X7551420D02*
D03*
X7800340Y6225540D02*
D03*
X7731760D02*
D03*
X7670800D02*
D03*
X7609840D02*
D03*
X7551420D02*
D03*
X7704826Y6455674D02*
D03*
X7767320Y6456680D02*
D03*
X7830820D02*
D03*
X7008713Y6453485D02*
D03*
X7006156Y6556814D02*
D03*
X7048500Y6106926D02*
D03*
X7053580Y6266490D02*
D03*
X7927150Y6954899D02*
D03*
X7770050D02*
D03*
X8787191Y6582990D02*
D03*
Y6431970D02*
D03*
X10403363Y7411375D02*
D03*
X10441940Y7447280D02*
D03*
X9821887Y7939280D02*
D03*
X10345420Y8034020D02*
D03*
X8875264Y5407940D02*
D03*
X8762258Y5515082D02*
D03*
X8785140Y4921385D02*
D03*
X6235700Y3932891D02*
D03*
X7503160Y4683760D02*
D03*
X7762240Y4800600D02*
D03*
X7764420Y4881880D02*
D03*
X7680777Y4921885D02*
D03*
X7922260Y3289300D02*
D03*
X7830820Y3291840D02*
D03*
X8006080Y3289300D02*
D03*
X7741920Y3291840D02*
D03*
X7680777Y4841875D02*
D03*
X8553519Y3328601D02*
D03*
X8229600Y3289300D02*
D03*
X8577580Y3828883D02*
D03*
X8778240Y3952240D02*
D03*
X8229321Y7668455D02*
D03*
X10313234Y4043680D02*
D03*
X9255760Y4859020D02*
D03*
Y4953000D02*
D03*
Y4907280D02*
D03*
X9232900Y4101315D02*
D03*
X9298940D02*
D03*
X9232900Y4045762D02*
D03*
X9298940D02*
D03*
X7955280Y7289800D02*
D03*
Y7406640D02*
D03*
Y7348220D02*
D03*
X9128760Y7350760D02*
D03*
Y7409180D02*
D03*
Y7292340D02*
D03*
X9514840Y3733800D02*
D03*
X9240520Y3731260D02*
D03*
X9306560D02*
D03*
X9372600D02*
D03*
X9446260Y3732698D02*
D03*
X10462260Y3421380D02*
D03*
X10375900D02*
D03*
X10462260Y3347720D02*
D03*
X10375900D02*
D03*
X10396220Y3271520D02*
D03*
X10309860D02*
D03*
X10325100Y3208020D02*
D03*
X10238740D02*
D03*
X10223500Y3139440D02*
D03*
X10137140D02*
D03*
X10165080Y3202940D02*
D03*
X10078720D02*
D03*
X10002520Y3159760D02*
D03*
X9916160D02*
D03*
X9751486Y3130559D02*
D03*
X9677826Y3133099D02*
D03*
X9162206Y3138179D02*
D03*
X9334926Y3135639D02*
D03*
X9591466Y3133099D02*
D03*
X9837846Y3130559D02*
D03*
X9507646Y3133099D02*
D03*
X9248566Y3135639D02*
D03*
X9075846Y3138179D02*
D03*
X9421286Y3133099D02*
D03*
X10462260Y3505200D02*
D03*
X10375900D02*
D03*
X10462260Y3563620D02*
D03*
X10375900D02*
D03*
X10462260Y3622040D02*
D03*
X10375900D02*
D03*
X10462260Y3677920D02*
D03*
X10375900D02*
D03*
Y3733800D02*
D03*
X10462260D02*
D03*
X9065260Y4051300D02*
D03*
Y4099560D02*
D03*
X9121140Y4051300D02*
D03*
Y4099560D02*
D03*
X9080500Y4333240D02*
D03*
X9141460Y4335780D02*
D03*
Y4386580D02*
D03*
X9123680Y5161280D02*
D03*
X9075420D02*
D03*
Y5212080D02*
D03*
X9123680Y5260340D02*
D03*
X9075420D02*
D03*
X9123680Y4871720D02*
D03*
Y4917440D02*
D03*
Y4963160D02*
D03*
X9516708Y7530428D02*
D03*
X9321115Y8173677D02*
D03*
X9281160Y8064500D02*
D03*
X8481060Y8067040D02*
D03*
X8351520Y7538720D02*
D03*
X8061960Y6207760D02*
D03*
X8221980Y8115300D02*
D03*
Y8168640D02*
D03*
X9387423Y6301740D02*
D03*
X9296400Y6510020D02*
D03*
X9385300Y6418580D02*
D03*
X9387423Y6510020D02*
D03*
X9494520D02*
D03*
X9491980Y6416040D02*
D03*
Y6301740D02*
D03*
X9596953D02*
D03*
Y6416040D02*
D03*
Y6510020D02*
D03*
X9680942Y7395325D02*
D03*
X7394660Y4297680D02*
D03*
Y4940300D02*
D03*
X8354060Y5404397D02*
D03*
X6936740Y5953760D02*
D03*
X7241540Y5765800D02*
D03*
X9253220Y5561650D02*
D03*
X9256539Y5706212D02*
D03*
X9230360Y5821680D02*
D03*
X9489857Y6115364D02*
D03*
X9619015Y6128871D02*
D03*
X10038737Y6204988D02*
D03*
X9804710Y6217620D02*
D03*
X9123680Y7162800D02*
D03*
X9230360Y7155180D02*
D03*
X9113958Y7050720D02*
D03*
X8974711Y6882509D02*
D03*
X8971280Y6764020D02*
D03*
X8872220Y6776720D02*
D03*
X7477760Y7091749D02*
D03*
X7541191Y7152640D02*
D03*
X7249160Y7160260D02*
D03*
X7360029Y7049391D02*
D03*
X7272122Y6713118D02*
D03*
X7227191Y6887589D02*
D03*
X7044164Y6660497D02*
D03*
X7040880Y6769100D02*
D03*
X7737257Y6532136D02*
D03*
X7634823D02*
D03*
X9940501Y4742180D02*
D03*
X7849677Y5850347D02*
D03*
X7854795Y6117545D02*
D03*
X7708696Y5977168D02*
D03*
X7844353Y5992917D02*
D03*
X7737257Y6115364D02*
D03*
X9489857Y5988241D02*
D03*
X9596953Y5992917D02*
D03*
X9825380Y7198129D02*
D03*
X9823500Y7393389D02*
D03*
X10137800Y7396160D02*
D03*
X10139680Y7200900D02*
D03*
X6299200Y3416300D02*
D03*
X10055140Y4865549D02*
D03*
X9938623Y6891276D02*
D03*
X9954260Y5885180D02*
D03*
X9953926Y5819842D02*
D03*
X10099040Y3982720D02*
D03*
X9931400Y5603240D02*
D03*
X10033000Y5057140D02*
D03*
X9941560D02*
D03*
X9987280D02*
D03*
Y4229100D02*
D03*
X9941560D02*
D03*
X10033000D02*
D03*
X10317102Y5331780D02*
D03*
X10319458Y4503740D02*
D03*
Y4874260D02*
D03*
X7284720Y4300220D02*
D03*
Y4406900D02*
D03*
X7287260Y4508500D02*
D03*
Y4620260D02*
D03*
Y4724400D02*
D03*
Y4833620D02*
D03*
Y4937760D02*
D03*
Y5044440D02*
D03*
Y5153660D02*
D03*
X7716520Y5511800D02*
D03*
X7823200Y5466080D02*
D03*
X7995920Y5506720D02*
D03*
X7874762Y5404400D02*
D03*
X7994650D02*
D03*
X8114538D02*
D03*
X8116763Y5506340D02*
D03*
X8237220D02*
D03*
Y5404400D02*
D03*
X8356600Y5514340D02*
D03*
X8754660Y4803140D02*
D03*
X8867140D02*
D03*
X8754660Y4681220D02*
D03*
X8867140Y4559300D02*
D03*
Y4681220D02*
D03*
X8867885Y4449892D02*
D03*
X8873359Y4310155D02*
D03*
X8788360Y4206240D02*
D03*
X8754660Y4449892D02*
D03*
Y4561840D02*
D03*
X7785100Y3980180D02*
D03*
X7952740Y3937000D02*
D03*
X7833360Y4039320D02*
D03*
X7955280D02*
D03*
X8074025D02*
D03*
X8181340Y3934460D02*
D03*
X8074660D02*
D03*
X8288020D02*
D03*
X8529320Y3937000D02*
D03*
X8633460Y4006022D02*
D03*
X8112760Y5763260D02*
D03*
X8235200Y5761902D02*
D03*
X8054340Y5943600D02*
D03*
Y5877560D02*
D03*
Y5819140D02*
D03*
X8295640Y6022340D02*
D03*
Y5971540D02*
D03*
Y5918200D02*
D03*
X8173720Y6891020D02*
D03*
X8008620Y6959600D02*
D03*
X7528560Y5880820D02*
D03*
X7635240D02*
D03*
X7741920D02*
D03*
X7421880Y5773420D02*
D03*
X7741920D02*
D03*
X7635240D02*
D03*
X7528560D02*
D03*
X9125011Y5819140D02*
D03*
X7125418Y6073860D02*
D03*
Y5973362D02*
D03*
X7185658Y5920740D02*
D03*
Y6027420D02*
D03*
X7084060Y6344920D02*
D03*
X7185658Y6347460D02*
D03*
Y6667500D02*
D03*
X7544743Y6894660D02*
D03*
X7643960D02*
D03*
X7722700D02*
D03*
X7579360Y6834420D02*
D03*
X7688580D02*
D03*
X8195502Y6705600D02*
D03*
X8162847Y6385560D02*
D03*
Y6492240D02*
D03*
X8223087Y6549553D02*
D03*
X8222533Y6439453D02*
D03*
X9786620Y5882640D02*
D03*
Y5941060D02*
D03*
X9758680Y5821680D02*
D03*
X9679750Y6954899D02*
D03*
X9522650D02*
D03*
X8817778Y6109684D02*
D03*
Y6265196D02*
D03*
X8834120Y5920740D02*
D03*
X8832632Y6027420D02*
D03*
X9387423Y5777865D02*
D03*
X10045696Y5930904D02*
D03*
Y5979164D02*
D03*
Y6022344D02*
D03*
X9494520Y5777865D02*
D03*
X9601200Y5850347D02*
D03*
X9915447Y6385560D02*
D03*
Y6492240D02*
D03*
X9977120Y6548120D02*
D03*
X9975133Y6436913D02*
D03*
X9334500Y6834420D02*
D03*
X9441180D02*
D03*
X8835172Y6667500D02*
D03*
X8938258D02*
D03*
X8830092Y6347460D02*
D03*
X8938258D02*
D03*
X9494520Y5880820D02*
D03*
X9272411Y6894971D02*
D03*
X9487620Y6894660D02*
D03*
X9387840D02*
D03*
X9948102Y6705600D02*
D03*
X10317480Y4556760D02*
D03*
X10205720D02*
D03*
X10261600D02*
D03*
Y5384800D02*
D03*
X10205720D02*
D03*
X10317480D02*
D03*
X8938258Y6027420D02*
D03*
Y5920740D02*
D03*
X9280083Y5880820D02*
D03*
X9387423D02*
D03*
X9240520Y3319780D02*
D03*
X9189720D02*
D03*
X9240520Y3268980D02*
D03*
X9189720D02*
D03*
X9240520Y3218180D02*
D03*
X9189720D02*
D03*
X6365240Y3416300D02*
D03*
X7734300Y5044440D02*
D03*
X8373424Y5037223D02*
D03*
X8214360Y5041900D02*
D03*
X8294337Y4986627D02*
D03*
X7976681Y5042370D02*
D03*
X7893135Y5042246D02*
D03*
X8430934Y4793803D02*
D03*
X8352462Y4673915D02*
D03*
X8352625Y4569907D02*
D03*
X8384707Y4422846D02*
D03*
X8339260Y4741799D02*
D03*
Y4501896D02*
D03*
%TF.MD5,6701aae69c4c0d3d66ac501829e1ee18*%
M02*
