%TF.GenerationSoftware,Altium Limited,Altium Designer,24.0.1 (36)*%
G04 Layer_Physical_Order=3*
G04 Layer_Color=16440176*
%FSLAX45Y45*%
%MOMM*%
%TF.SameCoordinates,B6A243B4-E260-46CF-AFF0-E69CB888832F*%
%TF.FilePolarity,Positive*%
%TF.FileFunction,Copper,L3,Inr,Signal*%
%TF.Part,Single*%
G01*
G75*
%TA.AperFunction,Conductor*%
%ADD10C,0.12954*%
%ADD11C,0.15240*%
%ADD36C,0.38100*%
%TA.AperFunction,ComponentPad*%
%ADD37C,2.99974*%
%ADD38C,1.19888*%
%ADD39C,1.30000*%
%ADD40C,1.00000*%
%TA.AperFunction,ViaPad*%
%ADD41C,0.40000*%
%TA.AperFunction,Conductor*%
%ADD42C,0.12700*%
G36*
X10259303Y8892906D02*
X10297303Y8882744D01*
X10333649Y8867706D01*
X10367719Y8848048D01*
X10398928Y8824106D01*
X10426742Y8796293D01*
X10450683Y8765083D01*
X10470342Y8731014D01*
X10485380Y8694667D01*
X10495541Y8656668D01*
X10500650Y8617667D01*
X10500635Y8598000D01*
X10500635D01*
X10500635Y8597999D01*
X10500635Y3398020D01*
X10500639Y3378356D01*
X10495512Y3339363D01*
X10485338Y3301373D01*
X10470292Y3265037D01*
X10450630Y3230977D01*
X10426690Y3199774D01*
X10398880Y3171965D01*
X10367678Y3148025D01*
X10333618Y3128363D01*
X10297282Y3113316D01*
X10259292Y3103143D01*
X10220299Y3098016D01*
X10200635Y3098020D01*
X300635Y3097999D01*
X280974Y3098006D01*
X241990Y3103151D01*
X204010Y3113337D01*
X167684Y3128392D01*
X133632Y3148057D01*
X102437Y3171996D01*
X74633Y3199801D01*
X50693Y3230996D01*
X31028Y3265048D01*
X15973Y3301374D01*
X5787Y3339353D01*
X642Y3378337D01*
X635Y3397999D01*
X634Y8597999D01*
X630Y8617663D01*
X5757Y8656656D01*
X15931Y8694646D01*
X30978Y8730982D01*
X50639Y8765043D01*
X74580Y8796245D01*
X102389Y8824054D01*
X133592Y8847995D01*
X167652Y8867656D01*
X203988Y8882703D01*
X241978Y8892877D01*
X280971Y8898003D01*
X300635Y8897999D01*
X300635Y8898000D01*
X10200635Y8897999D01*
X10220302Y8898014D01*
X10259303Y8892906D01*
D02*
G37*
%LPC*%
G36*
X429454Y8770535D02*
X400491D01*
X399118Y8769966D01*
X397645Y8770161D01*
X369668Y8762664D01*
X368489Y8761759D01*
X367016Y8761566D01*
X341933Y8747084D01*
X341028Y8745905D01*
X339655Y8745336D01*
X319175Y8724856D01*
X318606Y8723483D01*
X317427Y8722578D01*
X302945Y8697495D01*
X302751Y8696022D01*
X301847Y8694843D01*
X294350Y8666866D01*
X294544Y8665393D01*
X293976Y8664020D01*
Y8635057D01*
X294544Y8633684D01*
X294350Y8632210D01*
X301847Y8604234D01*
X302751Y8603055D01*
X302945Y8601582D01*
X317427Y8576498D01*
X318606Y8575593D01*
X319175Y8574221D01*
X339655Y8553740D01*
X341028Y8553172D01*
X341933Y8551993D01*
X367016Y8537511D01*
X368489Y8537317D01*
X369668Y8536412D01*
X397645Y8528916D01*
X399118Y8529110D01*
X400491Y8528541D01*
X429454D01*
X430827Y8529110D01*
X432301Y8528916D01*
X460277Y8536412D01*
X461456Y8537317D01*
X462929Y8537511D01*
X488013Y8551993D01*
X488917Y8553172D01*
X490290Y8553740D01*
X510771Y8574221D01*
X511339Y8575594D01*
X512518Y8576498D01*
X527000Y8601581D01*
X527194Y8603055D01*
X528099Y8604234D01*
X535595Y8632210D01*
X535401Y8633684D01*
X535969Y8635057D01*
Y8664020D01*
X535401Y8665393D01*
X535595Y8666866D01*
X528099Y8694843D01*
X527194Y8696022D01*
X527000Y8697495D01*
X512518Y8722578D01*
X511339Y8723483D01*
X510771Y8724856D01*
X490290Y8745336D01*
X488917Y8745905D01*
X488013Y8747084D01*
X462929Y8761566D01*
X461456Y8761760D01*
X460277Y8762664D01*
X432301Y8770161D01*
X430827Y8769966D01*
X429454Y8770535D01*
D02*
G37*
G36*
X6940297Y8736801D02*
X6920632Y8736797D01*
X1820635Y8736797D01*
X1820632Y8736796D01*
X1820631Y8736797D01*
X1800970Y8736790D01*
X1800268Y8736499D01*
X1799535Y8736695D01*
X1760551Y8731551D01*
X1759894Y8731171D01*
X1759141Y8731270D01*
X1721161Y8721083D01*
X1720559Y8720621D01*
X1719800Y8720621D01*
X1683473Y8705566D01*
X1682937Y8705030D01*
X1682184Y8704930D01*
X1648132Y8685265D01*
X1647670Y8684663D01*
X1646937Y8684466D01*
X1615742Y8660526D01*
X1615363Y8659869D01*
X1614661Y8659579D01*
X1586856Y8631773D01*
X1586566Y8631072D01*
X1585908Y8630692D01*
X1561969Y8599498D01*
X1561772Y8598764D01*
X1561170Y8598302D01*
X1541504Y8564251D01*
X1541405Y8563498D01*
X1540868Y8562961D01*
X1525814Y8526635D01*
X1525814Y8525876D01*
X1525351Y8525274D01*
X1515165Y8487294D01*
X1515263Y8486541D01*
X1514884Y8485884D01*
X1509739Y8446900D01*
X1509936Y8446166D01*
X1509645Y8445465D01*
X1509638Y8425804D01*
X1509639Y8425802D01*
X1509638Y8425800D01*
X1509638Y7324700D01*
X1509639Y7324698D01*
X1509638Y7324696D01*
X1509645Y7305035D01*
X1509936Y7304333D01*
X1509740Y7303600D01*
X1514884Y7264616D01*
X1515264Y7263959D01*
X1515165Y7263206D01*
X1525352Y7225226D01*
X1525814Y7224624D01*
X1525814Y7223865D01*
X1540869Y7187539D01*
X1541406Y7187002D01*
X1541505Y7186249D01*
X1561170Y7152198D01*
X1561772Y7151736D01*
X1561969Y7151002D01*
X1585908Y7119807D01*
X1586566Y7119428D01*
X1586856Y7118726D01*
X1614661Y7090921D01*
X1615363Y7090631D01*
X1615742Y7089973D01*
X1646937Y7066034D01*
X1647670Y7065837D01*
X1648133Y7065235D01*
X1682184Y7045570D01*
X1682937Y7045471D01*
X1683474Y7044934D01*
X1719800Y7029879D01*
X1720559Y7029879D01*
X1721161Y7029416D01*
X1759141Y7019230D01*
X1759893Y7019329D01*
X1760551Y7018949D01*
X1799535Y7013805D01*
X1800268Y7014001D01*
X1800970Y7013710D01*
X1820631Y7013703D01*
X1820633Y7013704D01*
X1820635Y7013703D01*
X6920633Y7013703D01*
X6940297Y7013699D01*
X6940999Y7013989D01*
X6941733Y7013792D01*
X6980725Y7018919D01*
X6981384Y7019299D01*
X6982136Y7019200D01*
X7020126Y7029374D01*
X7020729Y7029836D01*
X7021489D01*
X7057825Y7044882D01*
X7058362Y7045419D01*
X7059115Y7045519D01*
X7093176Y7065180D01*
X7093638Y7065783D01*
X7094372Y7065980D01*
X7125575Y7089920D01*
X7125955Y7090578D01*
X7126656Y7090869D01*
X7154465Y7118678D01*
X7154756Y7119380D01*
X7155414Y7119760D01*
X7179355Y7150962D01*
X7179551Y7151696D01*
X7180154Y7152158D01*
X7199816Y7186219D01*
X7199915Y7186972D01*
X7200452Y7187510D01*
X7215499Y7223846D01*
Y7224606D01*
X7215961Y7225209D01*
X7226135Y7263198D01*
X7226035Y7263951D01*
X7226415Y7264609D01*
X7231542Y7303602D01*
X7231345Y7304336D01*
X7231636Y7305038D01*
X7231632Y7324702D01*
X7231632Y8425800D01*
X7231632Y8425801D01*
X7231636Y8445462D01*
X7231345Y8446163D01*
X7231542Y8446898D01*
X7226416Y8485890D01*
X7226036Y8486549D01*
X7226135Y8487302D01*
X7215961Y8525291D01*
X7215499Y8525894D01*
Y8526654D01*
X7200452Y8562990D01*
X7199915Y8563527D01*
X7199816Y8564281D01*
X7180154Y8598341D01*
X7179552Y8598804D01*
X7179355Y8599538D01*
X7155414Y8630740D01*
X7154757Y8631120D01*
X7154466Y8631822D01*
X7126657Y8659631D01*
X7125955Y8659922D01*
X7125575Y8660580D01*
X7094373Y8684520D01*
X7093639Y8684717D01*
X7093176Y8685319D01*
X7059115Y8704981D01*
X7058362Y8705080D01*
X7057825Y8705618D01*
X7021489Y8720664D01*
X7020729D01*
X7020126Y8721127D01*
X6982136Y8731300D01*
X6981383Y8731201D01*
X6980725Y8731581D01*
X6941732Y8736707D01*
X6940998Y8736511D01*
X6940297Y8736801D01*
D02*
G37*
G36*
X8224479Y8683940D02*
X8212481D01*
X8201396Y8679348D01*
X8197399Y8675351D01*
X8186473Y8671069D01*
Y8671069D01*
X8162920Y8667968D01*
X8140972Y8658877D01*
X8134340Y8653788D01*
X8123044Y8657988D01*
X8121155Y8659679D01*
X8117049Y8669594D01*
X8108564Y8678078D01*
X8097479Y8682670D01*
X8085481D01*
X8074396Y8678078D01*
X8065912Y8669594D01*
X8061320Y8658509D01*
Y8646511D01*
X8065912Y8635426D01*
X8073687Y8627650D01*
X8073104Y8612355D01*
X8072936Y8612200D01*
X8072618Y8610599D01*
X8073066D01*
X8073067Y8599676D01*
Y8582798D01*
X8060367Y8578487D01*
X8046013Y8597193D01*
X8045443Y8596623D01*
X7994536Y8647530D01*
X7994640Y8647781D01*
Y8659779D01*
X7990049Y8670864D01*
X7981564Y8679348D01*
X7970479Y8683940D01*
X7958481D01*
X7947396Y8679348D01*
X7938912Y8670864D01*
X7934320Y8659779D01*
Y8647781D01*
X7935777Y8644264D01*
X7931008Y8636989D01*
X7920536Y8631608D01*
X7893246Y8635201D01*
X7867816Y8645735D01*
X7860980Y8650980D01*
Y8659779D01*
X7856388Y8670864D01*
X7847904Y8679348D01*
X7836819Y8683940D01*
X7824821D01*
X7813736Y8679348D01*
X7805252Y8670864D01*
X7800660Y8659779D01*
Y8647781D01*
X7805252Y8636696D01*
X7813736Y8628212D01*
X7824821Y8623620D01*
X7836819D01*
X7839085Y8624559D01*
X7850523Y8615782D01*
X7884295Y8601794D01*
X7920536Y8597022D01*
Y8597897D01*
X7945870D01*
Y8597800D01*
X7962795Y8594433D01*
X7977144Y8584846D01*
X7977213Y8584914D01*
X8004745Y8557382D01*
X8004540Y8557177D01*
X8016758Y8541255D01*
X8024438Y8522714D01*
X8027058Y8502816D01*
X8027347D01*
Y8333463D01*
X8026436D01*
X8031360Y8283476D01*
X8045940Y8235409D01*
X8069618Y8191111D01*
X8101483Y8152283D01*
X8102127Y8152927D01*
X8171977Y8083077D01*
X8172024Y8083046D01*
X8172053Y8083010D01*
X8172072Y8082983D01*
X8172081Y8082976D01*
X8196859Y8052783D01*
X8215340Y8018209D01*
X8226720Y7980693D01*
X8230558Y7941732D01*
X8230547Y7941678D01*
Y7698615D01*
X8223322D01*
X8212237Y7694023D01*
X8203753Y7685539D01*
X8199161Y7674454D01*
Y7662455D01*
X8203753Y7651370D01*
X8212237Y7642886D01*
X8223322Y7638295D01*
X8230547D01*
Y7094290D01*
X8229861D01*
X8233887Y7053422D01*
X8241000Y7029973D01*
X8229770Y7023242D01*
X8206896Y7046116D01*
X8199120Y7049337D01*
X7985062D01*
Y7282889D01*
X7985440Y7283801D01*
Y7295799D01*
X7985062Y7296711D01*
Y7341309D01*
X7985440Y7342221D01*
Y7354219D01*
X7985062Y7355131D01*
Y7399729D01*
X7985440Y7400641D01*
Y7412639D01*
X7980848Y7423724D01*
X7972364Y7432208D01*
X7961279Y7436800D01*
X7949281D01*
X7938196Y7432208D01*
X7929712Y7423724D01*
X7925120Y7412639D01*
Y7400641D01*
X7925498Y7399729D01*
Y7355131D01*
X7925120Y7354219D01*
Y7342221D01*
X7925498Y7341309D01*
Y7296711D01*
X7925120Y7295799D01*
Y7283801D01*
X7925498Y7282889D01*
Y7049337D01*
X7388097Y7049337D01*
X7386076Y7048500D01*
X7383888D01*
X7382342Y7046953D01*
X7380321Y7046116D01*
X7379483Y7044095D01*
X7377937Y7042548D01*
X7376275Y7038536D01*
X7370884Y7033145D01*
X7363841Y7030228D01*
X7356217D01*
X7349175Y7033145D01*
X7343784Y7038536D01*
X7342122Y7042548D01*
X7340575Y7044095D01*
X7339738Y7046116D01*
X7337717Y7046953D01*
X7336170Y7048500D01*
X7333983D01*
X7331962Y7049337D01*
X7117080D01*
X7109304Y7046116D01*
X6967064Y6903876D01*
X6963843Y6896100D01*
Y6774450D01*
X6964337Y6773257D01*
X6964123Y6771984D01*
X6965895Y6769496D01*
X6967064Y6766674D01*
X6971841Y6754446D01*
X6967540Y6744063D01*
Y6732064D01*
X6972132Y6720979D01*
X6973101Y6720010D01*
X6979969Y6711714D01*
X6973101Y6703417D01*
X6972132Y6702448D01*
X6967540Y6691363D01*
Y6679364D01*
X6971841Y6668981D01*
X6967065Y6656756D01*
X6965895Y6653931D01*
X6964123Y6651443D01*
X6964337Y6650170D01*
X6963843Y6648977D01*
Y6586112D01*
X6964680Y6584091D01*
Y6581903D01*
X6966227Y6580356D01*
X6967064Y6578335D01*
X6969085Y6577498D01*
X6970631Y6575952D01*
X6983331Y6570691D01*
X6985519D01*
X6987540Y6569854D01*
X6989561Y6570691D01*
X6991748D01*
X6993281Y6572223D01*
X7002344Y6575977D01*
X7009968D01*
X7017011Y6573060D01*
X7022402Y6567669D01*
X7026156Y6558605D01*
X7028008Y6550928D01*
X7024715Y6542956D01*
X7023420Y6539829D01*
Y6527831D01*
X7028012Y6516746D01*
X7028981Y6515777D01*
X7035849Y6507480D01*
X7028981Y6499183D01*
X7028012Y6498214D01*
X7023420Y6487129D01*
Y6475131D01*
X7028012Y6464046D01*
X7030052Y6462005D01*
X7029503Y6450273D01*
X7028253Y6447907D01*
X7026360Y6446014D01*
X7024958Y6442631D01*
X7019567Y6437240D01*
X7012524Y6434323D01*
X7004901D01*
X6997858Y6437240D01*
X6995316Y6439782D01*
X6993296Y6440619D01*
X6991749Y6442166D01*
X6989561D01*
X6987540Y6443003D01*
X6985519Y6442165D01*
X6983331D01*
X6970631Y6436905D01*
X6969085Y6435358D01*
X6967064Y6434521D01*
X6966227Y6432500D01*
X6964680Y6430953D01*
Y6428766D01*
X6963843Y6426745D01*
Y5987270D01*
X6960071Y5984281D01*
X6951143Y5980439D01*
X6942739Y5983920D01*
X6930741D01*
X6919656Y5979328D01*
X6911172Y5970844D01*
X6906580Y5959759D01*
Y5947761D01*
X6911172Y5936676D01*
X6911850Y5935997D01*
X6906590Y5923297D01*
X1820635Y5923297D01*
X1820632Y5923296D01*
X1820631Y5923297D01*
X1800970Y5923290D01*
X1800268Y5922999D01*
X1799535Y5923195D01*
X1760551Y5918051D01*
X1759894Y5917671D01*
X1759141Y5917770D01*
X1721161Y5907583D01*
X1720559Y5907121D01*
X1719800Y5907121D01*
X1683473Y5892066D01*
X1682937Y5891529D01*
X1682184Y5891430D01*
X1648132Y5871765D01*
X1647670Y5871163D01*
X1646937Y5870966D01*
X1615742Y5847026D01*
X1615363Y5846369D01*
X1614661Y5846078D01*
X1586856Y5818273D01*
X1586566Y5817572D01*
X1585908Y5817192D01*
X1561969Y5785998D01*
X1561772Y5785264D01*
X1561170Y5784802D01*
X1541504Y5750751D01*
X1541405Y5749998D01*
X1540868Y5749461D01*
X1525814Y5713135D01*
X1525814Y5712376D01*
X1525351Y5711773D01*
X1515165Y5673794D01*
X1515263Y5673041D01*
X1514884Y5672384D01*
X1509739Y5633399D01*
X1509936Y5632666D01*
X1509645Y5631965D01*
X1509638Y5612304D01*
X1509639Y5612302D01*
X1509638Y5612300D01*
X1509638Y4511200D01*
X1509639Y4511198D01*
X1509638Y4511196D01*
X1509645Y4491535D01*
X1509936Y4490833D01*
X1509740Y4490100D01*
X1514884Y4451116D01*
X1515264Y4450458D01*
X1515165Y4449706D01*
X1525352Y4411726D01*
X1525814Y4411124D01*
X1525814Y4410365D01*
X1540869Y4374038D01*
X1541406Y4373502D01*
X1541505Y4372749D01*
X1561170Y4338698D01*
X1561772Y4338235D01*
X1561969Y4337502D01*
X1585908Y4306307D01*
X1586566Y4305928D01*
X1586856Y4305226D01*
X1614661Y4277421D01*
X1615363Y4277131D01*
X1615742Y4276473D01*
X1646937Y4252534D01*
X1647670Y4252337D01*
X1648133Y4251735D01*
X1682184Y4232070D01*
X1682937Y4231970D01*
X1683474Y4231433D01*
X1719800Y4216379D01*
X1720559Y4216379D01*
X1721161Y4215916D01*
X1759141Y4205730D01*
X1759893Y4205829D01*
X1760551Y4205449D01*
X1799535Y4200305D01*
X1800268Y4200501D01*
X1800970Y4200210D01*
X1820631Y4200203D01*
X1820633Y4200204D01*
X1820635Y4200203D01*
X6920633Y4200203D01*
X6940297Y4200199D01*
X6940999Y4200489D01*
X6941733Y4200292D01*
X6980725Y4205419D01*
X6981384Y4205799D01*
X6982136Y4205700D01*
X7020126Y4215873D01*
X7020729Y4216336D01*
X7021489D01*
X7057825Y4231382D01*
X7058362Y4231919D01*
X7059115Y4232018D01*
X7093176Y4251680D01*
X7093638Y4252283D01*
X7094372Y4252480D01*
X7125575Y4276420D01*
X7125955Y4277078D01*
X7126656Y4277369D01*
X7154465Y4305178D01*
X7154756Y4305880D01*
X7155414Y4306260D01*
X7179355Y4337462D01*
X7179551Y4338196D01*
X7180154Y4338658D01*
X7199816Y4372719D01*
X7202603Y4374114D01*
X7215303Y4366268D01*
Y4015740D01*
X7218524Y4007964D01*
X7454744Y3771744D01*
X7462520Y3768523D01*
X7976036D01*
X7977920Y3755823D01*
X7957568Y3749649D01*
X7919014Y3729042D01*
X7885221Y3701309D01*
X7885047Y3701096D01*
X7857488Y3667516D01*
X7836881Y3628963D01*
X7824191Y3587129D01*
X7819906Y3543624D01*
X7820657D01*
Y3393440D01*
X7820384D01*
X7817700Y3373058D01*
X7809833Y3354065D01*
X7797318Y3337755D01*
Y3337756D01*
Y3337369D01*
X7787504Y3327555D01*
X7777671Y3320633D01*
X7766704Y3313306D01*
X7763704Y3312709D01*
X7759004Y3317408D01*
X7747919Y3322000D01*
X7735921D01*
X7724836Y3317408D01*
X7716352Y3308924D01*
X7711760Y3297839D01*
Y3285841D01*
X7716352Y3274756D01*
X7724836Y3266272D01*
X7735921Y3261680D01*
X7747919D01*
X7759004Y3266272D01*
X7767488Y3274756D01*
X7769042Y3278505D01*
X7787960Y3286342D01*
X7790336Y3286248D01*
X7797988Y3283564D01*
X7802836Y3280588D01*
X7805252Y3274756D01*
X7813736Y3266272D01*
X7824821Y3261680D01*
X7836819D01*
X7847904Y3266272D01*
X7855694Y3274061D01*
X7860107Y3273974D01*
X7869034Y3272097D01*
X7869924Y3267622D01*
X7875913Y3258657D01*
X7882204Y3249244D01*
X7900582Y3236964D01*
X7922260Y3232652D01*
Y3233417D01*
X7944645D01*
Y3233131D01*
X7963063Y3235556D01*
X7980226Y3242665D01*
X7994963Y3253974D01*
X8005524Y3259140D01*
X8012079D01*
X8023164Y3263732D01*
X8031648Y3272216D01*
X8036240Y3283301D01*
Y3295299D01*
X8031648Y3306384D01*
X8023164Y3314868D01*
X8012079Y3319460D01*
X8000081D01*
X7988996Y3314868D01*
X7980512Y3306384D01*
X7975920Y3295299D01*
Y3288723D01*
X7971041Y3278669D01*
X7965588Y3276120D01*
X7963436Y3276775D01*
X7952420Y3283301D01*
Y3295299D01*
X7947828Y3306384D01*
X7939344Y3314868D01*
X7928259Y3319460D01*
X7924891D01*
X7923115Y3328386D01*
X7922903D01*
Y3543624D01*
X7922855Y3543868D01*
X7926914Y3574704D01*
X7938911Y3603666D01*
X7957808Y3628293D01*
X7957981Y3628409D01*
X7957988Y3628419D01*
X7958010Y3628451D01*
X7958051Y3628479D01*
X7958190Y3628686D01*
X7982864Y3647619D01*
X8011826Y3659616D01*
X8042661Y3663675D01*
X8042906Y3663627D01*
X8686778D01*
Y3662915D01*
X8728713Y3667045D01*
X8769037Y3679277D01*
X8806199Y3699141D01*
X8829259Y3718066D01*
X8838773Y3725873D01*
X8838928Y3726062D01*
X8847224Y3735332D01*
X8858797Y3746905D01*
X8858835Y3746961D01*
X8858884Y3746994D01*
X8858891Y3746999D01*
X8859150Y3747386D01*
X8893163Y3775299D01*
X8932490Y3796320D01*
X8975162Y3809264D01*
X9019040Y3813586D01*
X9019540Y3813487D01*
X9170236D01*
Y3812785D01*
X9211765Y3816875D01*
X9251698Y3828989D01*
X9288501Y3848660D01*
X9311063Y3867177D01*
X9320759Y3875133D01*
X9320263Y3875630D01*
X9377168Y3932536D01*
X9377774Y3932535D01*
X9377812Y3932566D01*
X9377920Y3932698D01*
X9397354Y3956379D01*
X9411875Y3983546D01*
X9420817Y4013024D01*
X9423837Y4043680D01*
X9423403D01*
Y4112375D01*
X9423924D01*
X9420563Y4137903D01*
X9419565Y4140311D01*
X9416184Y4151619D01*
X9415332Y4153677D01*
X9414833Y4165400D01*
Y4908482D01*
X9415555D01*
X9411385Y4950819D01*
X9399036Y4991529D01*
X9378982Y5029048D01*
X9359955Y5052232D01*
X9351993Y5061933D01*
X9348230Y5065786D01*
X9348228Y5065788D01*
X9348003Y5065973D01*
X9348002Y5065974D01*
X9338877Y5073462D01*
X9313362Y5094402D01*
X9273583Y5115664D01*
X9230421Y5128757D01*
X9185551Y5133176D01*
X9185550Y5133177D01*
X9173152Y5132413D01*
X9160697Y5133691D01*
X9160372Y5133826D01*
X9157167Y5133091D01*
X9144467Y5132642D01*
X8608406D01*
Y5133584D01*
X8570124Y5128544D01*
X8534451Y5113768D01*
X8503860Y5090295D01*
X8504517Y5089637D01*
X8504516Y5089629D01*
X8413044Y4998156D01*
X8412865Y4997889D01*
X8387680Y4978564D01*
X8358058Y4966294D01*
X8326585Y4962151D01*
X8326270Y4962213D01*
X8172087D01*
Y4962999D01*
X8149995Y4958605D01*
X8131267Y4946091D01*
X8120950Y4940339D01*
X8115365Y4939228D01*
Y4938718D01*
X7706449D01*
X7706345Y4938969D01*
X7697861Y4947453D01*
X7686776Y4952045D01*
X7674777D01*
X7666557Y4948640D01*
X7657386Y4952663D01*
X7653857Y4955579D01*
Y4991625D01*
X7743935Y5081703D01*
X7878196D01*
X7879963Y5082435D01*
X7882788Y5075616D01*
X7891272Y5067132D01*
X7902357Y5062540D01*
X7914356D01*
X7925441Y5067132D01*
X7926410Y5068101D01*
X7934706Y5074969D01*
X7943003Y5068101D01*
X7943972Y5067132D01*
X7955057Y5062540D01*
X7967055D01*
X7978141Y5067132D01*
X7986625Y5075616D01*
X7989449Y5082435D01*
X7991216Y5081703D01*
X8234680D01*
X8242456Y5084924D01*
X8305956Y5148424D01*
X8309177Y5156200D01*
Y5366183D01*
X8389620D01*
X8397396Y5369404D01*
X8432956Y5404964D01*
X8436177Y5412740D01*
X8436177Y5532120D01*
X8432956Y5539896D01*
X8346596Y5626256D01*
X8338820Y5629477D01*
X7500620D01*
X7492844Y5626256D01*
X7243365Y5376778D01*
X7231632Y5381638D01*
Y5612300D01*
X7231632Y5612300D01*
X7231636Y5631962D01*
X7231345Y5632663D01*
X7231542Y5633397D01*
X7226416Y5672390D01*
X7226036Y5673049D01*
X7226135Y5673801D01*
X7215961Y5711791D01*
X7215499Y5712394D01*
Y5713154D01*
X7205451Y5737420D01*
X7205460Y5737553D01*
X7216647Y5745781D01*
X7218754Y5745933D01*
X7224456Y5740232D01*
X7235541Y5735640D01*
X7247539D01*
X7258624Y5740232D01*
X7260585Y5742193D01*
X7262387Y5742066D01*
X7272791Y5740244D01*
X7276020Y5738906D01*
X7279030Y5737131D01*
X7279816Y5737334D01*
X7280567Y5737023D01*
X7388034D01*
X7389671Y5737701D01*
X7391438Y5737563D01*
X7393411Y5739250D01*
X7395810Y5740244D01*
X7396488Y5741881D01*
X7397835Y5743033D01*
X7404297Y5755733D01*
X7404332Y5756188D01*
X7404656Y5756512D01*
Y5760326D01*
X7404952Y5764125D01*
X7404655Y5764472D01*
Y5764929D01*
X7402717Y5769608D01*
Y5777232D01*
X7405634Y5784275D01*
X7411025Y5789666D01*
X7418068Y5792583D01*
X7425692D01*
X7432735Y5789666D01*
X7438126Y5784275D01*
X7441043Y5777232D01*
Y5769608D01*
X7439105Y5764929D01*
Y5764472D01*
X7438808Y5764125D01*
X7439105Y5760323D01*
Y5756512D01*
X7439427Y5756189D01*
X7439463Y5755733D01*
X7445925Y5743033D01*
X7447272Y5741882D01*
X7447950Y5740244D01*
X7450349Y5739250D01*
X7452322Y5737563D01*
X7454089Y5737701D01*
X7455726Y5737023D01*
X7494714D01*
X7496351Y5737701D01*
X7498118Y5737563D01*
X7500091Y5739250D01*
X7502490Y5740244D01*
X7503168Y5741881D01*
X7504515Y5743033D01*
X7510977Y5755733D01*
X7511012Y5756188D01*
X7511336Y5756512D01*
Y5760326D01*
X7511632Y5764125D01*
X7511335Y5764472D01*
Y5764929D01*
X7509397Y5769608D01*
Y5777232D01*
X7512314Y5784275D01*
X7517705Y5789666D01*
X7524748Y5792583D01*
X7532372D01*
X7539415Y5789666D01*
X7544806Y5784275D01*
X7547723Y5777232D01*
Y5769608D01*
X7545785Y5764929D01*
Y5764472D01*
X7545488Y5764125D01*
X7545785Y5760323D01*
Y5756512D01*
X7546107Y5756189D01*
X7546143Y5755733D01*
X7552605Y5743033D01*
X7553952Y5741882D01*
X7554630Y5740244D01*
X7557029Y5739250D01*
X7559002Y5737563D01*
X7560769Y5737701D01*
X7562406Y5737023D01*
X7601394D01*
X7603031Y5737701D01*
X7604798Y5737563D01*
X7606771Y5739250D01*
X7609170Y5740244D01*
X7609848Y5741881D01*
X7611195Y5743033D01*
X7617657Y5755733D01*
X7617692Y5756188D01*
X7618016Y5756512D01*
Y5760326D01*
X7618312Y5764125D01*
X7618015Y5764472D01*
Y5764929D01*
X7616077Y5769608D01*
Y5777232D01*
X7618994Y5784275D01*
X7624385Y5789666D01*
X7631428Y5792583D01*
X7639052D01*
X7646095Y5789666D01*
X7651486Y5784275D01*
X7654403Y5777232D01*
Y5769608D01*
X7652465Y5764929D01*
Y5764472D01*
X7652168Y5764125D01*
X7652465Y5760323D01*
Y5756512D01*
X7652787Y5756189D01*
X7652823Y5755733D01*
X7659285Y5743033D01*
X7660632Y5741882D01*
X7661310Y5740244D01*
X7663709Y5739250D01*
X7665682Y5737563D01*
X7667449Y5737701D01*
X7669086Y5737023D01*
X7708074D01*
X7709711Y5737701D01*
X7711478Y5737563D01*
X7713451Y5739250D01*
X7715850Y5740244D01*
X7716528Y5741881D01*
X7717875Y5743033D01*
X7724337Y5755733D01*
X7724372Y5756188D01*
X7724696Y5756512D01*
Y5760326D01*
X7724992Y5764125D01*
X7724695Y5764472D01*
Y5764929D01*
X7722757Y5769608D01*
Y5777232D01*
X7725674Y5784275D01*
X7731065Y5789666D01*
X7738108Y5792583D01*
X7745732D01*
X7752775Y5789666D01*
X7758166Y5784275D01*
X7761083Y5777232D01*
Y5769608D01*
X7759145Y5764929D01*
Y5764472D01*
X7758848Y5764125D01*
X7759145Y5760323D01*
Y5756512D01*
X7759467Y5756189D01*
X7759503Y5755733D01*
X7765965Y5743033D01*
X7767312Y5741882D01*
X7767990Y5740244D01*
X7770389Y5739250D01*
X7772362Y5737563D01*
X7774129Y5737701D01*
X7775766Y5737023D01*
X8001874D01*
X8003895Y5737860D01*
X8006082D01*
X8007629Y5739407D01*
X8009650Y5740244D01*
X8022221Y5744267D01*
X8026244Y5740244D01*
X8034020Y5737023D01*
X8076425D01*
X8077466Y5737454D01*
X8078571Y5737234D01*
X8081238Y5739016D01*
X8084202Y5740244D01*
X8084633Y5741285D01*
X8085569Y5741910D01*
X8091744Y5751151D01*
X8092370Y5754297D01*
X8093597Y5757261D01*
Y5767072D01*
X8096514Y5774115D01*
X8101905Y5779506D01*
X8108948Y5782423D01*
X8116572D01*
X8123615Y5779506D01*
X8129006Y5774115D01*
X8131923Y5767072D01*
X8131923Y5757261D01*
X8130285Y5748188D01*
X8121802Y5739704D01*
X8117210Y5728619D01*
Y5716621D01*
X8121802Y5705536D01*
X8130286Y5697052D01*
X8141371Y5692460D01*
X8153369D01*
X8164454Y5697052D01*
X8165423Y5698021D01*
X8173720Y5704889D01*
X8182017Y5698021D01*
X8182986Y5697052D01*
X8194071Y5692460D01*
X8206069D01*
X8217154Y5697052D01*
X8225638Y5705536D01*
X8230230Y5716621D01*
Y5728619D01*
X8225638Y5739704D01*
X8217155Y5748188D01*
X8216037Y5755903D01*
X8216038Y5765714D01*
X8218955Y5772757D01*
X8224346Y5778148D01*
X8231389Y5781065D01*
X8239012D01*
X8246055Y5778148D01*
X8251446Y5772757D01*
X8254363Y5765714D01*
Y5755903D01*
X8255591Y5752940D01*
X8256216Y5749794D01*
X8261484Y5741910D01*
X8262421Y5741285D01*
X8262852Y5740244D01*
X8265815Y5739016D01*
X8268482Y5737234D01*
X8269587Y5737454D01*
X8270628Y5737023D01*
X8305800D01*
X8313576Y5740244D01*
X8338976Y5765644D01*
X8342197Y5773420D01*
Y5986780D01*
Y6032500D01*
X8338976Y6040276D01*
X8318656Y6060596D01*
X8310880Y6063817D01*
X8276093D01*
X8272912Y6076517D01*
X8290175Y6085744D01*
X8308686Y6100936D01*
X8318341Y6108860D01*
X8317937Y6109264D01*
X8373362Y6164689D01*
X8374257Y6164689D01*
X8374265Y6164695D01*
X8374388Y6164845D01*
X8398986Y6194818D01*
X8417356Y6229186D01*
X8428668Y6266476D01*
X8432487Y6305257D01*
X8431853D01*
Y6855460D01*
X8432646D01*
X8428194Y6900657D01*
X8417439Y6936113D01*
X8415011Y6944118D01*
X8414813Y6944488D01*
X8409432Y6955794D01*
D01*
X8393894Y6984863D01*
X8378977Y7003039D01*
X8371196Y7012520D01*
X8363129Y7021877D01*
X8363110Y7021901D01*
X8350036Y7038939D01*
X8337056Y7070276D01*
X8332694Y7103406D01*
X8332793Y7103905D01*
Y7500085D01*
X8345494Y7508571D01*
X8345521Y7508560D01*
X8357519D01*
X8368604Y7513152D01*
X8377088Y7521636D01*
X8381680Y7532721D01*
Y7544719D01*
X8377088Y7555804D01*
X8368604Y7564288D01*
X8357519Y7568880D01*
X8345521D01*
X8345494Y7568869D01*
X8332793Y7577355D01*
Y8061238D01*
X8333389D01*
X8329721Y8098475D01*
X8318860Y8134281D01*
X8301221Y8167280D01*
X8277484Y8196204D01*
X8277063Y8195783D01*
X8199058Y8273788D01*
X8198499Y8274162D01*
X8169400Y8309619D01*
X8147465Y8350655D01*
X8133958Y8395183D01*
X8129462Y8440830D01*
X8129593Y8441490D01*
Y8580067D01*
X8129519Y8580442D01*
X8133785Y8601891D01*
X8145921Y8620054D01*
X8146218Y8620253D01*
X8146232Y8620273D01*
X8146253Y8620287D01*
X8146267Y8620308D01*
X8146287Y8620322D01*
X8146486Y8620619D01*
X8164649Y8632755D01*
X8186098Y8637021D01*
X8186473Y8636947D01*
X8192808D01*
X8192912Y8636696D01*
X8201396Y8628212D01*
X8212481Y8623620D01*
X8224479D01*
X8235564Y8628212D01*
X8244049Y8636696D01*
X8248640Y8647781D01*
Y8659779D01*
X8244049Y8670864D01*
X8235564Y8679348D01*
X8224479Y8683940D01*
D02*
G37*
G36*
X9610699D02*
X9598701D01*
X9587616Y8679348D01*
X9579131Y8670864D01*
X9574540Y8659779D01*
Y8649257D01*
X9570451Y8645169D01*
X9570436Y8645146D01*
X9570412Y8645130D01*
X9570231Y8644858D01*
X9552649Y8633110D01*
X9531881Y8628979D01*
X9531533Y8629048D01*
X9514754D01*
X9506413Y8641749D01*
X9507860Y8645241D01*
Y8657239D01*
X9503268Y8668324D01*
X9494784Y8676808D01*
X9483699Y8681400D01*
X9471701D01*
X9460616Y8676808D01*
X9456847Y8673040D01*
X9445470Y8669845D01*
Y8669845D01*
X9420516Y8666560D01*
X9397262Y8656928D01*
X9393560Y8654087D01*
X9388566Y8655326D01*
X9379882Y8659599D01*
X9376268Y8668324D01*
X9367784Y8676808D01*
X9356699Y8681400D01*
X9344701D01*
X9333616Y8676808D01*
X9325131Y8668324D01*
X9320540Y8657239D01*
Y8646717D01*
X9302929Y8629106D01*
X9302339Y8629697D01*
X9280361Y8601054D01*
X9271348Y8579296D01*
X9258648Y8581823D01*
Y8610633D01*
X9258949D01*
X9256364Y8630266D01*
X9252010Y8640776D01*
X9253860Y8645241D01*
Y8657239D01*
X9249268Y8668324D01*
X9240784Y8676808D01*
X9229699Y8681400D01*
X9217701D01*
X9206616Y8676808D01*
X9198131Y8668324D01*
X9193540Y8657239D01*
Y8645241D01*
X9198131Y8634156D01*
X9206616Y8625672D01*
X9217701Y8621080D01*
X9220144D01*
X9222222Y8610633D01*
X9222392D01*
Y7857895D01*
X9221945D01*
X9225116Y7825700D01*
X9234507Y7794741D01*
X9249758Y7766210D01*
X9270281Y7741201D01*
X9270597Y7741517D01*
X9347840Y7664274D01*
Y7653752D01*
X9352432Y7642667D01*
X9360916Y7634183D01*
X9372001Y7629592D01*
X9373329D01*
X9374495Y7623732D01*
X9374792D01*
Y7227766D01*
X9374236D01*
X9377844Y7191130D01*
X9388530Y7155902D01*
X9405884Y7123436D01*
X9429238Y7094978D01*
X9429278Y7094946D01*
X9457695Y7071624D01*
X9475632Y7062037D01*
X9472450Y7049337D01*
X9141475D01*
X9139454Y7048500D01*
X9137266D01*
X9135720Y7046953D01*
X9133699Y7046116D01*
X9132862Y7044095D01*
X9131315Y7042548D01*
X9130204Y7039865D01*
X9124813Y7034474D01*
X9117770Y7031557D01*
X9110147D01*
X9103104Y7034474D01*
X9097713Y7039865D01*
X9096601Y7042549D01*
X9095055Y7044095D01*
X9094218Y7046116D01*
X9092196Y7046953D01*
X9090650Y7048500D01*
X9079802Y7057613D01*
Y7201264D01*
X9144932Y7266394D01*
X9145844Y7266772D01*
X9154328Y7275256D01*
X9158920Y7286341D01*
Y7298339D01*
X9158542Y7299251D01*
Y7343849D01*
X9158920Y7344761D01*
Y7356759D01*
X9158542Y7357671D01*
Y7402269D01*
X9158920Y7403181D01*
Y7415179D01*
X9154328Y7426264D01*
X9145844Y7434748D01*
X9134759Y7439340D01*
X9122761D01*
X9111676Y7434748D01*
X9103192Y7426264D01*
X9098600Y7415179D01*
Y7403181D01*
X9098978Y7402269D01*
Y7357671D01*
X9098600Y7356759D01*
Y7344761D01*
X9098978Y7343849D01*
Y7304676D01*
X9028961Y7234659D01*
X9022505Y7224997D01*
X9020238Y7213600D01*
Y7049337D01*
X8869680D01*
X8861904Y7046116D01*
X8719664Y6903876D01*
X8716443Y6896100D01*
Y5872480D01*
X8719664Y5864704D01*
X8844124Y5740244D01*
X8851900Y5737023D01*
X9226737D01*
X9231997Y5724323D01*
X9230971Y5723296D01*
X9226379Y5712211D01*
Y5700213D01*
X9230971Y5689128D01*
X9239455Y5680644D01*
X9250540Y5676052D01*
X9262538D01*
X9273624Y5680644D01*
X9282108Y5689128D01*
X9286699Y5700213D01*
Y5712211D01*
X9282108Y5723296D01*
X9281081Y5724323D01*
X9286342Y5737023D01*
X9356655D01*
X9358676Y5737860D01*
X9360863D01*
X9362410Y5739407D01*
X9364431Y5740244D01*
X9365268Y5742265D01*
X9366815Y5743811D01*
X9372075Y5756511D01*
Y5758699D01*
X9372913Y5760720D01*
X9372076Y5762741D01*
Y5764928D01*
X9372015Y5764989D01*
X9368261Y5774053D01*
Y5781677D01*
X9371178Y5788719D01*
X9376569Y5794110D01*
X9383612Y5797028D01*
X9391235D01*
X9398278Y5794110D01*
X9403669Y5788719D01*
X9406586Y5781677D01*
Y5774053D01*
X9402832Y5764989D01*
X9402771Y5764929D01*
Y5762741D01*
X9401934Y5760720D01*
X9402771Y5758699D01*
Y5756511D01*
X9408032Y5743811D01*
X9409579Y5742265D01*
X9410416Y5740244D01*
X9412437Y5739407D01*
X9413984Y5737860D01*
X9416171D01*
X9418192Y5737023D01*
X9463751D01*
X9465772Y5737860D01*
X9467960D01*
X9469507Y5739407D01*
X9471528Y5740244D01*
X9472365Y5742265D01*
X9473911Y5743811D01*
X9479172Y5756511D01*
Y5758699D01*
X9480009Y5760720D01*
X9479172Y5762741D01*
Y5764928D01*
X9479111Y5764989D01*
X9475357Y5774053D01*
Y5781677D01*
X9478274Y5788719D01*
X9483665Y5794110D01*
X9490708Y5797028D01*
X9498332D01*
X9505375Y5794110D01*
X9510766Y5788719D01*
X9513683Y5781677D01*
Y5774053D01*
X9509929Y5764989D01*
X9509868Y5764929D01*
Y5762741D01*
X9509031Y5760720D01*
X9509868Y5758699D01*
Y5756511D01*
X9515129Y5743811D01*
X9516675Y5742265D01*
X9517512Y5740244D01*
X9519533Y5739407D01*
X9521080Y5737860D01*
X9523268D01*
X9525289Y5737023D01*
X9754474D01*
X9756495Y5737860D01*
X9758682D01*
X9760229Y5739407D01*
X9762250Y5740244D01*
X9774821Y5744267D01*
X9778844Y5740244D01*
X9786620Y5737023D01*
X10058400D01*
X10066176Y5740244D01*
X10091576Y5765644D01*
X10094797Y5773420D01*
Y5986780D01*
Y6032500D01*
X10091576Y6040276D01*
X10078868Y6052985D01*
X10081188Y6068625D01*
X10105102Y6081408D01*
X10136266Y6106983D01*
X10136267Y6106983D01*
X10161864Y6138173D01*
X10180884Y6173757D01*
X10192596Y6212368D01*
X10196551Y6252522D01*
X10195908D01*
Y6827520D01*
X10195905Y6827533D01*
X10195908Y6827547D01*
X10195876Y6848898D01*
X10196595Y6861599D01*
X10196595D01*
X10192228Y6905931D01*
X10179262Y6948674D01*
X10158207Y6988067D01*
X10137763Y7012977D01*
X10129871Y7022595D01*
X10129776Y7022673D01*
X10120488Y7030917D01*
X10071167Y7080239D01*
X10071168Y7081410D01*
X10071088Y7081508D01*
X10033670Y7112215D01*
X9990980Y7135033D01*
X9944660Y7149085D01*
X9908905Y7152606D01*
X9896488Y7153829D01*
X9896364Y7153817D01*
X9884006Y7152988D01*
X9865361D01*
X9865360Y7152988D01*
X9562026D01*
Y7153273D01*
X9542746Y7155811D01*
X9524780Y7163253D01*
X9509351Y7175091D01*
X9497513Y7190520D01*
X9490071Y7208486D01*
X9487533Y7227766D01*
X9487248D01*
Y7450682D01*
X9491778Y7473455D01*
X9505081Y7493363D01*
X9505683Y7493766D01*
X9505703Y7493796D01*
X9505733Y7493815D01*
X9512185Y7500268D01*
X9522707D01*
X9533792Y7504859D01*
X9542276Y7513343D01*
X9546868Y7524428D01*
Y7536427D01*
X9542276Y7547512D01*
X9533792Y7555996D01*
X9522707Y7560588D01*
X9510708D01*
X9499624Y7555996D01*
X9487248Y7561582D01*
Y7654357D01*
X9487840Y7659752D01*
X9487840D01*
X9484097Y7688180D01*
X9473124Y7714671D01*
X9463205Y7727598D01*
X9455669Y7737420D01*
X9455667Y7737422D01*
X9446456Y7745846D01*
X9441740Y7750629D01*
X9441726Y7750643D01*
X9441729Y7750650D01*
X9441712Y7750657D01*
X9441705Y7750663D01*
X9433998Y7756950D01*
X9433686Y7770303D01*
X9438695Y7775311D01*
X9443286Y7786396D01*
Y7798395D01*
X9438695Y7809480D01*
X9437726Y7810449D01*
X9430858Y7818745D01*
X9437726Y7827042D01*
X9438695Y7828011D01*
X9443286Y7839096D01*
Y7851095D01*
X9438695Y7862180D01*
X9430211Y7870664D01*
X9419125Y7875255D01*
X9407127D01*
X9396042Y7870664D01*
X9392264Y7866885D01*
X9379564Y7872146D01*
Y8500257D01*
X9379695D01*
X9382844Y8524173D01*
X9392075Y8546459D01*
X9406759Y8565596D01*
X9425897Y8580281D01*
X9448182Y8589512D01*
X9472098Y8592660D01*
Y8592792D01*
X9531533D01*
Y8592355D01*
X9555275Y8595481D01*
X9577399Y8604645D01*
X9596342Y8619180D01*
X9596397Y8619223D01*
X9607276Y8623620D01*
X9610699D01*
X9621784Y8628212D01*
X9630268Y8636696D01*
X9634860Y8647781D01*
Y8659779D01*
X9630268Y8670864D01*
X9621784Y8679348D01*
X9610699Y8683940D01*
D02*
G37*
G36*
X9988776Y8440322D02*
X9975648D01*
X9973627Y8439485D01*
X9971440D01*
X9959311Y8434461D01*
X9957764Y8432915D01*
X9955743Y8432078D01*
X9946460Y8422795D01*
X9945623Y8420773D01*
X9944077Y8419227D01*
X9939053Y8407098D01*
Y8404911D01*
X9938216Y8402890D01*
Y8389762D01*
X9939053Y8387741D01*
Y8385553D01*
X9944077Y8373424D01*
X9945623Y8371878D01*
X9946460Y8369857D01*
X9955743Y8360574D01*
X9957764Y8359737D01*
X9959311Y8358190D01*
X9971440Y8353166D01*
X9973627D01*
X9975648Y8352329D01*
X9988776D01*
X9990797Y8353166D01*
X9992985D01*
X10005114Y8358190D01*
X10006660Y8359737D01*
X10008681Y8360574D01*
X10017964Y8369857D01*
X10018801Y8371877D01*
X10020348Y8373424D01*
X10025372Y8385553D01*
Y8387741D01*
X10026209Y8389762D01*
Y8402890D01*
X10025372Y8404911D01*
Y8407098D01*
X10020348Y8419227D01*
X10018801Y8420774D01*
X10017964Y8422795D01*
X10008681Y8432078D01*
X10006660Y8432915D01*
X10005113Y8434461D01*
X9992985Y8439485D01*
X9990797D01*
X9988776Y8440322D01*
D02*
G37*
G36*
X8742197Y8491474D02*
X8723739D01*
X8705909Y8486697D01*
X8689923Y8477467D01*
X8676871Y8464415D01*
X8667642Y8448429D01*
X8662864Y8430599D01*
Y8412141D01*
X8667642Y8394311D01*
X8676871Y8378325D01*
X8689923Y8365273D01*
X8705909Y8356043D01*
X8723739Y8351266D01*
X8742197D01*
X8760027Y8356043D01*
X8776013Y8365273D01*
X8789065Y8378325D01*
X8798295Y8394311D01*
X8803072Y8412141D01*
Y8430599D01*
X8798295Y8448429D01*
X8789065Y8464415D01*
X8776013Y8477467D01*
X8760027Y8486697D01*
X8742197Y8491474D01*
D02*
G37*
G36*
X7453715D02*
X7435257D01*
X7417427Y8486697D01*
X7401441Y8477467D01*
X7388389Y8464415D01*
X7379159Y8448429D01*
X7374382Y8430599D01*
Y8412141D01*
X7379159Y8394311D01*
X7388389Y8378325D01*
X7401441Y8365273D01*
X7417427Y8356043D01*
X7435257Y8351266D01*
X7453715D01*
X7471545Y8356043D01*
X7487531Y8365273D01*
X7500583Y8378325D01*
X7509813Y8394311D01*
X7514590Y8412141D01*
Y8430599D01*
X7509813Y8448429D01*
X7500583Y8464415D01*
X7487531Y8477467D01*
X7471545Y8486697D01*
X7453715Y8491474D01*
D02*
G37*
G36*
X8742197Y8291322D02*
X8723739D01*
X8705909Y8286545D01*
X8689923Y8277315D01*
X8676871Y8264263D01*
X8667642Y8248277D01*
X8662864Y8230447D01*
Y8211989D01*
X8667642Y8194159D01*
X8676871Y8178173D01*
X8689923Y8165121D01*
X8705909Y8155891D01*
X8723739Y8151114D01*
X8742197D01*
X8760027Y8155891D01*
X8776013Y8165121D01*
X8789065Y8178173D01*
X8798295Y8194159D01*
X8803072Y8211989D01*
Y8230447D01*
X8798295Y8248277D01*
X8789065Y8264263D01*
X8776013Y8277315D01*
X8760027Y8286545D01*
X8742197Y8291322D01*
D02*
G37*
G36*
X7453715D02*
X7435257D01*
X7417427Y8286545D01*
X7401441Y8277315D01*
X7388389Y8264263D01*
X7379159Y8248277D01*
X7374382Y8230447D01*
Y8211989D01*
X7379159Y8194159D01*
X7388389Y8178173D01*
X7401441Y8165121D01*
X7417427Y8155891D01*
X7435257Y8151114D01*
X7453715D01*
X7471545Y8155891D01*
X7487531Y8165121D01*
X7500583Y8178173D01*
X7509813Y8194159D01*
X7514590Y8211989D01*
Y8230447D01*
X7509813Y8248277D01*
X7500583Y8264263D01*
X7487531Y8277315D01*
X7471545Y8286545D01*
X7453715Y8291322D01*
D02*
G37*
G36*
X8892057Y8191500D02*
X8873599D01*
X8855769Y8186723D01*
X8839783Y8177493D01*
X8826731Y8164441D01*
X8817502Y8148455D01*
X8812724Y8130625D01*
Y8112167D01*
X8817502Y8094337D01*
X8826731Y8078351D01*
X8839783Y8065299D01*
X8855769Y8056069D01*
X8873599Y8051292D01*
X8892057D01*
X8909887Y8056069D01*
X8925873Y8065299D01*
X8938925Y8078351D01*
X8948155Y8094337D01*
X8952932Y8112167D01*
Y8130625D01*
X8948155Y8148455D01*
X8938925Y8164441D01*
X8925873Y8177493D01*
X8909887Y8186723D01*
X8892057Y8191500D01*
D02*
G37*
G36*
X7603575D02*
X7585117D01*
X7567287Y8186723D01*
X7551301Y8177493D01*
X7538249Y8164441D01*
X7529019Y8148455D01*
X7524242Y8130625D01*
Y8112167D01*
X7529019Y8094337D01*
X7538249Y8078351D01*
X7551301Y8065299D01*
X7567287Y8056069D01*
X7585117Y8051292D01*
X7603575D01*
X7621405Y8056069D01*
X7637391Y8065299D01*
X7650443Y8078351D01*
X7659673Y8094337D01*
X7664450Y8112167D01*
Y8130625D01*
X7659673Y8148455D01*
X7650443Y8164441D01*
X7637391Y8177493D01*
X7621405Y8186723D01*
X7603575Y8191500D01*
D02*
G37*
G36*
X10351419Y8064180D02*
X10339421D01*
X10328336Y8059588D01*
X10319852Y8051104D01*
X10315260Y8040019D01*
Y8028021D01*
X10319852Y8016936D01*
X10328336Y8008452D01*
X10339421Y8003860D01*
X10351419D01*
X10362504Y8008452D01*
X10370988Y8016936D01*
X10375580Y8028021D01*
Y8040019D01*
X10370988Y8051104D01*
X10362504Y8059588D01*
X10351419Y8064180D01*
D02*
G37*
G36*
X9788200Y8077843D02*
X9776201D01*
X9765116Y8073251D01*
X9756632Y8064767D01*
X9752040Y8053682D01*
Y8041683D01*
X9756632Y8030598D01*
X9757601Y8029629D01*
X9764469Y8021333D01*
X9757601Y8013036D01*
X9756632Y8012067D01*
X9752040Y8000982D01*
Y7988984D01*
X9756632Y7977898D01*
X9765116Y7969414D01*
X9776201Y7964823D01*
X9787123D01*
X9789888Y7962279D01*
X9795357Y7954041D01*
X9791727Y7945279D01*
Y7933280D01*
X9796319Y7922195D01*
X9804803Y7913711D01*
X9815888Y7909120D01*
X9827887D01*
X9838972Y7913711D01*
X9847456Y7922195D01*
X9852047Y7933280D01*
Y7945279D01*
X9847456Y7956364D01*
X9838972Y7964848D01*
X9827887Y7969439D01*
X9823471D01*
X9815008Y7981329D01*
X9817917Y7988184D01*
X9822422Y7989938D01*
X9825060Y7990189D01*
X9847057Y7981078D01*
X9874891Y7977413D01*
Y7978007D01*
X10154701D01*
X10154752Y7977886D01*
X10163236Y7969402D01*
X10174321Y7964810D01*
X10186319D01*
X10197404Y7969402D01*
X10205888Y7977886D01*
X10210480Y7988971D01*
Y8000969D01*
X10205888Y8012054D01*
X10204919Y8013023D01*
X10198051Y8021320D01*
X10204919Y8029617D01*
X10205888Y8030586D01*
X10210480Y8041671D01*
Y8053669D01*
X10205888Y8064754D01*
X10197404Y8073238D01*
X10186319Y8077830D01*
X10174321D01*
X10163236Y8073238D01*
X10154752Y8064754D01*
X10150160Y8053669D01*
Y8041671D01*
X10154752Y8030586D01*
X10155721Y8029617D01*
X10162589Y8021320D01*
X10155721Y8013023D01*
X10154752Y8012054D01*
X10154701Y8011933D01*
X9874891D01*
Y8012255D01*
X9856075Y8014732D01*
X9838541Y8021995D01*
X9823484Y8033549D01*
X9823256Y8033321D01*
X9812360Y8044217D01*
Y8053682D01*
X9807769Y8064767D01*
X9799285Y8073251D01*
X9788200Y8077843D01*
D02*
G37*
G36*
X8892057Y7991348D02*
X8873599D01*
X8855769Y7986571D01*
X8839783Y7977341D01*
X8826731Y7964289D01*
X8817502Y7948303D01*
X8812724Y7930473D01*
Y7912015D01*
X8817502Y7894185D01*
X8826731Y7878199D01*
X8839783Y7865147D01*
X8855769Y7855917D01*
X8873599Y7851140D01*
X8892057D01*
X8909887Y7855917D01*
X8925873Y7865147D01*
X8938925Y7878199D01*
X8948155Y7894185D01*
X8952932Y7912015D01*
Y7930473D01*
X8948155Y7948303D01*
X8938925Y7964289D01*
X8925873Y7977341D01*
X8909887Y7986571D01*
X8892057Y7991348D01*
D02*
G37*
G36*
X7603575D02*
X7585117D01*
X7567287Y7986571D01*
X7551301Y7977341D01*
X7538249Y7964289D01*
X7529019Y7948303D01*
X7524242Y7930473D01*
Y7912015D01*
X7529019Y7894185D01*
X7538249Y7878199D01*
X7551301Y7865147D01*
X7567287Y7855917D01*
X7585117Y7851140D01*
X7603575D01*
X7621405Y7855917D01*
X7637391Y7865147D01*
X7650443Y7878199D01*
X7659673Y7894185D01*
X7664450Y7912015D01*
Y7930473D01*
X7659673Y7948303D01*
X7650443Y7964289D01*
X7637391Y7977341D01*
X7621405Y7986571D01*
X7603575Y7991348D01*
D02*
G37*
G36*
X889448Y7805564D02*
X860485D01*
X859112Y7804995D01*
X857639Y7805189D01*
X829662Y7797693D01*
X828483Y7796788D01*
X827010Y7796594D01*
X801927Y7782113D01*
X801022Y7780934D01*
X799649Y7780365D01*
X779169Y7759885D01*
X778600Y7758512D01*
X777421Y7757607D01*
X762939Y7732524D01*
X762745Y7731050D01*
X761841Y7729872D01*
X754344Y7701895D01*
X754538Y7700421D01*
X753970Y7699049D01*
Y7670085D01*
X754538Y7668712D01*
X754344Y7667239D01*
X761841Y7639262D01*
X762745Y7638084D01*
X762939Y7636610D01*
X777421Y7611527D01*
X778600Y7610622D01*
X779169Y7609249D01*
X799649Y7588769D01*
X801022Y7588200D01*
X801927Y7587021D01*
X827010Y7572540D01*
X828483Y7572346D01*
X829662Y7571441D01*
X857639Y7563944D01*
X859112Y7564139D01*
X860485Y7563570D01*
X889448D01*
X890821Y7564139D01*
X892295Y7563944D01*
X920271Y7571441D01*
X921450Y7572346D01*
X922923Y7572540D01*
X948007Y7587021D01*
X948911Y7588200D01*
X950284Y7588769D01*
X970765Y7609249D01*
X971333Y7610622D01*
X972512Y7611527D01*
X986994Y7636610D01*
X987188Y7638084D01*
X988093Y7639263D01*
X995589Y7667239D01*
X995395Y7668712D01*
X995963Y7670085D01*
Y7699049D01*
X995395Y7700421D01*
X995589Y7701895D01*
X988093Y7729872D01*
X987188Y7731050D01*
X986994Y7732524D01*
X972512Y7757607D01*
X971333Y7758512D01*
X970765Y7759885D01*
X950284Y7780365D01*
X948911Y7780934D01*
X948007Y7782112D01*
X922923Y7796594D01*
X921450Y7796788D01*
X920271Y7797693D01*
X892295Y7805189D01*
X890821Y7804995D01*
X889448Y7805564D01*
D02*
G37*
G36*
X8742197Y7891526D02*
X8723739D01*
X8705909Y7886749D01*
X8689923Y7877519D01*
X8676871Y7864467D01*
X8667642Y7848481D01*
X8662864Y7830651D01*
Y7812193D01*
X8667642Y7794363D01*
X8676871Y7778377D01*
X8689923Y7765325D01*
X8705909Y7756095D01*
X8723739Y7751318D01*
X8742197D01*
X8760027Y7756095D01*
X8776013Y7765325D01*
X8789065Y7778377D01*
X8798295Y7794363D01*
X8803072Y7812193D01*
Y7830651D01*
X8798295Y7848481D01*
X8789065Y7864467D01*
X8776013Y7877519D01*
X8760027Y7886749D01*
X8742197Y7891526D01*
D02*
G37*
G36*
X7453715D02*
X7435257D01*
X7417427Y7886749D01*
X7401441Y7877519D01*
X7388389Y7864467D01*
X7379159Y7848481D01*
X7374382Y7830651D01*
Y7812193D01*
X7379159Y7794363D01*
X7388389Y7778377D01*
X7401441Y7765325D01*
X7417427Y7756095D01*
X7435257Y7751318D01*
X7453715D01*
X7471545Y7756095D01*
X7487531Y7765325D01*
X7500583Y7778377D01*
X7509813Y7794363D01*
X7514590Y7812193D01*
Y7830651D01*
X7509813Y7848481D01*
X7500583Y7864467D01*
X7487531Y7877519D01*
X7471545Y7886749D01*
X7453715Y7891526D01*
D02*
G37*
G36*
X9987951Y7705508D02*
X9976468D01*
X9974456Y7704674D01*
X9972279Y7704679D01*
X9961662Y7700304D01*
X9960120Y7698767D01*
X9958104Y7697940D01*
X9949955Y7689850D01*
X9949114Y7687841D01*
X9947566Y7686309D01*
X9943115Y7675725D01*
X9943103Y7673547D01*
X9942255Y7671541D01*
X9942214Y7665799D01*
X9942229Y7665761D01*
X9942213Y7665723D01*
X9942203Y7624501D01*
X9942316Y7624229D01*
X9942217Y7623951D01*
X9942495Y7618370D01*
X9943403Y7616452D01*
X9943483Y7614332D01*
X9948142Y7604172D01*
X9949697Y7602729D01*
X9950558Y7600789D01*
X9958656Y7593084D01*
X9960636Y7592322D01*
X9962154Y7590840D01*
X9972534Y7586691D01*
X9974655Y7586718D01*
X9976616Y7585906D01*
X9982204Y7585906D01*
X9982205Y7585906D01*
X9982205Y7585906D01*
X9987770D01*
X9989723Y7586715D01*
X9991836Y7586685D01*
X10002179Y7590801D01*
X10003694Y7592275D01*
X10005669Y7593029D01*
X10013757Y7600677D01*
X10014620Y7602606D01*
X10016176Y7604037D01*
X10020863Y7614133D01*
X10020951Y7616245D01*
X10021868Y7618149D01*
X10022179Y7623706D01*
X10022070Y7624015D01*
X10022196Y7624318D01*
X10022206Y7665717D01*
X10022189Y7665758D01*
X10022206Y7665799D01*
X10022165Y7671540D01*
X10021317Y7673547D01*
X10021305Y7675725D01*
X10016853Y7686309D01*
X10015305Y7687841D01*
X10014464Y7689850D01*
X10006316Y7697940D01*
X10004300Y7698767D01*
X10002757Y7700304D01*
X9992141Y7704679D01*
X9989963Y7704674D01*
X9987951Y7705508D01*
D02*
G37*
G36*
X8892057Y7741412D02*
X8873599D01*
X8855769Y7736635D01*
X8839783Y7727405D01*
X8826731Y7714353D01*
X8817502Y7698367D01*
X8812724Y7680537D01*
Y7662079D01*
X8817502Y7644249D01*
X8826731Y7628263D01*
X8839783Y7615211D01*
X8855769Y7605981D01*
X8873599Y7601204D01*
X8892057D01*
X8909887Y7605981D01*
X8925873Y7615211D01*
X8938925Y7628263D01*
X8948155Y7644249D01*
X8952932Y7662079D01*
Y7680537D01*
X8948155Y7698367D01*
X8938925Y7714353D01*
X8925873Y7727405D01*
X8909887Y7736635D01*
X8892057Y7741412D01*
D02*
G37*
G36*
X7603575D02*
X7585117D01*
X7567287Y7736635D01*
X7551301Y7727405D01*
X7538249Y7714353D01*
X7529019Y7698367D01*
X7524242Y7680537D01*
Y7662079D01*
X7529019Y7644249D01*
X7538249Y7628263D01*
X7551301Y7615211D01*
X7567287Y7605981D01*
X7585117Y7601204D01*
X7603575D01*
X7621405Y7605981D01*
X7637391Y7615211D01*
X7650443Y7628263D01*
X7659673Y7644249D01*
X7664450Y7662079D01*
Y7680537D01*
X7659673Y7698367D01*
X7650443Y7714353D01*
X7637391Y7727405D01*
X7621405Y7736635D01*
X7603575Y7741412D01*
D02*
G37*
G36*
X595279Y7683180D02*
X583281D01*
X572196Y7678588D01*
X563712Y7670104D01*
X559120Y7659019D01*
Y7647021D01*
X563712Y7635936D01*
X572027Y7627620D01*
X563712Y7619304D01*
X559120Y7608219D01*
Y7596221D01*
X563712Y7585136D01*
X572196Y7576652D01*
X583281Y7572060D01*
X595279D01*
X606364Y7576652D01*
X614848Y7585136D01*
X619440Y7596221D01*
Y7608219D01*
X614848Y7619304D01*
X606533Y7627620D01*
X614848Y7635936D01*
X619440Y7647021D01*
Y7659019D01*
X614848Y7670104D01*
X606364Y7678588D01*
X595279Y7683180D01*
D02*
G37*
G36*
X519079D02*
X507081D01*
X495996Y7678588D01*
X487512Y7670104D01*
X482920Y7659019D01*
Y7647021D01*
X487512Y7635936D01*
X495827Y7627620D01*
X487512Y7619304D01*
X482920Y7608219D01*
Y7596221D01*
X487512Y7585136D01*
X495996Y7576652D01*
X507081Y7572060D01*
X519079D01*
X530164Y7576652D01*
X538648Y7585136D01*
X543240Y7596221D01*
Y7608219D01*
X538648Y7619304D01*
X530333Y7627620D01*
X538648Y7635936D01*
X543240Y7647021D01*
Y7659019D01*
X538648Y7670104D01*
X530164Y7678588D01*
X519079Y7683180D01*
D02*
G37*
G36*
X442879D02*
X430881D01*
X419796Y7678588D01*
X411312Y7670104D01*
X406720Y7659019D01*
Y7647021D01*
X411312Y7635936D01*
X419627Y7627620D01*
X411312Y7619304D01*
X406720Y7608219D01*
Y7596221D01*
X411312Y7585136D01*
X419796Y7576652D01*
X430881Y7572060D01*
X442879D01*
X453964Y7576652D01*
X462448Y7585136D01*
X467040Y7596221D01*
Y7608219D01*
X462448Y7619304D01*
X454133Y7627620D01*
X462448Y7635936D01*
X467040Y7647021D01*
Y7659019D01*
X462448Y7670104D01*
X453964Y7678588D01*
X442879Y7683180D01*
D02*
G37*
G36*
X8742197Y7691374D02*
X8723739D01*
X8705909Y7686597D01*
X8689923Y7677367D01*
X8676871Y7664315D01*
X8667642Y7648329D01*
X8662864Y7630499D01*
Y7612041D01*
X8667642Y7594211D01*
X8676871Y7578225D01*
X8689923Y7565173D01*
X8705909Y7555943D01*
X8723739Y7551166D01*
X8742197D01*
X8760027Y7555943D01*
X8776013Y7565173D01*
X8789065Y7578225D01*
X8798295Y7594211D01*
X8803072Y7612041D01*
Y7630499D01*
X8798295Y7648329D01*
X8789065Y7664315D01*
X8776013Y7677367D01*
X8760027Y7686597D01*
X8742197Y7691374D01*
D02*
G37*
G36*
X7453715D02*
X7435257D01*
X7417427Y7686597D01*
X7401441Y7677367D01*
X7388389Y7664315D01*
X7379159Y7648329D01*
X7374382Y7630499D01*
Y7612041D01*
X7379159Y7594211D01*
X7388389Y7578225D01*
X7401441Y7565173D01*
X7417427Y7555943D01*
X7435257Y7551166D01*
X7453715D01*
X7471545Y7555943D01*
X7487531Y7565173D01*
X7500583Y7578225D01*
X7509813Y7594211D01*
X7514590Y7612041D01*
Y7630499D01*
X7509813Y7648329D01*
X7500583Y7664315D01*
X7487531Y7677367D01*
X7471545Y7686597D01*
X7453715Y7691374D01*
D02*
G37*
G36*
X10160919Y7600183D02*
X10148921D01*
X10137836Y7595591D01*
X10129352Y7587107D01*
X10124760Y7576022D01*
Y7564024D01*
X10129352Y7552939D01*
X10130321Y7551970D01*
X10137189Y7543673D01*
X10130321Y7535376D01*
X10129352Y7534407D01*
X10124760Y7523322D01*
Y7511324D01*
X10129352Y7500239D01*
X10137836Y7491755D01*
X10148921Y7487163D01*
X10160919D01*
X10172004Y7491755D01*
X10180488Y7500239D01*
X10185080Y7511324D01*
Y7523322D01*
X10180488Y7534407D01*
X10179519Y7535376D01*
X10172651Y7543673D01*
X10179519Y7551970D01*
X10180488Y7552939D01*
X10185080Y7564024D01*
Y7576022D01*
X10180488Y7587107D01*
X10172004Y7595591D01*
X10160919Y7600183D01*
D02*
G37*
G36*
X9781790Y7457120D02*
X9769791D01*
X9758706Y7452528D01*
X9757737Y7451559D01*
X9749440Y7444691D01*
X9741144Y7451559D01*
X9740175Y7452528D01*
X9729090Y7457120D01*
X9717091D01*
X9706006Y7452528D01*
X9697522Y7444044D01*
X9692931Y7432959D01*
Y7420961D01*
X9697522Y7409876D01*
X9706006Y7401392D01*
X9717091Y7396800D01*
X9729090D01*
X9740175Y7401392D01*
X9741144Y7402361D01*
X9749440Y7409229D01*
X9757737Y7402361D01*
X9758706Y7401392D01*
X9769791Y7396800D01*
X9781790D01*
X9792875Y7401392D01*
X9801359Y7409876D01*
X9805950Y7420961D01*
Y7432959D01*
X9801359Y7444044D01*
X9792875Y7452528D01*
X9781790Y7457120D01*
D02*
G37*
G36*
X10447939Y7477440D02*
X10435941D01*
X10424856Y7472848D01*
X10416372Y7464364D01*
X10411780Y7453279D01*
Y7453269D01*
X10409362Y7441536D01*
X10397364Y7441535D01*
X10386279Y7436944D01*
X10377795Y7428460D01*
X10373204Y7417375D01*
Y7405376D01*
X10377795Y7394291D01*
X10386279Y7385807D01*
X10397364Y7381215D01*
X10409363D01*
X10420448Y7385807D01*
X10428932Y7394291D01*
X10433523Y7405376D01*
Y7405387D01*
X10435941Y7417120D01*
X10447939Y7417120D01*
X10459024Y7421712D01*
X10467508Y7430196D01*
X10472100Y7441281D01*
Y7453279D01*
X10467508Y7464364D01*
X10459024Y7472848D01*
X10447939Y7477440D01*
D02*
G37*
G36*
X996599Y6837360D02*
X984601D01*
X973516Y6832768D01*
X965200Y6824453D01*
X956884Y6832768D01*
X945799Y6837360D01*
X933801D01*
X922716Y6832768D01*
X914232Y6824284D01*
X909640Y6813199D01*
Y6801201D01*
X914232Y6790116D01*
X922716Y6781632D01*
X933801Y6777040D01*
X945799D01*
X956884Y6781632D01*
X965200Y6789947D01*
X973516Y6781632D01*
X984601Y6777040D01*
X996599D01*
X1007684Y6781632D01*
X1016168Y6790116D01*
X1020760Y6801201D01*
Y6813199D01*
X1016168Y6824284D01*
X1007684Y6832768D01*
X996599Y6837360D01*
D02*
G37*
G36*
X6643019Y6899270D02*
X6631021D01*
X6619936Y6894678D01*
X6611452Y6886194D01*
X6606860Y6875109D01*
Y6863111D01*
X6611452Y6852026D01*
X6612421Y6851057D01*
X6619289Y6842760D01*
X6612421Y6834463D01*
X6611452Y6833494D01*
X6606860Y6822409D01*
Y6810411D01*
X6611452Y6799326D01*
X6619936Y6790842D01*
X6631021Y6786250D01*
X6643019D01*
X6654104Y6790842D01*
X6662588Y6799326D01*
X6667180Y6810411D01*
Y6822409D01*
X6662588Y6833494D01*
X6661619Y6834463D01*
X6654751Y6842760D01*
X6661619Y6851057D01*
X6662588Y6852026D01*
X6667180Y6863111D01*
Y6875109D01*
X6662588Y6886194D01*
X6654104Y6894678D01*
X6643019Y6899270D01*
D02*
G37*
G36*
X996599Y6761160D02*
X984601D01*
X973516Y6756568D01*
X965200Y6748253D01*
X956884Y6756568D01*
X945799Y6761160D01*
X933801D01*
X922716Y6756568D01*
X914232Y6748084D01*
X909640Y6736999D01*
Y6725001D01*
X914232Y6713916D01*
X922716Y6705432D01*
X933801Y6700840D01*
X945799D01*
X956884Y6705432D01*
X965200Y6713747D01*
X973516Y6705432D01*
X984601Y6700840D01*
X996599D01*
X1007684Y6705432D01*
X1016168Y6713916D01*
X1020760Y6725001D01*
Y6736999D01*
X1016168Y6748084D01*
X1007684Y6756568D01*
X996599Y6761160D01*
D02*
G37*
G36*
X2962559Y6794180D02*
X2950561D01*
X2939476Y6789588D01*
X2930992Y6781104D01*
X2926400Y6770019D01*
Y6758021D01*
X2930992Y6746936D01*
X2939476Y6738452D01*
X2950561Y6733860D01*
X2962559D01*
X2973644Y6738452D01*
X2982128Y6746936D01*
X2986720Y6758021D01*
Y6770019D01*
X2982128Y6781104D01*
X2973644Y6789588D01*
X2962559Y6794180D01*
D02*
G37*
G36*
X2833019D02*
X2821021D01*
X2809936Y6789588D01*
X2801452Y6781104D01*
X2796860Y6770019D01*
Y6758021D01*
X2801452Y6746936D01*
X2809936Y6738452D01*
X2821021Y6733860D01*
X2833019D01*
X2844104Y6738452D01*
X2852588Y6746936D01*
X2857180Y6758021D01*
Y6770019D01*
X2852588Y6781104D01*
X2844104Y6789588D01*
X2833019Y6794180D01*
D02*
G37*
G36*
X2708559D02*
X2696561D01*
X2685476Y6789588D01*
X2676992Y6781104D01*
X2672400Y6770019D01*
Y6758021D01*
X2676992Y6746936D01*
X2685476Y6738452D01*
X2696561Y6733860D01*
X2708559D01*
X2719644Y6738452D01*
X2728128Y6746936D01*
X2732720Y6758021D01*
Y6770019D01*
X2728128Y6781104D01*
X2719644Y6789588D01*
X2708559Y6794180D01*
D02*
G37*
G36*
X996599Y6684960D02*
X984601D01*
X973516Y6680368D01*
X965200Y6672053D01*
X956884Y6680368D01*
X945799Y6684960D01*
X933801D01*
X922716Y6680368D01*
X914232Y6671884D01*
X909640Y6660799D01*
Y6648801D01*
X914232Y6637716D01*
X922716Y6629232D01*
X933801Y6624640D01*
X945799D01*
X956884Y6629232D01*
X965200Y6637547D01*
X973516Y6629232D01*
X984601Y6624640D01*
X996599D01*
X1007684Y6629232D01*
X1016168Y6637716D01*
X1020760Y6648801D01*
Y6660799D01*
X1016168Y6671884D01*
X1007684Y6680368D01*
X996599Y6684960D01*
D02*
G37*
G36*
X234599Y6481760D02*
X222601D01*
X211516Y6477168D01*
X203200Y6468853D01*
X194884Y6477168D01*
X183799Y6481760D01*
X171801D01*
X160716Y6477168D01*
X152232Y6468684D01*
X147640Y6457599D01*
Y6445601D01*
X152232Y6434516D01*
X160547Y6426200D01*
X152232Y6417884D01*
X147640Y6406799D01*
Y6394801D01*
X152232Y6383716D01*
X160716Y6375232D01*
X171801Y6370640D01*
X183799D01*
X194884Y6375232D01*
X203200Y6383547D01*
X211516Y6375232D01*
X222601Y6370640D01*
X234599D01*
X245684Y6375232D01*
X254168Y6383716D01*
X258760Y6394801D01*
Y6406799D01*
X254168Y6417884D01*
X245853Y6426200D01*
X254168Y6434516D01*
X258760Y6445601D01*
Y6457599D01*
X254168Y6468684D01*
X245684Y6477168D01*
X234599Y6481760D01*
D02*
G37*
G36*
X5425353Y6539636D02*
X5406879D01*
X5389035Y6534855D01*
X5373037Y6525618D01*
X5359974Y6512555D01*
X5350737Y6496557D01*
X5345956Y6478713D01*
Y6460239D01*
X5350737Y6442395D01*
X5359974Y6426397D01*
X5373037Y6413334D01*
X5389035Y6404097D01*
X5406879Y6399316D01*
X5425353D01*
X5443197Y6404097D01*
X5459195Y6413334D01*
X5472258Y6426397D01*
X5481494Y6442395D01*
X5486276Y6460239D01*
Y6478713D01*
X5481494Y6496557D01*
X5472258Y6512555D01*
X5459195Y6525618D01*
X5443197Y6534855D01*
X5425353Y6539636D01*
D02*
G37*
G36*
X1625353D02*
X1606879D01*
X1589035Y6534855D01*
X1573037Y6525618D01*
X1559974Y6512555D01*
X1550737Y6496557D01*
X1545956Y6478713D01*
Y6460239D01*
X1550737Y6442395D01*
X1559974Y6426397D01*
X1573037Y6413334D01*
X1589035Y6404097D01*
X1606879Y6399316D01*
X1625353D01*
X1643197Y6404097D01*
X1659195Y6413334D01*
X1672258Y6426397D01*
X1681494Y6442395D01*
X1686276Y6460239D01*
Y6478713D01*
X1681494Y6496557D01*
X1672258Y6512555D01*
X1659195Y6525618D01*
X1643197Y6534855D01*
X1625353Y6539636D01*
D02*
G37*
G36*
X547019Y6143940D02*
X535021D01*
X523936Y6139348D01*
X515452Y6130865D01*
X511310Y6130013D01*
X501366Y6130046D01*
X494604Y6136808D01*
X483519Y6141400D01*
X471521D01*
X460436Y6136808D01*
X452930Y6129302D01*
X445770Y6128778D01*
X438610Y6129302D01*
X431104Y6136808D01*
X420019Y6141400D01*
X408021D01*
X396936Y6136808D01*
X388452Y6128324D01*
X387873Y6126928D01*
X374127D01*
X373548Y6128324D01*
X365064Y6136808D01*
X353979Y6141400D01*
X341981D01*
X330896Y6136808D01*
X322412Y6128324D01*
X317820Y6117239D01*
Y6105241D01*
X322412Y6094156D01*
X330896Y6085672D01*
X341981Y6081080D01*
X353979D01*
X365064Y6085672D01*
X373548Y6094156D01*
X374127Y6095552D01*
X387873D01*
X388452Y6094156D01*
X396936Y6085672D01*
X408021Y6081080D01*
X420019D01*
X431104Y6085672D01*
X438610Y6093178D01*
X445770Y6093702D01*
X452930Y6093178D01*
X460436Y6085672D01*
X471521Y6081080D01*
X483519D01*
X494604Y6085672D01*
X503088Y6094155D01*
X507230Y6095007D01*
X517174Y6094974D01*
X523936Y6088212D01*
X535021Y6083620D01*
X547019D01*
X558104Y6088212D01*
X566588Y6096696D01*
X571180Y6107781D01*
Y6119779D01*
X566588Y6130864D01*
X558104Y6139348D01*
X547019Y6143940D01*
D02*
G37*
G36*
X150779Y6123620D02*
X138781D01*
X127696Y6119028D01*
X119212Y6110544D01*
X114620Y6099459D01*
Y6087461D01*
X119212Y6076376D01*
X127696Y6067892D01*
X138781Y6063300D01*
X150779D01*
X161864Y6067892D01*
X170348Y6076376D01*
X174940Y6087461D01*
Y6099459D01*
X170348Y6110544D01*
X161864Y6119028D01*
X150779Y6123620D01*
D02*
G37*
G36*
Y5692540D02*
X138781D01*
X127696Y5687948D01*
X119212Y5679464D01*
X114620Y5668379D01*
Y5656381D01*
X119212Y5645296D01*
X127696Y5636812D01*
X138781Y5632220D01*
X150779D01*
X161864Y5636812D01*
X170348Y5645296D01*
X174940Y5656381D01*
Y5668379D01*
X170348Y5679464D01*
X161864Y5687948D01*
X150779Y5692540D01*
D02*
G37*
G36*
X9259219Y5591810D02*
X9247221D01*
X9236136Y5587218D01*
X9227652Y5578734D01*
X9223060Y5567649D01*
Y5555651D01*
X9227652Y5544566D01*
X9236136Y5536082D01*
X9247221Y5531490D01*
X9259219D01*
X9270304Y5536082D01*
X9278788Y5544566D01*
X9283380Y5555651D01*
Y5567649D01*
X9278788Y5578734D01*
X9270304Y5587218D01*
X9259219Y5591810D01*
D02*
G37*
G36*
X8798627Y5502172D02*
X8786628D01*
X8775543Y5497581D01*
X8767059Y5489097D01*
X8762468Y5478012D01*
Y5466013D01*
X8767059Y5454928D01*
X8775543Y5446444D01*
X8786628Y5441852D01*
X8787999D01*
X8798722Y5440842D01*
X8799732Y5430119D01*
Y5428749D01*
X8804324Y5417664D01*
X8812808Y5409179D01*
X8823893Y5404588D01*
X8835891D01*
X8846976Y5409179D01*
X8855461Y5417664D01*
X8860052Y5428749D01*
Y5440747D01*
X8855461Y5451832D01*
X8846976Y5460316D01*
X8835891Y5464908D01*
X8834521D01*
X8823798Y5465918D01*
X8822788Y5476641D01*
Y5478012D01*
X8818196Y5489097D01*
X8809712Y5497581D01*
X8798627Y5502172D01*
D02*
G37*
G36*
X10323101Y5361940D02*
X10311102D01*
X10300017Y5357348D01*
X10291533Y5348864D01*
X10286942Y5337779D01*
Y5325781D01*
X10291533Y5314695D01*
X10300017Y5306211D01*
X10311102Y5301620D01*
X10323101D01*
X10334186Y5306211D01*
X10342670Y5314695D01*
X10347261Y5325781D01*
Y5337779D01*
X10342670Y5348864D01*
X10334186Y5357348D01*
X10323101Y5361940D01*
D02*
G37*
G36*
X8446988Y5310820D02*
X8434990D01*
X8423905Y5306228D01*
X8422936Y5305259D01*
X8414639Y5298391D01*
X8406342Y5305259D01*
X8405373Y5306228D01*
X8394288Y5310820D01*
X8382290D01*
X8371205Y5306228D01*
X8362721Y5297744D01*
X8358129Y5286659D01*
Y5274661D01*
X8362721Y5263576D01*
X8371205Y5255092D01*
X8382290Y5250500D01*
X8394288D01*
X8405373Y5255092D01*
X8406342Y5256061D01*
X8414639Y5262929D01*
X8422936Y5256061D01*
X8423905Y5255092D01*
X8434990Y5250500D01*
X8446988D01*
X8458073Y5255092D01*
X8466557Y5263576D01*
X8471149Y5274661D01*
Y5286659D01*
X8466557Y5297744D01*
X8458073Y5306228D01*
X8446988Y5310820D01*
D02*
G37*
G36*
X7847040Y5064440D02*
X7835042D01*
X7823957Y5059848D01*
X7822988Y5058879D01*
X7814691Y5052011D01*
X7806394Y5058879D01*
X7805425Y5059848D01*
X7794340Y5064440D01*
X7782342D01*
X7771257Y5059848D01*
X7762773Y5051364D01*
X7758181Y5040279D01*
Y5028281D01*
X7762773Y5017196D01*
X7771257Y5008712D01*
X7782342Y5004120D01*
X7794340D01*
X7805425Y5008712D01*
X7806394Y5009681D01*
X7814691Y5016549D01*
X7822988Y5009681D01*
X7823957Y5008712D01*
X7835042Y5004120D01*
X7847040D01*
X7858125Y5008712D01*
X7866609Y5017196D01*
X7871201Y5028281D01*
Y5040279D01*
X7866609Y5051364D01*
X7858125Y5059848D01*
X7847040Y5064440D01*
D02*
G37*
G36*
X8326973Y5062260D02*
X8314975D01*
X8303890Y5057668D01*
X8302634Y5056412D01*
X8294337Y5050009D01*
X8286040Y5056412D01*
X8284784Y5057668D01*
X8273699Y5062260D01*
X8261701D01*
X8250616Y5057668D01*
X8242132Y5049184D01*
X8237540Y5038099D01*
Y5026101D01*
X8242132Y5015016D01*
X8250616Y5006532D01*
X8261701Y5001940D01*
X8273699D01*
X8284784Y5006532D01*
X8286040Y5007788D01*
X8294337Y5014191D01*
X8302634Y5007788D01*
X8303890Y5006532D01*
X8314975Y5001940D01*
X8326973D01*
X8338058Y5006532D01*
X8346542Y5015016D01*
X8351134Y5026101D01*
Y5038099D01*
X8346542Y5049184D01*
X8338058Y5057668D01*
X8326973Y5062260D01*
D02*
G37*
G36*
X559719Y4871400D02*
X547721D01*
X536636Y4866808D01*
X529130Y4859302D01*
X521970Y4858778D01*
X514810Y4859302D01*
X507304Y4866808D01*
X496219Y4871400D01*
X484221D01*
X473136Y4866808D01*
X464652Y4858324D01*
X464073Y4856928D01*
X450327D01*
X449748Y4858324D01*
X441264Y4866808D01*
X430179Y4871400D01*
X418181D01*
X407096Y4866808D01*
X399590Y4859302D01*
X392430Y4858778D01*
X385270Y4859302D01*
X377764Y4866808D01*
X366679Y4871400D01*
X354681D01*
X343596Y4866808D01*
X335112Y4858324D01*
X330520Y4847239D01*
Y4835241D01*
X335112Y4824156D01*
X343596Y4815672D01*
X354681Y4811080D01*
X366679D01*
X377764Y4815672D01*
X385270Y4823178D01*
X392430Y4823702D01*
X399590Y4823178D01*
X407096Y4815672D01*
X418181Y4811080D01*
X430179D01*
X441264Y4815672D01*
X449748Y4824156D01*
X450327Y4825552D01*
X464073D01*
X464652Y4824156D01*
X473136Y4815672D01*
X484221Y4811080D01*
X496219D01*
X507304Y4815672D01*
X514810Y4823178D01*
X521970Y4823702D01*
X529130Y4823178D01*
X536636Y4815672D01*
X547721Y4811080D01*
X559719D01*
X570804Y4815672D01*
X579288Y4824156D01*
X583880Y4835241D01*
Y4847239D01*
X579288Y4858324D01*
X570804Y4866808D01*
X559719Y4871400D01*
D02*
G37*
G36*
X10325457Y4904420D02*
X10313459D01*
X10302374Y4899828D01*
X10293890Y4891344D01*
X10289298Y4880259D01*
Y4868261D01*
X10293890Y4857176D01*
X10302374Y4848692D01*
X10313459Y4844100D01*
X10325457D01*
X10336542Y4848692D01*
X10345027Y4857176D01*
X10349618Y4868261D01*
Y4880259D01*
X10345027Y4891344D01*
X10336542Y4899828D01*
X10325457Y4904420D01*
D02*
G37*
G36*
X150779Y4853620D02*
X138781D01*
X127696Y4849028D01*
X119212Y4840544D01*
X114620Y4829459D01*
Y4817461D01*
X119212Y4806376D01*
X127696Y4797892D01*
X138781Y4793300D01*
X150779D01*
X161864Y4797892D01*
X170348Y4806376D01*
X174940Y4817461D01*
Y4829459D01*
X170348Y4840544D01*
X161864Y4849028D01*
X150779Y4853620D01*
D02*
G37*
G36*
X10325457Y4533900D02*
X10313459D01*
X10302374Y4529308D01*
X10293890Y4520824D01*
X10289298Y4509739D01*
Y4497741D01*
X10293890Y4486655D01*
X10302374Y4478171D01*
X10313459Y4473580D01*
X10325457D01*
X10336542Y4478171D01*
X10345027Y4486655D01*
X10349618Y4497741D01*
Y4509739D01*
X10345027Y4520824D01*
X10336542Y4529308D01*
X10325457Y4533900D01*
D02*
G37*
G36*
X150779Y4422540D02*
X138781D01*
X127696Y4417948D01*
X119212Y4409464D01*
X114620Y4398379D01*
Y4386381D01*
X119212Y4375296D01*
X127696Y4366812D01*
X138781Y4362220D01*
X150779D01*
X161864Y4366812D01*
X170348Y4375296D01*
X174940Y4386381D01*
Y4398379D01*
X170348Y4409464D01*
X161864Y4417948D01*
X150779Y4422540D01*
D02*
G37*
G36*
X1451259Y4409120D02*
X1439261D01*
X1428176Y4404528D01*
X1419692Y4396044D01*
X1415100Y4384959D01*
Y4372961D01*
X1419692Y4361876D01*
X1428176Y4353392D01*
X1439261Y4348800D01*
X1451259D01*
X1462344Y4353392D01*
X1470828Y4361876D01*
X1475420Y4372961D01*
Y4384959D01*
X1470828Y4396044D01*
X1462344Y4404528D01*
X1451259Y4409120D01*
D02*
G37*
G36*
X1563019Y4302440D02*
X1551021D01*
X1539936Y4297848D01*
X1531452Y4289364D01*
X1526860Y4278279D01*
Y4266281D01*
X1531452Y4255196D01*
X1539936Y4246712D01*
X1551021Y4242120D01*
X1563019D01*
X1574104Y4246712D01*
X1582588Y4255196D01*
X1587180Y4266281D01*
Y4278279D01*
X1582588Y4289364D01*
X1574104Y4297848D01*
X1563019Y4302440D01*
D02*
G37*
G36*
X1344579D02*
X1332581D01*
X1321496Y4297848D01*
X1313012Y4289364D01*
X1308420Y4278279D01*
Y4266281D01*
X1313012Y4255196D01*
X1321496Y4246712D01*
X1332581Y4242120D01*
X1344579D01*
X1355664Y4246712D01*
X1364148Y4255196D01*
X1368740Y4266281D01*
Y4278279D01*
X1364148Y4289364D01*
X1355664Y4297848D01*
X1344579Y4302440D01*
D02*
G37*
G36*
X1235359Y4195760D02*
X1223361D01*
X1212276Y4191168D01*
X1203792Y4182684D01*
X1199200Y4171599D01*
Y4159601D01*
X1203792Y4148516D01*
X1212276Y4140032D01*
X1223361Y4135440D01*
X1235359D01*
X1246444Y4140032D01*
X1254928Y4148516D01*
X1259520Y4159601D01*
Y4171599D01*
X1254928Y4182684D01*
X1246444Y4191168D01*
X1235359Y4195760D01*
D02*
G37*
G36*
X1451259Y4188140D02*
X1439261D01*
X1428176Y4183548D01*
X1419692Y4175064D01*
X1415100Y4163979D01*
Y4151981D01*
X1419692Y4140896D01*
X1428176Y4132412D01*
X1439261Y4127820D01*
X1451259D01*
X1462344Y4132412D01*
X1470828Y4140896D01*
X1475420Y4151981D01*
Y4163979D01*
X1470828Y4175064D01*
X1462344Y4183548D01*
X1451259Y4188140D01*
D02*
G37*
G36*
X1347119Y4089080D02*
X1335121D01*
X1324036Y4084488D01*
X1315552Y4076004D01*
X1310960Y4064919D01*
Y4052921D01*
X1315552Y4041836D01*
X1324036Y4033352D01*
X1335121Y4028760D01*
X1347119D01*
X1358204Y4033352D01*
X1366688Y4041836D01*
X1371280Y4052921D01*
Y4064919D01*
X1366688Y4076004D01*
X1358204Y4084488D01*
X1347119Y4089080D01*
D02*
G37*
G36*
X10319233Y4073840D02*
X10307234D01*
X10296149Y4069248D01*
X10287665Y4060764D01*
X10283074Y4049679D01*
Y4037681D01*
X10287665Y4026596D01*
X10296149Y4018112D01*
X10307234Y4013520D01*
X10319233D01*
X10330318Y4018112D01*
X10338802Y4026596D01*
X10343394Y4037681D01*
Y4049679D01*
X10338802Y4060764D01*
X10330318Y4069248D01*
X10319233Y4073840D01*
D02*
G37*
G36*
X2962559Y3992560D02*
X2950561D01*
X2939476Y3987968D01*
X2930992Y3979484D01*
X2926400Y3968399D01*
Y3956401D01*
X2930992Y3945316D01*
X2939476Y3936832D01*
X2950561Y3932240D01*
X2962559D01*
X2973644Y3936832D01*
X2982128Y3945316D01*
X2986720Y3956401D01*
Y3968399D01*
X2982128Y3979484D01*
X2973644Y3987968D01*
X2962559Y3992560D01*
D02*
G37*
G36*
X2830479D02*
X2818481D01*
X2807396Y3987968D01*
X2798912Y3979484D01*
X2794320Y3968399D01*
Y3956401D01*
X2798912Y3945316D01*
X2807396Y3936832D01*
X2818481Y3932240D01*
X2830479D01*
X2841564Y3936832D01*
X2850048Y3945316D01*
X2854640Y3956401D01*
Y3968399D01*
X2850048Y3979484D01*
X2841564Y3987968D01*
X2830479Y3992560D01*
D02*
G37*
G36*
X2703479D02*
X2691481D01*
X2680396Y3987968D01*
X2671912Y3979484D01*
X2667320Y3968399D01*
Y3956401D01*
X2671912Y3945316D01*
X2680396Y3936832D01*
X2691481Y3932240D01*
X2703479D01*
X2714564Y3936832D01*
X2723048Y3945316D01*
X2727640Y3956401D01*
Y3968399D01*
X2723048Y3979484D01*
X2714564Y3987968D01*
X2703479Y3992560D01*
D02*
G37*
G36*
X5903879Y4126860D02*
X5891881D01*
X5880796Y4122268D01*
X5872312Y4113784D01*
X5867720Y4102699D01*
Y4090701D01*
X5872312Y4079616D01*
X5873281Y4078647D01*
X5880149Y4070350D01*
X5873281Y4062053D01*
X5872312Y4061084D01*
X5867720Y4049999D01*
Y4038001D01*
X5872312Y4026916D01*
X5880796Y4018432D01*
X5889454Y4014845D01*
X5891138Y4006035D01*
X5890717Y4001622D01*
X5888416Y4000668D01*
X5879932Y3992184D01*
X5875340Y3981099D01*
Y3969101D01*
X5879932Y3958016D01*
X5880901Y3957047D01*
X5887769Y3948750D01*
X5880901Y3940453D01*
X5879932Y3939484D01*
X5875340Y3928399D01*
Y3916401D01*
X5879932Y3905316D01*
X5888416Y3896832D01*
X5899501Y3892240D01*
X5911499D01*
X5922584Y3896832D01*
X5931068Y3905316D01*
X5935660Y3916401D01*
Y3928399D01*
X5931068Y3939484D01*
X5930099Y3940453D01*
X5923231Y3948750D01*
X5930099Y3957047D01*
X5931068Y3958016D01*
X5935660Y3969101D01*
Y3981099D01*
X5931068Y3992184D01*
X5922584Y4000668D01*
X5913926Y4004255D01*
X5912242Y4013065D01*
X5912663Y4017478D01*
X5914964Y4018432D01*
X5923448Y4026916D01*
X5928040Y4038001D01*
Y4049999D01*
X5923448Y4061084D01*
X5922479Y4062053D01*
X5915611Y4070350D01*
X5922479Y4078647D01*
X5923448Y4079616D01*
X5928040Y4090701D01*
Y4102699D01*
X5923448Y4113784D01*
X5914964Y4122268D01*
X5903879Y4126860D01*
D02*
G37*
G36*
X5911499Y3878260D02*
X5899501D01*
X5888416Y3873668D01*
X5879932Y3865184D01*
X5875340Y3854099D01*
Y3842101D01*
X5879932Y3831016D01*
X5880901Y3830047D01*
X5887769Y3821750D01*
X5880901Y3813453D01*
X5879932Y3812484D01*
X5875340Y3801399D01*
Y3789401D01*
X5879932Y3778316D01*
X5888416Y3769832D01*
X5899501Y3765240D01*
X5911499D01*
X5922584Y3769832D01*
X5931068Y3778316D01*
X5935660Y3789401D01*
Y3801399D01*
X5931068Y3812484D01*
X5930099Y3813453D01*
X5923231Y3821750D01*
X5930099Y3830047D01*
X5931068Y3831016D01*
X5935660Y3842101D01*
Y3854099D01*
X5931068Y3865184D01*
X5922584Y3873668D01*
X5911499Y3878260D01*
D02*
G37*
G36*
X6165499Y3852884D02*
X6153501D01*
X6142416Y3848292D01*
X6133932Y3839808D01*
X6129340Y3828723D01*
Y3827353D01*
X6128330Y3816630D01*
X6117607Y3815619D01*
X6116236D01*
X6105151Y3811028D01*
X6096667Y3802544D01*
X6092075Y3791459D01*
Y3779460D01*
X6096667Y3768375D01*
X6105151Y3759891D01*
X6116236Y3755299D01*
X6128235D01*
X6139320Y3759891D01*
X6147804Y3768375D01*
X6152395Y3779460D01*
Y3780831D01*
X6153406Y3791554D01*
X6164129Y3792564D01*
X6165499D01*
X6176584Y3797155D01*
X6185068Y3805640D01*
X6189660Y3816725D01*
Y3828723D01*
X6185068Y3839808D01*
X6176584Y3848292D01*
X6165499Y3852884D01*
D02*
G37*
G36*
X2063189Y3797190D02*
X2051191D01*
X2040106Y3792598D01*
X2031622Y3784114D01*
X2027030Y3773029D01*
Y3761031D01*
X2031622Y3749946D01*
X2040106Y3741462D01*
X2051191Y3736870D01*
X2063189D01*
X2074274Y3741462D01*
X2082758Y3749946D01*
X2087350Y3761031D01*
Y3773029D01*
X2082758Y3784114D01*
X2074274Y3792598D01*
X2063189Y3797190D01*
D02*
G37*
G36*
X6020719Y3817324D02*
X6008721D01*
X5997636Y3812732D01*
X5989152Y3804248D01*
X5984560Y3793163D01*
Y3791793D01*
X5983550Y3781070D01*
X5972827Y3780059D01*
X5971456D01*
X5960371Y3775468D01*
X5951887Y3766984D01*
X5947295Y3755899D01*
Y3743900D01*
X5951887Y3732815D01*
X5960371Y3724331D01*
X5971456Y3719739D01*
X5983455D01*
X5994540Y3724331D01*
X6003024Y3732815D01*
X6007615Y3743900D01*
Y3745271D01*
X6008626Y3755994D01*
X6019349Y3757004D01*
X6020719D01*
X6031804Y3761595D01*
X6040288Y3770080D01*
X6044880Y3781165D01*
Y3793163D01*
X6040288Y3804248D01*
X6031804Y3812732D01*
X6020719Y3817324D01*
D02*
G37*
G36*
X2174949Y3690510D02*
X2162951D01*
X2151866Y3685918D01*
X2143382Y3677434D01*
X2138790Y3666349D01*
Y3654351D01*
X2143382Y3643266D01*
X2151866Y3634782D01*
X2162951Y3630190D01*
X2174949D01*
X2186034Y3634782D01*
X2194518Y3643266D01*
X2199110Y3654351D01*
Y3666349D01*
X2194518Y3677434D01*
X2186034Y3685918D01*
X2174949Y3690510D01*
D02*
G37*
G36*
X1956509D02*
X1944511D01*
X1933426Y3685918D01*
X1924942Y3677434D01*
X1920350Y3666349D01*
Y3654351D01*
X1924942Y3643266D01*
X1933426Y3634782D01*
X1944511Y3630190D01*
X1956509D01*
X1967594Y3634782D01*
X1976078Y3643266D01*
X1980670Y3654351D01*
Y3666349D01*
X1976078Y3677434D01*
X1967594Y3685918D01*
X1956509Y3690510D01*
D02*
G37*
G36*
X5425353Y3732286D02*
X5406879D01*
X5389035Y3727505D01*
X5373037Y3718268D01*
X5359974Y3705205D01*
X5350737Y3689207D01*
X5345956Y3671363D01*
Y3652889D01*
X5350737Y3635045D01*
X5359974Y3619047D01*
X5373037Y3605984D01*
X5389035Y3596747D01*
X5406879Y3591966D01*
X5425353D01*
X5443197Y3596747D01*
X5459195Y3605984D01*
X5472258Y3619047D01*
X5481494Y3635045D01*
X5486276Y3652889D01*
Y3671363D01*
X5481494Y3689207D01*
X5472258Y3705205D01*
X5459195Y3718268D01*
X5443197Y3727505D01*
X5425353Y3732286D01*
D02*
G37*
G36*
X1625353D02*
X1606879D01*
X1589035Y3727505D01*
X1573037Y3718268D01*
X1559974Y3705205D01*
X1550737Y3689207D01*
X1545956Y3671363D01*
Y3652889D01*
X1550737Y3635045D01*
X1559974Y3619047D01*
X1573037Y3605984D01*
X1589035Y3596747D01*
X1606879Y3591966D01*
X1625353D01*
X1643197Y3596747D01*
X1659195Y3605984D01*
X1672258Y3619047D01*
X1681494Y3635045D01*
X1686276Y3652889D01*
Y3671363D01*
X1681494Y3689207D01*
X1672258Y3705205D01*
X1659195Y3718268D01*
X1643197Y3727505D01*
X1625353Y3732286D01*
D02*
G37*
G36*
X1847289Y3583830D02*
X1835291D01*
X1824206Y3579238D01*
X1815722Y3570754D01*
X1811130Y3559669D01*
Y3547671D01*
X1815722Y3536586D01*
X1824206Y3528102D01*
X1835291Y3523510D01*
X1847289D01*
X1858374Y3528102D01*
X1866858Y3536586D01*
X1871450Y3547671D01*
Y3559669D01*
X1866858Y3570754D01*
X1858374Y3579238D01*
X1847289Y3583830D01*
D02*
G37*
G36*
X2063189Y3576210D02*
X2051191D01*
X2040106Y3571618D01*
X2031622Y3563134D01*
X2027030Y3552049D01*
Y3540051D01*
X2031622Y3528966D01*
X2040106Y3520482D01*
X2051191Y3515890D01*
X2063189D01*
X2074274Y3520482D01*
X2082758Y3528966D01*
X2087350Y3540051D01*
Y3552049D01*
X2082758Y3563134D01*
X2074274Y3571618D01*
X2063189Y3576210D01*
D02*
G37*
G36*
X5983455Y3565005D02*
X5971456D01*
X5960371Y3560413D01*
X5951887Y3551929D01*
X5947295Y3540844D01*
Y3528845D01*
X5951887Y3517760D01*
X5960371Y3509276D01*
X5971456Y3504685D01*
X5972827D01*
X5983550Y3503674D01*
X5984560Y3492951D01*
Y3491581D01*
X5989152Y3480496D01*
X5997636Y3472012D01*
X6008721Y3467420D01*
X6020719D01*
X6031804Y3472012D01*
X6040288Y3480496D01*
X6044880Y3491581D01*
Y3503579D01*
X6040288Y3514664D01*
X6031804Y3523148D01*
X6020719Y3527740D01*
X6019349D01*
X6008626Y3528750D01*
X6007615Y3539473D01*
Y3540844D01*
X6003024Y3551929D01*
X5994540Y3560413D01*
X5983455Y3565005D01*
D02*
G37*
G36*
X6371239Y3446460D02*
X6359241D01*
X6348156Y3441868D01*
X6339672Y3433384D01*
X6339093Y3431988D01*
X6325347D01*
X6324768Y3433384D01*
X6316284Y3441868D01*
X6305199Y3446460D01*
X6293201D01*
X6282116Y3441868D01*
X6273632Y3433384D01*
X6269040Y3422299D01*
Y3410301D01*
X6273632Y3399216D01*
X6282116Y3390732D01*
X6293201Y3386140D01*
X6305199D01*
X6316284Y3390732D01*
X6324768Y3399216D01*
X6325347Y3400612D01*
X6339093D01*
X6339672Y3399216D01*
X6348156Y3390732D01*
X6359241Y3386140D01*
X6371239D01*
X6382324Y3390732D01*
X6390808Y3399216D01*
X6395400Y3410301D01*
Y3422299D01*
X6390808Y3433384D01*
X6382324Y3441868D01*
X6371239Y3446460D01*
D02*
G37*
G36*
X6128235Y3529445D02*
X6116236D01*
X6105151Y3524853D01*
X6096667Y3516369D01*
X6092075Y3505284D01*
Y3493285D01*
X6096667Y3482200D01*
X6105151Y3473716D01*
X6116236Y3469125D01*
X6117607D01*
X6128330Y3468114D01*
X6129340Y3457391D01*
Y3456021D01*
X6133932Y3444936D01*
X6142416Y3436452D01*
X6153501Y3431860D01*
X6165499D01*
X6176584Y3436452D01*
X6185068Y3444936D01*
X6189660Y3456021D01*
Y3468019D01*
X6185068Y3479104D01*
X6176584Y3487588D01*
X6165499Y3492180D01*
X6164129D01*
X6153406Y3493190D01*
X6152395Y3503913D01*
Y3505284D01*
X6147804Y3516369D01*
X6139320Y3524853D01*
X6128235Y3529445D01*
D02*
G37*
G36*
X1959049Y3477150D02*
X1947051D01*
X1935966Y3472558D01*
X1927482Y3464074D01*
X1922890Y3452989D01*
Y3440991D01*
X1927482Y3429906D01*
X1935966Y3421422D01*
X1947051Y3416830D01*
X1959049D01*
X1970134Y3421422D01*
X1978618Y3429906D01*
X1983210Y3440991D01*
Y3452989D01*
X1978618Y3464074D01*
X1970134Y3472558D01*
X1959049Y3477150D01*
D02*
G37*
G36*
X9246519Y3349940D02*
X9234521D01*
X9223436Y3345348D01*
X9215120Y3337033D01*
X9206804Y3345348D01*
X9195719Y3349940D01*
X9183721D01*
X9172636Y3345348D01*
X9164152Y3336864D01*
X9159560Y3325779D01*
Y3313781D01*
X9164152Y3302696D01*
X9172467Y3294380D01*
X9164152Y3286064D01*
X9159560Y3274979D01*
Y3262981D01*
X9164152Y3251896D01*
X9172467Y3243580D01*
X9164152Y3235264D01*
X9159560Y3224179D01*
Y3212181D01*
X9164152Y3201096D01*
X9172636Y3192612D01*
X9183721Y3188020D01*
X9195719D01*
X9206804Y3192612D01*
X9215120Y3200927D01*
X9223436Y3192612D01*
X9234521Y3188020D01*
X9246519D01*
X9257604Y3192612D01*
X9266088Y3201096D01*
X9270680Y3212181D01*
Y3224179D01*
X9266088Y3235264D01*
X9257773Y3243580D01*
X9266088Y3251896D01*
X9270680Y3262981D01*
Y3274979D01*
X9266088Y3286064D01*
X9257773Y3294380D01*
X9266088Y3302696D01*
X9270680Y3313781D01*
Y3325779D01*
X9266088Y3336864D01*
X9257604Y3345348D01*
X9246519Y3349940D01*
D02*
G37*
%LPD*%
G36*
X7331962Y7038340D02*
X7334461Y7032306D01*
X7342945Y7023822D01*
X7354030Y7019231D01*
X7366028D01*
X7377114Y7023822D01*
X7385598Y7032306D01*
X7388097Y7038340D01*
X8199120Y7038340D01*
X8285546Y6951914D01*
X8285526Y6951275D01*
X8285526Y6951275D01*
X8285583Y6951138D01*
X8294802Y6942612D01*
X8296690Y6940469D01*
X8297758Y6939076D01*
X8304979Y6929171D01*
X8304979Y6929170D01*
X8312507Y6919855D01*
X8325373Y6888793D01*
X8328660Y6863830D01*
Y6301739D01*
X8209279Y6182359D01*
X8044179Y6182361D01*
X8031480Y6195060D01*
Y6233160D01*
X8045882Y6247563D01*
X8155940D01*
X8163716Y6250784D01*
X8196736Y6283804D01*
X8199957Y6291580D01*
Y6402783D01*
X8207416Y6409485D01*
X8211411Y6411416D01*
X8216534Y6409294D01*
X8228533D01*
X8239618Y6413885D01*
X8248102Y6422369D01*
X8252693Y6433454D01*
Y6445453D01*
X8248102Y6456538D01*
X8239618Y6465022D01*
X8228533Y6469613D01*
X8216534D01*
X8205449Y6465022D01*
X8196965Y6456538D01*
X8192374Y6445453D01*
Y6435980D01*
X8185215Y6431196D01*
X8180640Y6429752D01*
X8144077Y6466315D01*
Y6485292D01*
X8143684Y6486241D01*
Y6498239D01*
X8144077Y6499188D01*
Y6728460D01*
X8140856Y6736236D01*
X8021476Y6855616D01*
X8013700Y6858837D01*
X7746123D01*
X7745347Y6860093D01*
X7742230Y6871537D01*
X7748268Y6877576D01*
X7752860Y6888661D01*
Y6900659D01*
X7748268Y6911744D01*
X7739784Y6920228D01*
X7728699Y6924820D01*
X7716701D01*
X7705616Y6920228D01*
X7697131Y6911744D01*
X7692540Y6900659D01*
Y6888661D01*
X7697131Y6877576D01*
X7698394Y6876313D01*
X7696785Y6871365D01*
X7692166Y6864580D01*
X7682581D01*
X7678808Y6863017D01*
X7674674Y6864760D01*
X7669528Y6877576D01*
X7674120Y6888661D01*
Y6900659D01*
X7669528Y6911744D01*
X7661044Y6920228D01*
X7649959Y6924820D01*
X7637961D01*
X7626876Y6920228D01*
X7618391Y6911744D01*
X7613800Y6900659D01*
Y6888661D01*
X7618391Y6877576D01*
X7624430Y6871537D01*
X7621313Y6860093D01*
X7620536Y6858837D01*
X7597595D01*
X7596444Y6859988D01*
X7585359Y6864580D01*
X7575276D01*
X7571461Y6869750D01*
X7569049Y6876313D01*
X7570311Y6877576D01*
X7574903Y6888661D01*
Y6900659D01*
X7570311Y6911744D01*
X7561827Y6920228D01*
X7550742Y6924820D01*
X7538743D01*
X7527658Y6920228D01*
X7519174Y6911744D01*
X7514583Y6900659D01*
Y6888661D01*
X7519174Y6877576D01*
X7525213Y6871537D01*
X7522096Y6860093D01*
X7521319Y6858837D01*
X7332980D01*
X7325204Y6855616D01*
X7157564Y6687976D01*
X7154343Y6680200D01*
Y6105549D01*
X7142502Y6099428D01*
X7131418Y6104020D01*
X7119419D01*
X7108334Y6099428D01*
X7099850Y6090944D01*
X7095258Y6079859D01*
Y6067861D01*
X7099850Y6056776D01*
X7108334Y6048292D01*
X7119419Y6043700D01*
X7131418D01*
X7142502Y6048292D01*
X7154343Y6042171D01*
Y6012180D01*
X7157564Y6004404D01*
X7294724Y5867244D01*
X7302500Y5864023D01*
X7502873D01*
X7502992Y5863736D01*
X7511476Y5855252D01*
X7522561Y5850660D01*
X7534559D01*
X7545644Y5855252D01*
X7554128Y5863736D01*
X7554247Y5864023D01*
X7605080D01*
X7612856Y5867244D01*
X7616077Y5875020D01*
X7654403D01*
X7657624Y5867244D01*
X7665400Y5864023D01*
X7716233D01*
X7716352Y5863736D01*
X7724836Y5855252D01*
X7735921Y5850660D01*
X7747919D01*
X7759004Y5855252D01*
X7767488Y5863736D01*
X7767607Y5864023D01*
X7831697D01*
X7835880Y5865756D01*
X7836801D01*
X7845865Y5869510D01*
X7853489D01*
X7862553Y5865756D01*
X7863473D01*
X7867657Y5864023D01*
X7902465D01*
X8006734Y5759753D01*
X8001874Y5748020D01*
X7775766D01*
X7769305Y5760720D01*
X7772080Y5767421D01*
Y5779419D01*
X7767488Y5790504D01*
X7759004Y5798988D01*
X7747919Y5803580D01*
X7735921D01*
X7724836Y5798988D01*
X7716352Y5790504D01*
X7711760Y5779419D01*
Y5767421D01*
X7714535Y5760720D01*
X7708074Y5748020D01*
X7669086D01*
X7662625Y5760720D01*
X7665400Y5767421D01*
Y5779419D01*
X7660808Y5790504D01*
X7652324Y5798988D01*
X7641239Y5803580D01*
X7629241D01*
X7618156Y5798988D01*
X7609672Y5790504D01*
X7605080Y5779419D01*
Y5767421D01*
X7607855Y5760720D01*
X7601394Y5748020D01*
X7562406D01*
X7555945Y5760720D01*
X7558720Y5767421D01*
Y5779419D01*
X7554128Y5790504D01*
X7545644Y5798988D01*
X7534559Y5803580D01*
X7522561D01*
X7511476Y5798988D01*
X7502992Y5790504D01*
X7498400Y5779419D01*
Y5767421D01*
X7501175Y5760720D01*
X7494714Y5748020D01*
X7455726D01*
X7449265Y5760720D01*
X7452040Y5767421D01*
Y5779419D01*
X7447448Y5790504D01*
X7438964Y5798988D01*
X7427879Y5803580D01*
X7415881D01*
X7404796Y5798988D01*
X7396312Y5790504D01*
X7391720Y5779419D01*
Y5767421D01*
X7394495Y5760720D01*
X7388034Y5748020D01*
X7280567D01*
X7271700Y5759801D01*
Y5771799D01*
X7267108Y5782884D01*
X7258624Y5791368D01*
X7247539Y5795960D01*
X7235541D01*
X7224456Y5791368D01*
X7215972Y5782884D01*
X7211380Y5771799D01*
Y5770689D01*
X7199055Y5758895D01*
X7194989Y5759142D01*
X7180154Y5784841D01*
X7179552Y5785304D01*
X7179355Y5786038D01*
X7155414Y5817240D01*
X7154757Y5817620D01*
X7154466Y5818322D01*
X7126657Y5846131D01*
X7125955Y5846422D01*
X7125575Y5847079D01*
X7094373Y5871020D01*
X7093639Y5871217D01*
X7093176Y5871819D01*
X7059115Y5891481D01*
X7058362Y5891580D01*
X7057825Y5892118D01*
X7021489Y5907164D01*
X7020729D01*
X7020126Y5907626D01*
X6982137Y5917800D01*
X6974840Y5927472D01*
Y6426745D01*
X6987540Y6432005D01*
X6991628Y6427917D01*
X7002713Y6423325D01*
X7014712D01*
X7025797Y6427917D01*
X7034281Y6436401D01*
X7036520Y6441805D01*
X7047581Y6450970D01*
X7059579D01*
X7070664Y6455562D01*
X7079148Y6464046D01*
X7083740Y6475131D01*
Y6487129D01*
X7079148Y6498214D01*
X7078179Y6499183D01*
X7071311Y6507480D01*
X7078179Y6515777D01*
X7079148Y6516746D01*
X7083740Y6527831D01*
Y6539829D01*
X7079148Y6550914D01*
X7070664Y6559398D01*
X7059579Y6563990D01*
X7047581D01*
X7036316Y6562814D01*
X7031725Y6573899D01*
X7023240Y6582383D01*
X7012155Y6586974D01*
X7000157D01*
X6989072Y6582383D01*
X6987540Y6580851D01*
X6974840Y6586112D01*
Y6648977D01*
X6987540Y6656927D01*
X6991701Y6655204D01*
X7003699D01*
X7017106Y6647010D01*
X7018596Y6643413D01*
X7027080Y6634929D01*
X7038165Y6630337D01*
X7050163D01*
X7061249Y6634929D01*
X7069733Y6643413D01*
X7074324Y6654498D01*
Y6666496D01*
X7069733Y6677581D01*
X7061249Y6686065D01*
X7050163Y6690657D01*
X7038165D01*
X7024759Y6698850D01*
X7023268Y6702448D01*
X7022299Y6703417D01*
X7015431Y6711714D01*
X7022299Y6720010D01*
X7023268Y6720979D01*
X7026459Y6728682D01*
X7034881Y6738940D01*
X7046879D01*
X7057964Y6743532D01*
X7066448Y6752016D01*
X7071040Y6763101D01*
Y6775099D01*
X7066448Y6786184D01*
X7057964Y6794668D01*
X7046879Y6799260D01*
X7034881D01*
X7023796Y6794668D01*
X7015312Y6786184D01*
X7012121Y6778481D01*
X7003699Y6768223D01*
X6991701D01*
X6987540Y6766500D01*
X6974840Y6774450D01*
Y6896100D01*
X7117080Y7038340D01*
X7331962D01*
D02*
G37*
G36*
X8133080Y6728460D02*
Y6499188D01*
X8132687Y6498239D01*
Y6486241D01*
X8133080Y6485292D01*
Y6461760D01*
X8188960Y6405880D01*
Y6291580D01*
X8155940Y6258560D01*
X7726679Y6258560D01*
X7722447Y6254328D01*
X7714676Y6251108D01*
X7708966Y6245398D01*
X7701280Y6243706D01*
X7693594Y6245398D01*
X7687884Y6251108D01*
X7676799Y6255700D01*
X7664801D01*
X7653716Y6251108D01*
X7648006Y6245398D01*
X7640320Y6243706D01*
X7632634Y6245398D01*
X7626924Y6251108D01*
X7615839Y6255700D01*
X7603841D01*
X7592756Y6251108D01*
X7588842Y6247195D01*
X7580630Y6244028D01*
X7572418Y6247195D01*
X7568504Y6251108D01*
X7557419Y6255700D01*
X7545421D01*
X7534336Y6251108D01*
X7525852Y6242624D01*
X7521260Y6231539D01*
Y6219541D01*
X7525852Y6208456D01*
X7534336Y6199972D01*
X7545421Y6195380D01*
X7557419D01*
X7568504Y6199972D01*
X7572418Y6203885D01*
X7580630Y6207052D01*
X7588842Y6203885D01*
X7592756Y6199972D01*
X7603841Y6195380D01*
X7615839D01*
X7626924Y6199972D01*
X7632634Y6205682D01*
X7640320Y6207374D01*
X7648006Y6205682D01*
X7653716Y6199972D01*
X7664801Y6195380D01*
X7676799D01*
X7678420Y6196051D01*
X7691120Y6187565D01*
Y6012180D01*
X7687107Y5998232D01*
X7683127Y5994252D01*
X7678536Y5983167D01*
Y5971169D01*
X7683127Y5960084D01*
X7691611Y5951600D01*
X7702696Y5947008D01*
X7714695D01*
X7725780Y5951600D01*
X7734264Y5960084D01*
X7738855Y5971169D01*
Y5983167D01*
X7750589Y5986780D01*
X7814250D01*
X7818785Y5975832D01*
X7827269Y5967348D01*
X7838354Y5962757D01*
X7850352D01*
X7861437Y5967348D01*
X7869922Y5975832D01*
X7874456Y5986780D01*
X7894320D01*
X7960360Y6052820D01*
X8310880D01*
X8331200Y6032500D01*
Y5986780D01*
Y5773420D01*
X8305800Y5748020D01*
X8270628D01*
X8265360Y5755903D01*
Y5767902D01*
X8260769Y5778987D01*
X8252285Y5787471D01*
X8241200Y5792062D01*
X8229201D01*
X8218116Y5787471D01*
X8209632Y5778987D01*
X8205040Y5767902D01*
X8205040Y5755903D01*
X8194070Y5752780D01*
X8182986Y5748188D01*
X8182817Y5748020D01*
X8164623D01*
X8164454Y5748188D01*
X8154599Y5752270D01*
X8142920Y5757261D01*
X8142920Y5769259D01*
X8138328Y5780344D01*
X8129844Y5788828D01*
X8118759Y5793420D01*
X8106761D01*
X8095676Y5788828D01*
X8087192Y5780344D01*
X8082600Y5769259D01*
Y5757261D01*
X8076425Y5748020D01*
X8034020D01*
X7907020Y5875020D01*
X7867657D01*
X7866761Y5875916D01*
X7855676Y5880507D01*
X7843678D01*
X7832593Y5875916D01*
X7831697Y5875020D01*
X7665400D01*
Y5886819D01*
X7660808Y5897904D01*
X7652324Y5906388D01*
X7641239Y5910980D01*
X7629241D01*
X7618156Y5906388D01*
X7609672Y5897904D01*
X7605080Y5886819D01*
Y5875020D01*
X7302500D01*
X7165340Y6012180D01*
Y6680200D01*
X7332980Y6847840D01*
X8013700D01*
X8133080Y6728460D01*
D02*
G37*
G36*
X8019310Y6239850D02*
X8021188Y6234863D01*
X8020483Y6233160D01*
Y6195060D01*
X8023704Y6187284D01*
X8024859Y6186129D01*
X8019598Y6173429D01*
X7828280D01*
Y6174285D01*
X7792589Y6169586D01*
X7759330Y6155810D01*
X7744990Y6144806D01*
X7743256Y6145524D01*
X7731257D01*
X7720172Y6140933D01*
X7714817Y6135578D01*
X7702117Y6140003D01*
Y6187565D01*
X7701686Y6188606D01*
X7701906Y6189711D01*
X7700124Y6192378D01*
X7698896Y6195342D01*
X7697855Y6195773D01*
X7697229Y6196709D01*
X7684529Y6205195D01*
X7683424Y6205415D01*
X7682628Y6206212D01*
X7679420D01*
X7676274Y6206837D01*
X7675586Y6206377D01*
X7666988D01*
X7659945Y6209294D01*
X7655782Y6213458D01*
X7652915Y6214645D01*
X7650371Y6216421D01*
X7642685Y6218114D01*
X7640320Y6217693D01*
X7637955Y6218114D01*
X7630269Y6216421D01*
X7627725Y6214645D01*
X7624858Y6213458D01*
X7620695Y6209294D01*
X7613652Y6206377D01*
X7606028D01*
X7598985Y6209294D01*
X7596618Y6211662D01*
X7594477Y6212549D01*
X7592798Y6214146D01*
X7584586Y6217312D01*
X7580630Y6217215D01*
X7576674Y6217312D01*
X7568462Y6214146D01*
X7566783Y6212549D01*
X7564642Y6211662D01*
X7562275Y6209294D01*
X7555232Y6206377D01*
X7547608D01*
X7540565Y6209294D01*
X7535174Y6214685D01*
X7532257Y6221728D01*
Y6229352D01*
X7535174Y6236395D01*
X7540565Y6241786D01*
X7547608Y6244703D01*
X7555232D01*
X7562275Y6241786D01*
X7564642Y6239418D01*
X7566783Y6238531D01*
X7568462Y6236934D01*
X7576674Y6233768D01*
X7580630Y6233865D01*
X7584586Y6233768D01*
X7592798Y6236934D01*
X7594477Y6238531D01*
X7596618Y6239418D01*
X7598985Y6241786D01*
X7606028Y6244703D01*
X7613652D01*
X7620695Y6241786D01*
X7624858Y6237622D01*
X7627725Y6236435D01*
X7630269Y6234659D01*
X7637955Y6232966D01*
X7640320Y6233387D01*
X7642685Y6232966D01*
X7650371Y6234659D01*
X7652915Y6236435D01*
X7655782Y6237622D01*
X7659945Y6241786D01*
X7666988Y6244703D01*
X7674612D01*
X7681655Y6241786D01*
X7685818Y6237622D01*
X7688685Y6236435D01*
X7691229Y6234659D01*
X7698915Y6232966D01*
X7701280Y6233387D01*
X7703645Y6232966D01*
X7711331Y6234659D01*
X7713875Y6236435D01*
X7716742Y6237622D01*
X7720905Y6241786D01*
X7726656Y6244168D01*
X7728202Y6245714D01*
X7730224Y6246551D01*
X7731235Y6247563D01*
X8013737Y6247563D01*
X8019310Y6239850D01*
D02*
G37*
G36*
X8298180Y5377180D02*
Y5156200D01*
X8234680Y5092700D01*
X7991216D01*
Y5098699D01*
X7986625Y5109784D01*
X7978141Y5118268D01*
X7967055Y5122860D01*
X7955057D01*
X7943972Y5118268D01*
X7943003Y5117299D01*
X7934706Y5110431D01*
X7926410Y5117299D01*
X7925441Y5118268D01*
X7914356Y5122860D01*
X7902357D01*
X7891272Y5118268D01*
X7882788Y5109784D01*
X7878196Y5098699D01*
Y5092700D01*
X7739380D01*
X7642860Y4996180D01*
Y4823460D01*
X7701280Y4765040D01*
X7808515D01*
X7810332Y4760656D01*
X7818647Y4752340D01*
X7810332Y4744024D01*
X7805740Y4732939D01*
Y4720941D01*
X7810332Y4709856D01*
X7818816Y4701372D01*
X7823278Y4699523D01*
Y4685777D01*
X7818816Y4683928D01*
X7810332Y4675444D01*
X7805740Y4664359D01*
Y4652361D01*
X7810332Y4641276D01*
X7818647Y4632960D01*
X7810332Y4624644D01*
X7805740Y4613559D01*
Y4601561D01*
X7810332Y4590476D01*
X7818816Y4581992D01*
X7829901Y4577400D01*
X7841899D01*
X7852984Y4581992D01*
X7854273Y4583281D01*
X7862570Y4589632D01*
X7870867Y4583281D01*
X7872156Y4581992D01*
X7883241Y4577400D01*
X7895239D01*
X7906324Y4581992D01*
X7914808Y4590476D01*
X7919400Y4601561D01*
Y4613559D01*
X7914808Y4624644D01*
X7906493Y4632960D01*
X7914808Y4641276D01*
X7919400Y4652361D01*
Y4664359D01*
X7914808Y4675444D01*
X7906324Y4683928D01*
X7901862Y4685777D01*
Y4699523D01*
X7906324Y4701372D01*
X7914808Y4709856D01*
X7919400Y4720941D01*
Y4732939D01*
X7914808Y4744024D01*
X7906493Y4752340D01*
X7914808Y4760656D01*
X7916625Y4765040D01*
X8038603D01*
X8041472Y4758116D01*
X8049787Y4749800D01*
X8041472Y4741484D01*
X8036880Y4730399D01*
Y4718401D01*
X8041472Y4707316D01*
X8049956Y4698832D01*
X8054418Y4696983D01*
Y4683237D01*
X8049956Y4681388D01*
X8041472Y4672904D01*
X8036880Y4661819D01*
Y4649821D01*
X8041472Y4638736D01*
X8049787Y4630420D01*
X8041472Y4622104D01*
X8036880Y4611019D01*
Y4599021D01*
X8041472Y4587936D01*
X8049956Y4579452D01*
X8061041Y4574860D01*
X8073039D01*
X8084124Y4579452D01*
X8085413Y4580741D01*
X8093710Y4587092D01*
X8102007Y4580741D01*
X8103296Y4579452D01*
X8114381Y4574860D01*
X8126379D01*
X8137464Y4579452D01*
X8145948Y4587936D01*
X8150540Y4599021D01*
Y4611019D01*
X8145948Y4622104D01*
X8137633Y4630420D01*
X8145948Y4638736D01*
X8150540Y4649821D01*
Y4661819D01*
X8145948Y4672904D01*
X8137464Y4681388D01*
X8133002Y4683237D01*
Y4696983D01*
X8137464Y4698832D01*
X8145948Y4707316D01*
X8150540Y4718401D01*
Y4730399D01*
X8145948Y4741484D01*
X8137633Y4749800D01*
X8145948Y4758116D01*
X8150540Y4769201D01*
Y4769800D01*
X8235630Y4854890D01*
X8441370D01*
X8579155Y4992675D01*
X8589263Y4990508D01*
X8595623Y4979020D01*
X8591081Y4973532D01*
X8590112Y4972563D01*
X8585520Y4961478D01*
Y4949480D01*
X8590112Y4938395D01*
X8598596Y4929911D01*
X8609681Y4925319D01*
X8621679D01*
X8632764Y4929911D01*
X8641248Y4938395D01*
X8645840Y4949480D01*
Y4961478D01*
X8641248Y4972563D01*
X8640279Y4973532D01*
X8633411Y4981829D01*
X8640279Y4990126D01*
X8641248Y4991095D01*
X8645840Y5002180D01*
Y5014178D01*
X8644486Y5017446D01*
X8652959Y5030147D01*
X9185534D01*
X9185962Y5030232D01*
X9218455Y5025954D01*
X9249131Y5013247D01*
X9275073Y4993342D01*
X9275288Y4993020D01*
X9275340Y4992985D01*
X9275374Y4992934D01*
X9275425Y4992900D01*
X9275460Y4992848D01*
X9275782Y4992633D01*
X9295687Y4966691D01*
X9308394Y4936015D01*
X9311640Y4911359D01*
Y4330700D01*
X9222740Y4241800D01*
X8722360D01*
X8498840Y4018280D01*
X7673340D01*
X7452360Y4239260D01*
Y5212080D01*
X7683500Y5443220D01*
X7803407D01*
X7806116Y5440512D01*
X7817201Y5435920D01*
X7829199D01*
X7840284Y5440512D01*
X7842993Y5443220D01*
X8232140D01*
X8298180Y5377180D01*
D02*
G37*
G36*
X8425180Y5532120D02*
X8425180Y5412740D01*
X8389620Y5377180D01*
X8309177D01*
X8305956Y5384956D01*
X8239916Y5450996D01*
X8232140Y5454217D01*
X7857278D01*
X7853360Y5460081D01*
Y5472079D01*
X7848768Y5483164D01*
X7840284Y5491648D01*
X7829199Y5496240D01*
X7817201D01*
X7806116Y5491648D01*
X7797632Y5483164D01*
X7793040Y5472079D01*
Y5460081D01*
X7789122Y5454217D01*
X7683500D01*
X7675724Y5450996D01*
X7444584Y5219856D01*
X7441363Y5212080D01*
Y4239260D01*
X7444584Y4231484D01*
X7665564Y4010504D01*
X7673340Y4007283D01*
X7751590D01*
X7754579Y4003511D01*
X7758421Y3994583D01*
X7754940Y3986179D01*
Y3974181D01*
X7759532Y3963096D01*
X7768016Y3954612D01*
X7779101Y3950020D01*
X7791099D01*
X7802184Y3954612D01*
X7810668Y3963096D01*
X7815260Y3974181D01*
Y3986179D01*
X7811779Y3994583D01*
X7815621Y4003511D01*
X7818610Y4007283D01*
X8498840D01*
X8506616Y4010504D01*
X8726915Y4230803D01*
X9222740D01*
X9230516Y4234024D01*
X9300853Y4304361D01*
X9312587Y4299501D01*
Y4135528D01*
X9312139D01*
X9314180Y4125265D01*
Y4023360D01*
X9223750Y3932930D01*
X9202915Y3924300D01*
X8872220D01*
X8727440Y3779520D01*
X7462520D01*
X7226300Y4015740D01*
Y4450909D01*
X7226415Y4451109D01*
X7231542Y4490102D01*
X7231345Y4490836D01*
X7231636Y4491538D01*
X7231632Y4511202D01*
X7231632Y5349492D01*
X7500620Y5618480D01*
X8338820D01*
X8425180Y5532120D01*
D02*
G37*
G36*
X8210178Y4844991D02*
X8142764Y4777576D01*
X8141503Y4774532D01*
X8140380Y4773409D01*
X8136626Y4764345D01*
X8129856Y4757576D01*
X8126636Y4749800D01*
X8129856Y4742024D01*
X8136626Y4735255D01*
X8139543Y4728212D01*
Y4720588D01*
X8136626Y4713545D01*
X8131235Y4708154D01*
X8128793Y4707143D01*
X8127247Y4705597D01*
X8125226Y4704759D01*
X8124389Y4702739D01*
X8122842Y4701192D01*
Y4699004D01*
X8122005Y4696983D01*
Y4683237D01*
X8122842Y4681216D01*
Y4679028D01*
X8124389Y4677482D01*
X8125226Y4675461D01*
X8127247Y4674623D01*
X8128793Y4673077D01*
X8131235Y4672066D01*
X8136626Y4666675D01*
X8139543Y4659632D01*
Y4652008D01*
X8136626Y4644965D01*
X8129856Y4638196D01*
X8126636Y4630420D01*
X8129856Y4622644D01*
X8136626Y4615875D01*
X8139543Y4608832D01*
Y4601208D01*
X8136626Y4594165D01*
X8131235Y4588774D01*
X8124192Y4585857D01*
X8116568D01*
X8108960Y4589008D01*
X8108692Y4589473D01*
X8100395Y4595824D01*
X8097633Y4596561D01*
X8095158Y4597994D01*
X8093709Y4597608D01*
X8092262Y4597994D01*
X8089788Y4596562D01*
X8087025Y4595824D01*
X8078728Y4589473D01*
X8078460Y4589008D01*
X8070852Y4585857D01*
X8063228D01*
X8056185Y4588774D01*
X8050794Y4594165D01*
X8047877Y4601208D01*
Y4608832D01*
X8050794Y4615875D01*
X8057564Y4622644D01*
X8060784Y4630420D01*
X8057564Y4638196D01*
X8050794Y4644965D01*
X8047877Y4652008D01*
Y4659632D01*
X8050794Y4666675D01*
X8056185Y4672066D01*
X8058627Y4673077D01*
X8060173Y4674623D01*
X8062194Y4675461D01*
X8063031Y4677481D01*
X8064578Y4679028D01*
Y4681216D01*
X8065415Y4683237D01*
Y4696983D01*
X8064578Y4699004D01*
Y4701192D01*
X8063031Y4702738D01*
X8062194Y4704759D01*
X8060173Y4705597D01*
X8058627Y4707143D01*
X8056185Y4708154D01*
X8050794Y4713545D01*
X8047877Y4720588D01*
Y4728212D01*
X8050794Y4735255D01*
X8057564Y4742024D01*
X8060784Y4749800D01*
X8057564Y4757576D01*
X8050794Y4764345D01*
X8048763Y4769249D01*
X8047217Y4770795D01*
X8046380Y4772816D01*
X8044359Y4773653D01*
X8042812Y4775200D01*
X8040625D01*
X8038603Y4776037D01*
X7916625D01*
X7914603Y4775200D01*
X7912416D01*
X7910870Y4773653D01*
X7908848Y4772816D01*
X7908011Y4770795D01*
X7906465Y4769249D01*
X7905486Y4766885D01*
X7898716Y4760116D01*
X7895496Y4752340D01*
X7898716Y4744564D01*
X7905486Y4737795D01*
X7908403Y4730752D01*
Y4723128D01*
X7905486Y4716085D01*
X7900095Y4710694D01*
X7897653Y4709683D01*
X7896107Y4708137D01*
X7894086Y4707299D01*
X7893249Y4705279D01*
X7891702Y4703732D01*
Y4701544D01*
X7890865Y4699523D01*
Y4685777D01*
X7891702Y4683756D01*
Y4681568D01*
X7893249Y4680022D01*
X7894086Y4678001D01*
X7896107Y4677163D01*
X7897653Y4675617D01*
X7900095Y4674606D01*
X7905486Y4669215D01*
X7908403Y4662172D01*
Y4654548D01*
X7905486Y4647505D01*
X7898716Y4640736D01*
X7895496Y4632960D01*
X7898716Y4625184D01*
X7905486Y4618415D01*
X7908403Y4611372D01*
Y4603748D01*
X7905486Y4596705D01*
X7900095Y4591314D01*
X7893052Y4588397D01*
X7885428D01*
X7877820Y4591548D01*
X7877552Y4592013D01*
X7869255Y4598364D01*
X7866493Y4599101D01*
X7864018Y4600534D01*
X7862569Y4600148D01*
X7861122Y4600534D01*
X7858648Y4599102D01*
X7855885Y4598364D01*
X7847588Y4592013D01*
X7847320Y4591548D01*
X7839712Y4588397D01*
X7832088D01*
X7825045Y4591314D01*
X7819654Y4596705D01*
X7816737Y4603748D01*
Y4611372D01*
X7819654Y4618415D01*
X7826424Y4625184D01*
X7829644Y4632960D01*
X7826424Y4640736D01*
X7819654Y4647505D01*
X7816737Y4654548D01*
Y4662172D01*
X7819654Y4669215D01*
X7825045Y4674606D01*
X7827487Y4675617D01*
X7829033Y4677163D01*
X7831054Y4678001D01*
X7831891Y4680021D01*
X7833438Y4681568D01*
Y4683756D01*
X7834275Y4685777D01*
Y4699523D01*
X7833438Y4701544D01*
Y4703732D01*
X7831891Y4705278D01*
X7831054Y4707299D01*
X7829033Y4708137D01*
X7827487Y4709683D01*
X7825045Y4710694D01*
X7819654Y4716085D01*
X7816737Y4723128D01*
Y4730752D01*
X7819654Y4737795D01*
X7826424Y4744564D01*
X7829644Y4752340D01*
X7826424Y4760116D01*
X7819654Y4766885D01*
X7818675Y4769249D01*
X7817129Y4770795D01*
X7816292Y4772816D01*
X7814271Y4773653D01*
X7812724Y4775200D01*
X7810536D01*
X7808515Y4776037D01*
X7796923D01*
X7790551Y4787679D01*
X7794958Y4799783D01*
X7806698Y4802118D01*
Y4802182D01*
X8085235D01*
Y4801511D01*
X8115296Y4805469D01*
X8143309Y4817072D01*
X8167364Y4835531D01*
Y4835530D01*
X8167401Y4836085D01*
X8183959Y4848790D01*
X8203630Y4856938D01*
X8204246Y4857019D01*
X8210178Y4844991D01*
D02*
G37*
%LPC*%
G36*
X7880949Y6992300D02*
X7868951D01*
X7857866Y6987708D01*
X7856897Y6986739D01*
X7848600Y6979871D01*
X7840303Y6986739D01*
X7839334Y6987708D01*
X7828249Y6992300D01*
X7816251D01*
X7805166Y6987708D01*
X7796682Y6979225D01*
X7789755Y6977847D01*
X7787134Y6980467D01*
X7776049Y6985059D01*
X7764051D01*
X7752965Y6980467D01*
X7744481Y6971983D01*
X7739890Y6960898D01*
Y6948900D01*
X7744481Y6937815D01*
X7752965Y6929331D01*
X7764051Y6924739D01*
X7776049D01*
X7787134Y6929331D01*
X7795618Y6937814D01*
X7802545Y6939192D01*
X7805166Y6936572D01*
X7816251Y6931980D01*
X7828249D01*
X7839334Y6936572D01*
X7840303Y6937541D01*
X7848600Y6944409D01*
X7856897Y6937541D01*
X7857866Y6936572D01*
X7868951Y6931980D01*
X7880949D01*
X7892034Y6936572D01*
X7894655Y6939192D01*
X7901582Y6937814D01*
X7910066Y6929331D01*
X7921151Y6924739D01*
X7933149D01*
X7944234Y6929331D01*
X7952718Y6937815D01*
X7957310Y6948900D01*
Y6960898D01*
X7952718Y6971983D01*
X7944234Y6980467D01*
X7933149Y6985059D01*
X7921151D01*
X7910066Y6980467D01*
X7907445Y6977847D01*
X7900518Y6979225D01*
X7892034Y6987708D01*
X7880949Y6992300D01*
D02*
G37*
G36*
X8014619Y6989760D02*
X8002621D01*
X7991536Y6985168D01*
X7983052Y6976684D01*
X7978460Y6965599D01*
Y6953601D01*
X7983052Y6942516D01*
X7991536Y6934032D01*
X8002621Y6929440D01*
X8014619D01*
X8025704Y6934032D01*
X8034188Y6942516D01*
X8038780Y6953601D01*
Y6965599D01*
X8034188Y6976684D01*
X8025704Y6985168D01*
X8014619Y6989760D01*
D02*
G37*
G36*
X7233190Y6917749D02*
X7221192D01*
X7210106Y6913158D01*
X7201622Y6904674D01*
X7197031Y6893588D01*
Y6881590D01*
X7201622Y6870505D01*
X7210106Y6862021D01*
X7221192Y6857429D01*
X7233190D01*
X7244275Y6862021D01*
X7252759Y6870505D01*
X7257351Y6881590D01*
Y6893588D01*
X7252759Y6904674D01*
X7244275Y6913158D01*
X7233190Y6917749D01*
D02*
G37*
G36*
X8229086Y6579713D02*
X8217088D01*
X8206003Y6575121D01*
X8197519Y6566637D01*
X8192927Y6555552D01*
Y6543554D01*
X8197519Y6532469D01*
X8206003Y6523985D01*
X8217088Y6519393D01*
X8229086D01*
X8240171Y6523985D01*
X8248655Y6532469D01*
X8253247Y6543554D01*
Y6555552D01*
X8248655Y6566637D01*
X8240171Y6575121D01*
X8229086Y6579713D01*
D02*
G37*
G36*
X7090059Y6375080D02*
X7078061D01*
X7066976Y6370488D01*
X7058492Y6362004D01*
X7053900Y6350919D01*
Y6338921D01*
X7058492Y6327836D01*
X7066976Y6319352D01*
X7078061Y6314760D01*
X7090059D01*
X7101144Y6319352D01*
X7109628Y6327836D01*
X7114220Y6338921D01*
Y6350919D01*
X7109628Y6362004D01*
X7101144Y6370488D01*
X7090059Y6375080D01*
D02*
G37*
G36*
X7059579Y6296650D02*
X7047581D01*
X7036496Y6292058D01*
X7028012Y6283574D01*
X7023420Y6272489D01*
Y6260490D01*
X7028012Y6249405D01*
X7028977Y6248440D01*
X7035845Y6240136D01*
X7028977Y6231847D01*
X7028005Y6230874D01*
X7023413Y6219789D01*
Y6207791D01*
X7028005Y6196706D01*
X7028974Y6195737D01*
X7035842Y6187440D01*
X7028974Y6179143D01*
X7028005Y6178174D01*
X7023413Y6167089D01*
Y6155091D01*
X7027714Y6144708D01*
X7031415Y6132495D01*
X7022932Y6124010D01*
X7018340Y6112925D01*
Y6100927D01*
X7022932Y6089842D01*
X7031416Y6081358D01*
X7042501Y6076766D01*
X7054499D01*
X7065584Y6081358D01*
X7074068Y6089842D01*
X7078660Y6100927D01*
Y6112925D01*
X7074359Y6123308D01*
X7070658Y6135521D01*
X7079142Y6144006D01*
X7083733Y6155091D01*
Y6167089D01*
X7079142Y6178174D01*
X7078173Y6179143D01*
X7071305Y6187440D01*
X7078173Y6195737D01*
X7079142Y6196706D01*
X7083733Y6207791D01*
Y6219789D01*
X7079142Y6230874D01*
X7078176Y6231839D01*
X7071308Y6240143D01*
X7078176Y6248433D01*
X7079149Y6249405D01*
X7083740Y6260490D01*
Y6272489D01*
X7079149Y6283574D01*
X7070665Y6292058D01*
X7059579Y6296650D01*
D02*
G37*
G36*
X7131418Y6003522D02*
X7119419D01*
X7108334Y5998930D01*
X7099850Y5990446D01*
X7095258Y5979361D01*
Y5967362D01*
X7099850Y5956277D01*
X7108334Y5947793D01*
X7119419Y5943202D01*
X7131418D01*
X7142503Y5947793D01*
X7150987Y5956277D01*
X7155578Y5967362D01*
Y5979361D01*
X7150987Y5990446D01*
X7142503Y5998930D01*
X7131418Y6003522D01*
D02*
G37*
G36*
X7278122Y6743278D02*
X7266123D01*
X7255038Y6738686D01*
X7246554Y6730202D01*
X7241962Y6719117D01*
Y6707118D01*
X7246554Y6696033D01*
X7255038Y6687549D01*
X7266123Y6682958D01*
X7278122D01*
X7289207Y6687549D01*
X7297691Y6696033D01*
X7302282Y6707118D01*
Y6719117D01*
X7297691Y6730202D01*
X7289207Y6738686D01*
X7278122Y6743278D01*
D02*
G37*
G36*
X7718389Y6608760D02*
X7706391D01*
X7695306Y6604168D01*
X7694337Y6603199D01*
X7686040Y6596331D01*
X7677743Y6603199D01*
X7676774Y6604168D01*
X7665689Y6608760D01*
X7653691D01*
X7642606Y6604168D01*
X7634122Y6595684D01*
X7629530Y6584599D01*
Y6572601D01*
X7631895Y6566891D01*
X7628824Y6562295D01*
X7617739Y6557704D01*
X7609255Y6549220D01*
X7604663Y6538135D01*
Y6526136D01*
X7609255Y6515051D01*
X7617739Y6506567D01*
X7628824Y6501976D01*
X7640823D01*
X7651908Y6506567D01*
X7660392Y6515051D01*
X7664983Y6526136D01*
Y6538135D01*
X7662618Y6543844D01*
X7665690Y6548440D01*
X7676774Y6553032D01*
X7677743Y6554001D01*
X7686040Y6560869D01*
X7694337Y6554001D01*
X7695306Y6553032D01*
X7706390Y6548440D01*
X7709462Y6543844D01*
X7707097Y6538135D01*
Y6526136D01*
X7711688Y6515051D01*
X7720172Y6506567D01*
X7731257Y6501976D01*
X7743256D01*
X7754341Y6506567D01*
X7762825Y6515051D01*
X7767417Y6526136D01*
Y6538135D01*
X7762825Y6549220D01*
X7754341Y6557704D01*
X7743256Y6562295D01*
X7740185Y6566891D01*
X7742550Y6572601D01*
Y6584599D01*
X7737958Y6595684D01*
X7729474Y6604168D01*
X7718389Y6608760D01*
D02*
G37*
G36*
X7836819Y6486840D02*
X7824821D01*
X7813736Y6482248D01*
X7806230Y6474742D01*
X7799070Y6474218D01*
X7791910Y6474742D01*
X7784404Y6482248D01*
X7773319Y6486840D01*
X7761321D01*
X7750236Y6482248D01*
X7743147Y6475159D01*
X7737423Y6474082D01*
X7728410Y6474742D01*
X7721910Y6481242D01*
X7710825Y6485834D01*
X7698827D01*
X7687742Y6481242D01*
X7679258Y6472758D01*
X7674666Y6461673D01*
Y6449675D01*
X7679258Y6438590D01*
X7687742Y6430106D01*
X7698827Y6425514D01*
X7710825D01*
X7721910Y6430106D01*
X7729000Y6437195D01*
X7734723Y6438272D01*
X7743736Y6437611D01*
X7750236Y6431112D01*
X7761321Y6426520D01*
X7773319D01*
X7784404Y6431112D01*
X7791910Y6438618D01*
X7799070Y6439142D01*
X7806230Y6438618D01*
X7813736Y6431112D01*
X7824821Y6426520D01*
X7836819D01*
X7847904Y6431112D01*
X7856388Y6439596D01*
X7860980Y6450681D01*
Y6462679D01*
X7856388Y6473764D01*
X7847904Y6482248D01*
X7836819Y6486840D01*
D02*
G37*
G36*
X7806339Y6375080D02*
X7794341D01*
X7783256Y6370488D01*
X7774772Y6362004D01*
X7772397Y6356272D01*
X7758651D01*
X7757328Y6359464D01*
X7748844Y6367948D01*
X7737759Y6372540D01*
X7725761D01*
X7714676Y6367948D01*
X7708966Y6362238D01*
X7701280Y6360546D01*
X7693594Y6362238D01*
X7687884Y6367948D01*
X7676799Y6372540D01*
X7664801D01*
X7653716Y6367948D01*
X7648006Y6362238D01*
X7640320Y6360546D01*
X7632634Y6362238D01*
X7626924Y6367948D01*
X7615839Y6372540D01*
X7603841D01*
X7592756Y6367948D01*
X7588842Y6364035D01*
X7580630Y6360868D01*
X7572418Y6364035D01*
X7568504Y6367948D01*
X7557419Y6372540D01*
X7545421D01*
X7534336Y6367948D01*
X7525852Y6359464D01*
X7521260Y6348379D01*
Y6336381D01*
X7525852Y6325296D01*
X7534336Y6316812D01*
X7545421Y6312220D01*
X7557419D01*
X7568504Y6316812D01*
X7572418Y6320725D01*
X7580630Y6323892D01*
X7588842Y6320725D01*
X7592756Y6316812D01*
X7603841Y6312220D01*
X7615839D01*
X7626924Y6316812D01*
X7632634Y6322522D01*
X7640320Y6324214D01*
X7648006Y6322522D01*
X7653716Y6316812D01*
X7664801Y6312220D01*
X7676799D01*
X7687884Y6316812D01*
X7693594Y6322522D01*
X7701280Y6324214D01*
X7708966Y6322522D01*
X7714676Y6316812D01*
X7725761Y6312220D01*
X7737759D01*
X7748844Y6316812D01*
X7757328Y6325296D01*
X7759703Y6331028D01*
X7773449D01*
X7774772Y6327836D01*
X7783256Y6319352D01*
X7794341Y6314760D01*
X7806339D01*
X7817424Y6319352D01*
X7825908Y6327836D01*
X7830500Y6338921D01*
Y6350919D01*
X7825908Y6362004D01*
X7817424Y6370488D01*
X7806339Y6375080D01*
D02*
G37*
G36*
X7476139Y6234130D02*
X7464141D01*
X7453056Y6229538D01*
X7444572Y6221054D01*
X7439980Y6209969D01*
Y6197971D01*
X7444572Y6186886D01*
X7445541Y6185917D01*
X7452409Y6177620D01*
X7445541Y6169323D01*
X7444572Y6168354D01*
X7439980Y6157269D01*
Y6145271D01*
X7444572Y6134186D01*
X7453056Y6125702D01*
X7464141Y6121110D01*
X7476139D01*
X7487224Y6125702D01*
X7495708Y6134186D01*
X7500300Y6145271D01*
Y6157269D01*
X7495708Y6168354D01*
X7494739Y6169323D01*
X7487871Y6177620D01*
X7494739Y6185917D01*
X7495708Y6186886D01*
X7500300Y6197971D01*
Y6209969D01*
X7495708Y6221054D01*
X7487224Y6229538D01*
X7476139Y6234130D01*
D02*
G37*
G36*
X8060339Y5973760D02*
X8048341D01*
X8037256Y5969168D01*
X8028772Y5960684D01*
X8024180Y5949599D01*
Y5937601D01*
X8028772Y5926516D01*
X8037256Y5918032D01*
X8038652Y5917453D01*
Y5903707D01*
X8037256Y5903128D01*
X8028772Y5894644D01*
X8024180Y5883559D01*
Y5871561D01*
X8028772Y5860476D01*
X8032685Y5856562D01*
X8035852Y5848350D01*
X8032685Y5840138D01*
X8028772Y5836224D01*
X8024180Y5825139D01*
Y5813141D01*
X8028772Y5802056D01*
X8037256Y5793572D01*
X8048341Y5788980D01*
X8060339D01*
X8071424Y5793572D01*
X8079908Y5802056D01*
X8084500Y5813141D01*
Y5825139D01*
X8079908Y5836224D01*
X8075995Y5840138D01*
X8072828Y5848350D01*
X8075995Y5856562D01*
X8079908Y5860476D01*
X8084500Y5871561D01*
Y5883559D01*
X8079908Y5894644D01*
X8071424Y5903128D01*
X8070028Y5903707D01*
Y5917453D01*
X8071424Y5918032D01*
X8079908Y5926516D01*
X8084500Y5937601D01*
Y5949599D01*
X8079908Y5960684D01*
X8071424Y5969168D01*
X8060339Y5973760D01*
D02*
G37*
G36*
X8087070Y5275260D02*
X8075072D01*
X8063987Y5270668D01*
X8063018Y5269699D01*
X8054721Y5262831D01*
X8046424Y5269699D01*
X8045455Y5270668D01*
X8034370Y5275260D01*
X8022372D01*
X8011287Y5270668D01*
X8002803Y5262184D01*
X7998211Y5251099D01*
Y5239101D01*
X8002803Y5228016D01*
X8011287Y5219532D01*
X8022372Y5214940D01*
X8034370D01*
X8045455Y5219532D01*
X8046424Y5220501D01*
X8054721Y5227369D01*
X8063018Y5220501D01*
X8063987Y5219532D01*
X8075072Y5214940D01*
X8087070D01*
X8098155Y5219532D01*
X8106639Y5228016D01*
X8111231Y5239101D01*
Y5251099D01*
X8106639Y5262184D01*
X8098155Y5270668D01*
X8087070Y5275260D01*
D02*
G37*
G36*
X9129679Y4993320D02*
X9117681D01*
X9106596Y4988728D01*
X9099550Y4981683D01*
X9092504Y4988728D01*
X9081419Y4993320D01*
X9069421D01*
X9058336Y4988728D01*
X9049852Y4980244D01*
X9045260Y4969159D01*
Y4957161D01*
X9049852Y4946076D01*
X9055627Y4940300D01*
X9049852Y4934524D01*
X9045260Y4923439D01*
Y4911441D01*
X9049852Y4900356D01*
X9055627Y4894580D01*
X9049852Y4888804D01*
X9045260Y4877719D01*
Y4865721D01*
X9049852Y4854636D01*
X9058336Y4846152D01*
X9069421Y4841560D01*
X9081419D01*
X9092504Y4846152D01*
X9099550Y4853197D01*
X9106596Y4846152D01*
X9117681Y4841560D01*
X9129679D01*
X9140764Y4846152D01*
X9149248Y4854636D01*
X9153840Y4865721D01*
Y4877719D01*
X9149248Y4888804D01*
X9143473Y4894580D01*
X9149248Y4900356D01*
X9153840Y4911441D01*
Y4923439D01*
X9149248Y4934524D01*
X9143473Y4940300D01*
X9149248Y4946076D01*
X9153840Y4957161D01*
Y4969159D01*
X9149248Y4980244D01*
X9140764Y4988728D01*
X9129679Y4993320D01*
D02*
G37*
G36*
X8791139Y4951545D02*
X8779141D01*
X8768056Y4946953D01*
X8759572Y4938469D01*
X8754980Y4927384D01*
Y4915386D01*
X8759572Y4904301D01*
X8768056Y4895816D01*
X8779141Y4891225D01*
X8791139D01*
X8802224Y4895816D01*
X8810708Y4904301D01*
X8815300Y4915386D01*
Y4927384D01*
X8810708Y4938469D01*
X8802224Y4946953D01*
X8791139Y4951545D01*
D02*
G37*
G36*
X8873139Y4833300D02*
X8861141D01*
X8850056Y4828708D01*
X8841572Y4820224D01*
X8836980Y4809139D01*
Y4797141D01*
X8841572Y4786056D01*
X8850056Y4777572D01*
X8861141Y4772980D01*
X8873139D01*
X8884224Y4777572D01*
X8892708Y4786056D01*
X8897300Y4797141D01*
Y4809139D01*
X8892708Y4820224D01*
X8884224Y4828708D01*
X8873139Y4833300D01*
D02*
G37*
G36*
Y4711380D02*
X8861141D01*
X8850056Y4706788D01*
X8841572Y4698304D01*
X8836980Y4687219D01*
Y4675221D01*
X8841572Y4664136D01*
X8850056Y4655652D01*
X8861141Y4651060D01*
X8873139D01*
X8884224Y4655652D01*
X8892708Y4664136D01*
X8897300Y4675221D01*
Y4687219D01*
X8892708Y4698304D01*
X8884224Y4706788D01*
X8873139Y4711380D01*
D02*
G37*
G36*
X8436933Y4823963D02*
X8424935D01*
X8413850Y4819371D01*
X8405366Y4810887D01*
X8403114Y4805451D01*
X8390899Y4798309D01*
X8378901D01*
X8367816Y4793717D01*
X8359332Y4785233D01*
X8357438Y4780661D01*
X8345259Y4771959D01*
X8333261D01*
X8322176Y4767367D01*
X8313692Y4758883D01*
X8309100Y4747798D01*
Y4735800D01*
X8313692Y4724715D01*
X8322176Y4716231D01*
X8332399Y4711996D01*
X8334088Y4706889D01*
X8334492Y4704569D01*
X8334833Y4698939D01*
X8326894Y4690999D01*
X8322302Y4679914D01*
Y4667916D01*
X8326894Y4656831D01*
X8335378Y4648347D01*
X8346463Y4643755D01*
X8358461D01*
X8369546Y4648347D01*
X8378030Y4656831D01*
X8382622Y4667916D01*
Y4679914D01*
X8386214Y4685289D01*
X8390899D01*
X8401984Y4689881D01*
X8410468Y4698365D01*
X8415060Y4709450D01*
Y4721448D01*
X8410468Y4732533D01*
X8409499Y4733502D01*
X8402631Y4741799D01*
X8409499Y4750096D01*
X8410468Y4751065D01*
X8412720Y4756501D01*
X8424935Y4763643D01*
X8436933D01*
X8448018Y4768235D01*
X8456503Y4776719D01*
X8461094Y4787804D01*
Y4799802D01*
X8456503Y4810887D01*
X8448018Y4819371D01*
X8436933Y4823963D01*
D02*
G37*
G36*
X8456579Y4678421D02*
X8444581D01*
X8433496Y4673829D01*
X8425012Y4665345D01*
X8420420Y4654260D01*
Y4642262D01*
X8425012Y4631177D01*
X8425981Y4630208D01*
X8432849Y4621911D01*
X8425981Y4613614D01*
X8425012Y4612645D01*
X8420420Y4601560D01*
Y4589562D01*
X8425012Y4578477D01*
X8433496Y4569993D01*
X8444581Y4565401D01*
X8456579D01*
X8467664Y4569993D01*
X8476148Y4578477D01*
X8480740Y4589562D01*
Y4601560D01*
X8476148Y4612645D01*
X8475179Y4613614D01*
X8468311Y4621911D01*
X8475179Y4630208D01*
X8476148Y4631177D01*
X8480740Y4642262D01*
Y4654260D01*
X8476148Y4665345D01*
X8467664Y4673829D01*
X8456579Y4678421D01*
D02*
G37*
G36*
X8126379Y4558980D02*
X8114381D01*
X8103296Y4554388D01*
X8102007Y4553099D01*
X8093710Y4546748D01*
X8085413Y4553099D01*
X8084124Y4554388D01*
X8073039Y4558980D01*
X8061041D01*
X8049956Y4554388D01*
X8041472Y4545904D01*
X8036880Y4534819D01*
Y4522821D01*
X8041472Y4511736D01*
X8049787Y4503420D01*
X8041472Y4495104D01*
X8036880Y4484019D01*
Y4472021D01*
X8041472Y4460936D01*
X8049956Y4452452D01*
X8061041Y4447860D01*
X8073039D01*
X8084124Y4452452D01*
X8085413Y4453741D01*
X8093710Y4460092D01*
X8102007Y4453741D01*
X8103296Y4452452D01*
X8114381Y4447860D01*
X8126379D01*
X8137464Y4452452D01*
X8145948Y4460936D01*
X8150540Y4472021D01*
Y4484019D01*
X8145948Y4495104D01*
X8137633Y4503420D01*
X8145948Y4511736D01*
X8150540Y4522821D01*
Y4534819D01*
X8145948Y4545904D01*
X8137464Y4554388D01*
X8126379Y4558980D01*
D02*
G37*
G36*
X7895239D02*
X7883241D01*
X7872156Y4554388D01*
X7870867Y4553099D01*
X7862570Y4546748D01*
X7854273Y4553099D01*
X7852984Y4554388D01*
X7841899Y4558980D01*
X7829901D01*
X7818816Y4554388D01*
X7810332Y4545904D01*
X7805740Y4534819D01*
Y4522821D01*
X7810332Y4511736D01*
X7818647Y4503420D01*
X7810332Y4495104D01*
X7805740Y4484019D01*
Y4472021D01*
X7810332Y4460936D01*
X7818816Y4452452D01*
X7829901Y4447860D01*
X7841899D01*
X7852984Y4452452D01*
X7854273Y4453741D01*
X7862570Y4460092D01*
X7870867Y4453741D01*
X7872156Y4452452D01*
X7883241Y4447860D01*
X7895239D01*
X7906324Y4452452D01*
X7914808Y4460936D01*
X7919400Y4472021D01*
Y4484019D01*
X7914808Y4495104D01*
X7906493Y4503420D01*
X7914808Y4511736D01*
X7919400Y4522821D01*
Y4534819D01*
X7914808Y4545904D01*
X7906324Y4554388D01*
X7895239Y4558980D01*
D02*
G37*
G36*
X8873139Y4589460D02*
X8861141D01*
X8850056Y4584868D01*
X8841572Y4576384D01*
X8836980Y4565299D01*
Y4553301D01*
X8841572Y4542216D01*
X8850056Y4533732D01*
X8861141Y4529140D01*
X8873139D01*
X8884224Y4533732D01*
X8892708Y4542216D01*
X8897300Y4553301D01*
Y4565299D01*
X8892708Y4576384D01*
X8884224Y4584868D01*
X8873139Y4589460D01*
D02*
G37*
G36*
X8358625Y4600067D02*
X8346626D01*
X8335541Y4595475D01*
X8327057Y4586991D01*
X8322465Y4575906D01*
Y4563908D01*
X8327057Y4552823D01*
X8335124Y4544756D01*
X8334958Y4541200D01*
X8333855Y4535254D01*
X8332634Y4531796D01*
X8322176Y4527464D01*
X8313692Y4518980D01*
X8309100Y4507895D01*
Y4495897D01*
X8313692Y4484812D01*
X8322176Y4476328D01*
X8333261Y4471736D01*
X8345259D01*
X8357438Y4463034D01*
X8359332Y4458462D01*
X8360204Y4457589D01*
X8367070Y4449098D01*
X8360204Y4440996D01*
X8359139Y4439931D01*
X8354547Y4428846D01*
Y4416847D01*
X8359139Y4405762D01*
X8367623Y4397278D01*
X8378708Y4392686D01*
X8390706D01*
X8401791Y4397278D01*
X8410276Y4405762D01*
X8414867Y4416847D01*
Y4428846D01*
X8410276Y4439931D01*
X8409403Y4440803D01*
X8402537Y4449294D01*
X8409403Y4457396D01*
X8410468Y4458462D01*
X8415060Y4469547D01*
Y4481545D01*
X8410468Y4492630D01*
X8409499Y4493599D01*
X8402631Y4501896D01*
X8409499Y4510193D01*
X8410468Y4511162D01*
X8415060Y4522247D01*
Y4534245D01*
X8410468Y4545330D01*
X8401984Y4553814D01*
X8393762Y4557220D01*
X8382785Y4563908D01*
Y4575906D01*
X8378194Y4586991D01*
X8369710Y4595475D01*
X8358625Y4600067D01*
D02*
G37*
G36*
X9147459Y4416740D02*
X9135461D01*
X9124376Y4412148D01*
X9115892Y4403664D01*
X9111300Y4392579D01*
Y4380581D01*
X9115892Y4369496D01*
X9118777Y4366610D01*
X9114684Y4355210D01*
X9102249Y4354144D01*
X9097584Y4358808D01*
X9086499Y4363400D01*
X9074501D01*
X9063416Y4358808D01*
X9054932Y4350324D01*
X9050340Y4339239D01*
Y4327241D01*
X9054932Y4316156D01*
X9063416Y4307672D01*
X9074501Y4303080D01*
X9086499D01*
X9097584Y4307672D01*
X9104038Y4314125D01*
X9108787Y4315956D01*
X9119410Y4315178D01*
X9124376Y4310212D01*
X9135461Y4305620D01*
X9147459D01*
X9158544Y4310212D01*
X9167028Y4318696D01*
X9171620Y4329781D01*
Y4341779D01*
X9167028Y4352864D01*
X9158713Y4361180D01*
X9167028Y4369496D01*
X9171620Y4380581D01*
Y4392579D01*
X9167028Y4403664D01*
X9158544Y4412148D01*
X9147459Y4416740D01*
D02*
G37*
G36*
X8873885Y4480052D02*
X8861886D01*
X8850801Y4475460D01*
X8842317Y4466976D01*
X8837726Y4455891D01*
Y4443893D01*
X8842317Y4432808D01*
X8850801Y4424324D01*
X8859024Y4420918D01*
X8870000Y4414230D01*
Y4402232D01*
X8874592Y4391147D01*
X8875561Y4390178D01*
X8882429Y4381881D01*
X8875561Y4373584D01*
X8874592Y4372615D01*
X8870000Y4361530D01*
Y4349532D01*
X8862665Y4338370D01*
X8856275Y4335723D01*
X8847791Y4327239D01*
X8843199Y4316154D01*
Y4304155D01*
X8847791Y4293070D01*
X8856275Y4284586D01*
X8867360Y4279995D01*
X8879358D01*
X8890443Y4284586D01*
X8898928Y4293070D01*
X8903519Y4304155D01*
Y4316154D01*
X8910855Y4327316D01*
X8917244Y4329963D01*
X8925728Y4338447D01*
X8930320Y4349532D01*
Y4361530D01*
X8925728Y4372615D01*
X8924759Y4373584D01*
X8917891Y4381881D01*
X8924759Y4390178D01*
X8925728Y4391147D01*
X8930320Y4402232D01*
Y4414230D01*
X8925728Y4425315D01*
X8917244Y4433799D01*
X8909022Y4437205D01*
X8898045Y4443893D01*
Y4455891D01*
X8893454Y4466976D01*
X8884970Y4475460D01*
X8873885Y4480052D01*
D02*
G37*
G36*
X8362599Y5544500D02*
X8350601D01*
X8339516Y5539908D01*
X8331032Y5531424D01*
X8326440Y5520339D01*
Y5508341D01*
X8331032Y5497256D01*
X8339516Y5488772D01*
X8350601Y5484180D01*
X8362599D01*
X8373684Y5488772D01*
X8382168Y5497256D01*
X8386760Y5508341D01*
Y5520339D01*
X8382168Y5531424D01*
X8373684Y5539908D01*
X8362599Y5544500D01*
D02*
G37*
G36*
X8001919Y5536880D02*
X7989921D01*
X7978836Y5532288D01*
X7970352Y5523804D01*
X7965760Y5512719D01*
Y5500721D01*
X7970352Y5489636D01*
X7978836Y5481152D01*
X7989921Y5476560D01*
X8001919D01*
X8013004Y5481152D01*
X8021488Y5489636D01*
X8026080Y5500721D01*
Y5512719D01*
X8021488Y5523804D01*
X8013004Y5532288D01*
X8001919Y5536880D01*
D02*
G37*
G36*
X8243219Y5536500D02*
X8231221D01*
X8220136Y5531908D01*
X8211652Y5523424D01*
X8207060Y5512339D01*
Y5500341D01*
X8211652Y5489255D01*
X8220136Y5480771D01*
X8231221Y5476180D01*
X8243219D01*
X8254304Y5480771D01*
X8262788Y5489255D01*
X8267380Y5500341D01*
Y5512339D01*
X8262788Y5523424D01*
X8254304Y5531908D01*
X8243219Y5536500D01*
D02*
G37*
G36*
X8122762D02*
X8110764D01*
X8099679Y5531908D01*
X8091195Y5523424D01*
X8086603Y5512339D01*
Y5500341D01*
X8091195Y5489255D01*
X8099679Y5480771D01*
X8110764Y5476180D01*
X8122762D01*
X8133847Y5480771D01*
X8142331Y5489255D01*
X8146923Y5500341D01*
Y5512339D01*
X8142331Y5523424D01*
X8133847Y5531908D01*
X8122762Y5536500D01*
D02*
G37*
G36*
X7293259Y5074600D02*
X7281261D01*
X7270176Y5070008D01*
X7261692Y5061524D01*
X7257100Y5050439D01*
Y5038441D01*
X7261692Y5027356D01*
X7270176Y5018872D01*
X7281261Y5014280D01*
X7293259D01*
X7304344Y5018872D01*
X7312828Y5027356D01*
X7317420Y5038441D01*
Y5050439D01*
X7312828Y5061524D01*
X7304344Y5070008D01*
X7293259Y5074600D01*
D02*
G37*
G36*
Y4967920D02*
X7281261D01*
X7270176Y4963328D01*
X7261692Y4954844D01*
X7257100Y4943759D01*
Y4931761D01*
X7261692Y4920676D01*
X7270176Y4912192D01*
X7281261Y4907600D01*
X7293259D01*
X7304344Y4912192D01*
X7312828Y4920676D01*
X7317420Y4931761D01*
Y4943759D01*
X7312828Y4954844D01*
X7304344Y4963328D01*
X7293259Y4967920D01*
D02*
G37*
G36*
Y4863780D02*
X7281261D01*
X7270176Y4859188D01*
X7261692Y4850704D01*
X7257100Y4839619D01*
Y4827621D01*
X7261692Y4816536D01*
X7270176Y4808052D01*
X7281261Y4803460D01*
X7293259D01*
X7304344Y4808052D01*
X7312828Y4816536D01*
X7317420Y4827621D01*
Y4839619D01*
X7312828Y4850704D01*
X7304344Y4859188D01*
X7293259Y4863780D01*
D02*
G37*
G36*
Y4650420D02*
X7281261D01*
X7270176Y4645828D01*
X7261692Y4637344D01*
X7257100Y4626259D01*
Y4614261D01*
X7261692Y4603176D01*
X7270176Y4594692D01*
X7281261Y4590100D01*
X7293259D01*
X7304344Y4594692D01*
X7312828Y4603176D01*
X7317420Y4614261D01*
Y4626259D01*
X7312828Y4637344D01*
X7304344Y4645828D01*
X7293259Y4650420D01*
D02*
G37*
G36*
X7290719Y4330380D02*
X7278721D01*
X7267636Y4325788D01*
X7259152Y4317304D01*
X7254560Y4306219D01*
Y4294221D01*
X7259152Y4283136D01*
X7267636Y4274652D01*
X7278721Y4270060D01*
X7290719D01*
X7301804Y4274652D01*
X7310288Y4283136D01*
X7314880Y4294221D01*
Y4306219D01*
X7310288Y4317304D01*
X7301804Y4325788D01*
X7290719Y4330380D01*
D02*
G37*
G36*
X9127139Y4129720D02*
X9115141D01*
X9104056Y4125128D01*
X9101497Y4122569D01*
X9093200Y4117962D01*
X9084903Y4122569D01*
X9082344Y4125128D01*
X9071259Y4129720D01*
X9059261D01*
X9048176Y4125128D01*
X9039692Y4116644D01*
X9035100Y4105559D01*
Y4093561D01*
X9039692Y4082476D01*
X9046737Y4075430D01*
X9039692Y4068384D01*
X9035100Y4057299D01*
Y4045301D01*
X9039692Y4034216D01*
X9048176Y4025732D01*
X9059261Y4021140D01*
X9071259D01*
X9082344Y4025732D01*
X9084903Y4028291D01*
X9093200Y4032898D01*
X9101497Y4028291D01*
X9104056Y4025732D01*
X9115141Y4021140D01*
X9127139D01*
X9138224Y4025732D01*
X9146708Y4034216D01*
X9151300Y4045301D01*
Y4057299D01*
X9146708Y4068384D01*
X9139663Y4075430D01*
X9146708Y4082476D01*
X9151300Y4093561D01*
Y4105559D01*
X9146708Y4116644D01*
X9138224Y4125128D01*
X9127139Y4129720D01*
D02*
G37*
G36*
X8784239Y3982400D02*
X8772241D01*
X8761156Y3977808D01*
X8752672Y3969324D01*
X8748080Y3958239D01*
Y3946241D01*
X8752672Y3935156D01*
X8761156Y3926672D01*
X8772241Y3922080D01*
X8784239D01*
X8795324Y3926672D01*
X8803808Y3935156D01*
X8808400Y3946241D01*
Y3958239D01*
X8803808Y3969324D01*
X8795324Y3977808D01*
X8784239Y3982400D01*
D02*
G37*
G36*
X8535319Y3967160D02*
X8523321D01*
X8512236Y3962568D01*
X8503752Y3954084D01*
X8499160Y3942999D01*
Y3931001D01*
X8503752Y3919916D01*
X8512236Y3911432D01*
X8523321Y3906840D01*
X8535319D01*
X8546404Y3911432D01*
X8554888Y3919916D01*
X8559480Y3931001D01*
Y3942999D01*
X8554888Y3954084D01*
X8546404Y3962568D01*
X8535319Y3967160D01*
D02*
G37*
G36*
X7958739D02*
X7946741D01*
X7935656Y3962568D01*
X7927172Y3954084D01*
X7922580Y3942999D01*
Y3931001D01*
X7927172Y3919916D01*
X7935656Y3911432D01*
X7946741Y3906840D01*
X7958739D01*
X7969824Y3911432D01*
X7978308Y3919916D01*
X7982900Y3931001D01*
Y3942999D01*
X7978308Y3954084D01*
X7969824Y3962568D01*
X7958739Y3967160D01*
D02*
G37*
G36*
X8294019Y3964620D02*
X8282021D01*
X8270936Y3960028D01*
X8262452Y3951544D01*
X8257860Y3940459D01*
Y3928461D01*
X8262452Y3917376D01*
X8270936Y3908892D01*
X8282021Y3904300D01*
X8294019D01*
X8305104Y3908892D01*
X8313588Y3917376D01*
X8318180Y3928461D01*
Y3940459D01*
X8313588Y3951544D01*
X8305104Y3960028D01*
X8294019Y3964620D01*
D02*
G37*
G36*
X8187339D02*
X8175341D01*
X8164256Y3960028D01*
X8155772Y3951544D01*
X8151180Y3940459D01*
Y3928461D01*
X8155772Y3917376D01*
X8164256Y3908892D01*
X8175341Y3904300D01*
X8187339D01*
X8198424Y3908892D01*
X8206908Y3917376D01*
X8211500Y3928461D01*
Y3940459D01*
X8206908Y3951544D01*
X8198424Y3960028D01*
X8187339Y3964620D01*
D02*
G37*
G36*
X8080659D02*
X8068661D01*
X8057576Y3960028D01*
X8049092Y3951544D01*
X8044500Y3940459D01*
Y3928461D01*
X8049092Y3917376D01*
X8057576Y3908892D01*
X8068661Y3904300D01*
X8080659D01*
X8091744Y3908892D01*
X8100228Y3917376D01*
X8104820Y3928461D01*
Y3940459D01*
X8100228Y3951544D01*
X8091744Y3960028D01*
X8080659Y3964620D01*
D02*
G37*
G36*
X8583579Y3859043D02*
X8571581D01*
X8560496Y3854451D01*
X8552012Y3845967D01*
X8547420Y3834882D01*
Y3822884D01*
X8552012Y3811799D01*
X8560496Y3803314D01*
X8571581Y3798723D01*
X8583579D01*
X8594664Y3803314D01*
X8603148Y3811799D01*
X8607740Y3822884D01*
Y3834882D01*
X8603148Y3845967D01*
X8594664Y3854451D01*
X8583579Y3859043D01*
D02*
G37*
%LPD*%
G36*
X9086441Y7038340D02*
X9088390Y7033636D01*
X9096874Y7025152D01*
X9107959Y7020560D01*
X9119958D01*
X9131043Y7025152D01*
X9139527Y7033636D01*
X9141475Y7038340D01*
X9914833Y7038340D01*
X9931130Y7036194D01*
X9963411Y7022823D01*
X9979852Y7010207D01*
X10048922Y6941137D01*
X10058165Y6929875D01*
X10071889Y6904199D01*
X10080341Y6876339D01*
X10081260Y6867004D01*
Y6301739D01*
X9961879Y6182359D01*
X9796779Y6182361D01*
X9784080Y6195060D01*
Y6233160D01*
X9798482Y6247563D01*
X9908540D01*
X9916316Y6250784D01*
X9949336Y6283804D01*
X9952557Y6291580D01*
Y6400243D01*
X9963663Y6408606D01*
X9964291Y6408760D01*
X9969134Y6406754D01*
X9981133D01*
X9992218Y6411345D01*
X10000702Y6419829D01*
X10005293Y6430914D01*
Y6442913D01*
X10000702Y6453998D01*
X9992218Y6462482D01*
X9981133Y6467073D01*
X9969134D01*
X9958049Y6462482D01*
X9949565Y6453998D01*
X9944974Y6442913D01*
Y6435980D01*
X9932411Y6430581D01*
X9896677Y6466315D01*
Y6485292D01*
X9896284Y6486241D01*
Y6498239D01*
X9896677Y6499188D01*
Y6728460D01*
X9893456Y6736236D01*
X9774076Y6855616D01*
X9766300Y6858837D01*
X9511044D01*
X9510267Y6860093D01*
X9507150Y6871537D01*
X9513188Y6877576D01*
X9517780Y6888661D01*
Y6900659D01*
X9513188Y6911744D01*
X9511927Y6913006D01*
X9515081Y6920841D01*
X9518154Y6924739D01*
X9528649D01*
X9539734Y6929331D01*
X9548218Y6937814D01*
X9560910Y6935269D01*
X9568851Y6931980D01*
X9580849D01*
X9591934Y6936572D01*
X9592903Y6937541D01*
X9601200Y6944409D01*
X9609497Y6937541D01*
X9610466Y6936572D01*
X9621551Y6931980D01*
X9633549D01*
X9641489Y6935269D01*
X9654182Y6937814D01*
X9662666Y6929331D01*
X9673751Y6924739D01*
X9685749D01*
X9696834Y6929331D01*
X9705318Y6937815D01*
X9709910Y6948900D01*
Y6960898D01*
X9705318Y6971983D01*
X9696834Y6980467D01*
X9685749Y6985059D01*
X9673751D01*
X9665810Y6981770D01*
X9653118Y6979225D01*
X9644634Y6987708D01*
X9633549Y6992300D01*
X9621551D01*
X9610466Y6987708D01*
X9609497Y6986739D01*
X9601200Y6979871D01*
X9592903Y6986739D01*
X9591934Y6987708D01*
X9580849Y6992300D01*
X9568851D01*
X9557766Y6987708D01*
X9549282Y6979225D01*
X9536590Y6981770D01*
X9528649Y6985059D01*
X9516651D01*
X9505565Y6980467D01*
X9497081Y6971983D01*
X9492490Y6960898D01*
Y6948900D01*
X9497081Y6937815D01*
X9498343Y6936553D01*
X9495189Y6928718D01*
X9492116Y6924820D01*
X9481621D01*
X9470536Y6920228D01*
X9462052Y6911744D01*
X9457460Y6900659D01*
Y6888661D01*
X9461433Y6879068D01*
X9461584Y6876159D01*
X9457596Y6864071D01*
X9452874Y6862221D01*
X9447179Y6864580D01*
X9435181D01*
X9424096Y6859988D01*
X9423122Y6859014D01*
X9410653Y6859824D01*
X9410487Y6860093D01*
X9407370Y6871537D01*
X9413408Y6877576D01*
X9418000Y6888661D01*
Y6900659D01*
X9413408Y6911744D01*
X9404924Y6920228D01*
X9393839Y6924820D01*
X9381841D01*
X9370756Y6920228D01*
X9362272Y6911744D01*
X9357680Y6900659D01*
Y6888661D01*
X9362272Y6877576D01*
X9368310Y6871537D01*
X9365193Y6860093D01*
X9365027Y6859824D01*
X9352558Y6859014D01*
X9351584Y6859988D01*
X9340499Y6864580D01*
X9328501D01*
X9317416Y6859988D01*
X9316265Y6858837D01*
X9295523D01*
X9294024Y6861466D01*
X9291630Y6871537D01*
X9297980Y6877887D01*
X9302571Y6888972D01*
Y6900970D01*
X9297980Y6912056D01*
X9289496Y6920540D01*
X9278410Y6925131D01*
X9266412D01*
X9255327Y6920540D01*
X9246843Y6912056D01*
X9242251Y6900970D01*
Y6888972D01*
X9246843Y6877887D01*
X9253193Y6871537D01*
X9250799Y6861466D01*
X9249299Y6858837D01*
X9085580D01*
X9077804Y6855616D01*
X9007716Y6785528D01*
X8991090Y6786863D01*
X8988364Y6789588D01*
X8977279Y6794180D01*
X8965281D01*
X8954196Y6789588D01*
X8945712Y6781104D01*
X8941120Y6770019D01*
Y6758021D01*
X8945712Y6746936D01*
X8954195Y6738452D01*
X8955265Y6733077D01*
X8910164Y6687976D01*
X8906943Y6680200D01*
Y6012180D01*
X8910164Y6004404D01*
X9047324Y5867244D01*
X9055100Y5864023D01*
X9214771D01*
X9223976Y5855585D01*
X9223977Y5855584D01*
X9223976D01*
X9224360Y5851840D01*
X9213276Y5847248D01*
X9204792Y5838764D01*
X9200200Y5827679D01*
Y5815681D01*
X9204792Y5804596D01*
X9213276Y5796112D01*
X9224361Y5791520D01*
X9236359D01*
X9247444Y5796112D01*
X9255928Y5804596D01*
X9260520Y5815681D01*
Y5827679D01*
X9255928Y5838764D01*
X9247444Y5847248D01*
X9236360Y5851840D01*
X9236744Y5855584D01*
X9236743D01*
X9236744Y5855585D01*
X9245949Y5864023D01*
X9254396D01*
X9254515Y5863736D01*
X9262999Y5855252D01*
X9274084Y5850660D01*
X9286082D01*
X9297167Y5855252D01*
X9305651Y5863736D01*
X9305770Y5864023D01*
X9357263D01*
X9365040Y5867244D01*
X9368261Y5875020D01*
X9406586D01*
X9409807Y5867244D01*
X9417583Y5864023D01*
X9468833D01*
X9468952Y5863736D01*
X9477436Y5855252D01*
X9488521Y5850660D01*
X9500519D01*
X9511604Y5855252D01*
X9520088Y5863736D01*
X9520207Y5864023D01*
X9583220D01*
X9587403Y5865756D01*
X9588324D01*
X9597388Y5869510D01*
X9605012D01*
X9614076Y5865756D01*
X9614997D01*
X9619180Y5864023D01*
X9655065D01*
X9708044Y5811044D01*
X9710064Y5810207D01*
X9711612Y5808660D01*
X9713799D01*
X9715820Y5807823D01*
X9717841Y5808660D01*
X9720029D01*
X9724237Y5810403D01*
X9747403Y5787237D01*
X9745660Y5783029D01*
Y5780841D01*
X9744823Y5778820D01*
X9745660Y5776799D01*
Y5774612D01*
X9747207Y5773065D01*
X9748044Y5771044D01*
X9759334Y5759753D01*
X9754474Y5748020D01*
X9525289D01*
X9520028Y5760720D01*
X9520088Y5760780D01*
X9524680Y5771866D01*
Y5783864D01*
X9520088Y5794949D01*
X9511604Y5803433D01*
X9500519Y5808025D01*
X9488521D01*
X9477436Y5803433D01*
X9468952Y5794949D01*
X9464360Y5783864D01*
Y5771866D01*
X9468952Y5760780D01*
X9469012Y5760720D01*
X9463751Y5748020D01*
X9418192D01*
X9412931Y5760720D01*
X9412992Y5760780D01*
X9417583Y5771866D01*
Y5783864D01*
X9412992Y5794949D01*
X9404508Y5803433D01*
X9393423Y5808025D01*
X9381424D01*
X9370339Y5803433D01*
X9361855Y5794949D01*
X9357263Y5783864D01*
Y5771866D01*
X9361855Y5760780D01*
X9361915Y5760720D01*
X9356655Y5748020D01*
X8851900D01*
X8727440Y5872480D01*
Y6896100D01*
X8869680Y7038340D01*
X9086441D01*
D02*
G37*
G36*
X9885680Y6728460D02*
Y6499188D01*
X9885287Y6498239D01*
Y6486241D01*
X9885680Y6485292D01*
Y6461760D01*
X9941560Y6405880D01*
Y6291580D01*
X9908540Y6258560D01*
X9479279Y6258560D01*
X9443720Y6223000D01*
Y6012179D01*
X9460272Y5995628D01*
X9459697Y5994240D01*
Y5982242D01*
X9464288Y5971156D01*
X9472772Y5962672D01*
X9483857Y5958081D01*
X9495856D01*
X9506941Y5962672D01*
X9515425Y5971156D01*
X9515429Y5971163D01*
X9517368Y5974573D01*
X9536269Y5977062D01*
X9553882Y5984357D01*
X9555117Y5985305D01*
X9568412Y5983010D01*
X9571385Y5975832D01*
X9579869Y5967348D01*
X9590954Y5962757D01*
X9602952D01*
X9614037Y5967348D01*
X9622522Y5975832D01*
X9627056Y5986780D01*
X9646920D01*
X9705486Y6045346D01*
X9720895Y6047375D01*
Y6047392D01*
X9990849D01*
Y6046750D01*
X10030970Y6050701D01*
X10037955Y6052820D01*
X10063480D01*
X10083800Y6032500D01*
Y5986780D01*
Y5773420D01*
X10058400Y5748020D01*
X9786620D01*
X9755820Y5778820D01*
X9761081Y5791520D01*
X9764679D01*
X9775764Y5796112D01*
X9784248Y5804596D01*
X9788840Y5815681D01*
Y5827679D01*
X9784248Y5838764D01*
X9783233Y5839780D01*
X9788493Y5852480D01*
X9792619D01*
X9803704Y5857072D01*
X9812188Y5865556D01*
X9816780Y5876641D01*
Y5888639D01*
X9812188Y5899724D01*
X9808275Y5903638D01*
X9805108Y5911850D01*
X9808275Y5920062D01*
X9812188Y5923976D01*
X9816780Y5935061D01*
Y5947059D01*
X9812188Y5958144D01*
X9803704Y5966628D01*
X9792619Y5971220D01*
X9780621D01*
X9769536Y5966628D01*
X9761052Y5958144D01*
X9756460Y5947059D01*
Y5935061D01*
X9761052Y5923976D01*
X9764965Y5920062D01*
X9768132Y5911850D01*
X9764965Y5903638D01*
X9761052Y5899724D01*
X9756460Y5888639D01*
Y5876641D01*
X9761052Y5865556D01*
X9762067Y5864540D01*
X9756807Y5851840D01*
X9752681D01*
X9741596Y5847248D01*
X9733112Y5838764D01*
X9728520Y5827679D01*
Y5824081D01*
X9715820Y5818820D01*
X9659620Y5875020D01*
X9619180D01*
X9618284Y5875916D01*
X9607199Y5880507D01*
X9595201D01*
X9584116Y5875916D01*
X9583220Y5875020D01*
X9417583D01*
Y5886819D01*
X9412992Y5897904D01*
X9404508Y5906388D01*
X9393423Y5910980D01*
X9381424D01*
X9370339Y5906388D01*
X9361855Y5897904D01*
X9357263Y5886819D01*
Y5875020D01*
X9055100D01*
X8917940Y6012180D01*
Y6680200D01*
X8971600Y6733860D01*
X8977279D01*
X8988364Y6738452D01*
X8996848Y6746936D01*
X9001440Y6758021D01*
Y6763700D01*
X9085580Y6847840D01*
X9766300D01*
X9885680Y6728460D01*
D02*
G37*
%LPC*%
G36*
X8980710Y6912669D02*
X8968712D01*
X8957626Y6908078D01*
X8949142Y6899594D01*
X8944551Y6888508D01*
Y6876510D01*
X8949142Y6865425D01*
X8957626Y6856941D01*
X8968712Y6852349D01*
X8980710D01*
X8991795Y6856941D01*
X9000279Y6865425D01*
X9004871Y6876510D01*
Y6888508D01*
X9000279Y6899594D01*
X8991795Y6908078D01*
X8980710Y6912669D01*
D02*
G37*
G36*
X8878219Y6806880D02*
X8866221D01*
X8855136Y6802288D01*
X8846652Y6793804D01*
X8842060Y6782719D01*
Y6770721D01*
X8846652Y6759636D01*
X8855136Y6751152D01*
X8866221Y6746560D01*
X8878219D01*
X8889304Y6751152D01*
X8897788Y6759636D01*
X8902380Y6770721D01*
Y6782719D01*
X8897788Y6793804D01*
X8889304Y6802288D01*
X8878219Y6806880D01*
D02*
G37*
G36*
X8841171Y6697660D02*
X8829173D01*
X8818088Y6693068D01*
X8809604Y6684584D01*
X8805012Y6673499D01*
Y6661501D01*
X8809604Y6650416D01*
X8818088Y6641932D01*
X8829173Y6637340D01*
X8841171D01*
X8852256Y6641932D01*
X8860740Y6650416D01*
X8865332Y6661501D01*
Y6673499D01*
X8860740Y6684584D01*
X8852256Y6693068D01*
X8841171Y6697660D01*
D02*
G37*
G36*
X9983119Y6578280D02*
X9971121D01*
X9960036Y6573688D01*
X9951552Y6565204D01*
X9946960Y6554119D01*
Y6542121D01*
X9951552Y6531036D01*
X9960036Y6522552D01*
X9971121Y6517960D01*
X9983119D01*
X9994204Y6522552D01*
X10002688Y6531036D01*
X10007280Y6542121D01*
Y6554119D01*
X10002688Y6565204D01*
X9994204Y6573688D01*
X9983119Y6578280D01*
D02*
G37*
G36*
X8793190Y6613150D02*
X8781192D01*
X8770107Y6608558D01*
X8761623Y6600074D01*
X8757031Y6588989D01*
Y6576990D01*
X8761623Y6565905D01*
X8770107Y6557421D01*
X8770533Y6557244D01*
X8780470Y6551003D01*
X8776884Y6541914D01*
X8776020Y6539829D01*
Y6527831D01*
X8780612Y6516746D01*
X8781581Y6515777D01*
X8788449Y6507480D01*
X8781581Y6499183D01*
X8780612Y6498214D01*
X8776020Y6487129D01*
Y6475131D01*
X8776884Y6473046D01*
X8780470Y6463957D01*
X8770534Y6457715D01*
X8770107Y6457539D01*
X8761623Y6449054D01*
X8757031Y6437969D01*
Y6425971D01*
X8761623Y6414886D01*
X8770107Y6406402D01*
X8781192Y6401810D01*
X8793190D01*
X8804275Y6406402D01*
X8812759Y6414886D01*
X8817351Y6425971D01*
Y6437969D01*
X8816487Y6440054D01*
X8812901Y6449143D01*
X8822837Y6455385D01*
X8823264Y6455562D01*
X8831748Y6464046D01*
X8836340Y6475131D01*
Y6487129D01*
X8831748Y6498214D01*
X8830779Y6499183D01*
X8823911Y6507480D01*
X8830779Y6515777D01*
X8831748Y6516746D01*
X8836340Y6527831D01*
Y6539829D01*
X8831748Y6550914D01*
X8823264Y6559398D01*
X8822838Y6559575D01*
X8812901Y6565817D01*
X8816487Y6574906D01*
X8817351Y6576990D01*
Y6588989D01*
X8812759Y6600074D01*
X8804275Y6608558D01*
X8793190Y6613150D01*
D02*
G37*
G36*
X8836091Y6377620D02*
X8824093D01*
X8813008Y6373028D01*
X8804524Y6364544D01*
X8799932Y6353459D01*
Y6341461D01*
X8804524Y6330376D01*
X8813008Y6321892D01*
X8824093Y6317300D01*
X8836091D01*
X8847176Y6321892D01*
X8855660Y6330376D01*
X8860252Y6341461D01*
Y6353459D01*
X8855660Y6364544D01*
X8847176Y6373028D01*
X8836091Y6377620D01*
D02*
G37*
G36*
X8823778Y6295356D02*
X8811779D01*
X8800694Y6290764D01*
X8792210Y6282280D01*
X8787618Y6271195D01*
Y6259197D01*
X8792210Y6248112D01*
X8790593Y6239981D01*
X8789089Y6239358D01*
X8780605Y6230874D01*
X8776013Y6219789D01*
Y6207791D01*
X8780605Y6196706D01*
X8781574Y6195737D01*
X8788442Y6187440D01*
X8781574Y6179143D01*
X8780605Y6178174D01*
X8776013Y6167089D01*
Y6155091D01*
X8780605Y6144006D01*
X8786046Y6138565D01*
X8789290Y6132356D01*
X8789988Y6121403D01*
X8787618Y6115683D01*
Y6103685D01*
X8792210Y6092599D01*
X8800694Y6084115D01*
X8811779Y6079524D01*
X8823778D01*
X8834863Y6084115D01*
X8843347Y6092599D01*
X8847938Y6103685D01*
Y6115683D01*
X8843347Y6126768D01*
X8837906Y6132209D01*
X8834661Y6138418D01*
X8833964Y6149371D01*
X8836333Y6155091D01*
Y6167089D01*
X8831742Y6178174D01*
X8830773Y6179143D01*
X8823905Y6187440D01*
X8830773Y6195737D01*
X8831742Y6196706D01*
X8836333Y6207791D01*
Y6219789D01*
X8831742Y6230874D01*
X8833359Y6239005D01*
X8834863Y6239628D01*
X8843347Y6248112D01*
X8847938Y6259197D01*
Y6271195D01*
X8843347Y6282280D01*
X8834863Y6290764D01*
X8823778Y6295356D01*
D02*
G37*
G36*
X8838631Y6057580D02*
X8826633D01*
X8815548Y6052988D01*
X8807064Y6044504D01*
X8802472Y6033419D01*
Y6021421D01*
X8807064Y6010336D01*
X8815548Y6001852D01*
X8826633Y5997260D01*
X8838631D01*
X8849716Y6001852D01*
X8858200Y6010336D01*
X8862792Y6021421D01*
Y6033419D01*
X8858200Y6044504D01*
X8849716Y6052988D01*
X8838631Y6057580D01*
D02*
G37*
G36*
X8840119Y5950900D02*
X8828121D01*
X8817036Y5946308D01*
X8808552Y5937824D01*
X8803960Y5926739D01*
Y5914741D01*
X8808552Y5903656D01*
X8817036Y5895172D01*
X8828121Y5890580D01*
X8840119D01*
X8851204Y5895172D01*
X8859688Y5903656D01*
X8864280Y5914741D01*
Y5926739D01*
X8859688Y5937824D01*
X8851204Y5946308D01*
X8840119Y5950900D01*
D02*
G37*
G36*
X9131010Y5849300D02*
X9119011D01*
X9107926Y5844708D01*
X9099442Y5836224D01*
X9094851Y5825139D01*
Y5813141D01*
X9099442Y5802056D01*
X9107926Y5793572D01*
X9119011Y5788980D01*
X9131010D01*
X9142095Y5793572D01*
X9150579Y5802056D01*
X9155171Y5813141D01*
Y5825139D01*
X9150579Y5836224D01*
X9142095Y5844708D01*
X9131010Y5849300D01*
D02*
G37*
G36*
X9470989Y6608760D02*
X9458991D01*
X9447906Y6604168D01*
X9446937Y6603199D01*
X9438640Y6596331D01*
X9430343Y6603199D01*
X9429374Y6604168D01*
X9418289Y6608760D01*
X9406291D01*
X9395206Y6604168D01*
X9386722Y6595684D01*
X9382130Y6584599D01*
Y6572601D01*
X9386722Y6561516D01*
X9395206Y6553032D01*
X9397905Y6551913D01*
X9393422Y6540180D01*
X9389974Y6540180D01*
X9381424D01*
X9370339Y6535588D01*
X9361855Y6527104D01*
X9357263Y6516019D01*
Y6504021D01*
X9361855Y6492936D01*
X9370339Y6484452D01*
X9381424Y6479860D01*
X9393423D01*
X9404508Y6484452D01*
X9412992Y6492936D01*
X9417583Y6504021D01*
Y6516019D01*
X9412992Y6527104D01*
X9404508Y6535588D01*
X9401808Y6536707D01*
X9406291Y6548440D01*
X9409740Y6548440D01*
X9418289D01*
X9429374Y6553032D01*
X9430343Y6554001D01*
X9438640Y6560869D01*
X9446937Y6554001D01*
X9447906Y6553032D01*
X9458991Y6548440D01*
X9470989D01*
X9482074Y6553032D01*
X9490558Y6561516D01*
X9495150Y6572601D01*
Y6584599D01*
X9490558Y6595684D01*
X9482074Y6604168D01*
X9470989Y6608760D01*
D02*
G37*
G36*
X9602952Y6540180D02*
X9590954D01*
X9579869Y6535588D01*
X9571385Y6527104D01*
X9566793Y6516019D01*
Y6504021D01*
X9571385Y6492936D01*
X9579869Y6484452D01*
X9590954Y6479860D01*
X9602952D01*
X9614037Y6484452D01*
X9622522Y6492936D01*
X9627113Y6504021D01*
Y6516019D01*
X9622522Y6527104D01*
X9614037Y6535588D01*
X9602952Y6540180D01*
D02*
G37*
G36*
X9500519D02*
X9488521D01*
X9477436Y6535588D01*
X9468952Y6527104D01*
X9464360Y6516019D01*
Y6504021D01*
X9468952Y6492936D01*
X9477436Y6484452D01*
X9488521Y6479860D01*
X9500519D01*
X9511604Y6484452D01*
X9520088Y6492936D01*
X9524680Y6504021D01*
Y6516019D01*
X9520088Y6527104D01*
X9511604Y6535588D01*
X9500519Y6540180D01*
D02*
G37*
G36*
X9302399D02*
X9290401D01*
X9279316Y6535588D01*
X9270832Y6527104D01*
X9266240Y6516019D01*
Y6504021D01*
X9270832Y6492936D01*
X9279316Y6484452D01*
X9290401Y6479860D01*
X9302399D01*
X9313484Y6484452D01*
X9321968Y6492936D01*
X9326560Y6504021D01*
Y6516019D01*
X9321968Y6527104D01*
X9313484Y6535588D01*
X9302399Y6540180D01*
D02*
G37*
G36*
X9391299Y6448740D02*
X9379301D01*
X9368216Y6444148D01*
X9359732Y6435664D01*
X9355140Y6424579D01*
Y6412581D01*
X9359732Y6401496D01*
X9368216Y6393012D01*
X9379301Y6388420D01*
X9391299D01*
X9402384Y6393012D01*
X9410868Y6401496D01*
X9415460Y6412581D01*
Y6424579D01*
X9410868Y6435664D01*
X9402384Y6444148D01*
X9391299Y6448740D01*
D02*
G37*
G36*
X9602952Y6446200D02*
X9590954D01*
X9579869Y6441608D01*
X9571385Y6433124D01*
X9566793Y6422039D01*
Y6410041D01*
X9571385Y6398956D01*
X9579869Y6390472D01*
X9590954Y6385880D01*
X9602952D01*
X9614037Y6390472D01*
X9622522Y6398956D01*
X9627113Y6410041D01*
Y6422039D01*
X9622522Y6433124D01*
X9614037Y6441608D01*
X9602952Y6446200D01*
D02*
G37*
G36*
X9497979D02*
X9485981D01*
X9474896Y6441608D01*
X9466412Y6433124D01*
X9461820Y6422039D01*
Y6410041D01*
X9466412Y6398956D01*
X9474896Y6390472D01*
X9485981Y6385880D01*
X9497979D01*
X9509064Y6390472D01*
X9517548Y6398956D01*
X9522140Y6410041D01*
Y6422039D01*
X9517548Y6433124D01*
X9509064Y6441608D01*
X9497979Y6446200D01*
D02*
G37*
G36*
X9602952Y6331900D02*
X9590954D01*
X9579869Y6327308D01*
X9571385Y6318824D01*
X9566793Y6307739D01*
Y6295741D01*
X9571385Y6284656D01*
X9579869Y6276172D01*
X9590954Y6271580D01*
X9602952D01*
X9614037Y6276172D01*
X9622522Y6284656D01*
X9627113Y6295741D01*
Y6307739D01*
X9622522Y6318824D01*
X9614037Y6327308D01*
X9602952Y6331900D01*
D02*
G37*
G36*
X9497979D02*
X9485981D01*
X9474896Y6327308D01*
X9466412Y6318824D01*
X9461820Y6307739D01*
Y6295741D01*
X9466412Y6284656D01*
X9474896Y6276172D01*
X9485981Y6271580D01*
X9497979D01*
X9509064Y6276172D01*
X9517548Y6284656D01*
X9522140Y6295741D01*
Y6307739D01*
X9517548Y6318824D01*
X9509064Y6327308D01*
X9497979Y6331900D01*
D02*
G37*
G36*
X9393423D02*
X9381424D01*
X9370339Y6327308D01*
X9361855Y6318824D01*
X9357263Y6307739D01*
Y6295741D01*
X9361855Y6284656D01*
X9370339Y6276172D01*
X9381424Y6271580D01*
X9393423D01*
X9404508Y6276172D01*
X9412992Y6284656D01*
X9417583Y6295741D01*
Y6307739D01*
X9412992Y6318824D01*
X9404508Y6327308D01*
X9393423Y6331900D01*
D02*
G37*
G36*
X9228739Y6234130D02*
X9216741D01*
X9205656Y6229538D01*
X9197172Y6221054D01*
X9192580Y6209969D01*
Y6197971D01*
X9197172Y6186886D01*
X9198141Y6185917D01*
X9205009Y6177620D01*
X9198141Y6169323D01*
X9197172Y6168354D01*
X9192580Y6157269D01*
Y6145271D01*
X9197172Y6134186D01*
X9205656Y6125702D01*
X9216741Y6121110D01*
X9228739D01*
X9239824Y6125702D01*
X9248308Y6134186D01*
X9252900Y6145271D01*
Y6157269D01*
X9248308Y6168354D01*
X9247339Y6169323D01*
X9240471Y6177620D01*
X9247339Y6185917D01*
X9248308Y6186886D01*
X9252900Y6197971D01*
Y6209969D01*
X9248308Y6221054D01*
X9239824Y6229538D01*
X9228739Y6234130D01*
D02*
G37*
G36*
X9960259Y5915340D02*
X9948261D01*
X9937176Y5910748D01*
X9928692Y5902264D01*
X9924100Y5891179D01*
Y5879181D01*
X9928692Y5868096D01*
X9937176Y5859612D01*
X9937558Y5859453D01*
Y5845707D01*
X9936841Y5845410D01*
X9928357Y5836926D01*
X9923766Y5825841D01*
Y5813842D01*
X9928357Y5802757D01*
X9936841Y5794273D01*
X9947927Y5789682D01*
X9959925D01*
X9971010Y5794273D01*
X9979494Y5802757D01*
X9984086Y5813842D01*
Y5825841D01*
X9979494Y5836926D01*
X9971010Y5845410D01*
X9970628Y5845568D01*
Y5859315D01*
X9971344Y5859612D01*
X9979828Y5868096D01*
X9984420Y5879181D01*
Y5891179D01*
X9979828Y5902264D01*
X9971344Y5910748D01*
X9960259Y5915340D01*
D02*
G37*
%LPD*%
D10*
X9811261Y8021326D02*
G03*
X9874891Y7994970I63630J63630D01*
G01*
X9784905Y8047683D02*
X9811261Y8021326D01*
X9874891Y7994970D02*
X10180320D01*
X9782200Y8047683D02*
X9784905D01*
D11*
X9555972Y6008957D02*
G03*
X9555992Y6008977I-38604J38644D01*
G01*
X9517368Y5992978D02*
G03*
X9555972Y6008957I0J54623D01*
G01*
X9654331Y6087813D02*
G03*
X9609242Y6062078I24541J-95365D01*
G01*
X9678872Y6090920D02*
G03*
X9654331Y6087813I0J-98472D01*
G01*
X9633327Y6029291D02*
G03*
X9633255Y6029218I87568J-87712D01*
G01*
X9720895Y6065520D02*
G03*
X9633327Y6029291I0J-123942D01*
G01*
X9636214Y6118372D02*
G03*
X9649316Y6116320I13103J40801D01*
G01*
X9619015Y6128871D02*
G03*
X9636214Y6118372I30302J30302D01*
G01*
X9581745Y6169191D02*
G03*
X9516770Y6142278I0J-91889D01*
G01*
X9658630Y6155410D02*
G03*
X9691745Y6141720I33114J33206D01*
G01*
X9658584Y6155456D02*
G03*
X9625423Y6169191I-33161J-33161D01*
G01*
X9658584Y6155456D02*
G03*
X9658630Y6155410I33160J33160D01*
G01*
X10122993Y6120256D02*
G03*
X10177780Y6252522I-132266J132266D01*
G01*
X10122909Y6120171D02*
G03*
X10122993Y6120256I-132059J132229D01*
G01*
X9990849Y6065520D02*
G03*
X10122909Y6120171I0J186880D01*
G01*
X10105004Y6138187D02*
G03*
X10105033Y6138216I-114154J114213D01*
G01*
X9990849Y6090920D02*
G03*
X10105004Y6138187I0J161480D01*
G01*
X10087073Y6156177D02*
G03*
X10126929Y6252399I-96223J96223D01*
G01*
X10087026Y6156131D02*
G03*
X10087073Y6156177I-96177J96269D01*
G01*
X9990849Y6116320D02*
G03*
X10087026Y6156131I0J136080D01*
G01*
X10069112Y6174137D02*
G03*
X10101529Y6252399I-78262J78262D01*
G01*
X9990850Y6141720D02*
G03*
X10069112Y6174137I0J110679D01*
G01*
X10105062Y6138246D02*
G03*
X10152329Y6252400I-114213J114154D01*
G01*
X10105033Y6138216D02*
G03*
X10105062Y6138246I-114183J114183D01*
G01*
X10116670Y7009099D02*
G03*
X10116443Y7009325I-147915J-147619D01*
G01*
X10177729Y6861589D02*
G03*
X10116670Y7009099I-208974J-110D01*
G01*
X10098648Y6991200D02*
G03*
X10098561Y6991286I-129893J-129721D01*
G01*
X10152329Y6861479D02*
G03*
X10098648Y6991200I-183574J0D01*
G01*
X10126929Y6852678D02*
G03*
X10074378Y6979549I-179422J0D01*
G01*
X10101529Y6847366D02*
G03*
X10052661Y6965345I-166847J0D01*
G01*
X9896488Y7134860D02*
G03*
X9896374Y7134860I0J-227952D01*
G01*
X10057476Y7068293D02*
G03*
X9896488Y7134860I-160988J-161385D01*
G01*
X10057756Y7068013D02*
G03*
X10057476Y7068293I-161268J-161105D01*
G01*
X10039565Y7050282D02*
G03*
X9896488Y7109460I-143078J-143374D01*
G01*
X10039716Y7050132D02*
G03*
X10039565Y7050282I-143228J-143224D01*
G01*
X10021664Y7032262D02*
G03*
X9896488Y7084060I-125177J-125355D01*
G01*
X10021827Y7032100D02*
G03*
X10021664Y7032262I-125339J-125192D01*
G01*
X10003793Y7014213D02*
G03*
X9896488Y7058660I-107305J-107305D01*
G01*
X9392920Y7227766D02*
G03*
X9442450Y7108190I169106J0D01*
G01*
X9442482Y7108158D02*
G03*
X9562027Y7058660I119544J119609D01*
G01*
X9442450Y7108190D02*
G03*
X9442482Y7108158I119577J119577D01*
G01*
X9418320Y7227766D02*
G03*
X9460411Y7126151I143706J0D01*
G01*
D02*
G03*
X9562026Y7084060I101616J101616D01*
G01*
X9443720Y7227766D02*
G03*
X9478371Y7144111I118307J0D01*
G01*
X9478444Y7144038D02*
G03*
X9562026Y7109460I83582J83728D01*
G01*
X9478371Y7144111D02*
G03*
X9478444Y7144038I83655J83655D01*
G01*
X9469120Y7227766D02*
G03*
X9496332Y7162072I92906J0D01*
G01*
D02*
G03*
X9562026Y7134860I65695J65695D01*
G01*
X9492865Y7506585D02*
G03*
X9469120Y7449190I57493J-57394D01*
G01*
X9492914Y7506634D02*
G03*
X9492865Y7506585I57444J-57444D01*
G01*
X9321115Y7833030D02*
G03*
X9352589Y7757005I107558J0D01*
G01*
X9375342Y7734353D02*
G03*
X9375263Y7734430I-14179J-14555D01*
G01*
X9375427Y7734270D02*
G03*
X9375342Y7734353I-14264J-14472D01*
G01*
X9368239Y7741354D02*
G03*
X9368326Y7741268I17880J18040D01*
G01*
X9368213Y7741381D02*
G03*
X9368239Y7741354I17906J18014D01*
G01*
X9424471Y7706222D02*
G03*
X9389122Y7724524I-46471J-46471D01*
G01*
X9381225Y7728571D02*
G03*
X9389122Y7724524I10598J10951D01*
G01*
X9432764Y7733821D02*
G03*
X9432825Y7733788I7165J13451D01*
G01*
X9361435Y7807560D02*
G03*
X9378039Y7767475I56689J0D01*
G01*
X9386119Y7759395D02*
G03*
X9389681Y7756770I10726J10826D01*
G01*
X9421077Y7740046D02*
G03*
X9420600Y7740300I-43077J-80295D01*
G01*
X9442558Y7724057D02*
G03*
X9442430Y7724184I-64558J-64305D01*
G01*
X9469120Y7659752D02*
G03*
X9442558Y7724057I-91120J0D01*
G01*
X9424556Y7706137D02*
G03*
X9424471Y7706222I-46556J-46385D01*
G01*
X9443720Y7659752D02*
G03*
X9424556Y7706137I-65720J0D01*
G01*
X9443588Y7655590D02*
G03*
X9443720Y7659752I-65588J4162D01*
G01*
X9443588Y7655590D02*
G03*
X9443559Y7654587I15211J-946D01*
G01*
X9281160Y7857878D02*
G03*
X9327381Y7746292I157807J0D01*
G01*
X9379541Y7700042D02*
G03*
X9379553Y7700041I728J15223D01*
G01*
X9369615Y7704367D02*
G03*
X9379541Y7700042I10654J10898D01*
G01*
X9351306Y7722367D02*
G03*
X9351708Y7721968I53916J54045D01*
G01*
X9351177Y7722495D02*
G03*
X9351306Y7722367I54045J53916D01*
G01*
X9351119Y7722554D02*
G03*
X9351177Y7722495I54103J53857D01*
G01*
X9406467Y7688305D02*
G03*
X9379553Y7700041I-28467J-28554D01*
G01*
X9418195Y7656580D02*
G03*
X9418154Y7655461I15199J-1116D01*
G01*
X9406554Y7688219D02*
G03*
X9406467Y7688305I-28554J-28467D01*
G01*
X9418320Y7659752D02*
G03*
X9406554Y7688219I-40320J0D01*
G01*
X9418195Y7656580D02*
G03*
X9418320Y7659752I-40195J3171D01*
G01*
Y7623732D02*
G03*
X9418307Y7625156I-76340J0D01*
G01*
X9390017Y7640683D02*
G03*
X9378000Y7659752I-48036J-16952D01*
G01*
X9392920Y7623732D02*
G03*
X9390017Y7640683I-50940J0D01*
G01*
X9240520Y7857895D02*
G03*
X9283416Y7754336I146455J0D01*
G01*
X9234767Y8635685D02*
G03*
X9223700Y8651240I-51675J-25053D01*
G01*
X9240520Y8610633D02*
G03*
X9234767Y8635685I-57428J0D01*
G01*
X9315748Y8616288D02*
G03*
X9280796Y8531906I84382J-84382D01*
G01*
X9355783Y8593783D02*
G03*
X9321115Y8510089I83694J-83694D01*
G01*
X9390500Y8628500D02*
G03*
X9390450Y8628450I54970J-55071D01*
G01*
X9445470Y8651240D02*
G03*
X9390500Y8628500I0J-77810D01*
G01*
X9472098Y8610920D02*
G03*
X9393848Y8578508I0J-110662D01*
G01*
D02*
G03*
X9361435Y8500257I78251J-78251D01*
G01*
X9583231Y8632311D02*
G03*
X9583270Y8632350I-51697J51776D01*
G01*
X9531533Y8610920D02*
G03*
X9583231Y8632311I0J73166D01*
G01*
X9494594Y5992978D02*
X9517368D01*
X9555992Y6008977D02*
X9580252Y6033237D01*
X9580401D02*
X9609242Y6062078D01*
X9555972Y6008957D02*
X9555992Y6008977D01*
X9678872Y6090920D02*
X9990849D01*
X9596953Y5992917D02*
X9633255Y6029218D01*
X9720895Y6065520D02*
X9990849D01*
X9649316Y6116320D02*
X9990849D01*
X9489857Y6115364D02*
X9516770Y6142278D01*
X9581745Y6169191D02*
X9625423D01*
X9691745Y6141720D02*
X9990850D01*
X10177780Y6252522D02*
Y6827520D01*
X10152329Y6252400D02*
Y6861479D01*
X10126929Y6252399D02*
Y6852678D01*
X10101529Y6252399D02*
Y6847366D01*
X10057756Y7068013D02*
X10116443Y7009325D01*
X10177729Y6861589D02*
X10177780Y6827520D01*
X10044794Y7045054D02*
X10098561Y6991286D01*
X10021827Y7032100D02*
X10074378Y6979549D01*
X10003793Y7014213D02*
X10052661Y6965345D01*
X9562026Y7134860D02*
X9865360D01*
Y7134860D02*
X9896374D01*
X9562026Y7109460D02*
X9870440D01*
X10039716Y7050131D02*
X10044794Y7045054D01*
X9870440Y7109460D02*
X9896484D01*
X9896485Y7084060D02*
X9896488D01*
X9878060Y7084060D02*
X9896485Y7084060D01*
X9562026D02*
X9878060D01*
X9562027Y7058660D02*
X9896488D01*
X9392920Y7227766D02*
Y7623732D01*
X9418320Y7227766D02*
Y7623732D01*
X9443720Y7227766D02*
Y7640436D01*
X9469120Y7227766D02*
Y7449190D01*
X9492914Y7506634D02*
X9516708Y7530428D01*
X9374784Y7734901D02*
X9375263Y7734429D01*
X9368326Y7741268D02*
X9374784Y7734901D01*
X9352589Y7757005D02*
X9368212Y7741380D01*
X9375427Y7734270D02*
X9381225Y7728571D01*
X9421077Y7740046D02*
X9432764Y7733820D01*
X9432825Y7733788D02*
X9432826D01*
X9442430Y7724184D01*
X9389681Y7756770D02*
X9420600Y7740300D01*
X9378039Y7767475D02*
X9386119Y7759395D01*
X9469120Y7449190D02*
Y7654357D01*
X9443559Y7654587D02*
X9443630Y7640436D01*
X9327381Y7746292D02*
X9351118Y7722554D01*
X9351708Y7721968D02*
X9369615Y7704367D01*
X9418154Y7655461D02*
X9418307Y7625156D01*
X9283416Y7754336D02*
X9378000Y7659752D01*
X9240520Y7857895D02*
Y8610633D01*
X9281160Y7857878D02*
Y8064500D01*
X9321115Y7833030D02*
Y8047435D01*
X9361435Y7807560D02*
Y8500257D01*
X9280796Y8064864D02*
Y8531906D01*
X9315748Y8616288D02*
X9350700Y8651240D01*
X9321115Y8173677D02*
Y8510089D01*
X9355783Y8593783D02*
X9390450Y8628450D01*
X9445470Y8651240D02*
X9477700D01*
X9472098Y8610920D02*
X9531533D01*
X9583270Y8632350D02*
X9604700Y8653780D01*
X9321115Y8081565D02*
Y8173677D01*
X8229321Y7668455D02*
X8234058Y7663717D01*
X8245573D01*
X8246110Y7663180D01*
X9321480Y8047799D02*
Y8081201D01*
X9321115Y8081565D02*
X9321480Y8081201D01*
X9321115Y8047435D02*
X9321480Y8047799D01*
X9280796Y8064864D02*
X9281160Y8064500D01*
X9580252Y6033237D02*
X9580401D01*
X9489857Y5988241D02*
X9494594Y5992978D01*
D36*
X7955280Y7015480D02*
Y7289800D01*
Y7348220D02*
Y7406640D01*
Y7289800D02*
Y7348220D01*
X9050020Y7015480D02*
Y7213600D01*
X9128760Y7292340D01*
Y7350760D02*
Y7409180D01*
Y7292340D02*
Y7350760D01*
D37*
X7584440Y8661400D02*
D03*
Y7381240D02*
D03*
X8872922Y8661400D02*
D03*
Y7381240D02*
D03*
D38*
X7594346Y7671308D02*
D03*
Y7921244D02*
D03*
Y8121396D02*
D03*
Y8371332D02*
D03*
X7444486Y7621270D02*
D03*
Y7821422D02*
D03*
Y8021320D02*
D03*
Y8221218D02*
D03*
Y8421370D02*
D03*
X8882828Y7671308D02*
D03*
Y7921244D02*
D03*
Y8121396D02*
D03*
Y8371332D02*
D03*
X8732968Y7621270D02*
D03*
Y7821422D02*
D03*
Y8021320D02*
D03*
Y8221218D02*
D03*
Y8421370D02*
D03*
D39*
X10197198Y7781315D02*
D03*
X9767201D02*
D03*
Y8261325D02*
D03*
X10197198D02*
D03*
D40*
X1616116Y6469476D02*
D03*
X5416116D02*
D03*
X1616116Y3662126D02*
D03*
X5416116D02*
D03*
D41*
X436880Y7653020D02*
D03*
X513080D02*
D03*
X589280D02*
D03*
Y7602220D02*
D03*
X513080D02*
D03*
X436880D02*
D03*
X1023620Y7975600D02*
D03*
X1099820D02*
D03*
X1176020D02*
D03*
Y7924800D02*
D03*
X1099820D02*
D03*
X1023620D02*
D03*
X1041400Y8671560D02*
D03*
X1117600D02*
D03*
X1193800D02*
D03*
Y8620760D02*
D03*
X1117600D02*
D03*
X1041400D02*
D03*
X1277620Y8752840D02*
D03*
X1353820D02*
D03*
X1430020D02*
D03*
Y8702040D02*
D03*
X1353820D02*
D03*
X1277620D02*
D03*
X784860Y8750300D02*
D03*
X861060D02*
D03*
X937260D02*
D03*
Y8699500D02*
D03*
X861060D02*
D03*
X784860D02*
D03*
X779780Y8577580D02*
D03*
X855980D02*
D03*
X932180D02*
D03*
Y8526780D02*
D03*
X855980D02*
D03*
X779780D02*
D03*
X1267460Y8580120D02*
D03*
X1343660D02*
D03*
X1419860D02*
D03*
Y8529320D02*
D03*
X1343660D02*
D03*
X1267460D02*
D03*
X1262380Y8133080D02*
D03*
X1338580D02*
D03*
X1414780D02*
D03*
Y8082280D02*
D03*
X1338580D02*
D03*
X1262380D02*
D03*
X1267460Y8450580D02*
D03*
X1343660D02*
D03*
X1419860D02*
D03*
Y8399780D02*
D03*
X1343660D02*
D03*
X1267460D02*
D03*
X93980Y6281420D02*
D03*
Y6169660D02*
D03*
Y6228080D02*
D03*
X9075420Y4963160D02*
D03*
Y4917440D02*
D03*
Y4871720D02*
D03*
X9123680Y5212080D02*
D03*
X8244840Y3822700D02*
D03*
X347980Y6111240D02*
D03*
X414020D02*
D03*
X477520D02*
D03*
X541020Y6113780D02*
D03*
X360680Y4841240D02*
D03*
X424180D02*
D03*
X490220D02*
D03*
X553720D02*
D03*
X5977455Y3749899D02*
D03*
X6014720Y3787164D02*
D03*
X8440989Y5280660D02*
D03*
X8388289D02*
D03*
X8615680Y4955479D02*
D03*
Y5008179D02*
D03*
X8792628Y5472012D02*
D03*
X8829892Y5434748D02*
D03*
X8384900Y4768149D02*
D03*
Y4715449D02*
D03*
X8320974Y5032100D02*
D03*
X8267700D02*
D03*
X8147370Y5722620D02*
D03*
X8200070D02*
D03*
X8081071Y5245100D02*
D03*
X8028371D02*
D03*
X7470140Y6151270D02*
D03*
Y6203970D02*
D03*
X7053580Y6533830D02*
D03*
X7788341Y5034280D02*
D03*
X7841041D02*
D03*
X7053580Y6481130D02*
D03*
X7874950Y6962140D02*
D03*
X6997700Y6685364D02*
D03*
X7822250Y6962140D02*
D03*
X6997700Y6738063D02*
D03*
X7659690Y6578600D02*
D03*
X6637020Y6869110D02*
D03*
X7712390Y6578600D02*
D03*
X6637020Y6816410D02*
D03*
X7961056Y5092700D02*
D03*
X7053573Y6213790D02*
D03*
X7908356Y5092700D02*
D03*
X7053573Y6161090D02*
D03*
X8806180Y6533830D02*
D03*
X8450580Y4648261D02*
D03*
X8806180Y6481130D02*
D03*
X8450580Y4595561D02*
D03*
X8806173Y6161090D02*
D03*
Y6213790D02*
D03*
X8384900Y4475546D02*
D03*
Y4528246D02*
D03*
X9222740Y6151270D02*
D03*
X8900160Y4355531D02*
D03*
X9222740Y6203970D02*
D03*
X8900160Y4408231D02*
D03*
X9412290Y6578600D02*
D03*
X5897880Y4096700D02*
D03*
X9464990Y6578600D02*
D03*
X5897880Y4044000D02*
D03*
X9574850Y6962140D02*
D03*
X5905500Y3975100D02*
D03*
X9627550Y6962140D02*
D03*
X5905500Y3922400D02*
D03*
X6122235Y3499285D02*
D03*
X6159500Y3462020D02*
D03*
X5977455Y3534845D02*
D03*
X6014720Y3497580D02*
D03*
X9782200Y8047683D02*
D03*
X10180320Y7994970D02*
D03*
X9413126Y7845095D02*
D03*
X5905500Y3848100D02*
D03*
X10180320Y8047670D02*
D03*
X9782200Y7994983D02*
D03*
X9413126Y7792395D02*
D03*
X5905500Y3795400D02*
D03*
X10154920Y7517323D02*
D03*
X9775790Y7426960D02*
D03*
X10154920Y7570023D02*
D03*
X9723091Y7426960D02*
D03*
X6159500Y3822724D02*
D03*
X6122235Y3785459D02*
D03*
X6637020Y6921810D02*
D03*
Y6763710D02*
D03*
X2956560Y6764020D02*
D03*
X2827020D02*
D03*
X2702560D02*
D03*
X2697480Y3962400D02*
D03*
X2824480D02*
D03*
X2956560D02*
D03*
X4777740Y6012180D02*
D03*
X4845799Y6352483D02*
D03*
X4658360Y6062980D02*
D03*
X4541106Y6232950D02*
D03*
X4437980Y6033730D02*
D03*
X4303798Y6078848D02*
D03*
X3759200Y6197600D02*
D03*
X3947160Y6322060D02*
D03*
X3878985Y6086466D02*
D03*
X3614722Y6037832D02*
D03*
X3594100Y6296660D02*
D03*
X2811780Y6327140D02*
D03*
X2900680Y6240780D02*
D03*
X3088640Y6172200D02*
D03*
X2918460Y6073140D02*
D03*
X2989580Y6035040D02*
D03*
X2773680Y6027420D02*
D03*
X2905760Y3373120D02*
D03*
X2733040Y3246120D02*
D03*
X2768600Y3352800D02*
D03*
X2840851Y3282718D02*
D03*
X3126155Y3374751D02*
D03*
X3558540Y3385820D02*
D03*
X4522940Y3385371D02*
D03*
X4691432Y3389619D02*
D03*
X4340289Y3235994D02*
D03*
X4622761Y3262895D02*
D03*
X4366484Y3377583D02*
D03*
X3954780Y3406140D02*
D03*
X3731260Y3370580D02*
D03*
X3843020Y3248660D02*
D03*
X3604260Y3218180D02*
D03*
X3053080Y3225800D02*
D03*
X1328420Y6911340D02*
D03*
X1130300Y6715760D02*
D03*
X1346200Y4993640D02*
D03*
X1272540D02*
D03*
Y4912360D02*
D03*
X1346200D02*
D03*
X1272540Y4719320D02*
D03*
X1346200D02*
D03*
X1272540Y4630420D02*
D03*
X1346200D02*
D03*
Y4442460D02*
D03*
X1272540D02*
D03*
X485140Y5062220D02*
D03*
X563880Y5064760D02*
D03*
X508000Y5151120D02*
D03*
X378460D02*
D03*
X246380D02*
D03*
X142240D02*
D03*
X73660Y5074920D02*
D03*
Y5001260D02*
D03*
Y4930140D02*
D03*
X1290320Y6273800D02*
D03*
X1358900D02*
D03*
X1292860Y6192520D02*
D03*
X1358900D02*
D03*
X1297940Y5897880D02*
D03*
X1358900Y5900420D02*
D03*
X1346200Y5717540D02*
D03*
X1275080D02*
D03*
X637540Y6245860D02*
D03*
Y6299200D02*
D03*
X574040Y6245860D02*
D03*
Y6299200D02*
D03*
X484420Y4368800D02*
D03*
Y5639837D02*
D03*
X360680Y5801360D02*
D03*
X449580D02*
D03*
X533400D02*
D03*
X414020Y4559300D02*
D03*
X472440D02*
D03*
X530995Y4557608D02*
D03*
X228600Y6451600D02*
D03*
Y6400800D02*
D03*
X177800D02*
D03*
Y6451600D02*
D03*
X939800Y6807200D02*
D03*
Y6731000D02*
D03*
Y6654800D02*
D03*
X990600D02*
D03*
Y6731000D02*
D03*
Y6807200D02*
D03*
X1953050Y3446990D02*
D03*
X2057190Y3546050D02*
D03*
X1841290Y3553670D02*
D03*
X2057190Y3767030D02*
D03*
X2168950Y3660350D02*
D03*
X1950510D02*
D03*
X1445260Y4157980D02*
D03*
X1338580Y4272280D02*
D03*
X1229360Y4165600D02*
D03*
X1341120Y4058920D02*
D03*
X1557020Y4272280D02*
D03*
X1445260Y4378960D02*
D03*
X1681480Y6835140D02*
D03*
X1752600Y6758940D02*
D03*
X1856740Y6865620D02*
D03*
X1783080Y6939280D02*
D03*
X1356360Y7155180D02*
D03*
X1280160Y7231380D02*
D03*
X1463040Y7264400D02*
D03*
X1386840Y7338060D02*
D03*
X927100Y3314700D02*
D03*
X962660Y3350260D02*
D03*
X2319020Y3322320D02*
D03*
X5212080Y3812540D02*
D03*
X4733116Y3501942D02*
D03*
X4352116D02*
D03*
X3209116D02*
D03*
X3082116D02*
D03*
X2574116D02*
D03*
X5114116Y6309292D02*
D03*
X4733116D02*
D03*
X4352116D02*
D03*
X3209116D02*
D03*
X3082116D02*
D03*
X2574116D02*
D03*
X2320116D02*
D03*
X144780Y5662380D02*
D03*
Y6093460D02*
D03*
Y4823460D02*
D03*
Y4392380D02*
D03*
X5862321Y4135595D02*
D03*
X5941733Y4013471D02*
D03*
X5867295Y3886100D02*
D03*
X6215380Y3828883D02*
D03*
X6065852Y3799923D02*
D03*
X5920740Y3743960D02*
D03*
X5935980Y3571240D02*
D03*
X6067354Y3494948D02*
D03*
X6197600Y3423920D02*
D03*
X9223700Y8651240D02*
D03*
X9350700D02*
D03*
X9477700D02*
D03*
X9604700Y8653780D02*
D03*
X7830820D02*
D03*
X7964480D02*
D03*
X8091480Y8652510D02*
D03*
X8218480Y8653780D02*
D03*
X8397240Y8754866D02*
D03*
X9679940Y8727440D02*
D03*
X9378000Y7659752D02*
D03*
X6324600Y3319780D02*
D03*
Y3276280D02*
D03*
X6464300Y3624580D02*
D03*
X6537960D02*
D03*
X6393180D02*
D03*
X8120380Y4775200D02*
D03*
X8067040D02*
D03*
Y4724400D02*
D03*
X8120380D02*
D03*
X7889240Y4777740D02*
D03*
X7835900D02*
D03*
Y4726940D02*
D03*
X7889240D02*
D03*
X8120380Y4655820D02*
D03*
X8067040D02*
D03*
Y4605020D02*
D03*
X8120380D02*
D03*
X7889240Y4658360D02*
D03*
X7835900D02*
D03*
Y4607560D02*
D03*
X7889240D02*
D03*
X8120380Y4528820D02*
D03*
X8067040D02*
D03*
Y4478020D02*
D03*
X8120380D02*
D03*
X7889240Y4528820D02*
D03*
X7835900D02*
D03*
Y4478020D02*
D03*
X7889240D02*
D03*
X7800340Y6344920D02*
D03*
X7731760Y6342380D02*
D03*
X7670800D02*
D03*
X7609840D02*
D03*
X7551420D02*
D03*
X7800340Y6225540D02*
D03*
X7731760D02*
D03*
X7670800D02*
D03*
X7609840D02*
D03*
X7551420D02*
D03*
X7704826Y6455674D02*
D03*
X7767320Y6456680D02*
D03*
X7830820D02*
D03*
X7008713Y6453485D02*
D03*
X7006156Y6556814D02*
D03*
X7048500Y6106926D02*
D03*
X7053580Y6266490D02*
D03*
X7927150Y6954899D02*
D03*
X7770050D02*
D03*
X8787191Y6582990D02*
D03*
Y6431970D02*
D03*
X10403363Y7411375D02*
D03*
X10441940Y7447280D02*
D03*
X9821887Y7939280D02*
D03*
X10345420Y8034020D02*
D03*
X8875264Y5407940D02*
D03*
X8762258Y5515082D02*
D03*
X8785140Y4921385D02*
D03*
X6235700Y3932891D02*
D03*
X7503160Y4683760D02*
D03*
X7762240Y4800600D02*
D03*
X7764420Y4881880D02*
D03*
X7680777Y4921885D02*
D03*
X7922260Y3289300D02*
D03*
X7830820Y3291840D02*
D03*
X8006080Y3289300D02*
D03*
X7741920Y3291840D02*
D03*
X7680777Y4841875D02*
D03*
X8553519Y3328601D02*
D03*
X8229600Y3289300D02*
D03*
X8577580Y3828883D02*
D03*
X8778240Y3952240D02*
D03*
X8229321Y7668455D02*
D03*
X10313234Y4043680D02*
D03*
X9255760Y4859020D02*
D03*
Y4953000D02*
D03*
Y4907280D02*
D03*
X9232900Y4101315D02*
D03*
X9298940D02*
D03*
X9232900Y4045762D02*
D03*
X9298940D02*
D03*
X7955280Y7289800D02*
D03*
Y7406640D02*
D03*
Y7348220D02*
D03*
X9128760Y7350760D02*
D03*
Y7409180D02*
D03*
Y7292340D02*
D03*
X9514840Y3733800D02*
D03*
X9240520Y3731260D02*
D03*
X9306560D02*
D03*
X9372600D02*
D03*
X9446260Y3732698D02*
D03*
X10462260Y3421380D02*
D03*
X10375900D02*
D03*
X10462260Y3347720D02*
D03*
X10375900D02*
D03*
X10396220Y3271520D02*
D03*
X10309860D02*
D03*
X10325100Y3208020D02*
D03*
X10238740D02*
D03*
X10223500Y3139440D02*
D03*
X10137140D02*
D03*
X10165080Y3202940D02*
D03*
X10078720D02*
D03*
X10002520Y3159760D02*
D03*
X9916160D02*
D03*
X9751486Y3130559D02*
D03*
X9677826Y3133099D02*
D03*
X9162206Y3138179D02*
D03*
X9334926Y3135639D02*
D03*
X9591466Y3133099D02*
D03*
X9837846Y3130559D02*
D03*
X9507646Y3133099D02*
D03*
X9248566Y3135639D02*
D03*
X9075846Y3138179D02*
D03*
X9421286Y3133099D02*
D03*
X10462260Y3505200D02*
D03*
X10375900D02*
D03*
X10462260Y3563620D02*
D03*
X10375900D02*
D03*
X10462260Y3622040D02*
D03*
X10375900D02*
D03*
X10462260Y3677920D02*
D03*
X10375900D02*
D03*
Y3733800D02*
D03*
X10462260D02*
D03*
X9065260Y4051300D02*
D03*
Y4099560D02*
D03*
X9121140Y4051300D02*
D03*
Y4099560D02*
D03*
X9080500Y4333240D02*
D03*
X9141460Y4335780D02*
D03*
Y4386580D02*
D03*
X9123680Y5161280D02*
D03*
X9075420D02*
D03*
Y5212080D02*
D03*
X9123680Y5260340D02*
D03*
X9075420D02*
D03*
X9123680Y4871720D02*
D03*
Y4917440D02*
D03*
Y4963160D02*
D03*
X9516708Y7530428D02*
D03*
X9321115Y8173677D02*
D03*
X9281160Y8064500D02*
D03*
X8481060Y8067040D02*
D03*
X8351520Y7538720D02*
D03*
X8061960Y6207760D02*
D03*
X8221980Y8115300D02*
D03*
Y8168640D02*
D03*
X9387423Y6301740D02*
D03*
X9296400Y6510020D02*
D03*
X9385300Y6418580D02*
D03*
X9387423Y6510020D02*
D03*
X9494520D02*
D03*
X9491980Y6416040D02*
D03*
Y6301740D02*
D03*
X9596953D02*
D03*
Y6416040D02*
D03*
Y6510020D02*
D03*
X9680942Y7395325D02*
D03*
X7394660Y4297680D02*
D03*
Y4940300D02*
D03*
X8354060Y5404397D02*
D03*
X6936740Y5953760D02*
D03*
X7241540Y5765800D02*
D03*
X9253220Y5561650D02*
D03*
X9256539Y5706212D02*
D03*
X9230360Y5821680D02*
D03*
X9489857Y6115364D02*
D03*
X9619015Y6128871D02*
D03*
X10038737Y6204988D02*
D03*
X9804710Y6217620D02*
D03*
X9123680Y7162800D02*
D03*
X9230360Y7155180D02*
D03*
X9113958Y7050720D02*
D03*
X8974711Y6882509D02*
D03*
X8971280Y6764020D02*
D03*
X8872220Y6776720D02*
D03*
X7477760Y7091749D02*
D03*
X7541191Y7152640D02*
D03*
X7249160Y7160260D02*
D03*
X7360029Y7049391D02*
D03*
X7272122Y6713118D02*
D03*
X7227191Y6887589D02*
D03*
X7044164Y6660497D02*
D03*
X7040880Y6769100D02*
D03*
X7737257Y6532136D02*
D03*
X7634823D02*
D03*
X9940501Y4742180D02*
D03*
X7849677Y5850347D02*
D03*
X7854795Y6117545D02*
D03*
X7708696Y5977168D02*
D03*
X7844353Y5992917D02*
D03*
X7737257Y6115364D02*
D03*
X9489857Y5988241D02*
D03*
X9596953Y5992917D02*
D03*
X9825380Y7198129D02*
D03*
X9823500Y7393389D02*
D03*
X10137800Y7396160D02*
D03*
X10139680Y7200900D02*
D03*
X6299200Y3416300D02*
D03*
X10055140Y4865549D02*
D03*
X9938623Y6891276D02*
D03*
X9954260Y5885180D02*
D03*
X9953926Y5819842D02*
D03*
X10099040Y3982720D02*
D03*
X9931400Y5603240D02*
D03*
X10033000Y5057140D02*
D03*
X9941560D02*
D03*
X9987280D02*
D03*
Y4229100D02*
D03*
X9941560D02*
D03*
X10033000D02*
D03*
X10317102Y5331780D02*
D03*
X10319458Y4503740D02*
D03*
Y4874260D02*
D03*
X7284720Y4300220D02*
D03*
Y4406900D02*
D03*
X7287260Y4508500D02*
D03*
Y4620260D02*
D03*
Y4724400D02*
D03*
Y4833620D02*
D03*
Y4937760D02*
D03*
Y5044440D02*
D03*
Y5153660D02*
D03*
X7716520Y5511800D02*
D03*
X7823200Y5466080D02*
D03*
X7995920Y5506720D02*
D03*
X7874762Y5404400D02*
D03*
X7994650D02*
D03*
X8114538D02*
D03*
X8116763Y5506340D02*
D03*
X8237220D02*
D03*
Y5404400D02*
D03*
X8356600Y5514340D02*
D03*
X8754660Y4803140D02*
D03*
X8867140D02*
D03*
X8754660Y4681220D02*
D03*
X8867140Y4559300D02*
D03*
Y4681220D02*
D03*
X8867885Y4449892D02*
D03*
X8873359Y4310155D02*
D03*
X8788360Y4206240D02*
D03*
X8754660Y4449892D02*
D03*
Y4561840D02*
D03*
X7785100Y3980180D02*
D03*
X7952740Y3937000D02*
D03*
X7833360Y4039320D02*
D03*
X7955280D02*
D03*
X8074025D02*
D03*
X8181340Y3934460D02*
D03*
X8074660D02*
D03*
X8288020D02*
D03*
X8529320Y3937000D02*
D03*
X8633460Y4006022D02*
D03*
X8112760Y5763260D02*
D03*
X8235200Y5761902D02*
D03*
X8054340Y5943600D02*
D03*
Y5877560D02*
D03*
Y5819140D02*
D03*
X8295640Y6022340D02*
D03*
Y5971540D02*
D03*
Y5918200D02*
D03*
X8173720Y6891020D02*
D03*
X8008620Y6959600D02*
D03*
X7528560Y5880820D02*
D03*
X7635240D02*
D03*
X7741920D02*
D03*
X7421880Y5773420D02*
D03*
X7741920D02*
D03*
X7635240D02*
D03*
X7528560D02*
D03*
X9125011Y5819140D02*
D03*
X7125418Y6073860D02*
D03*
Y5973362D02*
D03*
X7185658Y5920740D02*
D03*
Y6027420D02*
D03*
X7084060Y6344920D02*
D03*
X7185658Y6347460D02*
D03*
Y6667500D02*
D03*
X7544743Y6894660D02*
D03*
X7643960D02*
D03*
X7722700D02*
D03*
X7579360Y6834420D02*
D03*
X7688580D02*
D03*
X8195502Y6705600D02*
D03*
X8162847Y6385560D02*
D03*
Y6492240D02*
D03*
X8223087Y6549553D02*
D03*
X8222533Y6439453D02*
D03*
X9786620Y5882640D02*
D03*
Y5941060D02*
D03*
X9758680Y5821680D02*
D03*
X9679750Y6954899D02*
D03*
X9522650D02*
D03*
X8817778Y6109684D02*
D03*
Y6265196D02*
D03*
X8834120Y5920740D02*
D03*
X8832632Y6027420D02*
D03*
X9387423Y5777865D02*
D03*
X10045696Y5930904D02*
D03*
Y5979164D02*
D03*
Y6022344D02*
D03*
X9494520Y5777865D02*
D03*
X9601200Y5850347D02*
D03*
X9915447Y6385560D02*
D03*
Y6492240D02*
D03*
X9977120Y6548120D02*
D03*
X9975133Y6436913D02*
D03*
X9334500Y6834420D02*
D03*
X9441180D02*
D03*
X8835172Y6667500D02*
D03*
X8938258D02*
D03*
X8830092Y6347460D02*
D03*
X8938258D02*
D03*
X9494520Y5880820D02*
D03*
X9272411Y6894971D02*
D03*
X9487620Y6894660D02*
D03*
X9387840D02*
D03*
X9948102Y6705600D02*
D03*
X10317480Y4556760D02*
D03*
X10205720D02*
D03*
X10261600D02*
D03*
Y5384800D02*
D03*
X10205720D02*
D03*
X10317480D02*
D03*
X8938258Y6027420D02*
D03*
Y5920740D02*
D03*
X9280083Y5880820D02*
D03*
X9387423D02*
D03*
X9240520Y3319780D02*
D03*
X9189720D02*
D03*
X9240520Y3268980D02*
D03*
X9189720D02*
D03*
X9240520Y3218180D02*
D03*
X9189720D02*
D03*
X6365240Y3416300D02*
D03*
X7734300Y5044440D02*
D03*
X8373424Y5037223D02*
D03*
X8214360Y5041900D02*
D03*
X8294337Y4986627D02*
D03*
X7976681Y5042370D02*
D03*
X7893135Y5042246D02*
D03*
X8430934Y4793803D02*
D03*
X8352462Y4673915D02*
D03*
X8352625Y4569907D02*
D03*
X8384707Y4422846D02*
D03*
X8339260Y4741799D02*
D03*
Y4501896D02*
D03*
D42*
X7856214Y3334551D02*
G03*
X7860350Y3363132I-96686J28581D01*
G01*
X7830820Y3291840D02*
G03*
X7856214Y3334551I-71292J71292D01*
G01*
X7982821Y3266041D02*
G03*
X7982859Y3266079I-38176J38252D01*
G01*
X7944645Y3250250D02*
G03*
X7982821Y3266041I0J54042D01*
G01*
X7883210Y3289300D02*
G03*
X7889686Y3267763I39050J0D01*
G01*
D02*
G03*
X7922260Y3250250I32574J21537D01*
G01*
X7809414Y3325659D02*
G03*
X7837490Y3393440I-67781J67781D01*
G01*
X7741920Y3291840D02*
G03*
X7799407Y3315652I0J81299D01*
G01*
X7911090Y3305370D02*
G03*
X7922260Y3289300I50256J23016D01*
G01*
X7906070Y3328386D02*
G03*
X7911090Y3305370I55276J0D01*
G01*
X8042906Y3749040D02*
G03*
X7897655Y3688875I0J-205416D01*
G01*
X7897477Y3688697D02*
G03*
X7837490Y3543624I145429J-145073D01*
G01*
X7897655Y3688875D02*
G03*
X7897477Y3688697I145251J-145251D01*
G01*
X8042906Y3726180D02*
G03*
X7913820Y3672711I0J-182556D01*
G01*
X7913675Y3672566D02*
G03*
X7860350Y3543624I129232J-128942D01*
G01*
X7913820Y3672711D02*
G03*
X7913675Y3672566I129087J-129087D01*
G01*
X8042906Y3703320D02*
G03*
X7929999Y3656561I0J-159696D01*
G01*
X7929874Y3656436D02*
G03*
X7883210Y3543624I113032J-112812D01*
G01*
X7929999Y3656561D02*
G03*
X7929874Y3656436I112907J-112937D01*
G01*
X8042906Y3680460D02*
G03*
X7946148Y3640382I0J-136835D01*
G01*
X7946078Y3640311D02*
G03*
X7906070Y3543624I96828J-96687D01*
G01*
X7946148Y3640382D02*
G03*
X7946078Y3640311I96758J-96758D01*
G01*
X8826207Y3738121D02*
G03*
X8826524Y3738438I-139429J139747D01*
G01*
X8686778Y3680460D02*
G03*
X8826207Y3738121I0J197408D01*
G01*
X9019540Y3830320D02*
G03*
X8846988Y3758902I0J-244158D01*
G01*
X9014148Y3853180D02*
G03*
X8834543Y3778785I0J-254000D01*
G01*
X8810078Y3754320D02*
G03*
X8810325Y3754568I-123300J123547D01*
G01*
X8686778Y3703320D02*
G03*
X8810078Y3754320I0J174548D01*
G01*
X8793952Y3770523D02*
G03*
X8794118Y3770689I-107174J107345D01*
G01*
X8686778Y3726180D02*
G03*
X8793952Y3770523I0J151688D01*
G01*
X9004679Y3876040D02*
G03*
X8825074Y3801645I0J-254000D01*
G01*
X8777839Y3786739D02*
G03*
X8777873Y3786773I-91062J91128D01*
G01*
X8686778Y3749040D02*
G03*
X8777839Y3786739I0J128828D01*
G01*
X8995210Y3898900D02*
G03*
X8815605Y3824505I0J-254000D01*
G01*
X8846988Y3758902D02*
G03*
X8846894Y3758808I172552J-172740D01*
G01*
X9398000Y4151504D02*
G03*
X9399126Y4146355I12700J81D01*
G01*
X9406570Y4112375D02*
G03*
X9399126Y4146355I-81280J0D01*
G01*
X9375205Y4144931D02*
G03*
X9376630Y4140251I12635J1289D01*
G01*
X9375140Y4146140D02*
G03*
X9375205Y4144931I12700J81D01*
G01*
X9383710Y4112375D02*
G03*
X9376630Y4140251I-58420J0D01*
G01*
X9353583Y4134224D02*
G03*
X9354495Y4132662I11397J5605D01*
G01*
X9352280Y4139748D02*
G03*
X9353583Y4134224I12700J81D01*
G01*
X9360850Y4112375D02*
G03*
X9354495Y4132662I-35560J0D01*
G01*
X9329420Y4135528D02*
G03*
X9334943Y4120627I22860J0D01*
G01*
X9335342Y4120137D02*
G03*
X9334943Y4120627I-10052J-7762D01*
G01*
X9337990Y4112375D02*
G03*
X9335342Y4120137I-12700J0D01*
G01*
X9308273Y3887446D02*
G03*
X9308359Y3887533I-138037J138210D01*
G01*
X9170236Y3830320D02*
G03*
X9308273Y3887446I0J195336D01*
G01*
X9156011Y3853180D02*
G03*
X9288409Y3901113I0J206818D01*
G01*
X9286031Y3929862D02*
G03*
X9286147Y3929978I-130020J130136D01*
G01*
X9156011Y3876040D02*
G03*
X9286031Y3929862I0J183958D01*
G01*
X9156011Y3898900D02*
G03*
X9269925Y3946085I0J161098D01*
G01*
X9365711Y3944884D02*
G03*
X9406570Y4043680I-99013J98796D01*
G01*
X9365572Y3944745D02*
G03*
X9365711Y3944884I-98874J98935D01*
G01*
X9349510Y3961012D02*
G03*
X9383710Y4043680I-82812J82668D01*
G01*
X9349478Y3960980D02*
G03*
X9349510Y3961012I-82780J82700D01*
G01*
X9333306Y3977137D02*
G03*
X9360850Y4043680I-66608J66543D01*
G01*
X9317109Y3993269D02*
G03*
X9337990Y4043680I-50411J50411D01*
G01*
X9398000Y4908482D02*
G03*
X9339630Y5049470I-199458J0D01*
G01*
X9159208Y5115718D02*
G03*
X9157167Y5115809I-2041J-22769D01*
G01*
X9299920Y5082140D02*
G03*
X9185549Y5115560I-114386J-179046D01*
G01*
X9335580Y5053520D02*
G03*
X9299920Y5082140I-150046J-150426D01*
G01*
X9335960Y5053140D02*
G03*
X9335580Y5053520I-150426J-150046D01*
G01*
X9336088Y5053012D02*
G03*
X9335960Y5053140I-150554J-149918D01*
G01*
X9339630Y5049470D02*
G03*
X9339580Y5049520I-141088J-140988D01*
G01*
X9319448Y5037323D02*
G03*
X9185534Y5092700I-133914J-134229D01*
G01*
X9319763Y5037008D02*
G03*
X9319481Y5037290I-134229J-133914D01*
G01*
X9375140Y4903094D02*
G03*
X9319763Y5037008I-189606J0D01*
G01*
X9303316Y5021126D02*
G03*
X9185534Y5069840I-117782J-118032D01*
G01*
X9303440Y5021002D02*
G03*
X9303316Y5021126I-117906J-117908D01*
G01*
X9305003Y5019418D02*
G03*
X9303440Y5021002I-119469J-116324D01*
G01*
X9352280Y4903094D02*
G03*
X9305003Y5019418I-166746J0D01*
G01*
X9287191Y5004923D02*
G03*
X9185534Y5046980I-101657J-101828D01*
G01*
X9287363Y5004751D02*
G03*
X9287277Y5004837I-101828J-101657D01*
G01*
X9329420Y4903094D02*
G03*
X9287363Y5004751I-143886J0D01*
G01*
X9159208Y5115718D02*
G03*
X9159989Y5115677I1049J12657D01*
G01*
X9319481Y5037290D02*
G03*
X9319448Y5037323I-133947J-134196D01*
G01*
X9156829Y5069842D02*
G03*
X9157071Y5069840I242J12698D01*
G01*
X9287277Y5004837D02*
G03*
X9287191Y5004923I-101742J-101742D01*
G01*
X8608406Y5115809D02*
G03*
X8516419Y5077726I0J-130135D01*
G01*
X8608406Y5092949D02*
G03*
X8532551Y5061529I0J-107275D01*
G01*
X8546206Y5042855D02*
G03*
X8546175Y5042824I65792J-65854D01*
G01*
X8611998Y5070089D02*
G03*
X8546206Y5042855I0J-93087D01*
G01*
X8615680Y5047229D02*
G03*
X8599870Y5043885I0J-39050D01*
G01*
X8616283Y5047224D02*
G03*
X8615680Y5047229I-603J-39045D01*
G01*
X8583776Y5036759D02*
G03*
X8547698Y5012018I48328J-109147D01*
G01*
X8445219Y4909539D02*
G03*
X8445245Y4909565I-60679J60730D01*
G01*
X8399950Y4885814D02*
G03*
X8445219Y4909539I-15410J84455D01*
G01*
X8333454Y4876800D02*
G03*
X8367905Y4879936I0J190787D01*
G01*
X8452121Y4948770D02*
G03*
X8452196Y4948845I-118668J118816D01*
G01*
X8333454Y4899660D02*
G03*
X8452121Y4948770I0J167927D01*
G01*
X8441051Y4970029D02*
G03*
X8441171Y4970149I-114782J114901D01*
G01*
X8326270Y4922520D02*
G03*
X8441051Y4970029I0J162411D01*
G01*
X8326270Y4945380D02*
G03*
X8424947Y4986253I0J139551D01*
G01*
X7764420Y4881880D02*
G03*
X7770552Y4879340I6132J6132D01*
G01*
X8095235D02*
G03*
X8138160Y4897120I0J60705D01*
G01*
X8198169Y4922520D02*
G03*
X8139088Y4898048I0J-83554D01*
G01*
X8172087Y4945380D02*
G03*
X8143766Y4933672I0J-40108D01*
G01*
X8143686Y4933593D02*
G03*
X8143726Y4933633I-28321J28401D01*
G01*
X8115365Y4921885D02*
G03*
X8143686Y4933593I0J40108D01*
G01*
X8143766Y4933672D02*
G03*
X8143726Y4933633I28321J-28401D01*
G01*
X8075766Y4841875D02*
G03*
X8145519Y4870768I0J98645D01*
G01*
X8215271Y4899660D02*
G03*
X8145519Y4870768I0J-98645D01*
G01*
X8085235Y4819015D02*
G03*
X8154988Y4847908I0J98645D01*
G01*
X8224740Y4876800D02*
G03*
X8154988Y4847908I0J-98645D01*
G01*
X7774399Y4810085D02*
G03*
X7762240Y4800600I32298J-53942D01*
G01*
X7806698Y4819015D02*
G03*
X7774399Y4810085I0J-62873D01*
G01*
X8186473Y8653780D02*
G03*
X8134385Y8632225I0J-73713D01*
G01*
X8134315Y8632155D02*
G03*
X8112760Y8580067I52157J-52088D01*
G01*
X8134350Y8632190D02*
G03*
X8134315Y8632155I52123J-52123D01*
G01*
X8134385Y8632225D02*
G03*
X8134350Y8632190I52088J-52157D01*
G01*
X8089919Y8611517D02*
G03*
X8089900Y8610600I22841J-917D01*
G01*
X8067040Y8503844D02*
G03*
X8033540Y8584720I-114376J0D01*
G01*
X8044180Y8502816D02*
G03*
X8016648Y8569285I-94001J0D01*
G01*
X7989116Y8596817D02*
G03*
X7945870Y8614730I-43246J-43246D01*
G01*
X7834082Y8650518D02*
G03*
X7920536Y8614730I86454J86532D01*
G01*
X7834043Y8650556D02*
G03*
X7834082Y8650518I86493J86493D01*
G01*
X8044180Y8333463D02*
G03*
X8114030Y8164830I238483J0D01*
G01*
X8067040Y8355029D02*
G03*
X8128328Y8207067I209249J0D01*
G01*
X8089900Y8394115D02*
G03*
X8155940Y8234680I225475J0D01*
G01*
X8112760Y8441490D02*
G03*
X8187155Y8261885I254000J0D01*
G01*
X8270240Y7998790D02*
G03*
X8221980Y8115300I-164770J0D01*
G01*
X8315960Y8061238D02*
G03*
X8265160Y8183880I-173442J0D01*
G01*
X8249629Y8142876D02*
G03*
X8249593Y8142913I-27649J-27576D01*
G01*
X8253085Y8138909D02*
G03*
X8249629Y8142876I-31105J-23609D01*
G01*
X8293100Y8032915D02*
G03*
X8292313Y8045765I-105245J0D01*
G01*
X8291827Y8049710D02*
G03*
X8258487Y8131791I-168845J-20770D01*
G01*
X8183974Y8094886D02*
G03*
X8183880Y8094980I-153397J-153208D01*
G01*
X8247380Y7941678D02*
G03*
X8183974Y8094886I-216802J0D01*
G01*
X8299085Y6963217D02*
G03*
X8298864Y6963462I-9531J-8394D01*
G01*
X8247380Y7094290D02*
G03*
X8298551Y6963799I191966J0D01*
G01*
X8346440Y6855460D02*
G03*
X8303833Y6958321I-145468J0D01*
G01*
X8318523Y6941148D02*
G03*
X8318466Y6941213I-9530J-8394D01*
G01*
X8369300Y6855460D02*
G03*
X8320039Y6974445I-168328J0D01*
G01*
X8270240Y7094290D02*
G03*
X8319770Y6974714I169106J0D01*
G01*
X8342690Y6984123D02*
G03*
X8342630Y6984183I-101240J-101120D01*
G01*
X8293100Y7103759D02*
G03*
X8342630Y6984183I169106J0D01*
G01*
X8358849Y7000292D02*
G03*
X8358898Y7000244I103710J103613D01*
G01*
X8358713Y7000429D02*
G03*
X8358849Y7000292I103847J103476D01*
G01*
X8315960Y7103905D02*
G03*
X8358713Y7000429I146599J0D01*
G01*
X8415020Y6855460D02*
G03*
X8397172Y6941030I-214048J0D01*
G01*
X8393719Y6948985D02*
G03*
X8358898Y7000244I-152268J-65982D01*
G01*
X8392160Y6855460D02*
G03*
X8376349Y6931591I-191188J0D01*
G01*
X8372706Y6939981D02*
G03*
X8342690Y6984123I-131256J-56978D01*
G01*
X8319957Y6974527D02*
G03*
X8319770Y6974714I-118985J-119067D01*
G01*
X8320039Y6974445D02*
G03*
X8319957Y6974527I-119067J-118985D01*
G01*
X8362044Y6177177D02*
G03*
X8415020Y6305257I-128341J128080D01*
G01*
X8361907Y6177040D02*
G03*
X8362044Y6177177I-128204J128217D01*
G01*
X8341014Y6188477D02*
G03*
X8341106Y6188568I-123477J123477D01*
G01*
X8345842Y6193304D02*
G03*
X8392160Y6305257I-112139J111954D01*
G01*
X8345669Y6193131D02*
G03*
X8345842Y6193304I-111966J112127D01*
G01*
X8329629Y6209420D02*
G03*
X8369300Y6305257I-95926J95837D01*
G01*
X8329584Y6209375D02*
G03*
X8329629Y6209420I-95882J95882D01*
G01*
X8313420Y6225540D02*
G03*
X8346440Y6305257I-79717J79717D01*
G01*
X8305961Y6121094D02*
G03*
X8306033Y6121167I-119048J119194D01*
G01*
X8186913Y6071825D02*
G03*
X8305961Y6121094I0J168462D01*
G01*
X8289780Y6137243D02*
G03*
X8289869Y6137331I-102867J103044D01*
G01*
X8186913Y6094685D02*
G03*
X8289780Y6137243I0J145601D01*
G01*
X8273663Y6153454D02*
G03*
X8273704Y6153495I-86750J86832D01*
G01*
X8186913Y6117545D02*
G03*
X8273663Y6153454I0J122741D01*
G01*
X8193670Y6156595D02*
G03*
X8280400Y6192520I0J122655D01*
G01*
X7743344Y6121452D02*
G03*
X7743279Y6121387I84936J-85066D01*
G01*
X7828280Y6156595D02*
G03*
X7743344Y6121452I0J-120210D01*
G01*
X7921545Y6094685D02*
G03*
X7869226Y6073014I0J-73990D01*
G01*
X7792344Y6028474D02*
G03*
X7737132Y6005605I0J-78081D01*
G01*
X7792344Y6028474D02*
G03*
X7847555Y6051343I0J78081D01*
G01*
X7899322Y6047886D02*
G03*
X7899288Y6047852I57843J-57911D01*
G01*
X7957165Y6071825D02*
G03*
X7899322Y6047886I0J-81851D01*
G01*
X7860350Y3363132D02*
Y3543624D01*
X7883210Y3289300D02*
Y3543624D01*
X7922260Y3250250D02*
X7944645D01*
X7982859Y3266079D02*
X8006080Y3289300D01*
X7799407Y3315652D02*
X7809414Y3325659D01*
X7837490Y3393440D02*
Y3543624D01*
X7906070Y3328386D02*
Y3543624D01*
X8042906Y3749040D02*
X8686778D01*
X8042906Y3726180D02*
X8686778D01*
X8042906Y3703320D02*
X8686778D01*
X8042906Y3680460D02*
X8686778D01*
X8826524Y3738438D02*
X8826525Y3738438D01*
X8846894Y3758808D01*
X8810325Y3754568D02*
X8834543Y3778785D01*
X8794118Y3770689D02*
X8825074Y3801645D01*
X8777873Y3786773D02*
X8815605Y3824505D01*
X8995210Y3898900D02*
X9156011D01*
X9004679Y3876040D02*
X9156011D01*
X9014148Y3853180D02*
X9156011D01*
X9019540Y3830320D02*
X9170236D01*
X9406570Y4043680D02*
Y4112375D01*
X9398000Y4151504D02*
Y4908482D01*
Y4151504D02*
Y4151504D01*
X9375140Y4146140D02*
Y4146140D01*
Y4903094D01*
X9383710Y4043680D02*
Y4112375D01*
X9352280Y4139748D02*
Y4139749D01*
Y4903094D01*
X9360850Y4043680D02*
Y4112375D01*
X9337990Y4043680D02*
Y4112375D01*
X9329420Y4135528D02*
Y4903094D01*
X9308359Y3887533D02*
X9365572Y3944745D01*
X9288420Y3901122D02*
X9295578Y3907080D01*
X9288409Y3901113D02*
X9288420Y3901122D01*
X9295578Y3907080D02*
X9349478Y3960980D01*
X9286147Y3929978D02*
X9333306Y3977137D01*
X9269925Y3946085D02*
X9317109Y3993269D01*
X8608406Y5115809D02*
X9157167D01*
X9159989Y5115677D02*
X9167359Y5115561D01*
X9182517Y5115560D02*
X9185549Y5115560D01*
X9167374Y5115561D02*
X9182517Y5115560D01*
X9167359Y5115561D02*
X9167374D01*
X9336088Y5053012D02*
X9339580Y5049520D01*
X8608406Y5092949D02*
X9157167D01*
Y5092700D02*
X9185534D01*
X9157071Y5069840D02*
X9185534D01*
X9144000Y5070089D02*
X9156829Y5069842D01*
X8611998Y5070089D02*
X9144000D01*
X8632104Y5046980D02*
X9185534D01*
X8424947Y4986253D02*
X8516419Y5077726D01*
X8441171Y4970149D02*
X8532551Y5061529D01*
X8452196Y4948845D02*
X8546175Y5042824D01*
X8445245Y4909565D02*
X8547698Y5012018D01*
X8583776Y5036759D02*
X8599870Y5043885D01*
X8616283Y5047224D02*
X8632104Y5046980D01*
X8367905Y4879936D02*
X8399950Y4885814D01*
X8224740Y4876800D02*
X8333454D01*
X8215271Y4899660D02*
X8333454D01*
X8441171Y4970149D02*
X8441171Y4970149D01*
X8198169Y4922520D02*
X8326270D01*
X8172087Y4945380D02*
X8326270D01*
X7770552Y4879340D02*
X8095235D01*
X8138160Y4897120D02*
X8139088Y4898048D01*
X7680777Y4921885D02*
X8115365D01*
X7806698Y4819015D02*
X8085235D01*
X7680777Y4841875D02*
X8075766D01*
X8112760Y8441490D02*
Y8580067D01*
X8186473Y8653780D02*
X8218480D01*
X8089918Y8611517D02*
X8091480Y8652510D01*
X8089900Y8394115D02*
Y8610600D01*
X8067040Y8355029D02*
Y8503844D01*
X7964480Y8653780D02*
X8033540Y8584720D01*
X8044180Y8333463D02*
Y8502816D01*
X7989116Y8596817D02*
X8016648Y8569285D01*
X7920536Y8614730D02*
X7945870D01*
X7830820Y8653780D02*
X7834044Y8650556D01*
X8114030Y8164830D02*
X8183880Y8094980D01*
X8128328Y8207067D02*
X8220095Y8115300D01*
X8155940Y8234680D02*
X8221980Y8168640D01*
X8187155Y8261885D02*
X8265160Y8183880D01*
X8270240Y7094290D02*
Y7998790D01*
X8220095Y8115300D02*
X8221980D01*
X8315960Y7538720D02*
Y8061238D01*
X8223865Y8168640D02*
X8241972Y8150533D01*
X8293100Y7103759D02*
Y8032915D01*
X8291827Y8049710D02*
X8292313Y8045765D01*
X8241972Y8150533D02*
X8249592Y8142912D01*
X8253085Y8138909D02*
X8258487Y8131791D01*
X8247380Y7668455D02*
Y7941678D01*
X8300175Y6961980D02*
X8303833Y6958322D01*
X8298551Y6963799D02*
X8298864Y6963462D01*
X8299085Y6963217D02*
X8300175Y6961980D01*
X8318466Y6941213D01*
X8247380Y7094290D02*
Y7663180D01*
X8315960Y7103905D02*
Y7538720D01*
X8415020Y6305257D02*
Y6855460D01*
X8393719Y6948985D02*
X8397172Y6941030D01*
X8392160Y6305257D02*
Y6855460D01*
X8372706Y6939981D02*
X8376348Y6931591D01*
X8369300Y6305257D02*
Y6855460D01*
X8346440Y6305257D02*
Y6855460D01*
X8306033Y6121167D02*
X8361907Y6177040D01*
X8289869Y6137331D02*
X8341014Y6188477D01*
X8341106Y6188568D02*
X8345669Y6193131D01*
X8341106Y6188568D02*
X8341106Y6188568D01*
X8273704Y6153495D02*
X8329584Y6209375D01*
X8280400Y6192520D02*
X8313420Y6225540D01*
X7957165Y6071825D02*
X8186913D01*
X7921545Y6094685D02*
X8186913D01*
X7854795Y6117545D02*
X8186913D01*
X7828280Y6156595D02*
X8193670D01*
X7737257Y6115364D02*
X7743279Y6121387D01*
X7847555Y6051343D02*
X7869226Y6073014D01*
X7708696Y5977168D02*
X7737132Y6005605D01*
X7844353Y5992917D02*
X7899288Y6047852D01*
X8315960Y7538720D02*
X8351520D01*
X8221980Y8168640D02*
X8223865D01*
%TF.MD5,d9dff91bacfdbdcaca9d10d1436972d9*%
M02*
