%TF.GenerationSoftware,Altium Limited,Altium Designer,24.0.1 (36)*%
G04 Layer_Physical_Order=3*
G04 Layer_Color=16440176*
%FSLAX45Y45*%
%MOMM*%
%TF.SameCoordinates,DB20E3DF-1D37-4F49-95B0-90F2ADAE02A5*%
%TF.FilePolarity,Positive*%
%TF.FileFunction,Copper,L3,Inr,Signal*%
%TF.Part,Single*%
G01*
G75*
%TA.AperFunction,Conductor*%
%ADD10C,0.12954*%
%ADD12C,0.15240*%
%ADD36C,0.38100*%
%TA.AperFunction,ComponentPad*%
%ADD37C,2.99974*%
%ADD38C,1.19888*%
%ADD39C,1.30000*%
%ADD40C,1.00000*%
%TA.AperFunction,ViaPad*%
%ADD41C,0.40000*%
%TA.AperFunction,Conductor*%
%ADD42C,0.12700*%
G36*
X10259303Y8892906D02*
X10297303Y8882744D01*
X10333649Y8867706D01*
X10367719Y8848048D01*
X10398928Y8824106D01*
X10426742Y8796293D01*
X10450683Y8765083D01*
X10470342Y8731014D01*
X10485380Y8694667D01*
X10495541Y8656668D01*
X10500650Y8617667D01*
X10500635Y8598000D01*
X10500635D01*
X10500635Y8597999D01*
X10500635Y3398020D01*
X10500639Y3378356D01*
X10495512Y3339363D01*
X10485338Y3301373D01*
X10470292Y3265037D01*
X10450630Y3230977D01*
X10426690Y3199774D01*
X10398880Y3171965D01*
X10367678Y3148025D01*
X10333618Y3128363D01*
X10297282Y3113316D01*
X10259292Y3103143D01*
X10220299Y3098016D01*
X10200635Y3098020D01*
X300635Y3097999D01*
X280974Y3098006D01*
X241990Y3103151D01*
X204010Y3113337D01*
X167684Y3128392D01*
X133632Y3148057D01*
X102437Y3171996D01*
X74633Y3199801D01*
X50693Y3230996D01*
X31028Y3265048D01*
X15973Y3301374D01*
X5787Y3339353D01*
X642Y3378337D01*
X635Y3397999D01*
X634Y8597999D01*
X630Y8617663D01*
X5757Y8656656D01*
X15931Y8694646D01*
X30978Y8730982D01*
X50639Y8765043D01*
X74580Y8796245D01*
X102389Y8824054D01*
X133592Y8847995D01*
X167652Y8867656D01*
X203988Y8882703D01*
X241978Y8892877D01*
X280971Y8898003D01*
X300635Y8897999D01*
X300635Y8898000D01*
X10200635Y8897999D01*
X10220302Y8898014D01*
X10259303Y8892906D01*
D02*
G37*
%LPC*%
G36*
X429454Y8770535D02*
X400491D01*
X399118Y8769966D01*
X397645Y8770161D01*
X369668Y8762664D01*
X368489Y8761759D01*
X367016Y8761566D01*
X341933Y8747084D01*
X341028Y8745905D01*
X339655Y8745336D01*
X319175Y8724856D01*
X318606Y8723483D01*
X317427Y8722578D01*
X302945Y8697495D01*
X302751Y8696022D01*
X301847Y8694843D01*
X294350Y8666866D01*
X294544Y8665393D01*
X293976Y8664020D01*
Y8635057D01*
X294544Y8633684D01*
X294350Y8632210D01*
X301847Y8604234D01*
X302751Y8603055D01*
X302945Y8601582D01*
X317427Y8576498D01*
X318606Y8575593D01*
X319175Y8574221D01*
X339655Y8553740D01*
X341028Y8553172D01*
X341933Y8551993D01*
X367016Y8537511D01*
X368489Y8537317D01*
X369668Y8536412D01*
X397645Y8528916D01*
X399118Y8529110D01*
X400491Y8528541D01*
X429454D01*
X430827Y8529110D01*
X432301Y8528916D01*
X460277Y8536412D01*
X461456Y8537317D01*
X462929Y8537511D01*
X488013Y8551993D01*
X488917Y8553172D01*
X490290Y8553740D01*
X510771Y8574221D01*
X511339Y8575594D01*
X512518Y8576498D01*
X527000Y8601581D01*
X527194Y8603055D01*
X528099Y8604234D01*
X535595Y8632210D01*
X535401Y8633684D01*
X535969Y8635057D01*
Y8664020D01*
X535401Y8665393D01*
X535595Y8666866D01*
X528099Y8694843D01*
X527194Y8696022D01*
X527000Y8697495D01*
X512518Y8722578D01*
X511339Y8723483D01*
X510771Y8724856D01*
X490290Y8745336D01*
X488917Y8745905D01*
X488013Y8747084D01*
X462929Y8761566D01*
X461456Y8761760D01*
X460277Y8762664D01*
X432301Y8770161D01*
X430827Y8769966D01*
X429454Y8770535D01*
D02*
G37*
G36*
X6940297Y8736801D02*
X6920632Y8736797D01*
X1820635Y8736797D01*
X1820632Y8736796D01*
X1820631Y8736797D01*
X1800970Y8736790D01*
X1800268Y8736499D01*
X1799535Y8736695D01*
X1760551Y8731551D01*
X1759894Y8731171D01*
X1759141Y8731270D01*
X1721161Y8721083D01*
X1720559Y8720621D01*
X1719800Y8720621D01*
X1683473Y8705566D01*
X1682937Y8705030D01*
X1682184Y8704930D01*
X1648132Y8685265D01*
X1647670Y8684663D01*
X1646937Y8684466D01*
X1615742Y8660526D01*
X1615363Y8659869D01*
X1614661Y8659579D01*
X1586856Y8631773D01*
X1586566Y8631072D01*
X1585908Y8630692D01*
X1561969Y8599498D01*
X1561772Y8598764D01*
X1561170Y8598302D01*
X1541504Y8564251D01*
X1541405Y8563498D01*
X1540868Y8562961D01*
X1525814Y8526635D01*
X1525814Y8525876D01*
X1525351Y8525274D01*
X1515165Y8487294D01*
X1515263Y8486541D01*
X1514884Y8485884D01*
X1509739Y8446900D01*
X1509936Y8446166D01*
X1509645Y8445465D01*
X1509638Y8425804D01*
X1509639Y8425802D01*
X1509638Y8425800D01*
X1509638Y7324700D01*
X1509639Y7324698D01*
X1509638Y7324696D01*
X1509645Y7305035D01*
X1509936Y7304333D01*
X1509740Y7303600D01*
X1514884Y7264616D01*
X1515264Y7263959D01*
X1515165Y7263206D01*
X1525352Y7225226D01*
X1525814Y7224624D01*
X1525814Y7223865D01*
X1540869Y7187539D01*
X1541406Y7187002D01*
X1541505Y7186249D01*
X1561170Y7152198D01*
X1561772Y7151736D01*
X1561969Y7151002D01*
X1585908Y7119807D01*
X1586566Y7119428D01*
X1586856Y7118726D01*
X1614661Y7090921D01*
X1615363Y7090631D01*
X1615742Y7089973D01*
X1646937Y7066034D01*
X1647670Y7065837D01*
X1648133Y7065235D01*
X1682184Y7045570D01*
X1682937Y7045471D01*
X1683474Y7044934D01*
X1719800Y7029879D01*
X1720559Y7029879D01*
X1721161Y7029416D01*
X1759141Y7019230D01*
X1759893Y7019329D01*
X1760551Y7018949D01*
X1799535Y7013805D01*
X1800268Y7014001D01*
X1800970Y7013710D01*
X1820631Y7013703D01*
X1820633Y7013704D01*
X1820635Y7013703D01*
X6920633Y7013703D01*
X6940297Y7013699D01*
X6940999Y7013989D01*
X6941733Y7013792D01*
X6980725Y7018919D01*
X6981384Y7019299D01*
X6982136Y7019200D01*
X7020126Y7029374D01*
X7020729Y7029836D01*
X7021489D01*
X7057825Y7044882D01*
X7058362Y7045419D01*
X7059115Y7045519D01*
X7093176Y7065180D01*
X7093638Y7065783D01*
X7094372Y7065980D01*
X7125575Y7089920D01*
X7125955Y7090578D01*
X7126656Y7090869D01*
X7154465Y7118678D01*
X7154756Y7119380D01*
X7155414Y7119760D01*
X7179355Y7150962D01*
X7179551Y7151696D01*
X7180154Y7152158D01*
X7199816Y7186219D01*
X7199915Y7186972D01*
X7200452Y7187510D01*
X7215499Y7223846D01*
Y7224606D01*
X7215961Y7225209D01*
X7226135Y7263198D01*
X7226035Y7263951D01*
X7226415Y7264609D01*
X7231542Y7303602D01*
X7231345Y7304336D01*
X7231636Y7305038D01*
X7231632Y7324702D01*
X7231632Y8425800D01*
X7231632Y8425801D01*
X7231636Y8445462D01*
X7231345Y8446163D01*
X7231542Y8446898D01*
X7226416Y8485890D01*
X7226036Y8486549D01*
X7226135Y8487302D01*
X7215961Y8525291D01*
X7215499Y8525894D01*
Y8526654D01*
X7200452Y8562990D01*
X7199915Y8563527D01*
X7199816Y8564281D01*
X7180154Y8598341D01*
X7179552Y8598804D01*
X7179355Y8599538D01*
X7155414Y8630740D01*
X7154757Y8631120D01*
X7154466Y8631822D01*
X7126657Y8659631D01*
X7125955Y8659922D01*
X7125575Y8660580D01*
X7094373Y8684520D01*
X7093639Y8684717D01*
X7093176Y8685319D01*
X7059115Y8704981D01*
X7058362Y8705080D01*
X7057825Y8705618D01*
X7021489Y8720664D01*
X7020729D01*
X7020126Y8721127D01*
X6982136Y8731300D01*
X6981383Y8731201D01*
X6980725Y8731581D01*
X6941732Y8736707D01*
X6940998Y8736511D01*
X6940297Y8736801D01*
D02*
G37*
G36*
X8227033Y8696780D02*
X8209927D01*
X8194123Y8690234D01*
X8182027Y8678138D01*
X8178673Y8670042D01*
X8162920Y8667968D01*
X8147044Y8661392D01*
X8138582Y8661171D01*
X8131702Y8667771D01*
X8127934Y8676868D01*
X8115838Y8688964D01*
X8100033Y8695510D01*
X8082927D01*
X8067123Y8688964D01*
X8055027Y8676868D01*
X8048480Y8661063D01*
Y8643957D01*
X8055027Y8628152D01*
X8063477Y8619702D01*
X8067122Y8616056D01*
X8067139Y8616046D01*
X8072937Y8612199D01*
X8072618Y8610600D01*
X8073066D01*
X8073067Y8599676D01*
Y8582798D01*
X8060367Y8578487D01*
X8046013Y8597193D01*
X8045443Y8596623D01*
X8004363Y8637703D01*
X8007480Y8645227D01*
Y8662333D01*
X8000934Y8678138D01*
X7988838Y8690234D01*
X7973033Y8696780D01*
X7955927D01*
X7940123Y8690234D01*
X7928027Y8678138D01*
X7921480Y8662333D01*
Y8645227D01*
X7921889Y8644240D01*
X7912962Y8632605D01*
X7893246Y8635201D01*
X7873120Y8643537D01*
X7873820Y8645227D01*
Y8662333D01*
X7867274Y8678138D01*
X7855178Y8690234D01*
X7839373Y8696780D01*
X7822267D01*
X7806462Y8690234D01*
X7794366Y8678138D01*
X7787820Y8662333D01*
Y8645227D01*
X7794366Y8629422D01*
X7806462Y8617326D01*
X7822267Y8610780D01*
X7839373D01*
X7850986Y8615590D01*
X7884295Y8601794D01*
X7920536Y8597022D01*
Y8597897D01*
X7945870D01*
Y8597800D01*
X7962795Y8594433D01*
X7977144Y8584846D01*
X7977213Y8584914D01*
X8004745Y8557382D01*
X8004540Y8557177D01*
X8016758Y8541255D01*
X8024438Y8522714D01*
X8027058Y8502816D01*
X8027347D01*
Y8333463D01*
X8026436D01*
X8031360Y8283476D01*
X8045940Y8235409D01*
X8069618Y8191111D01*
X8101483Y8152283D01*
X8102127Y8152927D01*
X8171977Y8083077D01*
X8172024Y8083046D01*
X8172053Y8083010D01*
X8172072Y8082983D01*
X8172081Y8082976D01*
X8196859Y8052783D01*
X8215340Y8018209D01*
X8226720Y7980693D01*
X8230558Y7941732D01*
X8230547Y7941678D01*
Y7711454D01*
X8220768D01*
X8204964Y7704908D01*
X8192868Y7692812D01*
X8186321Y7677008D01*
Y7659901D01*
X8192868Y7644097D01*
X8204964Y7632001D01*
X8220768Y7625455D01*
X8230547D01*
Y7094290D01*
X8229861D01*
X8233887Y7053422D01*
X8241000Y7029973D01*
X8229770Y7023242D01*
X8206896Y7046116D01*
X8199120Y7049337D01*
X7985062D01*
Y7258771D01*
X7991734Y7265442D01*
X7998280Y7281247D01*
Y7298353D01*
X7991734Y7314158D01*
X7986881Y7319010D01*
X7991734Y7323862D01*
X7998280Y7339667D01*
Y7356773D01*
X7991734Y7372578D01*
X7986881Y7377430D01*
X7991734Y7382282D01*
X7998280Y7398087D01*
Y7415193D01*
X7991734Y7430998D01*
X7979638Y7443094D01*
X7963833Y7449640D01*
X7946727D01*
X7930922Y7443094D01*
X7918826Y7430998D01*
X7912280Y7415193D01*
Y7398087D01*
X7918826Y7382282D01*
X7923679Y7377430D01*
X7918826Y7372578D01*
X7912280Y7356773D01*
Y7339667D01*
X7918826Y7323862D01*
X7923679Y7319010D01*
X7918826Y7314158D01*
X7912280Y7298353D01*
Y7281247D01*
X7918826Y7265442D01*
X7925498Y7258771D01*
Y7049337D01*
X7401995Y7049337D01*
X7399974Y7048500D01*
X7397786D01*
X7396239Y7046953D01*
X7394218Y7046116D01*
X7393381Y7044095D01*
X7391835Y7042548D01*
X7387160Y7031263D01*
X7378157Y7022260D01*
X7366395Y7017388D01*
X7353663D01*
X7341901Y7022260D01*
X7332898Y7031263D01*
X7328224Y7042549D01*
X7326677Y7044095D01*
X7325840Y7046116D01*
X7323819Y7046953D01*
X7322272Y7048500D01*
X7320085D01*
X7318064Y7049337D01*
X7117080D01*
X7109304Y7046116D01*
X6885784Y6822596D01*
X6882563Y6814820D01*
Y5998370D01*
X6883435Y5996264D01*
X6883475Y5993985D01*
X6884982Y5992530D01*
X6885784Y5990594D01*
X6887889Y5989722D01*
X6889529Y5988138D01*
X6891840Y5987228D01*
X6896802Y5975537D01*
X6896176Y5974025D01*
Y5956918D01*
X6902722Y5941114D01*
X6907839Y5935997D01*
X6902579Y5923297D01*
X1820635Y5923297D01*
X1820632Y5923296D01*
X1820631Y5923297D01*
X1800970Y5923290D01*
X1800268Y5922999D01*
X1799535Y5923195D01*
X1760551Y5918051D01*
X1759894Y5917671D01*
X1759141Y5917770D01*
X1721161Y5907583D01*
X1720559Y5907121D01*
X1719800Y5907121D01*
X1683473Y5892066D01*
X1682937Y5891529D01*
X1682184Y5891430D01*
X1648132Y5871765D01*
X1647670Y5871163D01*
X1646937Y5870966D01*
X1615742Y5847026D01*
X1615363Y5846369D01*
X1614661Y5846078D01*
X1586856Y5818273D01*
X1586566Y5817572D01*
X1585908Y5817192D01*
X1561969Y5785998D01*
X1561772Y5785264D01*
X1561170Y5784802D01*
X1541504Y5750751D01*
X1541405Y5749998D01*
X1540868Y5749461D01*
X1525814Y5713135D01*
X1525814Y5712376D01*
X1525351Y5711773D01*
X1515165Y5673794D01*
X1515263Y5673041D01*
X1514884Y5672384D01*
X1509739Y5633399D01*
X1509936Y5632666D01*
X1509645Y5631965D01*
X1509638Y5612304D01*
X1509639Y5612302D01*
X1509638Y5612300D01*
X1509638Y4511200D01*
X1509639Y4511198D01*
X1509638Y4511196D01*
X1509645Y4491535D01*
X1509936Y4490833D01*
X1509740Y4490100D01*
X1514884Y4451116D01*
X1515264Y4450458D01*
X1515165Y4449706D01*
X1525352Y4411726D01*
X1525814Y4411124D01*
X1525814Y4410365D01*
X1540869Y4374038D01*
X1541406Y4373502D01*
X1541505Y4372749D01*
X1561170Y4338698D01*
X1561772Y4338235D01*
X1561969Y4337502D01*
X1570018Y4327013D01*
X1568088Y4321919D01*
X1563014Y4315280D01*
X1548467D01*
X1532662Y4308734D01*
X1520566Y4296638D01*
X1514020Y4280833D01*
Y4263727D01*
X1520566Y4247922D01*
X1532662Y4235826D01*
X1548467Y4229280D01*
X1565573D01*
X1581378Y4235826D01*
X1593474Y4247922D01*
X1600020Y4263727D01*
Y4274102D01*
X1612720Y4279363D01*
X1614661Y4277421D01*
X1615363Y4277131D01*
X1615742Y4276473D01*
X1646937Y4252534D01*
X1647670Y4252337D01*
X1648133Y4251735D01*
X1682184Y4232070D01*
X1682937Y4231970D01*
X1683474Y4231433D01*
X1719800Y4216379D01*
X1720559Y4216379D01*
X1721161Y4215916D01*
X1759141Y4205730D01*
X1759893Y4205829D01*
X1760551Y4205449D01*
X1799535Y4200305D01*
X1800268Y4200501D01*
X1800970Y4200210D01*
X1820631Y4200203D01*
X1820633Y4200204D01*
X1820635Y4200203D01*
X6920633Y4200203D01*
X6940297Y4200199D01*
X6940999Y4200489D01*
X6941733Y4200292D01*
X6980725Y4205419D01*
X6981384Y4205799D01*
X6982136Y4205700D01*
X7020126Y4215873D01*
X7020729Y4216336D01*
X7021489D01*
X7057825Y4231382D01*
X7058362Y4231919D01*
X7059115Y4232018D01*
X7093176Y4251680D01*
X7093638Y4252283D01*
X7094372Y4252480D01*
X7125575Y4276420D01*
X7125955Y4277078D01*
X7126656Y4277369D01*
X7154465Y4305178D01*
X7154756Y4305880D01*
X7155414Y4306260D01*
X7179355Y4337462D01*
X7179551Y4338196D01*
X7180154Y4338658D01*
X7199816Y4372719D01*
X7202603Y4374114D01*
X7215303Y4366268D01*
Y4015740D01*
X7218524Y4007964D01*
X7454744Y3771744D01*
X7462520Y3768523D01*
X7976036D01*
X7977920Y3755823D01*
X7957568Y3749649D01*
X7919014Y3729042D01*
X7885221Y3701309D01*
X7885047Y3701096D01*
X7857488Y3667516D01*
X7836881Y3628963D01*
X7824191Y3587129D01*
X7819906Y3543624D01*
X7820657D01*
Y3393440D01*
X7820384D01*
X7817700Y3373058D01*
X7809833Y3354065D01*
X7797318Y3337755D01*
Y3337756D01*
Y3337369D01*
X7787504Y3327555D01*
X7777671Y3320633D01*
X7775433Y3319138D01*
X7766278Y3328294D01*
X7750473Y3334840D01*
X7733367D01*
X7717562Y3328294D01*
X7705466Y3316198D01*
X7698920Y3300393D01*
Y3283287D01*
X7705466Y3267482D01*
X7717562Y3255386D01*
X7733367Y3248840D01*
X7750473D01*
X7766278Y3255386D01*
X7778374Y3267482D01*
X7779497Y3270194D01*
X7793243D01*
X7794366Y3267482D01*
X7806462Y3255386D01*
X7822267Y3248840D01*
X7839373D01*
X7855178Y3255386D01*
X7859762Y3259971D01*
X7875913Y3258657D01*
X7882204Y3249244D01*
X7900582Y3236964D01*
X7922260Y3232652D01*
Y3233417D01*
X7944645D01*
Y3233131D01*
X7963063Y3235556D01*
X7980226Y3242665D01*
X7989367Y3249680D01*
X7997527Y3246300D01*
X8014633D01*
X8030438Y3252846D01*
X8042534Y3264942D01*
X8049080Y3280747D01*
Y3297853D01*
X8042534Y3313658D01*
X8030438Y3325754D01*
X8014633Y3332300D01*
X7997527D01*
X7981722Y3325754D01*
X7971630Y3315661D01*
X7964170Y3314504D01*
X7956710Y3315661D01*
X7946618Y3325754D01*
X7930813Y3332300D01*
X7922903D01*
Y3543624D01*
X7922855Y3543868D01*
X7926914Y3574704D01*
X7938911Y3603666D01*
X7957808Y3628293D01*
X7957981Y3628409D01*
X7957988Y3628419D01*
X7958010Y3628451D01*
X7958051Y3628479D01*
X7958190Y3628686D01*
X7982864Y3647619D01*
X8011826Y3659616D01*
X8042661Y3663675D01*
X8042906Y3663627D01*
X8686778D01*
Y3662915D01*
X8728713Y3667045D01*
X8769037Y3679277D01*
X8806199Y3699141D01*
X8829259Y3718066D01*
X8838583Y3725717D01*
X8838585Y3725719D01*
X8838773Y3725873D01*
X8838928Y3726062D01*
X8847224Y3735332D01*
X8858797Y3746905D01*
X8858835Y3746961D01*
X8858884Y3746994D01*
X8858891Y3746999D01*
X8859150Y3747386D01*
X8893163Y3775299D01*
X8932490Y3796320D01*
X8975162Y3809264D01*
X9019040Y3813586D01*
X9019540Y3813487D01*
X9170236D01*
Y3812785D01*
X9211765Y3816875D01*
X9251698Y3828989D01*
X9288501Y3848660D01*
X9311063Y3867177D01*
X9320759Y3875133D01*
X9320263Y3875630D01*
X9377168Y3932536D01*
X9377774Y3932535D01*
X9377812Y3932566D01*
X9377920Y3932698D01*
X9397354Y3956379D01*
X9411875Y3983546D01*
X9420817Y4013024D01*
X9423837Y4043680D01*
X9423403D01*
Y4112375D01*
X9423924D01*
X9420563Y4137903D01*
X9419565Y4140311D01*
X9416184Y4151619D01*
X9415332Y4153677D01*
X9414833Y4165400D01*
Y4908482D01*
X9415555D01*
X9411385Y4950819D01*
X9399036Y4991529D01*
X9378982Y5029048D01*
X9359955Y5052232D01*
X9351993Y5061933D01*
X9348230Y5065786D01*
X9348228Y5065788D01*
X9348003Y5065973D01*
X9348002Y5065974D01*
X9338877Y5073462D01*
X9313362Y5094402D01*
X9273583Y5115664D01*
X9230421Y5128757D01*
X9185551Y5133176D01*
X9185550Y5133177D01*
X9173152Y5132413D01*
X9160697Y5133691D01*
X9160372Y5133826D01*
X9157167Y5133091D01*
X9144467Y5132642D01*
X8608406D01*
Y5133584D01*
X8570124Y5128544D01*
X8534451Y5113768D01*
X8503860Y5090295D01*
X8504517Y5089637D01*
X8504516Y5089629D01*
X8413044Y4998156D01*
X8412865Y4997889D01*
X8387680Y4978564D01*
X8358058Y4966294D01*
X8326585Y4962151D01*
X8326270Y4962213D01*
X8172087D01*
Y4962999D01*
X8149995Y4958605D01*
X8131267Y4946091D01*
X8120950Y4940339D01*
X8115365Y4939228D01*
Y4938718D01*
X7720347D01*
X7717230Y4946243D01*
X7705134Y4958339D01*
X7689330Y4964885D01*
X7672223D01*
X7666557Y4962538D01*
X7653857Y4971024D01*
Y4991625D01*
X7704192Y5041959D01*
X7707413Y5049736D01*
X7705244Y5054972D01*
Y5055276D01*
X7699534Y5069059D01*
Y5081791D01*
X7704406Y5093553D01*
X7713409Y5102556D01*
X7725171Y5107428D01*
X7737903D01*
X7749665Y5102556D01*
X7758668Y5093553D01*
X7759279Y5092077D01*
X7759328Y5079583D01*
X7756229Y5075249D01*
X7747237Y5066258D01*
X7740691Y5050453D01*
Y5033347D01*
X7747237Y5017542D01*
X7759333Y5005446D01*
X7775138Y4998900D01*
X7792244D01*
X7808049Y5005446D01*
X7814691Y5012089D01*
X7821333Y5005446D01*
X7837138Y4998900D01*
X7854244D01*
X7870049Y5005446D01*
X7882145Y5017542D01*
X7887865Y5031352D01*
X7895153Y5042080D01*
X7912260D01*
X7928064Y5048626D01*
X7934706Y5055269D01*
X7941349Y5048626D01*
X7957153Y5042080D01*
X7974259D01*
X7990064Y5048626D01*
X8002160Y5060722D01*
X8008706Y5076527D01*
Y5093633D01*
X8002160Y5109438D01*
X8000688Y5110910D01*
X8009161Y5119383D01*
X8020924Y5124255D01*
X8033655D01*
X8045417Y5119383D01*
X8054420Y5110381D01*
X8059292Y5098618D01*
Y5092700D01*
X8062513Y5084924D01*
X8070289Y5081703D01*
X8213589D01*
X8220645Y5071143D01*
X8220298Y5070306D01*
Y5053200D01*
X8226845Y5037395D01*
X8238941Y5025299D01*
X8254745Y5018753D01*
X8271851D01*
X8287656Y5025299D01*
X8294371Y5032014D01*
X8300940Y5025444D01*
X8316745Y5018898D01*
X8333851D01*
X8349656Y5025444D01*
X8361752Y5037540D01*
X8368298Y5053344D01*
Y5070451D01*
X8361752Y5086255D01*
X8349656Y5098351D01*
X8333851Y5104898D01*
X8316745D01*
X8300940Y5098351D01*
X8294226Y5091637D01*
X8287656Y5098206D01*
X8277787Y5102294D01*
X8274019Y5116486D01*
X8305956Y5148424D01*
X8309177Y5156200D01*
Y5366183D01*
X8333953D01*
X8345507Y5361397D01*
X8362613D01*
X8374167Y5366183D01*
X8389620D01*
X8397396Y5369404D01*
X8432956Y5404964D01*
X8436177Y5412740D01*
X8436177Y5532120D01*
X8432956Y5539896D01*
X8346596Y5626256D01*
X8338820Y5629477D01*
X7500620D01*
X7492844Y5626256D01*
X7243365Y5376778D01*
X7231632Y5381638D01*
Y5612300D01*
X7231632Y5612300D01*
X7231636Y5631962D01*
X7231345Y5632663D01*
X7231542Y5633397D01*
X7226601Y5670983D01*
X7227519Y5674864D01*
X7228307Y5676632D01*
X7233719Y5683683D01*
X8049836D01*
X8051857Y5684520D01*
X8054044D01*
X8055591Y5686067D01*
X8057612Y5686904D01*
X8058449Y5688925D01*
X8059996Y5690471D01*
X8065256Y5703171D01*
Y5705359D01*
X8066094Y5707380D01*
X8065257Y5709401D01*
Y5711588D01*
X8063710Y5713135D01*
X8062873Y5715156D01*
X8056094Y5721935D01*
X8050384Y5735719D01*
X8048369Y5741338D01*
X8050022Y5751437D01*
X8054702Y5761188D01*
X8054708Y5761301D01*
X8054791Y5761378D01*
X8054938Y5765486D01*
X8055163Y5769592D01*
X8055088Y5769677D01*
X8055092Y5769790D01*
X8050412Y5782336D01*
X8050268Y5782490D01*
Y5782701D01*
X8047420Y5785549D01*
X8044676Y5788496D01*
X8044465Y5788504D01*
X8044316Y5788653D01*
X8036212Y5792009D01*
X8027209Y5801012D01*
X8022337Y5812774D01*
Y5825506D01*
X8027209Y5837268D01*
X8030515Y5840574D01*
X8033736Y5848350D01*
X8030515Y5856126D01*
X8027209Y5859432D01*
X8022337Y5871194D01*
Y5883926D01*
X8027209Y5895688D01*
X8034325Y5902804D01*
X8037546Y5910580D01*
X8034325Y5918356D01*
X8027209Y5925472D01*
X8022337Y5937234D01*
Y5949966D01*
X8027209Y5961728D01*
X8036212Y5970731D01*
X8047974Y5975603D01*
X8060706D01*
X8072468Y5970731D01*
X8081471Y5961728D01*
X8086343Y5949966D01*
Y5937234D01*
X8081471Y5925472D01*
X8074355Y5918356D01*
X8071134Y5910580D01*
X8074355Y5902804D01*
X8081471Y5895688D01*
X8086343Y5883926D01*
Y5871194D01*
X8081471Y5859432D01*
X8078165Y5856126D01*
X8074944Y5848350D01*
X8078165Y5840574D01*
X8081471Y5837268D01*
X8086343Y5825506D01*
Y5812774D01*
X8081040Y5799972D01*
Y5797545D01*
X8080214Y5795263D01*
X8080325Y5792824D01*
X8081033Y5791314D01*
X8080946Y5789649D01*
X8085130Y5777848D01*
X8085335Y5777621D01*
Y5777315D01*
X8088124Y5774526D01*
X8090765Y5771596D01*
X8091070Y5771580D01*
X8091287Y5771363D01*
X8101352Y5767194D01*
X8110355Y5758191D01*
X8111216Y5756113D01*
Y5751927D01*
X8106266Y5746978D01*
X8099720Y5731173D01*
Y5714067D01*
X8106266Y5698262D01*
X8118362Y5686166D01*
X8134167Y5679620D01*
X8151273D01*
X8167078Y5686166D01*
X8173720Y5692809D01*
X8180362Y5686166D01*
X8196167Y5679620D01*
X8213273D01*
X8229078Y5686166D01*
X8241174Y5698262D01*
X8247720Y5714067D01*
Y5731173D01*
X8242401Y5744015D01*
X8243628Y5744524D01*
X8248591Y5749487D01*
X8260353Y5754359D01*
X8273085D01*
X8284847Y5749487D01*
X8294090Y5740244D01*
X8301867Y5737023D01*
X8305800D01*
X8313576Y5740244D01*
X8338976Y5765644D01*
X8342197Y5773420D01*
Y5986780D01*
Y6032500D01*
X8338976Y6040276D01*
X8318656Y6060596D01*
X8310880Y6063817D01*
X8307869D01*
X8304193Y6065340D01*
X8287087D01*
X8282704Y6067351D01*
X8282273Y6081521D01*
X8290175Y6085744D01*
X8308686Y6100936D01*
X8318341Y6108860D01*
X8317937Y6109264D01*
X8373362Y6164689D01*
X8374257Y6164689D01*
X8374265Y6164695D01*
X8374388Y6164845D01*
X8398986Y6194818D01*
X8417356Y6229186D01*
X8428668Y6266476D01*
X8432487Y6305257D01*
X8431853D01*
Y6855460D01*
X8432646D01*
X8428194Y6900657D01*
X8417439Y6936113D01*
X8415011Y6944118D01*
X8414813Y6944488D01*
X8409432Y6955794D01*
D01*
X8393894Y6984863D01*
X8378977Y7003039D01*
X8371196Y7012520D01*
X8363129Y7021877D01*
X8363110Y7021901D01*
X8350036Y7038939D01*
X8337056Y7070276D01*
X8332694Y7103406D01*
X8332793Y7103905D01*
Y7488922D01*
X8342967Y7495720D01*
X8360073D01*
X8375878Y7502266D01*
X8387974Y7514362D01*
X8394520Y7530167D01*
Y7547273D01*
X8387974Y7563078D01*
X8375878Y7575174D01*
X8360073Y7581720D01*
X8342967D01*
X8332793Y7588518D01*
Y8061238D01*
X8333389D01*
X8329721Y8098475D01*
X8318860Y8134281D01*
X8301221Y8167280D01*
X8277484Y8196204D01*
X8277063Y8195783D01*
X8199058Y8273788D01*
X8198499Y8274162D01*
X8169400Y8309619D01*
X8147465Y8350655D01*
X8133958Y8395183D01*
X8129462Y8440830D01*
X8129593Y8441490D01*
Y8580067D01*
X8129519Y8580442D01*
X8133785Y8601891D01*
X8145921Y8620054D01*
X8146218Y8620253D01*
X8146232Y8620273D01*
X8146253Y8620287D01*
X8146267Y8620308D01*
X8146287Y8620322D01*
X8146486Y8620619D01*
X8164649Y8632755D01*
X8179429Y8635694D01*
X8182027Y8629422D01*
X8194123Y8617326D01*
X8209927Y8610780D01*
X8227033D01*
X8242838Y8617326D01*
X8254934Y8629422D01*
X8261480Y8645227D01*
Y8662333D01*
X8254934Y8678138D01*
X8242838Y8690234D01*
X8227033Y8696780D01*
D02*
G37*
G36*
X9613253D02*
X9596147D01*
X9580342Y8690234D01*
X9568246Y8678138D01*
X9561700Y8662333D01*
Y8645227D01*
X9563669Y8640473D01*
X9552649Y8633110D01*
X9531881Y8628979D01*
X9531533Y8629048D01*
X9526480D01*
X9519424Y8639608D01*
X9520700Y8642687D01*
Y8659793D01*
X9514153Y8675598D01*
X9502057Y8687694D01*
X9486253Y8694240D01*
X9469147D01*
X9453342Y8687694D01*
X9441246Y8675598D01*
X9438482Y8668925D01*
X9420516Y8666560D01*
X9406075Y8660578D01*
X9404997Y8660509D01*
X9390822Y8666936D01*
X9390595Y8667288D01*
X9387153Y8675598D01*
X9375057Y8687694D01*
X9359253Y8694240D01*
X9342147D01*
X9326342Y8687694D01*
X9314246Y8675598D01*
X9307700Y8659793D01*
Y8642687D01*
X9308955Y8639656D01*
X9302339Y8629697D01*
X9302339Y8629696D01*
X9280361Y8601054D01*
X9271348Y8579296D01*
X9258648Y8581823D01*
Y8610633D01*
X9258949D01*
X9257199Y8623928D01*
X9260153Y8626882D01*
X9266700Y8642687D01*
Y8659793D01*
X9260153Y8675598D01*
X9248057Y8687694D01*
X9232253Y8694240D01*
X9215147D01*
X9199342Y8687694D01*
X9187246Y8675598D01*
X9180700Y8659793D01*
Y8642687D01*
X9187246Y8626882D01*
X9199342Y8614786D01*
X9215147Y8608240D01*
X9222392D01*
Y7857895D01*
X9221945D01*
X9225116Y7825700D01*
X9234507Y7794741D01*
X9249758Y7766210D01*
X9270281Y7741201D01*
X9270597Y7741517D01*
X9337580Y7674534D01*
X9335000Y7668305D01*
Y7651198D01*
X9341546Y7635394D01*
X9353642Y7623298D01*
X9369447Y7616752D01*
X9374792D01*
Y7227766D01*
X9374236D01*
X9377844Y7191130D01*
X9388530Y7155902D01*
X9405884Y7123436D01*
X9429238Y7094978D01*
X9429278Y7094946D01*
X9457695Y7071624D01*
X9475632Y7062037D01*
X9472451Y7049337D01*
X9155373Y7049337D01*
X9153352Y7048500D01*
X9151165D01*
X9149618Y7046953D01*
X9147597Y7046116D01*
X9146760Y7044095D01*
X9145213Y7042548D01*
X9141089Y7032592D01*
X9132087Y7023589D01*
X9120324Y7018717D01*
X9107593D01*
X9095830Y7023589D01*
X9086828Y7032592D01*
X9082704Y7042548D01*
X9081157Y7044095D01*
X9080320Y7046116D01*
X9079802Y7046331D01*
Y7201264D01*
X9127879Y7249340D01*
X9137313D01*
X9153118Y7255886D01*
X9165214Y7267982D01*
X9171760Y7283787D01*
Y7300893D01*
X9165214Y7316698D01*
X9160361Y7321550D01*
X9165214Y7326402D01*
X9171760Y7342207D01*
Y7359313D01*
X9165214Y7375118D01*
X9160361Y7379970D01*
X9165214Y7384822D01*
X9171760Y7400627D01*
Y7417733D01*
X9165214Y7433538D01*
X9153118Y7445634D01*
X9137313Y7452180D01*
X9120207D01*
X9104402Y7445634D01*
X9092306Y7433538D01*
X9085760Y7417733D01*
Y7400627D01*
X9092306Y7384822D01*
X9097159Y7379970D01*
X9092306Y7375118D01*
X9085760Y7359313D01*
Y7342207D01*
X9092306Y7326402D01*
X9097159Y7321550D01*
X9092306Y7316698D01*
X9085760Y7300893D01*
Y7291459D01*
X9028961Y7234659D01*
X9022505Y7224997D01*
X9020238Y7213600D01*
Y7049337D01*
X8798560D01*
X8790784Y7046116D01*
X8661244Y6916576D01*
X8658023Y6908800D01*
X8658022Y5880100D01*
X8661243Y5872324D01*
X8846664Y5686904D01*
X8854440Y5683683D01*
X9211549D01*
X9212589Y5684114D01*
X9213694Y5683894D01*
X9220086Y5681854D01*
X9232182Y5669759D01*
X9247986Y5663212D01*
X9265092D01*
X9280897Y5669759D01*
X9292993Y5681854D01*
X9299384Y5683894D01*
X9300489Y5684114D01*
X9301530Y5683683D01*
X9823366D01*
X9825388Y5684520D01*
X9827575D01*
X9829121Y5686067D01*
X9831143Y5686904D01*
X9831980Y5688925D01*
X9833526Y5690471D01*
X9838387Y5702205D01*
Y5704392D01*
X9839224Y5706413D01*
X9838387Y5708434D01*
Y5710622D01*
X9836840Y5712168D01*
X9836003Y5714189D01*
X9824903Y5725290D01*
X9829763Y5737023D01*
X10058400D01*
X10066176Y5740244D01*
X10091576Y5765644D01*
X10094797Y5773420D01*
Y5986780D01*
Y6032500D01*
X10091576Y6040276D01*
X10078868Y6052985D01*
X10081188Y6068625D01*
X10105102Y6081408D01*
X10136266Y6106983D01*
X10136267Y6106983D01*
X10161864Y6138173D01*
X10180884Y6173757D01*
X10192596Y6212368D01*
X10196551Y6252522D01*
X10195908D01*
Y6827520D01*
X10195905Y6827533D01*
X10195908Y6827547D01*
X10195876Y6848898D01*
X10196595Y6861599D01*
X10196595D01*
X10192228Y6905931D01*
X10179262Y6948674D01*
X10158207Y6988067D01*
X10137763Y7012977D01*
X10130016Y7022418D01*
X10130013Y7022421D01*
X10129871Y7022595D01*
X10129776Y7022673D01*
X10120488Y7030917D01*
X10071167Y7080239D01*
X10071168Y7081410D01*
X10071088Y7081508D01*
X10033670Y7112215D01*
X9990980Y7135033D01*
X9944660Y7149085D01*
X9908905Y7152606D01*
X9896488Y7153829D01*
X9896364Y7153817D01*
X9884006Y7152988D01*
X9865361D01*
X9865360Y7152988D01*
X9562026D01*
Y7153273D01*
X9542746Y7155811D01*
X9524780Y7163253D01*
X9509351Y7175091D01*
X9497513Y7190520D01*
X9490071Y7208486D01*
X9487533Y7227766D01*
X9487248D01*
Y7462520D01*
X9487702D01*
X9489555Y7471835D01*
X9494832Y7479732D01*
X9507222Y7480480D01*
X9518313D01*
X9534118Y7487026D01*
X9546214Y7499122D01*
X9552760Y7514927D01*
Y7532033D01*
X9546214Y7547838D01*
X9534118Y7559934D01*
X9518313Y7566480D01*
X9501207D01*
X9497808Y7565072D01*
X9487248Y7572128D01*
Y7654357D01*
X9487840Y7659752D01*
X9487840D01*
X9484097Y7688180D01*
X9473124Y7714671D01*
X9463205Y7727598D01*
X9455669Y7737420D01*
X9455667Y7737422D01*
X9448760Y7747261D01*
X9447427Y7757070D01*
X9447562Y7757864D01*
X9448295Y7759529D01*
X9448908Y7760356D01*
X9452568Y7764015D01*
X9459114Y7779820D01*
Y7796926D01*
X9452568Y7812730D01*
X9445757Y7819541D01*
X9452230Y7826014D01*
X9458776Y7841818D01*
Y7858925D01*
X9452230Y7874729D01*
X9440134Y7886825D01*
X9424330Y7893372D01*
X9407223D01*
X9391419Y7886825D01*
X9391297Y7886703D01*
X9379564Y7891564D01*
Y8500257D01*
X9379695D01*
X9382844Y8524173D01*
X9392075Y8546459D01*
X9406759Y8565596D01*
X9425897Y8580281D01*
X9448182Y8589512D01*
X9472098Y8592660D01*
Y8592792D01*
X9531533D01*
Y8592355D01*
X9555275Y8595481D01*
X9577399Y8604645D01*
X9589164Y8613672D01*
X9596147Y8610780D01*
X9613253D01*
X9629057Y8617326D01*
X9641153Y8629422D01*
X9647700Y8645227D01*
Y8662333D01*
X9641153Y8678138D01*
X9629057Y8690234D01*
X9613253Y8696780D01*
D02*
G37*
G36*
X9988776Y8440322D02*
X9975648D01*
X9973627Y8439485D01*
X9971440D01*
X9959311Y8434461D01*
X9957764Y8432915D01*
X9955743Y8432078D01*
X9946460Y8422795D01*
X9945623Y8420773D01*
X9944077Y8419227D01*
X9939053Y8407098D01*
Y8404911D01*
X9938216Y8402890D01*
Y8389762D01*
X9939053Y8387741D01*
Y8385553D01*
X9944077Y8373424D01*
X9945623Y8371878D01*
X9946460Y8369857D01*
X9955743Y8360574D01*
X9957764Y8359737D01*
X9959311Y8358190D01*
X9971440Y8353166D01*
X9973627D01*
X9975648Y8352329D01*
X9988776D01*
X9990797Y8353166D01*
X9992985D01*
X10005114Y8358190D01*
X10006660Y8359737D01*
X10008681Y8360574D01*
X10017964Y8369857D01*
X10018801Y8371877D01*
X10020348Y8373424D01*
X10025372Y8385553D01*
Y8387741D01*
X10026209Y8389762D01*
Y8402890D01*
X10025372Y8404911D01*
Y8407098D01*
X10020348Y8419227D01*
X10018801Y8420774D01*
X10017964Y8422795D01*
X10008681Y8432078D01*
X10006660Y8432915D01*
X10005113Y8434461D01*
X9992985Y8439485D01*
X9990797D01*
X9988776Y8440322D01*
D02*
G37*
G36*
X8742197Y8491474D02*
X8723739D01*
X8705909Y8486697D01*
X8689923Y8477467D01*
X8676871Y8464415D01*
X8667642Y8448429D01*
X8662864Y8430599D01*
Y8412141D01*
X8667642Y8394311D01*
X8676871Y8378325D01*
X8689923Y8365273D01*
X8705909Y8356043D01*
X8723739Y8351266D01*
X8742197D01*
X8760027Y8356043D01*
X8776013Y8365273D01*
X8789065Y8378325D01*
X8798295Y8394311D01*
X8803072Y8412141D01*
Y8430599D01*
X8798295Y8448429D01*
X8789065Y8464415D01*
X8776013Y8477467D01*
X8760027Y8486697D01*
X8742197Y8491474D01*
D02*
G37*
G36*
X7453715D02*
X7435257D01*
X7417427Y8486697D01*
X7401441Y8477467D01*
X7388389Y8464415D01*
X7379159Y8448429D01*
X7374382Y8430599D01*
Y8412141D01*
X7379159Y8394311D01*
X7388389Y8378325D01*
X7401441Y8365273D01*
X7417427Y8356043D01*
X7435257Y8351266D01*
X7453715D01*
X7471545Y8356043D01*
X7487531Y8365273D01*
X7500583Y8378325D01*
X7509813Y8394311D01*
X7514590Y8412141D01*
Y8430599D01*
X7509813Y8448429D01*
X7500583Y8464415D01*
X7487531Y8477467D01*
X7471545Y8486697D01*
X7453715Y8491474D01*
D02*
G37*
G36*
X8742197Y8291322D02*
X8723739D01*
X8705909Y8286545D01*
X8689923Y8277315D01*
X8676871Y8264263D01*
X8667642Y8248277D01*
X8662864Y8230447D01*
Y8211989D01*
X8667642Y8194159D01*
X8676871Y8178173D01*
X8689923Y8165121D01*
X8705909Y8155891D01*
X8723739Y8151114D01*
X8742197D01*
X8760027Y8155891D01*
X8776013Y8165121D01*
X8789065Y8178173D01*
X8798295Y8194159D01*
X8803072Y8211989D01*
Y8230447D01*
X8798295Y8248277D01*
X8789065Y8264263D01*
X8776013Y8277315D01*
X8760027Y8286545D01*
X8742197Y8291322D01*
D02*
G37*
G36*
X7453715D02*
X7435257D01*
X7417427Y8286545D01*
X7401441Y8277315D01*
X7388389Y8264263D01*
X7379159Y8248277D01*
X7374382Y8230447D01*
Y8211989D01*
X7379159Y8194159D01*
X7388389Y8178173D01*
X7401441Y8165121D01*
X7417427Y8155891D01*
X7435257Y8151114D01*
X7453715D01*
X7471545Y8155891D01*
X7487531Y8165121D01*
X7500583Y8178173D01*
X7509813Y8194159D01*
X7514590Y8211989D01*
Y8230447D01*
X7509813Y8248277D01*
X7500583Y8264263D01*
X7487531Y8277315D01*
X7471545Y8286545D01*
X7453715Y8291322D01*
D02*
G37*
G36*
X8892057Y8191500D02*
X8873599D01*
X8855769Y8186723D01*
X8839783Y8177493D01*
X8826731Y8164441D01*
X8817502Y8148455D01*
X8812724Y8130625D01*
Y8112167D01*
X8817502Y8094337D01*
X8826731Y8078351D01*
X8839783Y8065299D01*
X8855769Y8056069D01*
X8873599Y8051292D01*
X8892057D01*
X8909887Y8056069D01*
X8925873Y8065299D01*
X8938925Y8078351D01*
X8948155Y8094337D01*
X8952932Y8112167D01*
Y8130625D01*
X8948155Y8148455D01*
X8938925Y8164441D01*
X8925873Y8177493D01*
X8909887Y8186723D01*
X8892057Y8191500D01*
D02*
G37*
G36*
X7603575D02*
X7585117D01*
X7567287Y8186723D01*
X7551301Y8177493D01*
X7538249Y8164441D01*
X7529019Y8148455D01*
X7524242Y8130625D01*
Y8112167D01*
X7529019Y8094337D01*
X7538249Y8078351D01*
X7551301Y8065299D01*
X7567287Y8056069D01*
X7585117Y8051292D01*
X7603575D01*
X7621405Y8056069D01*
X7637391Y8065299D01*
X7650443Y8078351D01*
X7659673Y8094337D01*
X7664450Y8112167D01*
Y8130625D01*
X7659673Y8148455D01*
X7650443Y8164441D01*
X7637391Y8177493D01*
X7621405Y8186723D01*
X7603575Y8191500D01*
D02*
G37*
G36*
X10353973Y8077020D02*
X10336867D01*
X10321062Y8070474D01*
X10308966Y8058378D01*
X10302420Y8042573D01*
Y8025467D01*
X10308966Y8009662D01*
X10321062Y7997566D01*
X10336867Y7991020D01*
X10353973D01*
X10369778Y7997566D01*
X10381874Y8009662D01*
X10388420Y8025467D01*
Y8042573D01*
X10381874Y8058378D01*
X10369778Y8070474D01*
X10353973Y8077020D01*
D02*
G37*
G36*
X9790093Y8095333D02*
X9772987D01*
X9757182Y8088786D01*
X9745086Y8076690D01*
X9738540Y8060886D01*
Y8043779D01*
X9745086Y8027975D01*
X9751729Y8021333D01*
X9745086Y8014690D01*
X9738540Y7998886D01*
Y7981780D01*
X9745086Y7965975D01*
X9757182Y7953879D01*
X9772987Y7947333D01*
X9782699D01*
X9784916Y7944014D01*
Y7926908D01*
X9791463Y7911104D01*
X9803559Y7899008D01*
X9819363Y7892461D01*
X9836470D01*
X9852274Y7899008D01*
X9864370Y7911104D01*
X9870916Y7926908D01*
Y7944015D01*
X9864370Y7959819D01*
X9852274Y7971915D01*
X9836470Y7978461D01*
X9828167Y7991124D01*
X9839598Y7997245D01*
X9850987Y7991157D01*
X9896960Y7977212D01*
X9944770Y7972503D01*
Y7973357D01*
X10145883D01*
X10148946Y7965962D01*
X10161042Y7953866D01*
X10176847Y7947320D01*
X10193953D01*
X10209758Y7953866D01*
X10221854Y7965962D01*
X10228400Y7981767D01*
Y7998873D01*
X10221854Y8014678D01*
X10215211Y8021320D01*
X10221854Y8027962D01*
X10228400Y8043767D01*
Y8060873D01*
X10221854Y8076678D01*
X10209758Y8088774D01*
X10193953Y8095320D01*
X10176847D01*
X10161042Y8088774D01*
X10148946Y8076678D01*
X10142400Y8060873D01*
Y8043767D01*
X10148946Y8027962D01*
X10155589Y8021320D01*
X10148946Y8014678D01*
X10145883Y8007283D01*
X9944770D01*
X9944538Y8007237D01*
X9903732Y8011256D01*
X9902459Y8011642D01*
X9864270Y8023227D01*
X9827902Y8042665D01*
X9824540Y8045425D01*
Y8060886D01*
X9817994Y8076690D01*
X9805898Y8088786D01*
X9790093Y8095333D01*
D02*
G37*
G36*
X8892057Y7991348D02*
X8873599D01*
X8855769Y7986571D01*
X8839783Y7977341D01*
X8826731Y7964289D01*
X8817502Y7948303D01*
X8812724Y7930473D01*
Y7912015D01*
X8817502Y7894185D01*
X8826731Y7878199D01*
X8839783Y7865147D01*
X8855769Y7855917D01*
X8873599Y7851140D01*
X8892057D01*
X8909887Y7855917D01*
X8925873Y7865147D01*
X8938925Y7878199D01*
X8948155Y7894185D01*
X8952932Y7912015D01*
Y7930473D01*
X8948155Y7948303D01*
X8938925Y7964289D01*
X8925873Y7977341D01*
X8909887Y7986571D01*
X8892057Y7991348D01*
D02*
G37*
G36*
X7603575D02*
X7585117D01*
X7567287Y7986571D01*
X7551301Y7977341D01*
X7538249Y7964289D01*
X7529019Y7948303D01*
X7524242Y7930473D01*
Y7912015D01*
X7529019Y7894185D01*
X7538249Y7878199D01*
X7551301Y7865147D01*
X7567287Y7855917D01*
X7585117Y7851140D01*
X7603575D01*
X7621405Y7855917D01*
X7637391Y7865147D01*
X7650443Y7878199D01*
X7659673Y7894185D01*
X7664450Y7912015D01*
Y7930473D01*
X7659673Y7948303D01*
X7650443Y7964289D01*
X7637391Y7977341D01*
X7621405Y7986571D01*
X7603575Y7991348D01*
D02*
G37*
G36*
X889448Y7805564D02*
X860485D01*
X859112Y7804995D01*
X857639Y7805189D01*
X829662Y7797693D01*
X828483Y7796788D01*
X827010Y7796594D01*
X801927Y7782113D01*
X801022Y7780934D01*
X799649Y7780365D01*
X779169Y7759885D01*
X778600Y7758512D01*
X777421Y7757607D01*
X762939Y7732524D01*
X762745Y7731050D01*
X761841Y7729872D01*
X754344Y7701895D01*
X754538Y7700421D01*
X753970Y7699049D01*
Y7670085D01*
X754538Y7668712D01*
X754344Y7667239D01*
X761841Y7639262D01*
X762745Y7638084D01*
X762939Y7636610D01*
X777421Y7611527D01*
X778600Y7610622D01*
X779169Y7609249D01*
X799649Y7588769D01*
X801022Y7588200D01*
X801927Y7587021D01*
X827010Y7572540D01*
X828483Y7572346D01*
X829662Y7571441D01*
X857639Y7563944D01*
X859112Y7564139D01*
X860485Y7563570D01*
X889448D01*
X890821Y7564139D01*
X892295Y7563944D01*
X920271Y7571441D01*
X921450Y7572346D01*
X922923Y7572540D01*
X948007Y7587021D01*
X948911Y7588200D01*
X950284Y7588769D01*
X970765Y7609249D01*
X971333Y7610622D01*
X972512Y7611527D01*
X986994Y7636610D01*
X987188Y7638084D01*
X988093Y7639263D01*
X995589Y7667239D01*
X995395Y7668712D01*
X995963Y7670085D01*
Y7699049D01*
X995395Y7700421D01*
X995589Y7701895D01*
X988093Y7729872D01*
X987188Y7731050D01*
X986994Y7732524D01*
X972512Y7757607D01*
X971333Y7758512D01*
X970765Y7759885D01*
X950284Y7780365D01*
X948911Y7780934D01*
X948007Y7782112D01*
X922923Y7796594D01*
X921450Y7796788D01*
X920271Y7797693D01*
X892295Y7805189D01*
X890821Y7804995D01*
X889448Y7805564D01*
D02*
G37*
G36*
X8742197Y7891526D02*
X8723739D01*
X8705909Y7886749D01*
X8689923Y7877519D01*
X8676871Y7864467D01*
X8667642Y7848481D01*
X8662864Y7830651D01*
Y7812193D01*
X8667642Y7794363D01*
X8676871Y7778377D01*
X8689923Y7765325D01*
X8705909Y7756095D01*
X8723739Y7751318D01*
X8742197D01*
X8760027Y7756095D01*
X8776013Y7765325D01*
X8789065Y7778377D01*
X8798295Y7794363D01*
X8803072Y7812193D01*
Y7830651D01*
X8798295Y7848481D01*
X8789065Y7864467D01*
X8776013Y7877519D01*
X8760027Y7886749D01*
X8742197Y7891526D01*
D02*
G37*
G36*
X7453715D02*
X7435257D01*
X7417427Y7886749D01*
X7401441Y7877519D01*
X7388389Y7864467D01*
X7379159Y7848481D01*
X7374382Y7830651D01*
Y7812193D01*
X7379159Y7794363D01*
X7388389Y7778377D01*
X7401441Y7765325D01*
X7417427Y7756095D01*
X7435257Y7751318D01*
X7453715D01*
X7471545Y7756095D01*
X7487531Y7765325D01*
X7500583Y7778377D01*
X7509813Y7794363D01*
X7514590Y7812193D01*
Y7830651D01*
X7509813Y7848481D01*
X7500583Y7864467D01*
X7487531Y7877519D01*
X7471545Y7886749D01*
X7453715Y7891526D01*
D02*
G37*
G36*
X9987951Y7705508D02*
X9976468D01*
X9974456Y7704674D01*
X9972279Y7704679D01*
X9961662Y7700304D01*
X9960120Y7698767D01*
X9958104Y7697940D01*
X9949955Y7689850D01*
X9949114Y7687841D01*
X9947566Y7686309D01*
X9943115Y7675725D01*
X9943103Y7673547D01*
X9942255Y7671541D01*
X9942214Y7665799D01*
X9942229Y7665761D01*
X9942213Y7665723D01*
X9942203Y7624501D01*
X9942316Y7624229D01*
X9942217Y7623951D01*
X9942495Y7618370D01*
X9943403Y7616452D01*
X9943483Y7614332D01*
X9948142Y7604172D01*
X9949697Y7602729D01*
X9950558Y7600789D01*
X9958656Y7593084D01*
X9960636Y7592322D01*
X9962154Y7590840D01*
X9972534Y7586691D01*
X9974655Y7586718D01*
X9976616Y7585906D01*
X9982204Y7585906D01*
X9982205Y7585906D01*
X9982205Y7585906D01*
X9987770D01*
X9989723Y7586715D01*
X9991836Y7586685D01*
X10002179Y7590801D01*
X10003694Y7592275D01*
X10005669Y7593029D01*
X10013757Y7600677D01*
X10014620Y7602606D01*
X10016176Y7604037D01*
X10020863Y7614133D01*
X10020951Y7616245D01*
X10021868Y7618149D01*
X10022179Y7623706D01*
X10022070Y7624015D01*
X10022196Y7624318D01*
X10022206Y7665717D01*
X10022189Y7665758D01*
X10022206Y7665799D01*
X10022165Y7671540D01*
X10021317Y7673547D01*
X10021305Y7675725D01*
X10016853Y7686309D01*
X10015305Y7687841D01*
X10014464Y7689850D01*
X10006316Y7697940D01*
X10004300Y7698767D01*
X10002757Y7700304D01*
X9992141Y7704679D01*
X9989963Y7704674D01*
X9987951Y7705508D01*
D02*
G37*
G36*
X597833Y7696020D02*
X580727D01*
X564922Y7689474D01*
X559477Y7684028D01*
X551180Y7678479D01*
X542883Y7684028D01*
X537438Y7689474D01*
X521633Y7696020D01*
X504527D01*
X488722Y7689474D01*
X483277Y7684028D01*
X474980Y7678479D01*
X466683Y7684028D01*
X461238Y7689474D01*
X445433Y7696020D01*
X428327D01*
X412522Y7689474D01*
X400426Y7677378D01*
X393880Y7661573D01*
Y7644467D01*
X400426Y7628662D01*
X401469Y7627620D01*
X400426Y7626578D01*
X393880Y7610773D01*
Y7593667D01*
X400426Y7577862D01*
X412522Y7565766D01*
X428327Y7559220D01*
X445433D01*
X461238Y7565766D01*
X466683Y7571212D01*
X474980Y7576761D01*
X483277Y7571212D01*
X488722Y7565766D01*
X504527Y7559220D01*
X521633D01*
X537438Y7565766D01*
X542883Y7571212D01*
X551180Y7576761D01*
X559477Y7571212D01*
X564922Y7565766D01*
X580727Y7559220D01*
X597833D01*
X613638Y7565766D01*
X625734Y7577862D01*
X632280Y7593667D01*
Y7610773D01*
X625734Y7626578D01*
X624691Y7627620D01*
X625734Y7628662D01*
X632280Y7644467D01*
Y7661573D01*
X625734Y7677378D01*
X613638Y7689474D01*
X597833Y7696020D01*
D02*
G37*
G36*
X8892057Y7741412D02*
X8873599D01*
X8855769Y7736635D01*
X8839783Y7727405D01*
X8826731Y7714353D01*
X8817502Y7698367D01*
X8812724Y7680537D01*
Y7662079D01*
X8817502Y7644249D01*
X8826731Y7628263D01*
X8839783Y7615211D01*
X8855769Y7605981D01*
X8873599Y7601204D01*
X8892057D01*
X8909887Y7605981D01*
X8925873Y7615211D01*
X8938925Y7628263D01*
X8948155Y7644249D01*
X8952932Y7662079D01*
Y7680537D01*
X8948155Y7698367D01*
X8938925Y7714353D01*
X8925873Y7727405D01*
X8909887Y7736635D01*
X8892057Y7741412D01*
D02*
G37*
G36*
X7603575D02*
X7585117D01*
X7567287Y7736635D01*
X7551301Y7727405D01*
X7538249Y7714353D01*
X7529019Y7698367D01*
X7524242Y7680537D01*
Y7662079D01*
X7529019Y7644249D01*
X7538249Y7628263D01*
X7551301Y7615211D01*
X7567287Y7605981D01*
X7585117Y7601204D01*
X7603575D01*
X7621405Y7605981D01*
X7637391Y7615211D01*
X7650443Y7628263D01*
X7659673Y7644249D01*
X7664450Y7662079D01*
Y7680537D01*
X7659673Y7698367D01*
X7650443Y7714353D01*
X7637391Y7727405D01*
X7621405Y7736635D01*
X7603575Y7741412D01*
D02*
G37*
G36*
X8742197Y7691374D02*
X8723739D01*
X8705909Y7686597D01*
X8689923Y7677367D01*
X8676871Y7664315D01*
X8667642Y7648329D01*
X8662864Y7630499D01*
Y7612041D01*
X8667642Y7594211D01*
X8676871Y7578225D01*
X8689923Y7565173D01*
X8705909Y7555943D01*
X8723739Y7551166D01*
X8742197D01*
X8760027Y7555943D01*
X8776013Y7565173D01*
X8789065Y7578225D01*
X8798295Y7594211D01*
X8803072Y7612041D01*
Y7630499D01*
X8798295Y7648329D01*
X8789065Y7664315D01*
X8776013Y7677367D01*
X8760027Y7686597D01*
X8742197Y7691374D01*
D02*
G37*
G36*
X7453715D02*
X7435257D01*
X7417427Y7686597D01*
X7401441Y7677367D01*
X7388389Y7664315D01*
X7379159Y7648329D01*
X7374382Y7630499D01*
Y7612041D01*
X7379159Y7594211D01*
X7388389Y7578225D01*
X7401441Y7565173D01*
X7417427Y7555943D01*
X7435257Y7551166D01*
X7453715D01*
X7471545Y7555943D01*
X7487531Y7565173D01*
X7500583Y7578225D01*
X7509813Y7594211D01*
X7514590Y7612041D01*
Y7630499D01*
X7509813Y7648329D01*
X7500583Y7664315D01*
X7487531Y7677367D01*
X7471545Y7686597D01*
X7453715Y7691374D01*
D02*
G37*
G36*
X9788994Y7490280D02*
X9771887D01*
X9756083Y7483734D01*
X9749440Y7477091D01*
X9742798Y7483734D01*
X9726994Y7490280D01*
X9709887D01*
X9694083Y7483734D01*
X9681987Y7471638D01*
X9675441Y7455833D01*
Y7438727D01*
X9681987Y7422922D01*
X9694083Y7410826D01*
X9709887Y7404280D01*
X9726994D01*
X9742798Y7410826D01*
X9749440Y7417469D01*
X9756083Y7410826D01*
X9771887Y7404280D01*
X9788994D01*
X9804798Y7410826D01*
X9816894Y7422922D01*
X9823440Y7438727D01*
Y7455833D01*
X9816894Y7471638D01*
X9804798Y7483734D01*
X9788994Y7490280D01*
D02*
G37*
G36*
X10145693Y7617673D02*
X10128587D01*
X10112782Y7611127D01*
X10100686Y7599031D01*
X10094140Y7583226D01*
Y7566120D01*
X10100686Y7550315D01*
X10107329Y7543673D01*
X10100686Y7537031D01*
X10094140Y7521226D01*
Y7504120D01*
X10100686Y7488315D01*
X10112782Y7476219D01*
X10128587Y7469673D01*
X10145693D01*
X10161498Y7476219D01*
X10173594Y7488315D01*
X10180140Y7504120D01*
Y7521226D01*
X10173594Y7537031D01*
X10166951Y7543673D01*
X10173594Y7550315D01*
X10180140Y7566120D01*
Y7583226D01*
X10173594Y7599031D01*
X10161498Y7611127D01*
X10145693Y7617673D01*
D02*
G37*
G36*
X10450493Y7490280D02*
X10433387D01*
X10417582Y7483734D01*
X10405486Y7471638D01*
X10398940Y7455833D01*
Y7445064D01*
X10390966D01*
X10375162Y7438518D01*
X10363066Y7426422D01*
X10356520Y7410617D01*
Y7393511D01*
X10363066Y7377706D01*
X10375162Y7365610D01*
X10390966Y7359064D01*
X10408073D01*
X10423877Y7365610D01*
X10435973Y7377706D01*
X10442519Y7393511D01*
Y7404280D01*
X10450493D01*
X10466298Y7410826D01*
X10478394Y7422922D01*
X10484940Y7438727D01*
Y7455833D01*
X10478394Y7471638D01*
X10466298Y7483734D01*
X10450493Y7490280D01*
D02*
G37*
G36*
X999153Y6850200D02*
X982047D01*
X966242Y6843654D01*
X965200Y6842611D01*
X964158Y6843654D01*
X948353Y6850200D01*
X931247D01*
X915442Y6843654D01*
X903346Y6831558D01*
X896800Y6815753D01*
Y6798647D01*
X903346Y6782842D01*
X908792Y6777397D01*
X914341Y6769100D01*
X908792Y6760803D01*
X903346Y6755358D01*
X896800Y6739553D01*
Y6722447D01*
X903346Y6706642D01*
X908792Y6701197D01*
X914341Y6692900D01*
X908792Y6684603D01*
X903346Y6679158D01*
X896800Y6663353D01*
Y6646247D01*
X903346Y6630442D01*
X915442Y6618346D01*
X931247Y6611800D01*
X948353D01*
X964158Y6618346D01*
X965200Y6619389D01*
X966242Y6618346D01*
X982047Y6611800D01*
X999153D01*
X1014958Y6618346D01*
X1027054Y6630442D01*
X1033600Y6646247D01*
Y6663353D01*
X1027054Y6679158D01*
X1021608Y6684603D01*
X1016059Y6692900D01*
X1021608Y6701197D01*
X1027054Y6706642D01*
X1033600Y6722447D01*
Y6739553D01*
X1027054Y6755358D01*
X1021608Y6760803D01*
X1016059Y6769100D01*
X1021608Y6777397D01*
X1027054Y6782842D01*
X1033600Y6798647D01*
Y6815753D01*
X1027054Y6831558D01*
X1014958Y6843654D01*
X999153Y6850200D01*
D02*
G37*
G36*
X6648113Y6916760D02*
X6631007D01*
X6615202Y6910214D01*
X6603106Y6898118D01*
X6596560Y6882313D01*
Y6865207D01*
X6603106Y6849402D01*
X6609749Y6842760D01*
X6603106Y6836118D01*
X6596560Y6820313D01*
Y6803207D01*
X6603106Y6787402D01*
X6615202Y6775306D01*
X6631007Y6768760D01*
X6648113D01*
X6663918Y6775306D01*
X6676014Y6787402D01*
X6682560Y6803207D01*
Y6820313D01*
X6676014Y6836118D01*
X6669371Y6842760D01*
X6676014Y6849402D01*
X6682560Y6865207D01*
Y6882313D01*
X6676014Y6898118D01*
X6663918Y6910214D01*
X6648113Y6916760D01*
D02*
G37*
G36*
X2965113Y6807020D02*
X2948007D01*
X2932202Y6800474D01*
X2920106Y6788378D01*
X2913560Y6772573D01*
Y6755467D01*
X2920106Y6739662D01*
X2932202Y6727566D01*
X2948007Y6721020D01*
X2965113D01*
X2980918Y6727566D01*
X2993014Y6739662D01*
X2999560Y6755467D01*
Y6772573D01*
X2993014Y6788378D01*
X2980918Y6800474D01*
X2965113Y6807020D01*
D02*
G37*
G36*
X2835573D02*
X2818467D01*
X2802662Y6800474D01*
X2790566Y6788378D01*
X2784020Y6772573D01*
Y6755467D01*
X2790566Y6739662D01*
X2802662Y6727566D01*
X2818467Y6721020D01*
X2835573D01*
X2851378Y6727566D01*
X2863474Y6739662D01*
X2870020Y6755467D01*
Y6772573D01*
X2863474Y6788378D01*
X2851378Y6800474D01*
X2835573Y6807020D01*
D02*
G37*
G36*
X2711113D02*
X2694007D01*
X2678202Y6800474D01*
X2666106Y6788378D01*
X2659560Y6772573D01*
Y6755467D01*
X2666106Y6739662D01*
X2678202Y6727566D01*
X2694007Y6721020D01*
X2711113D01*
X2726918Y6727566D01*
X2739014Y6739662D01*
X2745560Y6755467D01*
Y6772573D01*
X2739014Y6788378D01*
X2726918Y6800474D01*
X2711113Y6807020D01*
D02*
G37*
G36*
X237153Y6494600D02*
X220047D01*
X204242Y6488054D01*
X203200Y6487011D01*
X202158Y6488054D01*
X186353Y6494600D01*
X169247D01*
X153442Y6488054D01*
X141346Y6475958D01*
X134800Y6460153D01*
Y6443047D01*
X141346Y6427242D01*
X142389Y6426200D01*
X141346Y6425158D01*
X134800Y6409353D01*
Y6392247D01*
X141346Y6376442D01*
X153442Y6364346D01*
X169247Y6357800D01*
X186353D01*
X202158Y6364346D01*
X203200Y6365389D01*
X204242Y6364346D01*
X220047Y6357800D01*
X237153D01*
X252958Y6364346D01*
X265054Y6376442D01*
X271600Y6392247D01*
Y6409353D01*
X265054Y6425158D01*
X264011Y6426200D01*
X265054Y6427242D01*
X271600Y6443047D01*
Y6460153D01*
X265054Y6475958D01*
X252958Y6488054D01*
X237153Y6494600D01*
D02*
G37*
G36*
X5425353Y6539636D02*
X5406879D01*
X5389035Y6534855D01*
X5373037Y6525618D01*
X5359974Y6512555D01*
X5350737Y6496557D01*
X5345956Y6478713D01*
Y6460239D01*
X5350737Y6442395D01*
X5359974Y6426397D01*
X5373037Y6413334D01*
X5389035Y6404097D01*
X5406879Y6399316D01*
X5425353D01*
X5443197Y6404097D01*
X5459195Y6413334D01*
X5472258Y6426397D01*
X5481494Y6442395D01*
X5486276Y6460239D01*
Y6478713D01*
X5481494Y6496557D01*
X5472258Y6512555D01*
X5459195Y6525618D01*
X5443197Y6534855D01*
X5425353Y6539636D01*
D02*
G37*
G36*
X1625353D02*
X1606879D01*
X1589035Y6534855D01*
X1573037Y6525618D01*
X1559974Y6512555D01*
X1550737Y6496557D01*
X1545956Y6478713D01*
Y6460239D01*
X1550737Y6442395D01*
X1559974Y6426397D01*
X1573037Y6413334D01*
X1589035Y6404097D01*
X1606879Y6399316D01*
X1625353D01*
X1643197Y6404097D01*
X1659195Y6413334D01*
X1672258Y6426397D01*
X1681494Y6442395D01*
X1686276Y6460239D01*
Y6478713D01*
X1681494Y6496557D01*
X1672258Y6512555D01*
X1659195Y6525618D01*
X1643197Y6534855D01*
X1625353Y6539636D01*
D02*
G37*
G36*
X549573Y6156780D02*
X532467D01*
X516662Y6150234D01*
X508000Y6141571D01*
X501878Y6147694D01*
X486073Y6154240D01*
X468967D01*
X453162Y6147694D01*
X445770Y6140301D01*
X438378Y6147694D01*
X422573Y6154240D01*
X405467D01*
X389662Y6147694D01*
X381000Y6139031D01*
X372338Y6147694D01*
X356533Y6154240D01*
X339427D01*
X323622Y6147694D01*
X311526Y6135598D01*
X304980Y6119793D01*
Y6102687D01*
X311526Y6086882D01*
X323622Y6074786D01*
X339427Y6068240D01*
X356533D01*
X372338Y6074786D01*
X381000Y6083449D01*
X389662Y6074786D01*
X405467Y6068240D01*
X422573D01*
X438378Y6074786D01*
X445770Y6082179D01*
X453162Y6074786D01*
X468967Y6068240D01*
X486073D01*
X501878Y6074786D01*
X510540Y6083449D01*
X516662Y6077326D01*
X532467Y6070780D01*
X549573D01*
X565378Y6077326D01*
X577474Y6089422D01*
X584020Y6105227D01*
Y6122333D01*
X577474Y6138138D01*
X565378Y6150234D01*
X549573Y6156780D01*
D02*
G37*
G36*
X152121Y6131560D02*
X135015D01*
X119211Y6125014D01*
X107115Y6112918D01*
X100568Y6097113D01*
Y6080007D01*
X107115Y6064203D01*
X119211Y6052107D01*
X135015Y6045560D01*
X152121D01*
X167926Y6052107D01*
X180022Y6064203D01*
X186568Y6080007D01*
Y6097113D01*
X180022Y6112918D01*
X167926Y6125014D01*
X152121Y6131560D01*
D02*
G37*
G36*
X153333Y5705380D02*
X136227D01*
X120422Y5698834D01*
X108326Y5686738D01*
X101780Y5670933D01*
Y5653827D01*
X108326Y5638023D01*
X120422Y5625927D01*
X136227Y5619380D01*
X153333D01*
X169138Y5625927D01*
X181234Y5638023D01*
X187780Y5653827D01*
Y5670933D01*
X181234Y5686738D01*
X169138Y5698834D01*
X153333Y5705380D01*
D02*
G37*
G36*
X9261773Y5604650D02*
X9244667D01*
X9228862Y5598104D01*
X9216766Y5586008D01*
X9210220Y5570203D01*
Y5553097D01*
X9216766Y5537292D01*
X9228862Y5525196D01*
X9244667Y5518650D01*
X9261773D01*
X9277578Y5525196D01*
X9289674Y5537292D01*
X9296220Y5553097D01*
Y5570203D01*
X9289674Y5586008D01*
X9277578Y5598104D01*
X9261773Y5604650D01*
D02*
G37*
G36*
X8797893Y5518300D02*
X8780786D01*
X8764982Y5511754D01*
X8752886Y5499658D01*
X8746340Y5483854D01*
Y5466747D01*
X8752886Y5450943D01*
X8764982Y5438847D01*
X8780786Y5432301D01*
X8790180D01*
Y5422907D01*
X8796727Y5407102D01*
X8808823Y5395006D01*
X8824627Y5388460D01*
X8841733D01*
X8857538Y5395006D01*
X8869634Y5407102D01*
X8876180Y5422907D01*
Y5440013D01*
X8869634Y5455817D01*
X8857538Y5467913D01*
X8841733Y5474460D01*
X8832339D01*
Y5483854D01*
X8825793Y5499658D01*
X8813697Y5511754D01*
X8797893Y5518300D01*
D02*
G37*
G36*
X8454192Y5326200D02*
X8437086D01*
X8421281Y5319654D01*
X8414639Y5313011D01*
X8407997Y5319654D01*
X8392192Y5326200D01*
X8375086D01*
X8359281Y5319654D01*
X8347185Y5307558D01*
X8340639Y5291753D01*
Y5274647D01*
X8347185Y5258842D01*
X8359281Y5246746D01*
X8375086Y5240200D01*
X8392192D01*
X8407997Y5246746D01*
X8414639Y5253389D01*
X8421281Y5246746D01*
X8437086Y5240200D01*
X8454192D01*
X8469997Y5246746D01*
X8482093Y5258842D01*
X8488639Y5274647D01*
Y5291753D01*
X8482093Y5307558D01*
X8469997Y5319654D01*
X8454192Y5326200D01*
D02*
G37*
G36*
X10326569Y5355802D02*
X10309463D01*
X10293659Y5349255D01*
X10281563Y5337160D01*
X10275016Y5321355D01*
Y5304249D01*
X10281563Y5288444D01*
X10293659Y5276348D01*
X10309463Y5269802D01*
X10326569D01*
X10342374Y5276348D01*
X10354470Y5288444D01*
X10361016Y5304249D01*
Y5321355D01*
X10354470Y5337160D01*
X10342374Y5349255D01*
X10326569Y5355802D01*
D02*
G37*
G36*
X562273Y4884240D02*
X545167D01*
X529362Y4877694D01*
X521970Y4870301D01*
X514578Y4877694D01*
X498773Y4884240D01*
X481667D01*
X465862Y4877694D01*
X457200Y4869031D01*
X448538Y4877694D01*
X432733Y4884240D01*
X415627D01*
X399822Y4877694D01*
X392430Y4870301D01*
X385038Y4877694D01*
X369233Y4884240D01*
X352127D01*
X336322Y4877694D01*
X324226Y4865598D01*
X317680Y4849793D01*
Y4832687D01*
X324226Y4816882D01*
X336322Y4804786D01*
X352127Y4798240D01*
X369233D01*
X385038Y4804786D01*
X392430Y4812179D01*
X399822Y4804786D01*
X415627Y4798240D01*
X432733D01*
X448538Y4804786D01*
X457200Y4813449D01*
X465862Y4804786D01*
X481667Y4798240D01*
X498773D01*
X514578Y4804786D01*
X521970Y4812179D01*
X529362Y4804786D01*
X545167Y4798240D01*
X562273D01*
X578078Y4804786D01*
X590174Y4816882D01*
X596720Y4832687D01*
Y4849793D01*
X590174Y4865598D01*
X578078Y4877694D01*
X562273Y4884240D01*
D02*
G37*
G36*
X10327484Y4922160D02*
X10310378D01*
X10294573Y4915613D01*
X10282477Y4903517D01*
X10275931Y4887713D01*
Y4870607D01*
X10282477Y4854802D01*
X10294573Y4842706D01*
X10310378Y4836160D01*
X10327484D01*
X10343288Y4842706D01*
X10355384Y4854802D01*
X10361931Y4870607D01*
Y4887713D01*
X10355384Y4903517D01*
X10343288Y4915613D01*
X10327484Y4922160D01*
D02*
G37*
G36*
X153333Y4866460D02*
X136227D01*
X120422Y4859914D01*
X108326Y4847818D01*
X101780Y4832013D01*
Y4814907D01*
X108326Y4799102D01*
X120422Y4787006D01*
X136227Y4780460D01*
X153333D01*
X169138Y4787006D01*
X181234Y4799102D01*
X187780Y4814907D01*
Y4832013D01*
X181234Y4847818D01*
X169138Y4859914D01*
X153333Y4866460D01*
D02*
G37*
G36*
X10325233Y4527764D02*
X10308127D01*
X10292323Y4521218D01*
X10280227Y4509122D01*
X10273680Y4493318D01*
Y4476211D01*
X10280227Y4460407D01*
X10292323Y4448311D01*
X10308127Y4441765D01*
X10325233D01*
X10341038Y4448311D01*
X10353134Y4460407D01*
X10359680Y4476211D01*
Y4493318D01*
X10353134Y4509122D01*
X10341038Y4521218D01*
X10325233Y4527764D01*
D02*
G37*
G36*
X153333Y4435380D02*
X136227D01*
X120422Y4428834D01*
X108326Y4416738D01*
X101780Y4400933D01*
Y4383827D01*
X108326Y4368023D01*
X120422Y4355927D01*
X136227Y4349380D01*
X153333D01*
X169138Y4355927D01*
X181234Y4368023D01*
X187780Y4383827D01*
Y4400933D01*
X181234Y4416738D01*
X169138Y4428834D01*
X153333Y4435380D01*
D02*
G37*
G36*
X1453813Y4421960D02*
X1436707D01*
X1420902Y4415414D01*
X1408806Y4403318D01*
X1402260Y4387513D01*
Y4370407D01*
X1408806Y4354602D01*
X1420902Y4342506D01*
X1436707Y4335960D01*
X1453813D01*
X1469618Y4342506D01*
X1481714Y4354602D01*
X1488260Y4370407D01*
Y4387513D01*
X1481714Y4403318D01*
X1469618Y4415414D01*
X1453813Y4421960D01*
D02*
G37*
G36*
X1347133Y4315280D02*
X1330027D01*
X1314222Y4308734D01*
X1302126Y4296638D01*
X1295580Y4280833D01*
Y4263727D01*
X1302126Y4247922D01*
X1314222Y4235826D01*
X1330027Y4229280D01*
X1347133D01*
X1362938Y4235826D01*
X1375034Y4247922D01*
X1381580Y4263727D01*
Y4280833D01*
X1375034Y4296638D01*
X1362938Y4308734D01*
X1347133Y4315280D01*
D02*
G37*
G36*
X1237913Y4208600D02*
X1220807D01*
X1205002Y4202054D01*
X1192906Y4189958D01*
X1186360Y4174153D01*
Y4157047D01*
X1192906Y4141242D01*
X1205002Y4129146D01*
X1220807Y4122600D01*
X1237913D01*
X1253718Y4129146D01*
X1265814Y4141242D01*
X1272360Y4157047D01*
Y4174153D01*
X1265814Y4189958D01*
X1253718Y4202054D01*
X1237913Y4208600D01*
D02*
G37*
G36*
X1453813Y4200980D02*
X1436707D01*
X1420902Y4194434D01*
X1408806Y4182338D01*
X1402260Y4166533D01*
Y4149427D01*
X1408806Y4133622D01*
X1420902Y4121526D01*
X1436707Y4114980D01*
X1453813D01*
X1469618Y4121526D01*
X1481714Y4133622D01*
X1488260Y4149427D01*
Y4166533D01*
X1481714Y4182338D01*
X1469618Y4194434D01*
X1453813Y4200980D01*
D02*
G37*
G36*
X1349673Y4101920D02*
X1332567D01*
X1316762Y4095374D01*
X1304666Y4083278D01*
X1298120Y4067473D01*
Y4050367D01*
X1304666Y4034562D01*
X1316762Y4022466D01*
X1332567Y4015920D01*
X1349673D01*
X1365478Y4022466D01*
X1377574Y4034562D01*
X1384120Y4050367D01*
Y4067473D01*
X1377574Y4083278D01*
X1365478Y4095374D01*
X1349673Y4101920D01*
D02*
G37*
G36*
X10321787Y4086680D02*
X10304680D01*
X10288876Y4080134D01*
X10276780Y4068038D01*
X10270234Y4052233D01*
Y4035127D01*
X10276780Y4019322D01*
X10288876Y4007226D01*
X10304680Y4000680D01*
X10321787D01*
X10337591Y4007226D01*
X10349687Y4019322D01*
X10356234Y4035127D01*
Y4052233D01*
X10349687Y4068038D01*
X10337591Y4080134D01*
X10321787Y4086680D01*
D02*
G37*
G36*
X2965113Y4005400D02*
X2948007D01*
X2932202Y3998854D01*
X2920106Y3986758D01*
X2913560Y3970953D01*
Y3953847D01*
X2920106Y3938042D01*
X2932202Y3925946D01*
X2948007Y3919400D01*
X2965113D01*
X2980918Y3925946D01*
X2993014Y3938042D01*
X2999560Y3953847D01*
Y3970953D01*
X2993014Y3986758D01*
X2980918Y3998854D01*
X2965113Y4005400D01*
D02*
G37*
G36*
X2833033D02*
X2815927D01*
X2800122Y3998854D01*
X2788026Y3986758D01*
X2781480Y3970953D01*
Y3953847D01*
X2788026Y3938042D01*
X2800122Y3925946D01*
X2815927Y3919400D01*
X2833033D01*
X2848838Y3925946D01*
X2860934Y3938042D01*
X2867480Y3953847D01*
Y3970953D01*
X2860934Y3986758D01*
X2848838Y3998854D01*
X2833033Y4005400D01*
D02*
G37*
G36*
X2706033D02*
X2688927D01*
X2673122Y3998854D01*
X2661026Y3986758D01*
X2654480Y3970953D01*
Y3953847D01*
X2661026Y3938042D01*
X2673122Y3925946D01*
X2688927Y3919400D01*
X2706033D01*
X2721838Y3925946D01*
X2733934Y3938042D01*
X2740480Y3953847D01*
Y3970953D01*
X2733934Y3986758D01*
X2721838Y3998854D01*
X2706033Y4005400D01*
D02*
G37*
G36*
X6180753Y3860620D02*
X6163647D01*
X6147842Y3854074D01*
X6135746Y3841978D01*
X6129200Y3826173D01*
Y3816779D01*
X6119806D01*
X6104002Y3810233D01*
X6091906Y3798137D01*
X6086420Y3784893D01*
X6074590Y3786198D01*
X6073626Y3786520D01*
X6067174Y3802098D01*
X6055078Y3814194D01*
X6039273Y3820740D01*
X6022167D01*
X6006363Y3814194D01*
X5994267Y3802098D01*
X5987720Y3786293D01*
Y3776899D01*
X5978326D01*
X5962522Y3770353D01*
X5950426Y3758257D01*
X5943880Y3742453D01*
Y3725346D01*
X5950426Y3709542D01*
X5962522Y3697446D01*
X5978326Y3690900D01*
X5995433D01*
X6011237Y3697446D01*
X6023333Y3709542D01*
X6029879Y3725346D01*
Y3734740D01*
X6039273D01*
X6055078Y3741287D01*
X6067174Y3753383D01*
X6072659Y3766626D01*
X6084490Y3765322D01*
X6085453Y3764999D01*
X6091906Y3749422D01*
X6104002Y3737326D01*
X6119806Y3730779D01*
X6136913D01*
X6152717Y3737326D01*
X6164813Y3749422D01*
X6171359Y3765226D01*
Y3774620D01*
X6180753D01*
X6196558Y3781166D01*
X6208654Y3793262D01*
X6215200Y3809067D01*
Y3826173D01*
X6208654Y3841978D01*
X6196558Y3854074D01*
X6180753Y3860620D01*
D02*
G37*
G36*
X5903893Y4144350D02*
X5886787D01*
X5870982Y4137804D01*
X5858886Y4125708D01*
X5852340Y4109903D01*
Y4092797D01*
X5858886Y4076992D01*
X5865529Y4070350D01*
X5858886Y4063708D01*
X5852340Y4047903D01*
Y4030797D01*
X5854944Y4024511D01*
X5853767Y4022750D01*
X5837962Y4016204D01*
X5825866Y4004108D01*
X5819320Y3988303D01*
Y3971197D01*
X5825866Y3955392D01*
X5832509Y3948750D01*
X5825866Y3942108D01*
X5819320Y3926303D01*
Y3909197D01*
X5825866Y3893393D01*
X5837962Y3881297D01*
X5848177Y3877066D01*
X5845243Y3869983D01*
Y3852876D01*
X5851789Y3837072D01*
X5863885Y3824976D01*
X5879689Y3818429D01*
X5889802D01*
Y3809767D01*
X5896348Y3793962D01*
X5908444Y3781866D01*
X5924249Y3775320D01*
X5941355D01*
X5957160Y3781866D01*
X5969256Y3793962D01*
X5975802Y3809767D01*
Y3826873D01*
X5969256Y3842677D01*
X5957160Y3854773D01*
X5941355Y3861320D01*
X5931242D01*
Y3869983D01*
X5924696Y3885787D01*
X5912600Y3897883D01*
X5902386Y3902114D01*
X5905320Y3909197D01*
Y3926303D01*
X5898774Y3942108D01*
X5892131Y3948750D01*
X5898774Y3955392D01*
X5905320Y3971197D01*
Y3988303D01*
X5902716Y3994589D01*
X5903893Y3996350D01*
X5919698Y4002896D01*
X5931794Y4014992D01*
X5938340Y4030797D01*
Y4047903D01*
X5931794Y4063708D01*
X5925151Y4070350D01*
X5931794Y4076992D01*
X5938340Y4092797D01*
Y4109903D01*
X5931794Y4125708D01*
X5919698Y4137804D01*
X5903893Y4144350D01*
D02*
G37*
G36*
X2065743Y3810030D02*
X2048637D01*
X2032832Y3803484D01*
X2020736Y3791388D01*
X2014190Y3775583D01*
Y3758477D01*
X2020736Y3742672D01*
X2032832Y3730576D01*
X2048637Y3724030D01*
X2065743D01*
X2081548Y3730576D01*
X2093644Y3742672D01*
X2100190Y3758477D01*
Y3775583D01*
X2093644Y3791388D01*
X2081548Y3803484D01*
X2065743Y3810030D01*
D02*
G37*
G36*
X2177503Y3703350D02*
X2160397D01*
X2144592Y3696804D01*
X2132496Y3684708D01*
X2125950Y3668903D01*
Y3651797D01*
X2132496Y3635992D01*
X2144592Y3623896D01*
X2160397Y3617350D01*
X2177503D01*
X2193308Y3623896D01*
X2205404Y3635992D01*
X2211950Y3651797D01*
Y3668903D01*
X2205404Y3684708D01*
X2193308Y3696804D01*
X2177503Y3703350D01*
D02*
G37*
G36*
X1959063D02*
X1941957D01*
X1926152Y3696804D01*
X1914056Y3684708D01*
X1907510Y3668903D01*
Y3651797D01*
X1914056Y3635992D01*
X1926152Y3623896D01*
X1941957Y3617350D01*
X1959063D01*
X1974868Y3623896D01*
X1986964Y3635992D01*
X1993510Y3651797D01*
Y3668903D01*
X1986964Y3684708D01*
X1974868Y3696804D01*
X1959063Y3703350D01*
D02*
G37*
G36*
X5425353Y3732286D02*
X5406879D01*
X5389035Y3727505D01*
X5373037Y3718268D01*
X5359974Y3705205D01*
X5350737Y3689207D01*
X5345956Y3671363D01*
Y3652889D01*
X5350737Y3635045D01*
X5359974Y3619047D01*
X5373037Y3605984D01*
X5389035Y3596747D01*
X5406879Y3591966D01*
X5425353D01*
X5443197Y3596747D01*
X5459195Y3605984D01*
X5472258Y3619047D01*
X5481494Y3635045D01*
X5486276Y3652889D01*
Y3671363D01*
X5481494Y3689207D01*
X5472258Y3705205D01*
X5459195Y3718268D01*
X5443197Y3727505D01*
X5425353Y3732286D01*
D02*
G37*
G36*
X1625353D02*
X1606879D01*
X1589035Y3727505D01*
X1573037Y3718268D01*
X1559974Y3705205D01*
X1550737Y3689207D01*
X1545956Y3671363D01*
Y3652889D01*
X1550737Y3635045D01*
X1559974Y3619047D01*
X1573037Y3605984D01*
X1589035Y3596747D01*
X1606879Y3591966D01*
X1625353D01*
X1643197Y3596747D01*
X1659195Y3605984D01*
X1672258Y3619047D01*
X1681494Y3635045D01*
X1686276Y3652889D01*
Y3671363D01*
X1681494Y3689207D01*
X1672258Y3705205D01*
X1659195Y3718268D01*
X1643197Y3727505D01*
X1625353Y3732286D01*
D02*
G37*
G36*
X1849843Y3596670D02*
X1832737D01*
X1816932Y3590124D01*
X1804836Y3578028D01*
X1798290Y3562223D01*
Y3545117D01*
X1804836Y3529312D01*
X1816932Y3517216D01*
X1832737Y3510670D01*
X1849843D01*
X1865648Y3517216D01*
X1877744Y3529312D01*
X1884290Y3545117D01*
Y3562223D01*
X1877744Y3578028D01*
X1865648Y3590124D01*
X1849843Y3596670D01*
D02*
G37*
G36*
X2065743Y3589050D02*
X2048637D01*
X2032832Y3582504D01*
X2020736Y3570408D01*
X2014190Y3554603D01*
Y3537497D01*
X2020736Y3521692D01*
X2032832Y3509596D01*
X2048637Y3503050D01*
X2065743D01*
X2081548Y3509596D01*
X2093644Y3521692D01*
X2100190Y3537497D01*
Y3554603D01*
X2093644Y3570408D01*
X2081548Y3582504D01*
X2065743Y3589050D01*
D02*
G37*
G36*
X6160433Y3489780D02*
X6143327D01*
X6127522Y3483234D01*
X6120880Y3476591D01*
X6114238Y3483234D01*
X6098433Y3489780D01*
X6081327D01*
X6065523Y3483234D01*
X6053427Y3471138D01*
X6046880Y3455333D01*
Y3438227D01*
X6053427Y3422422D01*
X6065523Y3410326D01*
X6081327Y3403780D01*
X6098433D01*
X6114238Y3410326D01*
X6120880Y3416969D01*
X6127522Y3410326D01*
X6143327Y3403780D01*
X6160433D01*
X6176238Y3410326D01*
X6188334Y3422422D01*
X6194880Y3438227D01*
Y3455333D01*
X6188334Y3471138D01*
X6176238Y3483234D01*
X6160433Y3489780D01*
D02*
G37*
G36*
X5969273Y3586961D02*
X5952166D01*
X5936362Y3580414D01*
X5924266Y3568318D01*
X5917719Y3552514D01*
Y3535407D01*
X5924266Y3519603D01*
X5936362Y3507507D01*
X5952166Y3500961D01*
X5961560D01*
Y3491567D01*
X5968106Y3475762D01*
X5980202Y3463666D01*
X5996007Y3457120D01*
X6013113D01*
X6028918Y3463666D01*
X6041014Y3475762D01*
X6047560Y3491567D01*
Y3508673D01*
X6041014Y3524478D01*
X6028918Y3536574D01*
X6013113Y3543120D01*
X6003719D01*
Y3552514D01*
X5997173Y3568318D01*
X5985077Y3580414D01*
X5969273Y3586961D01*
D02*
G37*
G36*
X6373793Y3459300D02*
X6356687D01*
X6340882Y3452754D01*
X6332220Y3444091D01*
X6323558Y3452754D01*
X6307753Y3459300D01*
X6290647D01*
X6274842Y3452754D01*
X6262746Y3440658D01*
X6256200Y3424853D01*
Y3407747D01*
X6262746Y3391942D01*
X6274842Y3379846D01*
X6290647Y3373300D01*
X6307753D01*
X6323558Y3379846D01*
X6332220Y3388509D01*
X6340882Y3379846D01*
X6356687Y3373300D01*
X6373793D01*
X6389598Y3379846D01*
X6401694Y3391942D01*
X6408240Y3407747D01*
Y3424853D01*
X6401694Y3440658D01*
X6389598Y3452754D01*
X6373793Y3459300D01*
D02*
G37*
G36*
X1961603Y3489990D02*
X1944497D01*
X1928692Y3483444D01*
X1916596Y3471348D01*
X1910050Y3455543D01*
Y3438437D01*
X1916596Y3422632D01*
X1928692Y3410536D01*
X1944497Y3403990D01*
X1961603D01*
X1977408Y3410536D01*
X1989504Y3422632D01*
X1996050Y3438437D01*
Y3455543D01*
X1989504Y3471348D01*
X1977408Y3483444D01*
X1961603Y3489990D01*
D02*
G37*
G36*
X9249073Y3362780D02*
X9231967D01*
X9216162Y3356234D01*
X9215120Y3355191D01*
X9214078Y3356234D01*
X9198273Y3362780D01*
X9181167D01*
X9165362Y3356234D01*
X9153266Y3344138D01*
X9146720Y3328333D01*
Y3311227D01*
X9153266Y3295422D01*
X9154309Y3294380D01*
X9153266Y3293338D01*
X9146720Y3277533D01*
Y3260427D01*
X9153266Y3244622D01*
X9154309Y3243580D01*
X9153266Y3242538D01*
X9146720Y3226733D01*
Y3209627D01*
X9153266Y3193822D01*
X9165362Y3181726D01*
X9181167Y3175180D01*
X9198273D01*
X9214078Y3181726D01*
X9215120Y3182769D01*
X9216162Y3181726D01*
X9231967Y3175180D01*
X9249073D01*
X9264878Y3181726D01*
X9276974Y3193822D01*
X9283520Y3209627D01*
Y3226733D01*
X9276974Y3242538D01*
X9275931Y3243580D01*
X9276974Y3244622D01*
X9283520Y3260427D01*
Y3277533D01*
X9276974Y3293338D01*
X9275931Y3294380D01*
X9276974Y3295422D01*
X9283520Y3311227D01*
Y3328333D01*
X9276974Y3344138D01*
X9264878Y3356234D01*
X9249073Y3362780D01*
D02*
G37*
%LPD*%
G36*
X7318064Y7038340D02*
X7323576Y7025033D01*
X7335672Y7012937D01*
X7351476Y7006391D01*
X7368582D01*
X7384387Y7012937D01*
X7396483Y7025033D01*
X7401995Y7038340D01*
X8199120Y7038340D01*
X8285546Y6951914D01*
X8285526Y6951275D01*
X8285526Y6951275D01*
X8285583Y6951138D01*
X8294802Y6942612D01*
X8296690Y6940469D01*
X8297758Y6939076D01*
X8304979Y6929171D01*
X8304979Y6929170D01*
X8312507Y6919855D01*
X8325373Y6888793D01*
X8328660Y6863830D01*
Y6301739D01*
X8209279Y6182359D01*
X8044179Y6182361D01*
X8031480Y6195060D01*
Y6233160D01*
X8045882Y6247563D01*
X8155940D01*
X8163716Y6250784D01*
X8196736Y6283804D01*
X8199957Y6291580D01*
Y6362788D01*
X8205847Y6377007D01*
Y6386076D01*
X8213313Y6395602D01*
X8217580Y6396454D01*
X8231087D01*
X8246891Y6403000D01*
X8258987Y6415096D01*
X8265533Y6430900D01*
Y6448007D01*
X8258987Y6463811D01*
X8246891Y6475907D01*
X8231087Y6482453D01*
X8213980D01*
X8198176Y6475907D01*
X8186080Y6463811D01*
X8179534Y6448007D01*
X8166834Y6443559D01*
X8147229Y6463164D01*
X8146266Y6463563D01*
X8135717Y6474112D01*
X8133080Y6480477D01*
Y6504003D01*
X8135716Y6510368D01*
X8140856Y6515508D01*
X8144077Y6523284D01*
Y6728460D01*
X8140856Y6736236D01*
X8021476Y6855616D01*
X8013700Y6858837D01*
X7764282D01*
X7759665Y6871537D01*
X7765700Y6886107D01*
Y6903213D01*
X7775256Y6913329D01*
X7781216Y6915798D01*
X7793312Y6927894D01*
X7793419Y6928153D01*
X7809047Y6921680D01*
X7826153D01*
X7841958Y6928226D01*
X7848600Y6934869D01*
X7855242Y6928226D01*
X7871047Y6921680D01*
X7888153D01*
X7903780Y6928153D01*
X7903888Y6927894D01*
X7915984Y6915798D01*
X7931788Y6909252D01*
X7948894D01*
X7964699Y6915798D01*
X7976795Y6927894D01*
X7983133Y6924276D01*
X7984262Y6923146D01*
X8000067Y6916600D01*
X8017173D01*
X8032978Y6923146D01*
X8045074Y6935242D01*
X8051620Y6951047D01*
Y6968153D01*
X8045074Y6983958D01*
X8032978Y6996054D01*
X8017173Y7002600D01*
X8000067D01*
X7984262Y6996054D01*
X7972166Y6983958D01*
X7965829Y6987576D01*
X7964699Y6988705D01*
X7948894Y6995252D01*
X7931788D01*
X7916161Y6988779D01*
X7916054Y6989038D01*
X7903958Y7001134D01*
X7888153Y7007680D01*
X7871047D01*
X7855242Y7001134D01*
X7848600Y6994491D01*
X7841958Y7001134D01*
X7826153Y7007680D01*
X7809047D01*
X7793242Y7001134D01*
X7781146Y6989038D01*
X7781039Y6988779D01*
X7765412Y6995252D01*
X7748305D01*
X7732501Y6988705D01*
X7720405Y6976609D01*
X7713859Y6960805D01*
Y6943699D01*
X7704302Y6933582D01*
X7698342Y6931113D01*
X7691626Y6924398D01*
X7683330Y6920417D01*
X7675033Y6924398D01*
X7668317Y6931113D01*
X7652513Y6937660D01*
X7635407D01*
X7619602Y6931113D01*
X7607506Y6919017D01*
X7600960Y6903213D01*
Y6897423D01*
X7593396Y6893002D01*
X7587743Y6896475D01*
Y6903213D01*
X7581196Y6919017D01*
X7569100Y6931113D01*
X7553296Y6937660D01*
X7536189D01*
X7520385Y6931113D01*
X7508289Y6919017D01*
X7501743Y6903213D01*
Y6886107D01*
X7507777Y6871537D01*
X7503161Y6858837D01*
X7332980D01*
X7325204Y6855616D01*
X7241172Y6771584D01*
X7239944Y6768620D01*
X7238162Y6765953D01*
X7238382Y6764848D01*
X7237951Y6763808D01*
X7239178Y6760844D01*
X7239804Y6757698D01*
X7241019Y6755879D01*
X7229361Y6744221D01*
X7227542Y6745436D01*
X7224396Y6746062D01*
X7221432Y6747289D01*
X7220392Y6746858D01*
X7219287Y6747078D01*
X7216620Y6745296D01*
X7213656Y6744068D01*
X7180088Y6710500D01*
X7177105D01*
X7161301Y6703954D01*
X7149205Y6691858D01*
X7142658Y6676053D01*
Y6658947D01*
X7149205Y6643142D01*
X7154343Y6638004D01*
Y6376956D01*
X7149205Y6371818D01*
X7142658Y6356013D01*
Y6338907D01*
X7149205Y6323102D01*
X7154343Y6317964D01*
Y6122169D01*
X7141643Y6113682D01*
X7133972Y6116860D01*
X7116865D01*
X7101061Y6110314D01*
X7092873Y6111942D01*
X7090034Y6118798D01*
X7083391Y6125440D01*
X7090034Y6132082D01*
X7096580Y6147887D01*
Y6164993D01*
X7090034Y6180798D01*
X7083391Y6187440D01*
X7090034Y6194082D01*
X7096580Y6209887D01*
Y6226993D01*
X7090034Y6242798D01*
X7081788Y6251043D01*
X7086739Y6255995D01*
X7093286Y6271799D01*
Y6288905D01*
X7092755Y6290187D01*
X7100319Y6305112D01*
X7108418Y6308466D01*
X7120514Y6320562D01*
X7127060Y6336367D01*
Y6353473D01*
X7120514Y6369278D01*
X7108418Y6381374D01*
X7092613Y6387920D01*
X7079016D01*
X7078823Y6388053D01*
X7072283Y6396655D01*
X7071176Y6399653D01*
X7075681Y6410528D01*
Y6427635D01*
X7072002Y6436516D01*
X7080478Y6440026D01*
X7092574Y6452122D01*
X7099120Y6467927D01*
Y6485033D01*
X7092574Y6500838D01*
X7085931Y6507480D01*
X7092574Y6514122D01*
X7099120Y6529927D01*
Y6547033D01*
X7092574Y6562838D01*
X7080478Y6574934D01*
X7064673Y6581480D01*
X7047567D01*
X7037554Y6577332D01*
X7034530Y6584631D01*
X7022434Y6596727D01*
X7006630Y6603274D01*
X6989523D01*
X6973719Y6596727D01*
X6961623Y6584631D01*
X6955077Y6568827D01*
Y6551721D01*
X6961623Y6535916D01*
X6973719Y6523820D01*
X6989523Y6517274D01*
X7006630D01*
X7016643Y6521422D01*
X7019666Y6514122D01*
X7026309Y6507480D01*
X7019666Y6500838D01*
X7013120Y6485033D01*
Y6467927D01*
X7016799Y6459046D01*
X7008323Y6455535D01*
X6996227Y6443439D01*
X6989681Y6427635D01*
Y6410528D01*
X6996227Y6394724D01*
X7008323Y6382628D01*
X7024127Y6376081D01*
X7037725D01*
X7037918Y6375948D01*
X7044458Y6367346D01*
X7045565Y6364348D01*
X7041060Y6353473D01*
Y6336367D01*
X7041591Y6335085D01*
X7034027Y6320160D01*
X7025928Y6316806D01*
X7013832Y6304710D01*
X7007286Y6288905D01*
Y6271799D01*
X7013832Y6255995D01*
X7022078Y6247749D01*
X7017126Y6242798D01*
X7010580Y6226993D01*
Y6209887D01*
X7017126Y6194082D01*
X7023769Y6187440D01*
X7017126Y6180798D01*
X7010580Y6164993D01*
Y6147887D01*
X7017126Y6132082D01*
X7023769Y6125440D01*
X7017126Y6118798D01*
X7010580Y6102993D01*
Y6085887D01*
X7017126Y6070083D01*
X7029222Y6057987D01*
X7045027Y6051440D01*
X7062133D01*
X7077937Y6057987D01*
X7086125Y6056358D01*
X7088965Y6049503D01*
X7101061Y6037407D01*
X7116865Y6030860D01*
X7126797D01*
X7129356Y6026759D01*
X7123322Y6016362D01*
X7116865D01*
X7101061Y6009815D01*
X7088965Y5997719D01*
X7082418Y5981915D01*
Y5964808D01*
X7088965Y5949004D01*
X7101061Y5936908D01*
X7116865Y5930362D01*
X7133972D01*
X7149776Y5936908D01*
X7161872Y5949004D01*
X7168418Y5964808D01*
Y5974272D01*
X7170254Y5976417D01*
X7181684Y5980284D01*
X7294724Y5867244D01*
X7302500Y5864023D01*
X7488975D01*
X7492106Y5856463D01*
X7504202Y5844367D01*
X7520007Y5837820D01*
X7537113D01*
X7552918Y5844367D01*
X7565014Y5856463D01*
X7568145Y5864023D01*
X7592240D01*
X7600016Y5867244D01*
X7603237Y5875020D01*
X7667243D01*
X7670464Y5867244D01*
X7678240Y5864023D01*
X7702335D01*
X7705466Y5856463D01*
X7717562Y5844367D01*
X7733367Y5837820D01*
X7750473D01*
X7766278Y5844367D01*
X7778374Y5856463D01*
X7781505Y5864023D01*
X7813539D01*
X7821315Y5867244D01*
X7829091Y5875020D01*
X7870263D01*
X7878039Y5867244D01*
X7885815Y5864023D01*
X7902465D01*
X8020181Y5746307D01*
X8021097Y5745927D01*
X8021627Y5745090D01*
X8024879Y5744361D01*
X8027957Y5743086D01*
X8028070Y5743133D01*
X8031143Y5741891D01*
X8040224Y5732431D01*
Y5731510D01*
X8046771Y5715706D01*
X8055096Y5707380D01*
X8049836Y5694680D01*
X7220544D01*
X7215961Y5711791D01*
X7215499Y5712394D01*
Y5713154D01*
X7213928Y5716948D01*
X7223649Y5726668D01*
X7232987Y5722800D01*
X7250093D01*
X7265898Y5729346D01*
X7277994Y5741442D01*
X7284540Y5757247D01*
Y5774353D01*
X7277994Y5790158D01*
X7265898Y5802254D01*
X7250093Y5808800D01*
X7232987D01*
X7217182Y5802254D01*
X7205086Y5790158D01*
X7199515Y5776706D01*
X7191477Y5774562D01*
X7185994Y5774725D01*
X7180154Y5784841D01*
X7179552Y5785304D01*
X7179355Y5786038D01*
X7155414Y5817240D01*
X7154757Y5817620D01*
X7154466Y5818322D01*
X7126657Y5846131D01*
X7125955Y5846422D01*
X7125575Y5847079D01*
X7094373Y5871020D01*
X7093639Y5871217D01*
X7093176Y5871819D01*
X7059115Y5891481D01*
X7058362Y5891580D01*
X7057825Y5892118D01*
X7021489Y5907164D01*
X7020729D01*
X7020126Y5907626D01*
X6982136Y5917800D01*
X6981383Y5917701D01*
X6980725Y5918081D01*
X6970907Y5919372D01*
X6967186Y5932670D01*
X6975629Y5941114D01*
X6982176Y5956918D01*
Y5974025D01*
X6975629Y5989829D01*
X6963533Y6001925D01*
X6947729Y6008471D01*
X6930623D01*
X6914818Y6001925D01*
X6906260Y5993367D01*
X6893560Y5998370D01*
Y6814820D01*
X7117080Y7038340D01*
X7318064D01*
D02*
G37*
G36*
X8133080Y6728460D02*
Y6523284D01*
X8126393Y6516598D01*
X8119847Y6500793D01*
Y6483687D01*
X8126393Y6467882D01*
X8138489Y6455786D01*
X8139452Y6455388D01*
X8188960Y6405880D01*
Y6291580D01*
X8155940Y6258560D01*
X7828131Y6258560D01*
X7824698Y6261994D01*
X7808893Y6268540D01*
X7791787D01*
X7775982Y6261994D01*
X7772549Y6258560D01*
X7759551D01*
X7756118Y6261994D01*
X7740313Y6268540D01*
X7723207D01*
X7707402Y6261994D01*
X7701280Y6255871D01*
X7695158Y6261994D01*
X7679353Y6268540D01*
X7662247D01*
X7646442Y6261994D01*
X7640320Y6255871D01*
X7634198Y6261994D01*
X7618393Y6268540D01*
X7601287D01*
X7585482Y6261994D01*
X7580630Y6257141D01*
X7575778Y6261994D01*
X7559973Y6268540D01*
X7542867D01*
X7527062Y6261994D01*
X7514966Y6249898D01*
X7511086Y6240529D01*
X7496687Y6237804D01*
X7489418Y6245074D01*
X7473613Y6251620D01*
X7456507D01*
X7440702Y6245074D01*
X7428606Y6232978D01*
X7422060Y6217173D01*
Y6200067D01*
X7428606Y6184262D01*
X7435249Y6177620D01*
X7428606Y6170978D01*
X7422060Y6155173D01*
Y6138067D01*
X7428606Y6122263D01*
X7440702Y6110167D01*
X7456507Y6103620D01*
X7473613D01*
X7489418Y6110167D01*
X7501514Y6122263D01*
X7508060Y6138067D01*
Y6155173D01*
X7501514Y6170978D01*
X7494871Y6177620D01*
X7501514Y6184262D01*
X7505394Y6193631D01*
X7519793Y6196356D01*
X7527062Y6189086D01*
X7542867Y6182540D01*
X7559973D01*
X7575778Y6189086D01*
X7580630Y6193939D01*
X7585482Y6189086D01*
X7601287Y6182540D01*
X7618393D01*
X7634198Y6189086D01*
X7640320Y6195209D01*
X7646442Y6189086D01*
X7662247Y6182540D01*
X7679353D01*
X7680560Y6183040D01*
X7691120Y6175984D01*
Y6016431D01*
X7684338Y6013622D01*
X7672242Y6001526D01*
X7665696Y5985721D01*
Y5968615D01*
X7672242Y5952811D01*
X7684338Y5940715D01*
X7700142Y5934168D01*
X7717249D01*
X7733053Y5940715D01*
X7745149Y5952811D01*
X7751695Y5968615D01*
Y5985721D01*
X7752403Y5986780D01*
X7801353D01*
Y5984363D01*
X7807900Y5968559D01*
X7819996Y5956463D01*
X7835800Y5949917D01*
X7852906D01*
X7868711Y5956463D01*
X7880807Y5968559D01*
X7887353Y5984363D01*
Y5986780D01*
X7894320D01*
X7960360Y6052820D01*
X8310880D01*
X8331200Y6032500D01*
Y5986780D01*
Y5773420D01*
X8305800Y5748020D01*
X8301867D01*
X8291077Y5758810D01*
X8275272Y5765356D01*
X8258166D01*
X8242361Y5758810D01*
X8235851Y5752300D01*
X8229078Y5759074D01*
X8213273Y5765620D01*
X8196167D01*
X8180362Y5759074D01*
X8173720Y5752431D01*
X8167078Y5759074D01*
X8151273Y5765620D01*
X8134167D01*
X8121376Y5760322D01*
X8119678Y5764421D01*
X8107582Y5776517D01*
X8095495Y5781523D01*
X8091311Y5793324D01*
X8091200Y5795763D01*
X8097340Y5810587D01*
Y5827693D01*
X8090794Y5843498D01*
X8085941Y5848350D01*
X8090794Y5853202D01*
X8097340Y5869007D01*
Y5886113D01*
X8090794Y5901918D01*
X8082131Y5910580D01*
X8090794Y5919242D01*
X8097340Y5935047D01*
Y5952153D01*
X8090794Y5967958D01*
X8078698Y5980054D01*
X8062893Y5986600D01*
X8045787D01*
X8029982Y5980054D01*
X8017886Y5967958D01*
X8011340Y5952153D01*
Y5935047D01*
X8017886Y5919242D01*
X8026549Y5910580D01*
X8017886Y5901918D01*
X8011340Y5886113D01*
Y5869007D01*
X8017886Y5853202D01*
X8022739Y5848350D01*
X8017886Y5843498D01*
X8011340Y5827693D01*
Y5810587D01*
X8017886Y5794782D01*
X8029982Y5782686D01*
X8040108Y5778492D01*
X8044788Y5765947D01*
X8040108Y5756195D01*
X8027957Y5754083D01*
X7907020Y5875020D01*
X7885815D01*
X7874035Y5886801D01*
X7858230Y5893347D01*
X7841124D01*
X7825319Y5886801D01*
X7813539Y5875020D01*
X7678240D01*
Y5889373D01*
X7671694Y5905178D01*
X7659598Y5917274D01*
X7643793Y5923820D01*
X7626687D01*
X7610882Y5917274D01*
X7598786Y5905178D01*
X7592240Y5889373D01*
Y5875020D01*
X7302500D01*
X7165340Y6012180D01*
Y6057875D01*
X7168418Y6065307D01*
Y6082413D01*
X7165340Y6089845D01*
Y6680200D01*
X7221432Y6736292D01*
X7232199Y6729098D01*
X7229122Y6721671D01*
Y6704564D01*
X7235669Y6688760D01*
X7247765Y6676664D01*
X7263569Y6670118D01*
X7280676D01*
X7296480Y6676664D01*
X7308576Y6688760D01*
X7315122Y6704564D01*
Y6721671D01*
X7308576Y6737475D01*
X7296480Y6749571D01*
X7280676Y6756118D01*
X7263569D01*
X7256142Y6753041D01*
X7248948Y6763808D01*
X7332980Y6847840D01*
X8013700D01*
X8133080Y6728460D01*
D02*
G37*
G36*
X7818468Y6252671D02*
X7820355Y6250784D01*
X7828131Y6247563D01*
X8013737Y6247563D01*
X8019310Y6239850D01*
X8021188Y6234863D01*
X8020483Y6233160D01*
Y6219989D01*
X8018960Y6216313D01*
Y6199207D01*
X8020483Y6195531D01*
Y6195060D01*
X8023704Y6187284D01*
X8024037Y6186951D01*
X8024377Y6186129D01*
X8018887Y6173429D01*
X7828280D01*
Y6174285D01*
X7792589Y6169586D01*
X7759330Y6155810D01*
X7756752Y6153832D01*
X7745810Y6158364D01*
X7728703D01*
X7714817Y6152612D01*
X7702117Y6157630D01*
Y6175984D01*
X7701686Y6177025D01*
X7701906Y6178129D01*
X7700124Y6180796D01*
X7698896Y6183760D01*
X7697855Y6184191D01*
X7697230Y6185128D01*
X7686670Y6192184D01*
X7685566Y6192403D01*
X7684769Y6193200D01*
X7681561Y6193200D01*
X7678415Y6193826D01*
X7677983Y6193537D01*
X7664434D01*
X7652672Y6198409D01*
X7648096Y6202985D01*
X7640320Y6206206D01*
X7632544Y6202985D01*
X7627968Y6198409D01*
X7616206Y6193537D01*
X7603474D01*
X7591712Y6198409D01*
X7588406Y6201715D01*
X7580630Y6204936D01*
X7572854Y6201715D01*
X7569548Y6198409D01*
X7557786Y6193537D01*
X7545054D01*
X7533292Y6198409D01*
X7527569Y6204132D01*
X7526577Y6204543D01*
X7525988Y6205442D01*
X7522801Y6206107D01*
X7519793Y6207353D01*
X7514623Y6209751D01*
X7510551Y6213125D01*
X7511638Y6226364D01*
X7515295Y6230369D01*
X7517529Y6232603D01*
X7520172Y6234334D01*
X7520413Y6235487D01*
X7521246Y6236321D01*
X7524289Y6243668D01*
X7533292Y6252671D01*
X7545054Y6257543D01*
X7557786D01*
X7569548Y6252671D01*
X7572854Y6249365D01*
X7580630Y6246144D01*
X7588406Y6249365D01*
X7591712Y6252671D01*
X7603474Y6257543D01*
X7616206D01*
X7627968Y6252671D01*
X7632544Y6248095D01*
X7640320Y6244874D01*
X7648096Y6248095D01*
X7652672Y6252671D01*
X7664434Y6257543D01*
X7677166D01*
X7688928Y6252671D01*
X7693504Y6248095D01*
X7701280Y6244874D01*
X7709056Y6248095D01*
X7713632Y6252671D01*
X7725394Y6257543D01*
X7738126D01*
X7749888Y6252671D01*
X7751775Y6250784D01*
X7759551Y6247563D01*
X7772549D01*
X7780325Y6250784D01*
X7782212Y6252671D01*
X7793974Y6257543D01*
X7806706D01*
X7818468Y6252671D01*
D02*
G37*
G36*
X8298180Y5377180D02*
Y5156200D01*
X8241067Y5099087D01*
X8238941Y5098206D01*
X8233434Y5092700D01*
X8070289D01*
Y5100806D01*
X8063743Y5116610D01*
X8051647Y5128706D01*
X8035843Y5135253D01*
X8018736D01*
X8002932Y5128706D01*
X7992912Y5118686D01*
X7990064Y5121534D01*
X7974259Y5128080D01*
X7957153D01*
X7941349Y5121534D01*
X7934706Y5114891D01*
X7928064Y5121534D01*
X7912260Y5128080D01*
X7895153D01*
X7879349Y5121534D01*
X7867253Y5109438D01*
X7860706Y5093633D01*
Y5092700D01*
X7770924D01*
X7767991Y5099783D01*
X7755895Y5111879D01*
X7740090Y5118425D01*
X7722984D01*
X7707179Y5111879D01*
X7695083Y5099783D01*
X7688537Y5083978D01*
Y5066872D01*
X7695083Y5051068D01*
X7696415Y5049736D01*
X7642860Y4996180D01*
Y4942710D01*
X7637777Y4930438D01*
Y4913332D01*
X7642860Y4901060D01*
Y4862700D01*
X7637777Y4850428D01*
Y4833322D01*
X7644323Y4817517D01*
X7656419Y4805421D01*
X7664065Y4802254D01*
X7701280Y4765040D01*
X7736989D01*
X7737882Y4764146D01*
X7753687Y4757600D01*
X7770793D01*
X7782884Y4762608D01*
X7790546Y4760357D01*
X7792208Y4758665D01*
X7797501Y4746600D01*
X7792900Y4735493D01*
Y4718387D01*
X7799446Y4702582D01*
X7809379Y4692650D01*
X7799446Y4682718D01*
X7792900Y4666913D01*
Y4649807D01*
X7799446Y4634002D01*
X7800489Y4632960D01*
X7799446Y4631918D01*
X7792900Y4616113D01*
Y4599007D01*
X7799446Y4583202D01*
X7806162Y4576487D01*
X7810143Y4568190D01*
X7806162Y4559893D01*
X7799446Y4553178D01*
X7792900Y4537373D01*
Y4520267D01*
X7799446Y4504462D01*
X7800489Y4503420D01*
X7799446Y4502378D01*
X7792900Y4486573D01*
Y4469467D01*
X7799446Y4453662D01*
X7811542Y4441566D01*
X7827347Y4435020D01*
X7844453D01*
X7860258Y4441566D01*
X7862570Y4443879D01*
X7864882Y4441566D01*
X7880687Y4435020D01*
X7897793D01*
X7913598Y4441566D01*
X7925694Y4453662D01*
X7932240Y4469467D01*
Y4486573D01*
X7925694Y4502378D01*
X7924651Y4503420D01*
X7925694Y4504462D01*
X7932240Y4520267D01*
Y4537373D01*
X7925694Y4553178D01*
X7918978Y4559893D01*
X7914997Y4568190D01*
X7918978Y4576487D01*
X7925694Y4583202D01*
X7932240Y4599007D01*
Y4616113D01*
X7925694Y4631918D01*
X7924651Y4632960D01*
X7925694Y4634002D01*
X7932240Y4649807D01*
Y4666913D01*
X7925694Y4682718D01*
X7915761Y4692650D01*
X7925694Y4702582D01*
X7932240Y4718387D01*
Y4735493D01*
X7925694Y4751298D01*
X7924651Y4752340D01*
X7925694Y4753382D01*
X7930522Y4765040D01*
X8024706D01*
X8030586Y4750842D01*
X8031629Y4749800D01*
X8030586Y4748758D01*
X8024040Y4732953D01*
Y4715847D01*
X8030586Y4700042D01*
X8040519Y4690110D01*
X8030586Y4680178D01*
X8024040Y4664373D01*
Y4647267D01*
X8030586Y4631462D01*
X8031629Y4630420D01*
X8030586Y4629378D01*
X8024040Y4613573D01*
Y4596467D01*
X8030586Y4580662D01*
X8036032Y4575217D01*
X8041581Y4566920D01*
X8036032Y4558623D01*
X8030586Y4553178D01*
X8024040Y4537373D01*
Y4520267D01*
X8030586Y4504462D01*
X8031629Y4503420D01*
X8030586Y4502378D01*
X8024040Y4486573D01*
Y4469467D01*
X8030586Y4453662D01*
X8042682Y4441566D01*
X8058487Y4435020D01*
X8075593D01*
X8091398Y4441566D01*
X8093710Y4443879D01*
X8096022Y4441566D01*
X8111827Y4435020D01*
X8128933D01*
X8144738Y4441566D01*
X8156834Y4453662D01*
X8163380Y4469467D01*
Y4486573D01*
X8156834Y4502378D01*
X8155791Y4503420D01*
X8156834Y4504462D01*
X8163380Y4520267D01*
Y4537373D01*
X8156834Y4553178D01*
X8151388Y4558623D01*
X8145839Y4566920D01*
X8151388Y4575217D01*
X8156834Y4580662D01*
X8163380Y4596467D01*
Y4613573D01*
X8156834Y4629378D01*
X8155791Y4630420D01*
X8156834Y4631462D01*
X8163380Y4647267D01*
Y4664373D01*
X8156834Y4680178D01*
X8146901Y4690110D01*
X8156834Y4700042D01*
X8163380Y4715847D01*
Y4732953D01*
X8156834Y4748758D01*
X8155791Y4749800D01*
X8156834Y4750842D01*
X8163380Y4766647D01*
Y4782640D01*
X8235630Y4854890D01*
X8427090D01*
X8429616Y4842190D01*
X8420071Y4838236D01*
X8407975Y4826140D01*
X8402883Y4813848D01*
X8398173Y4815799D01*
X8381067D01*
X8365262Y4809253D01*
X8353166Y4797157D01*
X8347525Y4783537D01*
X8344480Y4784799D01*
X8327373D01*
X8311569Y4778253D01*
X8299473Y4766157D01*
X8292927Y4750352D01*
Y4733246D01*
X8299473Y4717441D01*
X8311569Y4705346D01*
X8311582Y4705280D01*
X8303864Y4697563D01*
X8297318Y4681758D01*
Y4664652D01*
X8303864Y4648847D01*
X8315960Y4636751D01*
X8331765Y4630205D01*
X8348871D01*
X8364675Y4636751D01*
X8376771Y4648847D01*
X8380920Y4658864D01*
X8386758Y4661093D01*
X8394361Y4658198D01*
X8399960Y4653174D01*
Y4644358D01*
X8406506Y4628553D01*
X8413149Y4621911D01*
X8406506Y4615269D01*
X8399960Y4599464D01*
Y4586947D01*
X8395843Y4579955D01*
X8388890Y4575896D01*
X8376347D01*
X8360542Y4569350D01*
X8348446Y4557254D01*
X8341900Y4541449D01*
Y4524343D01*
X8348446Y4508538D01*
X8355089Y4501896D01*
X8348446Y4495254D01*
X8341900Y4479449D01*
Y4474371D01*
X8328579D01*
X8312774Y4467825D01*
X8300678Y4455729D01*
X8294132Y4439924D01*
Y4422818D01*
X8300678Y4407014D01*
X8312774Y4394918D01*
X8328579Y4388371D01*
X8345685D01*
X8361489Y4394918D01*
X8373585Y4407014D01*
X8380132Y4422818D01*
Y4427896D01*
X8393453D01*
X8409258Y4434442D01*
X8421353Y4446538D01*
X8427900Y4462343D01*
Y4479449D01*
X8421353Y4495254D01*
X8414711Y4501896D01*
X8421353Y4508538D01*
X8427900Y4524343D01*
Y4536860D01*
X8432017Y4543852D01*
X8438970Y4547911D01*
X8451513D01*
X8467318Y4554457D01*
X8479414Y4566553D01*
X8485960Y4582358D01*
Y4599464D01*
X8479414Y4615269D01*
X8472771Y4621911D01*
X8479414Y4628553D01*
X8485960Y4644358D01*
Y4661464D01*
X8479414Y4677269D01*
X8467318Y4689365D01*
X8451513Y4695911D01*
X8443742D01*
X8433520Y4701733D01*
X8432620Y4707644D01*
Y4719352D01*
X8426074Y4735157D01*
X8419431Y4741799D01*
X8426074Y4748441D01*
X8431165Y4760733D01*
X8435875Y4758782D01*
X8452981D01*
X8468786Y4765329D01*
X8480882Y4777425D01*
X8487428Y4793229D01*
Y4810336D01*
X8480882Y4826140D01*
X8468786Y4838236D01*
X8452981Y4844782D01*
X8447628D01*
X8443962Y4857482D01*
X8566267Y4979787D01*
X8581263Y4976997D01*
X8583441Y4972167D01*
X8581772Y4970498D01*
X8575226Y4954694D01*
Y4937588D01*
X8581772Y4921783D01*
X8593868Y4909687D01*
X8609673Y4903141D01*
X8626779D01*
X8642583Y4909687D01*
X8654679Y4921783D01*
X8661226Y4937588D01*
Y4954694D01*
X8654679Y4970498D01*
X8647998Y4977180D01*
X8654601Y4983783D01*
X8661148Y4999587D01*
Y5016694D01*
X8659949Y5019587D01*
X8667005Y5030147D01*
X9185534D01*
X9185962Y5030232D01*
X9218455Y5025954D01*
X9249131Y5013247D01*
X9275073Y4993342D01*
X9275288Y4993020D01*
X9275340Y4992985D01*
X9275374Y4992934D01*
X9275425Y4992900D01*
X9275460Y4992848D01*
X9275782Y4992633D01*
X9295687Y4966691D01*
X9308394Y4936015D01*
X9311640Y4911359D01*
Y4330700D01*
X9222740Y4241800D01*
X8813611D01*
X8812717Y4242694D01*
X8796913Y4249240D01*
X8779807D01*
X8764002Y4242694D01*
X8763109Y4241800D01*
X8722360D01*
X8498840Y4018280D01*
X7805483D01*
X7793653Y4023180D01*
X7776547D01*
X7764717Y4018280D01*
X7673340D01*
X7452360Y4239260D01*
Y5212080D01*
X7683500Y5443220D01*
X7786126D01*
X7786746Y5441722D01*
X7798842Y5429626D01*
X7814647Y5423080D01*
X7831753D01*
X7847558Y5429626D01*
X7859654Y5441722D01*
X7860274Y5443220D01*
X8232140D01*
X8298180Y5377180D01*
D02*
G37*
G36*
X8425180Y5532120D02*
X8425180Y5412740D01*
X8389620Y5377180D01*
X8309177D01*
X8305956Y5384956D01*
X8280220Y5410693D01*
Y5412954D01*
X8273674Y5428758D01*
X8261578Y5440854D01*
X8245773Y5447400D01*
X8244843Y5450640D01*
X8245773Y5463340D01*
X8261578Y5469886D01*
X8273674Y5481982D01*
X8280220Y5497787D01*
Y5514893D01*
X8273674Y5530697D01*
X8261578Y5542793D01*
X8245773Y5549340D01*
X8228667D01*
X8212862Y5542793D01*
X8200766Y5530697D01*
X8194220Y5514893D01*
Y5497787D01*
X8200766Y5481982D01*
X8212862Y5469886D01*
X8220030Y5466917D01*
X8217504Y5454217D01*
X8136479D01*
X8133953Y5466917D01*
X8141121Y5469886D01*
X8153217Y5481982D01*
X8159763Y5497787D01*
Y5514893D01*
X8153217Y5530697D01*
X8141121Y5542793D01*
X8125316Y5549340D01*
X8108210D01*
X8092405Y5542793D01*
X8080309Y5530697D01*
X8073763Y5514893D01*
Y5497787D01*
X8080309Y5481982D01*
X8092405Y5469886D01*
X8099573Y5466917D01*
X8097047Y5454217D01*
X8014718D01*
X8012192Y5466917D01*
X8020278Y5470266D01*
X8032374Y5482362D01*
X8038920Y5498167D01*
Y5515273D01*
X8032374Y5531078D01*
X8020278Y5543174D01*
X8004473Y5549720D01*
X7987367D01*
X7971562Y5543174D01*
X7959466Y5531078D01*
X7952920Y5515273D01*
Y5498167D01*
X7959466Y5482362D01*
X7971562Y5470266D01*
X7979648Y5466917D01*
X7977122Y5454217D01*
X7868411D01*
X7866200Y5457527D01*
Y5474633D01*
X7859654Y5490438D01*
X7847558Y5502534D01*
X7831753Y5509080D01*
X7814647D01*
X7798842Y5502534D01*
X7786746Y5490438D01*
X7780200Y5474633D01*
Y5457527D01*
X7777989Y5454217D01*
X7683500D01*
X7675724Y5450996D01*
X7444584Y5219856D01*
X7441363Y5212080D01*
Y4239260D01*
X7444584Y4231484D01*
X7665564Y4010504D01*
X7673340Y4007283D01*
X7736037D01*
X7744523Y3994583D01*
X7742100Y3988733D01*
Y3971627D01*
X7748646Y3955822D01*
X7760742Y3943726D01*
X7776547Y3937180D01*
X7793653D01*
X7809458Y3943726D01*
X7821554Y3955822D01*
X7828100Y3971627D01*
Y3988733D01*
X7833169Y3996320D01*
X7841913D01*
X7857718Y4002866D01*
X7862134Y4007283D01*
X7926506D01*
X7930922Y4002866D01*
X7946727Y3996320D01*
X7963833D01*
X7979638Y4002866D01*
X7984054Y4007283D01*
X8045251D01*
X8049667Y4002866D01*
X8065472Y3996320D01*
X8082578D01*
X8098383Y4002866D01*
X8102799Y4007283D01*
X8498840D01*
X8506616Y4010504D01*
X8726915Y4230803D01*
X8763109D01*
X8767287Y4232533D01*
X8768211D01*
X8781994Y4238243D01*
X8794726D01*
X8808509Y4232534D01*
X8809432D01*
X8813611Y4230803D01*
X9222740D01*
X9230516Y4234024D01*
X9300853Y4304361D01*
X9312587Y4299501D01*
Y4135528D01*
X9312139D01*
X9314180Y4125265D01*
Y4023360D01*
X9223750Y3932930D01*
X9202915Y3924300D01*
X8872220D01*
X8727440Y3779520D01*
X8603959D01*
X8601432Y3792220D01*
X8601938Y3792429D01*
X8614034Y3804525D01*
X8620580Y3820330D01*
Y3837436D01*
X8614034Y3853240D01*
X8601938Y3865336D01*
X8586133Y3871883D01*
X8569027D01*
X8553222Y3865336D01*
X8541126Y3853240D01*
X8534580Y3837436D01*
Y3820330D01*
X8541126Y3804525D01*
X8553222Y3792429D01*
X8553728Y3792220D01*
X8551201Y3779520D01*
X7462520D01*
X7226300Y4015740D01*
Y4450909D01*
X7226415Y4451109D01*
X7231542Y4490102D01*
X7231345Y4490836D01*
X7231636Y4491538D01*
X7231632Y4511202D01*
Y4611534D01*
X7244260Y4611707D01*
X7250806Y4595902D01*
X7262902Y4583806D01*
X7278707Y4577260D01*
X7295813D01*
X7311618Y4583806D01*
X7323714Y4595902D01*
X7330260Y4611707D01*
Y4628813D01*
X7323714Y4644618D01*
X7311618Y4656714D01*
X7295813Y4663260D01*
X7278707D01*
X7262902Y4656714D01*
X7250806Y4644618D01*
X7244260Y4628813D01*
X7231632Y4628986D01*
X7231632Y4824893D01*
X7244260Y4825067D01*
X7250806Y4809262D01*
X7262902Y4797166D01*
X7278707Y4790620D01*
X7295813D01*
X7311618Y4797166D01*
X7323714Y4809262D01*
X7330260Y4825067D01*
Y4842173D01*
X7323714Y4857978D01*
X7311618Y4870074D01*
X7295813Y4876620D01*
X7278707D01*
X7262902Y4870074D01*
X7250806Y4857978D01*
X7244260Y4842173D01*
X7231632Y4842347D01*
Y4929033D01*
X7244260Y4929207D01*
X7250806Y4913402D01*
X7262902Y4901306D01*
X7278707Y4894760D01*
X7295813D01*
X7311618Y4901306D01*
X7323714Y4913402D01*
X7330260Y4929207D01*
Y4946313D01*
X7323714Y4962118D01*
X7311618Y4974214D01*
X7295813Y4980760D01*
X7278707D01*
X7262902Y4974214D01*
X7250806Y4962118D01*
X7244260Y4946313D01*
X7231632Y4946487D01*
Y5035713D01*
X7244260Y5035887D01*
X7250806Y5020082D01*
X7262902Y5007986D01*
X7278707Y5001440D01*
X7295813D01*
X7311618Y5007986D01*
X7323714Y5020082D01*
X7330260Y5035887D01*
Y5052993D01*
X7323714Y5068798D01*
X7311618Y5080894D01*
X7295813Y5087440D01*
X7278707D01*
X7262902Y5080894D01*
X7250806Y5068798D01*
X7244260Y5052993D01*
X7231632Y5053167D01*
X7231632Y5349492D01*
X7500620Y5618480D01*
X8338820D01*
X8425180Y5532120D01*
D02*
G37*
G36*
X8210178Y4844991D02*
X8155604Y4790416D01*
X8152383Y4782640D01*
Y4768834D01*
X8146674Y4755051D01*
Y4754338D01*
X8144794Y4749800D01*
X8146673Y4745263D01*
Y4744549D01*
X8152383Y4730766D01*
Y4718034D01*
X8147511Y4706272D01*
X8139125Y4697886D01*
X8135904Y4690110D01*
X8139125Y4682334D01*
X8147511Y4673948D01*
X8152383Y4662186D01*
Y4649454D01*
X8146674Y4635671D01*
Y4634958D01*
X8144794Y4630420D01*
X8146673Y4625883D01*
Y4625169D01*
X8152383Y4611386D01*
Y4598654D01*
X8147511Y4586892D01*
X8143612Y4582993D01*
X8143182Y4581955D01*
X8142247Y4581330D01*
X8136698Y4573034D01*
X8136269Y4570884D01*
X8135052Y4569061D01*
X8135479Y4566920D01*
X8135052Y4564779D01*
X8136269Y4562956D01*
X8136698Y4560806D01*
X8142247Y4552510D01*
X8143182Y4551885D01*
X8143612Y4550847D01*
X8147511Y4546948D01*
X8152383Y4535186D01*
Y4522454D01*
X8146674Y4508671D01*
Y4507958D01*
X8144794Y4503420D01*
X8146673Y4498883D01*
Y4498169D01*
X8152383Y4484386D01*
Y4471654D01*
X8147511Y4459892D01*
X8138508Y4450889D01*
X8126746Y4446017D01*
X8114014D01*
X8102252Y4450889D01*
X8101486Y4451655D01*
X8093710Y4454876D01*
X8085934Y4451655D01*
X8085168Y4450889D01*
X8073406Y4446017D01*
X8060674D01*
X8048912Y4450889D01*
X8039909Y4459892D01*
X8035037Y4471654D01*
Y4484386D01*
X8040746Y4498169D01*
Y4498882D01*
X8042626Y4503420D01*
X8040747Y4507957D01*
Y4508671D01*
X8035037Y4522454D01*
Y4535186D01*
X8039909Y4546948D01*
X8043808Y4550847D01*
X8044238Y4551885D01*
X8045173Y4552510D01*
X8050722Y4560806D01*
X8051151Y4562956D01*
X8052368Y4564779D01*
X8051941Y4566920D01*
X8052368Y4569061D01*
X8051151Y4570884D01*
X8050722Y4573034D01*
X8045173Y4581330D01*
X8044238Y4581955D01*
X8043808Y4582993D01*
X8039909Y4586892D01*
X8035037Y4598654D01*
Y4611386D01*
X8040746Y4625169D01*
Y4625882D01*
X8042626Y4630420D01*
X8040747Y4634957D01*
Y4635671D01*
X8035037Y4649454D01*
Y4662186D01*
X8039909Y4673948D01*
X8048295Y4682334D01*
X8051516Y4690110D01*
X8048295Y4697886D01*
X8039909Y4706272D01*
X8035037Y4718034D01*
Y4730766D01*
X8040746Y4744549D01*
Y4745262D01*
X8042626Y4749800D01*
X8040746Y4754338D01*
Y4755051D01*
X8034866Y4769249D01*
X8033319Y4770795D01*
X8032482Y4772816D01*
X8030461Y4773653D01*
X8028914Y4775200D01*
X8026727D01*
X8024706Y4776037D01*
X7930522D01*
X7928502Y4775200D01*
X7926314D01*
X7924767Y4773653D01*
X7922746Y4772816D01*
X7921909Y4770795D01*
X7920362Y4769249D01*
X7915534Y4757591D01*
Y4756878D01*
X7913654Y4752340D01*
X7915533Y4747803D01*
Y4747089D01*
X7921243Y4733306D01*
Y4720574D01*
X7916371Y4708812D01*
X7907985Y4700426D01*
X7904764Y4692650D01*
X7907985Y4684874D01*
X7916371Y4676488D01*
X7921243Y4664726D01*
Y4651994D01*
X7915534Y4638211D01*
Y4637498D01*
X7913654Y4632960D01*
X7915533Y4628423D01*
Y4627709D01*
X7921243Y4613926D01*
Y4601194D01*
X7916371Y4589432D01*
X7911202Y4584263D01*
X7910476Y4582510D01*
X7909063Y4581244D01*
X7905082Y4572947D01*
X7905047Y4572312D01*
X7904622Y4571837D01*
X7904822Y4568190D01*
X7904622Y4564543D01*
X7905047Y4564068D01*
X7905082Y4563433D01*
X7909063Y4555136D01*
X7910475Y4553870D01*
X7911202Y4552117D01*
X7916371Y4546948D01*
X7921243Y4535186D01*
Y4522454D01*
X7915534Y4508671D01*
Y4507958D01*
X7913654Y4503420D01*
X7915533Y4498883D01*
Y4498169D01*
X7921243Y4484386D01*
Y4471654D01*
X7916371Y4459892D01*
X7907368Y4450889D01*
X7895606Y4446017D01*
X7882874D01*
X7871112Y4450889D01*
X7870346Y4451655D01*
X7862570Y4454876D01*
X7854794Y4451655D01*
X7854028Y4450889D01*
X7842266Y4446017D01*
X7829534D01*
X7817772Y4450889D01*
X7808769Y4459892D01*
X7803897Y4471654D01*
Y4484386D01*
X7809606Y4498169D01*
Y4498882D01*
X7811486Y4503420D01*
X7809607Y4507957D01*
Y4508671D01*
X7803897Y4522454D01*
Y4535186D01*
X7808769Y4546948D01*
X7813938Y4552117D01*
X7814664Y4553870D01*
X7816077Y4555136D01*
X7820058Y4563433D01*
X7820093Y4564068D01*
X7820518Y4564543D01*
X7820318Y4568190D01*
X7820518Y4571837D01*
X7820093Y4572312D01*
X7820058Y4572947D01*
X7816077Y4581244D01*
X7814665Y4582510D01*
X7813938Y4584263D01*
X7808769Y4589432D01*
X7803897Y4601194D01*
Y4613926D01*
X7809606Y4627709D01*
Y4628422D01*
X7811486Y4632960D01*
X7809607Y4637497D01*
Y4638211D01*
X7803897Y4651994D01*
Y4664726D01*
X7808769Y4676488D01*
X7817155Y4684874D01*
X7820376Y4692650D01*
X7817155Y4700426D01*
X7808769Y4708812D01*
X7803897Y4720574D01*
Y4733306D01*
X7807661Y4742391D01*
Y4742514D01*
X7807745Y4742602D01*
X7807661Y4746705D01*
Y4750808D01*
X7807574Y4750895D01*
X7807571Y4751017D01*
X7802279Y4763082D01*
X7798694Y4776242D01*
X7800454Y4780492D01*
X7805240Y4792047D01*
Y4801828D01*
X7806698Y4802118D01*
Y4802182D01*
X8085235D01*
Y4801511D01*
X8115296Y4805469D01*
X8143309Y4817072D01*
X8167364Y4835531D01*
Y4835530D01*
X8167401Y4836085D01*
X8183959Y4848790D01*
X8203630Y4856938D01*
X8204246Y4857019D01*
X8210178Y4844991D01*
D02*
G37*
%LPC*%
G36*
X7235744Y6930589D02*
X7218638D01*
X7202833Y6924043D01*
X7190737Y6911947D01*
X7184191Y6896142D01*
Y6879036D01*
X7190737Y6863232D01*
X7202833Y6851136D01*
X7218638Y6844589D01*
X7235744D01*
X7251548Y6851136D01*
X7263644Y6863232D01*
X7270191Y6879036D01*
Y6896142D01*
X7263644Y6911947D01*
X7251548Y6924043D01*
X7235744Y6930589D01*
D02*
G37*
G36*
X7049433Y6812100D02*
X7032327D01*
X7016522Y6805554D01*
X7004426Y6793458D01*
X6999352Y6781207D01*
X6988473Y6785713D01*
X6971367D01*
X6955562Y6779167D01*
X6943466Y6767071D01*
X6936920Y6751267D01*
Y6734160D01*
X6943466Y6718356D01*
X6950109Y6711714D01*
X6943466Y6705071D01*
X6936920Y6689267D01*
Y6672160D01*
X6943466Y6656356D01*
X6955562Y6644260D01*
X6971367Y6637714D01*
X6988473D01*
X6992603Y6639424D01*
X7007711Y6636139D01*
X7019807Y6624043D01*
X7035611Y6617497D01*
X7052717D01*
X7068522Y6624043D01*
X7080618Y6636139D01*
X7087164Y6651944D01*
Y6669050D01*
X7080618Y6684855D01*
X7068522Y6696951D01*
X7052717Y6703497D01*
X7035611D01*
X7031481Y6701786D01*
X7020215Y6704236D01*
X7014712Y6716694D01*
X7016374Y6718356D01*
X7021448Y6730606D01*
X7032327Y6726100D01*
X7049433D01*
X7065238Y6732646D01*
X7077334Y6744742D01*
X7083880Y6760547D01*
Y6777653D01*
X7077334Y6793458D01*
X7065238Y6805554D01*
X7049433Y6812100D01*
D02*
G37*
G36*
X8231640Y6592553D02*
X8214534D01*
X8198729Y6586007D01*
X8186633Y6573911D01*
X8180087Y6558106D01*
Y6541000D01*
X8186633Y6525195D01*
X8198729Y6513099D01*
X8214534Y6506553D01*
X8231640D01*
X8247445Y6513099D01*
X8259541Y6525195D01*
X8266087Y6541000D01*
Y6558106D01*
X8259541Y6573911D01*
X8247445Y6586007D01*
X8231640Y6592553D01*
D02*
G37*
G36*
X7750473Y5816420D02*
X7733367D01*
X7717562Y5809874D01*
X7705466Y5797778D01*
X7698920Y5781973D01*
Y5764867D01*
X7705466Y5749062D01*
X7717562Y5736966D01*
X7733367Y5730420D01*
X7750473D01*
X7766278Y5736966D01*
X7778374Y5749062D01*
X7784920Y5764867D01*
Y5781973D01*
X7778374Y5797778D01*
X7766278Y5809874D01*
X7750473Y5816420D01*
D02*
G37*
G36*
X7643793D02*
X7626687D01*
X7610882Y5809874D01*
X7598786Y5797778D01*
X7592240Y5781973D01*
Y5764867D01*
X7598786Y5749062D01*
X7610882Y5736966D01*
X7626687Y5730420D01*
X7643793D01*
X7659598Y5736966D01*
X7671694Y5749062D01*
X7678240Y5764867D01*
Y5781973D01*
X7671694Y5797778D01*
X7659598Y5809874D01*
X7643793Y5816420D01*
D02*
G37*
G36*
X7537113D02*
X7520007D01*
X7504202Y5809874D01*
X7492106Y5797778D01*
X7485560Y5781973D01*
Y5764867D01*
X7492106Y5749062D01*
X7504202Y5736966D01*
X7520007Y5730420D01*
X7537113D01*
X7552918Y5736966D01*
X7565014Y5749062D01*
X7571560Y5764867D01*
Y5781973D01*
X7565014Y5797778D01*
X7552918Y5809874D01*
X7537113Y5816420D01*
D02*
G37*
G36*
X7430433D02*
X7413327D01*
X7397522Y5809874D01*
X7385426Y5797778D01*
X7378880Y5781973D01*
Y5764867D01*
X7385426Y5749062D01*
X7397522Y5736966D01*
X7413327Y5730420D01*
X7430433D01*
X7446238Y5736966D01*
X7458334Y5749062D01*
X7464880Y5764867D01*
Y5781973D01*
X7458334Y5797778D01*
X7446238Y5809874D01*
X7430433Y5816420D01*
D02*
G37*
G36*
X7665651Y6617061D02*
X7648544D01*
X7632740Y6610515D01*
X7620644Y6598419D01*
X7614098Y6582615D01*
Y6576400D01*
X7601739D01*
X7585935Y6569854D01*
X7573839Y6557758D01*
X7567293Y6541954D01*
Y6524847D01*
X7573839Y6509043D01*
X7585935Y6496947D01*
X7601739Y6490401D01*
X7618846D01*
X7634650Y6496947D01*
X7646746Y6509043D01*
X7653293Y6524847D01*
Y6531062D01*
X7665651D01*
X7681455Y6537608D01*
X7687816Y6543969D01*
X7694737Y6537048D01*
X7710542Y6530501D01*
X7718321D01*
Y6519550D01*
X7722909Y6508473D01*
X7713379Y6498674D01*
X7696273D01*
X7680469Y6492127D01*
X7668373Y6480031D01*
X7661826Y6464227D01*
Y6447121D01*
X7668373Y6431316D01*
X7680469Y6419220D01*
X7696273Y6412674D01*
X7713379D01*
X7729184Y6419220D01*
X7736576Y6426613D01*
X7742962Y6420226D01*
X7758767Y6413680D01*
X7775873D01*
X7791678Y6420226D01*
X7799070Y6427619D01*
X7806462Y6420226D01*
X7822267Y6413680D01*
X7839373D01*
X7855178Y6420226D01*
X7867274Y6432322D01*
X7873820Y6448127D01*
Y6465233D01*
X7867274Y6481038D01*
X7855178Y6493134D01*
X7839373Y6499680D01*
X7822267D01*
X7806462Y6493134D01*
X7802940Y6489612D01*
X7802061Y6490072D01*
X7797774Y6503746D01*
X7804320Y6519550D01*
Y6536656D01*
X7797774Y6552461D01*
X7785678Y6564557D01*
X7769874Y6571103D01*
X7762095D01*
Y6582054D01*
X7755548Y6597859D01*
X7743452Y6609955D01*
X7727648Y6616501D01*
X7710542D01*
X7694737Y6609955D01*
X7688376Y6603594D01*
X7681455Y6610515D01*
X7665651Y6617061D01*
D02*
G37*
G36*
X7808893Y6387920D02*
X7791787D01*
X7775982Y6381374D01*
X7764780Y6370171D01*
X7756118Y6378834D01*
X7740313Y6385380D01*
X7723207D01*
X7707402Y6378834D01*
X7701280Y6372711D01*
X7695158Y6378834D01*
X7679353Y6385380D01*
X7662247D01*
X7646442Y6378834D01*
X7640320Y6372711D01*
X7634198Y6378834D01*
X7618393Y6385380D01*
X7601287D01*
X7585482Y6378834D01*
X7580630Y6373981D01*
X7575778Y6378834D01*
X7559973Y6385380D01*
X7542867D01*
X7527062Y6378834D01*
X7514966Y6366738D01*
X7508420Y6350933D01*
Y6333827D01*
X7514966Y6318022D01*
X7527062Y6305926D01*
X7542867Y6299380D01*
X7559973D01*
X7575778Y6305926D01*
X7580630Y6310779D01*
X7585482Y6305926D01*
X7601287Y6299380D01*
X7618393D01*
X7634198Y6305926D01*
X7640320Y6312049D01*
X7646442Y6305926D01*
X7662247Y6299380D01*
X7679353D01*
X7695158Y6305926D01*
X7701280Y6312049D01*
X7707402Y6305926D01*
X7723207Y6299380D01*
X7740313D01*
X7756118Y6305926D01*
X7767320Y6317129D01*
X7775982Y6308466D01*
X7791787Y6301920D01*
X7808893D01*
X7824698Y6308466D01*
X7836794Y6320562D01*
X7843340Y6336367D01*
Y6353473D01*
X7836794Y6369278D01*
X7824698Y6381374D01*
X7808893Y6387920D01*
D02*
G37*
%LPD*%
G36*
X7818468Y6372051D02*
X7827471Y6363048D01*
X7832343Y6351286D01*
Y6338554D01*
X7827471Y6326792D01*
X7818468Y6317789D01*
X7806706Y6312917D01*
X7793974D01*
X7782212Y6317789D01*
X7775096Y6324905D01*
X7767320Y6328126D01*
X7759544Y6324905D01*
X7749888Y6315249D01*
X7738126Y6310377D01*
X7725394D01*
X7713632Y6315249D01*
X7709056Y6319825D01*
X7701280Y6323046D01*
X7693504Y6319825D01*
X7688928Y6315249D01*
X7677166Y6310377D01*
X7664434D01*
X7652672Y6315249D01*
X7648096Y6319825D01*
X7640320Y6323046D01*
X7632544Y6319825D01*
X7627968Y6315249D01*
X7616206Y6310377D01*
X7603474D01*
X7591712Y6315249D01*
X7588406Y6318555D01*
X7580630Y6321776D01*
X7572854Y6318555D01*
X7569548Y6315249D01*
X7557786Y6310377D01*
X7545054D01*
X7533292Y6315249D01*
X7524289Y6324252D01*
X7519417Y6336014D01*
Y6348746D01*
X7524289Y6360508D01*
X7533292Y6369511D01*
X7545054Y6374383D01*
X7557786D01*
X7569548Y6369511D01*
X7572854Y6366205D01*
X7580630Y6362984D01*
X7588406Y6366205D01*
X7591712Y6369511D01*
X7603474Y6374383D01*
X7616206D01*
X7627968Y6369511D01*
X7632544Y6364935D01*
X7640320Y6361714D01*
X7648096Y6364935D01*
X7652672Y6369511D01*
X7664434Y6374383D01*
X7677166D01*
X7688928Y6369511D01*
X7693504Y6364935D01*
X7701280Y6361714D01*
X7709056Y6364935D01*
X7713632Y6369511D01*
X7725394Y6374383D01*
X7738126D01*
X7749888Y6369511D01*
X7757004Y6362395D01*
X7764780Y6359174D01*
X7772556Y6362395D01*
X7782212Y6372051D01*
X7793974Y6376923D01*
X7806706D01*
X7818468Y6372051D01*
D02*
G37*
%LPC*%
G36*
X8094274Y5331280D02*
X8077168D01*
X8061363Y5324734D01*
X8054721Y5318091D01*
X8048079Y5324734D01*
X8032274Y5331280D01*
X8015168D01*
X7999363Y5324734D01*
X7987267Y5312638D01*
X7980721Y5296833D01*
Y5279727D01*
X7987267Y5263922D01*
X7999363Y5251826D01*
X8015168Y5245280D01*
X8032274D01*
X8048079Y5251826D01*
X8054721Y5258469D01*
X8061363Y5251826D01*
X8077168Y5245280D01*
X8094274D01*
X8110079Y5251826D01*
X8122175Y5263922D01*
X8128721Y5279727D01*
Y5296833D01*
X8122175Y5312638D01*
X8110079Y5324734D01*
X8094274Y5331280D01*
D02*
G37*
G36*
X9132233Y5006160D02*
X9115127D01*
X9099550Y4999708D01*
X9083973Y5006160D01*
X9066867D01*
X9051062Y4999614D01*
X9038966Y4987518D01*
X9032420Y4971713D01*
Y4954607D01*
X9038346Y4940300D01*
X9032420Y4925993D01*
Y4908887D01*
X9038346Y4894580D01*
X9032420Y4880273D01*
Y4863167D01*
X9038966Y4847362D01*
X9051062Y4835266D01*
X9066867Y4828720D01*
X9083973D01*
X9099550Y4835172D01*
X9115127Y4828720D01*
X9132233D01*
X9148038Y4835266D01*
X9160134Y4847362D01*
X9166680Y4863167D01*
Y4880273D01*
X9160754Y4894580D01*
X9166680Y4908887D01*
Y4925993D01*
X9160754Y4940300D01*
X9166680Y4954607D01*
Y4971713D01*
X9160134Y4987518D01*
X9148038Y4999614D01*
X9132233Y5006160D01*
D02*
G37*
G36*
X8793693Y4964385D02*
X8776587D01*
X8760782Y4957838D01*
X8748686Y4945742D01*
X8742140Y4929938D01*
Y4912832D01*
X8748686Y4897027D01*
X8760782Y4884931D01*
X8776587Y4878385D01*
X8793693D01*
X8809497Y4884931D01*
X8821593Y4897027D01*
X8828140Y4912832D01*
Y4929938D01*
X8821593Y4945742D01*
X8809497Y4957838D01*
X8793693Y4964385D01*
D02*
G37*
G36*
X8875693Y4846140D02*
X8858587D01*
X8842782Y4839594D01*
X8830686Y4827498D01*
X8824140Y4811693D01*
Y4794587D01*
X8830686Y4778782D01*
X8842782Y4766686D01*
X8858587Y4760140D01*
X8875693D01*
X8891498Y4766686D01*
X8903594Y4778782D01*
X8910140Y4794587D01*
Y4811693D01*
X8903594Y4827498D01*
X8891498Y4839594D01*
X8875693Y4846140D01*
D02*
G37*
G36*
Y4724220D02*
X8858587D01*
X8842782Y4717674D01*
X8830686Y4705578D01*
X8824140Y4689773D01*
Y4672667D01*
X8830686Y4656862D01*
X8842782Y4644766D01*
X8858587Y4638220D01*
X8875693D01*
X8891498Y4644766D01*
X8903594Y4656862D01*
X8910140Y4672667D01*
Y4689773D01*
X8903594Y4705578D01*
X8891498Y4717674D01*
X8875693Y4724220D01*
D02*
G37*
G36*
Y4602300D02*
X8858587D01*
X8842782Y4595754D01*
X8830686Y4583658D01*
X8824140Y4567853D01*
Y4550747D01*
X8830686Y4534942D01*
X8842782Y4522846D01*
X8858587Y4516300D01*
X8875693D01*
X8891498Y4522846D01*
X8903594Y4534942D01*
X8910140Y4550747D01*
Y4567853D01*
X8903594Y4583658D01*
X8891498Y4595754D01*
X8875693Y4602300D01*
D02*
G37*
G36*
X8859323Y4493359D02*
X8842217D01*
X8826413Y4486813D01*
X8814317Y4474717D01*
X8807770Y4458913D01*
Y4441806D01*
X8814317Y4426002D01*
X8826413Y4413906D01*
X8842217Y4407359D01*
X8857160D01*
Y4404328D01*
X8863706Y4388523D01*
X8870349Y4381881D01*
X8863706Y4375239D01*
X8857160Y4359434D01*
Y4342328D01*
X8863706Y4326523D01*
X8875802Y4314427D01*
X8891607Y4307881D01*
X8908713D01*
X8924518Y4314427D01*
X8936614Y4326523D01*
X8943160Y4342328D01*
Y4359434D01*
X8936614Y4375239D01*
X8929971Y4381881D01*
X8936614Y4388523D01*
X8943160Y4404328D01*
Y4421434D01*
X8936614Y4437239D01*
X8924518Y4449335D01*
X8908713Y4455881D01*
X8893770D01*
Y4458913D01*
X8887224Y4474717D01*
X8875128Y4486813D01*
X8859323Y4493359D01*
D02*
G37*
G36*
X9150013Y4429580D02*
X9132907D01*
X9117102Y4423034D01*
X9105006Y4410938D01*
X9098460Y4395133D01*
Y4386090D01*
X9089449Y4376654D01*
X9086727Y4376240D01*
X9071947D01*
X9056142Y4369694D01*
X9044046Y4357598D01*
X9037500Y4341793D01*
Y4324687D01*
X9044046Y4308882D01*
X9056142Y4296786D01*
X9071947Y4290240D01*
X9089053D01*
X9104858Y4296786D01*
X9112250Y4304179D01*
X9117102Y4299326D01*
X9132907Y4292780D01*
X9150013D01*
X9165818Y4299326D01*
X9177914Y4311422D01*
X9184460Y4327227D01*
Y4344333D01*
X9177914Y4360138D01*
X9176871Y4361180D01*
X9177914Y4362222D01*
X9184460Y4378027D01*
Y4395133D01*
X9177914Y4410938D01*
X9165818Y4423034D01*
X9150013Y4429580D01*
D02*
G37*
G36*
X8365153Y5557340D02*
X8348047D01*
X8332242Y5550794D01*
X8320146Y5538698D01*
X8313600Y5522893D01*
Y5505787D01*
X8320146Y5489982D01*
X8332242Y5477886D01*
X8348047Y5471340D01*
X8365153D01*
X8380958Y5477886D01*
X8393054Y5489982D01*
X8399600Y5505787D01*
Y5522893D01*
X8393054Y5538698D01*
X8380958Y5550794D01*
X8365153Y5557340D01*
D02*
G37*
G36*
X7293273Y4343220D02*
X7276167D01*
X7260362Y4336674D01*
X7248266Y4324578D01*
X7241720Y4308773D01*
Y4291667D01*
X7248266Y4275862D01*
X7260362Y4263766D01*
X7276167Y4257220D01*
X7293273D01*
X7309078Y4263766D01*
X7321174Y4275862D01*
X7327720Y4291667D01*
Y4308773D01*
X7321174Y4324578D01*
X7309078Y4336674D01*
X7293273Y4343220D01*
D02*
G37*
G36*
X9129693Y4142560D02*
X9112587D01*
X9096782Y4136014D01*
X9093200Y4132431D01*
X9089618Y4136014D01*
X9073813Y4142560D01*
X9056707D01*
X9040902Y4136014D01*
X9028806Y4123918D01*
X9022260Y4108113D01*
Y4091007D01*
X9028712Y4075430D01*
X9022260Y4059853D01*
Y4042747D01*
X9028806Y4026942D01*
X9040902Y4014846D01*
X9056707Y4008300D01*
X9073813D01*
X9089618Y4014846D01*
X9093200Y4018429D01*
X9096782Y4014846D01*
X9112587Y4008300D01*
X9129693D01*
X9145498Y4014846D01*
X9157594Y4026942D01*
X9164140Y4042747D01*
Y4059853D01*
X9157688Y4075430D01*
X9164140Y4091007D01*
Y4108113D01*
X9157594Y4123918D01*
X9145498Y4136014D01*
X9129693Y4142560D01*
D02*
G37*
G36*
X8786793Y3995240D02*
X8769687D01*
X8753882Y3988694D01*
X8741786Y3976598D01*
X8735240Y3960793D01*
Y3943687D01*
X8741786Y3927882D01*
X8753882Y3915786D01*
X8769687Y3909240D01*
X8786793D01*
X8802598Y3915786D01*
X8814694Y3927882D01*
X8821240Y3943687D01*
Y3960793D01*
X8814694Y3976598D01*
X8802598Y3988694D01*
X8786793Y3995240D01*
D02*
G37*
G36*
X8537873Y3980000D02*
X8520767D01*
X8504962Y3973454D01*
X8492866Y3961358D01*
X8486320Y3945553D01*
Y3928447D01*
X8492866Y3912642D01*
X8504962Y3900546D01*
X8520767Y3894000D01*
X8537873D01*
X8553678Y3900546D01*
X8565774Y3912642D01*
X8572320Y3928447D01*
Y3945553D01*
X8565774Y3961358D01*
X8553678Y3973454D01*
X8537873Y3980000D01*
D02*
G37*
G36*
X7961293D02*
X7944187D01*
X7928382Y3973454D01*
X7916286Y3961358D01*
X7909740Y3945553D01*
Y3928447D01*
X7916286Y3912642D01*
X7928382Y3900546D01*
X7944187Y3894000D01*
X7961293D01*
X7977098Y3900546D01*
X7989194Y3912642D01*
X7995740Y3928447D01*
Y3945553D01*
X7989194Y3961358D01*
X7977098Y3973454D01*
X7961293Y3980000D01*
D02*
G37*
G36*
X8296573Y3977460D02*
X8279467D01*
X8263662Y3970914D01*
X8251566Y3958818D01*
X8245020Y3943013D01*
Y3925907D01*
X8251566Y3910102D01*
X8263662Y3898006D01*
X8279467Y3891460D01*
X8296573D01*
X8312378Y3898006D01*
X8324474Y3910102D01*
X8331020Y3925907D01*
Y3943013D01*
X8324474Y3958818D01*
X8312378Y3970914D01*
X8296573Y3977460D01*
D02*
G37*
G36*
X8189893D02*
X8172787D01*
X8156982Y3970914D01*
X8144886Y3958818D01*
X8138340Y3943013D01*
Y3925907D01*
X8144886Y3910102D01*
X8156982Y3898006D01*
X8172787Y3891460D01*
X8189893D01*
X8205698Y3898006D01*
X8217794Y3910102D01*
X8224340Y3925907D01*
Y3943013D01*
X8217794Y3958818D01*
X8205698Y3970914D01*
X8189893Y3977460D01*
D02*
G37*
G36*
X8083213D02*
X8066107D01*
X8050302Y3970914D01*
X8038206Y3958818D01*
X8031660Y3943013D01*
Y3925907D01*
X8038206Y3910102D01*
X8050302Y3898006D01*
X8066107Y3891460D01*
X8083213D01*
X8099018Y3898006D01*
X8111114Y3910102D01*
X8117660Y3925907D01*
Y3943013D01*
X8111114Y3958818D01*
X8099018Y3970914D01*
X8083213Y3977460D01*
D02*
G37*
%LPD*%
G36*
X9885680Y6728460D02*
Y6523284D01*
X9878993Y6516598D01*
X9872447Y6500793D01*
Y6483687D01*
X9878993Y6467882D01*
X9891089Y6455786D01*
X9892052Y6455388D01*
X9941560Y6405880D01*
Y6291580D01*
X9908540Y6258560D01*
X9818237D01*
X9813264Y6260620D01*
X9796157D01*
X9791184Y6258560D01*
X9632545Y6258560D01*
X9627284Y6271260D01*
X9633407Y6277382D01*
X9639953Y6293187D01*
Y6310293D01*
X9633407Y6326098D01*
X9621311Y6338194D01*
X9605506Y6344740D01*
X9588400D01*
X9572596Y6338194D01*
X9560500Y6326098D01*
X9553953Y6310293D01*
Y6293187D01*
X9560500Y6277382D01*
X9566622Y6271260D01*
X9561362Y6258560D01*
X9527571D01*
X9522311Y6271260D01*
X9528434Y6277382D01*
X9534980Y6293187D01*
Y6310293D01*
X9528434Y6326098D01*
X9516338Y6338194D01*
X9500533Y6344740D01*
X9483427D01*
X9467622Y6338194D01*
X9455526Y6326098D01*
X9448980Y6310293D01*
Y6293187D01*
X9455526Y6277382D01*
X9467622Y6265286D01*
X9467922Y6265162D01*
X9470902Y6250182D01*
X9443720Y6223000D01*
Y6012179D01*
X9450444Y6005455D01*
X9446857Y5996794D01*
Y5979688D01*
X9453403Y5963883D01*
X9465499Y5951787D01*
X9481303Y5945241D01*
X9498410D01*
X9514214Y5951787D01*
X9526310Y5963883D01*
X9531509Y5976435D01*
X9536269Y5977062D01*
X9543105Y5979893D01*
X9553890Y5984337D01*
X9558477Y5973441D01*
X9560500Y5968559D01*
X9572596Y5956463D01*
X9588400Y5949917D01*
X9605506D01*
X9621311Y5956463D01*
X9633407Y5968559D01*
X9639953Y5984363D01*
Y5986780D01*
X9646920D01*
X9705486Y6045346D01*
X9720895Y6047375D01*
Y6047392D01*
X9990849D01*
Y6046750D01*
X10030970Y6050701D01*
X10037955Y6052820D01*
X10063480D01*
X10083800Y6032500D01*
Y5986780D01*
Y5773420D01*
X10058400Y5748020D01*
X9786620D01*
X9767693Y5766947D01*
X9771962Y5780639D01*
X9783038Y5785226D01*
X9795134Y5797322D01*
X9801680Y5813127D01*
Y5830233D01*
X9797401Y5840563D01*
X9810978Y5846186D01*
X9823074Y5858282D01*
X9829620Y5874087D01*
Y5891193D01*
X9823074Y5906998D01*
X9818221Y5911850D01*
X9823074Y5916702D01*
X9829620Y5932507D01*
Y5949613D01*
X9823074Y5965418D01*
X9810978Y5977514D01*
X9795173Y5984060D01*
X9778067D01*
X9762262Y5977514D01*
X9750166Y5965418D01*
X9743620Y5949613D01*
Y5932507D01*
X9750166Y5916702D01*
X9755019Y5911850D01*
X9750166Y5906998D01*
X9743620Y5891193D01*
Y5874087D01*
X9747899Y5863757D01*
X9734322Y5858134D01*
X9722226Y5846038D01*
X9717639Y5834962D01*
X9703947Y5830693D01*
X9659620Y5875020D01*
X9637338D01*
X9625558Y5886801D01*
X9609753Y5893347D01*
X9592647D01*
X9576842Y5886801D01*
X9565062Y5875020D01*
X9430423D01*
Y5889373D01*
X9423877Y5905178D01*
X9411781Y5917274D01*
X9395977Y5923820D01*
X9378870D01*
X9363066Y5917274D01*
X9350970Y5905178D01*
X9344424Y5889373D01*
Y5875020D01*
X9055100D01*
X8917940Y6012180D01*
Y6680200D01*
X8959922Y6722182D01*
X8962727Y6721020D01*
X8979833D01*
X8995638Y6727566D01*
X9007734Y6739662D01*
X9014280Y6755467D01*
Y6772573D01*
X9013118Y6775378D01*
X9085580Y6847840D01*
X9766300D01*
X9885680Y6728460D01*
D02*
G37*
G36*
X9072544Y7038340D02*
X9077505Y7026362D01*
X9089601Y7014266D01*
X9105405Y7007720D01*
X9122512D01*
X9138316Y7014266D01*
X9150412Y7026362D01*
X9155373Y7038340D01*
X9552550Y7038340D01*
X9559606Y7027780D01*
X9558200Y7024387D01*
Y7007280D01*
X9559461Y7004235D01*
X9545842Y6998594D01*
X9539200Y6991951D01*
X9532558Y6998594D01*
X9516753Y7005140D01*
X9499647D01*
X9483843Y6998594D01*
X9471747Y6986498D01*
X9465200Y6970693D01*
Y6953587D01*
X9471747Y6937782D01*
X9483843Y6925686D01*
X9499647Y6919140D01*
X9516753D01*
X9532558Y6925686D01*
X9539200Y6932329D01*
X9545842Y6925686D01*
X9561647Y6919140D01*
X9578753D01*
X9594558Y6925686D01*
X9601200Y6932329D01*
X9607842Y6925686D01*
X9623647Y6919140D01*
X9640753D01*
X9656558Y6925686D01*
X9668654Y6937782D01*
X9675200Y6953587D01*
Y6970693D01*
X9668654Y6986498D01*
X9656558Y6998594D01*
X9642939Y7004235D01*
X9644200Y7007280D01*
Y7024387D01*
X9642794Y7027780D01*
X9649850Y7038340D01*
X9914833D01*
X9931130Y7036194D01*
X9963411Y7022823D01*
X9979852Y7010207D01*
X10048922Y6941137D01*
X10058165Y6929875D01*
X10071889Y6904199D01*
X10080341Y6876339D01*
X10081260Y6867004D01*
Y6301739D01*
X10025616Y6246095D01*
X10014380Y6241441D01*
X10002284Y6229345D01*
X9997630Y6218110D01*
X9961879Y6182359D01*
X9796779Y6182361D01*
X9784080Y6195060D01*
Y6233160D01*
X9800542Y6249623D01*
X9811076D01*
X9814029Y6248400D01*
X9816216D01*
X9818237Y6247563D01*
X9908540D01*
X9916316Y6250784D01*
X9949336Y6283804D01*
X9952557Y6291580D01*
Y6362788D01*
X9958447Y6377007D01*
Y6383536D01*
X9966581Y6393914D01*
X9983687D01*
X9999491Y6400460D01*
X10011587Y6412556D01*
X10018133Y6428360D01*
Y6445467D01*
X10011587Y6461271D01*
X9999491Y6473367D01*
X9983687Y6479913D01*
X9966580D01*
X9950776Y6473367D01*
X9938680Y6461271D01*
X9933116Y6447837D01*
X9920400Y6442592D01*
X9899829Y6463164D01*
X9898866Y6463563D01*
X9888317Y6474112D01*
X9885680Y6480477D01*
Y6504003D01*
X9888316Y6510368D01*
X9893456Y6515508D01*
X9896677Y6523284D01*
Y6728460D01*
X9893456Y6736236D01*
X9774076Y6855616D01*
X9766300Y6858837D01*
X9477574D01*
X9465538Y6870873D01*
X9449733Y6877420D01*
X9440988D01*
X9431374Y6885650D01*
X9430840Y6889153D01*
Y6903213D01*
X9424294Y6919017D01*
X9412198Y6931113D01*
X9396393Y6937660D01*
X9379287D01*
X9363482Y6931113D01*
X9351386Y6919017D01*
X9344840Y6903213D01*
Y6889153D01*
X9344306Y6885650D01*
X9334692Y6877420D01*
X9325947D01*
X9325323Y6877162D01*
X9315411Y6886418D01*
Y6903524D01*
X9308865Y6919329D01*
X9296769Y6931425D01*
X9280964Y6937971D01*
X9263858D01*
X9248054Y6931425D01*
X9235958Y6919329D01*
X9229411Y6903524D01*
Y6886418D01*
X9235958Y6870614D01*
X9236001Y6870570D01*
X9231141Y6858837D01*
X9085580D01*
X9077804Y6855616D01*
X9010096Y6787908D01*
X9007733Y6788378D01*
X8995638Y6800474D01*
X8979833Y6807020D01*
X8962727D01*
X8946922Y6800474D01*
X8934826Y6788378D01*
X8928280Y6772573D01*
Y6755467D01*
X8934826Y6739662D01*
X8939358Y6735131D01*
X8939861Y6720229D01*
X8930354Y6710500D01*
X8929705D01*
X8913901Y6703954D01*
X8901805Y6691858D01*
X8895258Y6676053D01*
Y6658947D01*
X8901805Y6643142D01*
X8906943Y6638004D01*
Y6376956D01*
X8901805Y6371818D01*
X8895258Y6356013D01*
Y6338907D01*
X8901805Y6323102D01*
X8906943Y6317964D01*
Y6056916D01*
X8901805Y6051778D01*
X8895258Y6035973D01*
Y6018867D01*
X8901805Y6003062D01*
X8913901Y5990966D01*
X8929705Y5984420D01*
X8930147D01*
X9047324Y5867244D01*
X9055100Y5864023D01*
X9091122D01*
X9096382Y5851323D01*
X9088557Y5843498D01*
X9082011Y5827693D01*
Y5810587D01*
X9088557Y5794782D01*
X9100653Y5782686D01*
X9116458Y5776140D01*
X9133564D01*
X9149368Y5782686D01*
X9161464Y5794782D01*
X9168011Y5810587D01*
Y5827693D01*
X9161464Y5843498D01*
X9153639Y5851323D01*
X9158900Y5864023D01*
X9193931D01*
X9199192Y5851323D01*
X9193906Y5846038D01*
X9187360Y5830233D01*
Y5813127D01*
X9193906Y5797322D01*
X9206002Y5785226D01*
X9221807Y5778680D01*
X9238913D01*
X9254718Y5785226D01*
X9266814Y5797322D01*
X9273360Y5813127D01*
Y5830233D01*
X9283964Y5837820D01*
X9288636D01*
X9304441Y5844367D01*
X9316537Y5856463D01*
X9319668Y5864023D01*
X9344424D01*
X9352200Y5867244D01*
X9355421Y5875020D01*
X9419426D01*
X9422647Y5867244D01*
X9430423Y5864023D01*
X9454935D01*
X9458066Y5856463D01*
X9470162Y5844367D01*
X9485967Y5837820D01*
X9503073D01*
X9518878Y5844367D01*
X9530974Y5856463D01*
X9534105Y5864023D01*
X9565062D01*
X9572838Y5867244D01*
X9580614Y5875020D01*
X9621786D01*
X9629562Y5867244D01*
X9637338Y5864023D01*
X9655065D01*
X9696171Y5822917D01*
X9697746Y5822264D01*
X9698838Y5820955D01*
X9701488Y5820714D01*
X9703947Y5819696D01*
X9713384Y5815045D01*
X9715680Y5813127D01*
X9722226Y5797322D01*
X9734322Y5785226D01*
X9750127Y5778680D01*
X9752045Y5776384D01*
X9756696Y5766947D01*
X9757714Y5764488D01*
X9757955Y5761838D01*
X9759264Y5760746D01*
X9759917Y5759171D01*
X9778844Y5740244D01*
X9786620Y5737023D01*
X9797617D01*
X9828227Y5706413D01*
X9823366Y5694680D01*
X9301530D01*
X9299539Y5697659D01*
Y5714765D01*
X9292993Y5730570D01*
X9280897Y5742666D01*
X9265092Y5749212D01*
X9247986D01*
X9232182Y5742666D01*
X9220086Y5730570D01*
X9213539Y5714765D01*
Y5697659D01*
X9211549Y5694680D01*
X8854440D01*
X8669019Y5880100D01*
X8669020Y6908800D01*
X8798560Y7038340D01*
X9072544D01*
D02*
G37*
G36*
X9615081Y6328871D02*
X9624084Y6319868D01*
X9628956Y6308106D01*
Y6295374D01*
X9624084Y6283612D01*
X9619508Y6279036D01*
X9618671Y6277016D01*
X9617124Y6275469D01*
Y6273281D01*
X9616287Y6271260D01*
X9617124Y6269239D01*
Y6267052D01*
X9622385Y6254351D01*
X9623931Y6252805D01*
X9624769Y6250784D01*
X9626790Y6249946D01*
X9628336Y6248400D01*
X9630524D01*
X9632545Y6247563D01*
X9757248Y6247563D01*
X9765310Y6234863D01*
X9761710Y6226173D01*
Y6209067D01*
X9768257Y6193262D01*
X9780353Y6181166D01*
X9783883Y6179704D01*
X9789003Y6174584D01*
X9793918Y6172548D01*
X9791392Y6159848D01*
X9691745D01*
Y6160224D01*
X9681956Y6162172D01*
X9672053Y6168924D01*
X9672053Y6168924D01*
X9650659Y6183219D01*
X9625423Y6188239D01*
Y6187320D01*
X9581745D01*
Y6187918D01*
X9553116Y6184149D01*
X9526438Y6173098D01*
X9504142Y6155990D01*
X9498410Y6158364D01*
X9481303D01*
X9467417Y6152612D01*
X9454717Y6157630D01*
Y6218445D01*
X9478678Y6242405D01*
X9479109Y6243446D01*
X9480046Y6244072D01*
X9480671Y6247218D01*
X9481899Y6250182D01*
X9481468Y6251222D01*
X9481687Y6252327D01*
X9478707Y6267308D01*
X9478082Y6268244D01*
Y6269370D01*
X9476112Y6271341D01*
X9475399Y6273063D01*
X9464849Y6283612D01*
X9459977Y6295374D01*
Y6308106D01*
X9464849Y6319868D01*
X9473852Y6328871D01*
X9485614Y6333743D01*
X9498346D01*
X9510108Y6328871D01*
X9519111Y6319868D01*
X9523983Y6308106D01*
Y6295374D01*
X9519111Y6283612D01*
X9514535Y6279036D01*
X9513698Y6277015D01*
X9512151Y6275469D01*
Y6273281D01*
X9511314Y6271260D01*
X9512151Y6269239D01*
Y6267052D01*
X9517411Y6254351D01*
X9518958Y6252805D01*
X9519795Y6250784D01*
X9521816Y6249946D01*
X9523363Y6248400D01*
X9525550D01*
X9527571Y6247563D01*
X9561362D01*
X9563383Y6248400D01*
X9565570D01*
X9567117Y6249947D01*
X9569138Y6250784D01*
X9569975Y6252804D01*
X9571522Y6254351D01*
X9576782Y6267052D01*
Y6269239D01*
X9577619Y6271260D01*
X9576782Y6273281D01*
Y6275469D01*
X9575235Y6277015D01*
X9574398Y6279036D01*
X9569823Y6283612D01*
X9564950Y6295374D01*
Y6308106D01*
X9569822Y6319868D01*
X9578825Y6328871D01*
X9590587Y6333743D01*
X9603319D01*
X9615081Y6328871D01*
D02*
G37*
%LPC*%
G36*
X9478193Y6621600D02*
X9461087D01*
X9445282Y6615054D01*
X9438640Y6608411D01*
X9431998Y6615054D01*
X9416193Y6621600D01*
X9399087D01*
X9383282Y6615054D01*
X9371186Y6602958D01*
X9364640Y6587153D01*
Y6570047D01*
X9371186Y6554243D01*
X9363150Y6546517D01*
X9363068Y6546475D01*
X9363066Y6546474D01*
X9350970Y6534378D01*
X9348785Y6529103D01*
X9335038D01*
X9332854Y6534378D01*
X9320758Y6546474D01*
X9304953Y6553020D01*
X9287847D01*
X9272042Y6546474D01*
X9259946Y6534378D01*
X9253400Y6518573D01*
Y6501467D01*
X9259946Y6485662D01*
X9272042Y6473566D01*
X9287847Y6467020D01*
X9304953D01*
X9320758Y6473566D01*
X9332854Y6485662D01*
X9335038Y6490937D01*
X9348785D01*
X9350970Y6485662D01*
X9363066Y6473566D01*
X9367782Y6471613D01*
Y6457866D01*
X9360942Y6455034D01*
X9348846Y6442938D01*
X9342300Y6427133D01*
Y6410027D01*
X9348846Y6394222D01*
X9360942Y6382126D01*
X9376747Y6375580D01*
X9393853D01*
X9409658Y6382126D01*
X9421754Y6394222D01*
X9428300Y6410027D01*
Y6427133D01*
X9421754Y6442938D01*
X9409658Y6455034D01*
X9404942Y6456987D01*
Y6470734D01*
X9411781Y6473566D01*
X9423877Y6485662D01*
X9430423Y6501467D01*
Y6518573D01*
X9423877Y6534377D01*
X9431914Y6542103D01*
X9431995Y6542145D01*
X9431998Y6542146D01*
X9438640Y6548789D01*
X9445282Y6542146D01*
X9448082Y6540987D01*
X9454323Y6525340D01*
X9451520Y6518573D01*
Y6501467D01*
X9458066Y6485662D01*
X9470162Y6473566D01*
X9477736Y6470429D01*
Y6456683D01*
X9467622Y6452494D01*
X9455526Y6440398D01*
X9448980Y6424593D01*
Y6407487D01*
X9455526Y6391682D01*
X9467622Y6379586D01*
X9483427Y6373040D01*
X9500533D01*
X9516338Y6379586D01*
X9528434Y6391682D01*
X9534980Y6407487D01*
Y6424593D01*
X9528434Y6440398D01*
X9516338Y6452494D01*
X9508764Y6455631D01*
Y6469377D01*
X9518878Y6473566D01*
X9530974Y6485662D01*
X9537520Y6501467D01*
Y6518573D01*
X9530974Y6534378D01*
X9518878Y6546474D01*
X9516078Y6547633D01*
X9509837Y6563280D01*
X9512640Y6570047D01*
Y6587153D01*
X9506094Y6602958D01*
X9493998Y6615054D01*
X9478193Y6621600D01*
D02*
G37*
G36*
X9605506Y6553020D02*
X9588400D01*
X9572596Y6546474D01*
X9560500Y6534378D01*
X9553953Y6518573D01*
Y6501467D01*
X9560500Y6485662D01*
X9572596Y6473566D01*
X9581439Y6469903D01*
Y6456157D01*
X9572596Y6452494D01*
X9560500Y6440398D01*
X9553953Y6424593D01*
Y6407487D01*
X9560500Y6391682D01*
X9572596Y6379586D01*
X9588400Y6373040D01*
X9605506D01*
X9621311Y6379586D01*
X9633407Y6391682D01*
X9639953Y6407487D01*
Y6424593D01*
X9633407Y6440398D01*
X9621311Y6452494D01*
X9612467Y6456157D01*
Y6469903D01*
X9621311Y6473566D01*
X9633407Y6485662D01*
X9639953Y6501467D01*
Y6518573D01*
X9633407Y6534378D01*
X9621311Y6546474D01*
X9605506Y6553020D01*
D02*
G37*
G36*
X9395977Y6344740D02*
X9378870D01*
X9363066Y6338194D01*
X9350970Y6326098D01*
X9344424Y6310293D01*
Y6293187D01*
X9350970Y6277382D01*
X9363066Y6265286D01*
X9378870Y6258740D01*
X9395977D01*
X9411781Y6265286D01*
X9423877Y6277382D01*
X9430423Y6293187D01*
Y6310293D01*
X9423877Y6326098D01*
X9411781Y6338194D01*
X9395977Y6344740D01*
D02*
G37*
G36*
X9211516Y6251620D02*
X9194409D01*
X9178605Y6245074D01*
X9166509Y6232978D01*
X9159963Y6217173D01*
Y6200067D01*
X9166509Y6184262D01*
X9173151Y6177620D01*
X9166509Y6170978D01*
X9159963Y6155173D01*
Y6138067D01*
X9166509Y6122263D01*
X9178605Y6110167D01*
X9194409Y6103620D01*
X9211516D01*
X9227320Y6110167D01*
X9239416Y6122263D01*
X9245962Y6138067D01*
Y6155173D01*
X9239416Y6170978D01*
X9232774Y6177620D01*
X9239416Y6184262D01*
X9245962Y6200067D01*
Y6217173D01*
X9239416Y6232978D01*
X9227320Y6245074D01*
X9211516Y6251620D01*
D02*
G37*
G36*
X9962813Y5928180D02*
X9945707D01*
X9929902Y5921634D01*
X9917806Y5909538D01*
X9911260Y5893733D01*
Y5876627D01*
X9917806Y5860822D01*
X9925951Y5852678D01*
X9917472Y5844199D01*
X9910926Y5828395D01*
Y5811288D01*
X9917472Y5795484D01*
X9929568Y5783388D01*
X9945373Y5776842D01*
X9962479D01*
X9978283Y5783388D01*
X9990379Y5795484D01*
X9996926Y5811288D01*
Y5828395D01*
X9990379Y5844199D01*
X9982235Y5852344D01*
X9990714Y5860822D01*
X9997260Y5876627D01*
Y5893733D01*
X9990714Y5909538D01*
X9978618Y5921634D01*
X9962813Y5928180D01*
D02*
G37*
G36*
X8983264Y6925509D02*
X8966158D01*
X8950353Y6918963D01*
X8938257Y6906867D01*
X8931711Y6891062D01*
Y6873956D01*
X8938257Y6858152D01*
X8950353Y6846056D01*
X8966158Y6839509D01*
X8983264D01*
X8999068Y6846056D01*
X9011164Y6858152D01*
X9017711Y6873956D01*
Y6891062D01*
X9011164Y6906867D01*
X8999068Y6918963D01*
X8983264Y6925509D01*
D02*
G37*
G36*
X8880773Y6819720D02*
X8863667D01*
X8847862Y6813174D01*
X8835766Y6801078D01*
X8829220Y6785273D01*
Y6768167D01*
X8835766Y6752362D01*
X8847862Y6740266D01*
X8863667Y6733720D01*
X8880773D01*
X8896578Y6740266D01*
X8908674Y6752362D01*
X8915220Y6768167D01*
Y6785273D01*
X8908674Y6801078D01*
X8896578Y6813174D01*
X8880773Y6819720D01*
D02*
G37*
G36*
X9985673Y6591120D02*
X9968567D01*
X9952762Y6584574D01*
X9940666Y6572478D01*
X9934120Y6556673D01*
Y6539567D01*
X9940666Y6523762D01*
X9952762Y6511666D01*
X9968567Y6505120D01*
X9985673D01*
X10001478Y6511666D01*
X10013574Y6523762D01*
X10020120Y6539567D01*
Y6556673D01*
X10013574Y6572478D01*
X10001478Y6584574D01*
X9985673Y6591120D01*
D02*
G37*
G36*
X8843725Y6710500D02*
X8826619D01*
X8810814Y6703954D01*
X8798718Y6691858D01*
X8792172Y6676053D01*
Y6658947D01*
X8797190Y6646833D01*
X8794909Y6643420D01*
X8779105Y6636874D01*
X8767009Y6624778D01*
X8760463Y6608973D01*
Y6591867D01*
X8767009Y6576063D01*
X8774980Y6568092D01*
X8769726Y6562838D01*
X8763180Y6547033D01*
Y6529927D01*
X8769726Y6514122D01*
X8776369Y6507480D01*
X8769726Y6500838D01*
X8763180Y6485033D01*
Y6467927D01*
X8769726Y6452122D01*
X8777894Y6443956D01*
X8772854Y6438917D01*
X8766308Y6423112D01*
Y6406006D01*
X8772854Y6390201D01*
X8784950Y6378106D01*
X8789729Y6362379D01*
X8787092Y6356013D01*
Y6338907D01*
X8793638Y6323103D01*
X8793120Y6320494D01*
X8781836Y6315820D01*
X8769740Y6303724D01*
X8763193Y6287920D01*
Y6270813D01*
X8769740Y6255009D01*
X8776308Y6248441D01*
X8769591Y6241725D01*
X8763045Y6225920D01*
Y6208814D01*
X8769591Y6193009D01*
X8776302Y6186298D01*
X8769729Y6179725D01*
X8763182Y6163920D01*
Y6146814D01*
X8769729Y6131010D01*
X8776369Y6124369D01*
X8769725Y6117725D01*
X8763179Y6101920D01*
Y6084814D01*
X8769725Y6069010D01*
X8781821Y6056914D01*
X8795892Y6051085D01*
X8789632Y6035973D01*
Y6018867D01*
X8796178Y6003062D01*
X8808274Y5990966D01*
X8824079Y5984420D01*
X8841185D01*
X8856990Y5990966D01*
X8869086Y6003062D01*
X8875632Y6018867D01*
Y6035973D01*
X8869086Y6051778D01*
X8856990Y6063874D01*
X8842919Y6069702D01*
X8849178Y6084814D01*
Y6101920D01*
X8842632Y6117725D01*
X8835991Y6124365D01*
X8842636Y6131010D01*
X8849182Y6146814D01*
Y6163920D01*
X8842636Y6179725D01*
X8835925Y6186436D01*
X8842498Y6193009D01*
X8849045Y6208814D01*
Y6225920D01*
X8842498Y6241725D01*
X8835930Y6248293D01*
X8842647Y6255009D01*
X8849193Y6270813D01*
Y6287920D01*
X8846661Y6294034D01*
X8852688Y6310277D01*
X8854450Y6311006D01*
X8866546Y6323102D01*
X8873092Y6338907D01*
Y6356013D01*
X8866546Y6371818D01*
X8854450Y6383913D01*
X8849671Y6399639D01*
X8852308Y6406006D01*
Y6423112D01*
X8845762Y6438917D01*
X8837595Y6447083D01*
X8842634Y6452122D01*
X8849180Y6467927D01*
Y6485033D01*
X8842634Y6500838D01*
X8835991Y6507480D01*
X8842634Y6514122D01*
X8849180Y6529927D01*
Y6547033D01*
X8842634Y6562838D01*
X8834663Y6570809D01*
X8839916Y6576063D01*
X8846463Y6591867D01*
Y6608973D01*
X8841445Y6621087D01*
X8843726Y6624500D01*
X8859530Y6631046D01*
X8871626Y6643142D01*
X8878172Y6658947D01*
Y6676053D01*
X8871626Y6691858D01*
X8859530Y6703954D01*
X8843725Y6710500D01*
D02*
G37*
G36*
X8842673Y5963740D02*
X8825567D01*
X8809762Y5957194D01*
X8797666Y5945098D01*
X8791120Y5929293D01*
Y5912187D01*
X8797666Y5896382D01*
X8809762Y5884286D01*
X8825567Y5877740D01*
X8842673D01*
X8858478Y5884286D01*
X8870574Y5896382D01*
X8877120Y5912187D01*
Y5929293D01*
X8870574Y5945098D01*
X8858478Y5957194D01*
X8842673Y5963740D01*
D02*
G37*
G36*
X9503073Y5820865D02*
X9485967D01*
X9470162Y5814318D01*
X9458066Y5802222D01*
X9451520Y5786418D01*
Y5769312D01*
X9458066Y5753507D01*
X9470162Y5741411D01*
X9485967Y5734865D01*
X9503073D01*
X9518878Y5741411D01*
X9530974Y5753507D01*
X9537520Y5769312D01*
Y5786418D01*
X9530974Y5802222D01*
X9518878Y5814318D01*
X9503073Y5820865D01*
D02*
G37*
G36*
X9395977D02*
X9378870D01*
X9363066Y5814318D01*
X9350970Y5802222D01*
X9344424Y5786418D01*
Y5769312D01*
X9350970Y5753507D01*
X9363066Y5741411D01*
X9378870Y5734865D01*
X9395977D01*
X9411781Y5741411D01*
X9423877Y5753507D01*
X9430423Y5769312D01*
Y5786418D01*
X9423877Y5802222D01*
X9411781Y5814318D01*
X9395977Y5820865D01*
D02*
G37*
%LPD*%
D10*
X9899034Y7994970D02*
G03*
X9944770Y7990320I45736J222600D01*
G01*
X9784080Y8056880D02*
G03*
X9899034Y7994970I160690J160690D01*
G01*
X10185400Y7990840D02*
X10190480D01*
X9944770Y7990320D02*
X10185400D01*
D12*
X9481692Y7492872D02*
G03*
X9481680Y7492860I30352J-30352D01*
G01*
D02*
G03*
X9469120Y7462520I30365J-30340D01*
G01*
X9432764Y7733821D02*
G03*
X9432825Y7733788I7165J13451D01*
G01*
X9442558Y7724057D02*
G03*
X9442430Y7724184I-64558J-64305D01*
G01*
X9421077Y7740046D02*
G03*
X9420600Y7740300I-43077J-80295D01*
G01*
X9469120Y7659752D02*
G03*
X9442558Y7724057I-91120J0D01*
G01*
X9555972Y6008957D02*
G03*
X9555992Y6008977I-38604J38644D01*
G01*
X9517368Y5992978D02*
G03*
X9555972Y6008957I0J54623D01*
G01*
X9654331Y6087813D02*
G03*
X9609242Y6062078I24541J-95365D01*
G01*
X9678872Y6090920D02*
G03*
X9654331Y6087813I0J-98472D01*
G01*
X9633327Y6029291D02*
G03*
X9633255Y6029218I87568J-87712D01*
G01*
X9720895Y6065520D02*
G03*
X9633327Y6029291I0J-123942D01*
G01*
X9636214Y6118372D02*
G03*
X9649316Y6116320I13103J40801D01*
G01*
X9619015Y6128871D02*
G03*
X9636214Y6118372I30302J30302D01*
G01*
X9581745Y6169191D02*
G03*
X9516770Y6142278I0J-91889D01*
G01*
X9658630Y6155410D02*
G03*
X9691745Y6141720I33114J33206D01*
G01*
X9658584Y6155456D02*
G03*
X9625423Y6169191I-33161J-33161D01*
G01*
X9658584Y6155456D02*
G03*
X9658630Y6155410I33160J33160D01*
G01*
X10122993Y6120256D02*
G03*
X10177780Y6252522I-132266J132266D01*
G01*
X10122909Y6120171D02*
G03*
X10122993Y6120256I-132059J132229D01*
G01*
X9990849Y6065520D02*
G03*
X10122909Y6120171I0J186880D01*
G01*
X10105004Y6138187D02*
G03*
X10105033Y6138216I-114154J114213D01*
G01*
X9990849Y6090920D02*
G03*
X10105004Y6138187I0J161480D01*
G01*
X10087073Y6156177D02*
G03*
X10126929Y6252399I-96223J96223D01*
G01*
X10087026Y6156131D02*
G03*
X10087073Y6156177I-96177J96269D01*
G01*
X9990849Y6116320D02*
G03*
X10087026Y6156131I0J136080D01*
G01*
X10069112Y6174137D02*
G03*
X10101529Y6252399I-78262J78262D01*
G01*
X9990850Y6141720D02*
G03*
X10069112Y6174137I0J110679D01*
G01*
X10105062Y6138246D02*
G03*
X10152329Y6252400I-114213J114154D01*
G01*
X10105033Y6138216D02*
G03*
X10105062Y6138246I-114183J114183D01*
G01*
X10116670Y7009099D02*
G03*
X10116443Y7009325I-147915J-147619D01*
G01*
X10177729Y6861589D02*
G03*
X10116670Y7009099I-208974J-110D01*
G01*
X10098648Y6991200D02*
G03*
X10098561Y6991286I-129893J-129721D01*
G01*
X10152329Y6861479D02*
G03*
X10098648Y6991200I-183574J0D01*
G01*
X10126929Y6852678D02*
G03*
X10074378Y6979549I-179422J0D01*
G01*
X10101529Y6847366D02*
G03*
X10052661Y6965345I-166847J0D01*
G01*
X9896488Y7134860D02*
G03*
X9896374Y7134860I0J-227952D01*
G01*
X10057476Y7068293D02*
G03*
X9896488Y7134860I-160988J-161385D01*
G01*
X10057756Y7068013D02*
G03*
X10057476Y7068293I-161268J-161105D01*
G01*
X10039565Y7050282D02*
G03*
X9896488Y7109460I-143078J-143374D01*
G01*
X10039716Y7050132D02*
G03*
X10039565Y7050282I-143228J-143224D01*
G01*
X10021664Y7032262D02*
G03*
X9896488Y7084060I-125177J-125355D01*
G01*
X10021827Y7032100D02*
G03*
X10021664Y7032262I-125339J-125192D01*
G01*
X10003793Y7014213D02*
G03*
X9896488Y7058660I-107305J-107305D01*
G01*
X9392920Y7227766D02*
G03*
X9442450Y7108190I169106J0D01*
G01*
X9442482Y7108158D02*
G03*
X9562027Y7058660I119544J119609D01*
G01*
X9442450Y7108190D02*
G03*
X9442482Y7108158I119577J119577D01*
G01*
X9418320Y7227766D02*
G03*
X9460411Y7126151I143706J0D01*
G01*
D02*
G03*
X9562026Y7084060I101616J101616D01*
G01*
X9443720Y7227766D02*
G03*
X9478371Y7144111I118307J0D01*
G01*
X9478444Y7144038D02*
G03*
X9562026Y7109460I83582J83728D01*
G01*
X9478371Y7144111D02*
G03*
X9478444Y7144038I83655J83655D01*
G01*
X9469120Y7227766D02*
G03*
X9496332Y7162072I92906J0D01*
G01*
D02*
G03*
X9562026Y7134860I65695J65695D01*
G01*
X9321115Y7833030D02*
G03*
X9352589Y7757005I107558J0D01*
G01*
X9375342Y7734353D02*
G03*
X9375263Y7734430I-14179J-14555D01*
G01*
X9375427Y7734270D02*
G03*
X9375342Y7734353I-14264J-14472D01*
G01*
X9368239Y7741354D02*
G03*
X9368326Y7741268I17880J18040D01*
G01*
X9368213Y7741381D02*
G03*
X9368239Y7741354I17906J18014D01*
G01*
X9424471Y7706222D02*
G03*
X9389122Y7724524I-46471J-46471D01*
G01*
X9381225Y7728571D02*
G03*
X9389122Y7724524I10598J10951D01*
G01*
X9361435Y7807560D02*
G03*
X9378039Y7767475I56689J0D01*
G01*
X9386119Y7759395D02*
G03*
X9389681Y7756770I10726J10826D01*
G01*
X9424556Y7706137D02*
G03*
X9424471Y7706222I-46556J-46385D01*
G01*
X9443720Y7659752D02*
G03*
X9424556Y7706137I-65720J0D01*
G01*
X9443588Y7655590D02*
G03*
X9443720Y7659752I-65588J4162D01*
G01*
X9443588Y7655590D02*
G03*
X9443559Y7654587I15211J-946D01*
G01*
X9281160Y7857878D02*
G03*
X9327381Y7746292I157807J0D01*
G01*
X9379541Y7700042D02*
G03*
X9379553Y7700041I728J15223D01*
G01*
X9369615Y7704367D02*
G03*
X9379541Y7700042I10654J10898D01*
G01*
X9351306Y7722367D02*
G03*
X9351708Y7721968I53916J54045D01*
G01*
X9351177Y7722495D02*
G03*
X9351306Y7722367I54045J53916D01*
G01*
X9351119Y7722554D02*
G03*
X9351177Y7722495I54103J53857D01*
G01*
X9406467Y7688305D02*
G03*
X9379553Y7700041I-28467J-28554D01*
G01*
X9418195Y7656580D02*
G03*
X9418154Y7655461I15199J-1116D01*
G01*
X9406554Y7688219D02*
G03*
X9406467Y7688305I-28554J-28467D01*
G01*
X9418320Y7659752D02*
G03*
X9406554Y7688219I-40320J0D01*
G01*
X9418195Y7656580D02*
G03*
X9418320Y7659752I-40195J3171D01*
G01*
Y7623732D02*
G03*
X9418307Y7625156I-76340J0D01*
G01*
X9390017Y7640683D02*
G03*
X9378000Y7659752I-48036J-16952D01*
G01*
X9392920Y7623732D02*
G03*
X9390017Y7640683I-50940J0D01*
G01*
X9240520Y7857895D02*
G03*
X9283416Y7754336I146455J0D01*
G01*
X9234767Y8635685D02*
G03*
X9223700Y8651240I-51675J-25053D01*
G01*
X9240520Y8610633D02*
G03*
X9234767Y8635685I-57428J0D01*
G01*
X9315748Y8616288D02*
G03*
X9280796Y8531906I84382J-84382D01*
G01*
X9355783Y8593783D02*
G03*
X9321115Y8510089I83694J-83694D01*
G01*
X9390500Y8628500D02*
G03*
X9390450Y8628450I54970J-55071D01*
G01*
X9445470Y8651240D02*
G03*
X9390500Y8628500I0J-77810D01*
G01*
X9472098Y8610920D02*
G03*
X9393848Y8578508I0J-110662D01*
G01*
D02*
G03*
X9361435Y8500257I78251J-78251D01*
G01*
X9583231Y8632311D02*
G03*
X9583270Y8632350I-51697J51776D01*
G01*
X9531533Y8610920D02*
G03*
X9583231Y8632311I0J73166D01*
G01*
X9469120Y7462520D02*
Y7654357D01*
X9481692Y7492872D02*
X9511030Y7522210D01*
X9469120Y7227766D02*
Y7462520D01*
X9421077Y7740046D02*
X9432764Y7733820D01*
X9432825Y7733788D02*
X9432826D01*
X9442430Y7724184D01*
X9494594Y5992978D02*
X9517368D01*
X9555992Y6008977D02*
X9580252Y6033237D01*
X9580401D02*
X9609242Y6062078D01*
X9555972Y6008957D02*
X9555992Y6008977D01*
X9678872Y6090920D02*
X9990849D01*
X9596953Y5992917D02*
X9633255Y6029218D01*
X9720895Y6065520D02*
X9990849D01*
X9649316Y6116320D02*
X9990849D01*
X9489857Y6115364D02*
X9516770Y6142278D01*
X9581745Y6169191D02*
X9625423D01*
X9691745Y6141720D02*
X9990850D01*
X10177780Y6252522D02*
Y6827520D01*
X10152329Y6252400D02*
Y6861479D01*
X10126929Y6252399D02*
Y6852678D01*
X10101529Y6252399D02*
Y6847366D01*
X10057756Y7068013D02*
X10116443Y7009325D01*
X10177729Y6861589D02*
X10177780Y6827520D01*
X10044794Y7045054D02*
X10098561Y6991286D01*
X10021827Y7032100D02*
X10074378Y6979549D01*
X10003793Y7014213D02*
X10052661Y6965345D01*
X9562026Y7134860D02*
X9865360D01*
Y7134860D02*
X9896374D01*
X9562026Y7109460D02*
X9870440D01*
X10039716Y7050131D02*
X10044794Y7045054D01*
X9870440Y7109460D02*
X9896484D01*
X9896485Y7084060D02*
X9896488D01*
X9878060Y7084060D02*
X9896485Y7084060D01*
X9562026D02*
X9878060D01*
X9562027Y7058660D02*
X9896488D01*
X9392920Y7227766D02*
Y7623732D01*
X9418320Y7227766D02*
Y7623732D01*
X9443720Y7227766D02*
Y7640436D01*
X9374784Y7734901D02*
X9375263Y7734429D01*
X9368326Y7741268D02*
X9374784Y7734901D01*
X9352589Y7757005D02*
X9368212Y7741380D01*
X9375427Y7734270D02*
X9381225Y7728571D01*
X9389681Y7756770D02*
X9420600Y7740300D01*
X9378039Y7767475D02*
X9386119Y7759395D01*
X9443559Y7654587D02*
X9443630Y7640436D01*
X9327381Y7746292D02*
X9351118Y7722554D01*
X9351708Y7721968D02*
X9369615Y7704367D01*
X9418154Y7655461D02*
X9418307Y7625156D01*
X9283416Y7754336D02*
X9378000Y7659752D01*
X9240520Y7857895D02*
Y8610633D01*
X9281160Y7857878D02*
Y8064500D01*
X9321115Y7833030D02*
Y8047435D01*
X9361435Y7807560D02*
Y8500257D01*
X9280796Y8064864D02*
Y8531906D01*
X9315748Y8616288D02*
X9350700Y8651240D01*
X9321115Y8173677D02*
Y8510089D01*
X9355783Y8593783D02*
X9390450Y8628450D01*
X9445470Y8651240D02*
X9477700D01*
X9472098Y8610920D02*
X9531533D01*
X9583270Y8632350D02*
X9604700Y8653780D01*
X9321115Y8081565D02*
Y8173677D01*
X8229321Y7668455D02*
X8234058Y7663717D01*
X8245573D01*
X8246110Y7663180D01*
X9321480Y8047799D02*
Y8081201D01*
X9321115Y8081565D02*
X9321480Y8081201D01*
X9321115Y8047435D02*
X9321480Y8047799D01*
X9280796Y8064864D02*
X9281160Y8064500D01*
X9580252Y6033237D02*
X9580401D01*
X9489857Y5988241D02*
X9494594Y5992978D01*
D36*
X9050020Y7015480D02*
Y7213600D01*
X9128760Y7292340D01*
Y7350760D01*
Y7409180D01*
X7955280Y7015480D02*
Y7289800D01*
Y7348220D02*
Y7406640D01*
Y7289800D02*
Y7348220D01*
D37*
X7584440Y8661400D02*
D03*
Y7381240D02*
D03*
X8872922Y8661400D02*
D03*
Y7381240D02*
D03*
D38*
X7594346Y7671308D02*
D03*
Y7921244D02*
D03*
Y8121396D02*
D03*
Y8371332D02*
D03*
X7444486Y7621270D02*
D03*
Y7821422D02*
D03*
Y8021320D02*
D03*
Y8221218D02*
D03*
Y8421370D02*
D03*
X8882828Y7671308D02*
D03*
Y7921244D02*
D03*
Y8121396D02*
D03*
Y8371332D02*
D03*
X8732968Y7621270D02*
D03*
Y7821422D02*
D03*
Y8021320D02*
D03*
Y8221218D02*
D03*
Y8421370D02*
D03*
D39*
X10197198Y7781315D02*
D03*
X9767201D02*
D03*
Y8261325D02*
D03*
X10197198D02*
D03*
D40*
X1616116Y6469476D02*
D03*
X5416116D02*
D03*
X1616116Y3662126D02*
D03*
X5416116D02*
D03*
D41*
X8337132Y4431371D02*
D03*
X8444428Y4801782D02*
D03*
X8335926Y4741799D02*
D03*
X8340318Y4673205D02*
D03*
X8806182Y6155367D02*
D03*
X8806045Y6217367D02*
D03*
X8806180Y6538480D02*
D03*
Y6476480D02*
D03*
X8389620Y4772799D02*
D03*
Y4710799D02*
D03*
X8442960Y4652911D02*
D03*
Y4590911D02*
D03*
X8384900Y4532896D02*
D03*
Y4470896D02*
D03*
X7731537Y5075425D02*
D03*
X8027290Y5092253D02*
D03*
X7904768Y5023089D02*
D03*
X7053580Y6156440D02*
D03*
Y6218440D02*
D03*
X7965706Y5085080D02*
D03*
X7903706D02*
D03*
X7056120Y6538480D02*
D03*
Y6476480D02*
D03*
X7783691Y5041900D02*
D03*
X7845691D02*
D03*
X7465060Y6208620D02*
D03*
Y6146620D02*
D03*
X8023721Y5288280D02*
D03*
X8085721D02*
D03*
X8850770Y4450359D02*
D03*
X9202963Y6208620D02*
D03*
Y6146620D02*
D03*
X8900160Y4350881D02*
D03*
Y4412881D02*
D03*
X9781540Y7990333D02*
D03*
X9416114Y7788373D02*
D03*
X5932802Y3818320D02*
D03*
X9781540Y8052333D02*
D03*
X9415776Y7850372D02*
D03*
X5888242Y3861429D02*
D03*
X10185400Y8052320D02*
D03*
Y7990320D02*
D03*
X10137140Y7574673D02*
D03*
X6172200Y3817620D02*
D03*
X10137140Y7512673D02*
D03*
X6128359Y3773779D02*
D03*
X9718441Y7447280D02*
D03*
X9780440D02*
D03*
X9680942Y7395325D02*
D03*
X7761321Y6528103D02*
D03*
X7610293Y6533400D02*
D03*
X6639560Y6811760D02*
D03*
Y6873760D02*
D03*
X7719095Y6573501D02*
D03*
X7657097Y6574062D02*
D03*
X7879600Y6964680D02*
D03*
X7817600D02*
D03*
X6979920Y6680714D02*
D03*
Y6742713D02*
D03*
X9508200Y6962140D02*
D03*
X6210254Y3425890D02*
D03*
X6028013Y3442727D02*
D03*
X5929539Y3597550D02*
D03*
X5908074Y4162028D02*
D03*
X5944530Y4001609D02*
D03*
X5826506Y3867140D02*
D03*
X5873188Y3801285D02*
D03*
X6000176Y3673342D02*
D03*
X5929118Y3756429D02*
D03*
X5994080Y3827755D02*
D03*
X6081087Y3813895D02*
D03*
X6089880Y3446780D02*
D03*
X6151880D02*
D03*
X5960719Y3543961D02*
D03*
X6004560Y3500120D02*
D03*
X5986880Y3733900D02*
D03*
X6030720Y3777740D02*
D03*
X9632200Y6962140D02*
D03*
X9570200D02*
D03*
X5862320Y3917750D02*
D03*
Y3979750D02*
D03*
X9407640Y6578600D02*
D03*
X9469640D02*
D03*
X5895340Y4101350D02*
D03*
Y4039350D02*
D03*
X8873629Y5384471D02*
D03*
X8745499Y5519141D02*
D03*
X8789340Y5475300D02*
D03*
X8833180Y5431460D02*
D03*
X8618148Y5008141D02*
D03*
X8618226Y4946141D02*
D03*
X8445639Y5283200D02*
D03*
X8383639D02*
D03*
X8294771Y5007934D02*
D03*
X8205451Y5039444D02*
D03*
X8382439Y5037838D02*
D03*
X8325298Y5061898D02*
D03*
X8263298Y5061753D02*
D03*
X8809308Y6414559D02*
D03*
X8803463Y6600420D02*
D03*
X8806193Y6279367D02*
D03*
X8806178Y6093367D02*
D03*
X9601200Y7015833D02*
D03*
X9128760Y7350760D02*
D03*
Y7292340D02*
D03*
X9509760Y7523480D02*
D03*
X8083224Y5740063D02*
D03*
X8266719Y5722356D02*
D03*
X8204720Y5722620D02*
D03*
X8142720D02*
D03*
X7050286Y6280352D02*
D03*
X7053580Y6094440D02*
D03*
X7032681Y6419081D02*
D03*
X6998077Y6560274D02*
D03*
X6669317Y6928152D02*
D03*
X6677765Y6762930D02*
D03*
X7940341Y6952252D02*
D03*
X7756859D02*
D03*
X10399519Y7402064D02*
D03*
X8226036Y8106773D02*
D03*
X10318016Y5312802D02*
D03*
X10318931Y4879160D02*
D03*
X10316680Y4484764D02*
D03*
X6939176Y5965471D02*
D03*
X9827916Y7935461D02*
D03*
X143568Y6088560D02*
D03*
X436880Y7653020D02*
D03*
X513080D02*
D03*
X589280D02*
D03*
Y7602220D02*
D03*
X513080D02*
D03*
X436880D02*
D03*
X1023620Y7975600D02*
D03*
X1099820D02*
D03*
X1176020D02*
D03*
Y7924800D02*
D03*
X1099820D02*
D03*
X1023620D02*
D03*
X1041400Y8671560D02*
D03*
X1117600D02*
D03*
X1193800D02*
D03*
Y8620760D02*
D03*
X1117600D02*
D03*
X1041400D02*
D03*
X1277620Y8752840D02*
D03*
X1353820D02*
D03*
X1430020D02*
D03*
Y8702040D02*
D03*
X1353820D02*
D03*
X1277620D02*
D03*
X784860Y8750300D02*
D03*
X861060D02*
D03*
X937260D02*
D03*
Y8699500D02*
D03*
X861060D02*
D03*
X784860D02*
D03*
X779780Y8577580D02*
D03*
X855980D02*
D03*
X932180D02*
D03*
Y8526780D02*
D03*
X855980D02*
D03*
X779780D02*
D03*
X1267460Y8580120D02*
D03*
X1343660D02*
D03*
X1419860D02*
D03*
Y8529320D02*
D03*
X1343660D02*
D03*
X1267460D02*
D03*
X1262380Y8133080D02*
D03*
X1338580D02*
D03*
X1414780D02*
D03*
Y8082280D02*
D03*
X1338580D02*
D03*
X1262380D02*
D03*
X1267460Y8450580D02*
D03*
X1343660D02*
D03*
X1419860D02*
D03*
Y8399780D02*
D03*
X1343660D02*
D03*
X1267460D02*
D03*
X93980Y6281420D02*
D03*
Y6169660D02*
D03*
Y6228080D02*
D03*
X9075420Y4963160D02*
D03*
Y4917440D02*
D03*
Y4871720D02*
D03*
X9123680Y5212080D02*
D03*
X8244840Y3822700D02*
D03*
X347980Y6111240D02*
D03*
X414020D02*
D03*
X477520D02*
D03*
X541020Y6113780D02*
D03*
X360680Y4841240D02*
D03*
X424180D02*
D03*
X490220D02*
D03*
X553720D02*
D03*
X2956560Y6764020D02*
D03*
X2827020D02*
D03*
X2702560D02*
D03*
X2697480Y3962400D02*
D03*
X2824480D02*
D03*
X2956560D02*
D03*
X4777740Y6012180D02*
D03*
X4845799Y6352483D02*
D03*
X4658360Y6062980D02*
D03*
X4541106Y6232950D02*
D03*
X4437980Y6033730D02*
D03*
X4303798Y6078848D02*
D03*
X3759200Y6197600D02*
D03*
X3947160Y6322060D02*
D03*
X3878985Y6086466D02*
D03*
X3614722Y6037832D02*
D03*
X3594100Y6296660D02*
D03*
X2811780Y6327140D02*
D03*
X2900680Y6240780D02*
D03*
X3088640Y6172200D02*
D03*
X2918460Y6073140D02*
D03*
X2989580Y6035040D02*
D03*
X2773680Y6027420D02*
D03*
X2905760Y3373120D02*
D03*
X2733040Y3246120D02*
D03*
X2768600Y3352800D02*
D03*
X2840851Y3282718D02*
D03*
X3126155Y3374751D02*
D03*
X3558540Y3385820D02*
D03*
X4522940Y3385371D02*
D03*
X4691432Y3389619D02*
D03*
X4340289Y3235994D02*
D03*
X4622761Y3262895D02*
D03*
X4366484Y3377583D02*
D03*
X3954780Y3406140D02*
D03*
X3731260Y3370580D02*
D03*
X3843020Y3248660D02*
D03*
X3604260Y3218180D02*
D03*
X3053080Y3225800D02*
D03*
X1328420Y6911340D02*
D03*
X1130300Y6715760D02*
D03*
X1346200Y4993640D02*
D03*
X1272540D02*
D03*
Y4912360D02*
D03*
X1346200D02*
D03*
X1272540Y4719320D02*
D03*
X1346200D02*
D03*
X1272540Y4630420D02*
D03*
X1346200D02*
D03*
Y4442460D02*
D03*
X1272540D02*
D03*
X485140Y5062220D02*
D03*
X563880Y5064760D02*
D03*
X508000Y5151120D02*
D03*
X378460D02*
D03*
X246380D02*
D03*
X142240D02*
D03*
X73660Y5074920D02*
D03*
Y5001260D02*
D03*
Y4930140D02*
D03*
X1290320Y6273800D02*
D03*
X1358900D02*
D03*
X1292860Y6192520D02*
D03*
X1358900D02*
D03*
X1297940Y5897880D02*
D03*
X1358900Y5900420D02*
D03*
X1346200Y5717540D02*
D03*
X1275080D02*
D03*
X637540Y6245860D02*
D03*
Y6299200D02*
D03*
X574040Y6245860D02*
D03*
Y6299200D02*
D03*
X484420Y4368800D02*
D03*
Y5639837D02*
D03*
X360680Y5801360D02*
D03*
X449580D02*
D03*
X533400D02*
D03*
X414020Y4559300D02*
D03*
X472440D02*
D03*
X530995Y4557608D02*
D03*
X228600Y6451600D02*
D03*
Y6400800D02*
D03*
X177800D02*
D03*
Y6451600D02*
D03*
X939800Y6807200D02*
D03*
Y6731000D02*
D03*
Y6654800D02*
D03*
X990600D02*
D03*
Y6731000D02*
D03*
Y6807200D02*
D03*
X1953050Y3446990D02*
D03*
X2057190Y3546050D02*
D03*
X1841290Y3553670D02*
D03*
X2057190Y3767030D02*
D03*
X2168950Y3660350D02*
D03*
X1950510D02*
D03*
X1445260Y4157980D02*
D03*
X1338580Y4272280D02*
D03*
X1229360Y4165600D02*
D03*
X1341120Y4058920D02*
D03*
X1557020Y4272280D02*
D03*
X1445260Y4378960D02*
D03*
X1681480Y6835140D02*
D03*
X1752600Y6758940D02*
D03*
X1856740Y6865620D02*
D03*
X1783080Y6939280D02*
D03*
X1356360Y7155180D02*
D03*
X1280160Y7231380D02*
D03*
X1463040Y7264400D02*
D03*
X1386840Y7338060D02*
D03*
X927100Y3314700D02*
D03*
X962660Y3350260D02*
D03*
X2319020Y3322320D02*
D03*
X5212080Y3812540D02*
D03*
X4733116Y3501942D02*
D03*
X4352116D02*
D03*
X3209116D02*
D03*
X3082116D02*
D03*
X2574116D02*
D03*
X5114116Y6309292D02*
D03*
X4733116D02*
D03*
X4352116D02*
D03*
X3209116D02*
D03*
X3082116D02*
D03*
X2574116D02*
D03*
X2320116D02*
D03*
X144780Y5662380D02*
D03*
Y4823460D02*
D03*
Y4392380D02*
D03*
X9223700Y8651240D02*
D03*
X9350700D02*
D03*
X9477700D02*
D03*
X9604700Y8653780D02*
D03*
X7830820D02*
D03*
X7964480D02*
D03*
X8091480Y8652510D02*
D03*
X8218480Y8653780D02*
D03*
X8397240Y8754866D02*
D03*
X9679940Y8727440D02*
D03*
X9378000Y7659752D02*
D03*
X6324600Y3319780D02*
D03*
Y3276280D02*
D03*
X6464300Y3624580D02*
D03*
X6537960D02*
D03*
X6393180D02*
D03*
X8120380Y4775200D02*
D03*
X8067040D02*
D03*
Y4724400D02*
D03*
X8120380D02*
D03*
X7889240Y4777740D02*
D03*
X7835900D02*
D03*
Y4726940D02*
D03*
X7889240D02*
D03*
X8120380Y4655820D02*
D03*
X8067040D02*
D03*
Y4605020D02*
D03*
X8120380D02*
D03*
X7889240Y4658360D02*
D03*
X7835900D02*
D03*
Y4607560D02*
D03*
X7889240D02*
D03*
X8120380Y4528820D02*
D03*
X8067040D02*
D03*
Y4478020D02*
D03*
X8120380D02*
D03*
X7889240Y4528820D02*
D03*
X7835900D02*
D03*
Y4478020D02*
D03*
X7889240D02*
D03*
X7800340Y6344920D02*
D03*
X7731760Y6342380D02*
D03*
X7670800D02*
D03*
X7609840D02*
D03*
X7551420D02*
D03*
X7800340Y6225540D02*
D03*
X7731760D02*
D03*
X7670800D02*
D03*
X7609840D02*
D03*
X7551420D02*
D03*
X7704826Y6455674D02*
D03*
X7767320Y6456680D02*
D03*
X7830820D02*
D03*
X10441940Y7447280D02*
D03*
X10345420Y8034020D02*
D03*
X8785140Y4921385D02*
D03*
X6235700Y3932891D02*
D03*
X7503160Y4683760D02*
D03*
X7762240Y4800600D02*
D03*
X7764420Y4881880D02*
D03*
X7680777Y4921885D02*
D03*
X7922260Y3289300D02*
D03*
X7830820Y3291840D02*
D03*
X8006080Y3289300D02*
D03*
X7741920Y3291840D02*
D03*
X7680777Y4841875D02*
D03*
X8553519Y3328601D02*
D03*
X8229600Y3289300D02*
D03*
X8577580Y3828883D02*
D03*
X8778240Y3952240D02*
D03*
X8229321Y7668455D02*
D03*
X10313234Y4043680D02*
D03*
X9255760Y4859020D02*
D03*
Y4953000D02*
D03*
Y4907280D02*
D03*
X9232900Y4101315D02*
D03*
X9298940D02*
D03*
X9232900Y4045762D02*
D03*
X9298940D02*
D03*
X7955280Y7289800D02*
D03*
Y7406640D02*
D03*
Y7348220D02*
D03*
X9128760Y7409180D02*
D03*
X9514840Y3733800D02*
D03*
X9240520Y3731260D02*
D03*
X9306560D02*
D03*
X9372600D02*
D03*
X9446260Y3732698D02*
D03*
X10462260Y3421380D02*
D03*
X10375900D02*
D03*
X10462260Y3347720D02*
D03*
X10375900D02*
D03*
X10396220Y3271520D02*
D03*
X10309860D02*
D03*
X10325100Y3208020D02*
D03*
X10238740D02*
D03*
X10223500Y3139440D02*
D03*
X10137140D02*
D03*
X10165080Y3202940D02*
D03*
X10078720D02*
D03*
X10002520Y3159760D02*
D03*
X9916160D02*
D03*
X9751486Y3130559D02*
D03*
X9677826Y3133099D02*
D03*
X9162206Y3138179D02*
D03*
X9334926Y3135639D02*
D03*
X9591466Y3133099D02*
D03*
X9837846Y3130559D02*
D03*
X9507646Y3133099D02*
D03*
X9248566Y3135639D02*
D03*
X9075846Y3138179D02*
D03*
X9421286Y3133099D02*
D03*
X10462260Y3505200D02*
D03*
X10375900D02*
D03*
X10462260Y3563620D02*
D03*
X10375900D02*
D03*
X10462260Y3622040D02*
D03*
X10375900D02*
D03*
X10462260Y3677920D02*
D03*
X10375900D02*
D03*
Y3733800D02*
D03*
X10462260D02*
D03*
X9065260Y4051300D02*
D03*
Y4099560D02*
D03*
X9121140Y4051300D02*
D03*
Y4099560D02*
D03*
X9080500Y4333240D02*
D03*
X9141460Y4335780D02*
D03*
Y4386580D02*
D03*
X9123680Y5161280D02*
D03*
X9075420D02*
D03*
Y5212080D02*
D03*
X9123680Y5260340D02*
D03*
X9075420D02*
D03*
X9123680Y4871720D02*
D03*
Y4917440D02*
D03*
Y4963160D02*
D03*
X9321115Y8173677D02*
D03*
X9281160Y8064500D02*
D03*
X8481060Y8067040D02*
D03*
X8351520Y7538720D02*
D03*
X8061960Y6207760D02*
D03*
X8221980Y8168640D02*
D03*
X9387423Y6301740D02*
D03*
X9296400Y6510020D02*
D03*
X9385300Y6418580D02*
D03*
X9387423Y6510020D02*
D03*
X9494520D02*
D03*
X9491980Y6416040D02*
D03*
Y6301740D02*
D03*
X9596953D02*
D03*
Y6416040D02*
D03*
Y6510020D02*
D03*
X7394660Y4297680D02*
D03*
Y4940300D02*
D03*
X8354060Y5404397D02*
D03*
X7241540Y5765800D02*
D03*
X9253220Y5561650D02*
D03*
X9256539Y5706212D02*
D03*
X9230360Y5821680D02*
D03*
X9489857Y6115364D02*
D03*
X9619015Y6128871D02*
D03*
X10038737Y6204988D02*
D03*
X9804710Y6217620D02*
D03*
X9123680Y7162800D02*
D03*
X9230360Y7155180D02*
D03*
X9113958Y7050720D02*
D03*
X8974711Y6882509D02*
D03*
X8971280Y6764020D02*
D03*
X8872220Y6776720D02*
D03*
X7477760Y7091749D02*
D03*
X7541191Y7152640D02*
D03*
X7249160Y7160260D02*
D03*
X7360029Y7049391D02*
D03*
X7272122Y6713118D02*
D03*
X7227191Y6887589D02*
D03*
X7044164Y6660497D02*
D03*
X7040880Y6769100D02*
D03*
X9940501Y4742180D02*
D03*
X7849677Y5850347D02*
D03*
X7854795Y6117545D02*
D03*
X7708696Y5977168D02*
D03*
X7844353Y5992917D02*
D03*
X7737257Y6115364D02*
D03*
X9489857Y5988241D02*
D03*
X9596953Y5992917D02*
D03*
X9825380Y7198129D02*
D03*
X9823500Y7393389D02*
D03*
X10137800Y7396160D02*
D03*
X10139680Y7200900D02*
D03*
X6299200Y3416300D02*
D03*
X10055140Y4865549D02*
D03*
X9938623Y6891276D02*
D03*
X9954260Y5885180D02*
D03*
X9953926Y5819842D02*
D03*
X10099040Y3982720D02*
D03*
X9931400Y5603240D02*
D03*
X10033000Y5057140D02*
D03*
X9941560D02*
D03*
X9987280D02*
D03*
Y4229100D02*
D03*
X9941560D02*
D03*
X10033000D02*
D03*
X7284720Y4300220D02*
D03*
Y4406900D02*
D03*
X7287260Y4508500D02*
D03*
Y4620260D02*
D03*
Y4724400D02*
D03*
Y4833620D02*
D03*
Y4937760D02*
D03*
Y5044440D02*
D03*
Y5153660D02*
D03*
X7716520Y5511800D02*
D03*
X7823200Y5466080D02*
D03*
X7995920Y5506720D02*
D03*
X7874762Y5404400D02*
D03*
X7994650D02*
D03*
X8114538D02*
D03*
X8116763Y5506340D02*
D03*
X8237220D02*
D03*
Y5404400D02*
D03*
X8356600Y5514340D02*
D03*
X8754660Y4803140D02*
D03*
X8867140D02*
D03*
X8754660Y4681220D02*
D03*
X8867140Y4559300D02*
D03*
Y4681220D02*
D03*
X8788360Y4206240D02*
D03*
X8754660Y4449892D02*
D03*
Y4561840D02*
D03*
X7785100Y3980180D02*
D03*
X7952740Y3937000D02*
D03*
X7833360Y4039320D02*
D03*
X7955280D02*
D03*
X8074025D02*
D03*
X8181340Y3934460D02*
D03*
X8074660D02*
D03*
X8288020D02*
D03*
X8529320Y3937000D02*
D03*
X8633460Y4006022D02*
D03*
X8054340Y5943600D02*
D03*
Y5877560D02*
D03*
Y5819140D02*
D03*
X8295640Y6022340D02*
D03*
Y5971540D02*
D03*
Y5918200D02*
D03*
X8173720Y6891020D02*
D03*
X8008620Y6959600D02*
D03*
X7528560Y5880820D02*
D03*
X7635240D02*
D03*
X7741920D02*
D03*
X7421880Y5773420D02*
D03*
X7741920D02*
D03*
X7635240D02*
D03*
X7528560D02*
D03*
X9125011Y5819140D02*
D03*
X7125418Y6073860D02*
D03*
Y5973362D02*
D03*
X7185658Y5920740D02*
D03*
Y6027420D02*
D03*
X7084060Y6344920D02*
D03*
X7185658Y6347460D02*
D03*
Y6667500D02*
D03*
X7544743Y6894660D02*
D03*
X7643960D02*
D03*
X7722700D02*
D03*
X7579360Y6834420D02*
D03*
X7688580D02*
D03*
X8195502Y6705600D02*
D03*
X8162847Y6385560D02*
D03*
Y6492240D02*
D03*
X8223087Y6549553D02*
D03*
X8222533Y6439453D02*
D03*
X9786620Y5882640D02*
D03*
Y5941060D02*
D03*
X9758680Y5821680D02*
D03*
X8834120Y5920740D02*
D03*
X8832632Y6027420D02*
D03*
X9387423Y5777865D02*
D03*
X10045696Y5930904D02*
D03*
Y5979164D02*
D03*
Y6022344D02*
D03*
X9494520Y5777865D02*
D03*
X9601200Y5850347D02*
D03*
X9915447Y6385560D02*
D03*
Y6492240D02*
D03*
X9977120Y6548120D02*
D03*
X9975133Y6436913D02*
D03*
X9334500Y6834420D02*
D03*
X9441180D02*
D03*
X8835172Y6667500D02*
D03*
X8938258D02*
D03*
X8830092Y6347460D02*
D03*
X8938258D02*
D03*
X9494520Y5880820D02*
D03*
X9272411Y6894971D02*
D03*
X9387840Y6894660D02*
D03*
X9948102Y6705600D02*
D03*
X10317480Y4556760D02*
D03*
X10205720D02*
D03*
X10261600D02*
D03*
Y5384800D02*
D03*
X10205720D02*
D03*
X10317480D02*
D03*
X8938258Y6027420D02*
D03*
Y5920740D02*
D03*
X9280083Y5880820D02*
D03*
X9387423D02*
D03*
X9240520Y3319780D02*
D03*
X9189720D02*
D03*
X9240520Y3268980D02*
D03*
X9189720D02*
D03*
X9240520Y3218180D02*
D03*
X9189720D02*
D03*
X6365240Y3416300D02*
D03*
D42*
X8257572Y8058901D02*
G03*
X8224520Y8107680I-143430J-61599D01*
G01*
X8270240Y7997302D02*
G03*
X8257572Y8058901I-156098J0D01*
G01*
X8067040Y8355029D02*
G03*
X8128286Y8207109I209249J0D01*
G01*
X7856214Y3334551D02*
G03*
X7860350Y3363132I-96686J28581D01*
G01*
X7830820Y3291840D02*
G03*
X7856214Y3334551I-71292J71292D01*
G01*
X7982821Y3266041D02*
G03*
X7982859Y3266079I-38176J38252D01*
G01*
X7944645Y3250250D02*
G03*
X7982821Y3266041I0J54042D01*
G01*
X7883210Y3289300D02*
G03*
X7889686Y3267763I39050J0D01*
G01*
D02*
G03*
X7922260Y3250250I32574J21537D01*
G01*
X7809414Y3325659D02*
G03*
X7837490Y3393440I-67781J67781D01*
G01*
X7741920Y3291840D02*
G03*
X7799407Y3315652I0J81299D01*
G01*
X7911090Y3305370D02*
G03*
X7922260Y3289300I50256J23016D01*
G01*
X7906070Y3328386D02*
G03*
X7911090Y3305370I55276J0D01*
G01*
X8042906Y3749040D02*
G03*
X7897655Y3688875I0J-205416D01*
G01*
X7897477Y3688697D02*
G03*
X7837490Y3543624I145429J-145073D01*
G01*
X7897655Y3688875D02*
G03*
X7897477Y3688697I145251J-145251D01*
G01*
X8042906Y3726180D02*
G03*
X7913820Y3672711I0J-182556D01*
G01*
X7913675Y3672566D02*
G03*
X7860350Y3543624I129232J-128942D01*
G01*
X7913820Y3672711D02*
G03*
X7913675Y3672566I129087J-129087D01*
G01*
X8042906Y3703320D02*
G03*
X7929999Y3656561I0J-159696D01*
G01*
X7929874Y3656436D02*
G03*
X7883210Y3543624I113032J-112812D01*
G01*
X7929999Y3656561D02*
G03*
X7929874Y3656436I112907J-112937D01*
G01*
X8042906Y3680460D02*
G03*
X7946148Y3640382I0J-136835D01*
G01*
X7946078Y3640311D02*
G03*
X7906070Y3543624I96828J-96687D01*
G01*
X7946148Y3640382D02*
G03*
X7946078Y3640311I96758J-96758D01*
G01*
X8826207Y3738121D02*
G03*
X8826524Y3738438I-139429J139747D01*
G01*
X8686778Y3680460D02*
G03*
X8826207Y3738121I0J197408D01*
G01*
X9019540Y3830320D02*
G03*
X8846988Y3758902I0J-244158D01*
G01*
X9014148Y3853180D02*
G03*
X8834543Y3778785I0J-254000D01*
G01*
X8810078Y3754320D02*
G03*
X8810325Y3754568I-123300J123547D01*
G01*
X8686778Y3703320D02*
G03*
X8810078Y3754320I0J174548D01*
G01*
X8793952Y3770523D02*
G03*
X8794118Y3770689I-107174J107345D01*
G01*
X8686778Y3726180D02*
G03*
X8793952Y3770523I0J151688D01*
G01*
X9004679Y3876040D02*
G03*
X8825074Y3801645I0J-254000D01*
G01*
X8777839Y3786739D02*
G03*
X8777873Y3786773I-91062J91128D01*
G01*
X8686778Y3749040D02*
G03*
X8777839Y3786739I0J128828D01*
G01*
X8995210Y3898900D02*
G03*
X8815605Y3824505I0J-254000D01*
G01*
X8846988Y3758902D02*
G03*
X8846894Y3758808I172552J-172740D01*
G01*
X9398000Y4151504D02*
G03*
X9399126Y4146355I12700J81D01*
G01*
X9406570Y4112375D02*
G03*
X9399126Y4146355I-81280J0D01*
G01*
X9375205Y4144931D02*
G03*
X9376630Y4140251I12635J1289D01*
G01*
X9375140Y4146140D02*
G03*
X9375205Y4144931I12700J81D01*
G01*
X9383710Y4112375D02*
G03*
X9376630Y4140251I-58420J0D01*
G01*
X9353583Y4134224D02*
G03*
X9354495Y4132662I11397J5605D01*
G01*
X9352280Y4139748D02*
G03*
X9353583Y4134224I12700J81D01*
G01*
X9360850Y4112375D02*
G03*
X9354495Y4132662I-35560J0D01*
G01*
X9329420Y4135528D02*
G03*
X9334943Y4120627I22860J0D01*
G01*
X9335342Y4120137D02*
G03*
X9334943Y4120627I-10052J-7762D01*
G01*
X9337990Y4112375D02*
G03*
X9335342Y4120137I-12700J0D01*
G01*
X9308273Y3887446D02*
G03*
X9308359Y3887533I-138037J138210D01*
G01*
X9170236Y3830320D02*
G03*
X9308273Y3887446I0J195336D01*
G01*
X9156011Y3853180D02*
G03*
X9288409Y3901113I0J206818D01*
G01*
X9286031Y3929862D02*
G03*
X9286147Y3929978I-130020J130136D01*
G01*
X9156011Y3876040D02*
G03*
X9286031Y3929862I0J183958D01*
G01*
X9156011Y3898900D02*
G03*
X9269925Y3946085I0J161098D01*
G01*
X9365711Y3944884D02*
G03*
X9406570Y4043680I-99013J98796D01*
G01*
X9365572Y3944745D02*
G03*
X9365711Y3944884I-98874J98935D01*
G01*
X9349510Y3961012D02*
G03*
X9383710Y4043680I-82812J82668D01*
G01*
X9349478Y3960980D02*
G03*
X9349510Y3961012I-82780J82700D01*
G01*
X9333306Y3977137D02*
G03*
X9360850Y4043680I-66608J66543D01*
G01*
X9317109Y3993269D02*
G03*
X9337990Y4043680I-50411J50411D01*
G01*
X9398000Y4908482D02*
G03*
X9339630Y5049470I-199458J0D01*
G01*
X9159208Y5115718D02*
G03*
X9157167Y5115809I-2041J-22769D01*
G01*
X9299920Y5082140D02*
G03*
X9185549Y5115560I-114386J-179046D01*
G01*
X9335580Y5053520D02*
G03*
X9299920Y5082140I-150046J-150426D01*
G01*
X9335960Y5053140D02*
G03*
X9335580Y5053520I-150426J-150046D01*
G01*
X9336088Y5053012D02*
G03*
X9335960Y5053140I-150554J-149918D01*
G01*
X9339630Y5049470D02*
G03*
X9339580Y5049520I-141088J-140988D01*
G01*
X9319448Y5037323D02*
G03*
X9185534Y5092700I-133914J-134229D01*
G01*
X9319763Y5037008D02*
G03*
X9319481Y5037290I-134229J-133914D01*
G01*
X9375140Y4903094D02*
G03*
X9319763Y5037008I-189606J0D01*
G01*
X9303316Y5021126D02*
G03*
X9185534Y5069840I-117782J-118032D01*
G01*
X9303440Y5021002D02*
G03*
X9303316Y5021126I-117906J-117908D01*
G01*
X9305003Y5019418D02*
G03*
X9303440Y5021002I-119469J-116324D01*
G01*
X9352280Y4903094D02*
G03*
X9305003Y5019418I-166746J0D01*
G01*
X9287191Y5004923D02*
G03*
X9185534Y5046980I-101657J-101828D01*
G01*
X9287363Y5004751D02*
G03*
X9287277Y5004837I-101828J-101657D01*
G01*
X9329420Y4903094D02*
G03*
X9287363Y5004751I-143886J0D01*
G01*
X9159208Y5115718D02*
G03*
X9159989Y5115677I1049J12657D01*
G01*
X9319481Y5037290D02*
G03*
X9319448Y5037323I-133947J-134196D01*
G01*
X9156829Y5069842D02*
G03*
X9157071Y5069840I242J12698D01*
G01*
X9287277Y5004837D02*
G03*
X9287191Y5004923I-101742J-101742D01*
G01*
X8608406Y5115809D02*
G03*
X8516419Y5077726I0J-130135D01*
G01*
X8608406Y5092949D02*
G03*
X8532551Y5061529I0J-107275D01*
G01*
X8546206Y5042855D02*
G03*
X8546175Y5042824I65792J-65854D01*
G01*
X8611998Y5070089D02*
G03*
X8546206Y5042855I0J-93087D01*
G01*
X8615680Y5047229D02*
G03*
X8599870Y5043885I0J-39050D01*
G01*
X8616283Y5047224D02*
G03*
X8615680Y5047229I-603J-39045D01*
G01*
X8583776Y5036759D02*
G03*
X8547698Y5012018I48328J-109147D01*
G01*
X8445219Y4909539D02*
G03*
X8445245Y4909565I-60679J60730D01*
G01*
X8399950Y4885814D02*
G03*
X8445219Y4909539I-15410J84455D01*
G01*
X8333454Y4876800D02*
G03*
X8367905Y4879936I0J190787D01*
G01*
X8452121Y4948770D02*
G03*
X8452196Y4948845I-118668J118816D01*
G01*
X8333454Y4899660D02*
G03*
X8452121Y4948770I0J167927D01*
G01*
X8441051Y4970029D02*
G03*
X8441171Y4970149I-114782J114901D01*
G01*
X8326270Y4922520D02*
G03*
X8441051Y4970029I0J162411D01*
G01*
X8326270Y4945380D02*
G03*
X8424947Y4986253I0J139551D01*
G01*
X7764420Y4881880D02*
G03*
X7770552Y4879340I6132J6132D01*
G01*
X8095235D02*
G03*
X8138160Y4897120I0J60705D01*
G01*
X8198169Y4922520D02*
G03*
X8139088Y4898048I0J-83554D01*
G01*
X8172087Y4945380D02*
G03*
X8143766Y4933672I0J-40108D01*
G01*
X8143686Y4933593D02*
G03*
X8143726Y4933633I-28321J28401D01*
G01*
X8115365Y4921885D02*
G03*
X8143686Y4933593I0J40108D01*
G01*
X8143766Y4933672D02*
G03*
X8143726Y4933633I28321J-28401D01*
G01*
X8075766Y4841875D02*
G03*
X8145519Y4870768I0J98645D01*
G01*
X8215271Y4899660D02*
G03*
X8145519Y4870768I0J-98645D01*
G01*
X8085235Y4819015D02*
G03*
X8154988Y4847908I0J98645D01*
G01*
X8224740Y4876800D02*
G03*
X8154988Y4847908I0J-98645D01*
G01*
X7774399Y4810085D02*
G03*
X7762240Y4800600I32298J-53942D01*
G01*
X7806698Y4819015D02*
G03*
X7774399Y4810085I0J-62873D01*
G01*
X8186473Y8653780D02*
G03*
X8134385Y8632225I0J-73713D01*
G01*
X8134315Y8632155D02*
G03*
X8112760Y8580067I52157J-52088D01*
G01*
X8134350Y8632190D02*
G03*
X8134315Y8632155I52123J-52123D01*
G01*
X8134385Y8632225D02*
G03*
X8134350Y8632190I52088J-52157D01*
G01*
X8089919Y8611517D02*
G03*
X8089900Y8610600I22841J-917D01*
G01*
X8067040Y8503844D02*
G03*
X8033540Y8584720I-114376J0D01*
G01*
X8044180Y8502816D02*
G03*
X8016648Y8569285I-94001J0D01*
G01*
X7989116Y8596817D02*
G03*
X7945870Y8614730I-43246J-43246D01*
G01*
X7834082Y8650518D02*
G03*
X7920536Y8614730I86454J86532D01*
G01*
X7834043Y8650556D02*
G03*
X7834082Y8650518I86493J86493D01*
G01*
X8044180Y8333463D02*
G03*
X8114030Y8164830I238483J0D01*
G01*
X8089900Y8394115D02*
G03*
X8155940Y8234680I225475J0D01*
G01*
X8112760Y8441490D02*
G03*
X8187155Y8261885I254000J0D01*
G01*
X8315960Y8061238D02*
G03*
X8265160Y8183880I-173442J0D01*
G01*
X8249629Y8142876D02*
G03*
X8249593Y8142913I-27649J-27576D01*
G01*
X8253085Y8138909D02*
G03*
X8249629Y8142876I-31105J-23609D01*
G01*
X8293100Y8032915D02*
G03*
X8292313Y8045765I-105245J0D01*
G01*
X8291827Y8049710D02*
G03*
X8258487Y8131791I-168845J-20770D01*
G01*
X8183974Y8094886D02*
G03*
X8183880Y8094980I-153397J-153208D01*
G01*
X8247380Y7941678D02*
G03*
X8183974Y8094886I-216802J0D01*
G01*
X8299085Y6963217D02*
G03*
X8298864Y6963462I-9531J-8394D01*
G01*
X8247380Y7094290D02*
G03*
X8298551Y6963799I191966J0D01*
G01*
X8346440Y6855460D02*
G03*
X8303833Y6958321I-145468J0D01*
G01*
X8318523Y6941148D02*
G03*
X8318466Y6941213I-9530J-8394D01*
G01*
X8369300Y6855460D02*
G03*
X8320039Y6974445I-168328J0D01*
G01*
X8270240Y7094290D02*
G03*
X8319770Y6974714I169106J0D01*
G01*
X8342690Y6984123D02*
G03*
X8342630Y6984183I-101240J-101120D01*
G01*
X8293100Y7103759D02*
G03*
X8342630Y6984183I169106J0D01*
G01*
X8358849Y7000292D02*
G03*
X8358898Y7000244I103710J103613D01*
G01*
X8358713Y7000429D02*
G03*
X8358849Y7000292I103847J103476D01*
G01*
X8315960Y7103905D02*
G03*
X8358713Y7000429I146599J0D01*
G01*
X8415020Y6855460D02*
G03*
X8397172Y6941030I-214048J0D01*
G01*
X8393719Y6948985D02*
G03*
X8358898Y7000244I-152268J-65982D01*
G01*
X8392160Y6855460D02*
G03*
X8376349Y6931591I-191188J0D01*
G01*
X8372706Y6939981D02*
G03*
X8342690Y6984123I-131256J-56978D01*
G01*
X8319957Y6974527D02*
G03*
X8319770Y6974714I-118985J-119067D01*
G01*
X8320039Y6974445D02*
G03*
X8319957Y6974527I-119067J-118985D01*
G01*
X8362044Y6177177D02*
G03*
X8415020Y6305257I-128341J128080D01*
G01*
X8361907Y6177040D02*
G03*
X8362044Y6177177I-128204J128217D01*
G01*
X8341014Y6188477D02*
G03*
X8341106Y6188568I-123477J123477D01*
G01*
X8345842Y6193304D02*
G03*
X8392160Y6305257I-112139J111954D01*
G01*
X8345669Y6193131D02*
G03*
X8345842Y6193304I-111966J112127D01*
G01*
X8329629Y6209420D02*
G03*
X8369300Y6305257I-95926J95837D01*
G01*
X8329584Y6209375D02*
G03*
X8329629Y6209420I-95882J95882D01*
G01*
X8313420Y6225540D02*
G03*
X8346440Y6305257I-79717J79717D01*
G01*
X8305961Y6121094D02*
G03*
X8306033Y6121167I-119048J119194D01*
G01*
X8186913Y6071825D02*
G03*
X8305961Y6121094I0J168462D01*
G01*
X8289780Y6137243D02*
G03*
X8289869Y6137331I-102867J103044D01*
G01*
X8186913Y6094685D02*
G03*
X8289780Y6137243I0J145601D01*
G01*
X8273663Y6153454D02*
G03*
X8273704Y6153495I-86750J86832D01*
G01*
X8186913Y6117545D02*
G03*
X8273663Y6153454I0J122741D01*
G01*
X8193670Y6156595D02*
G03*
X8280400Y6192520I0J122655D01*
G01*
X7743344Y6121452D02*
G03*
X7743279Y6121387I84936J-85066D01*
G01*
X7828280Y6156595D02*
G03*
X7743344Y6121452I0J-120210D01*
G01*
X7921545Y6094685D02*
G03*
X7869226Y6073014I0J-73990D01*
G01*
X7792344Y6028474D02*
G03*
X7737132Y6005605I0J-78081D01*
G01*
X7792344Y6028474D02*
G03*
X7847555Y6051343I0J78081D01*
G01*
X7899322Y6047886D02*
G03*
X7899288Y6047852I57843J-57911D01*
G01*
X7957165Y6071825D02*
G03*
X7899322Y6047886I0J-81851D01*
G01*
X8128286Y8207109D02*
X8221980Y8113415D01*
X8270240Y7094290D02*
Y7997302D01*
X7860350Y3363132D02*
Y3543624D01*
X7883210Y3289300D02*
Y3543624D01*
X7922260Y3250250D02*
X7944645D01*
X7982859Y3266079D02*
X8006080Y3289300D01*
X7799407Y3315652D02*
X7809414Y3325659D01*
X7837490Y3393440D02*
Y3543624D01*
X7906070Y3328386D02*
Y3543624D01*
X8042906Y3749040D02*
X8686778D01*
X8042906Y3726180D02*
X8686778D01*
X8042906Y3703320D02*
X8686778D01*
X8042906Y3680460D02*
X8686778D01*
X8826524Y3738438D02*
X8826525Y3738438D01*
X8846894Y3758808D01*
X8810325Y3754568D02*
X8834543Y3778785D01*
X8794118Y3770689D02*
X8825074Y3801645D01*
X8777873Y3786773D02*
X8815605Y3824505D01*
X8995210Y3898900D02*
X9156011D01*
X9004679Y3876040D02*
X9156011D01*
X9014148Y3853180D02*
X9156011D01*
X9019540Y3830320D02*
X9170236D01*
X9406570Y4043680D02*
Y4112375D01*
X9398000Y4151504D02*
Y4908482D01*
Y4151504D02*
Y4151504D01*
X9375140Y4146140D02*
Y4146140D01*
Y4903094D01*
X9383710Y4043680D02*
Y4112375D01*
X9352280Y4139748D02*
Y4139749D01*
Y4903094D01*
X9360850Y4043680D02*
Y4112375D01*
X9337990Y4043680D02*
Y4112375D01*
X9329420Y4135528D02*
Y4903094D01*
X9308359Y3887533D02*
X9365572Y3944745D01*
X9288420Y3901122D02*
X9295578Y3907080D01*
X9288409Y3901113D02*
X9288420Y3901122D01*
X9295578Y3907080D02*
X9349478Y3960980D01*
X9286147Y3929978D02*
X9333306Y3977137D01*
X9269925Y3946085D02*
X9317109Y3993269D01*
X8608406Y5115809D02*
X9157167D01*
X9159989Y5115677D02*
X9167359Y5115561D01*
X9182517Y5115560D02*
X9185549Y5115560D01*
X9167374Y5115561D02*
X9182517Y5115560D01*
X9167359Y5115561D02*
X9167374D01*
X9336088Y5053012D02*
X9339580Y5049520D01*
X8608406Y5092949D02*
X9157167D01*
Y5092700D02*
X9185534D01*
X9157071Y5069840D02*
X9185534D01*
X9144000Y5070089D02*
X9156829Y5069842D01*
X8611998Y5070089D02*
X9144000D01*
X8632104Y5046980D02*
X9185534D01*
X8424947Y4986253D02*
X8516419Y5077726D01*
X8441171Y4970149D02*
X8532551Y5061529D01*
X8452196Y4948845D02*
X8546175Y5042824D01*
X8445245Y4909565D02*
X8547698Y5012018D01*
X8583776Y5036759D02*
X8599870Y5043885D01*
X8616283Y5047224D02*
X8632104Y5046980D01*
X8367905Y4879936D02*
X8399950Y4885814D01*
X8224740Y4876800D02*
X8333454D01*
X8215271Y4899660D02*
X8333454D01*
X8441171Y4970149D02*
X8441171Y4970149D01*
X8198169Y4922520D02*
X8326270D01*
X8172087Y4945380D02*
X8326270D01*
X7770552Y4879340D02*
X8095235D01*
X8138160Y4897120D02*
X8139088Y4898048D01*
X7680777Y4921885D02*
X8115365D01*
X7806698Y4819015D02*
X8085235D01*
X7680777Y4841875D02*
X8075766D01*
X8112760Y8441490D02*
Y8580067D01*
X8186473Y8653780D02*
X8218480D01*
X8089918Y8611517D02*
X8091480Y8652510D01*
X8089900Y8394115D02*
Y8610600D01*
X8067040Y8355029D02*
Y8503844D01*
X7964480Y8653780D02*
X8033540Y8584720D01*
X8044180Y8333463D02*
Y8502816D01*
X7989116Y8596817D02*
X8016648Y8569285D01*
X7920536Y8614730D02*
X7945870D01*
X7830820Y8653780D02*
X7834044Y8650556D01*
X8114030Y8164830D02*
X8183880Y8094980D01*
X8155940Y8234680D02*
X8221980Y8168640D01*
X8187155Y8261885D02*
X8265160Y8183880D01*
X8315960Y7538720D02*
Y8061238D01*
X8223865Y8168640D02*
X8241972Y8150533D01*
X8293100Y7103759D02*
Y8032915D01*
X8291827Y8049710D02*
X8292313Y8045765D01*
X8241972Y8150533D02*
X8249592Y8142912D01*
X8253085Y8138909D02*
X8258487Y8131791D01*
X8247380Y7668455D02*
Y7941678D01*
X8300175Y6961980D02*
X8303833Y6958322D01*
X8298551Y6963799D02*
X8298864Y6963462D01*
X8299085Y6963217D02*
X8300175Y6961980D01*
X8318466Y6941213D01*
X8247380Y7094290D02*
Y7663180D01*
X8315960Y7103905D02*
Y7538720D01*
X8415020Y6305257D02*
Y6855460D01*
X8393719Y6948985D02*
X8397172Y6941030D01*
X8392160Y6305257D02*
Y6855460D01*
X8372706Y6939981D02*
X8376348Y6931591D01*
X8369300Y6305257D02*
Y6855460D01*
X8346440Y6305257D02*
Y6855460D01*
X8306033Y6121167D02*
X8361907Y6177040D01*
X8289869Y6137331D02*
X8341014Y6188477D01*
X8341106Y6188568D02*
X8345669Y6193131D01*
X8341106Y6188568D02*
X8341106Y6188568D01*
X8273704Y6153495D02*
X8329584Y6209375D01*
X8280400Y6192520D02*
X8313420Y6225540D01*
X7957165Y6071825D02*
X8186913D01*
X7921545Y6094685D02*
X8186913D01*
X7854795Y6117545D02*
X8186913D01*
X7828280Y6156595D02*
X8193670D01*
X7737257Y6115364D02*
X7743279Y6121387D01*
X7847555Y6051343D02*
X7869226Y6073014D01*
X7708696Y5977168D02*
X7737132Y6005605D01*
X7844353Y5992917D02*
X7899288Y6047852D01*
X8315960Y7538720D02*
X8351520D01*
X8221980Y8168640D02*
X8223865D01*
%TF.MD5,b5f79e7973b63e7ba3e7e9adc12df500*%
M02*
