%TF.GenerationSoftware,Altium Limited,Altium Designer,24.0.1 (36)*%
G04 Layer_Color=32896*
%FSLAX45Y45*%
%MOMM*%
%TF.SameCoordinates,DB20E3DF-1D37-4F49-95B0-90F2ADAE02A5*%
%TF.FilePolarity,Positive*%
%TF.FileFunction,Legend,Bot*%
%TF.Part,Single*%
G01*
G75*
%TA.AperFunction,NonConductor*%
%ADD66C,0.25000*%
%ADD67C,0.20000*%
%ADD68C,0.25400*%
%ADD69C,0.50000*%
%ADD70C,0.20320*%
%ADD71C,0.15240*%
%ADD74C,0.30000*%
%ADD75C,0.15000*%
D66*
X9984540Y4203800D02*
G03*
X9984540Y4203800I-12500J0D01*
G01*
X9751140Y5977620D02*
G03*
X9751140Y5977620I-12500J0D01*
G01*
X7998540D02*
G03*
X7998540Y5977620I-12500J0D01*
G01*
X9395260Y3713380D02*
G03*
X9395260Y3713380I-12500J0D01*
G01*
X9984540Y5031840D02*
G03*
X9984540Y5031840I-12500J0D01*
G01*
D67*
X8477060Y7663180D02*
Y7967980D01*
X7977060Y7663180D02*
X8477060D01*
X7977060Y7967980D02*
X8477060D01*
X9650540Y7663180D02*
Y7967980D01*
X9150540Y7663180D02*
X9650540D01*
X9150540Y7967980D02*
X9650540D01*
X7721600Y3229800D02*
Y3729800D01*
X8026400Y3229800D02*
Y3729800D01*
X7721600Y3229800D02*
X8026400D01*
X10187940Y4213800D02*
Y4523800D01*
X10087140Y4213800D02*
Y4523800D01*
X10187940D01*
X10087140Y4213800D02*
X10187940D01*
X9123640Y6042620D02*
Y6087620D01*
Y6042620D02*
X9168640D01*
X9123640Y6627620D02*
Y6672620D01*
X9168640D01*
X9708640D02*
X9753640D01*
Y6627620D02*
Y6672620D01*
Y6042620D02*
Y6087620D01*
X9708640Y6042620D02*
X9753640D01*
X8494649Y5191861D02*
X8544662Y5191862D01*
X8544661Y5141849D02*
X8544662Y5191862D01*
X8544661Y4301871D02*
X8544662Y4251858D01*
X8494649Y4251859D02*
X8544662Y4251858D01*
X7604658Y5191862D02*
X7654671Y5191861D01*
X7604658Y5191862D02*
X7604659Y5141849D01*
X7604658Y4251858D02*
X7604659Y4301871D01*
X7604658Y4251858D02*
X7654671Y4251859D01*
X9229189Y6903614D02*
X9310012Y6984437D01*
X9229189Y7065259D02*
X9308216Y6986233D01*
X7956040Y6042620D02*
X8001040D01*
Y6087620D01*
Y6627620D02*
Y6672620D01*
X7956040D02*
X8001040D01*
X7371040D02*
X7416040D01*
X7371040Y6627620D02*
Y6672620D01*
Y6042620D02*
X7416040D01*
X7371040D02*
Y6087620D01*
X7476589Y7065259D02*
X7555616Y6986233D01*
X7476589Y6903614D02*
X7557412Y6984437D01*
X9166860Y3703380D02*
X9267660D01*
X9166860Y3393380D02*
X9267660D01*
Y3703380D01*
X9166860Y3393380D02*
Y3703380D01*
X10087140Y5041840D02*
X10187940D01*
X10087140Y5351840D02*
X10187940D01*
X10087140Y5041840D02*
Y5351840D01*
X10187940Y5041840D02*
Y5351840D01*
X8832949Y3750559D02*
X8911976Y3671533D01*
X8832949Y3588914D02*
X8913772Y3669737D01*
D68*
X8592820Y8685530D02*
Y8710930D01*
X8605520Y8698230D01*
X8592820Y8685530D02*
X8618220D01*
X8599170Y8704580D02*
X8618220Y8685530D01*
X8605520D02*
Y8698230D01*
X9875520Y8682990D02*
Y8708390D01*
X9888220Y8695690D01*
X9875520Y8682990D02*
X9900920D01*
X9881870Y8702040D02*
X9900920Y8682990D01*
X9888220D02*
Y8695690D01*
X6286500Y3413759D02*
Y3426459D01*
Y3413759D02*
X6362700D01*
X6565900Y3401059D02*
X6642100D01*
Y3426459D01*
X6286500Y3855488D02*
Y3870959D01*
X6362700D01*
X6565900D02*
X6642100D01*
Y3858259D02*
Y3870959D01*
D69*
X7937710Y8069580D02*
G03*
X7937710Y8069580I-15450J0D01*
G01*
X9111190D02*
G03*
X9111190Y8069580I-15450J0D01*
G01*
X8143450Y3784600D02*
G03*
X8143450Y3784600I-15450J0D01*
G01*
D70*
X7977060Y7764780D02*
G03*
X8027860Y7815580I0J50800D01*
G01*
X8027860D02*
G03*
X7977060Y7866380I-50800J0D01*
G01*
X9150540Y7764780D02*
G03*
X9201340Y7815580I0J50800D01*
G01*
X9201340D02*
G03*
X9150540Y7866380I-50800J0D01*
G01*
X7874000Y3679000D02*
G03*
X7924800Y3729800I0J50800D01*
G01*
X7823200D02*
G03*
X7874000Y3679000I50800J0D01*
G01*
X399166Y6602580D02*
Y6726980D01*
Y6803180D02*
Y6955080D01*
X569166Y6803180D02*
Y6955080D01*
Y6602580D02*
Y6726980D01*
X399166Y6602580D02*
X569166D01*
X399166Y6955080D02*
X569166D01*
X399166Y6927580D02*
X566666D01*
X7977060Y7663180D02*
Y7764780D01*
Y7866380D02*
Y7967980D01*
X9150540Y7663180D02*
Y7764780D01*
Y7866380D02*
Y7967980D01*
X7924800Y3729800D02*
X8026400D01*
X7721600D02*
X7823200D01*
X9996108Y3495024D02*
X10128008D01*
X10204208D02*
X10336108D01*
X10204208Y3312160D02*
X10336108D01*
X9996108D02*
X10128008D01*
X9996108D02*
Y3495040D01*
X10336108Y3312160D02*
Y3495040D01*
X9996108Y3784584D02*
X10128008D01*
X10204208D02*
X10336108D01*
X10204208Y3601720D02*
X10336108D01*
X9996108D02*
X10128008D01*
X9996108D02*
Y3784600D01*
X10336108Y3601720D02*
Y3784600D01*
X9019720Y3362952D02*
X9151620D01*
X9227820D02*
X9359720D01*
X9227820Y3180088D02*
X9359720D01*
X9019720D02*
X9151620D01*
X9019720D02*
Y3362968D01*
X9359720Y3180088D02*
Y3362968D01*
X9226792Y5250196D02*
X9358692D01*
X9018692D02*
X9150592D01*
X9018692Y5433060D02*
X9150592D01*
X9226792D02*
X9358692D01*
Y5250180D02*
Y5433060D01*
X9018692Y5250180D02*
Y5433060D01*
X9226792Y4132596D02*
X9358692D01*
X9018692D02*
X9150592D01*
X9018692Y4315460D02*
X9150592D01*
X9226792D02*
X9358692D01*
Y4132580D02*
Y4315460D01*
X9018692Y4132580D02*
Y4315460D01*
X9226792Y4422156D02*
X9358692D01*
X9018692D02*
X9150592D01*
X9018692Y4605020D02*
X9150592D01*
X9226792D02*
X9358692D01*
Y4422140D02*
Y4605020D01*
X9018692Y4422140D02*
Y4605020D01*
X10203180Y4554228D02*
X10335080D01*
X9995080D02*
X10126980D01*
X9995080Y4737092D02*
X10126980D01*
X10203180D02*
X10335080D01*
Y4554212D02*
Y4737092D01*
X9995080Y4554212D02*
Y4737092D01*
X9226792Y4960636D02*
X9358692D01*
X9018692D02*
X9150592D01*
X9018692Y5143500D02*
X9150592D01*
X9226792D02*
X9358692D01*
Y4960620D02*
Y5143500D01*
X9018692Y4960620D02*
Y5143500D01*
X10203180Y5382268D02*
X10335080D01*
X9995080D02*
X10126980D01*
X9995080Y5565132D02*
X10126980D01*
X10203180D02*
X10335080D01*
Y5382252D02*
Y5565132D01*
X9995080Y5382252D02*
Y5565132D01*
X399166Y4113310D02*
X566666D01*
X399166Y4140810D02*
X569166D01*
X399166Y3788310D02*
X569166D01*
Y3912710D01*
Y3988910D02*
Y4140810D01*
X399166Y3988910D02*
Y4140810D01*
Y3788310D02*
Y3912710D01*
X569166Y4611449D02*
Y4735849D01*
Y4383349D02*
Y4535249D01*
X399166Y4383349D02*
Y4535249D01*
Y4611449D02*
Y4735849D01*
X569166D01*
X399166Y4383349D02*
X569166D01*
X401666Y4410849D02*
X569166D01*
Y7425719D02*
Y7550119D01*
Y7197619D02*
Y7349519D01*
X399166Y7197619D02*
Y7349519D01*
Y7425719D02*
Y7550119D01*
X569166D01*
X399166Y7197619D02*
X569166D01*
X401666Y7225119D02*
X569166D01*
D71*
X7376160Y3560261D02*
Y3735261D01*
X7467600Y3560261D02*
Y3735261D01*
X7376160D02*
X7467600D01*
X7376160Y3560261D02*
X7467600D01*
X8354060Y3353879D02*
Y3528879D01*
X8262620Y3353879D02*
X8354060D01*
X8262620Y3528879D02*
X8354060D01*
X8262620Y3353879D02*
Y3528879D01*
X8591400Y5374378D02*
X8633513Y5416491D01*
X8673026Y5456004D02*
X8715139Y5498117D01*
X8591397Y5374374D02*
X8656054Y5309717D01*
X8656058Y5309720D02*
X8698171Y5351833D01*
X8715140Y5498118D02*
X8779798Y5433460D01*
X8737684Y5391346D02*
X8779798Y5433460D01*
X9220200Y5893522D02*
Y5953078D01*
X9128760Y5953084D02*
X9220200D01*
Y5778085D02*
Y5837642D01*
X9128760Y5778084D02*
X9220200D01*
X9128760Y5893522D02*
Y5953078D01*
Y5778084D02*
Y5837642D01*
X6610222Y6743700D02*
Y6835140D01*
X6435222Y6743700D02*
Y6835140D01*
X6494780D01*
X6550660Y6743700D02*
X6610216D01*
X6435224D02*
X6494780D01*
X6550660Y6835140D02*
X6610216D01*
X7840980Y6877598D02*
Y6937156D01*
X7749540D02*
X7840980D01*
Y6762162D02*
Y6821718D01*
X7749540Y6762156D02*
X7840980D01*
X7749540Y6877598D02*
Y6937155D01*
Y6762162D02*
Y6821718D01*
X7696200Y5953084D02*
X7787640D01*
X7696200Y5893522D02*
Y5953078D01*
X7787640Y5893522D02*
Y5953078D01*
X7696200Y5778084D02*
Y5837642D01*
Y5778084D02*
X7787640D01*
Y5778085D02*
Y5837642D01*
X7257922Y6195060D02*
Y6286500D01*
X7082922Y6195060D02*
Y6286500D01*
X7142480D01*
X7198360Y6195060D02*
X7257916D01*
X7082924D02*
X7142480D01*
X7198360Y6286500D02*
X7257916D01*
X8950960Y6301740D02*
X9010516D01*
X9010522D02*
Y6393180D01*
X8835524Y6301740D02*
X8895080D01*
X8835522D02*
Y6393180D01*
X8950960D02*
X9010516D01*
X8835522D02*
X8895080D01*
X9010522Y6195060D02*
Y6286500D01*
X8950960D02*
X9010516D01*
X8950960Y6195060D02*
X9010516D01*
X8835522Y6286500D02*
X8895080D01*
X8835522Y6195060D02*
Y6286500D01*
X8835524Y6195060D02*
X8895080D01*
X9010522Y6088380D02*
Y6179820D01*
X8950960D02*
X9010516D01*
X8950960Y6088380D02*
X9010516D01*
X8835522Y6179820D02*
X8895080D01*
X8835522Y6088380D02*
Y6179820D01*
X8835524Y6088380D02*
X8895080D01*
X9281288Y7039595D02*
X9323402Y6997481D01*
X9388059Y7062138D01*
X9199662Y7121220D02*
X9241775Y7079108D01*
X9199658Y7121224D02*
X9264316Y7185882D01*
X9345945Y7104252D02*
X9388058Y7062140D01*
X9264320Y7185878D02*
X9306432Y7143765D01*
X8839605Y6747217D02*
X8904263Y6811875D01*
X8715862Y6870961D02*
X8780519Y6935618D01*
X8822633Y6893504D01*
X8797489Y6789333D02*
X8839602Y6747221D01*
X8715863Y6870959D02*
X8757976Y6828847D01*
X8862147Y6853991D02*
X8904259Y6811878D01*
X8950960Y5875020D02*
X9010516D01*
X9010522D02*
Y5966460D01*
X8835524Y5875020D02*
X8895080D01*
X8835522D02*
Y5966460D01*
X8950960D02*
X9010516D01*
X8835522D02*
X8895080D01*
X8950960Y5981700D02*
X9010516D01*
X9010522D02*
Y6073140D01*
X8835524Y5981700D02*
X8895080D01*
X8835522D02*
Y6073140D01*
X8950960D02*
X9010516D01*
X8835522D02*
X8895080D01*
X8835522Y6515100D02*
Y6606540D01*
X8835527D02*
X8895084D01*
X8835527Y6515100D02*
X8895084D01*
X8950964Y6606540D02*
X9010520D01*
X9010522Y6515100D02*
Y6606540D01*
X8950964Y6515100D02*
X9010522D01*
X8835522Y6408420D02*
Y6499860D01*
X8835527D02*
X8895084D01*
X8835527Y6408420D02*
X8895084D01*
X8950964Y6499860D02*
X9010520D01*
X9010522Y6408420D02*
Y6499860D01*
X8950964Y6408420D02*
X9010522D01*
X9593580Y6877598D02*
Y6937156D01*
X9502140D02*
X9593580D01*
Y6762162D02*
Y6821718D01*
X9502140Y6762156D02*
X9593580D01*
X9502140Y6877598D02*
Y6937155D01*
Y6762162D02*
Y6821718D01*
X9395460Y6762156D02*
X9486900D01*
Y6762162D02*
Y6821718D01*
X9395460Y6762162D02*
Y6821718D01*
X9486900Y6877598D02*
Y6937156D01*
X9395460D02*
X9486900D01*
X9395460Y6877598D02*
Y6937155D01*
X9288780Y6762156D02*
X9380220D01*
Y6762162D02*
Y6821718D01*
X9288780Y6762162D02*
Y6821718D01*
X9380220Y6877598D02*
Y6937156D01*
X9288780D02*
X9380220D01*
X9288780Y6877598D02*
Y6937155D01*
X9700260Y6877598D02*
Y6937156D01*
X9608820D02*
X9700260D01*
Y6762162D02*
Y6821718D01*
X9608820Y6762156D02*
X9700260D01*
X9608820Y6877598D02*
Y6937155D01*
Y6762162D02*
Y6821718D01*
X9806940Y6762156D02*
Y6937156D01*
X9715500D02*
X9806940D01*
X9715500Y6762156D02*
X9806940D01*
X9715500D02*
Y6937156D01*
X9822180Y6762156D02*
X9913620D01*
Y6937156D01*
X9822180Y6762156D02*
Y6937156D01*
X9913620D01*
X7511720Y7185878D02*
X7553832Y7143765D01*
X7593345Y7104252D02*
X7635458Y7062140D01*
X7447058Y7121224D02*
X7511716Y7185882D01*
X7447062Y7121220D02*
X7489175Y7079108D01*
X7570802Y6997481D02*
X7635459Y7062138D01*
X7528688Y7039595D02*
X7570802Y6997481D01*
X7642860Y6762162D02*
Y6821718D01*
Y6877598D02*
Y6937155D01*
Y6762156D02*
X7734300D01*
Y6762162D02*
Y6821718D01*
X7642860Y6937156D02*
X7734300D01*
Y6877598D02*
Y6937156D01*
X7962900Y6762156D02*
Y6937156D01*
Y6762156D02*
X8054340D01*
X7962900Y6937156D02*
X8054340D01*
Y6762156D02*
Y6937156D01*
X7856220Y6762162D02*
Y6821718D01*
Y6877598D02*
Y6937155D01*
Y6762156D02*
X7947660D01*
Y6762162D02*
Y6821718D01*
X7856220Y6937156D02*
X7947660D01*
Y6877598D02*
Y6937156D01*
X7198360Y6621780D02*
X7257916D01*
X7082924D02*
X7142480D01*
X7257922D02*
Y6713220D01*
X7198360D02*
X7257916D01*
X7082922Y6621780D02*
Y6713220D01*
X7142480D01*
X8091280Y5801360D02*
X8192880D01*
X8203040Y5869940D02*
X8215740D01*
X8091280Y5801360D02*
Y5938520D01*
X8192880D01*
X8215740Y5844540D02*
Y5895340D01*
X8236060Y5844540D02*
Y5895340D01*
X8258920Y5801360D02*
X8360520D01*
X8236060Y5869940D02*
X8248760D01*
X8360520Y5801360D02*
Y5938520D01*
X8258920D02*
X8360520D01*
X7627620Y6762162D02*
Y6821718D01*
X7536180Y6762156D02*
X7627620D01*
X7536180Y6762162D02*
Y6821718D01*
X7627620Y6877598D02*
Y6937156D01*
X7536180Y6877598D02*
Y6937155D01*
Y6937156D02*
X7627620D01*
X8617699Y6430927D02*
X8729081D01*
Y5955688D02*
Y6430927D01*
X8617699Y5955688D02*
X8729081D01*
X8283839Y6430927D02*
X8395221D01*
X8283839Y5955688D02*
Y6430927D01*
Y5955688D02*
X8395221D01*
X7198360Y5966460D02*
X7257916D01*
X7257922Y5875020D02*
Y5966460D01*
X7198360Y5875020D02*
X7257916D01*
X7082922Y5966460D02*
X7142480D01*
X7082924Y5875020D02*
X7142480D01*
X7082922D02*
Y5966460D01*
X8090589Y6169660D02*
X8150145D01*
X8090584D02*
Y6261100D01*
X8090589D02*
X8150145D01*
X8206025Y6169660D02*
X8265583D01*
X8206025Y6261100D02*
X8265582D01*
X8265583Y6169660D02*
Y6261100D01*
X7894320Y5893525D02*
Y5953084D01*
Y5778089D02*
Y5837645D01*
X7802880Y5953084D02*
X7894320D01*
X7802880Y5893525D02*
Y5953082D01*
Y5778084D02*
X7894320D01*
X7802880Y5778089D02*
Y5837645D01*
X7907999Y5778084D02*
Y5953084D01*
Y5778084D02*
X7999439D01*
X7907999Y5953084D02*
X7999439D01*
Y5778084D02*
Y5953084D01*
X7082922Y6393180D02*
X7142480D01*
X7198360D02*
X7257916D01*
X7082922Y6301740D02*
Y6393180D01*
X7082924Y6301740D02*
X7142480D01*
X7257922D02*
Y6393180D01*
X7198360Y6301740D02*
X7257916D01*
X8206025Y6339840D02*
X8265583D01*
X8090589D02*
X8150145D01*
X8265583D02*
Y6431280D01*
X8206025D02*
X8265582D01*
X8090584Y6339840D02*
Y6431280D01*
X8090589D02*
X8150145D01*
X8206025Y6062980D02*
X8265583D01*
X8090589D02*
X8150145D01*
X8265583D02*
Y6154420D01*
X8206025D02*
X8265582D01*
X8090584Y6062980D02*
Y6154420D01*
X8090589D02*
X8150145D01*
X8069580Y6937156D02*
X8161020D01*
X8069580Y6762156D02*
Y6937156D01*
X8161020Y6762156D02*
Y6937156D01*
X8069580Y6762156D02*
X8161020D01*
X8206025Y6644640D02*
X8265582D01*
X8265583Y6553200D02*
Y6644640D01*
X8206025Y6553200D02*
X8265583D01*
X8090589Y6644640D02*
X8150145D01*
X8090589Y6553200D02*
X8150145D01*
X8090584D02*
Y6644640D01*
X8265583Y6659880D02*
Y6751320D01*
X8090584D02*
X8265583D01*
X8090584Y6659880D02*
X8265583D01*
X8090584D02*
Y6751320D01*
X8206022Y5956300D02*
X8265578D01*
X8090585D02*
X8150142D01*
X8265583D02*
Y6047740D01*
X8206022D02*
X8265578D01*
X8090584Y5956300D02*
Y6047740D01*
X8150142D01*
X7082924Y5981700D02*
X7142480D01*
X7082922D02*
Y6073140D01*
X7142480D01*
X7198360Y5981700D02*
X7257916D01*
X7198360Y6073140D02*
X7257916D01*
X7257922Y5981700D02*
Y6073140D01*
X7574280Y5778085D02*
Y5837642D01*
X7482840Y5778084D02*
X7574280D01*
X7482840D02*
Y5837642D01*
X7574280Y5893522D02*
Y5953078D01*
X7482840Y5893522D02*
Y5953078D01*
Y5953084D02*
X7574280D01*
X7680960Y5778085D02*
Y5837642D01*
X7589520Y5778084D02*
X7680960D01*
X7589520D02*
Y5837642D01*
X7680960Y5893522D02*
Y5953078D01*
X7589520Y5893522D02*
Y5953078D01*
Y5953084D02*
X7680960D01*
X7027919Y6935618D02*
X7070033Y6893504D01*
X7109547Y6853991D02*
X7151659Y6811878D01*
X6963262Y6870961D02*
X7027919Y6935618D01*
X6963263Y6870959D02*
X7005376Y6828847D01*
X7087005Y6747217D02*
X7151663Y6811875D01*
X7044889Y6789333D02*
X7087002Y6747221D01*
X7376160Y5778084D02*
Y5837642D01*
Y5893522D02*
Y5953078D01*
Y5778084D02*
X7467600D01*
Y5778085D02*
Y5837642D01*
X7376160Y5953084D02*
X7467600D01*
Y5893522D02*
Y5953078D01*
X8160258Y5332142D02*
Y5391698D01*
X8068818Y5332137D02*
X8160258D01*
X8068818Y5332142D02*
Y5391698D01*
X8160258Y5447578D02*
Y5507137D01*
X8068818Y5447578D02*
Y5507135D01*
Y5507137D02*
X8160258D01*
X7948930Y5447578D02*
Y5507135D01*
Y5507137D02*
X8040370D01*
Y5447578D02*
Y5507137D01*
X7948930Y5332142D02*
Y5391698D01*
X8040370Y5332142D02*
Y5391698D01*
X7948930Y5332137D02*
X8040370D01*
X7829042Y5332142D02*
Y5391698D01*
Y5447578D02*
Y5507135D01*
Y5332137D02*
X7920482D01*
Y5332142D02*
Y5391698D01*
X7829042Y5507137D02*
X7920482D01*
Y5447578D02*
Y5507137D01*
X8308848Y5332138D02*
Y5391695D01*
Y5447575D02*
Y5507131D01*
Y5332133D02*
X8400288D01*
Y5332138D02*
Y5391695D01*
X8308848Y5507133D02*
X8400288D01*
Y5447575D02*
Y5507133D01*
X7407362Y4343400D02*
X7466918D01*
X7466923Y4251960D02*
Y4343400D01*
X7407362Y4251960D02*
X7466918D01*
X7291923Y4343400D02*
X7351482D01*
X7291925Y4251960D02*
X7351482D01*
X7291923D02*
Y4343400D01*
X6367780Y3948877D02*
X6459220D01*
X6367780D02*
Y4123877D01*
X6459220Y3948877D02*
Y4123877D01*
X6367780D02*
X6459220D01*
X6365240Y3163059D02*
Y3222617D01*
Y3163059D02*
X6456680D01*
Y3163060D02*
Y3222617D01*
X6365240Y3278497D02*
Y3338053D01*
X6456680Y3278497D02*
Y3338053D01*
X6365240Y3338059D02*
X6456680D01*
X6839084Y3804920D02*
X6898640D01*
X6954520D02*
X7014076D01*
X6839082D02*
Y3896360D01*
X6898640D01*
X7014082Y3804920D02*
Y3896360D01*
X6954520D02*
X7014076D01*
X6839403Y3698240D02*
X6898960D01*
X6954840D02*
X7014396D01*
X6839401D02*
Y3789680D01*
X6898960D01*
X7014401Y3698240D02*
Y3789680D01*
X6954840D02*
X7014396D01*
X6471920Y3163059D02*
Y3222617D01*
Y3163059D02*
X6563360D01*
Y3163060D02*
Y3222617D01*
X6471920Y3278497D02*
Y3338053D01*
X6563360Y3278497D02*
Y3338053D01*
X6471920Y3338059D02*
X6563360D01*
X6838759Y3378200D02*
X7013759D01*
X6838759D02*
Y3469640D01*
X7013759Y3378200D02*
Y3469640D01*
X6838759D02*
X7013759D01*
X6840044Y3484880D02*
X7015044D01*
X6840044D02*
Y3576320D01*
X7015044Y3484880D02*
Y3576320D01*
X6840044D02*
X7015044D01*
X6839401Y3591560D02*
X7014401D01*
X6839401D02*
Y3683000D01*
X7014401Y3591560D02*
Y3683000D01*
X6839401D02*
X7014401D01*
X7291925Y4572000D02*
X7351482D01*
X7291923D02*
Y4663440D01*
X7351482D01*
X7407362Y4572000D02*
X7466918D01*
X7407362Y4663440D02*
X7466918D01*
X7466923Y4572000D02*
Y4663440D01*
X9530979Y3786012D02*
X9642361D01*
X9530979Y3310773D02*
Y3786012D01*
Y3310773D02*
X9642361D01*
X9864839Y3786012D02*
X9976221D01*
Y3310773D02*
Y3786012D01*
X9864839Y3310773D02*
X9976221D01*
X9298940Y3750442D02*
Y3925442D01*
X9207500Y3750442D02*
Y3925442D01*
Y3750442D02*
X9298940D01*
X9207500Y3925442D02*
X9298940D01*
X9314180Y3750761D02*
Y3925761D01*
X9405620Y3750761D02*
Y3925761D01*
X9314180D02*
X9405620D01*
X9314180Y3750761D02*
X9405620D01*
X10140708Y3403592D02*
X10153408D01*
X10178808D02*
X10191508D01*
X10178808Y3365492D02*
Y3441692D01*
X10153408Y3365492D02*
Y3441692D01*
X10140708Y3693152D02*
X10153408D01*
X10178808D02*
X10191508D01*
X10178808Y3655052D02*
Y3731252D01*
X10153408Y3655052D02*
Y3731252D01*
X9420860Y3865880D02*
Y3925436D01*
X9512300Y3750444D02*
Y3810000D01*
Y3865880D02*
Y3925436D01*
X9420860Y3750442D02*
Y3810000D01*
Y3750442D02*
X9512300D01*
X9420860Y3925442D02*
X9512300D01*
X10109006Y3594100D02*
X10168563D01*
X9993570Y3502660D02*
X10053126D01*
X10109006D02*
X10168563D01*
X9993568Y3594100D02*
X10053126D01*
X9993568Y3502660D02*
Y3594100D01*
X10168568Y3502660D02*
Y3594100D01*
X9380220Y3304540D02*
Y3364096D01*
X9471660Y3189104D02*
Y3248660D01*
Y3304540D02*
Y3364096D01*
X9380220Y3189102D02*
Y3248660D01*
Y3189102D02*
X9471660D01*
X9380220Y3364102D02*
X9471660D01*
X9164320Y3271520D02*
X9177020D01*
X9202420D02*
X9215120D01*
X9202420Y3233420D02*
Y3309620D01*
X9177020Y3233420D02*
Y3309620D01*
X9131300Y3843020D02*
X9190856D01*
X9015864Y3751580D02*
X9075420D01*
X9131300D02*
X9190856D01*
X9015862Y3843020D02*
X9075420D01*
X9015862Y3751580D02*
Y3843020D01*
X9190862Y3751580D02*
Y3843020D01*
X10055860Y3991738D02*
Y4166738D01*
X10147300Y3991738D02*
Y4166738D01*
X10055860D02*
X10147300D01*
X10055860Y3991738D02*
X10147300D01*
X9933940Y4819784D02*
Y4879340D01*
X9842500Y4935220D02*
Y4994776D01*
Y4819784D02*
Y4879340D01*
X9933940Y4935220D02*
Y4994778D01*
X9842500D02*
X9933940D01*
X9842500Y4819778D02*
X9933940D01*
X9949180Y4994459D02*
X10040620D01*
X9949180Y4819459D02*
X10040620D01*
X9949180D02*
Y4994459D01*
X10040620Y4819459D02*
Y4994459D01*
X9186237Y5151120D02*
X9245794D01*
X9301674Y5242560D02*
X9361230D01*
X9186237D02*
X9245794D01*
X9301674Y5151120D02*
X9361232D01*
Y5242560D01*
X9186232Y5151120D02*
Y5242560D01*
X10055860Y4819778D02*
X10147300D01*
X10055860Y4994778D02*
X10147300D01*
Y4819778D02*
Y4994778D01*
X10055860Y4819778D02*
Y4994778D01*
X7968379Y7244080D02*
X8143379D01*
X7968379Y7335520D02*
X8143379D01*
X7968379Y7244080D02*
Y7335520D01*
X8143379Y7244080D02*
Y7335520D01*
X9141859Y7353300D02*
X9316859D01*
X9141859Y7444740D02*
X9316859D01*
X9141859Y7353300D02*
Y7444740D01*
X9316859Y7353300D02*
Y7444740D01*
X7969021D02*
X8144021D01*
X7969021Y7353300D02*
X8144021D01*
Y7444740D01*
X7969021Y7353300D02*
Y7444740D01*
X9141859Y7246620D02*
X9316859D01*
X9141859Y7338060D02*
X9316859D01*
X9141859Y7246620D02*
Y7338060D01*
X9316859Y7246620D02*
Y7338060D01*
X9201392Y5341628D02*
X9214092D01*
X9163292D02*
X9175992D01*
Y5303528D02*
Y5379728D01*
X9201392Y5303528D02*
Y5379728D01*
X9712439Y4131168D02*
X9823821D01*
Y4606407D01*
X9712439D02*
X9823821D01*
X9378579Y4131168D02*
X9489961D01*
X9378579D02*
Y4606407D01*
X9489961D01*
X9186237Y4323080D02*
X9245794D01*
X9301674Y4414520D02*
X9361230D01*
X9186237D02*
X9245794D01*
X9301674Y4323080D02*
X9361232D01*
Y4414520D01*
X9186232Y4323080D02*
Y4414520D01*
X9201392Y4224028D02*
X9214092D01*
X9163292D02*
X9175992D01*
Y4185928D02*
Y4262128D01*
X9201392Y4185928D02*
Y4262128D01*
Y4513588D02*
X9214092D01*
X9163292D02*
X9175992D01*
Y4475488D02*
Y4551688D01*
X9201392Y4475488D02*
Y4551688D01*
X10163944Y4074160D02*
X10223500D01*
X10279380Y4165600D02*
X10338936D01*
X10163944D02*
X10223500D01*
X10279380Y4074160D02*
X10338938D01*
Y4165600D01*
X10163938Y4074160D02*
Y4165600D01*
X9974580Y5381124D02*
Y5440680D01*
X9883140Y5496560D02*
Y5556116D01*
Y5381124D02*
Y5440680D01*
X9974580Y5496560D02*
Y5556118D01*
X9883140D02*
X9974580D01*
X9883140Y5381118D02*
X9974580D01*
Y4553084D02*
Y4612640D01*
X9883140Y4668520D02*
Y4728076D01*
Y4553084D02*
Y4612640D01*
X9974580Y4668520D02*
Y4728078D01*
X9883140D02*
X9974580D01*
X9883140Y4553078D02*
X9974580D01*
X9933940Y3991744D02*
Y4051300D01*
X9842500Y4107180D02*
Y4166736D01*
Y3991744D02*
Y4051300D01*
X9933940Y4107180D02*
Y4166738D01*
X9842500D02*
X9933940D01*
X9842500Y3991738D02*
X9933940D01*
X10177780Y4645660D02*
X10190480D01*
X10139680D02*
X10152380D01*
Y4607560D02*
Y4683760D01*
X10177780Y4607560D02*
Y4683760D01*
X9712439Y4959208D02*
X9823821D01*
Y5434447D01*
X9712439D02*
X9823821D01*
X9378579Y4959208D02*
X9489961D01*
X9378579D02*
Y5434447D01*
X9489961D01*
X9201392Y5052068D02*
X9214092D01*
X9163292D02*
X9175992D01*
Y5013968D02*
Y5090168D01*
X9201392Y5013968D02*
Y5090168D01*
X10177780Y5473700D02*
X10190480D01*
X10139680D02*
X10152380D01*
Y5435600D02*
Y5511800D01*
X10177780Y5435600D02*
Y5511800D01*
X10163944Y4902200D02*
X10223500D01*
X10279380Y4993640D02*
X10338936D01*
X10163944D02*
X10223500D01*
X10279380Y4902200D02*
X10338938D01*
Y4993640D01*
X10163938Y4902200D02*
Y4993640D01*
X10040620Y3991419D02*
Y4166419D01*
X9949180Y3991419D02*
Y4166419D01*
Y3991419D02*
X10040620D01*
X9949180Y4166419D02*
X10040620D01*
X8272780Y5639518D02*
Y5699076D01*
X8181340D02*
X8272780D01*
X8181340Y5639518D02*
Y5699074D01*
X8272780Y5524082D02*
Y5583638D01*
X8181340Y5524082D02*
Y5583638D01*
Y5524076D02*
X8272780D01*
X8166100Y5639518D02*
Y5699076D01*
X8074660D02*
X8166100D01*
X8074660Y5639518D02*
Y5699074D01*
X8166100Y5524082D02*
Y5583638D01*
X8074660Y5524082D02*
Y5583638D01*
Y5524076D02*
X8166100D01*
X7198364Y6408420D02*
X7257922D01*
Y6499860D01*
X7198364D02*
X7257920D01*
X7082927Y6408420D02*
X7142484D01*
X7082927Y6499860D02*
X7142484D01*
X7082922Y6408420D02*
Y6499860D01*
X7198364Y6515100D02*
X7257922D01*
Y6606540D01*
X7198364D02*
X7257920D01*
X7082927Y6515100D02*
X7142484D01*
X7082927Y6606540D02*
X7142484D01*
X7082922Y6515100D02*
Y6606540D01*
X8813884Y5315146D02*
X8855998Y5357260D01*
X8791340Y5421918D02*
X8855998Y5357260D01*
X8732258Y5233520D02*
X8774371Y5275633D01*
X8667597Y5298174D02*
X8732254Y5233517D01*
X8749226Y5379804D02*
X8791339Y5421917D01*
X8667600Y5298178D02*
X8709713Y5340291D01*
X6474460Y3948877D02*
X6565900D01*
X6474460D02*
Y4123877D01*
X6565900Y3948877D02*
Y4123877D01*
X6474460D02*
X6565900D01*
X9433560Y5778085D02*
Y5837642D01*
X9342120Y5778084D02*
X9433560D01*
X9342120D02*
Y5837642D01*
X9433560Y5893522D02*
Y5953078D01*
X9342120Y5893522D02*
Y5953078D01*
Y5953084D02*
X9433560D01*
X9326880Y5893522D02*
Y5953078D01*
Y5778085D02*
Y5837642D01*
X9235440Y5953084D02*
X9326880D01*
X9235440Y5893522D02*
Y5953078D01*
Y5778084D02*
X9326880D01*
X9235440D02*
Y5837642D01*
X9958625Y6431280D02*
X10018182D01*
X10018183Y6339840D02*
Y6431280D01*
X9958625Y6339840D02*
X10018183D01*
X9843189Y6431280D02*
X9902745D01*
X9843189Y6339840D02*
X9902745D01*
X9843184D02*
Y6431280D01*
X8950960Y6713220D02*
X9010516D01*
X9010522Y6621780D02*
Y6713220D01*
X8950960Y6621780D02*
X9010516D01*
X8835522Y6713220D02*
X8895080D01*
X8835524Y6621780D02*
X8895080D01*
X8835522D02*
Y6713220D01*
X10370299Y6430927D02*
X10481681D01*
Y5955688D02*
Y6430927D01*
X10370299Y5955688D02*
X10481681D01*
X10036439Y6430927D02*
X10147821D01*
X10036439Y5955688D02*
Y6430927D01*
Y5955688D02*
X10147821D01*
X10018183Y6659880D02*
Y6751320D01*
X9843184D02*
X10018183D01*
X9843184Y6659880D02*
X10018183D01*
X9843184D02*
Y6751320D01*
X9958625Y6644640D02*
X10018182D01*
X10018183Y6553200D02*
Y6644640D01*
X9958625Y6553200D02*
X10018183D01*
X9843189Y6644640D02*
X9902745D01*
X9843189Y6553200D02*
X9902745D01*
X9843184D02*
Y6644640D01*
X9843880Y5801360D02*
X9945480D01*
X9955640Y5869940D02*
X9968340D01*
X9843880Y5801360D02*
Y5938520D01*
X9945480D01*
X9968340Y5844540D02*
Y5895340D01*
X9988660Y5844540D02*
Y5895340D01*
X10011520Y5801360D02*
X10113120D01*
X9988660Y5869940D02*
X10001360D01*
X10113120Y5801360D02*
Y5938520D01*
X10011520D02*
X10113120D01*
X9958622Y5956300D02*
X10018178D01*
X9843185D02*
X9902742D01*
X10018183D02*
Y6047740D01*
X9958622D02*
X10018178D01*
X9843184Y5956300D02*
Y6047740D01*
X9902742D01*
X9540240Y5893522D02*
Y5953078D01*
Y5778085D02*
Y5837642D01*
X9448800Y5953084D02*
X9540240D01*
X9448800Y5893522D02*
Y5953078D01*
Y5778084D02*
X9540240D01*
X9448800D02*
Y5837642D01*
X9843189Y6169660D02*
X9902745D01*
X9843184D02*
Y6261100D01*
X9843189D02*
X9902745D01*
X9958625Y6169660D02*
X10018183D01*
X9958625Y6261100D02*
X10018182D01*
X10018183Y6169660D02*
Y6261100D01*
X9843189Y6062980D02*
X9902745D01*
X9843184D02*
Y6154420D01*
X9843189D02*
X9902745D01*
X9958625Y6062980D02*
X10018183D01*
X9958625Y6154420D02*
X10018182D01*
X10018183Y6062980D02*
Y6154420D01*
X9646920Y5893525D02*
Y5953084D01*
Y5778089D02*
Y5837645D01*
X9555480Y5953084D02*
X9646920D01*
X9555480Y5893525D02*
Y5953082D01*
Y5778084D02*
X9646920D01*
X9555480Y5778089D02*
Y5837645D01*
X9660599Y5778084D02*
Y5953084D01*
Y5778084D02*
X9752039D01*
X9660599Y5953084D02*
X9752039D01*
Y5778084D02*
Y5953084D01*
X7292201Y5105400D02*
X7467201D01*
X7292201D02*
Y5196840D01*
X7467201Y5105400D02*
Y5196840D01*
X7292201D02*
X7467201D01*
X7880350Y3936585D02*
Y3996142D01*
X7788910Y3936583D02*
X7880350D01*
Y4052022D02*
Y4111578D01*
X7788910Y4111583D02*
X7880350D01*
X7788910Y3936583D02*
Y3996142D01*
Y4052022D02*
Y4111578D01*
X8797838Y4727702D02*
X8857395D01*
X8857397Y4636262D02*
Y4727702D01*
X8682402D02*
X8741958D01*
X8682397Y4636262D02*
Y4727702D01*
X8797838Y4636262D02*
X8857397D01*
X8682402D02*
X8741958D01*
X8000492Y3936585D02*
Y3996142D01*
X7909052Y3936583D02*
X8000492D01*
Y4052022D02*
Y4111578D01*
X7909052Y4111583D02*
X8000492D01*
X7909052Y3936583D02*
Y3996142D01*
Y4052022D02*
Y4111578D01*
X8682397Y4983480D02*
X8857397D01*
X8682397D02*
Y5074920D01*
X8857397Y4983480D02*
Y5074920D01*
X8682397D02*
X8857397D01*
X8797838Y4967478D02*
X8857395D01*
X8857397Y4876038D02*
Y4967478D01*
X8682402D02*
X8741958D01*
X8682397Y4876038D02*
Y4967478D01*
X8797838Y4876038D02*
X8857397D01*
X8682402D02*
X8741958D01*
X7292201Y4678680D02*
X7467201D01*
X7292201D02*
Y4770120D01*
X7467201Y4678680D02*
Y4770120D01*
X7292201D02*
X7467201D01*
X7407362Y4983480D02*
X7466918D01*
X7291923D02*
X7351482D01*
X7466923Y4892040D02*
Y4983480D01*
X7407362Y4892040D02*
X7466918D01*
X7291923D02*
Y4983480D01*
X7291925Y4892040D02*
X7351482D01*
X8797838Y4500880D02*
X8857395D01*
X8857397Y4409440D02*
Y4500880D01*
X8682402D02*
X8741958D01*
X8682397Y4409440D02*
Y4500880D01*
X8797838Y4409440D02*
X8857397D01*
X8682402D02*
X8741958D01*
X7669022Y5332137D02*
Y5507137D01*
X7760462D01*
X7669022Y5332137D02*
X7760462D01*
Y5507137D01*
X8188960Y5447578D02*
Y5507135D01*
Y5507137D02*
X8280400D01*
X8188960Y5332142D02*
Y5391698D01*
Y5332137D02*
X8280400D01*
Y5447578D02*
Y5507137D01*
Y5332142D02*
Y5391698D01*
X8797838Y4607560D02*
X8857395D01*
X8857397Y4516120D02*
Y4607560D01*
X8682402D02*
X8741958D01*
X8682397Y4516120D02*
Y4607560D01*
X8797838Y4516120D02*
X8857397D01*
X8682402D02*
X8741958D01*
X7291922Y4785360D02*
X7351478D01*
X7407358D02*
X7466916D01*
X7291916D02*
Y4876800D01*
X7291922D02*
X7351478D01*
X7466916Y4785360D02*
Y4876800D01*
X7407358D02*
X7466914D01*
X8682402Y4756150D02*
X8741958D01*
X8797838D02*
X8857397D01*
X8682397D02*
Y4847590D01*
X8682402D02*
X8741958D01*
X8857397Y4756150D02*
Y4847590D01*
X8797838D02*
X8857395D01*
X7292201Y4465320D02*
X7467201D01*
X7292201D02*
Y4556760D01*
X7467201Y4465320D02*
Y4556760D01*
X7292201D02*
X7467201D01*
X8135620Y3936583D02*
Y4111583D01*
X8227060D01*
X8135620Y3936583D02*
X8227060D01*
Y4111583D01*
X8333740Y3936585D02*
Y3996142D01*
X8242300Y3936583D02*
X8333740D01*
Y4052022D02*
Y4111578D01*
X8242300Y4111583D02*
X8333740D01*
X8242300Y3936583D02*
Y3996142D01*
Y4052022D02*
Y4111578D01*
X7292201Y4450080D02*
X7467201D01*
Y4358640D02*
Y4450080D01*
X7292201Y4358640D02*
Y4450080D01*
Y4358640D02*
X7467201D01*
X8120380Y3936585D02*
Y3996142D01*
X8028940Y3936583D02*
X8120380D01*
Y4052022D02*
Y4111578D01*
X8028940Y4111583D02*
X8120380D01*
X8028940Y3936583D02*
Y3996142D01*
Y4052022D02*
Y4111578D01*
X8374380Y3936583D02*
Y4111583D01*
X8465820D01*
X8374380Y3936583D02*
X8465820D01*
Y4111583D01*
X8427502Y3448380D02*
X8469615Y3406268D01*
X8427501Y3448382D02*
X8492158Y3513039D01*
X8509128Y3366755D02*
X8551240Y3324642D01*
X8551244Y3324638D02*
X8615902Y3389296D01*
X8492158Y3513039D02*
X8534272Y3470925D01*
X8573785Y3431412D02*
X8615898Y3389300D01*
X8824044Y3894894D02*
X8866157Y3852781D01*
X8801500Y3788122D02*
X8866158Y3852780D01*
X8742418Y3976520D02*
X8784531Y3934407D01*
X8677757Y3911866D02*
X8742414Y3976523D01*
X8759386Y3830236D02*
X8801500Y3788122D01*
X8677760Y3911862D02*
X8719873Y3869749D01*
X8587740Y3936583D02*
Y4111583D01*
X8679180D01*
X8587740Y3936583D02*
X8679180D01*
Y4111583D01*
X8481060Y3936583D02*
Y4111583D01*
X8572500D01*
X8481060Y3936583D02*
X8572500D01*
Y4111583D01*
X8682799Y4267200D02*
X8857799D01*
X8682799D02*
Y4358640D01*
X8857799Y4267200D02*
Y4358640D01*
X8682799D02*
X8857799D01*
X8682799Y4160520D02*
X8857799D01*
X8682799D02*
Y4251960D01*
X8857799Y4160520D02*
Y4251960D01*
X8682799D02*
X8857799D01*
X7292201Y5090160D02*
X7467201D01*
Y4998720D02*
Y5090160D01*
X7292201Y4998720D02*
Y5090160D01*
Y4998720D02*
X7467201D01*
X286040Y6473591D02*
Y6648591D01*
X377480Y6473591D02*
Y6648591D01*
X286040D02*
X377480D01*
X286040Y6473591D02*
X377480D01*
X286040Y7425189D02*
X377480D01*
X286040Y7250189D02*
X377480D01*
X286040D02*
Y7425189D01*
X377480Y7250189D02*
Y7425189D01*
X286040Y3659271D02*
Y3834271D01*
X377480Y3659271D02*
Y3834271D01*
X286040D02*
X377480D01*
X286040Y3659271D02*
X377480D01*
Y4435869D02*
Y4610869D01*
X286040Y4435869D02*
Y4610869D01*
Y4435869D02*
X377480D01*
X286040Y4610869D02*
X377480D01*
X6550660Y6941820D02*
X6610216D01*
X6435224Y6850380D02*
X6494780D01*
X6550660D02*
X6610216D01*
X6435222Y6941820D02*
X6494780D01*
X6435222Y6850380D02*
Y6941820D01*
X6610222Y6850380D02*
Y6941820D01*
X9843189Y6446520D02*
X9902745D01*
X9958625Y6537960D02*
X10018182D01*
X9843189D02*
X9902745D01*
X9958625Y6446520D02*
X10018183D01*
Y6537960D01*
X9843184Y6446520D02*
Y6537960D01*
X8090589Y6446520D02*
X8150145D01*
X8206025Y6537960D02*
X8265582D01*
X8090589D02*
X8150145D01*
X8206025Y6446520D02*
X8265583D01*
Y6537960D01*
X8090584Y6446520D02*
Y6537960D01*
X7198360Y6179820D02*
X7257916D01*
X7082924Y6088380D02*
X7142480D01*
X7198360D02*
X7257916D01*
X7082922Y6179820D02*
X7142480D01*
X7082922Y6088380D02*
Y6179820D01*
X7257922Y6088380D02*
Y6179820D01*
X5827905Y3972560D02*
Y4064000D01*
X5652905Y3972560D02*
Y4064000D01*
X5712464D01*
X5768344Y3972560D02*
X5827900D01*
X5652907D02*
X5712464D01*
X5768344Y4064000D02*
X5827900D01*
X5827904Y4076700D02*
Y4168140D01*
X5652904Y4076700D02*
Y4168140D01*
X5712462D01*
X5768342Y4076700D02*
X5827898D01*
X5652905D02*
X5712462D01*
X5768342Y4168140D02*
X5827898D01*
D74*
X7714915Y5227858D02*
G03*
X7714661Y5227858I-127J14999D01*
G01*
D75*
X8790953Y6946719D02*
X9060361Y7216127D01*
X8790953Y6946719D02*
X9024439Y6713233D01*
X9060361Y7216127D02*
X9293847Y6982641D01*
X9024439Y6713233D02*
X9293847Y6982641D01*
X7271839Y6713233D02*
X7541247Y6982641D01*
X7307761Y7216127D02*
X7541247Y6982641D01*
X7038353Y6946719D02*
X7271839Y6713233D01*
X7038353Y6946719D02*
X7307761Y7216127D01*
X8664121Y3901427D02*
X8897607Y3667941D01*
X8628199Y3398533D02*
X8897607Y3667941D01*
X8394713Y3632019D02*
X8664121Y3901427D01*
X8394713Y3632019D02*
X8628199Y3398533D01*
%TF.MD5,7c12c5e9da474c98ac25a0633d174d63*%
M02*
