%TF.GenerationSoftware,Altium Limited,Altium Designer,24.0.1 (36)*%
G04 Layer_Physical_Order=1*
G04 Layer_Color=152*
%FSLAX45Y45*%
%MOMM*%
%TF.SameCoordinates,AAAF7447-B715-4BC7-9B32-5AEFA729C21C*%
%TF.FilePolarity,Positive*%
%TF.FileFunction,Copper,L1,Top,Signal*%
%TF.Part,Single*%
G01*
G75*
%TA.AperFunction,Conductor*%
%ADD10C,0.15240*%
%ADD11C,0.50800*%
%ADD12C,0.12954*%
%ADD13C,0.10897*%
%ADD14C,1.27000*%
%ADD15C,0.20320*%
%TA.AperFunction,SMDPad,CuDef*%
%ADD16C,1.00000*%
G04:AMPARAMS|DCode=17|XSize=1.95mm|YSize=1.5mm|CornerRadius=0mm|HoleSize=0mm|Usage=FLASHONLY|Rotation=45.000|XOffset=0mm|YOffset=0mm|HoleType=Round|Shape=Rectangle|*
%AMROTATEDRECTD17*
4,1,4,-0.15910,-1.21976,-1.21976,-0.15910,0.15910,1.21976,1.21976,0.15910,-0.15910,-1.21976,0.0*
%
%ADD17ROTATEDRECTD17*%

%TA.AperFunction,ConnectorPad*%
G04:AMPARAMS|DCode=18|XSize=2mm|YSize=3.5mm|CornerRadius=0mm|HoleSize=0mm|Usage=FLASHONLY|Rotation=315.000|XOffset=0mm|YOffset=0mm|HoleType=Round|Shape=Rectangle|*
%AMROTATEDRECTD18*
4,1,4,-1.94455,-0.53033,0.53033,1.94455,1.94455,0.53033,-0.53033,-1.94455,-1.94455,-0.53033,0.0*
%
%ADD18ROTATEDRECTD18*%

%TA.AperFunction,SMDPad,CuDef*%
%ADD19R,0.50000X0.50000*%
%ADD20R,0.88900X1.27000*%
%ADD21R,1.92001X1.72400*%
%ADD22R,0.50000X0.50000*%
%ADD23R,1.00000X0.45000*%
%ADD24R,2.70000X1.00000*%
%ADD25O,2.70000X1.00000*%
G04:AMPARAMS|DCode=26|XSize=2.7mm|YSize=1mm|CornerRadius=0mm|HoleSize=0mm|Usage=FLASHONLY|Rotation=225.000|XOffset=0mm|YOffset=0mm|HoleType=Round|Shape=Rectangle|*
%AMROTATEDRECTD26*
4,1,4,0.60104,1.30815,1.30815,0.60104,-0.60104,-1.30815,-1.30815,-0.60104,0.60104,1.30815,0.0*
%
%ADD26ROTATEDRECTD26*%

G04:AMPARAMS|DCode=27|XSize=2.7mm|YSize=1mm|CornerRadius=0mm|HoleSize=0mm|Usage=FLASHONLY|Rotation=225.000|XOffset=0mm|YOffset=0mm|HoleType=Round|Shape=Round|*
%AMOVALD27*
21,1,1.70000,1.00000,0.00000,0.00000,225.0*
1,1,1.00000,0.60104,0.60104*
1,1,1.00000,-0.60104,-0.60104*
%
%ADD27OVALD27*%

%ADD28R,1.00000X0.30000*%
%ADD29R,0.20000X0.56500*%
%ADD30R,0.40000X0.56500*%
%TA.AperFunction,ConnectorPad*%
G04:AMPARAMS|DCode=31|XSize=1.2mm|YSize=3.5mm|CornerRadius=0mm|HoleSize=0mm|Usage=FLASHONLY|Rotation=135.000|XOffset=0mm|YOffset=0mm|HoleType=Round|Shape=Rectangle|*
%AMROTATEDRECTD31*
4,1,4,1.66170,0.81317,-0.81317,-1.66170,-1.66170,-0.81317,0.81317,1.66170,1.66170,0.81317,0.0*
%
%ADD31ROTATEDRECTD31*%

%TA.AperFunction,SMDPad,CuDef*%
%ADD32R,1.00000X2.70000*%
%ADD33O,1.00000X2.70000*%
G04:AMPARAMS|DCode=34|XSize=0.8mm|YSize=2.5mm|CornerRadius=0mm|HoleSize=0mm|Usage=FLASHONLY|Rotation=315.000|XOffset=0mm|YOffset=0mm|HoleType=Round|Shape=Rectangle|*
%AMROTATEDRECTD34*
4,1,4,-1.16673,-0.60104,0.60104,1.16673,1.16673,0.60104,-0.60104,-1.16673,-1.16673,-0.60104,0.0*
%
%ADD34ROTATEDRECTD34*%

%ADD35R,0.50000X1.50000*%
%ADD36O,0.50000X1.50000*%
%TA.AperFunction,Conductor*%
%ADD37C,0.38100*%
%TA.AperFunction,ComponentPad*%
%ADD38O,2.99999X1.30000*%
%ADD39O,1.50000X3.29999*%
%ADD40O,3.99999X1.50000*%
%ADD41C,2.99974*%
%ADD42C,1.19888*%
%ADD43C,1.30000*%
%ADD44C,1.00000*%
%TA.AperFunction,ViaPad*%
%ADD45C,0.40000*%
G36*
X300633Y8887004D02*
X300634Y8887004D01*
X300635Y8887004D01*
X1638300D01*
Y8677838D01*
X1615742Y8660526D01*
X1615363Y8659869D01*
X1614661Y8659579D01*
X1586856Y8631773D01*
X1586566Y8631072D01*
X1585908Y8630692D01*
X1561969Y8599498D01*
X1561772Y8598764D01*
X1561170Y8598302D01*
X1541504Y8564251D01*
X1541405Y8563498D01*
X1540868Y8562961D01*
X1525814Y8526635D01*
X1525814Y8525876D01*
X1525351Y8525274D01*
X1515165Y8487294D01*
X1515263Y8486541D01*
X1514884Y8485884D01*
X1509739Y8446900D01*
X1509936Y8446166D01*
X1509645Y8445465D01*
X1509638Y8425804D01*
X1509639Y8425802D01*
X1509638Y8425800D01*
X1509638Y7324700D01*
Y7324700D01*
X1509639Y7324698D01*
X1509638Y7324696D01*
X1509645Y7305035D01*
X1509936Y7304333D01*
X1509740Y7303600D01*
X1514884Y7264616D01*
X1515264Y7263959D01*
X1515165Y7263206D01*
X1525352Y7225226D01*
X1525814Y7224624D01*
X1525814Y7223865D01*
X1539453Y7190953D01*
X1427480Y7078980D01*
X1143000D01*
Y7081520D01*
X1061720Y7162800D01*
X861897D01*
X861897Y7937499D01*
X858676Y7945276D01*
X772316Y8031636D01*
X764539Y8034857D01*
X11630D01*
Y8597999D01*
X11630Y8598000D01*
X11630Y8598002D01*
X11627Y8616944D01*
X16566Y8654509D01*
X26366Y8691105D01*
X40861Y8726110D01*
X59802Y8758921D01*
X82865Y8788979D01*
X109655Y8815769D01*
X139714Y8838832D01*
X172525Y8857772D01*
X207530Y8872268D01*
X244125Y8882068D01*
X281691Y8887007D01*
X300633Y8887004D01*
D02*
G37*
G36*
X850900Y7937499D02*
X850900Y7045960D01*
X759460Y6954520D01*
X314960D01*
X269240Y7000240D01*
Y7152640D01*
X233680Y7188200D01*
X58420D01*
X10160Y7236460D01*
Y8023860D01*
X764539D01*
X850900Y7937499D01*
D02*
G37*
G36*
X1076960Y6809740D02*
Y6614160D01*
X1041400Y6578600D01*
X853440D01*
X635000Y6360160D01*
X91440D01*
X48260Y6403340D01*
Y6781800D01*
X116840Y6850380D01*
X1036320D01*
X1076960Y6809740D01*
D02*
G37*
G36*
X4942840Y6898640D02*
Y6494780D01*
X4894580Y6446520D01*
X2623820D01*
X2527300Y6350000D01*
X2334203D01*
X2328669Y6352292D01*
X2311563D01*
X2306029Y6350000D01*
X1276771D01*
X1245925Y6319153D01*
X1241055Y6317136D01*
X1225815Y6301896D01*
X1223798Y6297027D01*
X1220891Y6294120D01*
Y6014720D01*
X1208191Y6002020D01*
X1157391Y6002020D01*
X1142151Y5986780D01*
Y5892800D01*
X1152311Y5882640D01*
X1205651Y5882640D01*
X1220891Y5867400D01*
Y5739551D01*
X1173480Y5692140D01*
X1038011D01*
X997371Y5732780D01*
Y5963920D01*
X926251Y6035040D01*
X735751D01*
X700191Y6070600D01*
Y6256525D01*
Y6271260D01*
Y6382171D01*
X866140Y6548120D01*
X1295400D01*
X1447800Y6700520D01*
X1790700D01*
X2021840Y6931660D01*
X4909820D01*
X4942840Y6898640D01*
D02*
G37*
G36*
X678180Y6306820D02*
Y6238240D01*
X660400Y6220460D01*
X485140D01*
X467360Y6238240D01*
Y6314440D01*
X477520Y6324600D01*
X660400D01*
X678180Y6306820D01*
D02*
G37*
G36*
X238760Y6296660D02*
Y6154420D01*
X215900Y6131560D01*
X30480D01*
X12700Y6149340D01*
X12700Y6299200D01*
X33020Y6319520D01*
X215900D01*
X238760Y6296660D01*
D02*
G37*
G36*
X436880Y6278880D02*
Y6228080D01*
X462280Y6202680D01*
X568959D01*
X586740Y6184900D01*
Y6027420D01*
X568960Y6009640D01*
X335280D01*
X292100Y6052820D01*
Y6281420D01*
X312420Y6301740D01*
X414020D01*
X436880Y6278880D01*
D02*
G37*
G36*
X4925060Y6385560D02*
Y5981700D01*
X4879340Y5935980D01*
X2588260D01*
X2547620Y5976620D01*
Y6311900D01*
X2654300Y6418580D01*
X4892040D01*
X4925060Y6385560D01*
D02*
G37*
G36*
X561340Y5825514D02*
Y5773420D01*
X551180Y5763260D01*
X337820Y5763260D01*
X325120Y5775960D01*
Y5842000D01*
X370840Y5887720D01*
X499134D01*
X561340Y5825514D01*
D02*
G37*
G36*
X977051Y5961380D02*
Y5636260D01*
X946571Y5605780D01*
X637539D01*
X584200Y5659120D01*
Y5830992D01*
X509691Y5905500D01*
X357291D01*
X347131Y5915660D01*
Y5984240D01*
X357291Y5994400D01*
X944031D01*
X977051Y5961380D01*
D02*
G37*
G36*
X934720Y5367020D02*
Y5173980D01*
X916940Y5156200D01*
X594360D01*
X581660Y5168900D01*
Y5361939D01*
X601979Y5382259D01*
X919480Y5382260D01*
X934720Y5367020D01*
D02*
G37*
G36*
X1383451Y6291580D02*
Y5712460D01*
X1475740Y5620172D01*
Y4997029D01*
X1383451Y4904740D01*
Y4904740D01*
X1365672Y4922520D01*
X1383451Y4904740D01*
Y4370491D01*
X1366520Y4353560D01*
X1254759D01*
X1233591Y4374729D01*
Y4500880D01*
X1223432Y4511040D01*
X1167551D01*
X1157391Y4521200D01*
Y4584700D01*
X1167551Y4594860D01*
X1220891D01*
X1233591Y4607560D01*
Y4907280D01*
X1211580Y4929291D01*
Y5692989D01*
X1233591Y5715000D01*
Y5887720D01*
X1223432Y5897880D01*
X1167551D01*
X1157391Y5908040D01*
Y5971540D01*
X1167551Y5981700D01*
X1220891D01*
X1233591Y5994400D01*
Y6294120D01*
X1248831Y6309360D01*
X1365672D01*
X1383451Y6291580D01*
D02*
G37*
G36*
X586740Y5024120D02*
Y4859020D01*
X574040Y4846320D01*
X474980D01*
X467360Y4853940D01*
Y4904740D01*
X434340Y4937760D01*
X289560D01*
X259080Y4907280D01*
Y4803140D01*
X213360Y4757420D01*
X66040D01*
X38100Y4785360D01*
Y4991100D01*
X104140Y5057140D01*
X553720D01*
X586740Y5024120D01*
D02*
G37*
G36*
X436880Y4892040D02*
Y4841240D01*
X457200Y4820920D01*
X568960D01*
X586740Y4803140D01*
Y4640580D01*
X568960Y4622800D01*
X335280D01*
X292100Y4665980D01*
Y4894580D01*
X312420Y4914900D01*
X414020D01*
X436880Y4892040D01*
D02*
G37*
G36*
X1220891Y4887809D02*
Y4627880D01*
X1208191Y4615180D01*
X1157391Y4615180D01*
X1142151Y4599940D01*
Y4505960D01*
X1152311Y4495800D01*
X1205651Y4495800D01*
X1220891Y4480560D01*
Y4442460D01*
Y4316309D01*
X1381760Y4155440D01*
X4945380D01*
X4991100Y4109720D01*
Y3835400D01*
X4953000Y3797300D01*
X2087731D01*
X2081548Y3803484D01*
X2065743Y3810030D01*
X2062478D01*
X2058422Y3814086D01*
X2054366Y3810030D01*
X2048637D01*
X2032832Y3803484D01*
X2026649Y3797300D01*
X1198880D01*
X997371Y3998809D01*
Y4345940D01*
Y4462780D01*
Y4577080D01*
X926251Y4648200D01*
X735751D01*
X700191Y4683760D01*
Y4884420D01*
X738291Y4922520D01*
X1186180D01*
X1220891Y4887809D01*
D02*
G37*
G36*
X561340Y4438674D02*
Y4386580D01*
X551180Y4376420D01*
X337820D01*
X325120Y4389120D01*
Y4455160D01*
X370840Y4500880D01*
X499134D01*
X561340Y4438674D01*
D02*
G37*
G36*
X977051Y4574540D02*
Y4249420D01*
X946571Y4218940D01*
X637539D01*
X584200Y4272280D01*
X584200Y4450080D01*
X515619Y4518660D01*
X357291D01*
X347131Y4528820D01*
Y4597400D01*
X357291Y4607560D01*
X944031D01*
X977051Y4574540D01*
D02*
G37*
G36*
X967740Y3934460D02*
Y3868420D01*
X774700Y3675380D01*
X708660D01*
X589280Y3794760D01*
Y3853180D01*
X779780Y4043680D01*
X858520D01*
X967740Y3934460D01*
D02*
G37*
G36*
X1303020Y3573780D02*
Y3533140D01*
X957580Y3187700D01*
X246380D01*
X185420Y3248660D01*
X185419Y3492499D01*
X243840Y3550920D01*
X985520D01*
X1117600Y3683000D01*
X1193800D01*
X1303020Y3573780D01*
D02*
G37*
G36*
X4955540Y3515360D02*
Y3213100D01*
X4919980Y3177540D01*
X2540000D01*
X2496820Y3220720D01*
Y3497580D01*
X2542540Y3543300D01*
X4927600D01*
X4955540Y3515360D01*
D02*
G37*
%LPC*%
G36*
X1625353Y6539636D02*
X1606879D01*
X1589035Y6534855D01*
X1573037Y6525618D01*
X1559974Y6512555D01*
X1550737Y6496557D01*
X1545956Y6478713D01*
Y6460239D01*
X1550737Y6442395D01*
X1559974Y6426397D01*
X1573037Y6413334D01*
X1589035Y6404097D01*
X1606879Y6399316D01*
X1625353D01*
X1643197Y6404097D01*
X1659195Y6413334D01*
X1672258Y6426397D01*
X1681494Y6442395D01*
X1686276Y6460239D01*
Y6478713D01*
X1681494Y6496557D01*
X1672258Y6512555D01*
X1659195Y6525618D01*
X1643197Y6534855D01*
X1625353Y6539636D01*
D02*
G37*
%LPD*%
D10*
X313898Y5724059D02*
G03*
X313952Y5724113I-169118J169225D01*
G01*
X298884Y5710282D02*
G03*
X313898Y5724059I-154104J183003D01*
G01*
X259363Y5683264D02*
G03*
X298884Y5710282I-114583J210021D01*
G01*
X144780Y5654040D02*
G03*
X259363Y5683264I0J239245D01*
G01*
X359734Y4338320D02*
G03*
X299530Y4324579I0J-138754D01*
G01*
Y4324579D02*
G03*
X317500Y4340822I-151851J186064D01*
G01*
X265373Y4301295D02*
G03*
X299530Y4324579I-117694J209348D01*
G01*
X147679Y4270479D02*
G03*
X265373Y4301295I0J240163D01*
G01*
X459150Y4218350D02*
G03*
X543575Y4183380I84425J84425D01*
G01*
X453719Y5606925D02*
G03*
X474333Y5592467I38460J32912D01*
G01*
X501211Y5582298D02*
G03*
X581075Y5567680I79863J210857D01*
G01*
X453719Y5606925D02*
G03*
X452875Y5607826I-11531J-9965D01*
G01*
X7040942Y5953760D02*
G03*
X6985936Y5965471I-55006J-123321D01*
G01*
X7081419Y5925921D02*
G03*
X7040942Y5953760I-95482J-95482D01*
G01*
X1088301Y5617121D02*
G03*
X1137088Y5734904I-117784J117784D01*
G01*
X969402Y5567680D02*
G03*
X1087974Y5616794I0J167686D01*
G01*
X9261917Y5652782D02*
Y5763957D01*
X9260455Y5651319D02*
X9261917Y5652782D01*
Y5763957D02*
X9263380Y5765420D01*
X317500Y5727662D02*
X528035D01*
X313951Y5724113D02*
X317500Y5727662D01*
X144621Y4270479D02*
X147679D01*
X359734Y4338320D02*
X424180D01*
Y4340822D02*
X528035D01*
X1056640Y4183380D02*
X1074420Y4201160D01*
X543575Y4183380D02*
X1056640D01*
X529423Y4254434D02*
X530860Y4252997D01*
X528035Y4340822D02*
X530860Y4337997D01*
X494654Y4254434D02*
X529423D01*
X424180Y4253320D02*
X459150Y4218350D01*
X317500Y4250822D02*
X421682D01*
X424180Y4253320D01*
X141921Y4658850D02*
X143932Y4656840D01*
X141921Y4658850D02*
Y4714178D01*
X317500Y5637662D02*
X421640D01*
X422241Y5638204D02*
X437795Y5622780D01*
X421640Y5638800D02*
X422241Y5638204D01*
X474333Y5592467D02*
X501211Y5582297D01*
X581075Y5567680D02*
X969402D01*
X437795Y5622780D02*
X452874Y5607826D01*
X492180Y5639837D02*
X530860D01*
X7081419Y5925921D02*
X7241540Y5765800D01*
X6939176Y5965471D02*
X6985936D01*
X143568Y6044044D02*
X143932Y6043680D01*
X143568Y6044044D02*
Y6088560D01*
X1137088Y5734904D02*
Y5803900D01*
X1087974Y5616794D02*
X1088301Y5617121D01*
X1232235Y6815155D02*
X1328420Y6911340D01*
X1230309Y6815155D02*
X1232235D01*
X1130300Y6715760D02*
X1229695Y6815155D01*
X1230309D01*
X528035Y5727662D02*
X530860Y5724837D01*
D11*
X240831Y4440949D02*
G03*
X240815Y4440933I66320J-66320D01*
G01*
D02*
G03*
X213360Y4374629I66336J-66304D01*
G01*
X240815Y5827773D02*
G03*
X213360Y5761469I66336J-66304D01*
G01*
X240831Y5827789D02*
G03*
X240815Y5827773I66320J-66320D01*
G01*
X420432Y4558940D02*
X423332Y4561840D01*
X358821Y4558940D02*
X420432D01*
X240831Y4440949D02*
X358821Y4558940D01*
X240815Y4440933D02*
X240831Y4440949D01*
X213360Y4335780D02*
Y4374629D01*
X123360Y4335780D02*
Y4463940D01*
X213360Y5722620D02*
Y5761469D01*
X240815Y5827773D02*
X240831Y5827789D01*
X358821Y5945780D01*
X123360Y5722620D02*
Y5850780D01*
X420432Y5945780D02*
X423332Y5948680D01*
X358821Y5945780D02*
X420432D01*
D12*
X5972379Y3868060D02*
G03*
X5945865Y3857077I0J-37496D01*
G01*
X9385483Y3868060D02*
G03*
X9527581Y3926881I0J201050D01*
G01*
X9311640Y7556500D02*
G03*
X9385882Y7377228I253565J0D01*
G01*
X9410027Y7790894D02*
G03*
X9416114Y7788373I6087J6087D01*
G01*
X9332196Y7795496D02*
G03*
X9311640Y7745869I49628J-49628D01*
G01*
X9357357Y7805918D02*
G03*
X9332196Y7795496I0J-35583D01*
G01*
X9406383Y7794204D02*
G03*
X9373755Y7805918I-32628J-39581D01*
G01*
X9410027Y7790894D02*
G03*
X9406383Y7794204I-36271J-36271D01*
G01*
X9655599Y4054899D02*
G03*
X9688908Y4135315I-80416J80416D01*
G01*
X9713544Y6629264D02*
G03*
X9688908Y6569745I59581J-59519D01*
G01*
X9753134Y6943403D02*
G03*
X9706146Y7056964I-160723J0D01*
G01*
X9869114Y8002416D02*
G03*
X9883816Y7996326I14702J14702D01*
G01*
X9815502Y8008506D02*
G03*
X9796733Y8002184I0J-31023D01*
G01*
X9869114Y8002416D02*
G03*
X9854412Y8008506I-14702J-14702D01*
G01*
X10095279Y8040230D02*
G03*
X10080593Y8046314I-14686J-14686D01*
G01*
X10151438Y8034147D02*
G03*
X10173375Y8043233I0J31023D01*
G01*
X10095279Y8040230D02*
G03*
X10109966Y8034147I14686J14686D01*
G01*
X5893265Y3863510D02*
G03*
X5888242Y3861429I0J-7103D01*
G01*
X5894660Y3863510D02*
G03*
X5931068Y3878561I0J51561D01*
G01*
X5967579Y3893714D02*
G03*
X5931119Y3878612I0J-51562D01*
G01*
X9382760Y3893714D02*
G03*
X9511431Y3947011I0J181969D01*
G01*
X9313901Y7813480D02*
G03*
X9285986Y7746089I67392J-67392D01*
G01*
Y7551181D02*
G03*
X9364006Y7362824I266377J0D01*
G01*
X9314241Y7813821D02*
G03*
X9314152Y7813732I42982J-43160D01*
G01*
X9357222Y7831572D02*
G03*
X9314241Y7813821I0J-60911D01*
G01*
X9382722Y7831572D02*
G03*
X9402039Y7839574I0J27318D01*
G01*
X9629945Y4065525D02*
G03*
X9663254Y4145941I-80416J80416D01*
G01*
X9695367Y6647367D02*
G03*
X9695283Y6647283I77527J-77527D01*
G01*
X9727480Y6932776D02*
G03*
X9680405Y7046425I-160724J0D01*
G01*
X9695367Y6647367D02*
G03*
X9727480Y6724894I-77526J77526D01*
G01*
X9796733Y8040481D02*
G03*
X9815502Y8034160I18769J24702D01*
G01*
X10080593Y7996326D02*
G03*
X10095279Y8002410I0J20770D01*
G01*
X10173375Y7999407D02*
G03*
X10151438Y8008493I-21936J-21936D01*
G01*
X10109966D02*
G03*
X10095279Y8002410I0J-20770D01*
G01*
X9854412Y8034160D02*
G03*
X9869114Y8040249I0J20791D01*
G01*
X9883816Y8046339D02*
G03*
X9869114Y8040249I0J-20791D01*
G01*
X9695283Y6647283D02*
G03*
X9663254Y6570076I77611J-77444D01*
G01*
D02*
G03*
X9663254Y6569840I109640J-236D01*
G01*
X5931068Y3878561D02*
G03*
X5931119Y3878612I-36408J36510D01*
G01*
X10185400Y8052320D02*
G03*
X10180384Y8050242I0J-7094D01*
G01*
X9713693Y6629413D02*
G03*
X9753134Y6724799I-95622J95386D01*
G01*
X9713575Y6629295D02*
G03*
X9713693Y6629413I-95504J95504D01*
G01*
X9713575Y6629295D02*
G03*
X9713544Y6629264I59550J-59550D01*
G01*
X9706146Y7056964D02*
G03*
X9706059Y7057051I-113734J-113562D01*
G01*
X9527581Y3926881D02*
G03*
X9527646Y3926946I-142098J142229D01*
G01*
X5945865Y3857077D02*
G03*
X5934882Y3830563I26514J-26514D01*
G01*
X8932807Y4369054D02*
G03*
X8912654Y4360706I0J-28501D01*
G01*
X8991701Y4369054D02*
G03*
X9083019Y4406879I0J129143D01*
G01*
X9135873Y4459733D02*
G03*
X9189974Y4590345I-130613J130613D01*
G01*
X9197787Y6134126D02*
G03*
X9189974Y6115263I18863J-18863D01*
G01*
X9202963Y6146620D02*
G03*
X9189974Y6115263I31357J-31357D01*
G01*
X8912654Y4403056D02*
G03*
X8932807Y4394708I20153J20153D01*
G01*
X8981075D02*
G03*
X9072393Y4432533I0J129143D01*
G01*
X9164320Y6153069D02*
G03*
X9164184Y6141050I38643J-6449D01*
G01*
X9164320Y6139175D02*
G03*
X9164184Y6141050I-12954J0D01*
G01*
X9176276Y6181933D02*
G03*
X9164320Y6153069I28864J-28864D01*
G01*
X9110256Y4470396D02*
G03*
X9164320Y4600971I-130651J130575D01*
G01*
X9110219Y4470358D02*
G03*
X9110256Y4470396I-130613J130613D01*
G01*
X9010012Y6087030D02*
G03*
X8984388Y6148932I-87583J0D01*
G01*
X8984303Y6149017D02*
G03*
X8922428Y6174613I-61874J-61988D01*
G01*
X8968913Y4579447D02*
G03*
X9010012Y4678667I-99221J99221D01*
G01*
X8836577Y6174613D02*
G03*
X8820253Y6167852I0J-23085D01*
G01*
X8836006Y4514723D02*
G03*
X8952324Y4562857I0J164610D01*
G01*
X8389916Y4530818D02*
G03*
X8428773Y4514723I38857J38857D01*
G01*
X8820253Y6207028D02*
G03*
X8836577Y6200267I16324J16324D01*
G01*
X9035666Y6087356D02*
G03*
X9002730Y6166870I-112449J0D01*
G01*
X8994986Y6174615D02*
G03*
X8933055Y6200267I-61931J-61932D01*
G01*
X8836141Y4489069D02*
G03*
X8970447Y4544700I0J189937D01*
G01*
X8428773Y4489069D02*
G03*
X8389916Y4472974I0J-54952D01*
G01*
X8984359Y6148961D02*
G03*
X8984303Y6149017I-61931J-61932D01*
G01*
X8984388Y6148932D02*
G03*
X8984359Y6148961I-61959J-61902D01*
G01*
X8952324Y4562857D02*
G03*
X8952403Y4562936I-116318J116476D01*
G01*
X8994646Y4568899D02*
G03*
X9035666Y4668040I-99298J99142D01*
G01*
X8994568Y4568821D02*
G03*
X8994646Y4568899I-99220J99220D01*
G01*
X8389916Y4530818D02*
G03*
X8384900Y4532896I-5016J-5016D01*
G01*
Y4470896D02*
G03*
X8389916Y4472974I0J7094D01*
G01*
X9197727Y6472254D02*
G03*
X9081715Y6520307I-116011J-116011D01*
G01*
X8820260Y6527068D02*
G03*
X8836584Y6520307I16324J16324D01*
G01*
X9344914Y6221208D02*
G03*
X9271658Y6398322I-250737J0D01*
G01*
X9300210Y4319717D02*
G03*
X9344914Y4427642I-107925J107925D01*
G01*
X9123741Y4229100D02*
G03*
X9270200Y4289707I0J207264D01*
G01*
X8838096Y4245444D02*
G03*
X8877654Y4229100I39558J39699D01*
G01*
X8310929Y4299953D02*
G03*
X8310982Y4299900I85695J85695D01*
G01*
X8352419Y4634738D02*
G03*
X8306983Y4615949I0J-64334D01*
G01*
X8832818Y4250722D02*
G03*
X8799613Y4264457I-33205J-33269D01*
G01*
X8310982Y4299900D02*
G03*
X8396624Y4264457I85642J85749D01*
G01*
X8299491Y4608457D02*
G03*
X8272301Y4542815I65641J-65641D01*
G01*
Y4392763D02*
G03*
X8310595Y4300287I130807J0D01*
G01*
D02*
G03*
X8310613Y4300269I92513J92476D01*
G01*
X8399087Y4634738D02*
G03*
X8437944Y4650833I0J54952D01*
G01*
X9319260Y6221045D02*
G03*
X9253220Y6380480I-225475J0D01*
G01*
X9187100Y6446600D02*
G03*
X9071089Y6494653I-116011J-116011D01*
G01*
X9113115Y4254754D02*
G03*
X9259574Y4315361I0J207264D01*
G01*
X8836584Y6494653D02*
G03*
X8820260Y6487892I0J-23085D01*
G01*
X8850802Y4269017D02*
G03*
X8799877Y4290111I-50925J-50925D01*
G01*
X8856070Y4263750D02*
G03*
X8877789Y4254754I21719J21719D01*
G01*
X8352625Y4609084D02*
G03*
X8324984Y4597671I0J-39178D01*
G01*
X8317767Y4590454D02*
G03*
X8297955Y4542581I47932J-47873D01*
G01*
X8328911Y4318251D02*
G03*
X8328981Y4318182I67936J67936D01*
G01*
X8328856Y4318307D02*
G03*
X8328911Y4318251I74791J74679D01*
G01*
X8328981Y4318182D02*
G03*
X8396847Y4290111I67866J68005D01*
G01*
X8297955Y4392986D02*
G03*
X8328856Y4318307I105691J0D01*
G01*
X8437944Y4592989D02*
G03*
X8399087Y4609084I-38857J-38857D01*
G01*
X9271658Y6398322D02*
G03*
X9271475Y6398505I-177481J-177114D01*
G01*
X9270200Y4289707D02*
G03*
X9270299Y4289806I-146458J146657D01*
G01*
X8832850Y4250690D02*
G03*
X8832818Y4250722I-33237J-33237D01*
G01*
X8838025Y4245514D02*
G03*
X8838096Y4245444I39628J39628D01*
G01*
X8306983Y4615949D02*
G03*
X8306929Y4615895I45437J-45545D01*
G01*
X9281921Y4337708D02*
G03*
X9319260Y4427958I-90399J90249D01*
G01*
X9281847Y4337634D02*
G03*
X9281921Y4337708I-90324J90324D01*
G01*
X9259574Y4315361D02*
G03*
X9259673Y4315460I-146458J146657D01*
G01*
X8324984Y4597671D02*
G03*
X8324923Y4597609I27641J-27764D01*
G01*
X8317797Y4590483D02*
G03*
X8317767Y4590454I47902J-47902D01*
G01*
X8442960Y4652911D02*
G03*
X8437944Y4650833I0J-7094D01*
G01*
Y4592989D02*
G03*
X8442960Y4590911I5016J5016D01*
G01*
X8720014Y8334121D02*
G03*
X8729174Y8337915I0J12955D01*
G01*
X8666657Y5359656D02*
G03*
X8699777Y5279606I113297J0D01*
G01*
X8649957Y5726443D02*
G03*
X8650028Y5726371I40071J39928D01*
G01*
X8666657Y5686270D02*
G03*
X8650071Y5726329I-56670J0D01*
G01*
D02*
G03*
X8650058Y5726342I-40085J-40059D01*
G01*
X8905661Y4782399D02*
G03*
X8924521Y4827929I-45530J45530D01*
G01*
Y5135344D02*
G03*
X8892751Y5212145I-108717J0D01*
G01*
X8896753Y4773490D02*
G03*
X8896771Y4773509I-45568J45605D01*
G01*
X8851185Y4754626D02*
G03*
X8896753Y4773490I0J64469D01*
G01*
X8707522Y5271861D02*
G03*
X8803499Y5232146I95977J96113D01*
G01*
X8892689Y5212207D02*
G03*
X8844465Y5232146I-48224J-48349D01*
G01*
X8676647Y8334121D02*
G03*
X8593455Y8299662I0J-117651D01*
G01*
X8633460Y7052919D02*
G03*
X8606125Y7119015I-93578J0D01*
G01*
X8633460Y5766371D02*
G03*
X8649957Y5726443I56568J0D01*
G01*
X8523986Y7278450D02*
G03*
X8578514Y7146626I186610J0D01*
G01*
X8394637Y4770721D02*
G03*
X8433493Y4754626I38857J38857D01*
G01*
X8729174Y8304673D02*
G03*
X8720014Y8308467I-9160J-9160D01*
G01*
X8732968Y8295512D02*
G03*
X8729174Y8304673I-12955J0D01*
G01*
X8692311Y5370282D02*
G03*
X8725431Y5290232I113297J0D01*
G01*
X8692311Y5686404D02*
G03*
X8668341Y5744339I-81999J0D01*
G01*
X8923959Y4764416D02*
G03*
X8950174Y4827706I-63290J63290D01*
G01*
X8950175Y5135714D02*
G03*
X8911080Y5230096I-133476J0D01*
G01*
X8852366Y4728972D02*
G03*
X8914027Y4754484I0J87270D01*
G01*
X8725495Y5290168D02*
G03*
X8803640Y5257800I78145J78145D01*
G01*
X8910713Y5230463D02*
G03*
X8844716Y5257800I-65997J-65997D01*
G01*
X8681960Y8308467D02*
G03*
X8607838Y8277764I0J-104825D01*
G01*
X8659114Y7053014D02*
G03*
X8624259Y7137161I-119002J0D01*
G01*
X8659114Y5766548D02*
G03*
X8668276Y5744404I31342J0D01*
G01*
X8576180Y8246107D02*
G03*
X8549640Y8181940I64299J-64167D01*
G01*
Y7278564D02*
G03*
X8596863Y7164557I161230J0D01*
G01*
X8433493Y4728972D02*
G03*
X8394637Y4712877I0J-54952D01*
G01*
X8729174Y8337915D02*
G03*
X8732968Y8347076I-9160J9160D01*
G01*
X8699777Y5279606D02*
G03*
X8699841Y5279542I80177J80049D01*
G01*
X8707454Y5271929D02*
G03*
X8707522Y5271861I96045J96045D01*
G01*
X8892751Y5212145D02*
G03*
X8892689Y5212207I-48286J-48287D01*
G01*
X8578514Y7146626D02*
G03*
X8578642Y7146497I132082J131825D01*
G01*
X8606125Y7119015D02*
G03*
X8606051Y7119089I-66243J-66096D01*
G01*
X8558010Y8264217D02*
G03*
X8557927Y8264134I82142J-82142D01*
G01*
D02*
G03*
X8523986Y8182318I82225J-82059D01*
G01*
D02*
G03*
X8523986Y8182075I116166J-243D01*
G01*
X8668276Y5744404D02*
G03*
X8668294Y5744386I22180J22144D01*
G01*
X8668341Y5744339D02*
G03*
X8668294Y5744386I-58029J-57935D01*
G01*
X8914027Y4754484D02*
G03*
X8914076Y4754533I-61661J61758D01*
G01*
X8725431Y5290232D02*
G03*
X8725495Y5290168I80177J80049D01*
G01*
X8576246Y8246173D02*
G03*
X8576180Y8246107I64233J-64233D01*
G01*
X8394636Y4770721D02*
G03*
X8389620Y4772799I-5016J-5016D01*
G01*
Y4710799D02*
G03*
X8394636Y4712877I0J7094D01*
G01*
X7784846Y5740400D02*
G03*
X7856091Y5568337I243397J0D01*
G01*
X7921879Y5422638D02*
G03*
X7865374Y5559054I-192921J0D01*
G01*
X7738006Y6003394D02*
G03*
X7692267Y6022340I-45739J-45739D01*
G01*
X7784846Y5912012D02*
G03*
X7753424Y5987976I-107534J0D01*
G01*
X7248421Y6136010D02*
G03*
X7155180Y6174613I-93241J-93306D01*
G01*
X7097453D02*
G03*
X7058597Y6158518I0J-54952D01*
G01*
X7291469Y6092962D02*
G03*
X7291597Y6092834I170497J170497D01*
G01*
X7912793Y5097105D02*
G03*
X7921879Y5119042I-21936J21936D01*
G01*
X7947533Y5422823D02*
G03*
X7883645Y5577062I-218127J0D01*
G01*
X7810500Y5912214D02*
G03*
X7771633Y6006047I-132701J0D01*
G01*
X7810500Y5751026D02*
G03*
X7881790Y5578918I243398J0D01*
G01*
X7058597Y6216362D02*
G03*
X7097453Y6200267I38857J38857D01*
G01*
X7309609Y6111102D02*
G03*
X7461966Y6047994I152357J152357D01*
G01*
X7755947Y6021733D02*
G03*
X7692548Y6047994I-63399J-63399D01*
G01*
X7266379Y6154331D02*
G03*
X7155482Y6200267I-110898J-110898D01*
G01*
X7947533Y5119042D02*
G03*
X7956620Y5097105I31023J0D01*
G01*
X7856091Y5568337D02*
G03*
X7856135Y5568292I172153J172063D01*
G01*
X7753424Y5987976D02*
G03*
X7753350Y5988050I-76112J-75964D01*
G01*
X7053580Y6156440D02*
G03*
X7058596Y6158518I0J7094D01*
G01*
X7291597Y6092834D02*
G03*
X7461616Y6022340I170369J170625D01*
G01*
D02*
G03*
X7461966Y6022340I350J241119D01*
G01*
X7248453Y6135978D02*
G03*
X7248421Y6136010I-93273J-93273D01*
G01*
X7058596Y6216362D02*
G03*
X7053580Y6218440I-5016J-5016D01*
G01*
X7965706Y5085080D02*
G03*
X7963628Y5090096I-7094J0D01*
G01*
X7905784D02*
G03*
X7903706Y5085080I5016J-5016D01*
G01*
X8181594Y5512108D02*
G03*
X8131192Y5633788I-172082J0D01*
G01*
X8152070Y5134550D02*
G03*
X8123174Y5064704I69966J-69846D01*
G01*
X8006715Y6190992D02*
G03*
X7954080Y6318063I-179706J0D01*
G01*
X8006715Y5853068D02*
G03*
X8073750Y5691230I228873J0D01*
G01*
X8085247Y4940007D02*
G03*
X8085392Y4940152I-91563J91563D01*
G01*
X8018078Y4912106D02*
G03*
X8085112Y4939873I0J94800D01*
G01*
X7829973Y4942205D02*
G03*
X7902638Y4912106I72665J72665D01*
G01*
X7232112Y6489688D02*
G03*
X7158186Y6520307I-73925J-73933D01*
G01*
X7061137Y6536402D02*
G03*
X7099993Y6520307I38857J38857D01*
G01*
X7911749Y6360394D02*
G03*
X7789673Y6410960I-122076J-122076D01*
G01*
X7244566Y6477234D02*
G03*
X7404566Y6410960I160000J160001D01*
G01*
X7783691Y5041900D02*
G03*
X7785769Y5036884I7094J0D01*
G01*
X7801864Y5007938D02*
G03*
X7792778Y5029875I-31023J0D01*
G01*
X7819683Y4952495D02*
G03*
X7819709Y4952468I43109J43056D01*
G01*
X7801864Y4995551D02*
G03*
X7819683Y4952495I60928J0D01*
G01*
X8155940Y5511695D02*
G03*
X8112829Y5615871I-147426J0D01*
G01*
X7981061Y6190810D02*
G03*
X7935812Y6300052I-154491J0D01*
G01*
X8133621Y5152381D02*
G03*
X8140790Y5160664I-53884J53884D01*
G01*
X8133621Y5152381D02*
G03*
X8133595Y5152355I87155J-87155D01*
G01*
D02*
G03*
X8097520Y5065226I87181J-87129D01*
G01*
X8067040Y4958080D02*
G03*
X8097520Y5031665I-73585J73585D01*
G01*
X8067015Y4958055D02*
G03*
X8067040Y4958080I-49032J49082D01*
G01*
X8017983Y4937760D02*
G03*
X8067015Y4958055I0J69377D01*
G01*
X7221490Y6464031D02*
G03*
X7147560Y6494653I-73930J-73930D01*
G01*
X7893833Y6342030D02*
G03*
X7789260Y6385306I-104574J-104711D01*
G01*
X7233940Y6451580D02*
G03*
X7393940Y6385306I160000J160000D01*
G01*
X7099993Y6494653D02*
G03*
X7061137Y6478558I0J-54952D01*
G01*
X7845173Y4963285D02*
G03*
X7906809Y4937760I61847J62164D01*
G01*
X7836604Y5029875D02*
G03*
X7827518Y5007938I21936J-21936D01*
G01*
X7841576Y4966882D02*
G03*
X7841607Y4966851I34043J33982D01*
G01*
X7827518Y5000864D02*
G03*
X7841576Y4966882I48102J0D01*
G01*
X8152130Y5134610D02*
G03*
X8181594Y5205743I-71132J71132D01*
G01*
X8152130Y5134610D02*
G03*
X8152070Y5134550I69906J-69906D01*
G01*
X8085392Y4940152D02*
G03*
X8123174Y5031570I-91708J91418D01*
G01*
X7061136Y6536402D02*
G03*
X7056120Y6538480I-5016J-5016D01*
G01*
X7981061Y5852954D02*
G03*
X7990479Y5784394I254253J0D01*
G01*
D02*
G03*
X8055374Y5673326I244835J68560D01*
G01*
X8112829Y5615871D02*
G03*
X8112760Y5615940I-104314J-104177D01*
G01*
X8055374Y5673326D02*
G03*
X8055530Y5673170I179940J179628D01*
G01*
X8140790Y5160664D02*
G03*
X8155940Y5206265I-61053J45601D01*
G01*
X7906809Y4937760D02*
G03*
X7907020Y4937760I211J87689D01*
G01*
X7893902Y6341962D02*
G03*
X7893833Y6342030I-104642J-104642D01*
G01*
X7056120Y6476480D02*
G03*
X7061136Y6478558I0J7094D01*
G01*
X7843613Y5036884D02*
G03*
X7845691Y5041900I-5016J5016D01*
G01*
X7899146Y5755374D02*
G03*
X7952530Y5626310I182708J0D01*
G01*
X7899146Y6138022D02*
G03*
X7859452Y6233852I-135524J0D01*
G01*
X8041894Y5473725D02*
G03*
X7997190Y5581650I-152629J0D01*
G01*
X7859452Y6233852D02*
G03*
X7755478Y6276920I-103974J-103974D01*
G01*
X7525558D02*
G03*
X7500355Y6266494I0J-35678D01*
G01*
D02*
G03*
X7500330Y6266470I25203J-25253D01*
G01*
X7465320Y6248051D02*
G03*
X7493643Y6259783I0J40056D01*
G01*
X7465061Y6248051D02*
G03*
X7457200Y6247260I0J-39431D01*
G01*
D02*
G03*
X7437178Y6236502I7860J-38640D01*
G01*
X7435146Y6234469D02*
G03*
X7425629Y6211494I22975J-22975D01*
G01*
X7447730Y6194229D02*
G03*
X7447743Y6194241I-9147J9172D01*
G01*
X7438583Y6190447D02*
G03*
X7447730Y6194229I0J12953D01*
G01*
X7425629Y6203402D02*
G03*
X7429423Y6194241I12955J0D01*
G01*
X7429424Y6194241D02*
G03*
X7438583Y6190447I9159J9159D01*
G01*
X8032808Y5300305D02*
G03*
X8041894Y5322242I-21936J21936D01*
G01*
X7876072Y6253511D02*
G03*
X7757626Y6302574I-118446J-118446D01*
G01*
X7524388D02*
G03*
X7483063Y6285482I0J-58507D01*
G01*
X7924800Y5755487D02*
G03*
X7970880Y5644240I157328J0D01*
G01*
X7924800Y6138166D02*
G03*
X7877694Y6251890I-160831J0D01*
G01*
X7454693Y6273705D02*
G03*
X7483017Y6285437I0J40056D01*
G01*
X8067548Y5474111D02*
G03*
X8015603Y5599517I-177351J0D01*
G01*
X7454693Y6273705D02*
G03*
X7435369Y6268735I0J-40057D01*
G01*
X7451499Y6157242D02*
G03*
X7433270Y6164793I-18230J-18230D01*
G01*
X7415050Y6172334D02*
G03*
X7433270Y6164793I18220J18239D01*
G01*
X7399975Y6203248D02*
G03*
X7411175Y6176210I38238J0D01*
G01*
X7416910Y6252513D02*
G03*
X7399975Y6211629I40884J-40884D01*
G01*
X7415041Y6172344D02*
G03*
X7415050Y6172334I18229J18229D01*
G01*
X8067548Y5322242D02*
G03*
X8076634Y5300305I31023J0D01*
G01*
X7952530Y5626310D02*
G03*
X7952660Y5626180I129324J129064D01*
G01*
X7465060Y6208620D02*
G03*
X7460044Y6206542I0J-7094D01*
G01*
X7483063Y6285482D02*
G03*
X7483018Y6285437I41326J-41416D01*
G01*
X7460044Y6148698D02*
G03*
X7465060Y6146620I5016J5016D01*
G01*
X7435369Y6268735D02*
G03*
X7426369Y6261973I19324J-35087D01*
G01*
X8085721Y5288280D02*
G03*
X8083643Y5293296I-7094J0D01*
G01*
X8025799D02*
G03*
X8023721Y5288280I5016J-5016D01*
G01*
X6178996Y3785124D02*
G03*
X6190387Y3780405I11392J11392D01*
G01*
X6174277Y3812605D02*
G03*
X6172200Y3817620I-7093J0D01*
G01*
X6174277Y3796515D02*
G03*
X6178462Y3785684I16109J0D01*
G01*
X9478108Y3798932D02*
G03*
X9608819Y3853030I0J184960D01*
G01*
X9718115Y3962326D02*
G03*
X9766528Y4079205I-116879J116879D01*
G01*
X9736613Y7171542D02*
G03*
X9766286Y7099765I101649J0D01*
G01*
X9729036Y7232225D02*
G03*
X9729025Y7232236I-18331J-18309D01*
G01*
X9736613Y7213916D02*
G03*
X9729036Y7232225I-25909J0D01*
G01*
X9724440Y7321750D02*
G03*
X9726202Y7317497I6014J0D01*
G01*
X9727963Y7275782D02*
G03*
X9724440Y7267277I8505J-8505D01*
G01*
Y7238250D02*
G03*
X9726202Y7233997I6014J0D01*
G01*
Y7357521D02*
G03*
X9724440Y7353268I4253J-4253D01*
G01*
X9732819Y7279577D02*
G03*
X9736613Y7288737I-9160J9160D01*
G01*
Y7297416D02*
G03*
X9729025Y7315736I-25909J0D01*
G01*
Y7359282D02*
G03*
X9736613Y7377602I-18320J18320D01*
G01*
X9736613Y7413318D02*
G03*
X9727527Y7435255I-31023J0D01*
G01*
X9806405Y6407895D02*
G03*
X9829673Y6351658I79593J0D01*
G01*
X9810864Y5591924D02*
G03*
X9855200Y5698961I-107037J107037D01*
G01*
X9855200Y6302254D02*
G03*
X9838317Y6343014I-57644J0D01*
G01*
X9832086Y6991464D02*
G03*
X9802033Y7064017I-102606J-1D01*
G01*
X10080593Y7796327D02*
G03*
X10095279Y7802410I0J20770D01*
G01*
X10109966Y7808493D02*
G03*
X10095279Y7802410I0J-20770D01*
G01*
X10109966Y7808493D02*
G03*
X10120659Y7814137I0J12954D01*
G01*
X10139334Y7838903D02*
G03*
X10130005Y7827681I57865J-57587D01*
G01*
X10175483Y7556779D02*
G03*
X10181013Y7556500I5530J54673D01*
G01*
D02*
G03*
X10221046Y7573063I0J56661D01*
G01*
X10197198Y7862952D02*
G03*
X10139611Y7839180I0J-81637D01*
G01*
X10296397Y7819432D02*
G03*
X10282456Y7853143I-47731J0D01*
G01*
X10282376Y7853224D02*
G03*
X10258832Y7862952I-23544J-23626D01*
G01*
X10282456Y7853143D02*
G03*
X10282417Y7853183I-33791J-33711D01*
G01*
D02*
G03*
X10282376Y7853224I-23585J-23585D01*
G01*
X6164613Y3763227D02*
G03*
X6185074Y3754751I20461J20461D01*
G01*
X6164613Y3763227D02*
G03*
X6144152Y3771702I-20461J-20461D01*
G01*
X6128359Y3773779D02*
G03*
X6133374Y3771702I5015J5015D01*
G01*
X9488734Y3773278D02*
G03*
X9619445Y3827376I0J184960D01*
G01*
X9762267Y7171677D02*
G03*
X9784621Y7117710I76321J0D01*
G01*
X9743769Y3951700D02*
G03*
X9792182Y4068578I-116879J116879D01*
G01*
X9769845Y7232225D02*
G03*
X9762267Y7213916I18331J-18309D01*
G01*
Y7288737D02*
G03*
X9766061Y7279577I12955J0D01*
G01*
X9769856Y7232236D02*
G03*
X9769845Y7232225I18320J-18320D01*
G01*
X9769856Y7315736D02*
G03*
X9762267Y7297416I18320J-18320D01*
G01*
Y7377602D02*
G03*
X9769856Y7359282I25909J0D01*
G01*
X9774440Y7267277D02*
G03*
X9770917Y7275782I-12028J0D01*
G01*
X9771354Y7435255D02*
G03*
X9762267Y7413318I21936J-21936D01*
G01*
X9772679Y7233997D02*
G03*
X9774440Y7238250I-4253J4253D01*
G01*
X9810626Y5555406D02*
G03*
X9792182Y5510877I44530J-44530D01*
G01*
X9772679Y7317497D02*
G03*
X9774440Y7321750I-4253J4253D01*
G01*
Y7353268D02*
G03*
X9772679Y7357521I-6014J0D01*
G01*
X9880854Y6302368D02*
G03*
X9856538Y6361073I-83021J0D01*
G01*
X9839605Y6601105D02*
G03*
X9832059Y6582837I18338J-18268D01*
G01*
X9857740Y6991619D02*
G03*
X9820283Y7082048I-127885J-0D01*
G01*
X9832059Y6408117D02*
G03*
X9847962Y6369649I54477J0D01*
G01*
X10100489Y7839819D02*
G03*
X10110848Y7844994I0J12955D01*
G01*
X10095279Y7840231D02*
G03*
X10080593Y7846314I-14686J-14686D01*
G01*
X10181013Y7530846D02*
G03*
X10175483Y7530567I0J-54952D01*
G01*
X10181235Y7530846D02*
G03*
X10239061Y7554798I0J81778D01*
G01*
X10197198Y7888606D02*
G03*
X10110848Y7844994I0J-107291D01*
G01*
X10298302Y7873578D02*
G03*
X10262021Y7888606I-36281J-36281D01*
G01*
X10273880Y7589617D02*
G03*
X10322051Y7705911I-116294J116294D01*
G01*
X10322051Y7819572D02*
G03*
X10300656Y7871223I-73046J0D01*
G01*
X10255570Y7607587D02*
G03*
X10296397Y7706227I-98745J98640D01*
G01*
X10139611Y7839180D02*
G03*
X10139334Y7838903I57587J-57865D01*
G01*
X10255517Y7607534D02*
G03*
X10255570Y7607587I-98692J98692D01*
G01*
X10221046Y7573063D02*
G03*
X10221079Y7573096I-40033J40098D01*
G01*
X10142156Y7572595D02*
G03*
X10137140Y7574673I-5016J-5016D01*
G01*
X10142156Y7572595D02*
G03*
X10175483Y7556779I38857J38857D01*
G01*
X9766286Y7099765D02*
G03*
X9766385Y7099665I71975J71777D01*
G01*
X9821361Y6619141D02*
G03*
X9832086Y6644967I-25732J25826D01*
G01*
X9829673Y6351658D02*
G03*
X9829717Y6351614I56324J56237D01*
G01*
X9821361Y6619141D02*
G03*
X9806405Y6583094I36352J-36209D01*
G01*
D02*
G03*
X9806404Y6582932I51308J-162D01*
G01*
X9792419Y5573479D02*
G03*
X9792277Y5573337I62507J-62507D01*
G01*
D02*
G03*
X9766528Y5511184I62648J-62365D01*
G01*
D02*
G03*
X9766527Y5510972I88398J-212D01*
G01*
X9608819Y3853030D02*
G03*
X9608895Y3853106I-130711J130863D01*
G01*
X6178462Y3785684D02*
G03*
X6178996Y3785124I11924J10831D01*
G01*
X10175483Y7530567D02*
G03*
X10142156Y7514751I5530J-54673D01*
G01*
X10137140Y7512673D02*
G03*
X10142156Y7514751I0J7094D01*
G01*
X9839605Y6601105D02*
G03*
X9857740Y6644849I-43691J43744D01*
G01*
X9847962Y6369649D02*
G03*
X9848015Y6369596I38574J38469D01*
G01*
X9829208Y5573988D02*
G03*
X9880854Y5698866I-125152J124877D01*
G01*
X9829071Y5573851D02*
G03*
X9829208Y5573988I-125015J125015D01*
G01*
X9619445Y3827376D02*
G03*
X9619521Y3827452I-130711J130863D01*
G01*
X10399893Y8041578D02*
G03*
X10370117Y8113464I-101662J0D01*
G01*
X10351516Y7563105D02*
G03*
X10399893Y7679897I-116793J116793D01*
G01*
X10370064Y8113516D02*
G03*
X10298230Y8143240I-71834J-71939D01*
G01*
X10214062Y7425650D02*
G03*
X10200913Y7393906I31744J-31744D01*
G01*
X10197119Y7282347D02*
G03*
X10200913Y7291508I-9160J9160D01*
G01*
Y7300187D02*
G03*
X10193324Y7318507I-25909J0D01*
G01*
X10197119Y7365847D02*
G03*
X10200913Y7375008I-9160J9160D01*
G01*
X10192263Y7362053D02*
G03*
X10192249Y7362040I8505J-8505D01*
G01*
D02*
G03*
X10188740Y7353548I8519J-8492D01*
G01*
X10192263Y7278553D02*
G03*
X10188740Y7270048I8505J-8505D01*
G01*
Y7324521D02*
G03*
X10190501Y7320268I6014J0D01*
G01*
X10312400Y7007086D02*
G03*
X10270161Y7109079I-144260J0D01*
G01*
X10247646Y5543533D02*
G03*
X10312400Y5699863I-156329J156329D01*
G01*
X10193335Y7234996D02*
G03*
X10193324Y7235007I-18331J-18309D01*
G01*
X10200913Y7216687D02*
G03*
X10193335Y7234996I-25909J0D01*
G01*
X10188740Y7241021D02*
G03*
X10190501Y7236768I6014J0D01*
G01*
X10232010Y4311058D02*
G03*
X10202626Y4382054I-100461J0D01*
G01*
X10200913Y7216485D02*
G03*
X10227826Y7151414I92123J0D01*
G01*
X10192870Y3952390D02*
G03*
X10232010Y4046882I-94492J94492D01*
G01*
X10213340Y5156649D02*
G03*
X10165164Y5272956I-164484J0D01*
G01*
X10134298Y8173106D02*
G03*
X10215810Y8143240I81512J96298D01*
G01*
X10126265Y5366867D02*
G03*
X10165085Y5273035I132809J0D01*
G01*
X10132060Y4510745D02*
G03*
X10173161Y4411520I140326J0D01*
G01*
X10134014Y8173247D02*
G03*
X10085585Y8193307I-48429J-48429D01*
G01*
X10054196Y8196326D02*
G03*
X10061485Y8193307I7289J7289D01*
G01*
X10126265Y5367359D02*
G03*
X10126264Y5367099I132909J-260D01*
G01*
X10146648Y3906167D02*
G03*
X10117179Y3834965I71285J-71203D01*
G01*
X10095182Y3771233D02*
G03*
X10117179Y3824338I-53105J53105D01*
G01*
X9703618Y3484880D02*
G03*
X9883224Y3559275I0J254000D01*
G01*
X6100502Y3460341D02*
G03*
X6108053Y3478570I-18230J18230D01*
G01*
X6115594Y3496790D02*
G03*
X6108053Y3478570I18239J-18220D01*
G01*
X6115604Y3496799D02*
G03*
X6115594Y3496790I18229J-18229D01*
G01*
X6146496Y3511865D02*
G03*
X6119478Y3500673I0J-38210D01*
G01*
X6219317Y3498372D02*
G03*
X6186743Y3511865I-32574J-32574D01*
G01*
X6219317Y3498372D02*
G03*
X6251890Y3484880I32574J32574D01*
G01*
X10425547Y8041914D02*
G03*
X10388495Y8131365I-126504J0D01*
G01*
X10369866Y7545175D02*
G03*
X10425547Y7679600I-134425J134425D01*
G01*
X10388007Y8131853D02*
G03*
X10298582Y8168894I-89425J-89425D01*
G01*
X10236979Y7320268D02*
G03*
X10238740Y7324521I-4253J4253D01*
G01*
Y7270048D02*
G03*
X10235217Y7278553I-12028J0D01*
G01*
X10238740Y7353548D02*
G03*
X10235230Y7362040I-12028J0D01*
G01*
D02*
G03*
X10235217Y7362053I-8519J-8492D01*
G01*
X10232309Y7407617D02*
G03*
X10226567Y7393755I13862J-13862D01*
G01*
Y7375008D02*
G03*
X10230361Y7365847I12955J0D01*
G01*
X10234155Y7318507D02*
G03*
X10226567Y7300187I18320J-18320D01*
G01*
Y7291508D02*
G03*
X10230361Y7282347I12955J0D01*
G01*
X10338054Y7007482D02*
G03*
X10288568Y7126952I-168957J0D01*
G01*
X10226567Y7216687D02*
G03*
X10246141Y7169379I66955J0D01*
G01*
X10257664Y4311231D02*
G03*
X10220848Y4400112I-125697J0D01*
G01*
X10238994Y5156834D02*
G03*
X10183485Y5290915I-189691J0D01*
G01*
X10211215Y3934455D02*
G03*
X10257664Y4046593I-112138J112138D01*
G01*
X10236979Y7236768D02*
G03*
X10238740Y7241021I-4253J4253D01*
G01*
X10234155Y7235007D02*
G03*
X10234144Y7234996I18320J-18320D01*
G01*
D02*
G03*
X10226567Y7216687I18331J-18309D01*
G01*
X10183485Y5290915D02*
G03*
X10183435Y5290965I-134181J-134082D01*
G01*
X10198555Y4638495D02*
G03*
X10238994Y4736123I-97629J97629D01*
G01*
X10144643Y8198428D02*
G03*
X10215945Y8168894I71302J71302D01*
G01*
X10183401Y5443007D02*
G03*
X10151919Y5367004I76004J-76004D01*
G01*
D02*
G03*
X10183401Y5290999I107486J0D01*
G01*
X10178106Y4618045D02*
G03*
X10157714Y4568775I49329J-49271D01*
G01*
Y4521372D02*
G03*
X10198753Y4422208I140327J0D01*
G01*
X10172343Y3895583D02*
G03*
X10142833Y3824338I71244J-71244D01*
G01*
X10113481Y3753253D02*
G03*
X10142832Y3824113I-70860J70860D01*
G01*
X10113214Y8225307D02*
G03*
X10107983Y8227526I-9018J-13981D01*
G01*
X10107982D02*
G03*
X10062628Y8246313I-45354J-45354D01*
G01*
X10134817Y8208663D02*
G03*
X10134180Y8209360I-9871J-8389D01*
G01*
D02*
G03*
X10134162Y8209378I-9233J-9087D01*
G01*
X9703754Y3459226D02*
G03*
X9901268Y3541039I0J279328D01*
G01*
X6137489Y3464110D02*
G03*
X6137501Y3464097I9172J9147D01*
G01*
X6133707Y3473257D02*
G03*
X6137489Y3464110I12953J0D01*
G01*
X6137501Y3482416D02*
G03*
X6133707Y3473257I9159J-9159D01*
G01*
X6146662Y3486211D02*
G03*
X6137501Y3482417I0J-12955D01*
G01*
X6208691Y3472718D02*
G03*
X6176117Y3486211I-32574J-32574D01*
G01*
X6208691Y3472718D02*
G03*
X6241264Y3459226I32574J32574D01*
G01*
X10370117Y8113464D02*
G03*
X10370064Y8113516I-71887J-71887D01*
G01*
X10227826Y7151414D02*
G03*
X10227895Y7151345I65210J65071D01*
G01*
X10202626Y4382054D02*
G03*
X10202586Y4382095I-71077J-70996D01*
G01*
X10165193Y5461080D02*
G03*
X10165160Y5461047I93981J-93981D01*
G01*
X10165085Y5273035D02*
G03*
X10165164Y5272956I93989J93832D01*
G01*
X10165160Y5461047D02*
G03*
X10126265Y5367359I94014J-93948D01*
G01*
X10180244Y4656464D02*
G03*
X10213340Y4736407I-80002J79942D01*
G01*
X10180214Y4656434D02*
G03*
X10180244Y4656464I-79972J79972D01*
G01*
X10159927Y4636147D02*
G03*
X10159775Y4635995I67277J-67277D01*
G01*
D02*
G03*
X10132060Y4569090I67429J-67125D01*
G01*
D02*
G03*
X10132060Y4568870I95144J-220D01*
G01*
X10146689Y3906209D02*
G03*
X10146648Y3906167I71244J-71244D01*
G01*
X10266073Y5525680D02*
G03*
X10338054Y5699768I-174527J174087D01*
G01*
X10246141Y7169379D02*
G03*
X10246177Y7169343I47380J47308D01*
G01*
X10265854Y5525460D02*
G03*
X10266073Y5525680I-174307J174307D01*
G01*
X10198753Y4422208D02*
G03*
X10198815Y4422145I99288J99164D01*
G01*
X10178135Y4618074D02*
G03*
X10178106Y4618045I49300J-49300D01*
G01*
X10143165Y8200116D02*
G03*
X10142856Y8200403I-8969J-9348D01*
G01*
X10139611Y8203460D02*
G03*
X10142856Y8200403I57587J57865D01*
G01*
X10128331Y8215209D02*
G03*
X10126193Y8216935I-9159J-9160D01*
G01*
X10139334Y8203737D02*
G03*
X10139611Y8203460I57865J57587D01*
G01*
X10134817Y8208663D02*
G03*
X10139334Y8203737I62381J52662D01*
G01*
X6151880Y3446780D02*
G03*
X6149802Y3451796I-7094J0D01*
G01*
X6091958D02*
G03*
X6089880Y3446780I5016J-5016D01*
G01*
X10047119Y7365847D02*
G03*
X10050913Y7375008I-9160J9160D01*
G01*
Y7300187D02*
G03*
X10043325Y7318507I-25909J0D01*
G01*
X10050913Y7392102D02*
G03*
X10035031Y7430445I-54225J0D01*
G01*
X10047119Y7282347D02*
G03*
X10050913Y7291508I-9160J9160D01*
G01*
X10042263Y7362053D02*
G03*
X10042249Y7362040I8505J-8505D01*
G01*
X10038740Y7324521D02*
G03*
X10040501Y7320268I6014J0D01*
G01*
X10042249Y7362040D02*
G03*
X10038740Y7353548I8519J-8492D01*
G01*
Y7241021D02*
G03*
X10040501Y7236768I6014J0D01*
G01*
X10042263Y7278553D02*
G03*
X10038740Y7270048I8505J-8505D01*
G01*
X10210800Y6890525D02*
G03*
X10143393Y7053383I-230440J0D01*
G01*
X10150282Y5602799D02*
G03*
X10210800Y5748903I-146104J146104D01*
G01*
X10050913Y7181074D02*
G03*
X10075747Y7121029I85006J0D01*
G01*
X10103606Y5062137D02*
G03*
X10078106Y5123794I-87291J0D01*
G01*
X10065763Y4780743D02*
G03*
X10103606Y4872104I-91361J91361D01*
G01*
X10050913Y7216687D02*
G03*
X10043336Y7234996I-25909J0D01*
G01*
D02*
G03*
X10043325Y7235007I-18331J-18309D01*
G01*
X10065642Y4780622D02*
G03*
X10027920Y4689554I91068J-91068D01*
G01*
X10073314Y4308611D02*
G03*
X10057973Y4345647I-52376J0D01*
G01*
X10057952Y4345668D02*
G03*
X10057973Y4345647I72576J72534D01*
G01*
X10050437Y4046597D02*
G03*
X10073314Y4101827I-55230J55230D01*
G01*
X10027920Y4418201D02*
G03*
X10057952Y4345668I102608J0D01*
G01*
X9883806Y7846314D02*
G03*
X9869120Y7840231I0J-20770D01*
G01*
X9853436Y7845151D02*
G03*
X9863910Y7839819I10474J7622D01*
G01*
X9944318Y7521158D02*
G03*
X9793459Y7583645I-150859J-150859D01*
G01*
X9673425Y7888606D02*
G03*
X9623821Y7868060I0J-70150D01*
G01*
X9842937Y7857312D02*
G03*
X9767201Y7888606I-75736J-75996D01*
G01*
X9616143Y7860381D02*
G03*
X9588246Y7793032I67349J-67349D01*
G01*
X9633333Y7631376D02*
G03*
X9748621Y7583645I115288J115369D01*
G01*
X9588246Y7731468D02*
G03*
X9627102Y7637607I132795J0D01*
G01*
X10001338Y5272876D02*
G03*
X10052472Y5149428I174582J0D01*
G01*
X10035124Y4031284D02*
G03*
X9999726Y3945825I85459J-85459D01*
G01*
X9973886Y3846900D02*
G03*
X9999726Y3909283I-62382J62382D01*
G01*
X9606336Y3584561D02*
G03*
X9785942Y3658955I0J254000D01*
G01*
X5965734Y3546038D02*
G03*
X5960719Y3543961I0J-7092D01*
G01*
X5997568Y3555109D02*
G03*
X5997584Y3555124I-21921J21953D01*
G01*
X5975647Y3546038D02*
G03*
X5997568Y3555109I0J31024D01*
G01*
X6054260Y3584561D02*
G03*
X6007759Y3565299I0J-65762D01*
G01*
X10088740Y7353548D02*
G03*
X10085231Y7362040I-12028J0D01*
G01*
X10086979Y7320268D02*
G03*
X10088740Y7324521I-4253J4253D01*
G01*
X10085231Y7362040D02*
G03*
X10085217Y7362053I-8519J-8492D01*
G01*
X10086979Y7236768D02*
G03*
X10088740Y7241021I-4253J4253D01*
G01*
Y7270048D02*
G03*
X10085217Y7278553I-12028J0D01*
G01*
X10076567Y7181275D02*
G03*
X10094063Y7138994I59838J0D01*
G01*
X10076567Y7375008D02*
G03*
X10080361Y7365847I12955J0D01*
G01*
X10084156Y7318507D02*
G03*
X10076567Y7300187I18320J-18320D01*
G01*
X10084156Y7235007D02*
G03*
X10084145Y7234996I18320J-18320D01*
G01*
D02*
G03*
X10076567Y7216687I18331J-18309D01*
G01*
Y7291508D02*
G03*
X10080361Y7282347I12955J0D01*
G01*
X10236454Y6891027D02*
G03*
X10161801Y7071255I-254880J0D01*
G01*
X10168674Y5584911D02*
G03*
X10236454Y5748546I-163634J163634D01*
G01*
X10129260Y5062324D02*
G03*
X10096341Y5141839I-112494J0D01*
G01*
X10098968Y4308834D02*
G03*
X10076320Y4363580I-77492J0D01*
G01*
X9869150Y7802380D02*
G03*
X9883806Y7796327I14656J14717D01*
G01*
X9843716Y7814171D02*
G03*
X9854434Y7808493I10718J7276D01*
G01*
X9869090Y7802440D02*
G03*
X9854434Y7808493I-14656J-14717D01*
G01*
X10076567Y7397415D02*
G03*
X10056928Y7444828I-67051J0D01*
G01*
X10070037Y5486274D02*
G03*
X10026992Y5382260I104149J-104014D01*
G01*
Y5283502D02*
G03*
X10078126Y5160054I174582J0D01*
G01*
X9954944Y7546812D02*
G03*
X9804086Y7609299I-150859J-150859D01*
G01*
X9824860Y7839109D02*
G03*
X9767201Y7862952I-57659J-57793D01*
G01*
X9684051D02*
G03*
X9634447Y7842405I0J-70151D01*
G01*
D02*
G03*
X9613900Y7792801I49604J-49604D01*
G01*
X9843703Y7814191D02*
G03*
X9843716Y7814171I10731J7257D01*
G01*
X9651346Y7649643D02*
G03*
X9748844Y7609299I97498J97640D01*
G01*
X9613900Y7739945D02*
G03*
X9651275Y7649714I127607J0D01*
G01*
X10083970Y4762670D02*
G03*
X10053574Y4689288I73383J-73383D01*
G01*
X10068733Y4028613D02*
G03*
X10098968Y4101606I-72992J72992D01*
G01*
X10053574Y4418424D02*
G03*
X10076222Y4363678I77492J0D01*
G01*
X10053404Y4013284D02*
G03*
X10025380Y3945550I67846J-67734D01*
G01*
X9992113Y3828847D02*
G03*
X10025380Y3909160I-80314J80314D01*
G01*
X9606472Y3558907D02*
G03*
X9803986Y3640720I0J279328D01*
G01*
X6015724Y3536984D02*
G03*
X6006637Y3515048I21936J-21936D01*
G01*
X6022149Y3543409D02*
G03*
X6022142Y3543402I37424J-37438D01*
G01*
X6059573Y3558907D02*
G03*
X6022149Y3543409I0J-52935D01*
G01*
X10143393Y7053383D02*
G03*
X10143306Y7053471I-163033J-162859D01*
G01*
X10075747Y7121029D02*
G03*
X10075811Y7120965I60172J60045D01*
G01*
X10078106Y5123794D02*
G03*
X10078039Y5123861I-61791J-61656D01*
G01*
X10051812Y5504329D02*
G03*
X10051710Y5504227I121855J-121855D01*
G01*
X9853436Y7845151D02*
G03*
X9843198Y7857051I-86234J-63836D01*
G01*
D02*
G03*
X9842937Y7857312I-75996J-75736D01*
G01*
X10051710Y5504227D02*
G03*
X10001338Y5382770I121957J-121753D01*
G01*
D02*
G03*
X10001338Y5382474I172329J-296D01*
G01*
X9633293Y7631416D02*
G03*
X9633333Y7631376I115329J115329D01*
G01*
X9627102Y7637607D02*
G03*
X9627141Y7637568I93939J93861D01*
G01*
X10096341Y5141839D02*
G03*
X10096311Y5141869I-79575J-79515D01*
G01*
X10094063Y7138994D02*
G03*
X10094093Y7138963I42343J42281D01*
G01*
X10070104Y5486341D02*
G03*
X10070037Y5486274I104081J-104081D01*
G01*
X10084140Y4762840D02*
G03*
X10129260Y4872009I-109508J109169D01*
G01*
X10083970Y4762670D02*
G03*
X10084140Y4762840I-109339J109339D01*
G01*
X10076320Y4363580D02*
G03*
X10076271Y4363629I-54844J-54746D01*
G01*
X10076222Y4363678D02*
G03*
X10076271Y4363629I54844J54746D01*
G01*
X9869120Y7802410D02*
G03*
X9869150Y7802380I14686J14686D01*
G01*
X9869120Y7802410D02*
G03*
X9869090Y7802440I-14686J-14686D01*
G01*
X9824995Y7838974D02*
G03*
X9824860Y7839109I-57793J-57659D01*
G01*
X9834394Y7827681D02*
G03*
X9824995Y7838974I-67192J-46366D01*
G01*
X9651275Y7649714D02*
G03*
X9651346Y7649643I97569J97569D01*
G01*
X10053460Y4013340D02*
G03*
X10053404Y4013284I67790J-67790D01*
G01*
X6004560Y3500120D02*
G03*
X6006637Y3505135I-5015J5015D01*
G01*
X9924440Y7353268D02*
G03*
X9922679Y7357521I-6014J0D01*
G01*
Y7317497D02*
G03*
X9924440Y7321750I-4253J4253D01*
G01*
X9912267Y7377602D02*
G03*
X9919845Y7359293I25909J0D01*
G01*
X9902347Y8193072D02*
G03*
X9910203Y8196326I0J11111D01*
G01*
X9912267Y7422633D02*
G03*
X9888650Y7479693I-80739J0D01*
G01*
X9919845Y7359293D02*
G03*
X9919856Y7359282I18331J18309D01*
G01*
X9912267Y7288737D02*
G03*
X9916061Y7279577I12955J0D01*
G01*
X9919856Y7315736D02*
G03*
X9912267Y7297416I18320J-18320D01*
G01*
X10127984Y6821505D02*
G03*
X10046313Y7018675I-278840J0D01*
G01*
X9912267Y7180688D02*
G03*
X9932043Y7132945I67519J0D01*
G01*
X9946429Y5514394D02*
G03*
X9901324Y5405392I109159J-109002D01*
G01*
X9924440Y7267277D02*
G03*
X9920917Y7275782I-12028J0D01*
G01*
Y7232236D02*
G03*
X9920931Y7232249I-8505J8505D01*
G01*
X9916061Y7228442D02*
G03*
X9912267Y7219281I9160J-9160D01*
G01*
X9881181Y8193072D02*
G03*
X9829113Y8171505I0J-73635D01*
G01*
X9754745Y8140700D02*
G03*
X9829113Y8171505I0J105174D01*
G01*
X9857721Y3877265D02*
G03*
X9901324Y3982531I-105266J105266D01*
G01*
X9869105Y7499238D02*
G03*
X9822844Y7518400I-46262J-46262D01*
G01*
X9664314Y8140700D02*
G03*
X9562137Y8098377I0J-144500D01*
G01*
X9519814Y7679519D02*
G03*
X9562522Y7576298I146090J0D01*
G01*
X9562137Y8098377D02*
G03*
X9519814Y7996198I102179J-102179D01*
G01*
X9562725Y7576095D02*
G03*
X9702187Y7518400I139462J139707D01*
G01*
X9521755Y3652139D02*
G03*
X9710972Y3730516I0J267594D01*
G01*
X6030878Y3715601D02*
G03*
X6142211Y3669486I111333J111333D01*
G01*
X6030753Y3715726D02*
G03*
X5991894Y3731822I-38859J-38859D01*
G01*
X5986880Y3733900D02*
G03*
X5991894Y3731822I5015J5015D01*
G01*
X9879025Y7359282D02*
G03*
X9879036Y7359293I-18320J18320D01*
G01*
X9894711Y8246313D02*
G03*
X9861447Y8232557I0J-47095D01*
G01*
X9886613Y7412006D02*
G03*
X9862965Y7469098I-80740J0D01*
G01*
X9882819Y7279577D02*
G03*
X9886613Y7288737I-9160J9160D01*
G01*
Y7297416D02*
G03*
X9879025Y7315736I-25909J0D01*
G01*
X9874440Y7321750D02*
G03*
X9876202Y7317497I6014J0D01*
G01*
Y7357521D02*
G03*
X9874440Y7353268I4253J-4253D01*
G01*
Y7240741D02*
G03*
X9877950Y7232249I12028J0D01*
G01*
X9877963Y7275782D02*
G03*
X9874440Y7267277I8505J-8505D01*
G01*
X10102330Y6821168D02*
G03*
X10027935Y7000773I-254000J0D01*
G01*
Y5632181D02*
G03*
X10102330Y5811786I-179605J179605D01*
G01*
X9886613Y7180575D02*
G03*
X9913728Y7114980I92899J0D01*
G01*
X9877950Y7232249D02*
G03*
X9877963Y7232236I8519J8492D01*
G01*
X9886613Y7219281D02*
G03*
X9882819Y7228442I-12955J0D01*
G01*
X9928234Y5532480D02*
G03*
X9875670Y5405528I127026J-126952D01*
G01*
X9859442Y8230886D02*
G03*
X9861293Y8232402I-7249J10737D01*
G01*
X9851141Y7480922D02*
G03*
X9851126Y7480937I-28546J-28546D01*
G01*
D02*
G03*
X9822596Y7492746I-28530J-28561D01*
G01*
X9752541Y8166354D02*
G03*
X9812477Y8191148I0J84841D01*
G01*
X9664219Y8166354D02*
G03*
X9544195Y8116715I0J-169924D01*
G01*
D02*
G03*
X9544064Y8116584I120024J-120285D01*
G01*
X9543929Y8116449D02*
G03*
X9543751Y8116271I120155J-120155D01*
G01*
X9552099Y7550441D02*
G03*
X9691561Y7492746I139462J139707D01*
G01*
X9494160Y7679342D02*
G03*
X9544191Y7558349I171317J0D01*
G01*
X9521620Y3677793D02*
G03*
X9692833Y3748656I0J242267D01*
G01*
X6048893Y3733867D02*
G03*
X6142388Y3695140I93495J93495D01*
G01*
X6047282Y3735548D02*
G03*
X6048893Y3733867I40469J37177D01*
G01*
X6032798Y3772725D02*
G03*
X6047282Y3735548I54953J0D01*
G01*
X6032798Y3772725D02*
G03*
X6030720Y3777740I-7093J0D01*
G01*
X10046322Y5614287D02*
G03*
X10127984Y5811651I-197665J197363D01*
G01*
X10046171Y5614136D02*
G03*
X10046322Y5614287I-197514J197514D01*
G01*
X9946507Y5514473D02*
G03*
X9946429Y5514394I109081J-109081D01*
G01*
X9920931Y7232249D02*
G03*
X9924440Y7240741I-8519J8492D01*
G01*
X9888650Y7479693D02*
G03*
X9888619Y7479724I-57122J-57060D01*
G01*
X9562522Y7576298D02*
G03*
X9562602Y7576218I103381J103221D01*
G01*
Y7576218D02*
G03*
X9562725Y7576095I139584J139585D01*
G01*
X9879036Y7359293D02*
G03*
X9886613Y7377602I-18331J18309D01*
G01*
X9913728Y7114980D02*
G03*
X9913823Y7114885I65784J65595D01*
G01*
X9928271Y5532517D02*
G03*
X9928234Y5532480I126989J-126989D01*
G01*
X9861447Y8232557D02*
G03*
X9861410Y8232519I33264J-33338D01*
G01*
X9861293Y8232402D02*
G03*
X9861410Y8232519I-9100J9220D01*
G01*
X9812477Y8191148D02*
G03*
X9812532Y8191203I-59936J60047D01*
G01*
X9543751Y8116271D02*
G03*
X9494160Y7996588I120334J-119977D01*
G01*
D02*
G03*
X9494159Y7996294I169925J-294D01*
G01*
X9551976Y7550564D02*
G03*
X9552099Y7550441I139584J139585D01*
G01*
X9544191Y7558349D02*
G03*
X9544337Y7558203I121285J120993D01*
G01*
X9839495Y3895318D02*
G03*
X9875670Y3982720I-87495J87402D01*
G01*
X9839448Y3895271D02*
G03*
X9839495Y3895318I-87449J87449D01*
G01*
X9692833Y3748656D02*
G03*
X9692928Y3748752I-171213J171404D01*
G01*
X8871464Y5647837D02*
G03*
X8819337Y5773683I-177973J0D01*
G01*
X8729174Y7704725D02*
G03*
X8720014Y7708519I-9160J-9160D01*
G01*
X8696590D02*
G03*
X8647443Y7688162I0J-69504D01*
G01*
X8732968Y7695564D02*
G03*
X8729174Y7704725I-12955J0D01*
G01*
X8647443Y7688162D02*
G03*
X8647429Y7688148I23610J-23610D01*
G01*
D02*
G03*
X8637663Y7664552I23623J-23597D01*
G01*
Y7331143D02*
G03*
X8681907Y7224293I151143J0D01*
G01*
X8748014Y5945872D02*
G03*
X8819337Y5773683I243512J0D01*
G01*
X8748014Y7106275D02*
G03*
X8711307Y7194893I-125324J0D01*
G01*
X8681907Y7224293D02*
G03*
X8681932Y7224268I106899J106850D01*
G01*
X8851470Y5475450D02*
G03*
X8871464Y5523885I-48669J48435D01*
G01*
X8851353Y5475333D02*
G03*
X8851470Y5475450I-48552J48552D01*
G01*
X8845810Y5647700D02*
G03*
X8801100Y5755640I-152650J0D01*
G01*
X8801024Y5755716D02*
G03*
X8801100Y5755640I190171J190019D01*
G01*
X8720014Y7734173D02*
G03*
X8729174Y7737967I0J12955D01*
G01*
X8691277Y7734173D02*
G03*
X8633059Y7710059I0J-82332D01*
G01*
X8722360Y5945735D02*
G03*
X8801024Y5755716I268835J0D01*
G01*
X8612009Y7330965D02*
G03*
X8663666Y7206254I176367J0D01*
G01*
X8722360Y7106057D02*
G03*
X8693013Y7176907I-100196J0D01*
G01*
X8831546Y5491806D02*
G03*
X8845810Y5526359I-34718J34553D01*
G01*
X8831464Y5491724D02*
G03*
X8831546Y5491806I-34635J34635D01*
G01*
X8831365Y5491625D02*
G03*
X8831464Y5491724I-34536J34733D01*
G01*
X8796829Y5477378D02*
G03*
X8831365Y5491625I0J48981D01*
G01*
X8794354Y5477378D02*
G03*
X8789340Y5475300I0J-7092D01*
G01*
X8729174Y7737967D02*
G03*
X8732968Y7747128I-9160J9160D01*
G01*
X8629229Y7706228D02*
G03*
X8629185Y7706184I41573J-41573D01*
G01*
D02*
G03*
X8612009Y7664828I41617J-41529D01*
G01*
D02*
G03*
X8612009Y7664655I58793J-173D01*
G01*
X8851353Y5475333D02*
G03*
X8835258Y5436475I38858J-38858D01*
G01*
X8833180Y5431460D02*
G03*
X8835258Y5436475I-5015J5015D01*
G01*
X9096722Y8071273D02*
G03*
X9118548Y8123965I-52692J52692D01*
G01*
X9118548Y8688261D02*
G03*
X9068454Y8809198I-171032J0D01*
G01*
X9010398Y8023521D02*
G03*
X9076217Y8050768I0J93123D01*
G01*
X9068031Y8809621D02*
G03*
X8947445Y8859570I-120586J-120586D01*
G01*
X8976647Y8023521D02*
G03*
X8958300Y8015921I0J-25947D01*
G01*
X8940365Y8008493D02*
G03*
X8958300Y8015922I0J25363D01*
G01*
X8895783Y8008493D02*
G03*
X8886622Y8004699I0J-12955D01*
G01*
D02*
G03*
X8882828Y7995538I9160J-9160D01*
G01*
X8676035Y8859570D02*
G03*
X8481025Y8778925I0J-276103D01*
G01*
X8539480Y6949900D02*
G03*
X8476943Y7100877I-213514J0D01*
G01*
X8399378Y7277100D02*
G03*
X8469055Y7108766I238181J0D01*
G01*
X8543282Y5010465D02*
G03*
X8564246Y4975747I80753J25072D01*
G01*
X8539480Y5035537D02*
G03*
X8543282Y5010465I84556J0D01*
G01*
X8568100Y4971892D02*
G03*
X8586397Y4964314I18296J18296D01*
G01*
X8604671Y4956757D02*
G03*
X8586397Y4964314I-18274J-18318D01*
G01*
X8604693Y4956735D02*
G03*
X8604671Y4956757I-18296J-18296D01*
G01*
X9092894Y8688065D02*
G03*
X9050213Y8791159I-145851J0D01*
G01*
X9050138Y8791235D02*
G03*
X8947043Y8833916I-103094J-103170D01*
G01*
X9002123Y8049175D02*
G03*
X9063957Y8074788I0J87446D01*
G01*
X8676427Y8833916D02*
G03*
X8498664Y8760284I0J-251395D01*
G01*
X8965900Y8049175D02*
G03*
X8947759Y8041661I0J-25655D01*
G01*
X8882828Y8047102D02*
G03*
X8886622Y8037941I12955J0D01*
G01*
D02*
G03*
X8895783Y8034147I9160J9160D01*
G01*
X8929619D02*
G03*
X8947759Y8041661I0J25655D01*
G01*
X8565134Y6950352D02*
G03*
X8495403Y7118697I-238075J0D01*
G01*
X8474710Y8736330D02*
G03*
X8425032Y8616397I119933J-119933D01*
G01*
Y7287726D02*
G03*
X8494794Y7119306I238182J0D01*
G01*
X8567886Y5017856D02*
G03*
X8582511Y4993762I56578J17858D01*
G01*
X8565134Y5035714D02*
G03*
X8567886Y5017856I59329J0D01*
G01*
X8582511Y4993762D02*
G03*
X8591671Y4989968I9159J9159D01*
G01*
X8600818Y4993749D02*
G03*
X8600830Y4993762I-9147J9172D01*
G01*
X8591671Y4989968D02*
G03*
X8600818Y4993749I0J12953D01*
G01*
X9076217Y8050768D02*
G03*
X9076245Y8050796I-65820J65876D01*
G01*
X8481025Y8778925D02*
G03*
X8480801Y8778701I195010J-195458D01*
G01*
X8469055Y7108766D02*
G03*
X8469140Y7108680I168505J168334D01*
G01*
X8456503Y8754403D02*
G03*
X8456284Y8754183I137911J-137911D01*
G01*
D02*
G03*
X8399378Y8616806I138130J-137692D01*
G01*
D02*
G03*
X8399378Y8616492I195035J-315D01*
G01*
X9050213Y8791159D02*
G03*
X9050175Y8791197I-103170J-103094D01*
G01*
D02*
G03*
X9050138Y8791235I-103132J-103132D01*
G01*
X9078473Y8089304D02*
G03*
X9092894Y8124186I-34977J34882D01*
G01*
X9078426Y8089257D02*
G03*
X9078473Y8089304I-34930J34930D01*
G01*
X8618148Y5008141D02*
G03*
X8613131Y5006063I0J-7094D01*
G01*
X8613210Y4948219D02*
G03*
X8618226Y4946141I5016J5016D01*
G01*
X8272780Y7215569D02*
G03*
X8329717Y7077923I194848J0D01*
G01*
X8425946Y5658066D02*
G03*
X8425951Y5658071I-27266J27266D01*
G01*
X8437240Y6894464D02*
G03*
X8383545Y7024095I-183326J0D01*
G01*
X8425946Y5658066D02*
G03*
X8401812Y5599802I58265J-58265D01*
G01*
X8392726Y5295225D02*
G03*
X8401812Y5317162I-21936J21936D01*
G01*
X8272780Y8657988D02*
G03*
X8221874Y8780886I-173805J0D01*
G01*
D02*
G03*
X8098975Y8831792I-122898J-122898D01*
G01*
X7426376D02*
G03*
X7328074Y8791113I0J-139116D01*
G01*
X7327939Y8790978D02*
G03*
X7287260Y8692676I98437J-98302D01*
G01*
X7542836Y8100060D02*
G03*
X7554095Y8100935I0J72846D01*
G01*
X7454900Y8100060D02*
G03*
X7428714Y8096439I0J-96510D01*
G01*
X7375899Y8061034D02*
G03*
X7375835Y8060970I19298J-19298D01*
G01*
X7329267Y8034147D02*
G03*
X7362972Y8048108I0J47667D01*
G01*
X7287260Y8072151D02*
G03*
X7298347Y8045323I38004J0D01*
G01*
X7298436Y8045234D02*
G03*
X7325264Y8034147I26829J26918D01*
G01*
X8462894Y6894877D02*
G03*
X8401978Y7041942I-207981J0D01*
G01*
X8444230Y5640070D02*
G03*
X8462894Y5685129I-45059J45059D01*
G01*
X8444230Y5640070D02*
G03*
X8427466Y5599599I40471J-40471D01*
G01*
X8240220Y8798820D02*
G03*
X8240146Y8798895I-140795J-140647D01*
G01*
X8239715Y8799324D02*
G03*
X8099397Y8857446I-140319J-140319D01*
G01*
X8298434Y7215682D02*
G03*
X8348070Y7095850I169469J0D01*
G01*
X8298434Y8658173D02*
G03*
X8240220Y8798820I-199010J0D01*
G01*
X8427466Y5317162D02*
G03*
X8436552Y5295225I31023J0D01*
G01*
X7426054Y8857446D02*
G03*
X7310272Y8809592I0J-163993D01*
G01*
D02*
G03*
X7310093Y8809414I115782J-116139D01*
G01*
X7366621Y7990883D02*
G03*
X7323954Y8008493I-42667J-42883D01*
G01*
X7281222Y8026168D02*
G03*
X7323954Y8008493I42732J42819D01*
G01*
X7261606Y8059623D02*
G03*
X7271392Y8035997I33412J0D01*
G01*
X7309638Y8808958D02*
G03*
X7261606Y8692998I115960J-115960D01*
G01*
X7445674Y7944713D02*
G03*
X7444820Y7944740I-830J-12927D01*
G01*
X7554095Y7941705D02*
G03*
X7542836Y7942580I-11259J-71970D01*
G01*
X7390336Y7967168D02*
G03*
X7444551Y7944739I54150J54152D01*
G01*
X8329717Y7077923D02*
G03*
X8329850Y7077790I137912J137645D01*
G01*
X8425951Y5658071D02*
G03*
X8437240Y5685333I-27271J27261D01*
G01*
X7328074Y8791113D02*
G03*
X7328006Y8791046I98302J-98437D01*
G01*
X7554095Y8100935D02*
G03*
X7594346Y8121396I-11259J71970D01*
G01*
X7328006Y8791046D02*
G03*
X7327939Y8790978I98370J-98370D01*
G01*
X7423707Y8095028D02*
G03*
X7390408Y8075544I20779J-73708D01*
G01*
D02*
G03*
X7390334Y8075470I54078J-54224D01*
G01*
X7298347Y8045323D02*
G03*
X7298391Y8045278I26918J26829D01*
G01*
D02*
G03*
X7298436Y8045234I26873J26873D01*
G01*
X7281178Y8026211D02*
G03*
X7281222Y8026168I42776J42776D01*
G01*
X7594346Y7921244D02*
G03*
X7554095Y7941705I-51510J-51510D01*
G01*
X7366729Y7990775D02*
G03*
X7366621Y7990883I-42775J-42775D01*
G01*
X8314149Y5718989D02*
G03*
X8338906Y5778758I-59769J59769D01*
G01*
Y6825725D02*
G03*
X8276667Y6976067I-212701J0D01*
G01*
X8314149Y5718989D02*
G03*
X8281510Y5640191I78797J-78797D01*
G01*
X8158480Y7209995D02*
G03*
X8240173Y7012562I279424J0D01*
G01*
X7538893Y8263444D02*
G03*
X7538918Y8263419I63310J63310D01*
G01*
X7508147Y8294190D02*
G03*
X7508126Y8294211I-25364J-25364D01*
G01*
X7538918Y8263419D02*
G03*
X7602204Y8237220I63286J63335D01*
G01*
X7508126Y8294211D02*
G03*
X7482783Y8304696I-25343J-25385D01*
G01*
X7475354D02*
G03*
X7462672Y8299443I0J-17936D01*
G01*
X7456233Y8293004D02*
G03*
X7444486Y8264645I28360J-28360D01*
G01*
X7998713Y8162825D02*
G03*
X7819109Y8237220I-179605J-179605D01*
G01*
X8158480Y7907528D02*
G03*
X8090929Y8070609I-230632J0D01*
G01*
X8272385Y5073778D02*
G03*
X8281471Y5095714I-21936J21936D01*
G01*
X8364560Y6826202D02*
G03*
X8295085Y6993930I-237202J0D01*
G01*
X8332440Y5701000D02*
G03*
X8307164Y5639936I61124J-61064D01*
G01*
X7526086Y8312530D02*
G03*
X7482783Y8330350I-43303J-43705D01*
G01*
X7444486Y8384182D02*
G03*
X7454962Y8350859I58236J0D01*
G01*
D02*
G03*
X7461543Y8343003I47759J33324D01*
G01*
X7468123Y8336423D02*
G03*
X7482783Y8330350I14660J14660D01*
G01*
X8184134Y7907739D02*
G03*
X8109219Y8088600I-255776J0D01*
G01*
X8184134Y7210091D02*
G03*
X8258529Y7030486I254000J0D01*
G01*
X7549587Y8289031D02*
G03*
X7612830Y8262874I63243J63378D01*
G01*
X8016615Y8181204D02*
G03*
X7819446Y8262874I-197169J-197170D01*
G01*
X8307164Y5094307D02*
G03*
X8316211Y5073923I30984J1552D01*
G01*
X8307125Y5095859D02*
G03*
X8307164Y5094307I31023J0D01*
G01*
X8240173Y7012562D02*
G03*
X8240321Y7012413I197731J197434D01*
G01*
X8276667Y6976067D02*
G03*
X8276607Y6976127I-150462J-150342D01*
G01*
X8332470Y5701030D02*
G03*
X8364560Y5778502I-77472J77472D01*
G01*
X8332470Y5701030D02*
G03*
X8332440Y5701000I61094J-61094D01*
G01*
X7549519Y8289098D02*
G03*
X7549587Y8289031I63311J63311D01*
G01*
X8325298Y5061898D02*
G03*
X8323220Y5066914I-7094J0D01*
G01*
X8265376Y5066769D02*
G03*
X8263298Y5061753I5016J-5016D01*
G01*
X8160893Y6193183D02*
G03*
X8114648Y6304931I-158141J0D01*
G01*
X8068256Y6416828D02*
G03*
X8114501Y6305079I158141J0D01*
G01*
X7936511Y7724875D02*
G03*
X7791115Y7785100I-145396J-145396D01*
G01*
X7631783D02*
G03*
X7539341Y7746809I0J-130732D01*
G01*
X8010906Y7545270D02*
G03*
X7936511Y7724875I-254000J0D01*
G01*
X7471385Y7708519D02*
G03*
X7522027Y7729496I0J71620D01*
G01*
X8068256Y6971171D02*
G03*
X8039581Y7040399I-97904J0D01*
G01*
X8010906Y7109626D02*
G03*
X8039581Y7040399I97902J0D01*
G01*
X8151807Y5734645D02*
G03*
X8160893Y5756582I-21936J21936D01*
G01*
X8132971Y6322889D02*
G03*
X8133017Y6322843I94457J94365D01*
G01*
X8186547Y6193609D02*
G03*
X8133017Y6322843I-182764J0D01*
G01*
X7954326Y7743339D02*
G03*
X7791573Y7810754I-162754J-162754D01*
G01*
X7631503Y7810754D02*
G03*
X7521556Y7765305I0J-155712D01*
G01*
X8036560Y7109949D02*
G03*
X8057899Y7058362I73029J0D01*
G01*
D02*
G03*
X8057950Y7058310I51690J51588D01*
G01*
X8093910Y6417254D02*
G03*
X8132971Y6322889I133517J0D01*
G01*
X8093910Y6971494D02*
G03*
X8057950Y7058310I-122777J0D01*
G01*
X7471249Y7734173D02*
G03*
X7503958Y7747706I0J46293D01*
G01*
X8036560Y7549346D02*
G03*
X7957628Y7740038I-269812J0D01*
G01*
X8186547Y5756582D02*
G03*
X8195633Y5734645I31023J0D01*
G01*
X8114648Y6304931D02*
G03*
X8114575Y6305005I-111896J-111749D01*
G01*
X8114501Y6305079D02*
G03*
X8114575Y6305005I111896J111749D01*
G01*
X7957628Y7740038D02*
G03*
X7957534Y7740132I-190880J-190691D01*
G01*
X7503958Y7747706D02*
G03*
X7503983Y7747732I-32708J32759D01*
G01*
X8204720Y5722620D02*
G03*
X8202642Y5727636I-7094J0D01*
G01*
X8144798D02*
G03*
X8142720Y5722620I5016J-5016D01*
G01*
X10419080Y7354841D02*
G03*
X10414087Y7380178I-66784J0D01*
G01*
D02*
G03*
X10399519Y7402064I-61791J-25337D01*
G01*
X9844931Y7945157D02*
G03*
X9827916Y7935461I9186J-35896D01*
G01*
X9854116Y7946314D02*
G03*
X9844931Y7945157I0J-37053D01*
G01*
X6299200Y3416300D02*
G03*
X6319792Y3399451I94581J94581D01*
G01*
X6343569Y3383663D02*
G03*
X6365240Y3377123I21671J32637D01*
G01*
X6381527Y3405062D02*
G03*
X6404019Y3400237I22493J50018D01*
G01*
X6365240Y3416300D02*
G03*
X6381527Y3405062I38779J38779D01*
G01*
X9819701Y3377123D02*
G03*
X9999306Y3451518I0J254000D01*
G01*
X9810127Y3400237D02*
G03*
X9989732Y3474632I0J254000D01*
G01*
X10240820Y3693032D02*
G03*
X10271964Y3737080I-113534J113307D01*
G01*
X10240599Y3692810D02*
G03*
X10240820Y3693032I-113312J113528D01*
G01*
X10327877Y3893821D02*
G03*
X10287687Y3796765I97096J-97056D01*
G01*
X10279685Y3753142D02*
G03*
X10287687Y3788107I-72392J34965D01*
G01*
X10304763Y3903395D02*
G03*
X10264573Y3806339I97096J-97056D01*
G01*
X10224382Y3709282D02*
G03*
X10264573Y3806339I-97096J97056D01*
G01*
X10224363Y3709262D02*
G03*
X10224382Y3709282I-97077J97077D01*
G01*
X10304783Y3903415D02*
G03*
X10304763Y3903395I97077J-97077D01*
G01*
X10327897Y3893841D02*
G03*
X10327877Y3893821I97077J-97077D01*
G01*
X10387603Y3953547D02*
G03*
X10442540Y4086397I-133160J132850D01*
G01*
X10387374Y3953318D02*
G03*
X10387603Y3953547I-132931J133078D01*
G01*
X10371195Y3969827D02*
G03*
X10419426Y4086397I-116751J116570D01*
G01*
X10371104Y3969736D02*
G03*
X10371195Y3969827I-116661J116661D01*
G01*
X10314209Y8065231D02*
G03*
X10239057Y8096326I-75153J-75268D01*
G01*
X10314267Y8065173D02*
G03*
X10314209Y8065231I-75210J-75210D01*
G01*
X5972379Y3868060D02*
X9385483D01*
X9311640Y7556500D02*
Y7745869D01*
X9357357Y7805918D02*
X9373755D01*
X9527646Y3926946D02*
X9655599Y4054899D01*
X9688908Y4135315D02*
Y6569745D01*
X9753134Y6724799D02*
Y6943403D01*
X9883816Y7996326D02*
X9910203D01*
X9815502Y8008506D02*
X9854412D01*
X10054196Y8046314D02*
X10080593D01*
X10109966Y8034147D02*
X10151438D01*
X10173375Y8043233D02*
X10180383Y8050242D01*
X5893265Y3863510D02*
X5894660D01*
X5967579Y3893714D02*
X9382760D01*
X9285986Y7551181D02*
Y7746089D01*
X9364006Y7362824D02*
X9680405Y7046425D01*
X9313901Y7813481D02*
X9314152Y7813732D01*
X9357222Y7831572D02*
X9382722D01*
X9511432Y3947011D02*
X9629945Y4065525D01*
X9695367Y6647367D02*
X9695367Y6647367D01*
X9727480Y6724894D02*
Y6932776D01*
X9815502Y8034160D02*
X9854412D01*
X10054196Y7996326D02*
X10080593D01*
X10109966Y8008493D02*
X10151438D01*
X9883816Y8046339D02*
X9910203D01*
X9663254Y4145941D02*
Y6569840D01*
X9385907Y7377203D02*
X9706059Y7057051D01*
X8932807Y4369054D02*
X8991701D01*
X9083019Y4406879D02*
X9135873Y4459733D01*
X8932807Y4394708D02*
X8981075D01*
X9072393Y4432533D02*
X9110218Y4470358D01*
X9164320Y4600971D02*
Y6139175D01*
X9176276Y6181933D02*
X9202963Y6208620D01*
X9215374Y5995670D02*
Y6033770D01*
X9189974Y5970270D02*
X9215374Y5995670D01*
X9189974Y6059170D02*
X9215374Y6033770D01*
X9189974Y5932170D02*
Y5970270D01*
Y4590345D02*
Y5932170D01*
Y6059170D02*
Y6127750D01*
X9010012Y5900420D02*
Y6087030D01*
X8952403Y4562936D02*
X8968913Y4579447D01*
X8836577Y6174613D02*
X8922428D01*
X8428773Y4514723D02*
X8836006D01*
X8836577Y6200267D02*
X8933055D01*
X8994986Y6174615D02*
X9002730Y6166870D01*
X9035666Y4668040D02*
Y6087356D01*
X8970447Y4544700D02*
X8994568Y4568821D01*
X8428773Y4489069D02*
X8836141D01*
X9010012Y5753100D02*
Y5900420D01*
X8984612Y5727700D02*
X9010012Y5753100D01*
Y5626100D02*
Y5664200D01*
X8984612Y5600700D02*
X9010012Y5626100D01*
X8984612Y5689600D02*
Y5727700D01*
Y5689600D02*
X9010012Y5664200D01*
Y5372100D02*
Y5410200D01*
X8984612Y5346700D02*
X9010012Y5372100D01*
X8984612Y5473700D02*
X9010012Y5499100D01*
X8984612Y5435600D02*
X9010012Y5410200D01*
Y5245100D02*
Y5283200D01*
Y4678667D02*
Y5245100D01*
X8984612Y5308600D02*
X9010012Y5283200D01*
Y5499100D02*
Y5537200D01*
X8984612Y5435600D02*
Y5473700D01*
Y5562600D02*
Y5600700D01*
Y5562600D02*
X9010012Y5537200D01*
X8984612Y5308600D02*
Y5346700D01*
X8836584Y6520307D02*
X9081715D01*
X9344914Y4427642D02*
Y6221208D01*
X9197727Y6472254D02*
X9271475Y6398505D01*
X9270299Y4289806D02*
X9300210Y4319717D01*
X8877654Y4229100D02*
X9123741D01*
X8310614Y4300269D02*
X8310929Y4299954D01*
X8396624Y4264457D02*
X8799613D01*
X8299491Y4608457D02*
X8306929Y4615895D01*
X8272301Y4392763D02*
Y4542815D01*
X8352419Y4634738D02*
X8399087D01*
X9235154Y6398546D02*
X9253220Y6380480D01*
X9187100Y6446600D02*
X9235154Y6398546D01*
X9319260Y5623560D02*
Y6221045D01*
X8877789Y4254754D02*
X9113115D01*
X8836584Y6494653D02*
X9071089D01*
X8352625Y4609084D02*
X8399087D01*
X8850803Y4269017D02*
X8856070Y4263750D01*
X8396847Y4290111D02*
X8799877D01*
X8297955Y4392986D02*
Y4542581D01*
X8832850Y4250690D02*
X8838025Y4245515D01*
X9319260Y5458460D02*
Y5496560D01*
Y5585460D02*
Y5623560D01*
X9293860Y5394960D02*
X9319260Y5369560D01*
X9293860Y5521960D02*
X9319260Y5496560D01*
X9293860Y5560060D02*
X9319260Y5585460D01*
X9293860Y5433060D02*
X9319260Y5458460D01*
Y5204460D02*
Y5242560D01*
Y5331460D02*
Y5369560D01*
X9293860Y5179060D02*
X9319260Y5204460D01*
X9293860Y5306060D02*
X9319260Y5331460D01*
X9293860Y5267960D02*
X9319260Y5242560D01*
X9235154Y6398546D02*
Y6398546D01*
X9293860Y5267960D02*
Y5306060D01*
Y5140960D02*
Y5179060D01*
Y5521960D02*
Y5560060D01*
Y5394960D02*
Y5433060D01*
Y4810760D02*
X9319260Y4785360D01*
Y4874260D02*
Y4988560D01*
Y4747260D02*
Y4785360D01*
X9293860Y5013960D02*
X9319260Y4988560D01*
X9293860Y5052060D02*
X9319260Y5077460D01*
X9293860Y4848860D02*
X9319260Y4874260D01*
Y4498340D02*
Y4658360D01*
X9293860Y4683760D02*
X9319260Y4658360D01*
Y4427958D02*
Y4498340D01*
X9293860Y4721860D02*
X9319260Y4747260D01*
Y5077460D02*
Y5115560D01*
X9293860Y4810760D02*
Y4848860D01*
Y4683760D02*
Y4721860D01*
Y5140960D02*
X9319260Y5115560D01*
X9293860Y5013960D02*
Y5052060D01*
X9259673Y4315460D02*
X9281847Y4337634D01*
X8317797Y4590483D02*
X8324923Y4597609D01*
X8676647Y8334121D02*
X8720014D01*
X8650029Y5726371D02*
X8650058Y5726342D01*
X8633460Y5766371D02*
Y7052919D01*
X8666657Y5359656D02*
Y5686270D01*
X8924521Y4827929D02*
Y5135344D01*
X8896771Y4773509D02*
X8905661Y4782399D01*
X8896753Y4773490D02*
X8896771Y4773509D01*
X8803499Y5232146D02*
X8844465D01*
X8558010Y8264217D02*
X8593455Y8299662D01*
X8523986Y7278450D02*
Y8182075D01*
X8433493Y4754626D02*
X8851185D01*
X8681960Y8308467D02*
X8720014D01*
X8732968Y8221218D02*
Y8295512D01*
X8659114Y5766548D02*
Y7053014D01*
X8692311Y5370282D02*
Y5686404D01*
X8950175Y4827706D02*
Y5135714D01*
X8914076Y4754533D02*
X8923959Y4764416D01*
X8803640Y5257800D02*
X8844716D01*
X8910713Y5230463D02*
X8911080Y5230096D01*
X8596863Y7164557D02*
X8624259Y7137161D01*
X8576246Y8246173D02*
X8607837Y8277764D01*
X8433493Y4728972D02*
X8852366D01*
X8549640Y7278564D02*
Y8181940D01*
X8732968Y8347076D02*
Y8421370D01*
X8699841Y5279542D02*
X8707454Y5271929D01*
X8578643Y7146497D02*
X8606051Y7119089D01*
X7856135Y5568292D02*
X7865374Y5559054D01*
X7738006Y6003394D02*
X7753350Y5988050D01*
X7784846Y5740400D02*
Y5912012D01*
X7921879Y5119042D02*
Y5422638D01*
X7097453Y6174613D02*
X7155180D01*
X7291469Y6092962D02*
Y6092962D01*
X7461966Y6022340D02*
X7692267D01*
X7291469Y6092962D02*
Y6092962D01*
X7905784Y5090096D02*
X7912793Y5097105D01*
X7947533Y5119042D02*
Y5422823D01*
X7810500Y5751026D02*
Y5912214D01*
X7881790Y5578918D02*
X7883645Y5577063D01*
X7461966Y6047994D02*
X7692548D01*
X7266380Y6154332D02*
X7309609Y6111102D01*
X7755947Y6021733D02*
X7771633Y6006048D01*
X7097453Y6200267D02*
X7155482D01*
X7956620Y5097105D02*
X7963628Y5090096D01*
X7248453Y6135978D02*
X7291469Y6092962D01*
X8181594Y5205743D02*
Y5512108D01*
X8073750Y5691230D02*
X8131192Y5633788D01*
X8123174Y5031570D02*
Y5064704D01*
X8006715Y5853068D02*
Y6190992D01*
X7911749Y6360394D02*
X7954080Y6318063D01*
X8085113Y4939873D02*
X8085247Y4940007D01*
X8018078Y4912106D02*
X8021786D01*
X7902638D02*
X8018078D01*
X7099993Y6520307D02*
X7158186D01*
X7404566Y6410960D02*
X7789673D01*
X7232112Y6489688D02*
X7244566Y6477234D01*
X7785769Y5036883D02*
X7792778Y5029875D01*
X7801864Y4995551D02*
Y5007938D01*
X7819709Y4952469D02*
X7829973Y4942205D01*
X7981061Y6144260D02*
Y6190810D01*
X7893902Y6341962D02*
X7935812Y6300052D01*
X8155940Y5379720D02*
Y5511695D01*
X8097520Y5031665D02*
Y5065226D01*
X7907020Y4937760D02*
X8017983D01*
X7221490Y6464031D02*
X7233940Y6451580D01*
X7099993Y6494653D02*
X7147560D01*
X7393940Y6385306D02*
X7789260D01*
X7836604Y5029875D02*
X7843613Y5036883D01*
X7827518Y5000864D02*
Y5007938D01*
X7841607Y4966851D02*
X7845173Y4963285D01*
X7981061Y5852954D02*
Y5890260D01*
X7955661Y5953760D02*
X7981061Y5979160D01*
X7955661Y5915660D02*
X7981061Y5890260D01*
X8055530Y5673170D02*
X8112760Y5615940D01*
X7981061Y6106160D02*
Y6144260D01*
X7955661Y6080760D02*
X7981061Y6106160D01*
Y5979160D02*
Y6017260D01*
X7955661Y5915660D02*
Y5953760D01*
Y6042660D02*
Y6080760D01*
Y6042660D02*
X7981061Y6017260D01*
X8155940Y5341620D02*
Y5379720D01*
Y5206265D02*
Y5252720D01*
X8130540Y5316220D02*
X8155940Y5341620D01*
X8130540Y5278120D02*
X8155940Y5252720D01*
X8130540Y5278120D02*
Y5316220D01*
X7899146Y5755374D02*
Y6138022D01*
X7952660Y5626180D02*
X7997190Y5581650D01*
X7525558Y6276920D02*
X7755478D01*
X7500330Y6266470D02*
X7500355Y6266494D01*
X7493644Y6259783D02*
X7500330Y6266470D01*
X7465061Y6248051D02*
X7465320D01*
X7435146Y6234469D02*
X7437178Y6236502D01*
X7425629Y6203402D02*
Y6211494D01*
X7447743Y6194241D02*
X7460044Y6206542D01*
X7447730Y6194229D02*
X7447743Y6194241D01*
X7429423Y6194241D02*
X7429424Y6194241D01*
X8025799Y5293297D02*
X8032808Y5300305D01*
X7876073Y6253511D02*
X7877694Y6251890D01*
X7524388Y6302574D02*
X7757626D01*
X7924800Y5755487D02*
Y6138166D01*
X8067548Y5322242D02*
Y5474111D01*
X7970880Y5644240D02*
X8015603Y5599517D01*
X7416910Y6252513D02*
X7426369Y6261973D01*
X7399975Y6203248D02*
Y6211629D01*
X7415041Y6172344D02*
X7415050Y6172334D01*
X7411175Y6176210D02*
X7415041Y6172344D01*
X7451499Y6157242D02*
X7460044Y6148698D01*
X8076634Y5300305D02*
X8083643Y5293297D01*
X7467435Y6151270D02*
X7470140D01*
X8041894Y5322242D02*
Y5473725D01*
X6190387Y3780405D02*
X8634345D01*
X6174277Y3796515D02*
Y3812605D01*
X8652872Y3798932D02*
X9478108D01*
X9608895Y3853106D02*
X9718115Y3962326D01*
X9736613Y7171542D02*
Y7213916D01*
X9724440Y7254009D02*
Y7267277D01*
X9726202Y7233997D02*
X9727963Y7232236D01*
X9724440Y7238250D02*
Y7254009D01*
X9726202Y7317497D02*
X9727963Y7315736D01*
X9724440Y7337509D02*
Y7353268D01*
Y7321750D02*
Y7337509D01*
X9726202Y7357521D02*
X9727963Y7359282D01*
Y7275782D02*
X9729025D01*
X9727963Y7232236D02*
X9729025D01*
X9727963Y7359282D02*
X9729025D01*
X9727963Y7315736D02*
X9729025D01*
Y7275782D02*
X9732819Y7279577D01*
X9736613Y7288737D02*
Y7297416D01*
X9736613Y7377602D02*
Y7413318D01*
X9806405Y6407895D02*
Y6582932D01*
X9792419Y5573479D02*
X9810864Y5591924D01*
X9829717Y6351614D02*
X9838317Y6343014D01*
X9855200Y6261100D02*
Y6302254D01*
X9766386Y7099665D02*
X9802033Y7064017D01*
X9832086Y6644967D02*
Y6991464D01*
X10054196Y7796327D02*
X10080593D01*
X10120659Y7814137D02*
X10130005Y7827681D01*
X10197198Y7862952D02*
X10258832D01*
X10296397Y7706227D02*
Y7819432D01*
X6133374Y3771702D02*
X6144152D01*
X6185074Y3754751D02*
X8644972D01*
X8663498Y3773278D02*
X9488734D01*
X9619521Y3827452D02*
X9743769Y3951700D01*
X9762267Y7288737D02*
Y7297416D01*
Y7171677D02*
Y7213916D01*
X9766061Y7279577D02*
X9769856Y7275782D01*
Y7359282D02*
X9770917D01*
X9762267Y7377602D02*
Y7413318D01*
X9769856Y7232236D02*
X9770917D01*
X9769856Y7315736D02*
X9770917D01*
X9769856Y7275782D02*
X9770917D01*
Y7232236D02*
X9772679Y7233997D01*
X9770917Y7315736D02*
X9772679Y7317497D01*
X9770917Y7359282D02*
X9772679Y7357521D01*
X9774440Y7254009D02*
Y7267277D01*
X9792182Y4068578D02*
Y5510877D01*
X9784621Y7117710D02*
X9820283Y7082048D01*
X9774440Y7337509D02*
Y7353268D01*
X9810626Y5555406D02*
X9829071Y5573851D01*
X9880854Y5698866D02*
Y6302368D01*
X9848015Y6369596D02*
X9856538Y6361073D01*
X9832059Y6408117D02*
Y6582837D01*
X9857740Y6644849D02*
Y6991619D01*
X10054196Y7846314D02*
X10080593D01*
X10097719Y7839819D02*
X10100489D01*
X10095279Y7840231D02*
X10097719Y7839819D01*
X10181013Y7530846D02*
X10181235D01*
X10239061Y7554798D02*
X10273880Y7589617D01*
X10197198Y7888606D02*
X10262021D01*
X10322051Y7705911D02*
Y7819572D01*
X10298302Y7873578D02*
X10300656Y7871224D01*
X10221079Y7573096D02*
X10255517Y7607534D01*
X9855200Y6108536D02*
Y6261100D01*
X9829800Y5956136D02*
X9855200Y5981536D01*
Y6019636D01*
X9829800Y6045036D02*
X9855200Y6019636D01*
X9829800Y6083136D02*
X9855200Y6108536D01*
X9829800Y5791036D02*
X9855200Y5765636D01*
Y5854536D02*
Y5892636D01*
Y5698961D02*
Y5727536D01*
Y5765636D01*
X9829800Y5918036D02*
X9855200Y5892636D01*
X9829800Y5918036D02*
Y5956136D01*
Y5829136D02*
X9855200Y5854536D01*
X9829800Y5791036D02*
Y5829136D01*
Y6045036D02*
Y6083136D01*
X9766528Y4265930D02*
Y4304030D01*
Y4079205D02*
Y4138930D01*
Y4177030D01*
Y4392930D02*
Y4509770D01*
Y5510972D01*
X9741128Y4367530D02*
X9766528Y4392930D01*
X9741128Y4329430D02*
X9766528Y4304030D01*
X9741128Y4329430D02*
Y4367530D01*
Y4240530D02*
X9766528Y4265930D01*
X9741128Y4202430D02*
Y4240530D01*
Y4202430D02*
X9766528Y4177030D01*
X8634345Y3780405D02*
X8652872Y3798932D01*
X9774440Y7321750D02*
Y7337509D01*
Y7238250D02*
Y7254009D01*
X8644972Y3754751D02*
X8663498Y3773278D01*
X10399893Y7679897D02*
Y8041578D01*
X10215810Y8143240D02*
X10298230D01*
X10214062Y7425651D02*
X10351516Y7563105D01*
X10200913Y7375008D02*
Y7393906D01*
Y7291508D02*
Y7300187D01*
X10193324Y7278553D02*
X10197119Y7282347D01*
X10193324Y7362053D02*
X10197119Y7365847D01*
X10192263Y7362053D02*
X10193324D01*
X10188740Y7324521D02*
Y7340280D01*
Y7353548D01*
X10192263Y7318507D02*
X10193324D01*
X10190501Y7320268D02*
X10192263Y7318507D01*
Y7278553D02*
X10193324D01*
X10188740Y7241021D02*
Y7256780D01*
Y7270048D01*
X10312400Y6870700D02*
Y7007086D01*
X10227895Y7151345D02*
X10270161Y7109079D01*
X10192263Y7235007D02*
X10193324D01*
X10200913Y7216485D02*
Y7216687D01*
X10190501Y7236768D02*
X10192263Y7235007D01*
X10213340Y4736407D02*
Y5156649D01*
X10232010Y4046882D02*
Y4311058D01*
X10165193Y5461080D02*
X10247646Y5543533D01*
X10173161Y4411519D02*
X10202586Y4382095D01*
X10146689Y3906209D02*
X10192870Y3952390D01*
X10134014Y8173247D02*
X10134154Y8173106D01*
X10134298D02*
X10134298D01*
X10134154D02*
X10134298D01*
X10061485Y8193307D02*
X10085585D01*
X10132060Y4510745D02*
Y4568870D01*
X10126265Y5366867D02*
Y5367099D01*
X10117179Y3824338D02*
Y3834965D01*
X9883224Y3559275D02*
X10095182Y3771233D01*
X6251890Y3484880D02*
X9703618D01*
X6091958Y3451796D02*
X6100502Y3460341D01*
X6115604Y3496799D02*
X6119478Y3500673D01*
X6115594Y3496790D02*
X6115604Y3496799D01*
X6146496Y3511865D02*
X6186743D01*
X10388007Y8131853D02*
X10388495Y8131366D01*
X10425547Y7679600D02*
Y8041914D01*
X10215945Y8168894D02*
X10298582D01*
X10232309Y7407617D02*
X10369866Y7545175D01*
X10238740Y7340280D02*
Y7353548D01*
Y7256780D02*
Y7270048D01*
X10234155Y7362053D02*
X10235217D01*
X10230361Y7365847D02*
X10234155Y7362053D01*
X10226567Y7375008D02*
Y7393755D01*
X10235217Y7318507D02*
X10236979Y7320268D01*
X10234155Y7318507D02*
X10235217D01*
X10234155Y7278553D02*
X10235217D01*
X10230361Y7282347D02*
X10234155Y7278553D01*
X10226567Y7291508D02*
Y7300187D01*
X10246177Y7169343D02*
X10288568Y7126952D01*
X10338054Y5699768D02*
Y7007482D01*
X10238994Y4736123D02*
Y5156834D01*
X10257664Y4046593D02*
Y4311231D01*
X10183401Y5443008D02*
X10265853Y5525461D01*
X10234155Y7235007D02*
X10235217D01*
X10236979Y7236768D01*
X10183401Y5290999D02*
X10183435Y5290965D01*
X10198815Y4422146D02*
X10220848Y4400112D01*
X10178135Y4618074D02*
X10198555Y4638494D01*
X10172343Y3895583D02*
X10211215Y3934454D01*
X10144643Y8198428D02*
X10144780Y8198566D01*
X10157714Y4521372D02*
Y4568775D01*
X10142833Y3824113D02*
Y3824338D01*
X10113214Y8225307D02*
X10113279Y8225264D01*
X10054196Y8246313D02*
X10062628D01*
X10134162Y8209378D02*
X10134180Y8209360D01*
X10128331Y8215209D02*
X10134162Y8209378D01*
X9901268Y3541039D02*
X10113481Y3753252D01*
X6241264Y3459226D02*
X9703754D01*
X6137501Y3464097D02*
X6149802Y3451796D01*
X6137489Y3464110D02*
X6137501Y3464097D01*
Y3482416D02*
X6137501Y3482417D01*
X6146662Y3486211D02*
X6176117D01*
X10312400Y6760210D02*
Y6870700D01*
X10287000Y6696710D02*
X10312400Y6671310D01*
X10287000Y6696710D02*
Y6734810D01*
X10312400Y6760210D01*
X10287000Y6569710D02*
X10312400Y6544310D01*
Y6633210D02*
Y6671310D01*
Y5699863D02*
Y6506210D01*
Y6544310D01*
X10287000Y6607810D02*
X10312400Y6633210D01*
X10287000Y6569710D02*
Y6607810D01*
X10159927Y4636147D02*
X10180214Y4656434D01*
X10238740Y7324521D02*
Y7340280D01*
Y7241021D02*
Y7256780D01*
X10144777Y8198569D02*
X10144780Y8198566D01*
X10143164Y8200116D02*
X10144777Y8198569D01*
X10113279Y8225264D02*
X10126193Y8216935D01*
X10050913Y7375008D02*
Y7392102D01*
X10043325Y7362053D02*
X10047119Y7365847D01*
X10042263Y7362053D02*
X10043325D01*
X10042263Y7318507D02*
X10043325D01*
X10050913Y7291508D02*
Y7300187D01*
X10043325Y7278553D02*
X10047119Y7282347D01*
X10042263Y7278553D02*
X10043325D01*
X10040501Y7236768D02*
X10042263Y7235007D01*
X10043325D01*
X10038740Y7324521D02*
Y7340280D01*
Y7353548D01*
X10040501Y7320268D02*
X10042263Y7318507D01*
X10038740Y7241021D02*
Y7256780D01*
Y7270048D01*
X10210800Y5748903D02*
Y6890525D01*
X10103606Y4872104D02*
Y5062137D01*
X10051812Y5504329D02*
X10150282Y5602799D01*
X10052472Y5149428D02*
X10078039Y5123861D01*
X10050913Y7181074D02*
Y7216687D01*
X10065642Y4780622D02*
X10065763Y4780743D01*
X10073314Y4101827D02*
Y4308611D01*
X10035124Y4031284D02*
X10050437Y4046597D01*
X9883806Y7846314D02*
X9910203D01*
X9866681Y7839819D02*
X9869120Y7840231D01*
X10001338Y5272876D02*
Y5382474D01*
X9863910Y7839819D02*
X9866681D01*
X9944318Y7521158D02*
X10035031Y7430445D01*
X9673425Y7888606D02*
X9767201D01*
X9616143Y7860382D02*
X9623821Y7868060D01*
X9588246Y7731468D02*
Y7793032D01*
X9748621Y7583645D02*
X9793459D01*
X10027920Y4418201D02*
Y4689554D01*
X9999726Y3909283D02*
Y3945825D01*
X9785942Y3658955D02*
X9973886Y3846900D01*
X5965734Y3546038D02*
X5975647D01*
X5997584Y3555124D02*
X6007759Y3565299D01*
X5997568Y3555109D02*
X5997584Y3555124D01*
X6054260Y3584561D02*
X9606336D01*
X10088740Y7340280D02*
Y7353548D01*
X10085217Y7318507D02*
X10086979Y7320268D01*
X10088740Y7256780D02*
Y7270048D01*
X10085217Y7235007D02*
X10086979Y7236768D01*
X10084156Y7362053D02*
X10085217D01*
X10080361Y7365847D02*
X10084156Y7362053D01*
Y7318507D02*
X10085217D01*
X10076567Y7291508D02*
Y7300187D01*
Y7375008D02*
Y7397415D01*
X10084156Y7278553D02*
X10085217D01*
X10080361Y7282347D02*
X10084156Y7278553D01*
Y7235007D02*
X10085217D01*
X10076567Y7181275D02*
Y7216687D01*
X10236454Y6168390D02*
Y6891027D01*
X10070104Y5486341D02*
X10168674Y5584911D01*
X10094093Y7138963D02*
X10161801Y7071255D01*
X10129260Y4872009D02*
Y5062324D01*
X10078126Y5160054D02*
X10096311Y5141869D01*
X10098968Y4101606D02*
Y4308834D01*
X9843703Y7814191D02*
X9843716Y7814171D01*
X10026992Y5283502D02*
Y5382260D01*
X9883806Y7796327D02*
X9910203D01*
X9954944Y7546812D02*
X10056928Y7444828D01*
X9834394Y7827681D02*
X9843703Y7814191D01*
X9684051Y7862952D02*
X9767201D01*
X9748844Y7609299D02*
X9804086D01*
X9613900Y7739945D02*
Y7792801D01*
X10053574Y4418424D02*
Y4689288D01*
X10053460Y4013340D02*
X10068733Y4028613D01*
X10025380Y3909160D02*
Y3945550D01*
X9803986Y3640720D02*
X9992113Y3828846D01*
X6059573Y3558907D02*
X9606472D01*
X6006637Y3505135D02*
Y3515048D01*
X6022142Y3543402D02*
X6022149Y3543409D01*
X6015724Y3536984D02*
X6022142Y3543402D01*
X10075811Y7120965D02*
X10143306Y7053471D01*
X9627141Y7637568D02*
X9633293Y7631416D01*
X10088740Y7324521D02*
Y7340280D01*
Y7241021D02*
Y7256780D01*
X10261854Y6066790D02*
Y6104890D01*
X10236454Y6130290D02*
X10261854Y6104890D01*
X10236454Y6041390D02*
X10261854Y6066790D01*
X10236454Y6003290D02*
Y6041390D01*
Y6130290D02*
Y6168390D01*
Y5914390D02*
X10261854Y5939790D01*
Y5977890D01*
X10236454Y5748546D02*
Y5876290D01*
Y5914390D01*
Y6003290D02*
X10261854Y5977890D01*
X9924440Y7337509D02*
Y7353268D01*
X9919856Y7359282D02*
X9920917D01*
X9922679Y7357521D01*
X9920917Y7315736D02*
X9922679Y7317497D01*
X9919856Y7315736D02*
X9920917D01*
X9919856Y7275782D02*
X9920917D01*
X9912267Y7377602D02*
Y7422633D01*
Y7422633D01*
X9916061Y7279577D02*
X9919856Y7275782D01*
X9912267Y7288737D02*
Y7297416D01*
X9932043Y7132945D02*
X10046313Y7018675D01*
X10127984Y5811651D02*
Y6821505D01*
X9924440Y7254009D02*
Y7267277D01*
X9919856Y7232236D02*
X9920917D01*
X9916061Y7228442D02*
X9919856Y7232236D01*
X9912267Y7180688D02*
Y7219281D01*
X9901324Y3982531D02*
Y5405392D01*
X9881181Y8193072D02*
X9902347D01*
X9664314Y8140700D02*
X9754745D01*
X9869105Y7499238D02*
X9888619Y7479724D01*
X9702187Y7518400D02*
X9822844D01*
X9519814Y7679519D02*
Y7996198D01*
X9710972Y3730516D02*
X9857721Y3877265D01*
X6637401Y3652139D02*
X9521755D01*
X6142211Y3669486D02*
X6620054D01*
X6030753Y3715726D02*
X6030878Y3715602D01*
X9894711Y8246313D02*
X9910203D01*
X9886613Y7377602D02*
Y7412006D01*
X9877963Y7315736D02*
X9879025D01*
X9886613Y7288737D02*
Y7297416D01*
X9879025Y7275782D02*
X9882819Y7279577D01*
X9877963Y7275782D02*
X9879025D01*
X9877963Y7232236D02*
X9879025D01*
X9877963Y7359282D02*
X9879025D01*
X9876202Y7357521D02*
X9877963Y7359282D01*
X9874440Y7321750D02*
Y7337509D01*
Y7353268D01*
X9876202Y7317497D02*
X9877963Y7315736D01*
X9874440Y7240741D02*
Y7254009D01*
Y7267277D01*
X10102330Y6819900D02*
Y6821168D01*
X9886613Y7180575D02*
Y7219281D01*
X9913823Y7114885D02*
X10027935Y7000773D01*
X9879025Y7232236D02*
X9882819Y7228442D01*
X9968484Y5572730D02*
X10027935Y5632181D01*
X9875670Y3982720D02*
Y5405528D01*
X9855095Y8227963D02*
X9859442Y8230886D01*
X9691561Y7492746D02*
X9822596D01*
X9664219Y8166354D02*
X9752541D01*
X9543930Y8116449D02*
X9544064Y8116584D01*
X9494160Y7679342D02*
Y7996294D01*
X9851141Y7480922D02*
X9862965Y7469098D01*
X9851126Y7480937D02*
X9851141Y7480922D01*
X6648027Y3677793D02*
X9521620D01*
X6142388Y3695140D02*
X6630680D01*
X9924440Y7321750D02*
Y7337509D01*
X9946507Y5514473D02*
X10046171Y5614136D01*
X9924440Y7240741D02*
Y7254009D01*
X6620054Y3669486D02*
X6637401Y3652139D01*
X10102330Y6682740D02*
Y6819900D01*
Y6555740D02*
Y6593840D01*
X10076930Y6619240D02*
X10102330Y6593840D01*
X10076930Y6657340D02*
X10102330Y6682740D01*
X10076930Y6619240D02*
Y6657340D01*
X10102330Y6428740D02*
Y6466840D01*
X10076930Y6492240D02*
X10102330Y6466840D01*
Y5811786D02*
Y6428740D01*
X10076930Y6530340D02*
X10102330Y6555740D01*
X10076930Y6492240D02*
Y6530340D01*
X9968484Y5572730D02*
X9968484D01*
X9928271Y5532517D02*
X9968484Y5572730D01*
X9837381Y8216052D02*
X9855095Y8227963D01*
X9812532Y8191203D02*
X9837381Y8216052D01*
X9544337Y7558203D02*
X9551976Y7550564D01*
X9692928Y3748752D02*
X9839448Y3895271D01*
X6630680Y3695140D02*
X6648027Y3677793D01*
X8871464Y5523885D02*
Y5647837D01*
X8696590Y7708519D02*
X8720014D01*
X8732968Y7621270D02*
Y7695564D01*
X8637663Y7331143D02*
Y7664552D01*
X8748014Y5945872D02*
Y6805930D01*
X8681932Y7224268D02*
X8711307Y7194893D01*
X8681907Y7224293D02*
X8681932Y7224268D01*
X8748014Y7078980D02*
Y7106275D01*
X8845810Y5526359D02*
Y5647700D01*
X8691277Y7734173D02*
X8720014D01*
X8663666Y7206254D02*
X8693013Y7176907D01*
X8612009Y7330965D02*
Y7664655D01*
X8722360Y5945735D02*
Y7106057D01*
X8794354Y5477378D02*
X8796829D01*
X8773414Y6977380D02*
Y7015480D01*
X8748014Y6951980D02*
X8773414Y6977380D01*
X8748014Y6805930D02*
Y6951980D01*
Y7040880D02*
X8773414Y7015480D01*
X8748014Y7040880D02*
Y7078980D01*
X8732968Y7747128D02*
Y7821422D01*
X8629229Y7706228D02*
X8633060Y7710059D01*
X9118548Y8123965D02*
Y8688261D01*
X9076245Y8050796D02*
X9096722Y8071273D01*
X9068031Y8809621D02*
X9068454Y8809199D01*
X8676035Y8859570D02*
X8947445D01*
X8976647Y8023521D02*
X9010398D01*
X8895783Y8008493D02*
X8940365D01*
X8882828Y7921244D02*
Y7995538D01*
X8469140Y7108680D02*
X8476943Y7100877D01*
X8399378Y7277100D02*
Y8616492D01*
X8539480Y5035537D02*
Y6949900D01*
X8564246Y4975747D02*
X8568100Y4971892D01*
X8604693Y4956735D02*
X8613209Y4948219D01*
X8604671Y4956757D02*
X8604693Y4956735D01*
X9092894Y8124186D02*
Y8688065D01*
X9063957Y8074788D02*
X9078426Y8089257D01*
X8965900Y8049175D02*
X9002123D01*
X8676427Y8833916D02*
X8947043D01*
X8882828Y8047102D02*
Y8121396D01*
X8474710Y8736330D02*
X8498664Y8760284D01*
X8895783Y8034147D02*
X8929619D01*
X8494794Y7119306D02*
X8495403Y7118697D01*
X8425032Y8534400D02*
Y8616397D01*
Y7287726D02*
Y7378700D01*
X8565134Y5035714D02*
Y6950352D01*
X8600830Y4993762D02*
X8613131Y5006063D01*
X8600818Y4993749D02*
X8600830Y4993762D01*
X8456503Y8754403D02*
X8480801Y8778701D01*
X8425032Y8194040D02*
X8450432Y8219440D01*
Y8257540D01*
X8425032Y8155940D02*
X8450432Y8130540D01*
X8425032Y8282940D02*
X8450432Y8257540D01*
Y7950200D02*
Y7988300D01*
Y8092440D02*
Y8130540D01*
X8425032Y7924800D02*
X8450432Y7950200D01*
X8425032Y8067040D02*
X8450432Y8092440D01*
X8425032Y8013700D02*
X8450432Y7988300D01*
Y8346440D02*
Y8384540D01*
X8425032Y8409940D02*
X8450432Y8384540D01*
X8425032Y8321040D02*
X8450432Y8346440D01*
X8425032Y8409940D02*
Y8534400D01*
Y8013700D02*
Y8067040D01*
Y7886700D02*
Y7924800D01*
Y8282940D02*
Y8321040D01*
Y8155940D02*
Y8194040D01*
X8450432Y7569200D02*
Y7607300D01*
Y7696200D02*
Y7734300D01*
X8425032Y7543800D02*
X8450432Y7569200D01*
X8425032Y7670800D02*
X8450432Y7696200D01*
X8425032Y7632700D02*
X8450432Y7607300D01*
Y7442200D02*
Y7480300D01*
X8425032Y7505700D02*
X8450432Y7480300D01*
X8425032Y7416800D02*
X8450432Y7442200D01*
Y7823200D02*
Y7861300D01*
X8425032Y7759700D02*
Y7797800D01*
Y7759700D02*
X8450432Y7734300D01*
X8425032Y7886700D02*
X8450432Y7861300D01*
X8425032Y7797800D02*
X8450432Y7823200D01*
X8425032Y7378700D02*
Y7416800D01*
Y7632700D02*
Y7670800D01*
Y7505700D02*
Y7543800D01*
X8272780Y7215569D02*
Y7609840D01*
Y8625840D02*
Y8657988D01*
X8437240Y5685333D02*
Y6894464D01*
X8401812Y5317162D02*
Y5599802D01*
X8329850Y7077790D02*
X8383545Y7024095D01*
X7426376Y8831792D02*
X8098975D01*
X7454900Y8100060D02*
X7542836D01*
X7362973Y8048108D02*
X7375834Y8060970D01*
X7287260Y8072151D02*
Y8692676D01*
X7325264Y8034147D02*
X7329267D01*
X8462894Y5685129D02*
Y6894877D01*
X8348070Y7095850D02*
X8401978Y7041942D01*
X8427466Y5317162D02*
Y5599599D01*
X8239716Y8799324D02*
X8240145Y8798895D01*
X8298434Y7215682D02*
Y8658173D01*
X7426054Y8857446D02*
X8099397D01*
X7309638Y8808958D02*
X7310094Y8809413D01*
X7261606Y8059623D02*
Y8692998D01*
X7271392Y8035997D02*
X7281178Y8026211D01*
X7478880Y7942580D02*
X7542836D01*
X7375898Y7981606D02*
X7390336Y7967168D01*
X7444551Y7944739D02*
X7444820Y7944739D01*
X8272780Y7898130D02*
Y7936230D01*
Y8025130D02*
Y8173720D01*
Y7771130D02*
Y7809230D01*
X8247380Y7999730D02*
X8272780Y8025130D01*
X8247380Y7961630D02*
X8272780Y7936230D01*
X8247380Y7745730D02*
X8272780Y7771130D01*
Y7609840D02*
Y7682230D01*
Y8516620D02*
Y8625840D01*
Y8389620D02*
Y8427720D01*
X8247380Y8491220D02*
X8272780Y8516620D01*
X8247380Y8453120D02*
Y8491220D01*
X8272780Y8262620D02*
Y8300720D01*
X8247380Y7707630D02*
Y7745730D01*
Y8199120D02*
X8272780Y8173720D01*
X8247380Y7961630D02*
Y7999730D01*
Y8453120D02*
X8272780Y8427720D01*
X8247380Y8364220D02*
X8272780Y8389620D01*
X8247380Y8237220D02*
X8272780Y8262620D01*
X8247380Y8199120D02*
Y8237220D01*
Y8326120D02*
Y8364220D01*
Y8326120D02*
X8272780Y8300720D01*
X7423707Y8095028D02*
X7428714Y8096439D01*
X7375899Y8061034D02*
X7390334Y8075470D01*
X8247380Y7834630D02*
X8272780Y7809230D01*
X8247380Y7707630D02*
X8272780Y7682230D01*
X8247380Y7872730D02*
X8272780Y7898130D01*
X8247380Y7834630D02*
Y7872730D01*
X7445674Y7944713D02*
X7478880Y7942580D01*
X7366728Y7990775D02*
X7375898Y7981606D01*
X8338906Y5778758D02*
Y6825725D01*
X8158480Y7848600D02*
Y7907528D01*
X8281510Y5232400D02*
Y5640191D01*
X7508147Y8294190D02*
X7538893Y8263444D01*
X7508126Y8294211D02*
X7508147Y8294190D01*
X7602204Y8237220D02*
X7819109D01*
X7538893Y8263444D02*
X7538918Y8263419D01*
X7475354Y8304696D02*
X7482783D01*
X7456233Y8293004D02*
X7462672Y8299443D01*
X7444486Y8221218D02*
Y8264645D01*
X8158480Y7209995D02*
Y7472680D01*
X7998713Y8162825D02*
X8090929Y8070609D01*
X8265376Y5066769D02*
X8272385Y5073778D01*
X8364560Y5778502D02*
Y6826202D01*
X8307164Y5221774D02*
Y5639936D01*
X7526094Y8312523D02*
X7536407Y8302210D01*
X7526086Y8312530D02*
X7526094Y8312523D01*
X7444486Y8384182D02*
Y8421370D01*
X7461543Y8343003D02*
X7468123Y8336423D01*
X8184134Y7210091D02*
Y7907739D01*
X8016615Y8181204D02*
X8109219Y8088600D01*
X8258529Y7030486D02*
X8295085Y6993930D01*
X7612830Y8262874D02*
X7819446D01*
X8316211Y5073923D02*
X8323220Y5066914D01*
X8307125Y5095859D02*
Y5221735D01*
X8158480Y7683500D02*
Y7721600D01*
X8240321Y7012413D02*
X8276607Y6976127D01*
X8158480Y7810500D02*
Y7848600D01*
X8133080Y7658100D02*
X8158480Y7683500D01*
X8133080Y7785100D02*
X8158480Y7810500D01*
X8133080Y7747000D02*
X8158480Y7721600D01*
Y7472680D02*
Y7594600D01*
X8133080Y7620000D02*
X8158480Y7594600D01*
X8133080Y7747000D02*
Y7785100D01*
Y7620000D02*
Y7658100D01*
X7536407Y8302210D02*
X7549519Y8289098D01*
X8307125Y5221735D02*
X8307164Y5221774D01*
X8281471Y5095714D02*
Y5232361D01*
X8281510Y5232400D01*
X8160893Y5756582D02*
Y6193183D01*
X8068256Y6888480D02*
Y6971171D01*
X7631783Y7785100D02*
X7791115D01*
X8010906Y7109626D02*
Y7545270D01*
X7522027Y7729496D02*
X7539341Y7746809D01*
X7452075Y7708519D02*
X7471385D01*
X8068256Y6416828D02*
Y6482080D01*
X8144798Y5727637D02*
X8151807Y5734645D01*
X8093910Y6417254D02*
Y6971494D01*
X7631503Y7810754D02*
X7791573D01*
X7954327Y7743339D02*
X7957534Y7740132D01*
X7503983Y7747732D02*
X7521556Y7765305D01*
X8036560Y7109949D02*
Y7549346D01*
X7452075Y7734173D02*
X7471249D01*
X8195633Y5734645D02*
X8202642Y5727637D01*
X8186547Y5756582D02*
Y6193609D01*
X8068256Y6482080D02*
Y6634480D01*
X7444486Y7700930D02*
X7452075Y7708519D01*
X7444486Y7621270D02*
Y7700930D01*
X8042856Y6786880D02*
X8068256Y6761480D01*
Y6723380D02*
Y6761480D01*
X8042856Y6824980D02*
X8068256Y6850380D01*
X8042856Y6659880D02*
X8068256Y6634480D01*
X8042856Y6697980D02*
X8068256Y6723380D01*
Y6850380D02*
Y6888480D01*
X8042856Y6659880D02*
Y6697980D01*
Y6786880D02*
Y6824980D01*
X7444486Y7741762D02*
Y7821422D01*
Y7741762D02*
X7452075Y7734173D01*
X10419080Y7287260D02*
Y7354841D01*
X10419426Y4086397D02*
Y7287260D01*
X9854116Y7946314D02*
X9910203D01*
X6319792Y3399450D02*
X6343569Y3383663D01*
X6365240Y3377123D02*
X9819701D01*
X6404019Y3400237D02*
X9810127D01*
X9999306Y3451518D02*
X10240599Y3692810D01*
X10224363Y3709263D02*
X10224382Y3709282D01*
X9989732Y3474632D02*
X10224363Y3709263D01*
X10287687Y3788107D02*
Y3796765D01*
X10271964Y3737080D02*
X10279685Y3753142D01*
X10304783Y3903415D02*
X10371104Y3969736D01*
X10304763Y3903395D02*
X10304783Y3903415D01*
X10327897Y3893841D02*
X10387374Y3953318D01*
X10327877Y3893821D02*
X10327897Y3893841D01*
X10442540Y4086397D02*
Y7446680D01*
X10314267Y8065173D02*
X10345420Y8034020D01*
X10054196Y8096326D02*
X10239057D01*
X10441940Y7447280D02*
X10442540Y7446680D01*
D13*
X5935487Y3961818D02*
G03*
X5935715Y3961819I0J63852D01*
G01*
X5867447Y3977626D02*
G03*
X5905611Y3961818I38164J38164D01*
G01*
X5867447Y3977626D02*
G03*
X5862320Y3979750I-5127J-5127D01*
G01*
X6026040Y3999265D02*
G03*
X5980638Y3980520I0J-64357D01*
G01*
X7180341Y3999265D02*
G03*
X7278370Y4039870I0J138633D01*
G01*
X7448631Y4118598D02*
G03*
X7292375Y4053875I0J-220978D01*
G01*
X8950960Y4041140D02*
G03*
X9031899Y4007614I80939J80939D01*
G01*
X8950937Y4041162D02*
G03*
X8863450Y4077401I-87488J-87488D01*
G01*
X9298940Y4007614D02*
G03*
X9363687Y4034433I0J91566D01*
G01*
X8211048Y4091574D02*
G03*
X8211149Y4091473I34216J34216D01*
G01*
X8211048Y4091574D02*
G03*
X8145806Y4118598I-65242J-65242D01*
G01*
X8211149Y4091473D02*
G03*
X8245264Y4077401I34115J34316D01*
G01*
X9483973Y4154718D02*
G03*
X9532668Y4272280I-117562J117562D01*
G01*
X9567876Y6721938D02*
G03*
X9532668Y6636939I84999J-84999D01*
G01*
X9567876Y6721938D02*
G03*
X9588132Y6770841I-48902J48902D01*
G01*
Y6918849D02*
G03*
X9572324Y6957013I-53972J0D01*
G01*
X5862320Y3917750D02*
G03*
X5867447Y3919874I0J7251D01*
G01*
X5905611Y3935682D02*
G03*
X5867447Y3919874I0J-53972D01*
G01*
X5946653Y3935682D02*
G03*
X5991224Y3954144I0J63033D01*
G01*
X6026231Y3973129D02*
G03*
X5998879Y3961799I0J-38682D01*
G01*
X7180623Y3973129D02*
G03*
X7296652Y4021190I0J164090D01*
G01*
X8192820Y4072840D02*
G03*
X8244978Y4051265I52158J52257D01*
G01*
X7459457Y4092462D02*
G03*
X7303201Y4027739I0J-220978D01*
G01*
X8192770Y4072890D02*
G03*
X8145520Y4092462I-47250J-47250D01*
G01*
X8932690Y4022448D02*
G03*
X9031740Y3981477I99050J99247D01*
G01*
X9299097D02*
G03*
X9382057Y4015840I0J117322D01*
G01*
X8932591Y4022546D02*
G03*
X8863119Y4051265I-69472J-69669D01*
G01*
X9506854Y4140637D02*
G03*
X9558805Y4266058I-125421J125421D01*
G01*
X9586537Y6703637D02*
G03*
X9558805Y6636686I66950J-66950D01*
G01*
X9586537Y6703637D02*
G03*
X9614268Y6770587I-66950J66950D01*
G01*
X9630076Y6957013D02*
G03*
X9614268Y6918849I38164J-38164D01*
G01*
X5980533Y3980415D02*
G03*
X5980638Y3980520I-45045J45255D01*
G01*
X5980397Y3980281D02*
G03*
X5980533Y3980415I-44910J45389D01*
G01*
X5935715Y3961819D02*
G03*
X5980397Y3980281I-227J63851D01*
G01*
X9570200Y6962140D02*
G03*
X9572324Y6957013I7251J0D01*
G01*
X9630076D02*
G03*
X9632200Y6962140I-5127J5127D01*
G01*
X8932690Y4022448D02*
G03*
X8932591Y4022546I-69571J-69571D01*
G01*
X8192770Y4072890D02*
G03*
X8192820Y4072840I52208J52207D01*
G01*
X7374315Y6507995D02*
G03*
X7493974Y6458483I119659J119839D01*
G01*
X7621510D02*
G03*
X7676438Y6481235I0J77679D01*
G01*
X6673174Y6829692D02*
G03*
X6651529Y6820726I0J-30611D01*
G01*
X6644674Y6813870D02*
G03*
X6644687Y6813884I-5114J5140D01*
G01*
X6772630Y6793510D02*
G03*
X6685280Y6829692I-87350J-87350D01*
G01*
X7336125Y6546185D02*
G03*
X7218365Y6594963I-117760J-117760D01*
G01*
X6926641Y6639499D02*
G03*
X7034198Y6594963I107556J107608D01*
G01*
X6639560Y6811760D02*
G03*
X6644674Y6813870I0J7251D01*
G01*
X7709779Y6561180D02*
G03*
X7699108Y6535420I25760J-25760D01*
G01*
X7716982Y6568384D02*
G03*
X7719095Y6573501I-5141J5117D01*
G01*
X7716970Y6568372D02*
G03*
X7716982Y6568384I-5129J5129D01*
G01*
X7385141Y6534132D02*
G03*
X7504800Y6484620I119659J119839D01*
G01*
X7621307D02*
G03*
X7658100Y6499860I0J52033D01*
G01*
X6644674Y6871650D02*
G03*
X6639560Y6873760I-5114J-5140D01*
G01*
X6644687Y6871636D02*
G03*
X6644674Y6871650I-5127J-5127D01*
G01*
X6791002Y6812100D02*
G03*
X6685434Y6855828I-105568J-105568D01*
G01*
X7354316Y6564956D02*
G03*
X7218774Y6621099I-135542J-135542D01*
G01*
X6937467Y6665635D02*
G03*
X7045024Y6621099I107556J107608D01*
G01*
X6651529Y6864794D02*
G03*
X6673174Y6855828I21645J21645D01*
G01*
X7672972Y6535738D02*
G03*
X7660676Y6565422I-41981J0D01*
G01*
X7657097Y6574062D02*
G03*
X7660676Y6565422I12218J0D01*
G01*
X7684270Y6489067D02*
G03*
X7699108Y6524937I-35936J35870D01*
G01*
X7684237Y6489034D02*
G03*
X7684270Y6489067I-35903J35903D01*
G01*
X7374225Y6508085D02*
G03*
X7374315Y6507995I119749J119749D01*
G01*
X6926615Y6639525D02*
G03*
X6926641Y6639499I107582J107582D01*
G01*
X7660734Y6502494D02*
G03*
X7672972Y6532136I-29779J29642D01*
G01*
X7660665Y6502425D02*
G03*
X7660734Y6502494I-29710J29710D01*
G01*
X7385051Y6534222D02*
G03*
X7385141Y6534132I119749J119749D01*
G01*
X6937441Y6665661D02*
G03*
X6937467Y6665635I107582J107582D01*
G01*
X7868958Y6948476D02*
G03*
X7861668Y6921389I46682J-27087D01*
G01*
X7835634Y6794902D02*
G03*
X7835773Y6795041I-62853J62853D01*
G01*
X7749154Y6758940D02*
G03*
X7835394Y6794662I0J121962D01*
G01*
X7167710Y6758940D02*
G03*
X7092346Y6727723I0J-106580D01*
G01*
X7038531Y6698645D02*
G03*
X7080759Y6716137I0J59720D01*
G01*
X6985034Y6682824D02*
G03*
X6985047Y6682837I-5114J5140D01*
G01*
X6979920Y6680714D02*
G03*
X6985034Y6682824I0J7251D01*
G01*
X7013534Y6698645D02*
G03*
X6991889Y6689680I0J-30611D01*
G01*
X7835532Y6921389D02*
G03*
X7828242Y6948476I-53972J0D01*
G01*
X7817085Y6813315D02*
G03*
X7835532Y6857850I-44535J44535D01*
G01*
X7748910Y6785077D02*
G03*
X7817085Y6813315I0J96413D01*
G01*
X7156884Y6785077D02*
G03*
X7081520Y6753860I0J-106580D01*
G01*
X7038340Y6724782D02*
G03*
X7062387Y6734727I0J34045D01*
G01*
X6985034Y6740603D02*
G03*
X6979920Y6742713I-5114J-5140D01*
G01*
X6985047Y6740590D02*
G03*
X6985034Y6740603I-5127J-5127D01*
G01*
X6991889Y6733748D02*
G03*
X7013534Y6724782I21645J21645D01*
G01*
X7877476Y6959553D02*
G03*
X7879600Y6964680I-5127J5127D01*
G01*
X7877476Y6959553D02*
G03*
X7868958Y6948476I38164J-38164D01*
G01*
X7835773Y6795041D02*
G03*
X7861668Y6857754I-62991J62713D01*
G01*
X7828242Y6948476D02*
G03*
X7819724Y6959553I-46682J-27087D01*
G01*
X7817600Y6964680D02*
G03*
X7819724Y6959553I7251J0D01*
G01*
X7062387Y6734727D02*
G03*
X7062413Y6734753I-24047J24100D01*
G01*
X9425572Y6535309D02*
G03*
X9409764Y6573473I-53972J0D01*
G01*
X8729290Y4180343D02*
G03*
X8671124Y4204437I-58166J-58166D01*
G01*
X9235440Y4165600D02*
G03*
X9341447Y4209509I0J149916D01*
G01*
X8733202Y4176431D02*
G03*
X8759359Y4165600I26157J26167D01*
G01*
X7378535Y4204437D02*
G03*
X7252719Y4152448I0J-178235D01*
G01*
X5907309Y4092384D02*
G03*
X5928954Y4083418I21645J21645D01*
G01*
X7131369D02*
G03*
X7220625Y4120354I0J126313D01*
G01*
X9467516Y6573473D02*
G03*
X9451708Y6535309I38164J-38164D01*
G01*
X9235624Y4139463D02*
G03*
X9359798Y4190898I0J175609D01*
G01*
X8714936Y4157735D02*
G03*
X8759133Y4139463I44197J44320D01*
G01*
X8710887Y4161784D02*
G03*
X8670987Y4178300I-39899J-39937D01*
G01*
X7378631D02*
G03*
X7270917Y4133683I0J-152332D01*
G01*
X7131505Y4057282D02*
G03*
X7239070Y4101837I0J152120D01*
G01*
X5928954Y4057282D02*
G03*
X5907309Y4048316I0J-30611D01*
G01*
X9398068Y4266131D02*
G03*
X9425572Y4332626I-66631J66495D01*
G01*
X9407640Y6578600D02*
G03*
X9409764Y6573473I7251J0D01*
G01*
X9398000Y4266063D02*
G03*
X9398068Y4266131I-66563J66563D01*
G01*
X7252719Y4152448D02*
G03*
X7252503Y4152233I125815J-126247D01*
G01*
X7220625Y4120354D02*
G03*
X7220686Y4120415I-89256J89378D01*
G01*
X9467516Y6573473D02*
G03*
X9469640Y6578600I-5127J5127D01*
G01*
X9416725Y4247825D02*
G03*
X9451708Y4332530I-85055J84704D01*
G01*
X9416550Y4247649D02*
G03*
X9416725Y4247825I-84880J84880D01*
G01*
X8714875Y4157796D02*
G03*
X8714936Y4157735I44259J44259D01*
G01*
X5905611Y3961818D02*
X5935487D01*
X6026040Y3999265D02*
X7180341D01*
X7278370Y4039870D02*
X7292375Y4053875D01*
X7448631Y4118598D02*
X8145806D01*
X9031899Y4007614D02*
X9298940D01*
X9363687Y4034433D02*
X9483973Y4154718D01*
X8245264Y4077401D02*
X8863450D01*
X9532668Y4272280D02*
Y6636939D01*
X9588132Y6770841D02*
Y6918849D01*
X5905611Y3935682D02*
X5946653D01*
X5991825Y3954745D02*
X5998879Y3961799D01*
X6026231Y3973129D02*
X7180623D01*
X7296652Y4021190D02*
X7303201Y4027739D01*
X8244978Y4051265D02*
X8863119D01*
X7459457Y4092462D02*
X8145520D01*
X9031740Y3981477D02*
X9299097D01*
X9382057Y4015840D02*
X9506854Y4140637D01*
X9558805Y4266058D02*
Y6636686D01*
X9614268Y6770587D02*
Y6918849D01*
X7699108Y6524937D02*
Y6535420D01*
X7676438Y6481235D02*
X7684237Y6489034D01*
X7336125Y6546185D02*
X7374225Y6508085D01*
X7493974Y6458483D02*
X7621510D01*
X6673174Y6829692D02*
X6685280D01*
X6644687Y6813884D02*
X6651529Y6820726D01*
X6644674Y6813870D02*
X6644687Y6813884D01*
X6772630Y6793510D02*
X6926615Y6639525D01*
X7034198Y6594963D02*
X7218365D01*
X7716970Y6568372D02*
X7716982Y6568384D01*
X7709779Y6561180D02*
X7716970Y6568372D01*
X7658100Y6499860D02*
X7660665Y6502425D01*
X7354317Y6564956D02*
X7385051Y6534222D01*
X7504800Y6484620D02*
X7621307D01*
X6644687Y6871636D02*
X6651529Y6864794D01*
X6791002Y6812100D02*
X6937441Y6665661D01*
X7045024Y6621099D02*
X7218774D01*
X6673174Y6855828D02*
X6685434D01*
X7672972Y6532136D02*
Y6535738D01*
Y6524594D02*
Y6532136D01*
X7861668Y6857754D02*
Y6921389D01*
X7835394Y6794662D02*
X7835634Y6794902D01*
X7167710Y6758940D02*
X7749154D01*
X7080760Y6716137D02*
X7092346Y6727723D01*
X6985047Y6682837D02*
X6991889Y6689680D01*
X6985034Y6682824D02*
X6985047Y6682837D01*
X7013534Y6698645D02*
X7038531D01*
X7835532Y6857850D02*
Y6921389D01*
X7156884Y6785077D02*
X7748910D01*
X7062413Y6734753D02*
X7081520Y6753860D01*
X6985047Y6740590D02*
X6991889Y6733748D01*
X6985034Y6740603D02*
X6985047Y6740590D01*
X7013534Y6724782D02*
X7038340D01*
X7835532Y6854794D02*
Y6857850D01*
X9425572Y4332626D02*
Y6535309D01*
X9341447Y4209509D02*
X9398000Y4266063D01*
X7886700Y4204437D02*
X8671124D01*
X8759359Y4165600D02*
X9235440D01*
X8729290Y4180343D02*
X8733202Y4176431D01*
X7378535Y4204437D02*
X7559040D01*
X5928954Y4083418D02*
X7131369D01*
X9451708Y4332530D02*
Y6535309D01*
X9359798Y4190898D02*
X9416550Y4247650D01*
X8759133Y4139463D02*
X9235624D01*
X7378631Y4178300D02*
X8670987D01*
X8710887Y4161784D02*
X8714875Y4157796D01*
X7239070Y4101837D02*
X7270917Y4133683D01*
X5928954Y4057282D02*
X7131505D01*
X7749540Y4229837D02*
X7787640D01*
X7622540D02*
X7660640D01*
X7813040Y4204437D02*
X7886700D01*
X7724140D02*
X7749540Y4229837D01*
X7787640D02*
X7813040Y4204437D01*
X7597140D02*
X7622540Y4229837D01*
X7660640D02*
X7686040Y4204437D01*
X7559040D02*
X7597140D01*
X7686040D02*
X7724140D01*
X7220686Y4120415D02*
X7252503Y4152232D01*
D14*
X5475505Y3254475D02*
G03*
X5655111Y3180080I179605J179605D01*
G01*
X5162015Y3567965D02*
G03*
X4982410Y3642360I-179605J-179605D01*
G01*
X2242534Y3530600D02*
G03*
X2377440Y3586480I0J190786D01*
G01*
X2512346Y3642360D02*
G03*
X2377440Y3586480I0J-190786D01*
G01*
X1419311Y3454338D02*
G03*
X1419044Y3454071I179338J-179872D01*
G01*
X1598649Y3528466D02*
G03*
X1419311Y3454338I0J-254000D01*
G01*
X5655111Y3180080D02*
X8912860D01*
X9001760Y3268980D02*
X9189720D01*
X8912860Y3180080D02*
X9001760Y3268980D01*
X9189720D02*
X9232797D01*
X5162015Y3567965D02*
X5475505Y3254475D01*
X2512346Y3642360D02*
X4982410D01*
X2200806Y3530600D02*
X2242534D01*
X2005389Y3605263D02*
X2080052Y3530600D01*
X1876973Y3528466D02*
X2198672D01*
X1598649D02*
X1876973D01*
X1283575Y3318602D02*
X1419044Y3454071D01*
X2198672Y3528466D02*
X2200806Y3530600D01*
X2080052D02*
X2200806D01*
X1876973Y3528466D02*
X1953771Y3605263D01*
X2005389D01*
D15*
X1417320Y6880146D02*
G03*
X1382766Y6963674I-118234J0D01*
G01*
X1408440Y6818625D02*
G03*
X1417320Y6880146I-208669J61521D01*
G01*
X1353601Y6726315D02*
G03*
X1408440Y6818625I-153831J153831D01*
G01*
X1382665Y6963775D02*
G03*
X1299086Y6998380I-83579J-83628D01*
G01*
X1382766Y6963674D02*
G03*
X1382690Y6963750I-83680J-83528D01*
G01*
X813186Y6942088D02*
G03*
X813279Y6942181I-129553J129738D01*
G01*
X683634Y6888480D02*
G03*
X813186Y6942088I0J183346D01*
G01*
X205740Y6960750D02*
G03*
X226907Y6909647I72270J0D01*
G01*
D02*
G03*
X278010Y6888480I51103J51103D01*
G01*
X9851702Y8296326D02*
G03*
X9767201Y8261325I0J-119502D01*
G01*
X10112698Y7746314D02*
G03*
X10197198Y7781315I0J119502D01*
G01*
X9767201D02*
G03*
X9851702Y7746314I84500J84500D01*
G01*
X10197198Y8261325D02*
G03*
X10112698Y8296326I-84500J-84500D01*
G01*
X10318473Y4879617D02*
X10318931Y4879160D01*
X10318473Y4879617D02*
Y5312345D01*
X10318016Y5312802D02*
X10318473Y5312345D01*
X10314957Y4045403D02*
Y4483041D01*
X10316680Y4484764D01*
X10313234Y4043680D02*
X10314957Y4045403D01*
X1336375Y6709089D02*
X1353601Y6726315D01*
X1382665Y6963775D02*
X1382690Y6963750D01*
X978740Y6998380D02*
X1299086D01*
X278010Y6888480D02*
X683634D01*
X813279Y6942181D02*
X866980Y6995882D01*
X205740Y6960750D02*
Y7062280D01*
X977491Y6997131D02*
X978740Y6998380D01*
X866980Y6995882D02*
X868229Y6997131D01*
X977491D01*
X755060Y7083380D02*
X978740D01*
X754380Y7084060D02*
X755060Y7083380D01*
X9910203Y7896327D02*
X10054196D01*
Y7746314D02*
X10112698D01*
X9851702D02*
X9910203D01*
X10054196D01*
X9851702Y8296326D02*
X9910203D01*
X10054196D02*
X10112698D01*
X9910203D02*
X10054196D01*
X9910203Y8146313D02*
X10054196D01*
X9824440Y7254009D02*
Y7337509D01*
X10138740Y7256780D02*
Y7340280D01*
X9824440Y7199069D02*
Y7254009D01*
Y7199069D02*
X9825380Y7198129D01*
X9824440Y7337509D02*
Y7392449D01*
X9823500Y7393389D02*
X9824440Y7392449D01*
X10138740Y7340280D02*
Y7395220D01*
X10137800Y7396160D02*
X10138740Y7395220D01*
Y7201840D02*
X10139680Y7200900D01*
X10138740Y7201840D02*
Y7256780D01*
D16*
X132080Y4030980D02*
D03*
X10228580Y8630920D02*
D03*
D17*
X1768983Y6849237D02*
D03*
X1370457Y7247763D02*
D03*
D18*
X2005389Y3605263D02*
D03*
X1393459Y4217193D02*
D03*
D19*
X1192044Y4561840D02*
D03*
X1102044D02*
D03*
X123360Y4335780D02*
D03*
X213360D02*
D03*
X1192044Y5948680D02*
D03*
X1102044D02*
D03*
X213360Y5722620D02*
D03*
X123360D02*
D03*
D20*
X1327088Y4706620D02*
D03*
X1137088D02*
D03*
X1327088Y4417060D02*
D03*
X1137088D02*
D03*
X158992Y4841232D02*
D03*
X348992D02*
D03*
X1137088Y5803900D02*
D03*
X1327088D02*
D03*
Y6093460D02*
D03*
X1137088D02*
D03*
X348992Y6228072D02*
D03*
X158992D02*
D03*
D21*
X818822Y4789640D02*
D03*
Y4334040D02*
D03*
Y5720880D02*
D03*
Y6176480D02*
D03*
D22*
X530860Y4252997D02*
D03*
Y4337997D02*
D03*
X510540Y4882980D02*
D03*
Y4792980D02*
D03*
X317500Y4340822D02*
D03*
Y4250822D02*
D03*
X424180Y4253320D02*
D03*
Y4338320D02*
D03*
X317500Y5727662D02*
D03*
Y5637662D02*
D03*
X424180Y5725160D02*
D03*
Y5640160D02*
D03*
X978740Y6998380D02*
D03*
Y7083380D02*
D03*
X866980Y7085882D02*
D03*
Y6995882D02*
D03*
X510540Y6179820D02*
D03*
Y6269820D02*
D03*
X530860Y5724837D02*
D03*
Y5639837D02*
D03*
D23*
X143932Y4466840D02*
D03*
Y4561840D02*
D03*
Y4656840D02*
D03*
X423332D02*
D03*
Y4561840D02*
D03*
Y4466840D02*
D03*
Y5853680D02*
D03*
Y5948680D02*
D03*
Y6043680D02*
D03*
X143932D02*
D03*
Y5948680D02*
D03*
Y5853680D02*
D03*
D24*
X743940Y5267960D02*
D03*
D25*
X1343940D02*
D03*
D26*
X773472Y3864652D02*
D03*
D27*
X349208Y3440388D02*
D03*
D28*
X9910203Y7896327D02*
D03*
X10054196D02*
D03*
X9910203Y7796327D02*
D03*
Y7846314D02*
D03*
Y7946314D02*
D03*
Y7996326D02*
D03*
Y7746314D02*
D03*
Y8096326D02*
D03*
Y8146313D02*
D03*
Y8196326D02*
D03*
Y8246313D02*
D03*
Y8046339D02*
D03*
Y8296326D02*
D03*
X10054196Y7796327D02*
D03*
Y7846314D02*
D03*
Y7946314D02*
D03*
Y7996326D02*
D03*
Y7746314D02*
D03*
Y8096326D02*
D03*
Y8146313D02*
D03*
Y8196326D02*
D03*
Y8246313D02*
D03*
Y8046314D02*
D03*
Y8296326D02*
D03*
D29*
X9924440Y7337509D02*
D03*
X9874440D02*
D03*
X9724440D02*
D03*
X9774440D02*
D03*
X9874440Y7254009D02*
D03*
X9924440D02*
D03*
X9724440D02*
D03*
X9774440D02*
D03*
X10088740Y7256780D02*
D03*
X10038740D02*
D03*
X10238740D02*
D03*
X10188740D02*
D03*
X10088740Y7340280D02*
D03*
X10038740D02*
D03*
X10188740D02*
D03*
X10238740D02*
D03*
D30*
X9824440Y7337509D02*
D03*
Y7254009D02*
D03*
X10138740Y7256780D02*
D03*
Y7340280D02*
D03*
D31*
X1106798Y3495379D02*
D03*
X1283575Y3318602D02*
D03*
D32*
X4114800Y3949980D02*
D03*
X2626360D02*
D03*
X4859020D02*
D03*
X3370580D02*
D03*
X2626360Y6766840D02*
D03*
X3370580D02*
D03*
X4859020D02*
D03*
X4114800D02*
D03*
D33*
Y3349980D02*
D03*
X2626360D02*
D03*
X4859020D02*
D03*
X3370580D02*
D03*
X2626360Y6166840D02*
D03*
X3370580D02*
D03*
X4859020D02*
D03*
X4114800D02*
D03*
D34*
X1336375Y6709089D02*
D03*
X1230309Y6815155D02*
D03*
D35*
X586740Y7062280D02*
D03*
D36*
X459740D02*
D03*
X332740D02*
D03*
X205740D02*
D03*
X586740Y6562280D02*
D03*
X459740D02*
D03*
X332740D02*
D03*
X205740D02*
D03*
D37*
X927100Y3314700D02*
X962660Y3350260D01*
X1106798Y3494398D02*
Y3495379D01*
X962660Y3350260D02*
X1106798Y3494398D01*
D38*
X477390Y8721783D02*
D03*
D39*
X907412Y8511776D02*
D03*
X1157399Y8121759D02*
D03*
D40*
X627377Y7891762D02*
D03*
D41*
X7584440Y8661400D02*
D03*
Y7381240D02*
D03*
X8872922Y8661400D02*
D03*
Y7381240D02*
D03*
D42*
X7594346Y7671308D02*
D03*
Y7921244D02*
D03*
Y8121396D02*
D03*
Y8371332D02*
D03*
X7444486Y7621270D02*
D03*
Y7821422D02*
D03*
Y8021320D02*
D03*
Y8221218D02*
D03*
Y8421370D02*
D03*
X8882828Y7671308D02*
D03*
Y7921244D02*
D03*
Y8121396D02*
D03*
Y8371332D02*
D03*
X8732968Y7621270D02*
D03*
Y7821422D02*
D03*
Y8021320D02*
D03*
Y8221218D02*
D03*
Y8421370D02*
D03*
D43*
X10197198Y7781315D02*
D03*
X9767201D02*
D03*
Y8261325D02*
D03*
X10197198D02*
D03*
D44*
X1616116Y6469476D02*
D03*
X5416116D02*
D03*
X1616116Y3662126D02*
D03*
X5416116D02*
D03*
D45*
X9260455Y5651319D02*
D03*
X373380Y4394200D02*
D03*
X444500D02*
D03*
X513991Y4395111D02*
D03*
X317500Y4795520D02*
D03*
X568960Y4790440D02*
D03*
X416560Y4795520D02*
D03*
X414020Y4871720D02*
D03*
X9263380Y5765420D02*
D03*
X1463040Y7264400D02*
D03*
X1280160Y7231380D02*
D03*
X1356360Y7155180D02*
D03*
X1386840Y7338060D02*
D03*
X1752600Y6758940D02*
D03*
X1681480Y6835140D02*
D03*
X1783080Y6939280D02*
D03*
X1856740Y6865620D02*
D03*
X1338580Y4257040D02*
D03*
X1447800Y4384040D02*
D03*
X1445260Y4157980D02*
D03*
X1229360Y4165600D02*
D03*
X1341120Y4058920D02*
D03*
X1557020Y4272280D02*
D03*
X886460Y3972560D02*
D03*
X817880Y3888740D02*
D03*
X723900Y3937000D02*
D03*
X787400Y3995420D02*
D03*
X909320Y3860800D02*
D03*
X906780Y3484880D02*
D03*
X830580D02*
D03*
X754380D02*
D03*
X421640Y3225800D02*
D03*
X345440D02*
D03*
X269240D02*
D03*
X665480Y5186680D02*
D03*
X741680D02*
D03*
X817880D02*
D03*
X668020Y5349240D02*
D03*
X744220D02*
D03*
X820420D02*
D03*
X144621Y4270479D02*
D03*
X1259840Y5130800D02*
D03*
X1336040D02*
D03*
X1412240D02*
D03*
Y5080000D02*
D03*
X1336040D02*
D03*
X1259840D02*
D03*
X1262380Y5509260D02*
D03*
X1338580D02*
D03*
X1414780D02*
D03*
Y5458460D02*
D03*
X1338580D02*
D03*
X1262380D02*
D03*
X1346200Y4876800D02*
D03*
Y4795520D02*
D03*
Y4602480D02*
D03*
X1272540Y4876800D02*
D03*
Y4795520D02*
D03*
Y4602480D02*
D03*
X563880Y4947920D02*
D03*
X508000Y5034280D02*
D03*
X1346200Y4513580D02*
D03*
X1272540D02*
D03*
X494654Y4254434D02*
D03*
X485140Y4945380D02*
D03*
X378460Y5034280D02*
D03*
X251460D02*
D03*
X141921Y4714178D02*
D03*
X132080Y5031740D02*
D03*
X73660Y4958080D02*
D03*
Y4884420D02*
D03*
Y4813300D02*
D03*
X1219200Y7505700D02*
D03*
X1295400D02*
D03*
X1371600D02*
D03*
Y7556500D02*
D03*
X1295400D02*
D03*
X1219200D02*
D03*
X482600Y8364220D02*
D03*
X558800D02*
D03*
X635000D02*
D03*
X558800Y8313420D02*
D03*
X482600D02*
D03*
X635000D02*
D03*
X5908074Y4162028D02*
D03*
X5951220Y4010660D02*
D03*
X6235700Y3932891D02*
D03*
X9570200Y6962140D02*
D03*
X9632200D02*
D03*
X5862320Y3979750D02*
D03*
Y3917750D02*
D03*
X9781540Y8052333D02*
D03*
X10185400Y7990320D02*
D03*
X9415776Y7850372D02*
D03*
X10185400Y8052320D02*
D03*
X9781540Y7990333D02*
D03*
X9416114Y7788373D02*
D03*
X5888242Y3861429D02*
D03*
X5932802Y3818320D02*
D03*
X4734560Y3515360D02*
D03*
X4351020Y3517900D02*
D03*
X2321560Y3340100D02*
D03*
X492180Y5639837D02*
D03*
X144780Y5654040D02*
D03*
X8900160Y4412881D02*
D03*
Y4350881D02*
D03*
X9202963Y6208620D02*
D03*
Y6146620D02*
D03*
X8946018Y5920740D02*
D03*
Y6027420D02*
D03*
Y6347460D02*
D03*
Y6667500D02*
D03*
X8340318Y4673205D02*
D03*
X8444428Y4801782D02*
D03*
X8337132Y4431371D02*
D03*
X8335926Y4741799D02*
D03*
X8806182Y6155367D02*
D03*
X8806045Y6217367D02*
D03*
X8806180Y6538480D02*
D03*
Y6476480D02*
D03*
X8389620Y4772799D02*
D03*
Y4710799D02*
D03*
X8442960Y4652911D02*
D03*
Y4590911D02*
D03*
X8384900Y4532896D02*
D03*
Y4470896D02*
D03*
X7731537Y5075425D02*
D03*
X8027290Y5092253D02*
D03*
X7904768Y5023089D02*
D03*
X7053580Y6156440D02*
D03*
Y6218440D02*
D03*
X7965706Y5085080D02*
D03*
X7903706D02*
D03*
X7056120Y6538480D02*
D03*
Y6476480D02*
D03*
X7783691Y5041900D02*
D03*
X7845691D02*
D03*
X7465060Y6208620D02*
D03*
Y6146620D02*
D03*
X8023721Y5288280D02*
D03*
X8085721D02*
D03*
X8850770Y4450359D02*
D03*
X10137140Y7574673D02*
D03*
X6172200Y3817620D02*
D03*
X10137140Y7512673D02*
D03*
X6128359Y3773779D02*
D03*
X9718441Y7447280D02*
D03*
X9780440D02*
D03*
X9680942Y7395325D02*
D03*
X7761321Y6528103D02*
D03*
X7610293Y6533400D02*
D03*
X6639560Y6811760D02*
D03*
Y6873760D02*
D03*
X7719095Y6573501D02*
D03*
X7657097Y6574062D02*
D03*
X7879600Y6964680D02*
D03*
X7817600D02*
D03*
X6979920Y6680714D02*
D03*
Y6742713D02*
D03*
X9508200Y6962140D02*
D03*
X6210254Y3425890D02*
D03*
X6028013Y3442727D02*
D03*
X5929539Y3597550D02*
D03*
X5826506Y3867140D02*
D03*
X5873188Y3801285D02*
D03*
X6000176Y3673342D02*
D03*
X5929118Y3756429D02*
D03*
X5994080Y3827755D02*
D03*
X6081087Y3813895D02*
D03*
X6089880Y3446780D02*
D03*
X6151880D02*
D03*
X5960719Y3543961D02*
D03*
X6004560Y3500120D02*
D03*
X5986880Y3733900D02*
D03*
X6030720Y3777740D02*
D03*
X9407640Y6578600D02*
D03*
X9469640D02*
D03*
X5895340Y4101350D02*
D03*
Y4039350D02*
D03*
X8873629Y5384471D02*
D03*
X8745499Y5519141D02*
D03*
X8789340Y5475300D02*
D03*
X8833180Y5431460D02*
D03*
X8618148Y5008141D02*
D03*
X8618226Y4946141D02*
D03*
X8445639Y5283200D02*
D03*
X8383639D02*
D03*
X8294771Y5007934D02*
D03*
X8205451Y5039444D02*
D03*
X8382439Y5037838D02*
D03*
X8325298Y5061898D02*
D03*
X8263298Y5061753D02*
D03*
X8809308Y6414559D02*
D03*
X8803463Y6600420D02*
D03*
X8806193Y6279367D02*
D03*
X8806178Y6093367D02*
D03*
X9601200Y7015833D02*
D03*
X9128760Y7350760D02*
D03*
Y7292340D02*
D03*
X9509760Y7523480D02*
D03*
X8083224Y5740063D02*
D03*
X8266719Y5722356D02*
D03*
X8204720Y5722620D02*
D03*
X8142720D02*
D03*
X7050286Y6280352D02*
D03*
X7053580Y6094440D02*
D03*
X7032681Y6419081D02*
D03*
X6998077Y6560274D02*
D03*
X6669317Y6928152D02*
D03*
X6677765Y6762930D02*
D03*
X7940341Y6952252D02*
D03*
X7756859D02*
D03*
X10399519Y7402064D02*
D03*
X8226036Y8106773D02*
D03*
X10318016Y5312802D02*
D03*
X10318931Y4879160D02*
D03*
X10316680Y4484764D02*
D03*
X6939176Y5965471D02*
D03*
X9827916Y7935461D02*
D03*
X143568Y6088560D02*
D03*
X436880Y7653020D02*
D03*
X513080D02*
D03*
X589280D02*
D03*
Y7602220D02*
D03*
X513080D02*
D03*
X436880D02*
D03*
X952500Y7785100D02*
D03*
X1028700D02*
D03*
X1104900D02*
D03*
Y7734300D02*
D03*
X1028700D02*
D03*
X952500D02*
D03*
X101600Y8509000D02*
D03*
X177800D02*
D03*
X254000D02*
D03*
Y8458200D02*
D03*
X177800D02*
D03*
X101600D02*
D03*
X1277620Y8752840D02*
D03*
X1353820D02*
D03*
X1430020D02*
D03*
Y8702040D02*
D03*
X1353820D02*
D03*
X1277620D02*
D03*
X718820Y8816340D02*
D03*
X795020D02*
D03*
X871220D02*
D03*
Y8765540D02*
D03*
X795020D02*
D03*
X718820D02*
D03*
X1148080Y8455660D02*
D03*
X1224280D02*
D03*
X1300480D02*
D03*
Y8404860D02*
D03*
X1224280D02*
D03*
X1148080D02*
D03*
X1262380Y8133080D02*
D03*
X1338580D02*
D03*
X1414780D02*
D03*
Y8082280D02*
D03*
X1338580D02*
D03*
X1262380D02*
D03*
X111760Y8201660D02*
D03*
X187960D02*
D03*
X264160D02*
D03*
Y8150860D02*
D03*
X187960D02*
D03*
X111760D02*
D03*
X93980Y6281420D02*
D03*
Y6169660D02*
D03*
Y6228080D02*
D03*
X9075420Y4963160D02*
D03*
Y4917440D02*
D03*
X9076695Y4869151D02*
D03*
X9123680Y5212080D02*
D03*
X8244840Y3822700D02*
D03*
X347980Y6111240D02*
D03*
X414020D02*
D03*
X477520D02*
D03*
X541020Y6113780D02*
D03*
X2956560Y6764020D02*
D03*
X2827020D02*
D03*
X2702560D02*
D03*
X2697480Y3962400D02*
D03*
X2824480D02*
D03*
X2956560D02*
D03*
X4777740Y6019800D02*
D03*
X4845799Y6352483D02*
D03*
X4658360Y6062980D02*
D03*
X4541106Y6232950D02*
D03*
X4437980Y6033730D02*
D03*
X4303798Y6078848D02*
D03*
X3759200Y6197600D02*
D03*
X3947160Y6322060D02*
D03*
X3878985Y6086466D02*
D03*
X3614722Y6037832D02*
D03*
X3594100Y6296660D02*
D03*
X2811780Y6327140D02*
D03*
X2900680Y6240780D02*
D03*
X3088640Y6172200D02*
D03*
X2918460Y6073140D02*
D03*
X2989580Y6035040D02*
D03*
X2773680Y6029960D02*
D03*
X2905760Y3373120D02*
D03*
X2733040Y3246120D02*
D03*
X2768600Y3352800D02*
D03*
X2840851Y3282718D02*
D03*
X3126155Y3374751D02*
D03*
X3558540Y3385820D02*
D03*
X4522940Y3385371D02*
D03*
X4691432Y3389619D02*
D03*
X4340289Y3235994D02*
D03*
X4622761Y3262895D02*
D03*
X4366484Y3377583D02*
D03*
X3954780Y3406140D02*
D03*
X3731260Y3370580D02*
D03*
X3843020Y3248660D02*
D03*
X3604260Y3218180D02*
D03*
X3053080Y3230880D02*
D03*
X1328420Y6911340D02*
D03*
X1130300Y6715760D02*
D03*
X1290320Y6273800D02*
D03*
X1358900D02*
D03*
X1292860Y6192520D02*
D03*
X1358900D02*
D03*
X1297940Y5897880D02*
D03*
X1358900Y5900420D02*
D03*
X1346200Y5717540D02*
D03*
X1275080D02*
D03*
X637540Y6245860D02*
D03*
Y6299200D02*
D03*
X574040Y6245860D02*
D03*
Y6299200D02*
D03*
X360680Y5801360D02*
D03*
X449580D02*
D03*
X533400D02*
D03*
X228600Y6451600D02*
D03*
Y6400800D02*
D03*
X177800D02*
D03*
Y6451600D02*
D03*
X939800Y6807200D02*
D03*
Y6731000D02*
D03*
Y6654800D02*
D03*
X990600D02*
D03*
Y6731000D02*
D03*
Y6807200D02*
D03*
X1953050Y3446990D02*
D03*
X2057190Y3546050D02*
D03*
X1841290Y3553670D02*
D03*
X2057190Y3767030D02*
D03*
X2168950Y3660350D02*
D03*
X1950510D02*
D03*
X927100Y3314700D02*
D03*
X962660Y3350260D02*
D03*
X5212080Y3812540D02*
D03*
X3209116Y3501942D02*
D03*
X3082116D02*
D03*
X2574116D02*
D03*
X5114116Y6309292D02*
D03*
X4733116D02*
D03*
X4352116D02*
D03*
X3209116D02*
D03*
X3082116D02*
D03*
X2574116D02*
D03*
X2320116D02*
D03*
X9223700Y8651240D02*
D03*
X9350700D02*
D03*
X9477700D02*
D03*
X9604700Y8653780D02*
D03*
X7830820D02*
D03*
X7964480D02*
D03*
X8091480Y8652510D02*
D03*
X8218480Y8653780D02*
D03*
X8397240Y8754866D02*
D03*
X9679940Y8727440D02*
D03*
X9378000Y7659752D02*
D03*
X6324600Y3319780D02*
D03*
Y3276280D02*
D03*
X6464300Y3624580D02*
D03*
X6537960D02*
D03*
X6393180D02*
D03*
X8120380Y4775200D02*
D03*
X8067040D02*
D03*
Y4724400D02*
D03*
X8120380D02*
D03*
X7889240Y4777740D02*
D03*
X7835900D02*
D03*
Y4726940D02*
D03*
X7889240D02*
D03*
X8120380Y4655820D02*
D03*
X8067040D02*
D03*
Y4605020D02*
D03*
X8120380D02*
D03*
X7889240Y4658360D02*
D03*
X7835900D02*
D03*
Y4607560D02*
D03*
X7889240D02*
D03*
X8120380Y4528820D02*
D03*
X8067040D02*
D03*
Y4478020D02*
D03*
X8120380D02*
D03*
X7889240Y4528820D02*
D03*
X7835900D02*
D03*
Y4478020D02*
D03*
X7889240D02*
D03*
X7800340Y6344920D02*
D03*
X7731760Y6342380D02*
D03*
X7670800D02*
D03*
X7609840D02*
D03*
X7551420D02*
D03*
X7800340Y6225540D02*
D03*
X7731760D02*
D03*
X7670800D02*
D03*
X7609840D02*
D03*
X7551420D02*
D03*
X7704826Y6455674D02*
D03*
X7767320Y6456680D02*
D03*
X7830820D02*
D03*
X10441940Y7447280D02*
D03*
X10345420Y8034020D02*
D03*
X8785140Y4921385D02*
D03*
X7503160Y4683760D02*
D03*
X7762240Y4800600D02*
D03*
X7764420Y4881880D02*
D03*
X7680777Y4921885D02*
D03*
X7922260Y3289300D02*
D03*
X7830820Y3291840D02*
D03*
X8006080Y3289300D02*
D03*
X7741920Y3291840D02*
D03*
X7680777Y4841875D02*
D03*
X8553519Y3328601D02*
D03*
X8229600Y3289300D02*
D03*
X8577580Y3828883D02*
D03*
X8778240Y3952240D02*
D03*
X8229321Y7668455D02*
D03*
X10313234Y4043680D02*
D03*
X9257035Y4856451D02*
D03*
X9255760Y4953000D02*
D03*
X9257035Y4904711D02*
D03*
X9232900Y4101315D02*
D03*
X9298940D02*
D03*
X9232900Y4045762D02*
D03*
X9298940D02*
D03*
X7955280Y7289800D02*
D03*
Y7406640D02*
D03*
Y7348220D02*
D03*
X9128760Y7409180D02*
D03*
X9514840Y3733800D02*
D03*
X9240520Y3731260D02*
D03*
X9306560D02*
D03*
X9372600D02*
D03*
X9446260Y3732698D02*
D03*
X10462260Y3421380D02*
D03*
X10375900D02*
D03*
X10462260Y3347720D02*
D03*
X10375900D02*
D03*
X10396220Y3271520D02*
D03*
X10309860D02*
D03*
X10325100Y3208020D02*
D03*
X10238740D02*
D03*
X10223500Y3139440D02*
D03*
X10137140D02*
D03*
X10165080Y3202940D02*
D03*
X10078720D02*
D03*
X10002520Y3159760D02*
D03*
X9916160D02*
D03*
X9751486Y3130559D02*
D03*
X9677826Y3133099D02*
D03*
X9162206Y3138179D02*
D03*
X9334926Y3135639D02*
D03*
X9591466Y3133099D02*
D03*
X9837846Y3130559D02*
D03*
X9507646Y3133099D02*
D03*
X9248566Y3135639D02*
D03*
X9075846Y3138179D02*
D03*
X9421286Y3133099D02*
D03*
X10462260Y3505200D02*
D03*
X10375900D02*
D03*
X10462260Y3563620D02*
D03*
X10375900D02*
D03*
X10462260Y3622040D02*
D03*
X10375900D02*
D03*
X10462260Y3677920D02*
D03*
X10375900D02*
D03*
Y3733800D02*
D03*
X10462260D02*
D03*
X9065260Y4051300D02*
D03*
Y4099560D02*
D03*
X9121140Y4051300D02*
D03*
Y4099560D02*
D03*
X9080500Y4333240D02*
D03*
X9141460Y4335780D02*
D03*
Y4386580D02*
D03*
X9123680Y5161280D02*
D03*
X9075420D02*
D03*
Y5212080D02*
D03*
X9123680Y5260340D02*
D03*
X9075420D02*
D03*
X9124955Y4869151D02*
D03*
X9123680Y4917440D02*
D03*
Y4963160D02*
D03*
X9321115Y8173677D02*
D03*
X9281160Y8064500D02*
D03*
X8481060Y8067040D02*
D03*
X8351520Y7538720D02*
D03*
X8061960Y6207760D02*
D03*
X8221980Y8168640D02*
D03*
X9387423Y6301740D02*
D03*
X9296400Y6510020D02*
D03*
X9385300Y6418580D02*
D03*
X9387423Y6510020D02*
D03*
X9494520D02*
D03*
X9491980Y6416040D02*
D03*
Y6301740D02*
D03*
X9596953D02*
D03*
Y6416040D02*
D03*
Y6510020D02*
D03*
X7394660Y4297680D02*
D03*
Y4940300D02*
D03*
X8354060Y5404397D02*
D03*
X7241540Y5765800D02*
D03*
X9230360Y5821680D02*
D03*
X9489857Y6115364D02*
D03*
X9619015Y6128871D02*
D03*
X10038737Y6204988D02*
D03*
X9804710Y6217620D02*
D03*
X9123680Y7162800D02*
D03*
X9230360Y7155180D02*
D03*
X9113958Y7050720D02*
D03*
X8974711Y6882509D02*
D03*
X8971280Y6764020D02*
D03*
X8872220Y6776720D02*
D03*
X7477760Y7091749D02*
D03*
X7541191Y7152640D02*
D03*
X7249160Y7160260D02*
D03*
X7360029Y7049391D02*
D03*
X7272122Y6713118D02*
D03*
X7227191Y6887589D02*
D03*
X7044164Y6660497D02*
D03*
X7040880Y6769100D02*
D03*
X9940501Y4742180D02*
D03*
X7849677Y5850347D02*
D03*
X7854795Y6117545D02*
D03*
X7708696Y5977168D02*
D03*
X7844353Y5992917D02*
D03*
X7737257Y6115364D02*
D03*
X9489857Y5988241D02*
D03*
X9596953Y5992917D02*
D03*
X9825380Y7198129D02*
D03*
X9823500Y7393389D02*
D03*
X10137800Y7396160D02*
D03*
X10139680Y7200900D02*
D03*
X6299200Y3416300D02*
D03*
X10055140Y4865549D02*
D03*
X9938623Y6891276D02*
D03*
X9954260Y5885180D02*
D03*
X9953926Y5819842D02*
D03*
X10099040Y3982720D02*
D03*
X9931400Y5603240D02*
D03*
X10033000Y5057140D02*
D03*
X9941560D02*
D03*
X9987280D02*
D03*
Y4229100D02*
D03*
X9941560D02*
D03*
X10033000D02*
D03*
X7284720Y4300220D02*
D03*
Y4406900D02*
D03*
X7287260Y4508500D02*
D03*
Y4620260D02*
D03*
Y4724400D02*
D03*
Y4833620D02*
D03*
Y4937760D02*
D03*
Y5044440D02*
D03*
Y5153660D02*
D03*
X7716520Y5511800D02*
D03*
X7823200Y5466080D02*
D03*
X7995920Y5506720D02*
D03*
X7874762Y5404400D02*
D03*
X7994650D02*
D03*
X8114538D02*
D03*
X8116763Y5506340D02*
D03*
X8237220D02*
D03*
Y5404400D02*
D03*
X8356600Y5514340D02*
D03*
X8754660Y4803140D02*
D03*
X8867140D02*
D03*
X8754660Y4681220D02*
D03*
X8867140Y4559300D02*
D03*
Y4681220D02*
D03*
X8788360Y4206240D02*
D03*
X8754660Y4449892D02*
D03*
Y4561840D02*
D03*
X7785100Y3980180D02*
D03*
X7952740Y3937000D02*
D03*
X7833360Y4039320D02*
D03*
X7955280D02*
D03*
X8074025D02*
D03*
X8181340Y3934460D02*
D03*
X8074660D02*
D03*
X8288020D02*
D03*
X8529320Y3937000D02*
D03*
X8633460Y4006022D02*
D03*
X8054340Y5943600D02*
D03*
Y5877560D02*
D03*
Y5819140D02*
D03*
X8295640Y6022340D02*
D03*
Y5971540D02*
D03*
Y5918200D02*
D03*
X8173720Y6891020D02*
D03*
X8008620Y6959600D02*
D03*
X7528560Y5880820D02*
D03*
X7635240D02*
D03*
X7741920D02*
D03*
X7421880Y5773420D02*
D03*
X7741920D02*
D03*
X7635240D02*
D03*
X7528560D02*
D03*
X9125011Y5819140D02*
D03*
X7125418Y6073860D02*
D03*
Y5973362D02*
D03*
X7185658Y5920740D02*
D03*
Y6027420D02*
D03*
X7084060Y6344920D02*
D03*
X7185658Y6347460D02*
D03*
Y6667500D02*
D03*
X7544743Y6894660D02*
D03*
X7643960D02*
D03*
X7722700D02*
D03*
X7579360Y6834420D02*
D03*
X7688580D02*
D03*
X8195502Y6705600D02*
D03*
X8162847Y6385560D02*
D03*
Y6492240D02*
D03*
X8223087Y6549553D02*
D03*
X8222533Y6439453D02*
D03*
X9786620Y5882640D02*
D03*
Y5941060D02*
D03*
X9758680Y5821680D02*
D03*
X8834120Y5920740D02*
D03*
X8832632Y6027420D02*
D03*
X9387423Y5777865D02*
D03*
X10045696Y5930904D02*
D03*
Y5979164D02*
D03*
Y6022344D02*
D03*
X9494520Y5777865D02*
D03*
X9601200Y5850347D02*
D03*
X9915447Y6385560D02*
D03*
Y6492240D02*
D03*
X9977120Y6548120D02*
D03*
X9975133Y6436913D02*
D03*
X9334500Y6834420D02*
D03*
X9441180D02*
D03*
X8835172Y6667500D02*
D03*
X8830092Y6347460D02*
D03*
X9494520Y5880820D02*
D03*
X9272411Y6894971D02*
D03*
X9387840Y6894660D02*
D03*
X9948102Y6705600D02*
D03*
X10317480Y4556760D02*
D03*
X10205720D02*
D03*
X10261600D02*
D03*
Y5384800D02*
D03*
X10205720D02*
D03*
X10317480D02*
D03*
X9280083Y5880820D02*
D03*
X9387423D02*
D03*
X9240520Y3319780D02*
D03*
X9189720D02*
D03*
X9240520Y3268980D02*
D03*
X9189720D02*
D03*
X9240520Y3218180D02*
D03*
X9189720D02*
D03*
X6365240Y3416300D02*
D03*
%TF.MD5,f544990cb35a5d886593ef87ee27d36f*%
M02*
