%TF.GenerationSoftware,Altium Limited,Altium Designer,24.0.1 (36)*%
G04 Layer_Color=8421504*
%FSLAX45Y45*%
%MOMM*%
%TF.SameCoordinates,AAAF7447-B715-4BC7-9B32-5AEFA729C21C*%
%TF.FilePolarity,Positive*%
%TF.FileFunction,Paste,Top*%
%TF.Part,Single*%
G01*
G75*
%TA.AperFunction,SMDPad,CuDef*%
G04:AMPARAMS|DCode=17|XSize=1.95mm|YSize=1.5mm|CornerRadius=0mm|HoleSize=0mm|Usage=FLASHONLY|Rotation=45.000|XOffset=0mm|YOffset=0mm|HoleType=Round|Shape=Rectangle|*
%AMROTATEDRECTD17*
4,1,4,-0.15910,-1.21976,-1.21976,-0.15910,0.15910,1.21976,1.21976,0.15910,-0.15910,-1.21976,0.0*
%
%ADD17ROTATEDRECTD17*%

%TA.AperFunction,ConnectorPad*%
G04:AMPARAMS|DCode=18|XSize=2mm|YSize=3.5mm|CornerRadius=0mm|HoleSize=0mm|Usage=FLASHONLY|Rotation=315.000|XOffset=0mm|YOffset=0mm|HoleType=Round|Shape=Rectangle|*
%AMROTATEDRECTD18*
4,1,4,-1.94455,-0.53033,0.53033,1.94455,1.94455,0.53033,-0.53033,-1.94455,-1.94455,-0.53033,0.0*
%
%ADD18ROTATEDRECTD18*%

%TA.AperFunction,SMDPad,CuDef*%
%ADD19R,0.50000X0.50000*%
%ADD20R,0.88900X1.27000*%
%ADD22R,0.50000X0.50000*%
%ADD23R,1.00000X0.45000*%
%ADD24R,2.70000X1.00000*%
%ADD25O,2.70000X1.00000*%
G04:AMPARAMS|DCode=26|XSize=2.7mm|YSize=1mm|CornerRadius=0mm|HoleSize=0mm|Usage=FLASHONLY|Rotation=225.000|XOffset=0mm|YOffset=0mm|HoleType=Round|Shape=Rectangle|*
%AMROTATEDRECTD26*
4,1,4,0.60104,1.30815,1.30815,0.60104,-0.60104,-1.30815,-1.30815,-0.60104,0.60104,1.30815,0.0*
%
%ADD26ROTATEDRECTD26*%

G04:AMPARAMS|DCode=27|XSize=2.7mm|YSize=1mm|CornerRadius=0mm|HoleSize=0mm|Usage=FLASHONLY|Rotation=225.000|XOffset=0mm|YOffset=0mm|HoleType=Round|Shape=Round|*
%AMOVALD27*
21,1,1.70000,1.00000,0.00000,0.00000,225.0*
1,1,1.00000,0.60104,0.60104*
1,1,1.00000,-0.60104,-0.60104*
%
%ADD27OVALD27*%

%ADD29R,0.20000X0.56500*%
%TA.AperFunction,ConnectorPad*%
G04:AMPARAMS|DCode=31|XSize=1.2mm|YSize=3.5mm|CornerRadius=0mm|HoleSize=0mm|Usage=FLASHONLY|Rotation=135.000|XOffset=0mm|YOffset=0mm|HoleType=Round|Shape=Rectangle|*
%AMROTATEDRECTD31*
4,1,4,1.66170,0.81317,-0.81317,-1.66170,-1.66170,-0.81317,0.81317,1.66170,1.66170,0.81317,0.0*
%
%ADD31ROTATEDRECTD31*%

%TA.AperFunction,SMDPad,CuDef*%
%ADD32R,1.00000X2.70000*%
%ADD33O,1.00000X2.70000*%
G04:AMPARAMS|DCode=34|XSize=0.8mm|YSize=2.5mm|CornerRadius=0mm|HoleSize=0mm|Usage=FLASHONLY|Rotation=315.000|XOffset=0mm|YOffset=0mm|HoleType=Round|Shape=Rectangle|*
%AMROTATEDRECTD34*
4,1,4,-1.16673,-0.60104,0.60104,1.16673,1.16673,0.60104,-0.60104,-1.16673,-1.16673,-0.60104,0.0*
%
%ADD34ROTATEDRECTD34*%

%ADD35R,0.50000X1.50000*%
%ADD36O,0.50000X1.50000*%
%TA.AperFunction,NonConductor*%
%ADD128C,0.65001*%
G36*
X9960208Y7931315D02*
X9860209D01*
Y7961315D01*
X9960208D01*
Y7931315D01*
D02*
G37*
G36*
X10104209Y7931313D02*
X10004209D01*
Y7961312D01*
X10104209D01*
Y7931313D01*
D02*
G37*
G36*
X9960208Y7881328D02*
X9860209D01*
Y7911328D01*
X9960208D01*
Y7881328D01*
D02*
G37*
G36*
X10104209Y7881325D02*
X10004209D01*
Y7911325D01*
X10104209D01*
Y7881325D01*
D02*
G37*
G36*
X9960208Y7831315D02*
X9860209D01*
Y7861315D01*
X9960208D01*
Y7831315D01*
D02*
G37*
G36*
X10104209Y7831313D02*
X10004209D01*
Y7861313D01*
X10104209D01*
Y7831313D01*
D02*
G37*
G36*
X9960208Y7781328D02*
X9860209D01*
Y7811328D01*
X9960208D01*
Y7781328D01*
D02*
G37*
G36*
X10104209Y7781326D02*
X10004209D01*
Y7811325D01*
X10104209D01*
Y7781326D01*
D02*
G37*
G36*
X9960208Y7731315D02*
X9860209D01*
Y7761315D01*
X9960208D01*
Y7731315D01*
D02*
G37*
G36*
X10104209Y7731313D02*
X10004209D01*
Y7761313D01*
X10104209D01*
Y7731313D01*
D02*
G37*
G36*
X10156740Y7312030D02*
X10120740D01*
Y7368530D01*
X10156740D01*
Y7312030D01*
D02*
G37*
G36*
X9842440Y7309259D02*
X9806440D01*
Y7365759D01*
X9842440D01*
Y7309259D01*
D02*
G37*
G36*
X10156740Y7228530D02*
X10120740D01*
Y7285030D01*
X10156740D01*
Y7228530D01*
D02*
G37*
G36*
X9842440Y7225759D02*
X9806440D01*
Y7282259D01*
X9842440D01*
Y7225759D01*
D02*
G37*
G36*
X10104209Y8281325D02*
X10004209D01*
Y8311324D01*
X10104209D01*
Y8281325D01*
D02*
G37*
G36*
X9960208Y8281314D02*
X9860209D01*
Y8311314D01*
X9960208D01*
Y8281314D01*
D02*
G37*
G36*
Y8231314D02*
X9860209D01*
Y8261314D01*
X9960208D01*
Y8231314D01*
D02*
G37*
G36*
X10104209Y8231312D02*
X10004209D01*
Y8261312D01*
X10104209D01*
Y8231312D01*
D02*
G37*
G36*
X9960208Y8181327D02*
X9860209D01*
Y8211327D01*
X9960208D01*
Y8181327D01*
D02*
G37*
G36*
X10104209Y8181325D02*
X10004209D01*
Y8211325D01*
X10104209D01*
Y8181325D01*
D02*
G37*
G36*
X9960208Y8131315D02*
X9860209D01*
Y8161315D01*
X9960208D01*
Y8131315D01*
D02*
G37*
G36*
X10104209Y8131312D02*
X10004209D01*
Y8161312D01*
X10104209D01*
Y8131312D01*
D02*
G37*
G36*
X9960208Y8081328D02*
X9860209D01*
Y8111327D01*
X9960208D01*
Y8081328D01*
D02*
G37*
G36*
X10104209Y8081325D02*
X10004209D01*
Y8111325D01*
X10104209D01*
Y8081325D01*
D02*
G37*
G36*
X9960208Y8031328D02*
X9860209D01*
Y8061328D01*
X9960208D01*
Y8031328D01*
D02*
G37*
G36*
X10104209Y8031312D02*
X10004209D01*
Y8061312D01*
X10104209D01*
Y8031312D01*
D02*
G37*
G36*
X9960208Y7981328D02*
X9860209D01*
Y8011328D01*
X9960208D01*
Y7981328D01*
D02*
G37*
G36*
X10104209Y7981325D02*
X10004209D01*
Y8011325D01*
X10104209D01*
Y7981325D01*
D02*
G37*
D17*
X1768983Y6849237D02*
D03*
X1370457Y7247763D02*
D03*
D18*
X2005389Y3605263D02*
D03*
X1393459Y4217193D02*
D03*
D19*
X1192044Y4561840D02*
D03*
X1102044D02*
D03*
X123360Y4335780D02*
D03*
X213360D02*
D03*
X1192044Y5948680D02*
D03*
X1102044D02*
D03*
X213360Y5722620D02*
D03*
X123360D02*
D03*
D20*
X1327088Y4706620D02*
D03*
X1137088D02*
D03*
X1327088Y4417060D02*
D03*
X1137088D02*
D03*
X158992Y4841232D02*
D03*
X348992D02*
D03*
X1137088Y5803900D02*
D03*
X1327088D02*
D03*
Y6093460D02*
D03*
X1137088D02*
D03*
X348992Y6228072D02*
D03*
X158992D02*
D03*
D22*
X530860Y4252997D02*
D03*
Y4337997D02*
D03*
X510540Y4882980D02*
D03*
Y4792980D02*
D03*
X317500Y4340822D02*
D03*
Y4250822D02*
D03*
X424180Y4253320D02*
D03*
Y4338320D02*
D03*
X317500Y5727662D02*
D03*
Y5637662D02*
D03*
X424180Y5725160D02*
D03*
Y5640160D02*
D03*
X978740Y6998380D02*
D03*
Y7083380D02*
D03*
X866980Y7085882D02*
D03*
Y6995882D02*
D03*
X510540Y6179820D02*
D03*
Y6269820D02*
D03*
X530860Y5724837D02*
D03*
Y5639837D02*
D03*
D23*
X143932Y4466840D02*
D03*
Y4561840D02*
D03*
Y4656840D02*
D03*
X423332D02*
D03*
Y4561840D02*
D03*
Y4466840D02*
D03*
Y5853680D02*
D03*
Y5948680D02*
D03*
Y6043680D02*
D03*
X143932D02*
D03*
Y5948680D02*
D03*
Y5853680D02*
D03*
D24*
X743940Y5267960D02*
D03*
D25*
X1343940D02*
D03*
D26*
X773472Y3864652D02*
D03*
D27*
X349208Y3440388D02*
D03*
D29*
X9924440Y7337509D02*
D03*
X9874440D02*
D03*
X9724440D02*
D03*
X9774440D02*
D03*
X9874440Y7254009D02*
D03*
X9924440D02*
D03*
X9724440D02*
D03*
X9774440D02*
D03*
X10088740Y7256780D02*
D03*
X10038740D02*
D03*
X10238740D02*
D03*
X10188740D02*
D03*
X10088740Y7340280D02*
D03*
X10038740D02*
D03*
X10188740D02*
D03*
X10238740D02*
D03*
D31*
X1106798Y3495379D02*
D03*
X1283575Y3318602D02*
D03*
D32*
X4114800Y3949980D02*
D03*
X2626360D02*
D03*
X4859020D02*
D03*
X3370580D02*
D03*
X2626360Y6766840D02*
D03*
X3370580D02*
D03*
X4859020D02*
D03*
X4114800D02*
D03*
D33*
Y3349980D02*
D03*
X2626360D02*
D03*
X4859020D02*
D03*
X3370580D02*
D03*
X2626360Y6166840D02*
D03*
X3370580D02*
D03*
X4859020D02*
D03*
X4114800D02*
D03*
D34*
X1336375Y6709089D02*
D03*
X1230309Y6815155D02*
D03*
D35*
X586740Y7062280D02*
D03*
D36*
X459740D02*
D03*
X332740D02*
D03*
X205740D02*
D03*
X586740Y6562280D02*
D03*
X459740D02*
D03*
X332740D02*
D03*
X205740D02*
D03*
D128*
X10229710Y7781315D02*
G03*
X10229710Y7781315I-32512J0D01*
G01*
X9799713D02*
G03*
X9799713Y7781315I-32512J0D01*
G01*
Y8261325D02*
G03*
X9799713Y8261325I-32512J0D01*
G01*
X10229710D02*
G03*
X10229710Y8261325I-32512J0D01*
G01*
%TF.MD5,b49dc07137c50a1be2cf321ca5855c9a*%
M02*
