M48
;Layer_Color=9474304
;FILE_FORMAT=4:4
METRIC,LZ
;TYPE=PLATED
T01F00S00C0.3000
T02F00S00C0.7000
T03F00S00C0.7010
T06F00S00C2.3089
;TYPE=NON_PLATED
T07F00S00C1.2000
%
T01
X00026924Y0032258
X00034544
X00042164
X00075438Y00348488
X00083058
X00090678
X0009271Y0033147
X00096266Y00335026
X00090932Y0038608
X00081788Y00388874
X0007239Y003937
X00184129Y00355367
X00195051Y00366035
X00205719Y00376703
X00216895Y00366035
X00205719Y00354605
X00195305Y00344699
X00232156Y0033401
X00257412Y00350194
X0027686Y0033528
X00273304Y00324612
X00284085Y00328272
X00290576Y00337312
X00312616Y00337475
X00308212Y00350194
X00320912
X00305308Y00323088
X00360426Y00321818
X00355854Y00338582
X00373126Y00337058
X00384302Y00324866
X00395478Y00340614
X00295656Y0039624
X00282448
X00269748
X00435102Y0035179
X00436648Y00337758
X00452294Y00338537
X00469143Y00338962
X00473456Y00351536
X00462276Y00326289
X00434029Y00323599
X00521208Y00381254
X00582651Y00386714
X00588824Y00386143
X00587319Y00380129
X0059328Y00381832
X00592912Y00375643
X00598688Y0037339
X00600018Y00367334
X00603072Y00377774
X00608109Y0038139
X00612836Y00377378
X0061722Y00381762
X0062357Y00393289
X00599408Y00382775
X00586232Y00391775
X00592954Y00359755
X00596072Y00354396
X00600456Y00350012
X00602801Y00344273
X00608988Y00344678
X00615188
X00621025Y00342589
X0062992Y0034163
X00636524
X0063246Y00331978
Y00327628
X00639318Y00362458
X0064643
X00653796
X00774192Y00329184
X00783082
X00792226Y0032893
X00800608
X0082296
X00855352Y0033286
X00857758Y00382888
X00852932Y003937
X00828802Y00393446
X00818134
X00807466
X00795274Y003937
X00824484Y0038227
X00877824Y00395224
X00924052Y00373126
X00930656
X0093726
X00944626Y0037327
X00951484Y0037338
X00950765Y0031331
X00959147
X00967783
X00975149Y00313056
X00983785
X00991616Y00315976
X01000252
X01007872Y00320294
X01016508
X01023874Y00320802
X0102235Y00313944
X01013714
X0103251Y00320802
X01030986Y00327152
X01039622
X0103759Y00334772
Y00342138
Y0035052
Y00356362
Y00362204
Y00367792
Y0037338
X01046226
Y00367792
Y00362204
Y00356362
Y0035052
Y00342138
Y00334772
X00924052Y00331978
X00918972
Y00326898
X00924052
Y00321818
X00918972
X00916221Y00313818
X00907585
X00924857Y00313564
X00933493
X00942129Y0031331
X00929894Y00404576
Y00410131
X0092329
Y00404576
X00912114Y0040513
Y00409956
X00906526
Y0040513
X0090805Y00433324
X00914146Y00433578
Y00438658
X00890016Y00441288
Y00435088
X00885077Y00445036
X00875466Y00444989
Y00456184
X00886714Y0045593
Y00468122
X00875466
Y00480314
X00886714
X00878514Y00492138
X00861823Y00494614
X00861815Y00500814
X00838244Y00503784
X0083253Y0050619
X0082633Y00506175
X00820545Y00503944
X00829477Y00500793
X00833593Y0047418
X00834032Y00467321
X00838962Y0047108
Y0047728
X00844443Y00480178
X00844296Y00465291
Y00459091
X0083849Y0045329
Y0044709
X00833713Y00443137
X00812038Y00447802
Y00452882
X00806704
Y00447802
Y00460502
Y00465582
X00812038
Y00460502
Y0047244
Y0047752
X00806704
Y0047244
X00802729Y00509225
X00796571Y00508508
X00802372Y00528828
X00808572
X00811454Y0054044
X00811676Y00550634
X00823722
Y0054044
X00835406Y0054044
X0083566Y00551434
X00838364Y0052832
X00844564
X00887363Y00538447
X00883318Y00543146
X00878934Y0054753
X0087455Y00551914
X00883412Y00592074
X00883263Y00602742
X00880618Y00609337
X00880618Y00615537
X00880604Y00621737
X00880619Y00627937
X00883009Y00634746
X00880931Y00641456
X00880618Y00647648
Y00653848
X00880346Y00660042
X00883517Y0066675
X00894602
X00897128Y00676402
X00887222Y00677672
X00897471Y00688251
X00911396Y00705072
X00912368Y0071628
X00923036Y00715518
X00912876Y00729234
Y00735076
Y00740918
X00950976Y00752348
X009378Y00765975
X00941611Y00778837
X00941578Y00785037
X00982792Y00793546
X00978044Y00744728
X00971844
X00968094Y00739532
X0098235Y00739339
X00982538Y00719813
X01013968Y0072009
X0101378Y00739616
X01013714Y00751267
Y00757467
X01044194Y00744728
X01039952Y00740206
X00993862Y00689128
X0099481Y0067056
X00997712Y00654812
X00997513Y00643691
X00991545Y00638556
Y00649224
X00959695Y00651002
Y00641604
X00949198
X00949452Y00651002
X00946964Y0065786
X00940764
X00938742Y00651002
X0092964
X0093853Y00641858
X00938742Y00630174
X00949198
X00959695
X00961901Y00612887
X00948986Y00611536
Y00598824
X00959695Y00599292
X0096012Y00585035
X00949452Y00588082
Y00577786
X00938742
Y00588082
X00928008
X00923036Y00582168
X00926338Y00576542
X00926046Y00565132
X00912501Y00581914
X00894602Y00592074
Y00602742
Y00634746
X00920296Y00620862
Y00614662
X00980471Y00621762
X01003874Y00620499
X0100457Y00602234
Y00597916
Y0059309
X00995426Y00588518
X00995393Y00581984
X00975868Y00582168
X00978662Y00588264
Y00594106
X0099314Y00560324
X01020572Y0053848
X0102616
X01031748
X01031802Y0053128
X01031893Y00487916
X01005514Y00486555
X010033Y00505714
X00998728
X00994156
X0099405Y00474218
X01020572Y00455676
X0102616
X01031748
X01031668Y00448476
X01031323Y00404368
X01009904Y00398272
X010033Y0042291
X00998728
X00994156
X00878836Y00420624
X00863346Y00400602
X00807402Y00403932
X00795528
X00799465Y0054044
X00799592Y00550672
X00808322Y00574006
X00814272Y00572262
X00820472
X00826672Y00572236
X00829564Y0059182
Y00597154
Y00602234
X00805434Y0059436
Y00587756
Y00581914
X00806196Y00620776
X00816285Y00638556
Y00649224
X00822253Y00643945
X00822309Y00654955
X0081955Y0067056
X00817372Y00689102
X00800862Y0069596
X00794034Y00695225
X00795528Y0072898
Y00734822
Y00740664
X00835152Y00753872
X00822932Y00766845
X00927241Y00689497
X00938784Y00689466
X0093345Y00683442
X00944118
X0095082Y00696214
X0095702
X0096322
X0096012Y00701583
X00912368Y00526034
Y00521208
X00907542
Y00526034
Y00516128
X00912368
Y00496316
Y00491744
X00907542
Y00496316
X0090767Y00486915
X00912495
X00925704Y00485645
Y00490471
X00925576Y004953
X00790477Y00502309
X00790371Y00508508
X00784569Y0050419
X00778369
X00773154Y00507542
X00768078Y00492188
Y00484188
X00776224Y0048006
X00776442Y00488188
X0078359Y00477774
Y00472694
X00788924
Y00477774
Y00465836
Y00460756
X0078359
Y00465836
Y00452882
Y00447802
X00788924
Y00452882
X00750316Y00468376
X00728726Y0047244
Y00462026
Y0045085
X00728472Y0044069
Y00430022
X00739466Y00429768
Y0049403
X00728726Y00493776
Y00483362
Y00504444
Y00515366
X00724154Y0057658
X00742188Y00577342
X00752856
X00763524
X00774192
Y00588082
X00763524
X00752856
X0077087Y00597717
X00784435Y00599292
X0078548Y00611754
X00773726Y00611536
X00773176Y00622554
X0076708
X00760984
X00755142
X00746506Y00620862
Y00614662
X00755142Y00634238
X00760984
X0076708
X00773176
X00780034Y00634492
Y00622554
X00783082Y00645668
X00776732
X00770483Y00645567
X00776132Y0065281
X00771909Y0065735
X0076571Y00657406
X00761029Y0065334
X00757936Y00683442
X00754474Y00689466
X00764396
X0077227
X00775686Y00695225
X0078176Y00696468
X0078796
X00768858Y00683442
X00754119Y00715264
X00747776Y00709175
X00736003Y00704939
X00724916Y00716026
X00722719Y00688759
X00727212Y00671312
X00718566Y0066675
X00704416Y0066605
X00697992Y00668071
Y00674271
X00704088Y0067691
X00705612Y00653848
Y00647648
X00703268Y00641908
X00708406Y00634492
X00705029Y00628035
X00705358Y00621844
Y00615644
Y00609444
X00712542Y00607386
Y00597336
X00718566Y00592074
Y00602742
X00693918Y00596547
X00718566Y00634746
X00699808Y00656027
X00667776Y00676293
X00663956Y00681176
Y00687376
X00666932Y00692815
X00511412Y00630929
X0048458Y00635248
X00473312Y00630929
X00454111Y00623295
X00435212Y00630929
X0043038Y00607885
X00443798Y00603373
X00465836Y00606298
X00477774Y0060198
X00590807Y00416203
X00589534Y00410135
Y00403935
X00595122Y00401066
X00586232Y00397975
X0077851Y00398018
X00783336Y00403932
X00787476Y0054044
X0078232Y00546608
X00771652Y0055118
X00784968Y00585035
X00387898Y00608647
X0037592Y0061976
X0035941Y00629666
X00361472Y00603783
X00394716Y00632206
X00320912Y00630929
X00308212
X00308864Y0061722
X00298958Y00603504
X00291846Y00607314
X00290068Y00624078
X00281178Y00632714
X00257412Y00630929
X00232012
X00277368Y00602996
X00282702Y00676402
X00270256
X00295656
X00185674Y00686562
X00178308Y00693928
X00168148Y00683514
X0017526Y00675894
X00132842Y00691134
X00135636Y00715518
X00128016Y00723138
X00138684Y00733806
X00146304Y0072644
X0013716Y0075057
Y0075565
X0012954
Y0075057
X0012192
Y0075565
X0011049Y0077343
Y0077851
X0010287
Y0077343
X0009525
Y0077851
X00058928Y00765302
Y00760222
X00051308
Y00765302
X00043688
Y00760222
X0009398Y0068072
X0009906
Y006731
X0009398
Y0066548
X0009906
X0011303Y00671576
X00129032Y0062738
X0013589
Y00619252
X00129286
X00129794Y00589788
X0013589Y00590042
X0013462Y00571754
X00127508
X00126238Y00550926
Y00545846
X00133858
Y00550926
X00141478
Y00545846
X00141224Y0051308
Y00508
X00133604
Y0051308
X00125984
Y00508
X00127254Y0048768
X0013462
Y00479552
X00127254
Y00460248
X0013462
Y00451358
X00127254
X0014478Y00438404
X00155702Y00427228
X00144526Y00415798
X00134112Y00405892
X00133858Y00425704
X00122936Y0041656
X00088646Y00397256
X0007874Y00399542
X00049465Y00425443
X00051399Y00439511
X0004445Y0043942
X00037338
X00014462Y00427048
X00014192Y00471418
X00007366Y0048133
Y00488442
Y00495808
X00013208Y00503174
X00025146Y00503428
X00037846
X000508
X00048514Y00494538
X00056388Y00494792
X00056896Y00479044
X00041656Y00479552
X00041402Y00487172
X0003175Y00479552
X00066548Y00518668
X00074168
X00081788
X00082042Y00534924
X00074422
X00066802
X00049218Y00563984
X0005334Y00580136
X00044958
X00036068
X00034798Y00611124
X00041402
X00047752
X00054102Y00611378
X00057404Y00624586
Y0062992
X00063754
Y00624586
X00009398Y00622808
Y00628142
Y00616966
X00014357Y00608856
X0001778Y0064008
X0002286
Y0064516
X0001778
X00014478Y00565404
X00011176Y00815086
Y00820166
X00018796
Y00815086
X00026416
Y00820166
X000254Y0084582
Y008509
X0001778
Y0084582
X0001016
Y008509
X0004826Y00836422
Y00831342
X0005588
Y00836422
X000635
Y00831342
X00071882Y00876554
Y00881634
X00079502
Y00876554
X00087122
Y00881634
X00127762Y00875284
Y00870204
X00135382
Y00875284
X00143002
Y00870204
X00130048Y00845566
Y00840486
X00122428
Y00845566
X00114808
Y00840486
X00126238Y00813308
Y00808228
X00133858
Y00813308
X00141478
Y00808228
X00783082Y00865378
X00796448
X00809148Y00865251
X00821848Y00865378
X00839724Y00875487
X00822198Y00816864
X00822604Y00810677
X00848106Y00806704
X00928116Y0080645
X00932112Y00817368
X0093507Y00865124
X0092237
X0094777
X0096047Y00865378
X00967994Y00872744
X00978154Y00805233
Y00799033
X0101854Y00799032
Y00805232
X01034542Y00803402
T02
X0097672Y00778131
X0101972
Y00826133
X0097672
T03
X00873297Y00762127
X00888283Y00767131
Y00792124
X00873297Y00782142
X00759435Y00792124
X00744449Y00782142
Y00762127
X00759435Y00767131
Y0081214
X00744449Y00822122
Y00802132
Y00842137
X00759435Y00837133
X00873297Y00842137
X00888283Y00837133
Y0081214
X00873297Y00822122
Y00802132
T06
X00887292Y00738124
X00758444
Y0086614
X00887292
T07
X00161612Y00366213
X00541612
Y00646948
X00161612
M30
