%TF.GenerationSoftware,Altium Limited,Altium Designer,24.0.1 (36)*%
G04 Layer_Color=16711935*
%FSLAX45Y45*%
%MOMM*%
%TF.SameCoordinates,AAAF7447-B715-4BC7-9B32-5AEFA729C21C*%
%TF.FilePolarity,Positive*%
%TF.FileFunction,Other,Mechanical_1*%
%TF.Part,Single*%
G01*
G75*
%TA.AperFunction,NonConductor*%
%ADD129C,0.01270*%
%ADD130C,0.00508*%
D129*
X6920635Y4211200D02*
G03*
X7220635Y4511200I61J299939D01*
G01*
Y5612300D02*
G03*
X6920635Y5912300I-299939J61D01*
G01*
X1820635D02*
G03*
X1520635Y5612300I109J-300109D01*
G01*
Y4511200D02*
G03*
X1820635Y4211200I300109J109D01*
G01*
X1520635Y7324700D02*
G03*
X1820635Y7024700I300109J109D01*
G01*
Y8725800D02*
G03*
X1520635Y8425800I109J-300109D01*
G01*
X7220635Y8425800D02*
G03*
X6920635Y8725800I-299939J61D01*
G01*
Y7024700D02*
G03*
X7220635Y7324700I61J299939D01*
G01*
X10200635Y3098020D02*
G03*
X10500635Y3398020I61J299939D01*
G01*
X300635Y8898000D02*
G03*
X635Y8598000I-61J-299939D01*
G01*
X10500635Y8598000D02*
G03*
X10200635Y8898000I-299768J232D01*
G01*
X635Y3397999D02*
G03*
X300635Y3097999I300109J109D01*
G01*
X1820635Y4211200D02*
X6920635D01*
X1820635Y5912300D02*
X6920635D01*
X7220635Y4511200D02*
Y5612300D01*
X1520635Y4511200D02*
Y5612300D01*
Y7324700D02*
Y8425800D01*
X7220635Y7324700D02*
Y8425800D01*
X1820635Y8725800D02*
X6920635D01*
X1820635Y7024700D02*
X6920635D01*
X10500635Y8598000D02*
X10500635Y3398020D01*
X300635Y3097999D02*
X10200635Y3098000D01*
X300635Y8897999D02*
X10200635Y8898000D01*
X634Y8598000D02*
X635Y3397999D01*
D130*
X9953201Y7624498D02*
G03*
X9982205Y7596903I29004J1444D01*
G01*
X9982210Y7694511D02*
G03*
X9953211Y7665720I0J-29000D01*
G01*
X10011209D02*
G03*
X9982210Y7694511I-28999J-209D01*
G01*
X9982205Y7596903D02*
G03*
X10011199Y7624321I-0J29040D01*
G01*
X10015212Y8396326D02*
G03*
X10015212Y8396326I-33000J0D01*
G01*
X9953201Y7624498D02*
X9953211Y7665720D01*
X10011199Y7624321D02*
X10011209Y7665720D01*
%TF.MD5,6e8f3a05e39f6952784b8734cd5cb544*%
M02*
