%TF.GenerationSoftware,Altium Limited,Altium Designer,24.0.1 (36)*%
G04 Layer_Color=8388736*
%FSLAX45Y45*%
%MOMM*%
%TF.SameCoordinates,AAAF7447-B715-4BC7-9B32-5AEFA729C21C*%
%TF.FilePolarity,Negative*%
%TF.FileFunction,Soldermask,Top*%
%TF.Part,Single*%
G01*
G75*
%TA.AperFunction,SMDPad,CuDef*%
%ADD81C,2.27000*%
G04:AMPARAMS|DCode=82|XSize=2.1532mm|YSize=1.7032mm|CornerRadius=0mm|HoleSize=0mm|Usage=FLASHONLY|Rotation=45.000|XOffset=0mm|YOffset=0mm|HoleType=Round|Shape=Rectangle|*
%AMROTATEDRECTD82*
4,1,4,-0.15910,-1.36345,-1.36345,-0.15910,0.15910,1.36345,1.36345,0.15910,-0.15910,-1.36345,0.0*
%
%ADD82ROTATEDRECTD82*%

%TA.AperFunction,ConnectorPad*%
G04:AMPARAMS|DCode=83|XSize=2.2032mm|YSize=3.7032mm|CornerRadius=0mm|HoleSize=0mm|Usage=FLASHONLY|Rotation=315.000|XOffset=0mm|YOffset=0mm|HoleType=Round|Shape=Rectangle|*
%AMROTATEDRECTD83*
4,1,4,-2.08823,-0.53033,0.53033,2.08823,2.08823,0.53033,-0.53033,-2.08823,-2.08823,-0.53033,0.0*
%
%ADD83ROTATEDRECTD83*%

%TA.AperFunction,SMDPad,CuDef*%
%ADD84R,0.70320X0.70320*%
%ADD85R,1.09220X1.47320*%
%ADD86R,2.12321X1.92720*%
%ADD87R,0.70320X0.70320*%
%ADD88R,1.20320X0.65320*%
%ADD89R,2.90320X1.20320*%
%ADD90O,2.90320X1.20320*%
G04:AMPARAMS|DCode=91|XSize=2.9032mm|YSize=1.2032mm|CornerRadius=0mm|HoleSize=0mm|Usage=FLASHONLY|Rotation=225.000|XOffset=0mm|YOffset=0mm|HoleType=Round|Shape=Rectangle|*
%AMROTATEDRECTD91*
4,1,4,0.60104,1.45183,1.45183,0.60104,-0.60104,-1.45183,-1.45183,-0.60104,0.60104,1.45183,0.0*
%
%ADD91ROTATEDRECTD91*%

G04:AMPARAMS|DCode=92|XSize=2.9032mm|YSize=1.2032mm|CornerRadius=0mm|HoleSize=0mm|Usage=FLASHONLY|Rotation=225.000|XOffset=0mm|YOffset=0mm|HoleType=Round|Shape=Round|*
%AMOVALD92*
21,1,1.70000,1.20320,0.00000,0.00000,225.0*
1,1,1.20320,0.60104,0.60104*
1,1,1.20320,-0.60104,-0.60104*
%
%ADD92OVALD92*%

%ADD93R,1.20320X0.50320*%
%TA.AperFunction,ConnectorPad*%
G04:AMPARAMS|DCode=94|XSize=1.4032mm|YSize=3.7032mm|CornerRadius=0mm|HoleSize=0mm|Usage=FLASHONLY|Rotation=135.000|XOffset=0mm|YOffset=0mm|HoleType=Round|Shape=Rectangle|*
%AMROTATEDRECTD94*
4,1,4,1.80539,0.81317,-0.81317,-1.80539,-1.80539,-0.81317,0.81317,1.80539,1.80539,0.81317,0.0*
%
%ADD94ROTATEDRECTD94*%

%TA.AperFunction,SMDPad,CuDef*%
%ADD95R,1.20320X2.90320*%
%ADD96O,1.20320X2.90320*%
G04:AMPARAMS|DCode=97|XSize=1.0032mm|YSize=2.7032mm|CornerRadius=0mm|HoleSize=0mm|Usage=FLASHONLY|Rotation=315.000|XOffset=0mm|YOffset=0mm|HoleType=Round|Shape=Rectangle|*
%AMROTATEDRECTD97*
4,1,4,-1.31041,-0.60104,0.60104,1.31041,1.31041,0.60104,-0.60104,-1.31041,-1.31041,-0.60104,0.0*
%
%ADD97ROTATEDRECTD97*%

%ADD98R,0.70320X1.70320*%
%ADD99O,0.70320X1.70320*%
%TA.AperFunction,ComponentPad*%
%ADD100O,3.20319X1.50320*%
%ADD101O,1.70320X3.50319*%
%ADD102O,4.20319X1.70320*%
%ADD103C,3.20294*%
%ADD104C,1.40208*%
%ADD105C,1.50320*%
%ADD106C,1.20320*%
G36*
X9941440Y7302259D02*
X9907440D01*
Y7372759D01*
X9941440D01*
Y7302259D01*
D02*
G37*
G36*
X9891440D02*
X9857440D01*
Y7372759D01*
X9891440D01*
Y7302259D01*
D02*
G37*
G36*
X9851440D02*
X9797440D01*
Y7372759D01*
X9851440D01*
Y7302259D01*
D02*
G37*
G36*
X9791440D02*
X9757440D01*
Y7372759D01*
X9791440D01*
Y7302259D01*
D02*
G37*
G36*
X9741440D02*
X9707440D01*
Y7372759D01*
X9741440D01*
Y7302259D01*
D02*
G37*
G36*
X9941440Y7218759D02*
X9907440D01*
Y7289259D01*
X9941440D01*
Y7218759D01*
D02*
G37*
G36*
X9891440D02*
X9857440D01*
Y7289259D01*
X9891440D01*
Y7218759D01*
D02*
G37*
G36*
X9851440D02*
X9797440D01*
Y7289259D01*
X9851440D01*
Y7218759D01*
D02*
G37*
G36*
X9791440D02*
X9757440D01*
Y7289259D01*
X9791440D01*
Y7218759D01*
D02*
G37*
G36*
X9741440D02*
X9707440D01*
Y7289259D01*
X9741440D01*
Y7218759D01*
D02*
G37*
G36*
X10255740Y7305030D02*
X10221740D01*
Y7375530D01*
X10255740D01*
Y7305030D01*
D02*
G37*
G36*
X10205740D02*
X10171740D01*
Y7375530D01*
X10205740D01*
Y7305030D01*
D02*
G37*
G36*
X10165740D02*
X10111740D01*
Y7375530D01*
X10165740D01*
Y7305030D01*
D02*
G37*
G36*
X10105740D02*
X10071740D01*
Y7375530D01*
X10105740D01*
Y7305030D01*
D02*
G37*
G36*
X10055740D02*
X10021740D01*
Y7375530D01*
X10055740D01*
Y7305030D01*
D02*
G37*
G36*
X10255740Y7221530D02*
X10221740D01*
Y7292030D01*
X10255740D01*
Y7221530D01*
D02*
G37*
G36*
X10205740D02*
X10171740D01*
Y7292030D01*
X10205740D01*
Y7221530D01*
D02*
G37*
G36*
X10165740D02*
X10111740D01*
Y7292030D01*
X10165740D01*
Y7221530D01*
D02*
G37*
G36*
X10105740D02*
X10071740D01*
Y7292030D01*
X10105740D01*
Y7221530D01*
D02*
G37*
G36*
X10055740D02*
X10021740D01*
Y7292030D01*
X10055740D01*
Y7221530D01*
D02*
G37*
D81*
X132080Y4030980D02*
D03*
X10228580Y8630920D02*
D03*
D82*
X1768983Y6849237D02*
D03*
X1370457Y7247763D02*
D03*
D83*
X2005389Y3605263D02*
D03*
X1393459Y4217193D02*
D03*
D84*
X1192044Y4561840D02*
D03*
X1102044D02*
D03*
X123360Y4335780D02*
D03*
X213360D02*
D03*
X1192044Y5948680D02*
D03*
X1102044D02*
D03*
X213360Y5722620D02*
D03*
X123360D02*
D03*
D85*
X1327088Y4706620D02*
D03*
X1137088D02*
D03*
X1327088Y4417060D02*
D03*
X1137088D02*
D03*
X158992Y4841232D02*
D03*
X348992D02*
D03*
X1137088Y5803900D02*
D03*
X1327088D02*
D03*
Y6093460D02*
D03*
X1137088D02*
D03*
X348992Y6228072D02*
D03*
X158992D02*
D03*
D86*
X818822Y4789640D02*
D03*
Y4334040D02*
D03*
Y5720880D02*
D03*
Y6176480D02*
D03*
D87*
X530860Y4252997D02*
D03*
Y4337997D02*
D03*
X510540Y4882980D02*
D03*
Y4792980D02*
D03*
X317500Y4340822D02*
D03*
Y4250822D02*
D03*
X424180Y4253320D02*
D03*
Y4338320D02*
D03*
X317500Y5727662D02*
D03*
Y5637662D02*
D03*
X424180Y5725160D02*
D03*
Y5640160D02*
D03*
X978740Y6998380D02*
D03*
Y7083380D02*
D03*
X866980Y7085882D02*
D03*
Y6995882D02*
D03*
X510540Y6179820D02*
D03*
Y6269820D02*
D03*
X530860Y5724837D02*
D03*
Y5639837D02*
D03*
D88*
X143932Y4466840D02*
D03*
Y4561840D02*
D03*
Y4656840D02*
D03*
X423332D02*
D03*
Y4561840D02*
D03*
Y4466840D02*
D03*
Y5853680D02*
D03*
Y5948680D02*
D03*
Y6043680D02*
D03*
X143932D02*
D03*
Y5948680D02*
D03*
Y5853680D02*
D03*
D89*
X743940Y5267960D02*
D03*
D90*
X1343940D02*
D03*
D91*
X773472Y3864652D02*
D03*
D92*
X349208Y3440388D02*
D03*
D93*
X9910203Y7896327D02*
D03*
X10054196D02*
D03*
X9910203Y7796327D02*
D03*
Y7846314D02*
D03*
Y7946314D02*
D03*
Y7996326D02*
D03*
Y7746314D02*
D03*
Y8096326D02*
D03*
Y8146313D02*
D03*
Y8196326D02*
D03*
Y8246313D02*
D03*
Y8046339D02*
D03*
Y8296326D02*
D03*
X10054196Y7796327D02*
D03*
Y7846314D02*
D03*
Y7946314D02*
D03*
Y7996326D02*
D03*
Y7746314D02*
D03*
Y8096326D02*
D03*
Y8146313D02*
D03*
Y8196326D02*
D03*
Y8246313D02*
D03*
Y8046314D02*
D03*
Y8296326D02*
D03*
D94*
X1106798Y3495379D02*
D03*
X1283575Y3318602D02*
D03*
D95*
X4114800Y3949980D02*
D03*
X2626360D02*
D03*
X4859020D02*
D03*
X3370580D02*
D03*
X2626360Y6766840D02*
D03*
X3370580D02*
D03*
X4859020D02*
D03*
X4114800D02*
D03*
D96*
Y3349980D02*
D03*
X2626360D02*
D03*
X4859020D02*
D03*
X3370580D02*
D03*
X2626360Y6166840D02*
D03*
X3370580D02*
D03*
X4859020D02*
D03*
X4114800D02*
D03*
D97*
X1336375Y6709089D02*
D03*
X1230309Y6815155D02*
D03*
D98*
X586740Y7062280D02*
D03*
D99*
X459740D02*
D03*
X332740D02*
D03*
X205740D02*
D03*
X586740Y6562280D02*
D03*
X459740D02*
D03*
X332740D02*
D03*
X205740D02*
D03*
D100*
X477390Y8721783D02*
D03*
D101*
X907412Y8511776D02*
D03*
X1157399Y8121759D02*
D03*
D102*
X627377Y7891762D02*
D03*
D103*
X7584440Y8661400D02*
D03*
Y7381240D02*
D03*
X8872922Y8661400D02*
D03*
Y7381240D02*
D03*
D104*
X7594346Y7671308D02*
D03*
Y7921244D02*
D03*
Y8121396D02*
D03*
Y8371332D02*
D03*
X7444486Y7621270D02*
D03*
Y7821422D02*
D03*
Y8021320D02*
D03*
Y8221218D02*
D03*
Y8421370D02*
D03*
X8882828Y7671308D02*
D03*
Y7921244D02*
D03*
Y8121396D02*
D03*
Y8371332D02*
D03*
X8732968Y7621270D02*
D03*
Y7821422D02*
D03*
Y8021320D02*
D03*
Y8221218D02*
D03*
Y8421370D02*
D03*
D105*
X10197198Y7781315D02*
D03*
X9767201D02*
D03*
Y8261325D02*
D03*
X10197198D02*
D03*
D106*
X1616116Y6469476D02*
D03*
X5416116D02*
D03*
X1616116Y3662126D02*
D03*
X5416116D02*
D03*
%TF.MD5,5142f74dc4fa0d22ef6eacdb986a5eeb*%
M02*
